<svg width="31" height="31" viewBox="0 0 31 31" fill="none" xmlns="http://www.w3.org/2000/svg">
<rect x="1.01367" y="1.07227" width="29" height="29" rx="14.5" fill="#F1FBF9"/>
<path d="M14.9327 21.8565C14.6182 21.8727 14.3036 21.8967 13.9891 21.9031C13.0874 21.9221 12.278 21.6321 11.5388 21.1163C10.5814 20.4487 9.91311 19.5602 9.57792 18.4163C9.31775 17.53 9.35216 16.6472 9.56966 15.7573C9.65845 15.3918 9.92825 15.2909 10.2173 15.2006C10.3488 15.1589 10.4906 15.1519 10.6654 15.1229C10.5374 14.9656 10.4204 14.8386 10.3219 14.6981C9.81675 13.984 9.52286 13.1972 9.42374 12.3094C9.35423 11.6877 9.46229 11.1076 9.57448 10.5135C9.64468 10.1416 9.91793 10.0265 10.218 9.96162C11.0839 9.77391 11.9449 9.78379 12.7949 10.0654C12.8183 10.0731 12.8472 10.0611 12.8569 10.0604C12.8348 9.58973 12.7942 9.12328 12.7956 8.65753C12.7984 7.5849 13.1611 6.64706 13.8239 5.81718C14.2107 5.33238 14.6739 4.95625 15.1949 4.64293C15.4166 4.50956 15.6279 4.52508 15.8467 4.65352C17.0498 5.35708 17.8572 6.38102 18.1655 7.77049C18.3128 8.43454 18.3438 9.12045 18.1793 9.7979C18.1621 9.86847 18.1772 9.9468 18.1772 9.98914C18.7595 9.93974 19.3404 9.85012 19.9206 9.85506C20.3226 9.85859 20.728 9.97573 21.1224 10.0809C21.238 10.1119 21.3729 10.2587 21.4094 10.3808C21.6042 11.0335 21.673 11.6941 21.5973 12.3863C21.5064 13.219 21.2366 13.9586 20.7597 14.6276C20.6433 14.7906 20.5174 14.9458 20.3839 15.1194C20.5484 15.1646 20.7018 15.2175 20.8595 15.2493C21.3942 15.3565 21.4417 15.5471 21.5243 16.0629C21.5849 16.444 21.6358 16.8321 21.6324 17.2167C21.6221 18.2427 21.3055 19.1679 20.6853 19.9815C20.1085 20.738 19.3879 21.2955 18.5159 21.6349C17.7436 21.9356 16.9397 21.9638 16.0869 21.8572V22.1134C16.0869 22.9234 16.0882 23.7339 16.0866 24.5442H14.9866C14.9866 24.5442 14.9813 22.7839 14.9788 21.9038C14.9637 21.8883 14.9492 21.8727 14.9341 21.8565H14.9327ZM20.4623 11.0258C19.9895 11.0258 19.5208 10.9905 19.0589 11.0328C18.0967 11.1218 17.394 11.6969 16.8076 12.4273C16.1826 13.2056 16.0271 14.1322 16.0856 15.1131C16.1007 15.3657 16.2122 15.5329 16.4669 15.5301C16.8736 15.5259 17.2976 15.5647 17.6838 15.4631C19.0032 15.1152 19.9213 14.2797 20.3735 12.9424C20.5821 12.3263 20.5821 11.6962 20.4623 11.0258ZM15.5274 11.9989C16.0009 11.6369 16.4187 11.253 16.6968 10.7357C17.0726 10.0385 17.2212 9.31099 17.1455 8.49805C17.0409 7.37179 16.5254 6.5285 15.6781 5.86446C15.6148 5.81506 15.4427 5.8193 15.3828 5.87222C15.0938 6.12556 14.7765 6.36761 14.5604 6.68022C13.7991 7.78108 13.6718 8.99061 14.1226 10.2517C14.3897 10.999 14.8818 11.5699 15.5274 11.9989ZM16.1661 20.7041C18.5895 21.2609 21.0253 19.0148 20.4609 16.2937C17.7292 15.684 15.599 18.2491 16.1661 20.7041ZM14.8935 15.4603C14.8935 14.9522 14.9458 14.4406 14.8818 13.9445C14.7723 13.0991 14.3298 12.4308 13.7021 11.8677C12.9016 11.1493 11.9683 10.9136 10.9428 10.9834C10.8092 10.9926 10.5697 10.9418 10.5326 11.2255C10.4679 11.7138 10.4658 12.1916 10.5931 12.6728C10.9166 13.8929 11.6345 14.756 12.7612 15.2704C13.4426 15.5816 14.1433 15.5901 14.8935 15.4603ZM14.9334 20.6914C14.9334 20.2285 14.9864 19.7663 14.9224 19.3224C14.7964 18.4495 14.378 17.7318 13.7275 17.1334C12.9092 16.3812 11.9483 16.1638 10.898 16.2245C10.7748 16.2316 10.5966 16.3325 10.5525 16.4376C10.4816 16.607 10.4624 16.8215 10.4892 17.0071C10.5587 17.4912 10.6007 17.9958 10.77 18.4453C11.1307 19.4015 11.8093 20.0754 12.7268 20.5002C13.4171 20.8192 14.1254 20.8389 14.9334 20.6914Z" fill="#95ADA9"/>
<path fill-rule="evenodd" clip-rule="evenodd" d="M21.6328 25.5694C21.6328 26.1357 21.3588 26.5947 21.0209 26.5947L10.0064 26.5947C9.6685 26.5947 9.39453 26.1357 9.39453 25.5694C9.39453 25.0032 9.6685 24.5442 10.0064 24.5442L21.0209 24.5442C21.3588 24.5442 21.6328 25.0032 21.6328 25.5694Z" fill="#95ADA9"/>
<rect x="1.01367" y="1.07227" width="29" height="29" rx="14.5" stroke="#F1FBF9"/>
</svg>
