<svg width="31" height="31" viewBox="0 0 31 31" fill="none" xmlns="http://www.w3.org/2000/svg">
<rect x="1.01367" y="1.07227" width="29" height="29" rx="14.5" fill="#F1FBF9"/>
<path d="M19.8065 18.5754C19.8065 19.708 19.0928 20.4193 17.8863 20.5773V21.3851H16.7988V20.5861C15.8896 20.4895 15.2269 20.1558 14.7256 19.6817L15.6177 18.3646C16.0426 18.7861 16.6798 19.1197 17.4445 19.1197C17.7674 19.1197 18.0732 19.0056 18.0732 18.7773C18.0732 18.549 17.8353 18.4349 17.2746 18.3295C16.3399 18.1539 14.9125 17.9256 14.9125 16.4593C14.9125 15.5724 15.5498 14.7559 16.7988 14.589V13.7637H17.8863V14.6066C18.566 14.7032 19.1693 14.9578 19.6706 15.3793L18.753 16.6349C18.2602 16.2485 17.6229 16.0554 17.1726 16.0554C16.7478 16.0554 16.6543 16.2134 16.6543 16.3627C16.6543 16.591 16.8837 16.67 17.487 16.7754C18.4216 16.9422 19.8065 17.2232 19.8065 18.5754Z" fill="#95ADA9"/>
<path d="M11.8645 16.5605C11.8645 16.5605 11.8643 18.5556 11.8643 20.2963" stroke="#95ADA9" stroke-linecap="round" stroke-dasharray="2 2"/>
<path d="M23.123 15.0664C23.123 15.0664 23.123 17.0364 23.123 18.777" stroke="#95ADA9" stroke-linecap="round" stroke-dasharray="2 2"/>
<path d="M14.468 12.3659C16.4902 11.9159 18.6248 10.8756 21.2795 10.8756C23.3532 10.8756 24.4747 11.1929 25.0328 11.4391C25.1071 11.4719 25.1443 11.4883 25.2515 11.5906C25.3158 11.652 25.4331 11.832 25.4633 11.9156C25.5137 12.055 25.5137 12.1312 25.5137 12.2836L25.5137 21.3857C25.5137 22.1552 25.5137 22.54 25.3983 22.7378C25.2809 22.939 25.1677 23.0325 24.9479 23.1098C24.7319 23.1859 24.2959 23.1021 23.4238 22.9345C22.8135 22.8172 22.0895 22.7312 21.2795 22.7312C18.7391 22.7312 16.1986 24.4248 12.8113 24.4248C10.7376 24.4248 9.61609 24.1074 9.05805 23.8613C8.98373 23.8285 8.94657 23.8121 8.83932 23.7098C8.77504 23.6484 8.65769 23.4684 8.62751 23.3848C8.57715 23.2454 8.57715 23.1692 8.57715 23.0167L8.57715 15.5517" stroke="#95ADA9" stroke-width="1.5" stroke-linecap="round" stroke-linejoin="round"/>
<path fill-rule="evenodd" clip-rule="evenodd" d="M9.36071 13.3631C9.36071 13.7219 9.65153 14.0127 10.0103 14.0127C10.369 14.0127 10.6599 13.7219 10.6599 13.3631L10.6599 11.934L10.6599 11.8657L10.728 11.8657L12.1571 11.8657C12.5158 11.8657 12.8066 11.5749 12.8066 11.2161C12.8066 10.8574 12.5158 10.5665 12.1571 10.5665L10.728 10.5665L10.6599 10.5665L10.6599 10.4988L10.6599 9.0697C10.6599 8.71095 10.369 8.42012 10.0103 8.42012C9.65153 8.42012 9.36071 8.71095 9.36071 9.0697L9.36071 10.4988L9.36071 10.5665L9.29272 10.5665L7.86365 10.5665C7.5049 10.5665 7.21407 10.8574 7.21407 11.2161C7.21407 11.5749 7.5049 11.8657 7.86365 11.8657L9.29272 11.8657L9.36071 11.8657L9.36071 11.934L9.36071 13.3631Z" fill="#95ADA9"/>
<ellipse cx="10.0103" cy="11.2153" rx="4.49561" ry="4.49561" transform="rotate(-180 10.0103 11.2153)" stroke="#95ADA9" stroke-width="1.5" stroke-linecap="round" stroke-linejoin="round"/>
<rect x="1.01367" y="1.07227" width="29" height="29" rx="14.5" stroke="#F1FBF9"/>
</svg>
