<svg width="31" height="31" viewBox="0 0 31 31" fill="none" xmlns="http://www.w3.org/2000/svg">
<rect x="1.01367" y="1.07227" width="29" height="29" rx="14.5" fill="#F1FBF9"/>
<path d="M16.2949 14.3225C16.2949 15.4552 15.5812 16.1664 14.3746 16.3245V17.1323H13.2871V16.3333C12.3779 16.2367 11.7152 15.903 11.2139 15.4289L12.106 14.1118C12.5309 14.5332 13.1681 14.8669 13.9328 14.8669C14.2557 14.8669 14.5616 14.7528 14.5616 14.5245C14.5616 14.2962 14.3237 14.182 13.7629 14.0767C12.8282 13.901 11.4008 13.6727 11.4008 12.2064C11.4008 11.3195 12.038 10.5029 13.2871 10.3361V9.51074H14.3746V10.3537C15.0544 10.4503 15.6577 10.7049 16.159 11.1264L15.2413 12.382C14.7485 11.9957 14.1113 11.8025 13.6609 11.8025C13.2361 11.8025 13.1426 11.9605 13.1426 12.1098C13.1426 12.3381 13.372 12.4171 13.9753 12.5225C14.9099 12.6893 16.2949 12.9703 16.2949 14.3225Z" fill="#95ADA9"/>
<path d="M8.35274 12.3086C8.35274 12.3086 8.35254 14.3037 8.35254 16.0444" stroke="#95ADA9" stroke-linecap="round" stroke-dasharray="2 2"/>
<path d="M19.6113 10.8145C19.6113 10.8145 19.6113 12.7845 19.6113 14.5251" stroke="#95ADA9" stroke-linecap="round" stroke-dasharray="2 2"/>
<path d="M16.5595 18.7789C14.5373 19.2288 12.4027 20.2692 9.74787 20.2692C7.67421 20.2692 6.55263 19.9518 5.99458 19.7056C5.92026 19.6729 5.8831 19.6565 5.77585 19.5541C5.71157 19.4928 5.59422 19.3128 5.56403 19.2292C5.51367 19.0897 5.51367 19.0135 5.51367 18.8611L5.51367 9.75891C5.51367 8.98933 5.51367 8.60454 5.62908 8.40675C5.74647 8.20556 5.85968 8.11203 6.07941 8.03471C6.29542 7.9587 6.73146 8.04248 7.60353 8.21004C8.21392 8.32732 8.93785 8.41341 9.74787 8.41341C12.2884 8.41341 14.8289 6.71973 18.2163 6.71973C20.2899 6.71973 21.4115 7.03709 21.9696 7.28325C22.0439 7.31603 22.081 7.33242 22.1883 7.43477C22.2526 7.49613 22.3699 7.67614 22.4001 7.75972C22.4505 7.89915 22.4505 7.97537 22.4505 8.1278V15.593" stroke="#95ADA9" stroke-width="1.5" stroke-linecap="round" stroke-linejoin="round"/>
<path d="M23.8143 19.9299C23.8143 20.2886 23.5235 20.5795 23.1648 20.5795H21.7357H20.3004H18.8713C18.5125 20.5795 18.2217 20.2886 18.2217 19.9299C18.2217 19.5711 18.5125 19.2803 18.8713 19.2803H20.3004H21.7357H23.1648C23.5235 19.2803 23.8143 19.5711 23.8143 19.9299Z" fill="#95ADA9"/>
<ellipse cx="21.0172" cy="19.9293" rx="4.49568" ry="4.49568" stroke="#95ADA9" stroke-width="1.5" stroke-linecap="round" stroke-linejoin="round"/>
<rect x="1.01367" y="1.07227" width="29" height="29" rx="14.5" stroke="#F1FBF9"/>
</svg>
