<svg width="31" height="31" viewBox="0 0 31 31" fill="none" xmlns="http://www.w3.org/2000/svg">
<rect x="1.01367" y="1.07227" width="29" height="29" rx="14.5" fill="#F1FBF9"/>
<path d="M11.0068 15.293L20.5868 25.6803" stroke="#95ADA9" stroke-linecap="round" stroke-linejoin="round"/>
<path d="M24.6797 20.0225L13.5589 7.96445" stroke="#95ADA9" stroke-linecap="round" stroke-linejoin="round"/>
<path d="M16.7012 21.4668L20.5868 25.6798" stroke="#95ADA9" stroke-width="3" stroke-linecap="round" stroke-linejoin="round"/>
<path d="M16.7754 11.4502L13.5597 7.96354" stroke="#95ADA9" stroke-width="3" stroke-linecap="round" stroke-linejoin="round"/>
<path d="M6.42386 15.0972C6.33567 15.0016 6.28821 14.8754 6.29157 14.7453L6.39669 10.6721C6.40396 10.3903 6.64258 10.1703 6.92402 10.1858L10.9924 10.4098C11.1223 10.417 11.2443 10.4745 11.3325 10.5701L15.476 15.0629C15.6338 15.2339 15.6527 15.4912 15.5217 15.6834L13.8808 18.0914C13.8379 18.1544 13.7811 18.2068 13.7149 18.2444L11.1823 19.6856C10.98 19.8006 10.7252 19.761 10.5674 19.59L6.42386 15.0972Z" stroke="#95ADA9"/>
<path d="M27.9258 18.9121L24.0696 14.7309C23.2815 13.8764 22.0856 13.5275 20.9617 13.8241V13.8241C19.9566 14.0894 19.1481 14.835 18.8025 15.8154V15.8154C18.4161 16.9118 18.6674 18.1319 19.4555 18.9864L23.3117 23.1676" stroke="#95ADA9" stroke-linecap="round"/>
<rect x="1.01367" y="1.07227" width="29" height="29" rx="14.5" stroke="#F1FBF9"/>
</svg>
