<svg width="31" height="31" viewBox="0 0 31 31" fill="none" xmlns="http://www.w3.org/2000/svg">
<rect x="1.01367" y="1.07227" width="29" height="29" rx="14.5" fill="#F1FBF9"/>
<path d="M9.51367 9.75098C9.51367 7.54184 11.3045 5.75098 13.5137 5.75098H16.6839C18.893 5.75098 20.6839 7.54184 20.6839 9.75098V25.3823H9.51367V9.75098Z" stroke="#95ADA9" stroke-width="1.25"/>
<path d="M22.6421 10.3421C22.4217 10.0765 22.0276 10.0398 21.762 10.2603C21.4964 10.4807 21.4598 10.8747 21.6802 11.1403L22.6421 10.3421ZM21.9107 17.1961V22.0938H23.1607V17.1961H21.9107ZM25.0333 22.0938V14.8925H23.7833V22.0938H25.0333ZM23.9673 11.9389L22.6421 10.3421L21.6802 11.1403L23.0054 12.7372L23.9673 11.9389ZM25.0333 14.8925C25.0333 13.8138 24.6562 12.769 23.9673 11.9389L23.0054 12.7372C23.5081 13.3429 23.7833 14.1053 23.7833 14.8925H25.0333ZM23.472 23.655C24.3342 23.655 25.0333 22.956 25.0333 22.0938H23.7833C23.7833 22.2657 23.6439 22.405 23.472 22.405V23.655ZM21.9107 22.0938C21.9107 22.956 22.6097 23.655 23.472 23.655V22.405C23.3 22.405 23.1607 22.2657 23.1607 22.0938H21.9107ZM20.6631 15.9485C21.3521 15.9485 21.9107 16.5071 21.9107 17.1961H23.1607C23.1607 15.8167 22.0425 14.6985 20.6631 14.6985V15.9485Z" fill="#95ADA9"/>
<path d="M6.61816 25.3936H23.1666" stroke="#95ADA9" stroke-width="1.25" stroke-linecap="round"/>
<rect x="11.1699" y="7.83984" width="7.8605" height="6.26533" rx="3" stroke="#95ADA9" stroke-width="1.25"/>
<path d="M24.4078 15.3591C24.0805 15.3591 23.7605 15.2443 23.4884 15.0292C23.2163 14.8141 23.0041 14.5084 22.8789 14.1507C22.7536 13.7931 22.7209 13.3995 22.7847 13.0198C22.8486 12.6401 23.0062 12.2913 23.2376 12.0176L23.9351 12.8426C24.2403 13.2036 24.4078 13.6611 24.4078 14.1338L24.4078 15.3591Z" stroke="#95ADA9" stroke-width="1.25"/>
<rect x="1.01367" y="1.07227" width="29" height="29" rx="14.5" stroke="#F1FBF9"/>
</svg>
