<svg width="31" height="31" viewBox="0 0 31 31" fill="none" xmlns="http://www.w3.org/2000/svg">
<rect x="1.01367" y="1.07227" width="29" height="29" rx="14.5" fill="#F1FBF9"/>
<g clip-path="url(#clip0_4454_60248)">
<path d="M17.6384 25.1436H5.63995C5.39896 25.1436 5.19531 24.9352 5.19531 24.692V16.8745C5.19531 16.6313 5.40236 16.4229 5.63995 16.4229C5.87755 16.4229 6.08459 16.6313 6.08459 16.8745V24.275H17.6724C17.9134 24.275 18.117 24.4835 18.117 24.7267C18.0491 24.9352 17.8421 25.1436 17.6384 25.1436Z" fill="#95ADA9"/>
<path d="M23.1914 25.1448C22.9504 25.1448 22.7468 24.9363 22.7468 24.6931V20.8018H20.1774V24.7279C20.1774 24.9711 19.9703 25.1795 19.7327 25.1795C19.4951 25.1795 19.2881 24.9711 19.2881 24.7279V20.3501C19.2881 20.1069 19.4951 19.8984 19.7327 19.8984H23.1609C23.4019 19.8984 23.6055 20.1069 23.6055 20.3501V24.6931C23.6394 24.9363 23.4358 25.1448 23.1948 25.1448H23.1914Z" fill="#95ADA9"/>
<path d="M23.1936 25.1459C23.0578 25.1459 22.9526 25.0764 22.8508 24.9721L19.4226 20.6291C19.2869 20.4554 19.3208 20.1774 19.4905 20.0037C19.6602 19.8647 19.9352 19.8995 20.1083 20.0732L23.5364 24.4162C23.6722 24.5899 23.6382 24.8679 23.4685 25.0416C23.4006 25.1111 23.2988 25.1459 23.1936 25.1459Z" fill="#95ADA9"/>
<path d="M19.764 25.1449C19.6621 25.1449 19.5943 25.1101 19.489 25.0406C19.3193 24.9017 19.282 24.6237 19.4212 24.4152L22.8493 20.0722C22.9851 19.8985 23.26 19.8638 23.467 20.0027C23.6367 20.1417 23.6741 20.4197 23.5349 20.6281L20.1068 24.9712C20.005 25.0754 19.8997 25.1449 19.764 25.1449Z" fill="#95ADA9"/>
<path d="M14.621 22.9551H5.63995C5.39896 22.9551 5.19531 22.7466 5.19531 22.5034C5.19531 22.2602 5.40236 22.0518 5.63995 22.0518H14.6549C14.8959 22.0518 15.0996 22.2602 15.0996 22.5034C15.0656 22.7466 14.8586 22.9551 14.621 22.9551Z" fill="#95ADA9"/>
<path d="M17.6385 19.4805H9.47882C9.23783 19.4805 9.03418 19.272 9.03418 19.0288C9.03418 18.7856 9.24123 18.5771 9.47882 18.5771H17.6385C17.8795 18.5771 18.0831 18.7856 18.0831 19.0288C18.0831 19.272 17.8421 19.4805 17.6385 19.4805Z" fill="#95ADA9"/>
<path d="M24.4936 16.1458C24.2526 16.1458 24.049 15.9374 24.049 15.6942V8.74535L22.7796 7.14712L21.4762 8.78009V11.6639C21.4762 11.9071 21.2691 12.1155 21.0316 12.1155C20.794 12.1155 20.5869 11.9071 20.5869 11.6639V8.60637C20.5869 8.50214 20.6209 8.39791 20.6887 8.32842L22.4028 6.13954C22.4707 6.03531 22.6099 5.96582 22.7456 5.96582C22.8814 5.96582 22.9866 6.03531 23.0884 6.13954L24.8025 8.32842C24.8704 8.39791 24.9043 8.50214 24.9043 8.60637V15.6942C24.9043 15.9721 24.6973 16.1458 24.4936 16.1458Z" fill="#95ADA9"/>
<path d="M19.7651 12.1155C19.5241 12.1155 19.3205 11.9071 19.3205 11.6639V8.78009L18.051 7.14712L16.7477 8.78009V11.6639C16.7477 11.9071 16.5406 12.1155 16.303 12.1155C16.0654 12.1155 15.8584 11.9071 15.8584 11.6639V8.60637C15.8584 8.50214 15.8923 8.39791 15.9602 8.32842L17.6743 6.13954C17.7422 6.03531 17.8813 5.96582 18.0171 5.96582C18.1529 5.96582 18.2581 6.03531 18.3599 6.13954L20.074 8.32842C20.1419 8.39791 20.1758 8.50214 20.1758 8.60637V11.6639C20.2098 11.9071 20.0061 12.1155 19.7651 12.1155Z" fill="#95ADA9"/>
<path d="M11.6409 12.1151C11.3999 12.1151 11.1963 11.9067 11.1963 11.6635V8.60597C11.1963 8.36276 11.4033 8.1543 11.6409 8.1543C11.8785 8.1543 12.0856 8.36276 12.0856 8.60597V11.6635C12.0516 11.9067 11.8446 12.1151 11.6409 12.1151Z" fill="#95ADA9"/>
<path d="M15.0697 12.1159C14.8287 12.1159 14.6251 11.9075 14.6251 11.6643V8.78051L13.3556 7.14753L12.8431 7.80767C12.7073 7.98139 12.4324 8.01614 12.2254 7.87716C12.0557 7.73818 12.0183 7.46023 12.1575 7.25176L13.0162 6.1747C13.0841 6.07046 13.2233 6.00098 13.359 6.00098C13.4948 6.00098 13.6 6.07046 13.7018 6.1747L15.4159 8.36358C15.4838 8.43306 15.5177 8.5373 15.5177 8.64153V11.6643C15.4838 11.9075 15.2768 12.1159 15.0731 12.1159H15.0697Z" fill="#95ADA9"/>
<path d="M17.6381 17.3273H5.63958C5.50382 17.3273 5.33071 17.2578 5.26283 17.1188C5.19494 16.9798 5.19494 16.8061 5.26283 16.6672L8.28027 11.4555C8.34815 11.3166 8.48731 11.2471 8.65702 11.2471H21.5108C21.7518 11.2471 21.9555 11.4555 21.9555 11.6987C21.9555 11.942 21.7484 12.1504 21.5108 12.1504H8.86407L6.36255 16.4934H17.6075C17.8485 16.4934 18.0522 16.7019 18.0522 16.9451C18.0522 17.1883 17.8451 17.3273 17.6415 17.3273H17.6381Z" fill="#95ADA9"/>
<path d="M25.3486 25.1453H17.637C17.396 25.1453 17.1924 24.9368 17.1924 24.6936V16.8762C17.1924 16.7719 17.2263 16.7025 17.2942 16.5982L21.167 11.3866C21.2349 11.2824 21.374 11.2129 21.5098 11.2129C21.6456 11.2129 21.7847 11.2824 21.8526 11.3866L25.7254 16.5982C25.7933 16.6677 25.8272 16.7719 25.8272 16.8414V24.6589C25.7593 24.9368 25.5523 25.1453 25.3486 25.1453ZM18.0477 24.2767H24.904V17.0152L21.4759 12.3942L18.0477 17.0152V24.2767Z" fill="#95ADA9"/>
<path d="M24.4937 10.3789H22.7796C22.5386 10.3789 22.335 10.1705 22.335 9.92726C22.335 9.68405 22.542 9.47559 22.7796 9.47559H24.4937C24.7347 9.47559 24.9383 9.68405 24.9383 9.92726C24.9044 10.1705 24.6973 10.3789 24.4937 10.3789Z" fill="#95ADA9"/>
<path d="M17.6396 9.92678H16.3362C16.0953 9.92678 15.8916 9.71832 15.8916 9.47511C15.8916 9.2319 16.0986 9.02344 16.3362 9.02344H17.6396C17.8806 9.02344 18.0843 9.2319 18.0843 9.47511C18.0843 9.71832 17.8433 9.92678 17.6396 9.92678Z" fill="#95ADA9"/>
<path d="M19.7636 10.7959H18.4603C18.2193 10.7959 18.0156 10.5875 18.0156 10.3443C18.0156 10.101 18.2227 9.89258 18.4603 9.89258H19.7636C20.0046 9.89258 20.2083 10.101 20.2083 10.3443C20.2083 10.5875 20.0012 10.7959 19.7636 10.7959Z" fill="#95ADA9"/>
<path d="M13.7635 9.92678H11.6048C11.3638 9.92678 11.1602 9.71832 11.1602 9.47511C11.1602 9.2319 11.3672 9.02344 11.6048 9.02344H13.7635C14.0045 9.02344 14.2081 9.2319 14.2081 9.47511C14.2081 9.71832 14.0011 9.92678 13.7635 9.92678Z" fill="#95ADA9"/>
<path d="M24.4948 12.1162H23.636C23.3951 12.1162 23.1914 11.9078 23.1914 11.6646C23.1914 11.4214 23.3985 11.2129 23.636 11.2129H24.4948C24.7358 11.2129 24.9394 11.4214 24.9394 11.6646C24.9055 11.9078 24.6984 12.1162 24.4948 12.1162Z" fill="#95ADA9"/>
<path d="M25.3494 19.4815H23.1907C22.9497 19.4815 22.7461 19.273 22.7461 19.0298C22.7461 18.7866 22.9531 18.5781 23.1907 18.5781H25.3494C25.5904 18.5781 25.7941 18.7866 25.7941 19.0298C25.7941 19.273 25.5531 19.4815 25.3494 19.4815Z" fill="#95ADA9"/>
<path d="M19.7625 18.6123H17.6038C17.3628 18.6123 17.1592 18.4039 17.1592 18.1607C17.1592 17.9174 17.3662 17.709 17.6038 17.709H19.7625C20.0035 17.709 20.2072 17.9174 20.2072 18.1607C20.2072 18.4039 20.0001 18.6123 19.7625 18.6123Z" fill="#95ADA9"/>
<path d="M21.4762 16.8759C20.7567 16.8759 20.1729 16.2853 20.1729 15.5556C20.1729 14.826 20.7567 14.2354 21.4762 14.2354C22.1958 14.2354 22.7796 14.826 22.7796 15.5556C22.7796 16.2853 22.1958 16.8759 21.4762 16.8759ZM21.4762 15.1387C21.2352 15.1387 21.0316 15.3472 21.0316 15.5904C21.0316 15.8336 21.2386 16.042 21.4762 16.042C21.7138 16.042 21.9209 15.8336 21.9209 15.5904C21.9209 15.3472 21.7138 15.1387 21.4762 15.1387Z" fill="#95ADA9"/>
</g>
<rect x="1.01367" y="1.07227" width="29" height="29" rx="14.5" stroke="#F1FBF9"/>
<defs>
<clipPath id="clip0_4454_60248">
<rect width="20.6367" height="19.2135" fill="white" transform="translate(5.19531 5.96582)"/>
</clipPath>
</defs>
</svg>
