<svg width="31" height="31" viewBox="0 0 31 31" fill="none" xmlns="http://www.w3.org/2000/svg">
<rect x="1.01367" y="1.07227" width="29" height="29" rx="14.5" fill="#F1FBF9"/>
<path d="M22.4719 23.1299C22.0328 23.5944 21.0577 24.5234 20.6695 24.5234C20.1842 24.5234 19.6296 24.1751 19.2137 24.3841C18.9918 24.4956 18.428 25.0809 18.0352 25.4293" stroke="#95ADA9"/>
<rect x="12.6661" y="20.1025" width="8.5758" height="2.38527" rx="0.5" transform="rotate(45.8598 12.6661 20.1025)" stroke="#95ADA9"/>
<path d="M11.8633 10.665L15.2855 14.4275" stroke="#95ADA9" stroke-linecap="round" stroke-linejoin="round"/>
<path d="M18.9512 18.0918L24.9052 24.0458" stroke="#95ADA9" stroke-width="4" stroke-linecap="round" stroke-linejoin="round"/>
<path d="M7.22398 11.0755C7.12566 10.9771 7.07272 10.8423 7.07788 10.7034L7.23744 6.40266C7.24714 6.14107 7.45697 5.93125 7.71856 5.92154L12.0193 5.76198C12.1582 5.75683 12.293 5.80976 12.3914 5.90808L16.5535 10.0702C16.7208 10.2376 16.7479 10.4994 16.6183 10.6975L14.854 13.3935C14.8163 13.4512 14.7671 13.5004 14.7094 13.5381L12.0134 15.3024C11.8153 15.432 11.5535 15.405 11.3861 15.2376L7.22398 11.0755Z" stroke="#95ADA9"/>
<path d="M26.9826 17.0814C26.5867 16.5862 25.7455 16.6843 25.5121 16.8712L22.7111 19.674C22.6177 19.9776 22.473 20.5568 22.9212 21.0053C23.4814 21.5658 24.1816 21.3556 25.5821 20.0944C26.9484 18.864 27.5428 17.7821 26.9826 17.0814Z" stroke="#95ADA9" stroke-linecap="round"/>
<path d="M20.8267 14.2408C20.787 14.3022 20.748 14.3591 20.7106 14.4106C20.7458 14.3567 20.7846 14.2997 20.8267 14.2408Z" fill="white"/>
<path d="M18.5615 13.3654C19.0237 12.5989 20.156 11.2193 20.9879 11.8325C21.8197 12.4457 21.1496 13.8067 20.7106 14.4106C21.1958 13.6673 22.3743 12.3481 23.2062 13.017C24.0279 13.6673 22.8426 15.5727 22.3846 16.2597C22.8426 15.8017 24.5616 14.5579 25.1473 15.1073C25.8559 15.7721 25.1473 17.046 24.0381 18.2429C23.093 19.2627 22.0154 19.9725 21.4731 19.4274C20.7106 18.6609 20.8954 18.057 20.9879 17.8248" stroke="#95ADA9"/>
<path d="M17.7516 18.8148C17.6073 18.245 17.9114 16.6465 18.4886 16.7177C19.0657 16.7889 21.4307 18.886 22.5128 17.7464C23.5949 16.6068 19.1944 12.1909 16.3809 13.9003C14.1302 15.2678 14.3851 17.5565 14.7938 18.5299L13.0625 20.3817" stroke="#95ADA9"/>
<rect x="1.01367" y="1.07227" width="29" height="29" rx="14.5" stroke="#F1FBF9"/>
</svg>
