<svg width="31" height="31" viewBox="0 0 31 31" fill="none" xmlns="http://www.w3.org/2000/svg">
<rect x="1.01367" y="1.07227" width="29" height="29" rx="14.5" fill="#F1FBF9"/>
<path d="M26.429 15.2275C18.566 15.2275 11.7532 19.6936 8.42188 26.211" stroke="#95ADA9" stroke-linecap="round" stroke-linejoin="round"/>
<path d="M26.4297 18.5234C24.5567 18.5234 22.7549 18.8259 21.0713 19.3842M12.2246 26.2119C13.3998 24.4031 14.9167 22.8333 16.6846 21.5921" stroke="#95ADA9" stroke-linecap="round" stroke-linejoin="round"/>
<path d="M26.4286 21.6797C22.5436 21.6797 19.0554 23.3782 16.666 26.0731" stroke="#95ADA9" stroke-linecap="round" stroke-linejoin="round"/>
<path d="M4.59831 15.2295C8.49585 15.2295 12.1353 16.3268 15.2207 18.2273" stroke="#95ADA9" stroke-linecap="round" stroke-linejoin="round"/>
<path d="M4.60147 18.5234C6.04729 18.5234 7.45068 18.7037 8.79004 19.0427" stroke="#95ADA9" stroke-linecap="round" stroke-linejoin="round"/>
<path d="M4.5994 21.6797C6.69538 21.6797 8.67588 22.1741 10.4307 23.0526" stroke="#95ADA9" stroke-linecap="round" stroke-linejoin="round"/>
<path d="M9.37402 15.6617V12.9448C9.37402 12.7452 9.43373 12.5502 9.54546 12.3849L11.3671 9.68912C11.5531 9.41393 11.8635 9.24902 12.1957 9.24902H15.9106C16.2428 9.24902 16.5532 9.41393 16.7392 9.68912L18.5609 12.3849C18.6726 12.5502 18.7323 12.7452 18.7323 12.9448V16.5602" stroke="#95ADA9" stroke-linecap="round" stroke-linejoin="round"/>
<path d="M11.7109 9.83398L13.8133 12.3137C13.9664 12.4944 14.0505 12.7235 14.0505 12.9604V17.4376" stroke="#95ADA9" stroke-linecap="round" stroke-linejoin="round"/>
<path d="M9.95605 12.7578L18.1445 12.7578" stroke="#95ADA9" stroke-linecap="square" stroke-linejoin="round"/>
<path d="M12.5848 16.1533V15.2235C12.5848 14.6816 12.1454 14.2422 11.6034 14.2422V14.2422C11.0614 14.2422 10.6221 14.6816 10.6221 15.2235V15.4284" stroke="#95ADA9" stroke-linecap="square" stroke-linejoin="round"/>
<path d="M7.03516 9.24902L7.03516 15.0979" stroke="#95ADA9" stroke-linecap="round" stroke-linejoin="round"/>
<path d="M22.4492 9.3252V15.5721" stroke="#95ADA9" stroke-linecap="round" stroke-linejoin="round"/>
<path d="M8.4872 9.58543C8.4872 10.5887 8.2901 11.4723 7.99395 12.0866C7.68077 12.7361 7.34455 12.9297 7.13374 12.9297C6.92293 12.9297 6.5867 12.7361 6.27352 12.0866C5.97738 11.4723 5.78027 10.5887 5.78027 9.58543C5.78027 8.58221 5.97738 7.69854 6.27352 7.08431C6.5867 6.43475 6.92293 6.24121 7.13374 6.24121C7.34455 6.24121 7.68077 6.43475 7.99395 7.08431C8.2901 7.69854 8.4872 8.58221 8.4872 9.58543Z" stroke="#95ADA9" stroke-linecap="round" stroke-linejoin="round"/>
<path d="M24.5555 9.25639C24.5555 10.3774 24.2875 11.368 23.8804 12.0612C23.4664 12.7662 22.9669 13.0811 22.5155 13.0811C22.0641 13.0811 21.5647 12.7662 21.1507 12.0612C20.7435 11.368 20.4756 10.3774 20.4756 9.25639C20.4756 8.13533 20.7435 7.14481 21.1507 6.45154C21.5647 5.74659 22.0641 5.43164 22.5155 5.43164C22.9669 5.43164 23.4664 5.74659 23.8804 6.45154C24.2875 7.14481 24.5555 8.13533 24.5555 9.25639Z" stroke="#95ADA9" stroke-linecap="round" stroke-linejoin="round"/>
<rect x="1.01367" y="1.07227" width="29" height="29" rx="14.5" stroke="#F1FBF9"/>
</svg>
