<svg width="31" height="31" viewBox="0 0 31 31" fill="none" xmlns="http://www.w3.org/2000/svg">
<rect x="1.01367" y="1.07227" width="29" height="29" rx="14.5" fill="#F1FBF9"/>
<mask id="path-2-inside-1_4454_60363" fill="white">
<path d="M15.1519 19.1979C15.1519 22.0767 12.6723 24.4105 9.61355 24.4105C6.5548 24.4105 4.0752 22.0767 4.0752 19.1979C4.0752 16.3191 6.5548 13.9854 9.61355 13.9854C12.6723 13.9854 15.1519 16.3191 15.1519 19.1979ZM8.67532 19.1979C8.67532 19.6856 9.09538 20.081 9.61355 20.081C10.1317 20.081 10.5518 19.6856 10.5518 19.1979C10.5518 18.7102 10.1317 18.3149 9.61355 18.3149C9.09538 18.3149 8.67532 18.7102 8.67532 19.1979Z"/>
</mask>
<path d="M15.1519 19.1979C15.1519 22.0767 12.6723 24.4105 9.61355 24.4105C6.5548 24.4105 4.0752 22.0767 4.0752 19.1979C4.0752 16.3191 6.5548 13.9854 9.61355 13.9854C12.6723 13.9854 15.1519 16.3191 15.1519 19.1979ZM8.67532 19.1979C8.67532 19.6856 9.09538 20.081 9.61355 20.081C10.1317 20.081 10.5518 19.6856 10.5518 19.1979C10.5518 18.7102 10.1317 18.3149 9.61355 18.3149C9.09538 18.3149 8.67532 18.7102 8.67532 19.1979Z" stroke="#95ADA9" stroke-width="2" mask="url(#path-2-inside-1_4454_60363)"/>
<mask id="path-3-inside-2_4454_60363" fill="white">
<path d="M26.9512 20.8976C26.9512 22.9003 25.1724 24.5238 22.9781 24.5238C20.7837 24.5238 19.0049 22.9003 19.0049 20.8976C19.0049 18.895 20.7837 17.2715 22.9781 17.2715C25.1724 17.2715 26.9512 18.895 26.9512 20.8976ZM22.1745 20.8976C22.1745 21.3026 22.5343 21.631 22.9781 21.631C23.4218 21.631 23.7816 21.3026 23.7816 20.8976C23.7816 20.4926 23.4218 20.1643 22.9781 20.1643C22.5343 20.1643 22.1745 20.4926 22.1745 20.8976Z"/>
</mask>
<path d="M26.9512 20.8976C26.9512 22.9003 25.1724 24.5238 22.9781 24.5238C20.7837 24.5238 19.0049 22.9003 19.0049 20.8976C19.0049 18.895 20.7837 17.2715 22.9781 17.2715C25.1724 17.2715 26.9512 18.895 26.9512 20.8976ZM22.1745 20.8976C22.1745 21.3026 22.5343 21.631 22.9781 21.631C23.4218 21.631 23.7816 21.3026 23.7816 20.8976C23.7816 20.4926 23.4218 20.1643 22.9781 20.1643C22.5343 20.1643 22.1745 20.4926 22.1745 20.8976Z" stroke="#95ADA9" stroke-width="2" mask="url(#path-3-inside-2_4454_60363)"/>
<path d="M16.115 19.3125C16.115 15.933 13.1762 13.1934 9.55097 13.1934C7.55136 13.1934 5.76058 14.0269 4.55664 15.3416" stroke="#95ADA9" stroke-linecap="round"/>
<path d="M18.6866 19.3116C19.3317 17.6604 21.0027 16.484 22.9624 16.484C24.6787 16.484 26.1736 17.3863 26.9518 18.7198V16.1905C26.9518 15.9116 26.7257 15.6855 26.4467 15.6855V15.6855C26.1678 15.6855 25.9417 15.4593 25.9417 15.1804V14.5436C25.9417 14.0374 25.5634 13.611 25.0607 13.5507L17.7876 12.6787C17.4077 12.6331 17.087 12.3747 16.9617 12.0131L15.3266 7.2928C15.1872 6.89015 14.8079 6.62012 14.3817 6.62012H8.00942C7.45714 6.62012 7.00942 7.06783 7.00942 7.62012V12.3252C7.00942 12.5882 6.90582 12.8406 6.72105 13.0278L4.37695 15.4022" stroke="#95ADA9" stroke-linecap="round" stroke-linejoin="round"/>
<path d="M18.765 19.8115C19.0411 19.8115 19.265 19.5877 19.265 19.3115C19.265 19.0354 19.0411 18.8115 18.765 18.8115V19.8115ZM16.1162 19.8115H18.765V18.8115H16.1162V19.8115Z" fill="#95ADA9"/>
<rect x="18.8218" y="14.8511" width="5.42717" height="0.596802" rx="0.298401" stroke="#95ADA9" stroke-width="0.596802"/>
<rect x="8.42969" y="7.80078" width="2.37117" height="3.53267" rx="0.5" stroke="#95ADA9"/>
<path d="M12.7617 8.30078C12.7617 8.02464 12.9856 7.80078 13.2617 7.80078H13.4246C13.6409 7.80078 13.8326 7.93977 13.8998 8.14527L14.7287 10.6779C14.8344 11.0012 14.5936 11.3335 14.2535 11.3335H13.2617C12.9856 11.3335 12.7617 11.1096 12.7617 10.8335V8.30078Z" stroke="#95ADA9"/>
<rect x="1.01367" y="1.07227" width="29" height="29" rx="14.5" stroke="#F1FBF9"/>
</svg>
