<svg width="31" height="31" viewBox="0 0 31 31" fill="none" xmlns="http://www.w3.org/2000/svg">
<rect x="1.01367" y="1.07227" width="29" height="29" rx="14.5" fill="#F1FBF9"/>
<path d="M14.9516 10.6865C14.8907 10.6865 14.8311 10.7046 14.7805 10.7384C14.7298 10.7723 14.6903 10.8204 14.667 10.8767C14.6437 10.933 14.6376 10.9949 14.6495 11.0547C14.6614 11.1144 14.6907 11.1693 14.7338 11.2124C14.7769 11.2555 14.8317 11.2848 14.8915 11.2967C14.9513 11.3086 15.0132 11.3025 15.0695 11.2792C15.1258 11.2558 15.1739 11.2164 15.2077 11.1657C15.2416 11.115 15.2596 11.0555 15.2596 10.9946C15.2596 10.9541 15.2517 10.9141 15.2362 10.8767C15.2207 10.8393 15.198 10.8053 15.1694 10.7767C15.1408 10.7481 15.1068 10.7255 15.0695 10.71C15.0321 10.6945 14.992 10.6865 14.9516 10.6865Z" fill="#95ADA9"/>
<path d="M16.0746 11.3026C16.1356 11.3026 16.1951 11.2845 16.2458 11.2507C16.2964 11.2168 16.3359 11.1687 16.3592 11.1124C16.3825 11.0562 16.3886 10.9942 16.3768 10.9345C16.3649 10.8747 16.3355 10.8198 16.2925 10.7767C16.2494 10.7337 16.1945 10.7043 16.1347 10.6924C16.075 10.6806 16.013 10.6867 15.9568 10.71C15.9005 10.7333 15.8524 10.7728 15.8185 10.8234C15.7847 10.8741 15.7666 10.9336 15.7666 10.9946C15.7666 11.035 15.7746 11.0751 15.7901 11.1124C15.8055 11.1498 15.8282 11.1838 15.8568 11.2124C15.8854 11.241 15.9194 11.2637 15.9568 11.2792C15.9941 11.2946 16.0342 11.3026 16.0746 11.3026Z" fill="#95ADA9"/>
<path d="M15.5133 4.91113C13.4048 4.91113 11.3437 5.53638 9.59051 6.7078C7.83736 7.87922 6.47094 9.54421 5.66405 11.4922C4.85716 13.4402 4.64604 15.5837 5.05739 17.6517C5.46874 19.7197 6.48408 21.6193 7.97501 23.1102C9.46595 24.6012 11.3655 25.6165 13.4335 26.0279C15.5015 26.4392 17.645 26.2281 19.593 25.4212C21.541 24.6143 23.206 23.2479 24.3774 21.4947C25.5489 19.7416 26.1741 17.6804 26.1741 15.5719C26.1714 12.7453 25.0474 10.0352 23.0487 8.03654C21.05 6.03783 18.3399 4.91379 15.5133 4.91113ZM15.5133 25.563C13.5373 25.563 11.6056 24.9771 9.96255 23.8792C8.31951 22.7814 7.03893 21.221 6.28272 19.3954C5.52652 17.5697 5.32866 15.5608 5.71417 13.6227C6.09968 11.6846 7.05124 9.9044 8.44853 8.50712C9.84581 7.10983 11.6261 6.15827 13.5642 5.77276C15.5022 5.38725 17.5111 5.5851 19.3368 6.34131C21.1624 7.09751 22.7228 8.3781 23.8207 10.0211C24.9185 11.6642 25.5045 13.5959 25.5045 15.5719C25.5018 18.2209 24.4483 20.7606 22.5752 22.6338C20.7021 24.5069 18.1623 25.5604 15.5133 25.563Z" fill="#95ADA9"/>
<path d="M15.5114 6.75984C13.5032 6.75133 11.5538 7.43741 9.99352 8.70182C9.95721 8.73115 9.92743 8.76775 9.90609 8.80926C9.88476 8.85078 9.87234 8.89629 9.86963 8.94289C9.86709 8.98974 9.87441 9.03661 9.89114 9.08045C9.90787 9.12428 9.93362 9.16411 9.96673 9.19736L21.8731 21.1171C21.9043 21.1481 21.9414 21.1727 21.9822 21.1893C22.023 21.206 22.0667 21.2144 22.1108 21.2142C22.158 21.2119 22.2041 21.1997 22.2462 21.1784C22.2884 21.157 22.3255 21.127 22.3552 21.0903C23.394 19.7967 24.0466 18.2362 24.2378 16.5882C24.429 14.9402 24.1512 13.2717 23.4362 11.7746C22.7213 10.2775 21.5982 9.01265 20.1963 8.12552C18.7943 7.23838 17.1705 6.76501 15.5114 6.75984ZM14.1319 11.4474C14.1227 11.2603 14.1516 11.0733 14.2169 10.8977C14.2821 10.7221 14.3824 10.5616 14.5115 10.4259C14.6407 10.2902 14.7961 10.1822 14.9682 10.1084C15.1404 10.0346 15.3258 9.99653 15.5131 9.99653C15.7004 9.99653 15.8858 10.0346 16.0579 10.1084C16.2301 10.1822 16.3855 10.2902 16.5146 10.4259C16.6438 10.5616 16.7441 10.7221 16.8093 10.8977C16.8746 11.0733 16.9034 11.2603 16.8942 11.4474C16.8916 11.5171 16.8837 11.5864 16.8708 11.655C16.4445 11.4587 15.9807 11.3571 15.5114 11.3571C15.0421 11.3571 14.5783 11.4587 14.152 11.655C14.1395 11.5831 14.1328 11.5103 14.1319 11.4373V11.4474ZM18.9835 17.2666L14.1252 12.4083C14.5432 12.154 15.0222 12.0175 15.5114 12.0132C17.4366 12.0132 19.0036 14.1427 19.0036 16.761C19.0036 16.9284 18.9969 17.0992 18.9835 17.2666ZM22.0907 20.3738L19.5829 17.8659C19.6415 17.5028 19.6717 17.1356 19.6733 16.7677L20.7447 17.1427L20.9389 18.7398C20.9488 18.8215 20.9884 18.8967 21.0501 18.951C21.1119 19.0054 21.1915 19.0351 21.2737 19.0345H21.3139C21.358 19.0295 21.4007 19.0158 21.4394 18.9942C21.4782 18.9726 21.5123 18.9435 21.5397 18.9086C21.5671 18.8737 21.5873 18.8337 21.5991 18.791C21.611 18.7482 21.6142 18.7035 21.6085 18.6595L21.3876 16.8548C21.3799 16.793 21.3552 16.7346 21.3161 16.6861C21.2771 16.6376 21.2253 16.6009 21.1666 16.5802L19.7905 16.0981C19.7422 16.085 19.6914 16.085 19.6431 16.0981C19.6431 15.9675 19.6163 15.8369 19.5963 15.7097L21.3507 14.7253C21.4025 14.6962 21.4455 14.6539 21.4755 14.6027C21.5055 14.5516 21.5214 14.4933 21.5215 14.434V13.3626C21.5215 13.2738 21.4862 13.1886 21.4234 13.1258C21.3606 13.063 21.2755 13.0277 21.1867 13.0277C21.0979 13.0277 21.0127 13.063 20.9499 13.1258C20.8871 13.1886 20.8518 13.2738 20.8518 13.3626V14.2331L19.4489 15.0199C19.1653 13.8179 18.4714 12.7523 17.4869 12.0065C17.5386 11.8257 17.5656 11.6388 17.5672 11.4507C17.5665 11.1032 17.4776 10.7615 17.309 10.4576C17.1404 10.1537 16.8975 9.89752 16.6029 9.71299L16.834 9.16053C16.8527 9.11986 16.8631 9.0759 16.8648 9.03118C16.8665 8.98645 16.8594 8.94182 16.8439 8.89985C16.8283 8.85788 16.8047 8.81938 16.7742 8.78655C16.7438 8.75372 16.7072 8.7272 16.6666 8.70852C16.6259 8.68983 16.5819 8.67934 16.5372 8.67764C16.4925 8.67594 16.4478 8.68306 16.4059 8.69861C16.3639 8.71415 16.3254 8.73781 16.2926 8.76824C16.2597 8.79866 16.2332 8.83526 16.2145 8.87593L15.9802 9.43174C15.6723 9.35585 15.3506 9.35585 15.0427 9.43174L14.8083 8.87593C14.7923 8.83379 14.768 8.79531 14.7368 8.76279C14.7056 8.73027 14.6682 8.70438 14.6267 8.68668C14.5853 8.66897 14.5407 8.65981 14.4957 8.65975C14.4506 8.65968 14.406 8.66871 14.3645 8.6863C14.323 8.70389 14.2855 8.72967 14.2542 8.7621C14.2229 8.79453 14.1985 8.83294 14.1824 8.87503C14.1663 8.91712 14.1589 8.96203 14.1606 9.00706C14.1623 9.05209 14.173 9.09632 14.1922 9.13709L14.4232 9.68955C14.1291 9.87424 13.8867 10.1306 13.7186 10.4345C13.5506 10.7384 13.4624 11.08 13.4623 11.4273C13.4628 11.5394 13.4717 11.6513 13.4891 11.7621L10.71 8.98307C12.1029 7.96456 13.7859 7.42 15.5114 7.42949C17.6705 7.43215 19.7405 8.2908 21.2676 9.81722C22.7946 11.3436 23.6541 13.4133 23.6577 15.5724C23.663 17.2994 23.1138 18.9824 22.0907 20.3738Z" fill="#95ADA9"/>
<path d="M9.15021 10.0273C9.11696 9.99417 9.07713 9.96842 9.03329 9.95169C8.98945 9.93496 8.94259 9.92763 8.89574 9.93018C8.84857 9.93243 8.8024 9.94462 8.76028 9.96597C8.71815 9.98733 8.68102 10.0173 8.65132 10.0541C7.612 11.3491 6.95956 12.9113 6.76912 14.5609C6.57867 16.2104 6.85797 17.8802 7.57485 19.378C8.29173 20.8758 9.41704 22.1407 10.8212 23.027C12.2254 23.9133 13.8513 24.385 15.5119 24.3879C17.5197 24.3942 19.4684 23.7084 21.0297 22.4459C21.0665 22.4162 21.0965 22.3791 21.1178 22.3369C21.1392 22.2948 21.1514 22.2486 21.1536 22.2015C21.1562 22.1546 21.1489 22.1077 21.1321 22.0639C21.1154 22.0201 21.0896 21.9802 21.0565 21.947L9.15021 10.0273ZM12.033 16.7606C12.0197 15.9324 12.1782 15.1104 12.4984 14.3465L18.0967 19.9247C17.427 20.9291 16.5029 21.4983 15.5119 21.4983C13.5866 21.5084 12.0196 19.3789 12.0196 16.7606H12.033ZM15.5119 23.7182C13.3521 23.7156 11.2817 22.8564 9.75452 21.3293C8.22737 19.8022 7.36825 17.7317 7.3656 15.572C7.36022 13.845 7.9095 12.1619 8.93257 10.7706L12.0029 13.8443C11.8218 14.2167 11.6772 14.6058 11.571 15.0061L10.1748 14.2327V13.3621C10.1748 13.2733 10.1395 13.1882 10.0767 13.1254C10.0139 13.0626 9.92874 13.0273 9.83994 13.0273C9.75114 13.0273 9.66598 13.0626 9.60319 13.1254C9.54039 13.1882 9.50512 13.2733 9.50512 13.3621V14.4202C9.50522 14.4795 9.52109 14.5377 9.55109 14.5889C9.58109 14.6401 9.62416 14.6824 9.67588 14.7115L11.4304 15.6958C11.4304 15.8231 11.3969 15.9537 11.3835 16.0842C11.335 16.0733 11.2847 16.0733 11.2362 16.0842L9.86003 16.5764C9.80131 16.5971 9.74953 16.6338 9.71049 16.6823C9.67146 16.7308 9.64671 16.7892 9.63905 16.851L9.41806 18.6557C9.41246 18.6997 9.41566 18.7444 9.42748 18.7872C9.43931 18.8299 9.45951 18.8699 9.48693 18.9048C9.51435 18.9397 9.54842 18.9688 9.58718 18.9904C9.62594 19.012 9.66861 19.0257 9.71271 19.0307H9.75289C9.83515 19.0313 9.91475 19.0016 9.9765 18.9472C10.0383 18.8929 10.0778 18.8177 10.0877 18.736L10.2819 17.1389L11.3533 16.7639C11.3455 17.8506 11.6091 18.9221 12.1201 19.8811L11.2529 20.9459C11.2037 21.0052 11.1765 21.0797 11.1759 21.1568V22.1245C11.1759 22.2133 11.2112 22.2984 11.274 22.3612C11.3367 22.424 11.4219 22.4593 11.5107 22.4593C11.5995 22.4593 11.6847 22.424 11.7475 22.3612C11.8103 22.2984 11.8455 22.2133 11.8455 22.1245V21.2807L12.4984 20.4805C13.2551 21.5218 14.3266 22.178 15.5119 22.178C16.6971 22.178 17.7485 21.562 18.5253 20.4838L19.1949 21.2807V22.1278C19.1949 22.2166 19.2302 22.3018 19.293 22.3646C19.3558 22.4274 19.4409 22.4626 19.5297 22.4626C19.6185 22.4626 19.7037 22.4274 19.7665 22.3646C19.8293 22.3018 19.8646 22.2166 19.8646 22.1278V21.6892L20.3266 22.1512C18.9316 23.177 17.2434 23.7265 15.5119 23.7182Z" fill="#95ADA9"/>
<rect x="1.01367" y="1.07227" width="29" height="29" rx="14.5" stroke="#F1FBF9"/>
</svg>
