<svg width="31" height="31" viewBox="0 0 31 31" fill="none" xmlns="http://www.w3.org/2000/svg">
<rect x="1.01367" y="1.07227" width="29" height="29" rx="14.5" fill="#F1FBF9"/>
<path d="M19.836 10.4473C19.081 7.97794 17.6215 6.30469 15.9449 6.30469C14.2022 6.30469 12.6941 8.11256 11.9678 10.7432" stroke="#95ADA9"/>
<path d="M14.8666 14.3346C12.6828 17.7878 12.3941 21.5242 14.2217 22.6801C16.0494 23.8359 19.3014 21.9735 21.4852 18.5202C23.6691 15.067 22.9427 10.6886 22.1302 10.1748C21.269 9.63017 17.0505 10.8814 14.8666 14.3346Z" stroke="#95ADA9"/>
<path d="M16.9605 22.6742C15.0702 23.8696 11.7582 22.0245 9.5629 18.5531C7.36756 15.0817 8.17011 10.6346 9.01042 10.1031C9.79829 9.6049 13.2633 10.4966 15.5722 13.1123" stroke="#95ADA9"/>
<rect x="1.01367" y="1.07227" width="29" height="29" rx="14.5" stroke="#F1FBF9"/>
</svg>
