<svg width="31" height="31" viewBox="0 0 31 31" fill="none" xmlns="http://www.w3.org/2000/svg">
<rect x="1.01367" y="1.07227" width="29" height="29" rx="14.5" fill="#F1FBF9"/>
<path d="M10.8789 21.0567C11.4464 20.6972 12.0078 20.7848 12.5929 20.9587C14.2138 21.4394 15.8422 21.8956 17.4677 22.3613C17.7419 22.4398 17.9979 22.409 18.2461 22.2596C20.3818 20.9732 22.5194 19.6904 24.657 18.4067C25.0885 18.1475 25.2217 17.853 25.0457 17.5438C24.8535 17.207 24.3433 17.084 23.9597 17.3033C23.5724 17.5248 23.1986 17.7694 22.8192 18.0046C22.08 18.4626 21.3407 18.9201 20.6029 19.3799C20.4595 19.4694 20.2999 19.5102 20.1746 19.3945C20.0918 19.3178 20.0341 19.1784 20.0341 19.0667C20.0341 18.9837 20.1258 18.8729 20.2077 18.8212C21.3352 18.114 22.4608 17.4036 23.6017 16.7182C24.2534 16.3269 25.1151 16.4944 25.5522 17.0536C26.0344 17.6709 25.8524 18.488 25.129 18.9242C23.9825 19.616 22.8332 20.3032 21.6857 20.9927C20.69 21.5914 19.6901 22.1838 18.7009 22.7925C18.2149 23.0917 17.72 23.1516 17.1712 22.9909C15.474 22.4947 13.7725 22.0122 12.072 21.5256C11.7662 21.438 11.479 21.4594 11.2141 21.6759C11.2932 21.8252 11.37 21.9637 11.4399 22.1048C11.5469 22.3223 11.5013 22.4948 11.2849 22.6023C10.3669 23.0581 9.44657 23.5093 8.52347 23.9555C8.29118 24.0676 8.12453 23.99 7.98488 23.7244C7.37972 22.5755 6.77642 21.4258 6.1722 20.2769C5.88591 19.7326 5.59962 19.1879 5.31194 18.6446C5.12713 18.2955 5.17415 18.1466 5.53306 17.9846C6.38307 17.6006 7.23402 17.2179 8.08543 16.8362C8.42944 16.6818 8.56583 16.7281 8.739 17.0522C8.79254 17.1521 8.84653 17.2515 8.90845 17.3668C9.45635 17.0622 9.99354 16.7644 10.5293 16.4653C11.107 16.143 11.681 15.8153 12.2615 15.4976C12.7186 15.2474 13.1888 15.2225 13.692 15.39C15.4563 15.9769 17.2275 16.5452 18.9946 17.123C19.7571 17.3723 20.1537 17.9755 20.0145 18.6618C19.8828 19.3128 19.1598 19.8103 18.4141 19.7281C18.1022 19.6941 17.7954 19.5965 17.4915 19.5102C16.8076 19.3159 16.1266 19.1112 15.4451 18.9092C15.1677 18.8271 15.0601 18.6664 15.1318 18.448C15.1956 18.2538 15.3846 18.1848 15.6504 18.2619C16.4962 18.5075 17.3378 18.7676 18.1897 18.9914C18.4071 19.0486 18.6673 19.0345 18.8875 18.9773C19.1575 18.9074 19.327 18.6995 19.3335 18.4054C19.3391 18.143 19.1715 17.9106 18.881 17.8076C18.503 17.6737 18.119 17.5552 17.7377 17.4304C16.3077 16.9624 14.8767 16.4975 13.4485 16.0241C13.1222 15.9161 12.8341 15.9601 12.5403 16.1262C11.4478 16.7436 10.3497 17.3509 9.23197 17.9741C9.77569 18.9914 10.3185 20.0064 10.8799 21.0558L10.8789 21.0567ZM10.6699 22.1425C9.84272 20.5965 9.02762 19.0731 8.20413 17.5343C7.4705 17.8643 6.7578 18.1848 6.02929 18.5125C6.85928 20.089 7.67718 21.6427 8.50113 23.2079C9.22918 22.8502 9.93349 22.5043 10.6695 22.1425H10.6699Z" fill="#95ADA9" stroke="#95ADA9" stroke-width="0.5"/>
<path d="M20.2854 15.8837C18.2334 15.8982 16.4603 14.3349 16.2862 12.3422C16.0795 9.97273 17.936 8.02269 20.3743 8.05809C21.0777 8.06853 21.7345 8.2619 22.3388 8.61551C22.5831 8.75849 22.6539 8.97093 22.5305 9.16339C22.4128 9.34677 22.2042 9.37401 21.9584 9.23919C19.9204 8.1171 17.5245 9.17701 17.0585 11.4071C16.6558 13.3331 18.3424 15.2232 20.3538 15.1515C21.9892 15.0934 23.4225 13.8497 23.5253 12.1733C23.5407 11.9264 23.5165 11.6749 23.4848 11.4289C23.4481 11.1443 23.5374 10.955 23.7623 10.9146C24.0011 10.8715 24.157 10.9981 24.2147 11.2818C24.6323 13.3408 23.1371 15.462 21.0223 15.8056C20.7788 15.8451 20.5312 15.8583 20.2854 15.8837Z" fill="#95ADA9" stroke="#95ADA9" stroke-width="0.5"/>
<path d="M20.396 12.6308C21.0058 11.9154 21.5858 11.2359 22.1649 10.5559C23.0759 9.48555 23.986 8.41384 24.8979 7.34395C25.0878 7.12107 25.3006 7.07931 25.4793 7.22048C25.6618 7.36438 25.6562 7.58861 25.4616 7.81784C23.9078 9.64578 22.3539 11.4737 20.7987 13.3008C20.5412 13.6031 20.3522 13.6103 20.0711 13.3257C19.4789 12.727 18.885 12.1296 18.3049 11.52C18.21 11.4202 18.1299 11.2558 18.1406 11.1287C18.149 11.0284 18.2956 10.8845 18.4032 10.8623C18.52 10.8378 18.7002 10.8945 18.7881 10.9799C19.2839 11.4587 19.7601 11.9567 20.2424 12.4487C20.2903 12.4978 20.3308 12.5531 20.396 12.6308Z" fill="#95ADA9" stroke="#95ADA9" stroke-width="0.5"/>
<path d="M9.00572 22.1681C8.76226 22.1599 8.57746 21.9729 8.59049 21.7473C8.60353 21.5212 8.80463 21.3442 9.03924 21.3528C9.27618 21.3615 9.46053 21.5526 9.45122 21.7791C9.44191 22.0115 9.25291 22.1763 9.00572 22.1681Z" fill="#95ADA9" stroke="#95ADA9" stroke-width="0.5"/>
<rect x="1.01367" y="1.07227" width="29" height="29" rx="14.5" stroke="#F1FBF9"/>
</svg>
