<svg width="31" height="31" viewBox="0 0 31 31" fill="none" xmlns="http://www.w3.org/2000/svg">
<rect x="1.01367" y="1.07227" width="29" height="29" rx="14.5" fill="#F1FBF9"/>
<path d="M22.3289 23.484C22.2151 22.8768 21.9923 22.3009 21.6736 21.7899C21.355 21.2789 20.9469 20.8431 20.4733 20.5082C19.9997 20.1733 19.4701 19.946 18.9157 19.8397C18.3612 19.7333 17.7931 19.75 17.2446 19.8888C17.232 18.9751 16.9179 18.0977 16.3609 17.4206C15.8038 16.7436 15.042 16.3131 14.2178 16.2097C13.3936 16.1063 12.5635 16.3371 11.8825 16.8589C11.2016 17.3807 10.7164 18.1578 10.5177 19.0449C10.3997 19.0251 10.2807 19.0146 10.1614 19.0135C9.52193 19.0146 8.90894 19.2948 8.45678 19.7929C8.00462 20.291 7.75018 20.9663 7.74924 21.6707C7.74908 21.9838 7.79851 22.2946 7.89532 22.5891C7.3393 22.8978 6.87104 23.369 6.54176 23.9512C6.21248 24.5334 6.03486 25.2041 6.02833 25.8899C6.02806 25.9416 6.03704 25.9928 6.05477 26.0406C6.0725 26.0884 6.09863 26.1319 6.13165 26.1686C6.16465 26.2057 6.204 26.2352 6.24743 26.2554C6.29085 26.2756 6.33748 26.2861 6.38462 26.2864H23.9608C24.0104 26.2866 24.0595 26.2754 24.105 26.2535C24.1504 26.2316 24.1912 26.1995 24.2248 26.1592C24.2583 26.1189 24.2838 26.0714 24.2997 26.0196C24.3156 25.9678 24.3215 25.913 24.3171 25.8585C24.268 25.2773 24.0468 24.73 23.6875 24.3009C23.3282 23.8718 22.8509 23.5848 22.3289 23.484ZM6.75874 25.5014C6.82683 24.9735 7.02345 24.4758 7.32771 24.0612C7.63197 23.6465 8.03251 23.3304 8.48678 23.1464C8.53525 23.1264 8.57916 23.0949 8.61547 23.0542C8.65177 23.0136 8.67959 22.9647 8.69699 22.9109C8.71433 22.8579 8.72108 22.8013 8.71678 22.7451C8.71247 22.6888 8.69722 22.6343 8.67205 22.5852C8.52812 22.2996 8.45438 21.9775 8.45814 21.6508C8.46189 21.3242 8.54301 21.0043 8.69346 20.7228C8.84391 20.4413 9.05848 20.2079 9.31594 20.0458C9.5734 19.8837 9.86483 19.7985 10.1614 19.7985C10.3432 19.7982 10.5239 19.8313 10.6958 19.8966C10.746 19.9151 10.7993 19.921 10.8518 19.914C10.9043 19.907 10.9548 19.8871 10.9995 19.8559C11.0442 19.8247 11.082 19.783 11.1102 19.7337C11.1384 19.6843 11.1563 19.6287 11.1626 19.5709C11.2487 18.8209 11.5908 18.1352 12.1193 17.6531C12.6478 17.1709 13.323 16.9284 14.008 16.9749C14.6929 17.0214 15.336 17.3533 15.8068 17.9033C16.2776 18.4532 16.5407 19.18 16.5427 19.9359C16.5409 20.0764 16.5314 20.2166 16.5142 20.3558C16.5053 20.4231 16.5125 20.4918 16.535 20.555C16.5575 20.6183 16.5945 20.6741 16.6424 20.7169C16.6914 20.7614 16.7502 20.7906 16.8128 20.8017C16.8755 20.8127 16.9396 20.8051 16.9987 20.7797C17.3869 20.6231 17.7968 20.5421 18.2101 20.5403C19.0593 20.543 19.8789 20.8838 20.518 21.4997C21.157 22.1157 21.5724 22.9654 21.6876 23.8922C21.6991 23.9825 21.7388 24.0657 21.7999 24.1273C21.8611 24.1889 21.9398 24.2251 22.0225 24.2297C22.3587 24.2545 22.6807 24.3885 22.9477 24.6149C23.2147 24.8412 23.4147 25.1497 23.5225 25.5014H6.75874Z" fill="#95ADA9"/>
<path d="M11.6128 21.4785C11.0533 21.4857 10.5186 21.7343 10.1235 22.1709C9.72849 22.6075 9.50463 23.1974 9.5 23.8138C9.5 23.9179 9.53754 24.0178 9.60436 24.0914C9.67118 24.165 9.7618 24.2063 9.8563 24.2063C9.95079 24.2063 10.0414 24.165 10.1082 24.0914C10.1751 24.0178 10.2126 23.9179 10.2126 23.8138C10.2126 23.4044 10.36 23.0116 10.6225 22.7217C10.885 22.4318 11.2411 22.2685 11.6128 22.2674C11.9531 22.2727 12.2805 22.4119 12.5357 22.6599C12.5719 22.6944 12.614 22.7208 12.6595 22.7374C12.705 22.754 12.753 22.7606 12.8008 22.7568C12.8486 22.7529 12.8953 22.7388 12.9381 22.7151C12.981 22.6914 13.0192 22.6586 13.0505 22.6187C13.0819 22.5788 13.1058 22.5324 13.1208 22.4823C13.1359 22.4322 13.1419 22.3793 13.1384 22.3266C13.135 22.2739 13.1221 22.2225 13.1006 22.1753C13.0791 22.1281 13.0494 22.0861 13.0131 22.0516C12.6241 21.6813 12.127 21.4778 11.6128 21.4785Z" fill="#95ADA9"/>
<path d="M18.3567 21.7695C17.9098 21.7687 17.4779 21.9473 17.1418 22.2719C17.1016 22.3039 17.0679 22.3447 17.0429 22.3919C17.0179 22.439 17.0021 22.4913 16.9964 22.5456C16.9908 22.5998 16.9955 22.6547 17.0103 22.7068C17.025 22.759 17.0495 22.8071 17.0821 22.8482C17.1147 22.8893 17.1547 22.9225 17.1996 22.9456C17.2445 22.9687 17.2933 22.9813 17.3428 22.9825C17.3924 22.9836 17.4416 22.9734 17.4873 22.9524C17.5331 22.9314 17.5744 22.9002 17.6085 22.8607C17.7744 22.7039 17.9776 22.6028 18.1941 22.5693C18.4105 22.5358 18.6312 22.5713 18.8298 22.6717C19.0285 22.772 19.197 22.933 19.3152 23.1355C19.4334 23.338 19.4965 23.5736 19.4969 23.8144C19.4969 23.9185 19.5344 24.0183 19.6012 24.0919C19.6681 24.1655 19.7587 24.2069 19.8532 24.2069C19.9477 24.2069 20.0383 24.1655 20.1051 24.0919C20.1719 24.0183 20.2095 23.9185 20.2095 23.8144C20.2095 23.2727 20.0144 22.7532 19.667 22.3698C19.3197 21.9865 18.8484 21.7706 18.3567 21.7695Z" fill="#95ADA9"/>
<path d="M13.7652 18.6817C13.4132 18.6803 13.0726 18.8198 12.8068 19.0741C12.7666 19.1061 12.733 19.147 12.7079 19.1941C12.6829 19.2412 12.6671 19.2935 12.6615 19.3478C12.6559 19.402 12.6606 19.4569 12.6753 19.5091C12.6901 19.5612 12.7145 19.6093 12.7471 19.6505C12.7797 19.6916 12.8197 19.7247 12.8646 19.7479C12.9095 19.771 12.9583 19.7835 13.0078 19.7847C13.0574 19.7858 13.1066 19.7756 13.1524 19.7546C13.1981 19.7337 13.2394 19.7024 13.2736 19.6629C13.3818 19.5602 13.5146 19.4938 13.656 19.4716C13.7975 19.4493 13.9417 19.4722 14.0718 19.5374C14.2018 19.6026 14.3122 19.7075 14.3898 19.8396C14.4674 19.9718 14.5091 20.1256 14.5099 20.283C14.5099 20.3871 14.5474 20.4869 14.6143 20.5605C14.6811 20.6341 14.7717 20.6755 14.8662 20.6755C14.9607 20.6755 15.0513 20.6341 15.1181 20.5605C15.185 20.4869 15.2225 20.3871 15.2225 20.283C15.2206 19.8583 15.0664 19.4516 14.7934 19.1516C14.5204 18.8516 14.1508 18.6827 13.7652 18.6817Z" fill="#95ADA9"/>
<path d="M24.8895 12.04L19.4702 6.15264C19.427 6.1082 19.3744 6.07632 19.3171 6.05988C19.2599 6.04343 19.1999 6.04294 19.1424 6.05844V5.24991C19.1424 5.14582 19.1049 5.04599 19.0381 4.97238C18.9713 4.89877 18.8806 4.85742 18.7861 4.85742H12.2196C12.1251 4.85742 12.0345 4.89877 11.9676 4.97238C11.9008 5.04599 11.8633 5.14582 11.8633 5.24991V6.50588C11.8633 6.60997 11.9008 6.7098 11.9676 6.78341C12.0345 6.85701 12.1251 6.89837 12.2196 6.89837H12.3621L13.0141 7.64017C13.0477 7.67892 13.088 7.7097 13.1328 7.73062C13.1775 7.75155 13.2256 7.76217 13.2742 7.76184C13.3222 7.76164 13.3697 7.75076 13.4138 7.72985C13.4578 7.70894 13.4976 7.67844 13.5308 7.64017L14.0189 7.07499L14.5106 7.64017C14.544 7.67773 14.5839 7.70751 14.628 7.72773C14.6721 7.74796 14.7194 7.75822 14.7671 7.75792C14.8154 7.75876 14.8634 7.74875 14.9081 7.72851C14.9529 7.70826 14.9934 7.67821 15.0272 7.64017L15.5082 7.07106L15.9999 7.64017C16.033 7.67844 16.0728 7.70894 16.1169 7.72985C16.161 7.75076 16.2084 7.76164 16.2564 7.76184C16.3044 7.76164 16.3519 7.75076 16.396 7.72985C16.4401 7.70894 16.4798 7.67844 16.513 7.64017L17.1472 6.89837H18.4726C18.4726 6.89837 18.4726 6.92584 18.4726 6.93761L18.526 7.72259L17.8134 7.74614C17.7207 7.74864 17.6325 7.79088 17.5676 7.86389C17.5314 7.90375 17.5035 7.95173 17.4857 8.00456C17.4678 8.05738 17.4605 8.11382 17.4643 8.17003L17.5177 8.95501L16.8051 8.97463C16.7071 8.9807 16.6151 9.02856 16.5486 9.10808C16.5164 9.1479 16.4918 9.19454 16.4765 9.24516C16.4612 9.29577 16.4554 9.34929 16.4595 9.40245L16.5094 10.1874L15.7968 10.211C15.7475 10.2108 15.6987 10.2219 15.6535 10.2436C15.6083 10.2652 15.5677 10.297 15.5342 10.3368C15.5007 10.3766 15.4751 10.4237 15.459 10.475C15.4429 10.5263 15.4366 10.5807 15.4405 10.6349L15.4939 11.4198L14.7814 11.4395C14.7328 11.4407 14.6851 11.4528 14.641 11.4751C14.5968 11.4973 14.5573 11.5293 14.5248 11.569L14.3289 11.8123C14.2653 11.8889 14.2318 11.9902 14.2358 12.0939C14.2398 12.1976 14.281 12.2954 14.3502 12.3657L19.9975 17.9823C20.0633 18.05 20.1498 18.0879 20.2398 18.0882C20.3335 18.0799 20.421 18.0338 20.4857 17.9587L24.9038 12.5895C24.9672 12.5141 25.0012 12.4143 24.9985 12.3115C24.9959 12.2088 24.9567 12.1113 24.8895 12.04ZM18.4298 6.11339H17.0047C16.9561 6.11306 16.9079 6.12368 16.8632 6.1446C16.8185 6.16553 16.7781 6.19631 16.7446 6.23506L16.2493 6.80024L15.7612 6.23506C15.691 6.16162 15.5979 6.12068 15.5011 6.12068C15.4043 6.12068 15.3112 6.16162 15.241 6.23506L14.7529 6.80024L14.2647 6.23506C14.1945 6.16162 14.1014 6.12068 14.0046 6.12068C13.9078 6.12068 13.8147 6.16162 13.7445 6.23506L13.26 6.80024L12.7718 6.23506C12.7184 6.1762 12.6501 6.13651 12.5759 6.12124V5.6424H18.4298V6.11339ZM20.2113 17.1384L15.2837 12.1734L15.9073 12.1538C15.9558 12.1526 16.0035 12.1405 16.0477 12.1182C16.0918 12.0959 16.1313 12.064 16.1638 12.0243C16.196 11.9845 16.2205 11.9378 16.2359 11.8872C16.2512 11.8366 16.257 11.7831 16.2529 11.7299L16.1994 10.9449L16.912 10.9214C16.9605 10.9202 17.0083 10.9081 17.0524 10.8858C17.0965 10.8635 17.136 10.8316 17.1685 10.7919C17.2003 10.7525 17.2246 10.7065 17.2399 10.6566C17.2552 10.6067 17.2612 10.5539 17.2576 10.5014L17.2077 9.71644L17.9203 9.69681C17.9682 9.69508 18.0153 9.68271 18.0588 9.66046C18.1023 9.6382 18.1412 9.60652 18.1733 9.56729C18.2057 9.52826 18.2306 9.48241 18.2466 9.43249C18.2625 9.38258 18.2691 9.32964 18.2659 9.27685L18.2125 8.49187L18.9251 8.46832C18.9738 8.4686 19.022 8.45715 19.0663 8.43478C19.1107 8.41241 19.15 8.37965 19.1816 8.3388C19.2134 8.29945 19.2377 8.25345 19.253 8.20356C19.2683 8.15366 19.2743 8.10088 19.2707 8.04836L19.203 7.03181L19.2351 6.98864L24.1591 12.3265L20.2113 17.1384Z" fill="#95ADA9"/>
<path d="M10.231 14.1453C10.3381 14.1453 10.4428 14.1103 10.5319 14.0448C10.621 13.9792 10.6904 13.886 10.7314 13.777C10.7724 13.668 10.7831 13.5481 10.7622 13.4323C10.7413 13.3166 10.6897 13.2103 10.614 13.1269C10.5382 13.0435 10.4417 12.9866 10.3367 12.9636C10.2316 12.9406 10.1227 12.9524 10.0238 12.9976C9.92481 13.0427 9.84023 13.1192 9.78072 13.2173C9.72122 13.3154 9.68945 13.4307 9.68945 13.5487C9.68945 13.707 9.74651 13.8587 9.84808 13.9706C9.94964 14.0825 10.0874 14.1453 10.231 14.1453Z" fill="#95ADA9"/>
<path d="M12.3857 12.5545C12.4929 12.5553 12.598 12.5209 12.6875 12.4559C12.777 12.3908 12.847 12.2979 12.8885 12.1889C12.9301 12.08 12.9413 11.9599 12.9208 11.8439C12.9003 11.728 12.849 11.6213 12.7734 11.5375C12.6978 11.4536 12.6014 11.3964 12.4962 11.3731C12.391 11.3497 12.282 11.3613 12.1828 11.4064C12.0836 11.4514 11.9988 11.5279 11.9392 11.6261C11.8795 11.7242 11.8477 11.8397 11.8477 11.9579C11.8477 12.1154 11.9042 12.2666 12.005 12.3784C12.1058 12.4901 12.2426 12.5534 12.3857 12.5545Z" fill="#95ADA9"/>
<path d="M12.3857 15.7293C12.4921 15.7293 12.5961 15.6945 12.6846 15.6294C12.773 15.5643 12.842 15.4717 12.8827 15.3634C12.9234 15.2551 12.9341 15.1359 12.9133 15.021C12.8926 14.906 12.8413 14.8004 12.7661 14.7175C12.6909 14.6346 12.595 14.5782 12.4906 14.5553C12.3863 14.5325 12.2781 14.5442 12.1798 14.5891C12.0815 14.6339 11.9974 14.7099 11.9383 14.8073C11.8792 14.9048 11.8477 15.0194 11.8477 15.1366C11.8477 15.2938 11.9043 15.4445 12.0052 15.5557C12.1061 15.6668 12.243 15.7293 12.3857 15.7293Z" fill="#95ADA9"/>
<path d="M10.231 10.9647C10.3383 10.9646 10.4431 10.9296 10.5323 10.8638C10.6214 10.7981 10.6908 10.7047 10.7317 10.5955C10.7726 10.4862 10.7831 10.3661 10.7619 10.2502C10.7407 10.1344 10.6888 10.0281 10.6127 9.94483C10.5366 9.86155 10.4398 9.80505 10.3345 9.78247C10.2292 9.7599 10.1202 9.77228 10.0213 9.81803C9.92241 9.86379 9.83808 9.94086 9.779 10.0395C9.71992 10.1381 9.68876 10.2538 9.68946 10.372C9.69041 10.5295 9.74788 10.6803 9.84934 10.7913C9.9508 10.9023 10.088 10.9647 10.231 10.9647Z" fill="#95ADA9"/>
<path d="M12.3857 9.37477C12.6828 9.37477 12.9237 9.10943 12.9237 8.78211C12.9237 8.4548 12.6828 8.18945 12.3857 8.18945C12.0885 8.18945 11.8477 8.4548 11.8477 8.78211C11.8477 9.10943 12.0885 9.37477 12.3857 9.37477Z" fill="#95ADA9"/>
<rect x="1.01367" y="1.07227" width="29" height="29" rx="14.5" stroke="#F1FBF9"/>
</svg>
