<svg width="31" height="31" viewBox="0 0 31 31" fill="none" xmlns="http://www.w3.org/2000/svg">
<rect x="1.01367" y="1.07227" width="29" height="29" rx="14.5" fill="#F1FBF9"/>
<path d="M17.3467 10.9893H19.4892C19.7134 10.9893 19.8255 10.9893 19.931 11.0146C20.0245 11.037 20.1139 11.0741 20.1959 11.1243C20.2884 11.181 20.3677 11.2603 20.5263 11.4188L24.2504 15.143C24.409 15.3016 24.4882 15.3808 24.5449 15.4733C24.5952 15.5553 24.6322 15.6448 24.6547 15.7383C24.68 15.8438 24.68 15.9559 24.68 16.1801V18.7809C24.68 19.208 24.68 19.4216 24.6102 19.5901C24.5172 19.8147 24.3387 19.9931 24.1141 20.0861C23.9457 20.1559 23.7321 20.1559 23.305 20.1559M18.7217 20.1559H17.3467M17.3467 20.1559V11.1726C17.3467 10.1458 17.3467 9.63245 17.1469 9.24028C16.9711 8.89531 16.6906 8.61485 16.3457 8.43908C15.9535 8.23926 15.4401 8.23926 14.4133 8.23926H9.28001C8.25325 8.23926 7.73987 8.23926 7.3477 8.43908C7.00273 8.61485 6.72227 8.89531 6.5465 9.24028C6.34668 9.63245 6.34668 10.1458 6.34668 11.1726V18.3226C6.34668 19.3351 7.16749 20.1559 8.18001 20.1559M17.3467 20.1559H13.68M13.68 20.1559C13.68 21.6747 12.4488 22.9059 10.93 22.9059C9.41123 22.9059 8.18001 21.6747 8.18001 20.1559M13.68 20.1559C13.68 18.6371 12.4488 17.4059 10.93 17.4059C9.41123 17.4059 8.18001 18.6371 8.18001 20.1559M23.305 20.6143C23.305 21.8799 22.279 22.9059 21.0133 22.9059C19.7477 22.9059 18.7217 21.8799 18.7217 20.6143C18.7217 19.3486 19.7477 18.3226 21.0133 18.3226C22.279 18.3226 23.305 19.3486 23.305 20.6143Z" stroke="#95ADA9" stroke-linecap="round" stroke-linejoin="round"/>
<rect x="1.01367" y="1.07227" width="29" height="29" rx="14.5" stroke="#F1FBF9"/>
</svg>
