<svg width="31" height="31" viewBox="0 0 31 31" fill="none" xmlns="http://www.w3.org/2000/svg">
<rect x="1.01367" y="1.07227" width="29" height="29" rx="14.5" fill="#F1FBF9"/>
<path d="M23.8451 17.9112C23.8451 18.0151 23.8451 18.0909 23.8451 18.1675C23.8451 20.3095 23.8451 22.4523 23.8451 24.5943C23.8451 25.2577 23.5278 25.5766 22.8658 25.5766C19.5121 25.5766 16.1577 25.5766 12.804 25.5766C12.1725 25.5766 11.8412 25.2444 11.8404 24.6138C11.8404 24.4981 11.8404 24.3825 11.8404 24.2739C11.4738 24.2387 11.1229 24.227 10.7798 24.1691C9.06351 23.8808 7.69188 22.3905 7.534 20.6557C7.51603 20.4548 7.50587 20.2532 7.50587 20.0516C7.50352 18.2152 7.50274 16.3787 7.50743 14.5431C7.50743 14.404 7.47226 14.3282 7.34643 14.2531C6.58676 13.8015 6.19676 13.1231 6.17488 12.2424C6.16159 11.7149 6.16941 11.1875 6.17488 10.66C6.17566 10.5568 6.14674 10.5029 6.05061 10.4521C5.70047 10.2661 5.50821 9.96837 5.50978 9.56904C5.51134 9.17909 5.69344 8.87979 6.03889 8.69927C6.15221 8.63988 6.17644 8.57268 6.17566 8.4578C6.17097 7.82638 6.16785 7.19417 6.17566 6.56275C6.18113 6.05167 6.56019 5.63672 7.05726 5.57576C7.55276 5.51481 8.02013 5.83599 8.14205 6.32987C8.16785 6.43537 8.17097 6.54868 8.17097 6.65887C8.1741 7.21918 8.17254 7.77871 8.17254 8.33902C8.17254 8.40935 8.17254 8.4789 8.17254 8.56095H8.82748C8.83139 8.48984 8.83764 8.42107 8.83764 8.3523C8.83842 7.76621 8.83295 7.18011 8.83998 6.59401C8.84624 6.08996 9.14948 5.71095 9.61607 5.59842C10.0537 5.49293 10.5211 5.69142 10.7165 6.10247C10.797 6.27205 10.8337 6.47601 10.8384 6.6659C10.8533 7.25825 10.8462 7.8506 10.8423 8.44373C10.8415 8.56408 10.865 8.6391 10.9861 8.7024C11.3316 8.88526 11.5098 9.19003 11.5074 9.57764C11.5051 9.95665 11.3285 10.2567 10.9924 10.438C10.8759 10.5005 10.8415 10.5678 10.8415 10.6936C10.8439 11.2664 10.8611 11.8408 10.8259 12.412C10.7759 13.2232 10.3703 13.8366 9.67469 14.2524C9.55511 14.3235 9.50274 14.393 9.50274 14.5384C9.50821 16.4069 9.50431 18.2761 9.50743 20.1446C9.509 21.1839 10.121 21.9803 11.0885 22.1905C11.3253 22.242 11.5739 22.2381 11.8302 22.2608V17.9596C11.6661 17.9979 11.4988 18.0815 11.348 18.0589C11.1964 18.0362 11.0315 17.9354 10.9236 17.8205C10.711 17.5931 10.5328 17.3337 10.3429 17.0859C10.0827 16.746 10.1256 16.4186 10.4664 16.1537C12.7063 14.411 14.9471 12.6683 17.1886 10.9272C17.8138 10.4412 17.8834 10.4435 18.5164 10.9358C19.169 11.443 19.8208 11.9502 20.5133 12.4886C20.5133 12.2964 20.5133 12.1393 20.5133 11.9822C20.5149 11.5102 20.7806 11.2406 21.2487 11.239C21.6528 11.2375 22.0561 11.2367 22.4602 11.239C22.9064 11.2414 23.1761 11.5094 23.1776 11.958C23.1807 12.7652 23.1815 13.5733 23.1753 14.3805C23.1745 14.511 23.2136 14.5946 23.3175 14.6743C23.9529 15.1612 24.5844 15.6543 25.2151 16.1466C25.5747 16.4272 25.6122 16.7476 25.3324 17.1078C25.1729 17.3134 25.0119 17.5189 24.8525 17.7244C24.5446 18.1206 24.3242 18.1683 23.8443 17.9127L23.8451 17.9112ZM17.8513 13.224C17.8122 13.2505 17.7849 13.2669 17.7591 13.2872C16.0428 14.6212 14.3265 15.9552 12.6141 17.2946C12.5555 17.3407 12.5117 17.4446 12.5117 17.5212C12.5063 19.8906 12.507 22.2608 12.5078 24.6302C12.5078 24.86 12.5563 24.9107 12.7782 24.9107C16.1577 24.9107 19.5364 24.9107 22.9158 24.9107C23.1346 24.9107 23.1761 24.8678 23.1761 24.645C23.1761 22.2686 23.1776 19.893 23.1714 17.5165C23.1714 17.436 23.1174 17.3298 23.0541 17.2782C22.6391 16.9422 22.2155 16.6186 21.7943 16.2904C20.4844 15.2714 19.1745 14.2531 17.8513 13.224ZM24.8165 16.6796C22.4836 14.8658 20.1679 13.0645 17.8451 11.2594C15.5168 13.07 13.1987 14.8736 10.8744 16.6811C11.0635 16.9242 11.2355 17.1438 11.4121 17.3704C11.4848 17.3165 11.5465 17.2719 11.6075 17.2243C13.5801 15.691 15.5528 14.157 17.5254 12.623C17.8021 12.4081 17.8927 12.4089 18.1741 12.6277C19.9975 14.0453 21.8208 15.4636 23.645 16.882C23.8537 17.0445 24.0631 17.2063 24.2773 17.372C24.4617 17.1352 24.6329 16.9148 24.8165 16.678V16.6796ZM6.84545 10.5787C6.84545 11.189 6.81419 11.7814 6.85249 12.3698C6.9111 13.2646 7.65202 13.9148 8.5383 13.9007C9.41521 13.8874 10.1241 13.2146 10.1632 12.3292C10.1874 11.7712 10.171 11.2109 10.171 10.6514C10.171 10.6279 10.1585 10.6053 10.1507 10.5787H6.84545ZM8.18348 14.5665C8.17879 14.6103 8.17332 14.6353 8.17332 14.6611C8.17332 16.5428 8.16785 18.4238 8.17722 20.3056C8.18035 20.937 8.36011 21.5278 8.71572 22.0529C9.45741 23.1501 10.5094 23.6213 11.8287 23.576V22.9586C11.4473 22.9008 11.0713 22.8844 10.7212 22.782C9.58715 22.4499 8.84311 21.4114 8.83998 20.193C8.83608 18.3965 8.8392 16.5991 8.83842 14.8025C8.83842 14.7267 8.83842 14.6501 8.83842 14.5665H8.18348ZM8.51251 9.24083C7.87398 9.24083 7.23623 9.24083 6.5977 9.24083C6.33275 9.24083 6.17801 9.36195 6.17566 9.56748C6.17332 9.77222 6.33275 9.90507 6.58988 9.90507C7.86617 9.90585 9.14245 9.90585 10.4187 9.90507C10.6852 9.90507 10.8353 9.78473 10.8384 9.57529C10.8415 9.36508 10.6907 9.24083 10.4265 9.24083C9.78801 9.24005 9.15026 9.24083 8.51173 9.24083H8.51251ZM22.4938 14.0281V11.915H21.18C21.18 12.262 21.1784 12.5972 21.1815 12.9332C21.1815 12.9676 21.1964 13.0145 21.2214 13.0348C21.6372 13.3631 22.0553 13.6874 22.493 14.0281H22.4938ZM7.49962 8.56252C7.49962 7.8717 7.50587 7.19183 7.4918 6.51274C7.49024 6.43225 7.39567 6.32519 7.31595 6.27908C7.0893 6.14779 6.84311 6.32675 6.84155 6.62136C6.83764 7.22465 6.83998 7.82872 6.84155 8.43279C6.84155 8.47577 6.85249 8.51876 6.85874 8.5633H7.5004L7.49962 8.56252ZM10.1741 8.56564C10.1741 7.90296 10.1764 7.25982 10.1725 6.61667C10.171 6.38223 10.0365 6.23766 9.84194 6.23844C9.64733 6.23844 9.51134 6.38458 9.50978 6.61745C9.50587 7.23559 9.50821 7.85373 9.50978 8.47187C9.50978 8.50234 9.52463 8.53282 9.53322 8.56564H10.1741Z" fill="#95ADA9" stroke="#95ADA9" stroke-width="0.5"/>
<path d="M16.7669 20.2414C16.5465 20.2414 16.3464 20.2382 16.1456 20.2414C15.8799 20.2461 15.672 20.1499 15.5625 19.8999C15.4531 19.6498 15.525 19.4326 15.7032 19.2372C16.5418 18.3182 17.3773 17.3976 18.2151 16.4786C18.4277 16.245 18.6552 16.184 18.8943 16.2856C19.1397 16.3895 19.2632 16.6091 19.2273 16.9264C19.1335 17.754 19.0303 18.58 18.9318 19.4068C18.9264 19.4513 18.9225 19.4959 18.9146 19.5709C19.1217 19.5709 19.3218 19.5732 19.5211 19.5709C19.79 19.567 20.0127 19.649 20.1237 19.9124C20.2323 20.1687 20.1597 20.3898 19.9752 20.5915C19.1444 21.4995 18.3175 22.4107 17.4891 23.3211C17.2609 23.572 17.028 23.6368 16.7794 23.5227C16.5278 23.4079 16.4183 23.1648 16.4598 22.835C16.5598 22.0411 16.6567 21.2471 16.7544 20.4524C16.7622 20.3891 16.7622 20.3258 16.7677 20.2406L16.7669 20.2414ZM17.1522 22.6983C17.9088 21.8668 18.6294 21.0752 19.3883 20.2414C19.0975 20.2414 18.8591 20.2437 18.6208 20.2414C18.3027 20.2375 18.1768 20.1046 18.2112 19.7936C18.2636 19.3216 18.3253 18.8504 18.3832 18.3791C18.4316 17.9822 18.4785 17.5844 18.5262 17.1874C18.5137 17.1819 18.5012 17.1765 18.4895 17.171C17.772 17.9595 17.0545 18.748 16.3035 19.5732C16.6059 19.5732 16.8521 19.5685 17.0983 19.5748C17.3781 19.581 17.5047 19.724 17.4758 19.9976C17.443 20.3078 17.4031 20.618 17.3664 20.9275C17.2976 21.4995 17.2288 22.0716 17.1538 22.6999L17.1522 22.6983Z" fill="#95ADA9" stroke="#95ADA9" stroke-width="0.5"/>
<rect x="1.01367" y="1.07227" width="29" height="29" rx="14.5" stroke="#F1FBF9"/>
</svg>
