<svg width="20" height="20" viewBox="0 0 20 20" fill="none" xmlns="http://www.w3.org/2000/svg">
<path fill-rule="evenodd" clip-rule="evenodd" d="M11.2 5.23749C11.2 3.58751 9 3.5875 9 5.23749C9 6.20403 9.09436 8.01985 9.17254 9.52412C9.22782 10.5878 9.275 11.4957 9.275 11.8375C9.275 12.6625 10.925 12.6625 10.925 11.8375C10.925 11.4957 10.9722 10.5878 11.0275 9.52414C11.1056 8.01985 11.2 6.20403 11.2 5.23749ZM10.1 15.1375C10.7075 15.1375 11.2 14.645 11.2 14.0375C11.2 13.43 10.7075 12.9375 10.1 12.9375C9.49249 12.9375 9.00001 13.43 9.00001 14.0375C9.00001 14.645 9.49249 15.1375 10.1 15.1375Z" fill="white"/>
<circle cx="10" cy="10" r="9.5" stroke="white"/>
</svg>
