<svg width="344" height="454" viewBox="0 0 344 454" fill="none" xmlns="http://www.w3.org/2000/svg">
<g clip-path="url(#clip0_618_13213)">
<path d="M37.7019 305.755C63.0012 337.174 87.4768 366.18 144.351 377.897C201.226 389.614 223.646 398.298 235.962 398.361C248.286 398.432 275.931 393.74 308.934 341.803C341.937 289.865 330.193 273.511 314.449 262.996C298.697 252.489 221.771 148.669 200.433 112.59C179.096 76.5115 139.542 88.2287 126.873 91.5843C114.204 94.9399 55.7762 103.317 32.995 154.799C10.2139 206.281 7.68003 268.466 37.7097 305.755H37.7019Z" fill="#DEF2E7"/>
<path d="M325.628 245.008C315.61 237.55 316.245 238.053 306.871 223.931C297.488 209.809 281.462 197.966 277.665 193.416C273.868 188.874 219.363 133.801 209.306 103.993C199.249 74.1853 228.368 105.714 230.345 108.08C232.314 110.445 292.962 189.44 298.587 196.733C304.211 204.025 324.686 237.707 325.635 245.008H325.628Z" fill="#DEF2E7"/>
<path d="M95.2823 360.035C97.0238 328.663 93.7526 79.3091 93.7526 79.3091" stroke="#CBEAD4" stroke-miterlimit="10"/>
<path d="M94.8744 164.622C84.433 159.978 76.5569 154.06 78.2984 110.492" stroke="#CBEAD4" stroke-miterlimit="10"/>
<path d="M95.1176 194.406C108.454 183.365 115.216 149.023 115.216 133.337" stroke="#CBEAD4" stroke-miterlimit="10"/>
<path d="M110.674 60.2363C115.702 81.1481 107.442 117.015 94.2938 121.086" stroke="#CBEAD4" stroke-miterlimit="10"/>
<path d="M109.513 60.6292C111.54 60.6292 113.184 58.9826 113.184 56.9514C113.184 54.9202 111.54 53.2735 109.513 53.2735C107.485 53.2735 105.841 54.9202 105.841 56.9514C105.841 58.9826 107.485 60.6292 109.513 60.6292Z" stroke="#CBEAD4" stroke-miterlimit="10"/>
<path d="M93.1799 79.5056C95.2075 79.5056 96.8512 77.859 96.8512 75.8278C96.8512 73.7966 95.2075 72.1499 93.1799 72.1499C91.1523 72.1499 89.5085 73.7966 89.5085 75.8278C89.5085 77.859 91.1523 79.5056 93.1799 79.5056Z" stroke="#CBEAD4" stroke-miterlimit="10"/>
<path d="M78.6828 110.296C80.7104 110.296 82.3542 108.649 82.3542 106.618C82.3542 104.587 80.7104 102.94 78.6828 102.94C76.6552 102.94 75.0115 104.587 75.0115 106.618C75.0115 108.649 76.6552 110.296 78.6828 110.296Z" stroke="#CBEAD4" stroke-miterlimit="10"/>
<path d="M115.216 133.534C117.243 133.534 118.887 131.887 118.887 129.856C118.887 127.825 117.243 126.178 115.216 126.178C113.188 126.178 111.544 127.825 111.544 129.856C111.544 131.887 113.188 133.534 115.216 133.534Z" stroke="#CBEAD4" stroke-miterlimit="10"/>
<path d="M109.269 97.3211C119.515 95.3879 121.405 93.6433 120.825 91.7022C120.244 89.769 110.415 92.0008 110.415 92.0008" stroke="#CBEAD4" stroke-miterlimit="10"/>
<path d="M110.995 88.708C121.241 86.7748 122.362 85.1245 121.782 83.1913C121.201 81.2581 111.686 83.4113 111.686 83.4113" stroke="#CBEAD4" stroke-miterlimit="10"/>
<path d="M112.125 78.539C120.44 76.6058 122.096 74.5547 121.986 72.535C121.892 70.7904 112.125 72.7315 112.125 72.7315" stroke="#CBEAD4" stroke-miterlimit="10"/>
<path d="M111.929 68.4014C122.174 66.4681 122.558 64.7943 121.978 62.8532C121.397 60.92 111.246 63.6312 111.246 63.6312" stroke="#CBEAD4" stroke-miterlimit="10"/>
<path d="M109.269 97.101C99.0242 95.1678 99.0556 93.1717 100.334 91.6079C101.856 89.7532 110.383 91.8986 110.383 91.8986" stroke="#CBEAD4" stroke-miterlimit="10"/>
<path d="M110.862 88.6059C100.617 86.6727 101.872 85.0224 102.452 83.0891C103.033 81.1559 111.701 83.2463 111.701 83.2463" stroke="#CBEAD4" stroke-miterlimit="10"/>
<path d="M112.125 78.539C103.809 76.6058 102.35 74.5547 102.46 72.535C102.554 70.7904 112.125 72.7315 112.125 72.7315" stroke="#CBEAD4" stroke-miterlimit="10"/>
<path d="M111.929 68.4014C101.684 66.4682 99.5577 65.4701 100.138 63.529C100.719 61.5958 111.442 64.1892 111.442 64.1892" stroke="#CBEAD4" stroke-miterlimit="10"/>
<path d="M112.125 225.739C117.153 246.65 109.018 282.47 95.8706 286.541" stroke="#CBEAD4" stroke-miterlimit="10"/>
<path d="M110.964 226.124C112.992 226.124 114.635 224.477 114.635 222.446C114.635 220.415 112.992 218.768 110.964 218.768C108.936 218.768 107.293 220.415 107.293 222.446C107.293 224.477 108.936 226.124 110.964 226.124Z" stroke="#CBEAD4" stroke-miterlimit="10"/>
<path d="M110.87 262.816C121.115 260.882 122.857 259.138 122.276 257.197C121.696 255.263 111.968 257.197 111.968 257.197" stroke="#CBEAD4" stroke-miterlimit="10"/>
<path d="M112.494 254.203C122.739 252.269 123.821 250.619 123.241 248.686C122.66 246.753 113.38 248.882 113.38 248.882" stroke="#CBEAD4" stroke-miterlimit="10"/>
<path d="M113.576 244.034C121.892 242.1 123.547 240.049 123.437 238.03C123.343 236.285 113.576 238.226 113.576 238.226" stroke="#CBEAD4" stroke-miterlimit="10"/>
<path d="M113.404 233.888C123.649 231.955 124.018 230.281 123.437 228.348C122.857 226.415 112.705 229.126 112.705 229.126" stroke="#CBEAD4" stroke-miterlimit="10"/>
<path d="M111.16 262.721C100.915 260.788 101.205 259.044 101.786 257.102C102.366 255.169 111.835 257.393 111.835 257.393" stroke="#CBEAD4" stroke-miterlimit="10"/>
<path d="M112.321 254.108C102.076 252.175 103.331 250.525 103.912 248.592C104.492 246.658 113.16 248.654 113.16 248.654" stroke="#CBEAD4" stroke-miterlimit="10"/>
<path d="M113.576 244.034C105.261 242.1 103.802 240.049 103.912 238.03C104.006 236.285 113.694 238.202 113.694 238.202" stroke="#CBEAD4" stroke-miterlimit="10"/>
<path d="M113.404 234.061C103.158 232.128 101.017 230.965 101.597 229.024C102.178 227.09 112.713 229.118 112.713 229.118" stroke="#CBEAD4" stroke-miterlimit="10"/>
<path d="M78.0003 120.378C72.9954 119.074 64.7898 117.958 64.978 113.518C65.1192 110.107 73.2935 111.875 78.0003 113.832" stroke="#CBEAD4" stroke-miterlimit="10"/>
<path d="M78.1023 131.019C74.7683 130.948 63.8719 129.785 64.374 125.793C64.8839 121.801 71.7167 122.854 78.1023 124.237" stroke="#CBEAD4" stroke-miterlimit="10"/>
<path d="M78.5337 134.94C75.1291 134.649 63.7229 132.323 63.6758 135.813C63.6052 141.117 75.4351 141.848 79.279 141.486" stroke="#CBEAD4" stroke-miterlimit="10"/>
<path d="M78.0003 120.378C82.7385 119.309 90.952 117.856 88.8261 113.879C87.4689 111.349 80.9029 112.732 78.0003 114.091" stroke="#CBEAD4" stroke-miterlimit="10"/>
<path d="M78.3926 130.657C84.0486 130.437 90.4264 129.793 88.9281 124.826C87.8141 121.148 80.7774 123.545 78.0709 124.418" stroke="#CBEAD4" stroke-miterlimit="10"/>
<path d="M79.4045 141.329C84.6213 140.261 93.6349 139.42 91.7992 135.16C89.9636 130.901 80.2204 135.333 78.573 135.53" stroke="#CBEAD4" stroke-miterlimit="10"/>
<path d="M95.9569 338.235C85.5156 333.59 76.5569 327.39 78.2984 283.822" stroke="#CBEAD4" stroke-miterlimit="10"/>
<path d="M78.6828 283.625C80.7104 283.625 82.3542 281.979 82.3542 279.947C82.3542 277.916 80.7104 276.27 78.6828 276.27C76.6552 276.27 75.0115 277.916 75.0115 279.947C75.0115 281.979 76.6552 283.625 78.6828 283.625Z" stroke="#CBEAD4" stroke-miterlimit="10"/>
<path d="M78.0787 293.118C73.0738 291.814 64.7897 291.287 64.978 286.847C65.1192 283.437 73.2934 285.205 78.0003 287.162" stroke="#CBEAD4" stroke-miterlimit="10"/>
<path d="M78.2748 304.286C74.9408 304.215 63.8719 303.115 64.3818 299.122C64.8917 295.13 71.7009 296.144 78.0787 297.527" stroke="#CBEAD4" stroke-miterlimit="10"/>
<path d="M78.5337 308.27C75.1291 307.979 63.7229 305.653 63.6758 309.142C63.6052 314.447 75.6312 314.903 79.4673 314.541" stroke="#CBEAD4" stroke-miterlimit="10"/>
<path d="M78.0003 293.331C82.7385 292.262 90.952 291.185 88.8261 287.217C87.4689 284.686 81.0754 285.81 78.1729 287.162" stroke="#CBEAD4" stroke-miterlimit="10"/>
<path d="M78.3926 303.987C84.0486 303.767 90.4264 303.122 88.9281 298.156C87.8141 294.478 80.7146 296.639 78.0082 297.511" stroke="#CBEAD4" stroke-miterlimit="10"/>
<path d="M79.4045 314.659C84.6213 313.59 93.6349 312.749 91.7992 308.49C89.9636 304.231 80.3616 308.623 78.722 308.812" stroke="#CBEAD4" stroke-miterlimit="10"/>
<path d="M114.996 138.822C110.36 136.205 104.72 134.139 103.551 136.245C101.448 140.025 106.445 144.033 114.204 146.21" stroke="#CBEAD4" stroke-miterlimit="10"/>
<path d="M113.67 149.746C109.826 147.931 102.17 143.145 100.719 145.62C99.2674 148.088 101.982 153.314 112.486 156.512" stroke="#CBEAD4" stroke-miterlimit="10"/>
<path d="M111.717 159.773C104.829 157.086 101.009 155.561 99.6989 158.469C98.3888 161.377 103.158 164.882 109.897 166.548" stroke="#CBEAD4" stroke-miterlimit="10"/>
<path d="M114.988 138.917C121.146 136.74 125.657 137.266 126.308 139.003C127.618 142.492 125.069 146.052 114.337 145.18" stroke="#CBEAD4" stroke-miterlimit="10"/>
<path d="M113.639 149.903C116.973 149.762 126.74 146.854 127.171 152.952C127.454 156.952 120.236 158.469 112.486 156.512" stroke="#CBEAD4" stroke-miterlimit="10"/>
<path d="M111.717 159.773C117.153 159.773 124.998 160.284 125.069 164.999C125.139 169.722 115.914 168.143 109.897 166.54" stroke="#CBEAD4" stroke-miterlimit="10"/>
<path d="M95.8549 269.755C82.5189 258.713 75.4037 224.371 75.4037 208.685" stroke="#CBEAD4" stroke-miterlimit="10"/>
<path d="M75.4115 208.874C77.4391 208.874 79.0829 207.227 79.0829 205.196C79.0829 203.165 77.4391 201.518 75.4115 201.518C73.3839 201.518 71.7402 203.165 71.7402 205.196C71.7402 207.227 73.3839 208.874 75.4115 208.874Z" stroke="#CBEAD4" stroke-miterlimit="10"/>
<path d="M75.6469 214.226C80.2832 211.609 85.9078 209.479 87.0846 211.585C89.1869 215.365 84.331 219.397 76.5726 221.574" stroke="#CBEAD4" stroke-miterlimit="10"/>
<path d="M77.1452 225.024C80.9891 223.208 88.4573 218.485 89.9008 220.961C91.352 223.428 88.9123 228.505 78.4004 231.703" stroke="#CBEAD4" stroke-miterlimit="10"/>
<path d="M79.326 235.114C86.2137 232.426 89.6184 230.902 90.9206 233.809C92.2228 236.717 87.6415 240.199 80.895 241.872" stroke="#CBEAD4" stroke-miterlimit="10"/>
<path d="M75.6469 214.226C69.4888 212.049 64.9702 212.607 64.3191 214.344C63.009 217.833 65.7468 222.446 76.4706 221.574" stroke="#CBEAD4" stroke-miterlimit="10"/>
<path d="M77.0432 225.196C73.7092 225.055 63.8876 222.187 63.4483 228.293C63.1659 232.293 70.587 233.849 78.3376 231.884" stroke="#CBEAD4" stroke-miterlimit="10"/>
<path d="M79.3261 235.114C73.8897 235.114 65.6291 235.625 65.5507 240.34C65.4801 245.063 74.8781 243.46 80.895 241.865" stroke="#CBEAD4" stroke-miterlimit="10"/>
<path d="M287.439 371.5C289.181 340.129 285.91 232.23 285.91 232.23" stroke="#CBEAD4" stroke-miterlimit="10"/>
<path d="M287.024 317.535C276.582 312.891 268.706 306.973 270.448 263.405" stroke="#CBEAD4" stroke-miterlimit="10"/>
<path d="M287.267 347.327C300.603 336.286 307.365 301.944 307.365 286.258" stroke="#CBEAD4" stroke-miterlimit="10"/>
<path d="M302.823 213.157C307.851 234.069 299.591 269.936 286.443 274.006" stroke="#CBEAD4" stroke-miterlimit="10"/>
<path d="M301.662 213.542C303.69 213.542 305.333 211.895 305.333 209.864C305.333 207.833 303.69 206.186 301.662 206.186C299.634 206.186 297.991 207.833 297.991 209.864C297.991 211.895 299.634 213.542 301.662 213.542Z" stroke="#CBEAD4" stroke-miterlimit="10"/>
<path d="M285.329 232.419C287.357 232.419 289 230.772 289 228.741C289 226.709 287.357 225.063 285.329 225.063C283.301 225.063 281.658 226.709 281.658 228.741C281.658 230.772 283.301 232.419 285.329 232.419Z" stroke="#CBEAD4" stroke-miterlimit="10"/>
<path d="M270.832 263.209C272.86 263.209 274.503 261.562 274.503 259.531C274.503 257.5 272.86 255.853 270.832 255.853C268.804 255.853 267.161 257.5 267.161 259.531C267.161 261.562 268.804 263.209 270.832 263.209Z" stroke="#CBEAD4" stroke-miterlimit="10"/>
<path d="M307.365 286.446C309.393 286.446 311.036 284.8 311.036 282.769C311.036 280.737 309.393 279.091 307.365 279.091C305.337 279.091 303.694 280.737 303.694 282.769C303.694 284.8 305.337 286.446 307.365 286.446Z" stroke="#CBEAD4" stroke-miterlimit="10"/>
<path d="M301.419 250.242C311.664 248.309 313.555 246.564 312.974 244.623C312.393 242.69 302.564 244.922 302.564 244.922" stroke="#CBEAD4" stroke-miterlimit="10"/>
<path d="M303.145 241.621C313.39 239.688 314.512 238.037 313.931 236.104C313.351 234.171 303.835 236.324 303.835 236.324" stroke="#CBEAD4" stroke-miterlimit="10"/>
<path d="M304.274 231.452C312.59 229.519 314.245 227.468 314.135 225.448C314.041 223.703 304.274 225.644 304.274 225.644" stroke="#CBEAD4" stroke-miterlimit="10"/>
<path d="M304.078 221.314C314.323 219.381 314.708 217.707 314.127 215.766C313.547 213.833 303.396 216.544 303.396 216.544" stroke="#CBEAD4" stroke-miterlimit="10"/>
<path d="M301.419 250.014C291.173 248.081 291.205 246.085 292.484 244.521C294.005 242.666 302.533 244.812 302.533 244.812" stroke="#CBEAD4" stroke-miterlimit="10"/>
<path d="M303.019 241.527C292.774 239.593 294.029 237.943 294.609 236.01C295.19 234.077 303.858 236.167 303.858 236.167" stroke="#CBEAD4" stroke-miterlimit="10"/>
<path d="M304.274 231.452C295.959 229.519 294.5 227.468 294.609 225.448C294.704 223.703 304.274 225.644 304.274 225.644" stroke="#CBEAD4" stroke-miterlimit="10"/>
<path d="M304.078 221.314C293.833 219.381 291.707 218.383 292.287 216.442C292.868 214.509 303.592 217.102 303.592 217.102" stroke="#CBEAD4" stroke-miterlimit="10"/>
<path d="M270.157 273.291C265.152 271.987 256.947 270.871 257.135 266.431C257.276 263.02 265.451 264.788 270.157 266.745" stroke="#CBEAD4" stroke-miterlimit="10"/>
<path d="M270.252 283.932C266.917 283.861 256.021 282.698 256.523 278.706C257.033 274.714 263.866 275.767 270.252 277.15" stroke="#CBEAD4" stroke-miterlimit="10"/>
<path d="M270.683 287.853C267.278 287.562 255.872 285.236 255.825 288.725C255.754 294.03 267.584 294.761 271.428 294.399" stroke="#CBEAD4" stroke-miterlimit="10"/>
<path d="M270.157 273.291C274.896 272.222 283.109 270.769 280.983 266.792C279.626 264.262 273.06 265.645 270.157 267.004" stroke="#CBEAD4" stroke-miterlimit="10"/>
<path d="M270.542 283.57C276.198 283.35 282.576 282.706 281.077 277.739C279.963 274.061 272.927 276.458 270.22 277.33" stroke="#CBEAD4" stroke-miterlimit="10"/>
<path d="M271.554 294.242C276.771 293.173 285.784 292.333 283.948 288.073C282.113 283.814 272.37 288.246 270.722 288.443" stroke="#CBEAD4" stroke-miterlimit="10"/>
<path d="M307.145 291.735C302.509 289.118 296.869 287.052 295.7 289.158C293.597 292.938 298.595 296.946 306.353 299.122" stroke="#CBEAD4" stroke-miterlimit="10"/>
<path d="M305.82 302.659C301.976 300.843 294.319 296.058 292.868 298.533C291.417 301.001 294.131 306.227 304.635 309.425" stroke="#CBEAD4" stroke-miterlimit="10"/>
<path d="M303.866 312.686C296.979 309.999 293.158 308.474 291.848 311.382C290.546 314.29 295.308 317.794 302.046 319.461" stroke="#CBEAD4" stroke-miterlimit="10"/>
<path d="M307.137 291.83C313.296 289.653 317.806 290.179 318.457 291.916C319.768 295.405 317.218 298.965 306.486 298.093" stroke="#CBEAD4" stroke-miterlimit="10"/>
<path d="M305.796 302.816C309.13 302.675 318.897 299.767 319.328 305.865C319.611 309.865 312.393 311.382 304.643 309.425" stroke="#CBEAD4" stroke-miterlimit="10"/>
<path d="M303.866 312.686C309.303 312.686 317.147 313.197 317.218 317.912C317.289 322.635 308.063 321.056 302.046 319.453" stroke="#CBEAD4" stroke-miterlimit="10"/>
<mask id="mask0_618_13213" style="mask-type:luminance" maskUnits="userSpaceOnUse" x="19" y="-5" width="323" height="383">
<path d="M180.633 377.834C269.381 377.834 341.325 292.27 341.325 186.721C341.325 81.1715 269.381 -4.39296 180.633 -4.39296C91.8855 -4.39296 19.9413 81.1715 19.9413 186.721C19.9413 292.27 91.8855 377.834 180.633 377.834Z" fill="white"/>
</mask>
<g mask="url(#mask0_618_13213)">
<path d="M188.902 133.133C206.584 134.673 212.412 161.675 213.95 177.055L157.585 161.974C160.653 151.718 171.212 131.592 188.894 133.133H188.902Z" fill="#66AFA0"/>
<path d="M229.624 201.927C229.624 171.546 165.446 145.683 145.865 144.748C127.155 143.852 112.902 192.104 117.35 201.927C139.276 250.297 229.616 234.996 229.616 201.927H229.624Z" fill="#84BFB6"/>
<path d="M212.695 167.97C209.721 156.654 202.991 136.213 196.652 138.484C185.073 142.634 203.783 160.819 212.695 167.97Z" fill="#84BFB6"/>
<path d="M157.923 256.081C159.295 252.647 158.495 244.348 157.923 240.623C166.489 237.472 183.638 232.033 183.638 235.468C183.638 239.758 183.638 249.205 186.211 252.639C188.831 256.144 156.212 260.364 157.93 256.073L157.923 256.081Z" fill="#FFD451"/>
<path d="M157.923 256.081C159.295 252.647 158.495 244.348 157.923 240.623C166.489 237.472 183.638 232.033 183.638 235.468C183.638 239.758 183.638 249.205 186.211 252.639C188.831 256.144 156.212 260.364 157.93 256.073L157.923 256.081Z" fill="#FFD451"/>
<path d="M183.63 240.623C183.63 240.623 165.634 246.918 158.778 250.069L157.923 242.344L183.638 235.476V240.631L183.63 240.623Z" fill="#F2BD38"/>
<path d="M235.915 264.662C222.202 254.36 196.487 251.782 185.348 251.782C182.775 250.926 169.917 250.792 157.068 251.782C121.492 254.525 85.6411 271.814 72.2187 280.977C75.0742 271.248 81.303 249.723 83.3583 241.479C85.4136 233.236 97.926 215.719 103.927 207.994C111.356 199.404 120.385 185.503 97.0709 198.548C67.9277 214.862 25.0797 290.415 37.9294 307.586C50.7869 324.757 109.921 296.427 110.784 307.586C111.466 316.514 123.641 376.561 129.642 405.465C159.923 407.752 206.607 409.929 209.353 400.318C212.098 390.699 216.209 394.227 227.349 307.586C233.35 317.606 246.207 338.321 249.636 341.072C247.918 342.785 240.206 356.522 237.633 364.255C235.06 371.98 230.777 387.438 225.638 392.585C221.528 396.703 215.354 394.298 212.781 392.585L218.782 420.915C221.638 420.059 228.039 416.452 230.777 408.899C234.205 399.453 249.636 390.872 261.63 377.991C273.633 365.111 283.917 348.797 283.917 335.916C283.917 323.036 253.064 277.535 235.923 264.655L235.915 264.662Z" fill="#FFD451"/>
<path d="M201.634 253.503C198.001 270.47 193.969 296.788 166.709 299.618C147.952 301.559 133.212 272.23 127.854 256.018L122.174 259.091C122.778 264.12 122.535 277.189 123.994 304.333C125.445 331.476 120.472 339.193 115.93 341.08L125.814 393.874L223.92 399.469L225.788 326.486C218.515 326.486 213.589 324.27 208.498 314.462C203.406 304.663 204.866 269.755 208.498 254.36L201.641 253.503H201.634Z" fill="#F3F6FB"/>
<path d="M210.286 255.169C207.627 254.564 205.768 254.462 203.148 254.36C203.148 259.491 202.245 274.407 201.288 284.034C200.371 293.221 195.609 311.932 191.773 321.551C179.213 322.51 153.302 322.51 143.708 322.51C134.114 308.081 129.234 281.142 124.52 258.053C121.703 258.737 120.174 259.326 117.805 260.937L124.606 341.748C124.928 369.646 122.99 409.473 120.684 414.864C117.805 421.599 118.848 449.497 117.883 472.586C115.922 519.682 126.434 567.824 125.477 614.968H164.904C167.783 572.641 173.73 488.169 174.499 488.939C175.456 489.898 181.214 537.042 183.136 554.354C184.673 568.209 191.451 597.962 194.652 611.117H235.915C235.593 559.486 234.574 476.405 235.829 443.721C237.013 412.939 210.882 360.027 207.039 322.502C206.646 318.675 208.678 275.366 210.278 255.161L210.286 255.169Z" fill="#86BFB6"/>
<path d="M195.632 181.385C191.514 174.909 177.636 167.648 165.634 171.082C146.006 179.632 143.222 207.577 142.5 214.776V214.87C141.629 223.46 145.92 242.344 160.488 244.922C175.056 247.499 187.058 233.762 193.914 224.316C200.771 214.87 201.626 190.831 195.632 181.385Z" fill="#FFD451"/>
<path d="M198.433 214.87C199.978 213.597 202.685 207.625 201.21 193.888C198.354 167.42 158.668 156.685 148.501 186.257C151.584 188.803 160.708 194.265 172.545 195.797C184.383 197.322 191.655 191.978 193.812 189.118C193.2 191.342 192.33 196.56 193.812 199.609C195.664 203.428 198.441 201.518 198.441 203.428V214.87H198.433Z" fill="#4E4E4F"/>
<path d="M180.202 216.583C181.623 216.583 182.775 214.662 182.775 212.293C182.775 209.923 181.623 208.002 180.202 208.002C178.781 208.002 177.629 209.923 177.629 212.293C177.629 214.662 178.781 216.583 180.202 216.583Z" fill="#282B36"/>
<path d="M154.494 209.715C155.916 209.715 157.068 207.794 157.068 205.424C157.068 203.054 155.916 201.133 154.494 201.133C153.073 201.133 151.921 203.054 151.921 205.424C151.921 207.794 153.073 209.715 154.494 209.715Z" fill="#282B36"/>
<path d="M162.206 199.412C159.633 201.133 152.094 202.501 149.348 201.133" stroke="#4E4E4F" stroke-linecap="round"/>
<path d="M177.715 202.847C177.715 206.281 181.065 211.436 187.999 211.436" stroke="#4E4E4F" stroke-linecap="round"/>
<path d="M157.068 226.886C160.135 227.64 166.466 229.605 167.289 231.42C168.309 233.684 157.068 229.157 157.068 226.886Z" fill="white"/>
<path d="M100.499 212.906L91.9326 201.746C93.3604 199.169 97.5887 192.646 103.072 187.153C108.556 181.66 113.357 181.715 119.358 182.862C126.214 184.167 128.097 189.385 121.931 188.017C114.22 186.296 112.502 188.017 112.502 188.874C112.502 189.731 112.502 188.874 114.212 192.308C115.93 195.742 115.93 192.308 118.495 199.177C120.55 204.67 107.355 210.627 100.499 212.913V212.906Z" fill="#66AFA0"/>
</g>
<path d="M67.4884 339.759C63.0326 310.227 56.4273 232.78 40.628 232.631C22.5851 232.466 37.8588 281.786 67.4884 339.759Z" fill="#CBEAD4"/>
<path d="M67.4884 339.759C54.8113 330.195 27.5115 311.099 32.846 308.168C42.7068 302.777 53.6738 316.199 67.4884 339.759Z" fill="#D6F2E0"/>
<path d="M67.6139 340.082C69.4731 324.27 80.6126 294.022 73.1601 293.205C64.0524 292.199 58.1923 314.832 67.6139 340.082Z" fill="#CBEAD4"/>
<path d="M68.8298 308.789C65.2683 318.101 66.3744 327.248 67.4884 339.759" stroke="white"/>
<path d="M67.0098 337.41C48.9355 320.702 20.2395 283.83 26.9467 276.466C35.5132 267.083 54.3563 295.578 67.0098 337.41Z" fill="#CBEAD4"/>
<path d="M37.0822 290.965C48.4257 301.936 57.5805 319.476 67.6217 339.445" stroke="white"/>
<path d="M67.708 339.799C59.6515 339.453 42.8794 342.989 45.1073 337.378C46.7076 333.315 58.0354 326.305 67.708 339.799Z" fill="#CBEAD4"/>
<path d="M54.2856 335.492C60.5771 335.272 63.3385 336.844 67.3942 338.863" stroke="white"/>
<path d="M42.0087 252.788C40.424 264.521 57.1569 308.003 67.3943 339.539" stroke="white"/>
<path d="M270.856 289.15C255.056 289.299 248.451 366.746 243.995 396.278C273.625 338.305 288.898 288.977 270.856 289.15Z" fill="#CBEAD4"/>
<path d="M278.63 364.695C283.972 367.626 256.664 386.722 243.987 396.286C257.794 372.726 268.761 359.304 278.63 364.695Z" fill="#D6F2E0"/>
<path d="M238.323 349.724C230.871 350.541 242.01 380.789 243.87 396.601C253.291 371.351 247.431 348.718 238.323 349.724Z" fill="#CBEAD4"/>
<path d="M243.995 396.286C245.109 383.775 246.215 374.628 242.654 365.316" stroke="white"/>
<path d="M284.537 332.993C291.244 340.357 262.548 377.229 244.474 393.937C257.127 352.105 275.97 323.61 284.537 332.993Z" fill="#CBEAD4"/>
<path d="M243.854 395.964C253.895 375.995 263.058 358.455 274.394 347.484" stroke="white"/>
<path d="M266.368 393.905C268.604 399.516 251.824 395.98 243.768 396.326C253.44 382.84 264.768 389.842 266.368 393.905Z" fill="#CBEAD4"/>
<path d="M244.089 395.39C248.145 393.371 250.906 391.799 257.198 392.019" stroke="white"/>
<path d="M244.089 396.066C254.327 364.53 271.06 321.048 269.475 309.315" stroke="white"/>
</g>
<defs>
<clipPath id="clip0_618_13213">
<rect width="344" height="454" fill="white"/>
</clipPath>
</defs>
</svg>
