<svg width="16" height="16" viewBox="0 0 16 16" fill="none" xmlns="http://www.w3.org/2000/svg">
<path d="M13 14.1667H3C2.54167 14.1667 2.16667 13.7917 2.16667 13.3333V3.33334C2.16667 2.87501 2.54167 2.50001 3 2.50001H7.16667C7.625 2.50001 8 2.12501 8 1.66668C8 1.20834 7.625 0.833344 7.16667 0.833344H2.16667C1.24167 0.833344 0.5 1.58334 0.5 2.50001V14.1667C0.5 15.0833 1.25 15.8333 2.16667 15.8333H13.8333C14.75 15.8333 15.5 15.0833 15.5 14.1667V9.16668C15.5 8.70834 15.125 8.33334 14.6667 8.33334C14.2083 8.33334 13.8333 8.70834 13.8333 9.16668V13.3333C13.8333 13.7917 13.4583 14.1667 13 14.1667ZM9.66667 1.66668C9.66667 2.12501 10.0417 2.50001 10.5 2.50001H12.6583L5.05 10.1083C4.725 10.4333 4.725 10.9583 5.05 11.2833C5.375 11.6083 5.9 11.6083 6.225 11.2833L13.8333 3.67501V5.83334C13.8333 6.29168 14.2083 6.66668 14.6667 6.66668C15.125 6.66668 15.5 6.29168 15.5 5.83334V0.833344H10.5C10.0417 0.833344 9.66667 1.20834 9.66667 1.66668Z" fill="#028577"/>
</svg>
