<svg width="24" height="24" viewBox="0 0 24 24" fill="none" xmlns="http://www.w3.org/2000/svg">
<path fill-rule="evenodd" clip-rule="evenodd" d="M20.347 1.04439L20.3464 1.04437C19.1964 1.00001 17.8101 0.946543 16.4414 1.1173C14.9413 1.30444 13.42 1.76486 12.2143 2.83342C10.9378 3.96469 10.6 5.21465 10.7912 6.35305C10.9613 7.36547 11.5418 8.24676 12.1493 8.85004C12.0215 9.41108 11.9287 10.0306 11.8676 10.7249C11.7059 10.4876 11.5201 10.2719 11.3025 10.076C11.1919 9.43705 10.9894 8.55116 10.4272 7.85019C9.788 7.0533 8.74506 6.5636 7.10323 6.77065C4.92097 7.04586 3.63603 8.29102 3.0407 8.86793L3.04069 8.86794C2.94196 8.96361 2.86219 9.04091 2.80044 9.09235L2.10642 9.67058L3.02741 9.78879C3.74053 9.88033 4.21451 10.3594 4.84246 10.9941L4.85767 11.0095C5.46278 11.6211 6.19586 12.3472 7.3706 12.4979C8.58775 12.6542 9.47873 12.3413 10.1145 11.8754C10.5199 11.5783 10.8123 11.2259 11.0203 10.9146C11.3409 11.2942 11.5752 11.7816 11.7814 12.4485C11.7697 13.0386 11.7632 13.5122 11.779 14.1594C11.0286 14.339 10.3459 14.6185 9.78379 14.9908C8.74912 14.7592 7.75627 14.7148 6.81833 14.8233C4.9285 15.042 3.28981 15.8785 2 17.0074L2.54815 17.6049C3.73859 16.563 5.23243 15.807 6.93656 15.6098C8.63638 15.4131 10.5736 15.7689 12.6654 16.9949L13.0648 16.3185C12.3235 15.884 11.5951 15.5491 10.8833 15.3036C11.9239 14.8314 13.304 14.6176 14.737 14.7549C16.5724 14.9307 18.424 15.676 19.6888 17.0995L20.2913 16.5897C18.8526 14.9705 16.782 14.1574 14.7918 13.9668C14.0419 13.8949 13.2933 13.9106 12.5842 14.0085C12.5729 13.4334 12.58 12.9895 12.5913 12.4258C12.617 11.1508 12.7158 10.1204 12.8929 9.25738C13.6201 9.49909 14.5225 9.6867 15.4264 9.70039C16.5191 9.71694 17.6746 9.47903 18.4993 8.70257C19.7386 7.53579 19.8664 5.93749 19.9567 4.62266L19.9643 4.5104C20.0075 3.87694 20.0453 3.3217 20.171 2.84966C20.3004 2.3636 20.5115 2.01393 20.88 1.78878L21.9982 1.10556L20.6613 1.05634C20.5587 1.05256 20.4539 1.04852 20.347 1.04439ZM15.4831 4.98364C14.2941 6.00459 13.529 6.98658 13.0829 8.49259C13.7454 8.71811 14.5844 8.89689 15.4144 8.90946C16.4 8.92439 17.3126 8.70534 17.9292 8.12478C18.9244 7.18781 19.0572 5.89252 19.1496 4.54596L19.1588 4.41007C19.2 3.80162 19.2424 3.17513 19.3878 2.62879C19.4647 2.34015 19.5729 2.06292 19.7304 1.81258C18.7305 1.77948 17.6416 1.76803 16.5675 1.90202C15.1553 2.0782 13.8109 2.50189 12.7673 3.42677C11.6739 4.39582 11.4451 5.38943 11.5893 6.24792C11.6966 6.88686 12.0162 7.47962 12.3998 7.95272C12.9082 6.44215 13.7423 5.41001 14.9392 4.38238L15.4831 4.98364ZM9.79649 8.3266C10.0572 8.65162 10.2236 9.04271 10.3383 9.43884C9.69917 9.1274 8.90507 8.90004 7.91013 8.70187L7.77186 9.4768C9.01889 9.72518 9.83204 10.0023 10.4009 10.3726C10.2243 10.6546 9.97304 10.9763 9.61697 11.2373C9.14122 11.5859 8.45651 11.8426 7.45192 11.7137C6.59465 11.6037 6.04484 11.0892 5.4307 10.4684L5.34453 10.3811C4.93263 9.96304 4.46788 9.49133 3.85588 9.21646C4.5019 8.61442 5.54087 7.76831 7.23046 7.55524C8.63931 7.37757 9.37089 7.79598 9.79649 8.3266Z" fill="#028577"/>
<path d="M4.771 19.2144C5.00374 19.2144 5.17708 19.2957 5.29102 19.4585C5.40658 19.6196 5.46436 19.867 5.46436 20.2007V22H4.81494V20.3911C4.81494 20.1877 4.79215 20.0379 4.74658 19.9419C4.70264 19.8442 4.63509 19.7954 4.54395 19.7954C4.41536 19.7954 4.32585 19.863 4.27539 19.998C4.22493 20.1331 4.19971 20.339 4.19971 20.6157V22H3.54541V20.3838C3.54541 20.2487 3.53564 20.138 3.51611 20.0518C3.49821 19.9655 3.46973 19.9012 3.43066 19.8589C3.39323 19.8166 3.3444 19.7954 3.28418 19.7954C3.19141 19.7954 3.11898 19.8296 3.06689 19.8979C3.01644 19.9663 2.98063 20.0672 2.95947 20.2007C2.93994 20.3325 2.93018 20.4969 2.93018 20.6938V22H2.28076V19.2656H2.7959L2.86426 19.6147H2.90576C2.94157 19.5285 2.98958 19.4561 3.0498 19.3975C3.11003 19.3372 3.18164 19.2917 3.26465 19.2607C3.34766 19.2298 3.43962 19.2144 3.54053 19.2144C3.6984 19.2144 3.82373 19.2518 3.9165 19.3267C4.00928 19.3999 4.0752 19.4927 4.11426 19.605H4.16064C4.22249 19.478 4.30225 19.3812 4.3999 19.3145C4.49919 19.2477 4.62288 19.2144 4.771 19.2144ZM6.96582 19.2144C7.23112 19.2144 7.43294 19.2965 7.57129 19.4609C7.71126 19.6237 7.78125 19.867 7.78125 20.1909V22H7.30518L7.2002 21.6338H7.18555C7.13021 21.7266 7.0708 21.8039 7.00732 21.8657C6.94548 21.9276 6.87467 21.9731 6.79492 22.0024C6.71517 22.0334 6.62158 22.0488 6.51416 22.0488C6.36279 22.0488 6.23991 22.0081 6.14551 21.9268C6.05273 21.8454 5.98519 21.7396 5.94287 21.6094C5.90055 21.4792 5.87939 21.3408 5.87939 21.1943C5.87939 20.9095 5.95833 20.6938 6.11621 20.5474C6.27409 20.4009 6.4987 20.3219 6.79004 20.3105L7.12939 20.2959V20.186C7.12939 20.0363 7.10579 19.9248 7.05859 19.8516C7.01302 19.7767 6.93734 19.7393 6.83154 19.7393C6.75342 19.7393 6.66797 19.7547 6.5752 19.7856C6.48242 19.8166 6.3807 19.8646 6.27002 19.9297L6.08936 19.4438C6.21305 19.369 6.34896 19.312 6.49707 19.2729C6.64518 19.2339 6.80143 19.2144 6.96582 19.2144ZM7.12939 20.7305L6.94629 20.7402C6.80794 20.7467 6.70459 20.7858 6.63623 20.8574C6.5695 20.9274 6.53613 21.0299 6.53613 21.165C6.53613 21.2871 6.55648 21.3783 6.59717 21.4385C6.63949 21.4987 6.70052 21.5288 6.78027 21.5288C6.88281 21.5288 6.96663 21.4792 7.03174 21.3799C7.09684 21.2806 7.12939 21.1471 7.12939 20.9795V20.7305ZM10.3984 19.8052H9.95898V22H9.30713V19.8052H8.99219V19.4561L9.30713 19.2656V19.1802C9.30713 18.9491 9.33073 18.7594 9.37793 18.6113C9.42513 18.4632 9.50081 18.3534 9.60498 18.2817C9.71077 18.2101 9.84831 18.1743 10.0176 18.1743C10.1136 18.1743 10.1999 18.1833 10.2764 18.2012C10.3545 18.2174 10.4448 18.2451 10.5474 18.2842L10.4082 18.7749C10.3626 18.7603 10.3195 18.7489 10.2788 18.7407C10.2381 18.731 10.1966 18.7261 10.1543 18.7261C10.0843 18.7261 10.0339 18.757 10.0029 18.8188C9.97363 18.8791 9.95898 18.984 9.95898 19.1338V19.2656H10.3984V19.8052ZM11.6118 19.2192C11.8169 19.2192 11.9902 19.2697 12.1318 19.3706C12.2751 19.4715 12.3833 19.6147 12.4565 19.8003C12.5298 19.9842 12.5664 20.2023 12.5664 20.4546V20.8208H11.2627C11.266 21.0601 11.3099 21.2367 11.3945 21.3506C11.4792 21.4629 11.6086 21.519 11.7827 21.519C11.8983 21.519 12.0073 21.5044 12.1099 21.4751C12.214 21.4442 12.3247 21.3921 12.4419 21.3188V21.8608C12.3328 21.9259 12.2165 21.9731 12.0928 22.0024C11.9691 22.0334 11.8356 22.0488 11.6924 22.0488C11.4417 22.0488 11.2375 21.9927 11.0796 21.8804C10.9217 21.7664 10.8062 21.6053 10.7329 21.397C10.6597 21.187 10.623 20.938 10.623 20.6499C10.623 20.3423 10.6597 20.0827 10.7329 19.8711C10.8078 19.6579 10.9185 19.4959 11.0649 19.3853C11.2114 19.2746 11.3937 19.2192 11.6118 19.2192ZM11.6265 19.7295C11.519 19.7295 11.4336 19.7783 11.3701 19.876C11.3066 19.972 11.2725 20.1299 11.2676 20.3496H11.9634C11.9634 20.221 11.9504 20.1104 11.9243 20.0176C11.8983 19.9248 11.86 19.854 11.8096 19.8052C11.7591 19.7547 11.6981 19.7295 11.6265 19.7295ZM14.1973 19.2144C14.2331 19.2144 14.2681 19.2176 14.3022 19.2241C14.3364 19.229 14.3763 19.238 14.4219 19.251L14.3633 19.9443C14.3307 19.9313 14.2949 19.9224 14.2559 19.9175C14.2184 19.9126 14.1769 19.9102 14.1313 19.9102C14.0565 19.9102 13.9897 19.9264 13.9312 19.959C13.8726 19.9915 13.8229 20.0387 13.7822 20.1006C13.7432 20.1608 13.7131 20.234 13.6919 20.3203C13.6724 20.4049 13.6626 20.5002 13.6626 20.606V22H13.0132V19.2656H13.5137L13.6064 19.7148H13.6382C13.674 19.6286 13.7188 19.5472 13.7725 19.4707C13.8262 19.3942 13.8888 19.3324 13.9604 19.2852C14.0321 19.238 14.111 19.2144 14.1973 19.2144ZM17.2368 19.2144C17.4696 19.2144 17.6429 19.2957 17.7568 19.4585C17.8724 19.6196 17.9302 19.867 17.9302 20.2007V22H17.2808V20.3911C17.2808 20.1877 17.258 20.0379 17.2124 19.9419C17.1685 19.8442 17.1009 19.7954 17.0098 19.7954C16.8812 19.7954 16.7917 19.863 16.7412 19.998C16.6908 20.1331 16.6655 20.339 16.6655 20.6157V22H16.0112V20.3838C16.0112 20.2487 16.0015 20.138 15.9819 20.0518C15.964 19.9655 15.9355 19.9012 15.8965 19.8589C15.859 19.8166 15.8102 19.7954 15.75 19.7954C15.6572 19.7954 15.5848 19.8296 15.5327 19.8979C15.4823 19.9663 15.4465 20.0672 15.4253 20.2007C15.4058 20.3325 15.396 20.4969 15.396 20.6938V22H14.7466V19.2656H15.2617L15.3301 19.6147H15.3716C15.4074 19.5285 15.4554 19.4561 15.5156 19.3975C15.5758 19.3372 15.6475 19.2917 15.7305 19.2607C15.8135 19.2298 15.9054 19.2144 16.0063 19.2144C16.1642 19.2144 16.2896 19.2518 16.3823 19.3267C16.4751 19.3999 16.541 19.4927 16.5801 19.605H16.6265C16.6883 19.478 16.7681 19.3812 16.8657 19.3145C16.965 19.2477 17.0887 19.2144 17.2368 19.2144ZM19.3706 19.2192C19.5757 19.2192 19.749 19.2697 19.8906 19.3706C20.0339 19.4715 20.1421 19.6147 20.2153 19.8003C20.2886 19.9842 20.3252 20.2023 20.3252 20.4546V20.8208H19.0215C19.0247 21.0601 19.0687 21.2367 19.1533 21.3506C19.238 21.4629 19.3674 21.519 19.5415 21.519C19.6571 21.519 19.7661 21.5044 19.8687 21.4751C19.9728 21.4442 20.0835 21.3921 20.2007 21.3188V21.8608C20.0916 21.9259 19.9753 21.9731 19.8516 22.0024C19.7279 22.0334 19.5944 22.0488 19.4512 22.0488C19.2005 22.0488 18.9963 21.9927 18.8384 21.8804C18.6805 21.7664 18.5649 21.6053 18.4917 21.397C18.4185 21.187 18.3818 20.938 18.3818 20.6499C18.3818 20.3423 18.4185 20.0827 18.4917 19.8711C18.5666 19.6579 18.6772 19.4959 18.8237 19.3853C18.9702 19.2746 19.1525 19.2192 19.3706 19.2192ZM19.3853 19.7295C19.2778 19.7295 19.1924 19.7783 19.1289 19.876C19.0654 19.972 19.0312 20.1299 19.0264 20.3496H19.7222C19.7222 20.221 19.7091 20.1104 19.6831 20.0176C19.6571 19.9248 19.6188 19.854 19.5684 19.8052C19.5179 19.7547 19.4569 19.7295 19.3853 19.7295Z" fill="#028577"/>
</svg>
