<svg width="24" height="24" viewBox="0 0 24 24" fill="none" xmlns="http://www.w3.org/2000/svg">
<path d="M6.0356 21.9999V20.3463C6.0356 19.9396 5.93516 19.7362 5.73428 19.7362C5.58819 19.7362 5.4836 19.8093 5.42051 19.9554C5.35743 20.0998 5.32589 20.3322 5.32589 20.6526V21.9999H4.6585V20.3463C4.6585 19.9396 4.5564 19.7362 4.3522 19.7362C4.20943 19.7362 4.10567 19.8084 4.04092 19.9529C3.97618 20.0973 3.9438 20.3355 3.9438 20.6676V21.9999H3.2814V19.2257H3.80684L3.88653 19.5818H3.92886C3.99527 19.4407 4.08575 19.3378 4.2003 19.273C4.31651 19.2066 4.44019 19.1734 4.57134 19.1734C4.91002 19.1734 5.1358 19.3336 5.24869 19.6541H5.27359C5.4147 19.3336 5.64131 19.1734 5.95342 19.1734C6.19913 19.1734 6.38506 19.2598 6.51124 19.4324C6.63907 19.6051 6.70298 19.8574 6.70298 20.1895V21.9999H6.0356Z" fill="#028577"/>
<path d="M7.90826 21.9999H7.24586V19.2257H7.90826V21.9999ZM7.21846 18.5011C7.21846 18.3915 7.25001 18.3052 7.31309 18.2421C7.37784 18.1773 7.46749 18.145 7.58204 18.145C7.68995 18.145 7.77628 18.1773 7.84102 18.2421C7.90577 18.3052 7.93814 18.3915 7.93814 18.5011C7.93814 18.614 7.90494 18.702 7.83853 18.765C7.77213 18.8265 7.68663 18.8572 7.58204 18.8572C7.47247 18.8572 7.38448 18.8265 7.31807 18.765C7.25167 18.702 7.21846 18.614 7.21846 18.5011Z" fill="#028577"/>
<path d="M10.9688 19.7512H10.5106V21.9999H9.84815V19.7512H9.52691V19.42L9.84815 19.2208V19.0116C9.84815 18.7028 9.91207 18.4737 10.0399 18.3243C10.1677 18.1732 10.3736 18.0977 10.6575 18.0977C10.8368 18.0977 11.0036 18.135 11.158 18.2097L10.9837 18.7152C10.9007 18.6754 10.816 18.6555 10.7297 18.6555C10.6533 18.6555 10.5977 18.6854 10.5628 18.7451C10.528 18.8049 10.5106 18.897 10.5106 19.0215V19.2257H10.9688V19.7512Z" fill="#028577"/>
<path d="M11.9275 21.9999H11.2651V19.2257H11.9275V21.9999ZM11.2377 18.5011C11.2377 18.3915 11.2692 18.3052 11.3323 18.2421C11.3971 18.1773 11.4867 18.145 11.6013 18.145C11.7092 18.145 11.7955 18.1773 11.8603 18.2421C11.925 18.3052 11.9574 18.3915 11.9574 18.5011C11.9574 18.614 11.9242 18.702 11.8578 18.765C11.7914 18.8265 11.7059 18.8572 11.6013 18.8572C11.4917 18.8572 11.4037 18.8265 11.3373 18.765C11.2709 18.702 11.2377 18.614 11.2377 18.5011Z" fill="#028577"/>
<path d="M13.8773 21.9999V20.3463C13.8773 20.1455 13.8533 19.9936 13.8051 19.8906C13.757 19.7877 13.679 19.7362 13.5711 19.7362C13.4283 19.7362 13.3237 19.8076 13.2573 19.9504C13.1909 20.0915 13.1577 20.3306 13.1577 20.6676V21.9999H12.4953V19.2257H13.0207L13.1004 19.5818H13.1427C13.2025 19.454 13.288 19.3544 13.3992 19.283C13.5105 19.21 13.6408 19.1734 13.7902 19.1734C14.0425 19.1734 14.231 19.2598 14.3555 19.4324C14.4816 19.6051 14.5447 19.8574 14.5447 20.1895V21.9999H13.8773Z" fill="#028577"/>
<path d="M15.9965 22.0497C15.6662 22.0497 15.4147 21.9293 15.242 21.6886C15.0693 21.4479 14.983 21.0942 14.983 20.6277C14.983 20.1396 15.0644 19.7752 15.2271 19.5345C15.3914 19.2938 15.6446 19.1734 15.9866 19.1734C16.0895 19.1734 16.1974 19.1884 16.3103 19.2183C16.4232 19.2481 16.5245 19.2913 16.6141 19.3478L16.4249 19.8632C16.2871 19.7819 16.165 19.7412 16.0588 19.7412C15.9177 19.7412 15.8156 19.8151 15.7525 19.9628C15.6911 20.1089 15.6604 20.3289 15.6604 20.6228C15.6604 20.91 15.6911 21.125 15.7525 21.2677C15.8139 21.4088 15.9144 21.4794 16.0538 21.4794C16.2198 21.4794 16.3933 21.4213 16.5743 21.3051V21.8878C16.4 21.9957 16.2074 22.0497 15.9965 22.0497Z" fill="#028577"/>
<path d="M18.3324 21.9999L18.2004 21.6213H18.1855C18.0875 21.784 17.9862 21.8961 17.8816 21.9575C17.7771 22.0189 17.6451 22.0497 17.4857 22.0497C17.2815 22.0497 17.1205 21.9733 17.0026 21.8206C16.8864 21.6678 16.8283 21.4553 16.8283 21.1831C16.8283 20.8909 16.908 20.6742 17.0673 20.5331C17.2284 20.3903 17.4683 20.3115 17.787 20.2965L18.1556 20.2816V20.0824C18.1556 19.8234 18.0435 19.6939 17.8194 19.6939C17.6534 19.6939 17.4625 19.7586 17.2466 19.8881L17.0175 19.4299C17.2931 19.2556 17.5928 19.1685 17.9165 19.1685C18.2104 19.1685 18.4336 19.2531 18.5864 19.4225C18.7408 19.5901 18.818 19.8284 18.818 20.1372V21.9999H18.3324ZM17.7571 21.5317C17.8783 21.5317 17.9746 21.4777 18.046 21.3698C18.119 21.2603 18.1556 21.115 18.1556 20.934V20.7L17.9514 20.7099C17.8003 20.7182 17.6891 20.7614 17.6177 20.8394C17.548 20.9174 17.5131 21.0336 17.5131 21.188C17.5131 21.4171 17.5944 21.5317 17.7571 21.5317Z" fill="#028577"/>
<path fill-rule="evenodd" clip-rule="evenodd" d="M20.3467 1.04438L20.3464 1.04437C19.1964 1.00001 17.8101 0.946543 16.4414 1.1173C14.9413 1.30444 13.42 1.76486 12.2143 2.83342C10.9378 3.96469 10.6 5.21465 10.7912 6.35305C10.9613 7.36547 11.5418 8.24676 12.1493 8.85004C12.0215 9.41108 11.9287 10.0306 11.8676 10.7249C11.7059 10.4876 11.5201 10.2719 11.3025 10.076C11.1919 9.43705 10.9894 8.55116 10.4272 7.85019C9.788 7.0533 8.74506 6.5636 7.10323 6.77065C4.92097 7.04586 3.63603 8.29102 3.0407 8.86793L3.04068 8.86795C2.94195 8.96362 2.86219 9.04091 2.80044 9.09235L2.10642 9.67058L3.02741 9.78879C3.74053 9.88033 4.21451 10.3594 4.84246 10.9941L4.85767 11.0095C5.46278 11.6211 6.19586 12.3472 7.3706 12.4979C8.58775 12.6542 9.47873 12.3413 10.1145 11.8754C10.5199 11.5783 10.8123 11.2259 11.0203 10.9146C11.3409 11.2942 11.5752 11.7816 11.7814 12.4485C11.7697 13.0386 11.7632 13.5122 11.779 14.1594C11.0286 14.339 10.3459 14.6185 9.7838 14.9908C8.74912 14.7592 7.75627 14.7148 6.81833 14.8233C4.9285 15.042 3.28981 15.8785 2 17.0074L2.54815 17.6049C3.73859 16.563 5.23243 15.807 6.93656 15.6098C8.63638 15.4131 10.5736 15.7689 12.6654 16.9949L13.0648 16.3185C12.3235 15.884 11.5951 15.5491 10.8833 15.3036C11.9239 14.8314 13.304 14.6176 14.737 14.7549C16.5724 14.9307 18.424 15.676 19.6888 17.0995L20.2913 16.5897C18.8526 14.9705 16.782 14.1574 14.7918 13.9668C14.0419 13.8949 13.2933 13.9106 12.5842 14.0085C12.5729 13.4334 12.58 12.9895 12.5913 12.4258C12.617 11.1508 12.7158 10.1204 12.8929 9.25738C13.6201 9.49909 14.5225 9.6867 15.4264 9.70039C16.5191 9.71695 17.6746 9.47903 18.4993 8.70257C19.7386 7.53579 19.8664 5.93749 19.9567 4.62266L19.9643 4.5104C20.0075 3.87694 20.0453 3.3217 20.171 2.84966C20.3004 2.3636 20.5115 2.01393 20.88 1.78878L21.9982 1.10556L20.6613 1.05634C20.5586 1.05256 20.4537 1.04851 20.3467 1.04438ZM15.4831 4.98364C14.2941 6.00459 13.529 6.98658 13.0829 8.49259C13.7454 8.71811 14.5844 8.89689 15.4144 8.90946C16.4 8.92439 17.3126 8.70534 17.9292 8.12478C18.9244 7.18781 19.0572 5.89252 19.1496 4.54596L19.1588 4.41007C19.2 3.80162 19.2424 3.17513 19.3878 2.62879C19.4647 2.34015 19.5729 2.06292 19.7304 1.81258C18.7305 1.77948 17.6416 1.76803 16.5675 1.90202C15.1553 2.0782 13.8109 2.50189 12.7673 3.42677C11.6739 4.39582 11.4451 5.38943 11.5893 6.24792C11.6966 6.88686 12.0162 7.47962 12.3998 7.95272C12.9082 6.44215 13.7423 5.41001 14.9392 4.38238L15.4831 4.98364ZM9.79649 8.3266C10.0572 8.65162 10.2236 9.04271 10.3383 9.43884C9.69917 9.1274 8.90507 8.90004 7.91013 8.70187L7.77186 9.4768C9.01889 9.72518 9.83204 10.0023 10.4009 10.3726C10.2243 10.6546 9.97304 10.9763 9.61697 11.2373C9.14122 11.5859 8.45651 11.8426 7.45192 11.7137C6.59465 11.6037 6.04484 11.0892 5.4307 10.4684L5.34453 10.3811C4.93263 9.96304 4.46788 9.49133 3.85588 9.21646C4.5019 8.61442 5.54087 7.76831 7.23046 7.55524C8.63931 7.37757 9.37089 7.79598 9.79649 8.3266Z" fill="#028577"/>
</svg>
