<svg width="24" height="24" viewBox="0 0 24 28" fill="none" xmlns="http://www.w3.org/2000/svg">
<path d="M18.4458 5.47461H20.5767C21.3456 5.47461 22.0831 5.77961 22.6274 6.32271C23.1717 6.8658 23.4784 7.60262 23.4801 8.37152V23.9569C23.4801 24.7269 23.1741 25.4654 22.6296 26.0099C22.0852 26.5544 21.3467 26.8603 20.5767 26.8603H3.90336C3.13334 26.8603 2.39484 26.5544 1.85036 26.0099C1.30587 25.4654 1 24.7269 1 23.9569V8.37152C1.0017 7.60262 1.30834 6.8658 1.85263 6.32271C2.39693 5.77961 3.13445 5.47461 3.90336 5.47461H6.18873" stroke="#028577" stroke-linecap="round" stroke-linejoin="round"/>
<path fill-rule="evenodd" clip-rule="evenodd" d="M17.0096 2.69308H14.9303C14.8595 2.22274 14.6225 1.79334 14.2622 1.48273C13.902 1.17211 13.4424 1.00086 12.9668 1H11.5119C11.0418 1.00847 10.5899 1.18316 10.2364 1.49309C9.88286 1.80302 9.65053 2.22816 9.58061 2.69308H7.50128C7.1803 2.69308 6.87248 2.82059 6.64551 3.04756C6.41854 3.27453 6.29102 3.58236 6.29102 3.90335V6.43332C6.29101 6.7549 6.41833 7.0634 6.64511 7.29139C6.8719 7.51938 7.17971 7.64832 7.50128 7.65002H17.0418C17.3634 7.64832 17.6712 7.51938 17.898 7.29139C18.1248 7.0634 18.2521 6.7549 18.2521 6.43332V3.90335C18.2522 3.74167 18.2198 3.58162 18.1569 3.43264C18.0941 3.28367 18.0021 3.14879 17.8863 3.03598C17.7705 2.92316 17.6333 2.8347 17.4827 2.7758C17.3321 2.71691 17.1712 2.68878 17.0096 2.69308V2.69308Z" stroke="#028577" stroke-linecap="round" stroke-linejoin="round"/>
<path d="M12.0801 11.9814H20.1206" stroke="#028577" stroke-linecap="round" stroke-linejoin="round"/>
<path d="M4.6377 11.9246L5.88015 13.167L8.4745 10.5791" stroke="#028577" stroke-linecap="round" stroke-linejoin="round"/>
<path d="M12.0801 17.353H20.1206" stroke="#028577" stroke-linecap="round" stroke-linejoin="round"/>
<path d="M4.6377 17.2937L5.88015 18.5362L8.4745 15.9482" stroke="#028577" stroke-linecap="round" stroke-linejoin="round"/>
<path d="M12.0801 22.7207H20.1206" stroke="#028577" stroke-linecap="round" stroke-linejoin="round"/>
<path d="M4.6377 22.6633L5.88015 23.9058L8.4745 21.3179" stroke="#028577" stroke-linecap="round" stroke-linejoin="round"/>
</svg>
