<svg width="23" height="21" viewBox="0 0 23 21" fill="none" xmlns="http://www.w3.org/2000/svg">
<g clip-path="url(#clip0)">
    <path d="M9.94 0.69L0.18 18.68C-0.32 19.6 0.3 20.75 1.29 20.75H20.82C21.81 20.75 22.43 19.6 21.93 18.68L12.17 0.69C11.67 -0.23 10.44 -0.23 9.94 0.69Z"
          fill="white"/>
    <path d="M11.05 2.83L19.69 18.75H2.42L11.05 2.83ZM11.05 0C10.62 0 10.18 0.23 9.94 0.69L0.18 18.68C-0.32 19.6 0.3 20.75 1.29 20.75H20.82C21.81 20.75 22.43 19.6 21.93 18.68L12.17 0.69C11.92 0.23 11.49 0 11.05 0Z"
          fill="#D02620"/>
    <path d="M11.05 13.95C10.5 13.95 10.05 13.5 10.05 12.95V7.70001C10.05 7.15001 10.5 6.70001 11.05 6.70001C11.6 6.70001 12.05 7.15001 12.05 7.70001V12.96C12.05 13.5 11.61 13.95 11.05 13.95Z"
          fill="#D02620"/>
    <path d="M11.06 17.45C10.79 17.45 10.53 17.35 10.35 17.16C10.16 16.97 10.05 16.72 10.05 16.45C10.05 16.19 10.16 15.93 10.35 15.75C10.58 15.51 10.93 15.41 11.25 15.47C11.31 15.48 11.38 15.5 11.44 15.53C11.5 15.55 11.56 15.58 11.61 15.62C11.66 15.66 11.72 15.7 11.76 15.75C11.81 15.79 11.85 15.84 11.89 15.9C11.92 15.95 11.95 16.01 11.98 16.07C12 16.13 12.02 16.19 12.04 16.26C12.05 16.32 12.06 16.39 12.06 16.45C12.06 16.71 11.95 16.97 11.76 17.16C11.72 17.2 11.66 17.25 11.61 17.28C11.56 17.32 11.5 17.35 11.44 17.38C11.38 17.4 11.31 17.42 11.25 17.43C11.19 17.45 11.12 17.45 11.06 17.45Z"
          fill="#D02620"/>
</g>
<defs>
<clipPath id="clip0">
<rect width="22.11" height="20.75" fill="white"/>
</clipPath>
</defs>
</svg>
