<svg width="48" height="48" viewBox="0 0 48 48" fill="none" xmlns="http://www.w3.org/2000/svg">
<path d="M40.5477 14.1758C41.0057 14.1758 41.4451 13.9944 41.7697 13.6712C42.0943 13.3481 42.2776 12.9095 42.2797 12.4515V9.15051C42.2776 8.69249 42.0943 8.25393 41.7697 7.93078C41.4451 7.60764 41.0057 7.42623 40.5477 7.42623H29.3787C29.0469 7.43098 28.7235 7.53182 28.4478 7.71654C28.1721 7.90126 27.9559 8.16193 27.8253 8.46701H26.9243L23.1806 6.47865V2.2767C23.1806 2.07071 23.0988 1.87315 22.9531 1.72749C22.8075 1.58183 22.6099 1.5 22.4039 1.5H15.9884C15.7824 1.5 15.5848 1.58183 15.4392 1.72749C15.2935 1.87315 15.2117 2.07071 15.2117 2.2767V6.43982L8.167 9.54662C7.51396 9.88135 6.96605 10.3899 6.58368 11.0162C6.2013 11.6426 5.99932 12.3623 6 13.0961V41.3292C6.00102 42.0098 6.13634 42.6836 6.39821 43.3118C6.66008 43.94 7.04336 44.5104 7.52607 44.9902C8.00878 45.47 8.58143 45.8499 9.21121 46.108C9.841 46.3661 10.5155 46.4974 11.1961 46.4943H26.7301C26.774 46.4987 26.8183 46.4987 26.8622 46.4943C26.9526 46.5019 27.0436 46.5019 27.134 46.4943H40.4545C40.9118 46.4943 41.3503 46.3126 41.6737 45.9893C41.9971 45.6659 42.1787 45.2273 42.1787 44.77V26.7816C42.1794 25.5609 41.9119 24.355 41.3952 23.2491C40.8785 22.1432 40.1252 21.1643 39.1884 20.3816C38.762 20.013 38.4209 19.556 38.1889 19.0423C37.9568 18.5285 37.8394 17.9705 37.8447 17.4068V16.8787C37.8447 16.1618 38.1295 15.4743 38.6364 14.9674C39.1433 14.4605 39.8308 14.1758 40.5477 14.1758ZM26.7457 11.4185V10.0359H26.8855H27.6622V11.434L26.7457 11.4185ZM16.7651 3.0534H21.6272V6.16021H16.7651V3.0534ZM7.5534 41.3292V13.0961C7.54944 12.6574 7.66432 12.2257 7.88584 11.8469C8.10737 11.4681 8.42728 11.1564 8.81166 10.9447L16.1282 7.69808H22.1787L25.1612 9.25148V12.1408C25.1612 12.3468 25.243 12.5444 25.3887 12.69C25.5344 12.8357 25.7319 12.9175 25.9379 12.9175H27.7476C27.8565 13.2653 28.0732 13.5695 28.3665 13.786C28.6597 14.0024 29.0142 14.1199 29.3787 14.1214H30.1166C29.5107 16.3195 26.3806 16.4515 25.6971 16.4515C25.4911 16.4515 25.2936 16.5333 25.1479 16.679C25.0023 16.8246 24.9204 17.0222 24.9204 17.2282C24.9204 17.4342 25.0023 17.6318 25.1479 17.7774C25.2936 17.9231 25.4911 18.0049 25.6971 18.0049C27.313 18.0561 28.9019 17.5819 30.2253 16.6534V16.9719C30.2121 17.5978 30.0579 18.2127 29.7741 18.7708C29.4904 19.3288 29.0844 19.8157 28.5865 20.1952C27.6098 20.9795 26.8231 21.9744 26.2851 23.1055C25.7472 24.2366 25.4718 25.4747 25.4797 26.7273V44.7778C25.4762 44.8347 25.4762 44.8918 25.4797 44.9487H11.1961C10.7189 44.9517 10.2457 44.8604 9.80388 44.6799C9.36206 44.4993 8.9603 44.2332 8.62173 43.8968C8.28317 43.5604 8.01448 43.1604 7.83113 42.7197C7.64778 42.2791 7.55339 41.8065 7.5534 41.3292ZM40.5943 39.0846H26.9709V28.5525H40.6253L40.5943 39.0846ZM40.4545 44.9409H27.1651C27.1198 44.9409 27.0763 44.9229 27.0443 44.8908C27.0122 44.8588 26.9942 44.8153 26.9942 44.77V40.638H40.6253V44.7778C40.6233 44.8217 40.6044 44.8632 40.5726 44.8936C40.5408 44.924 40.4985 44.9409 40.4545 44.9409ZM38.1865 21.5622C38.9507 22.1986 39.5654 22.9954 39.9869 23.8961C40.4084 24.7969 40.6264 25.7794 40.6253 26.7739V26.9913H26.9709V26.7739C26.9698 25.7512 27.1998 24.7416 27.6436 23.8203C28.0874 22.899 28.7337 22.09 29.534 21.4535C30.4351 20.7454 31.1099 19.7899 31.4758 18.7039H36.4467C36.7026 19.8218 37.3128 20.8271 38.1865 21.57V21.5622ZM36.2913 16.902V17.1816H31.7709C31.7709 17.135 31.7709 17.0962 31.7709 17.0496V13.3991C31.7709 13.1931 31.6891 12.9955 31.5434 12.8499C31.3978 12.7042 31.2002 12.6224 30.9942 12.6224H29.3787C29.3334 12.6224 29.2899 12.6044 29.2579 12.5723C29.2258 12.5403 29.2078 12.4968 29.2078 12.4515V9.15051C29.2078 9.10519 29.2258 9.06173 29.2579 9.02968C29.2899 8.99764 29.3334 8.97963 29.3787 8.97963H40.5477C40.5707 8.97858 40.5938 8.98222 40.6154 8.99034C40.6371 8.99846 40.6568 9.01088 40.6735 9.02685C40.6902 9.04282 40.7035 9.06202 40.7126 9.08327C40.7217 9.10453 40.7263 9.1274 40.7263 9.15051V12.4515C40.7263 12.4746 40.7217 12.4975 40.7126 12.5187C40.7035 12.54 40.6902 12.5592 40.6735 12.5751C40.6568 12.5911 40.6371 12.6035 40.6154 12.6117C40.5938 12.6198 40.5707 12.6234 40.5477 12.6224C39.4194 12.6244 38.338 13.0735 37.5403 13.8713C36.7425 14.669 36.2934 15.7505 36.2913 16.8787V16.902Z" fill="#028577"/>
<path d="M14.6057 10.9702C13.2014 10.9723 11.8553 11.531 10.8623 12.524C9.86939 13.5169 9.31065 14.8631 9.30859 16.2673V26.5819C9.30859 26.9807 9.38714 27.3756 9.53976 27.7441C9.69238 28.1125 9.91608 28.4473 10.1981 28.7293C10.4801 29.0113 10.8149 29.235 11.1833 29.3876C11.5518 29.5403 11.9467 29.6188 12.3455 29.6188C12.7443 29.6188 13.1392 29.5403 13.5077 29.3876C13.8761 29.235 14.2109 29.0113 14.4929 28.7293C14.7749 28.4473 14.9986 28.1125 15.1512 27.7441C15.3038 27.3756 15.3824 26.9807 15.3824 26.5819V11.7469C15.3824 11.5409 15.3006 11.3434 15.1549 11.1977C15.0092 11.052 14.8117 10.9702 14.6057 10.9702ZM13.829 26.5819C13.829 26.9754 13.6727 27.3527 13.3945 27.6309C13.1163 27.9091 12.7389 28.0654 12.3455 28.0654C11.952 28.0654 11.5747 27.9091 11.2965 27.6309C11.0183 27.3527 10.862 26.9754 10.862 26.5819V16.2673C10.8629 15.41 11.158 14.579 11.6981 13.9131C12.2381 13.2473 12.9903 12.7869 13.829 12.6091V26.5819Z" fill="#028577"/>
</svg>
