<svg width="48" height="48" viewBox="0 0 48 48" fill="none" xmlns="http://www.w3.org/2000/svg">
<path d="M20.8582 35.0221C21.4621 35.0221 21.9905 34.6559 22.217 34.1433C24.1042 30.0423 24.0287 25.4287 21.9905 21.4009V21.3277C21.8396 20.9615 21.3866 20.815 21.0092 21.0347L18.7446 22.1332L17.6878 19.863C17.5368 19.4968 17.0839 19.3504 16.7064 19.5701H16.5555L10.0636 6.53472L12.1017 5.5827C12.4792 5.43624 12.6301 4.99684 12.4037 4.63068L11.0449 1.92109C10.9694 1.77462 10.8185 1.62816 10.6675 1.55492C10.5165 1.48169 10.29 1.48169 10.1391 1.55492L1.8355 5.50947C1.68452 5.5827 1.53355 5.72917 1.53355 5.87563C1.53355 6.0221 1.45806 6.24179 1.53355 6.38826L2.89232 9.09785C3.04329 9.31755 3.26975 9.46401 3.5717 9.46401C3.64719 9.46401 3.79816 9.46401 3.87365 9.39078L5.9118 8.43876L12.4037 21.4741L12.2527 21.5473C11.8753 21.6938 11.7243 22.1332 11.9508 22.4994L13.0831 24.7696L10.8185 25.8681C10.441 26.0145 10.29 26.4539 10.5165 26.8201L10.592 27.0398C12.5547 30.9943 16.178 33.9236 20.4808 35.0221C20.5563 35.0221 20.7073 35.0221 20.8582 35.0221ZM3.11878 6.46149L10.0636 3.16604L10.8185 4.63068L7.34605 6.24179L5.9118 6.97412L3.87365 7.92614L3.11878 6.46149ZM7.94995 7.48674L8.70482 7.12058L15.1967 20.1559L13.6115 20.8883L7.19508 7.8529L7.94995 7.48674ZM17.4613 22.6458L14.2909 24.1105L13.4605 22.4994L16.631 21.0347L17.4613 22.6458ZM13.9134 29.4564L17.4613 27.7721C17.8387 27.6256 17.9897 27.1862 17.7633 26.8201C17.6123 26.4539 17.1594 26.3074 16.7819 26.5271L13.0076 28.2847C12.6301 27.7721 12.3282 27.2595 12.0262 26.7468L21.0092 22.4994C22.5944 26.0145 22.5189 30.0423 20.9337 33.5574C20.9337 33.6307 20.8582 33.6307 20.8582 33.6307C18.1407 32.8984 15.7251 31.4337 13.9134 29.4564Z" fill="#028577"/>
<path d="M44.9384 41.0275C44.2591 38.1714 41.617 36.0477 38.522 36.0477C38.0691 36.0477 37.6917 36.1209 37.2388 36.1942C37.0878 33.4846 34.7477 31.2876 31.8792 31.2876C29.4636 31.2876 27.35 32.8987 26.7461 35.0957C26.5951 35.0957 26.4441 35.0957 26.2932 35.0957C24.1795 35.0957 22.4433 36.78 22.4433 38.8305C22.4433 39.1967 22.5188 39.6361 22.5943 40.0022C20.9336 40.881 19.8013 42.5654 19.8013 44.4694C19.8013 44.6891 19.8768 44.8356 20.0277 44.982C20.1787 45.1285 20.3297 45.2017 20.5561 45.2017H47.203C47.4295 45.2017 47.5805 45.1285 47.7315 44.982C47.8824 44.8356 47.9579 44.6159 47.8824 44.4694C47.8069 42.7118 46.5237 41.3204 44.9384 41.0275ZM21.3865 43.6639C21.613 42.4189 22.5943 41.3204 23.8776 40.881C24.104 40.8078 24.255 40.6613 24.3305 40.4416C24.406 40.2219 24.406 40.0022 24.255 39.8558C24.0285 39.4896 23.9531 39.1235 23.9531 38.6841C23.9531 37.3659 25.0099 36.3406 26.3686 36.3406C26.5951 36.3406 26.897 36.4139 27.1235 36.4871C27.35 36.5603 27.5764 36.5603 27.7274 36.4139C27.8784 36.2674 28.0294 36.1209 28.0294 35.9012C28.2558 33.9972 29.9165 32.6058 31.8792 32.6058C34.0683 32.6058 35.8045 34.2901 35.8045 36.4139C35.8045 36.5603 35.8045 36.78 35.729 36.9265C35.729 37.1462 35.8045 37.4391 35.9555 37.5856C36.1819 37.732 36.4084 37.8053 36.6349 37.732C37.2388 37.5124 37.8427 37.4391 38.3711 37.4391C40.9376 37.4391 43.1268 39.2699 43.4287 41.7598C43.5042 42.126 43.7306 42.3457 44.1081 42.3457C45.0139 42.4189 45.7688 42.9315 46.1462 43.6639H21.3865Z" fill="#028577"/>
<path d="M28.5576 38.3174C26.6704 38.3174 25.1606 39.782 25.1606 41.6128C25.1606 41.979 25.4626 42.2719 25.84 42.2719C26.2175 42.2719 26.5194 41.979 26.5194 41.6128C26.5194 40.5876 27.4253 39.7088 28.4821 39.7088C28.935 39.7088 29.3879 39.8553 29.7654 40.1482C30.0673 40.3679 30.5202 40.3679 30.7467 40.075C30.9731 39.782 30.9731 39.3426 30.6712 39.1229C30.1428 38.6103 29.3879 38.3174 28.5576 38.3174Z" fill="#028577"/>
<path d="M38.7484 38.6836C37.9935 38.6836 37.3141 38.9033 36.7857 39.4159C36.4838 39.6356 36.4838 40.075 36.7103 40.3679C36.9367 40.6609 37.3896 40.6609 37.6916 40.4412C37.9935 40.2215 38.371 40.075 38.6729 40.075C39.5033 40.075 40.2581 40.7341 40.2581 41.6129C40.2581 41.9791 40.5601 42.272 40.9375 42.272C41.315 42.272 41.6169 41.9791 41.6169 41.6129C41.7679 40.0018 40.4091 38.6836 38.7484 38.6836Z" fill="#028577"/>
<path d="M31.8036 34.583C31.1997 34.583 30.6713 34.8027 30.2184 35.1689C29.9164 35.3886 29.9164 35.828 30.1429 36.1209C30.3693 36.4138 30.8223 36.4138 31.1242 36.1941C31.2752 36.0477 31.5016 35.9744 31.7281 35.9744C32.2565 35.9744 32.7094 36.4138 32.7094 36.9264C32.7094 37.2926 33.0114 37.5855 33.3888 37.5855C33.7662 37.5855 34.0682 37.2926 34.0682 36.9264C34.2192 35.6083 33.0869 34.583 31.8036 34.583Z" fill="#028577"/>
</svg>
