<svg width="48" height="48" viewBox="0 0 48 48" fill="none" xmlns="http://www.w3.org/2000/svg">
<path d="M45.585 17.5501C45.1838 17.0069 44.6225 16.603 43.98 16.3951L45.2025 13.5001C45.2712 13.3188 45.267 13.1179 45.1909 12.9396C45.1147 12.7613 44.9724 12.6195 44.7939 12.5438C44.6154 12.4681 44.4145 12.4645 44.2334 12.5337C44.0523 12.6029 43.9051 12.7396 43.8225 12.9151L42.9825 14.8951L42.1425 12.9151C42.1068 12.8207 42.0523 12.7345 41.9824 12.6616C41.9126 12.5888 41.8287 12.5308 41.7359 12.4911C41.6431 12.4515 41.5432 12.431 41.4423 12.4308C41.3413 12.4307 41.2414 12.4509 41.1485 12.4903C41.0555 12.5297 40.9715 12.5874 40.9014 12.6601C40.8313 12.7327 40.7767 12.8188 40.7406 12.913C40.7046 13.0073 40.6879 13.1079 40.6917 13.2088C40.6955 13.3097 40.7196 13.4087 40.7625 13.5001L42 16.4026C41.3387 16.6134 40.7644 17.0348 40.365 17.6026H33.75L31.17 15.0001C30.5488 14.3733 29.705 14.0175 28.8225 14.0101H28.6725H28.59H28.5075H28.2675C28.7928 13.513 29.2113 12.9142 29.4975 12.2502C29.7838 11.5861 29.9318 10.8707 29.9325 10.1476C29.9213 9.49634 29.7891 8.85289 29.5425 8.25006H30.96C31.1589 8.25006 31.3497 8.17104 31.4904 8.03039C31.631 7.88973 31.71 7.69897 31.71 7.50006C31.71 7.30114 31.631 7.11038 31.4904 6.96973C31.3497 6.82907 31.1589 6.75006 30.96 6.75006H28.905L28.065 2.47506C28.0315 2.30172 27.9379 2.14576 27.8007 2.03463C27.6635 1.92351 27.4915 1.86435 27.315 1.86756H21.8775C21.701 1.86435 21.529 1.92351 21.3918 2.03463C21.2546 2.14576 21.161 2.30172 21.1275 2.47506L20.3025 6.75006H18.2475C18.0486 6.75006 17.8578 6.82907 17.7172 6.96973C17.5765 7.11038 17.4975 7.30114 17.4975 7.50006C17.4975 7.69897 17.5765 7.88973 17.7172 8.03039C17.8578 8.17104 18.0486 8.25006 18.2475 8.25006H19.6725C19.2639 9.2316 19.1671 10.3151 19.3952 11.3535C19.6233 12.3919 20.1652 13.3351 20.9475 14.0551H20.7H20.6175H20.535H20.37C19.4862 14.0446 18.6341 14.3843 18 15.0001L15.4125 17.5876H7.40252V15.1351H8.80502C9.52508 15.1351 10.2157 14.849 10.7248 14.3399C11.234 13.8307 11.52 13.1401 11.52 12.4201V8.00256C11.52 7.80364 11.441 7.61288 11.3004 7.47223C11.1597 7.33157 10.9689 7.25256 10.77 7.25256H2.52002C2.32111 7.25256 2.13034 7.33157 1.98969 7.47223C1.84904 7.61288 1.77002 7.80364 1.77002 8.00256V12.4201C1.77001 12.7779 1.84073 13.1321 1.97811 13.4625C2.11549 13.7929 2.31682 14.0929 2.57052 14.3452C2.82422 14.5975 3.12529 14.7972 3.45643 14.9327C3.78756 15.0683 4.14222 15.137 4.50002 15.1351H5.90252V34.7551C5.90252 34.954 5.98154 35.1447 6.12219 35.2854C6.26284 35.426 6.45361 35.5051 6.65252 35.5051C6.85143 35.5051 7.0422 35.426 7.18285 35.2854C7.3235 35.1447 7.40252 34.954 7.40252 34.7551V23.1376H16.455C17.2559 23.1372 18.0252 22.8252 18.6 22.2676L19.5 21.4801L18.6075 23.9326C18.577 24.0167 18.5617 24.1056 18.5625 24.1951V37.3501V41.3401C17.6409 41.743 16.857 42.4061 16.3068 43.248C15.7565 44.09 15.464 45.0742 15.465 46.0801C15.465 46.279 15.544 46.4697 15.6847 46.6104C15.8253 46.751 16.0161 46.8301 16.215 46.8301H33C33.1989 46.8301 33.3897 46.751 33.5304 46.6104C33.671 46.4697 33.75 46.279 33.75 46.0801C33.7536 45.0747 33.4629 44.0902 32.9139 43.2479C32.3648 42.4057 31.5814 41.7425 30.66 41.3401V24.1876C30.6608 24.0981 30.6456 24.0092 30.615 23.9251L29.73 21.5026L30.5475 22.2526C31.1263 22.8264 31.9075 23.1496 32.7225 23.1526H40.905L42.4875 27.3901C42.5412 27.5336 42.6375 27.6573 42.7635 27.7444C42.8896 27.8316 43.0393 27.8781 43.1925 27.8776V27.8776C43.3477 27.8723 43.4975 27.8189 43.6211 27.7249C43.7447 27.6308 43.836 27.5007 43.8825 27.3526L46.0425 20.4451C46.201 19.9608 46.2421 19.4457 46.1626 18.9424C46.083 18.4391 45.8851 17.9619 45.585 17.5501V17.5501ZM22.5 3.33756H26.7225L27.375 6.75006H21.8325L22.5 3.33756ZM3.28502 12.4201V8.75256H10.035V12.4201C10.035 12.7423 9.90701 13.0513 9.67916 13.2792C9.4513 13.507 9.14226 13.6351 8.82002 13.6351H4.50002C4.17778 13.6351 3.86874 13.507 3.64088 13.2792C3.41303 13.0513 3.28502 12.7423 3.28502 12.4201V12.4201ZM29.175 36.6226H25.425V31.1776C25.425 30.9786 25.346 30.7879 25.2053 30.6472C25.0647 30.5066 24.8739 30.4276 24.675 30.4276C24.4761 30.4276 24.2853 30.5066 24.1447 30.6472C24.004 30.7879 23.925 30.9786 23.925 31.1776V36.6226H20.025V24.3226L21.75 19.6801H27.5025L29.1975 24.3151L29.175 36.6226ZM24.6 15.5101H27.84V18.1651H21.3675V15.5251L24.6 15.5101ZM20.775 10.1626C20.7865 9.48598 20.9809 8.82513 21.3375 8.25006H27.8775C28.1768 8.75553 28.3553 9.32325 28.3993 9.90901C28.4433 10.4948 28.3515 11.0828 28.1311 11.6273C27.9107 12.1718 27.5676 12.658 27.1285 13.0483C26.6894 13.4385 26.1662 13.7221 25.5996 13.8771C25.033 14.032 24.4383 14.0542 23.8617 13.9417C23.2852 13.8293 22.7424 13.5853 22.2755 13.2287C21.8087 12.8722 21.4304 12.4128 21.1701 11.8862C20.9099 11.3595 20.7747 10.78 20.775 10.1926V10.1626ZM17.5725 21.1726C17.2759 21.4688 16.8743 21.6359 16.455 21.6376H7.40252V19.1026H15.4875C15.6675 19.1022 15.8457 19.0662 16.0117 18.9967C16.1778 18.9272 16.3284 18.8255 16.455 18.6976L19.08 16.0726C19.2882 15.8602 19.5459 15.703 19.83 15.6151V18.9301C19.8345 18.9841 19.8472 19.0372 19.8675 19.0876L17.5725 21.1726ZM19.5 42.6001H19.545L19.62 42.5626C19.6804 42.5269 19.7381 42.4868 19.7925 42.4426L19.8375 42.3826C19.8842 42.3344 19.9223 42.2786 19.95 42.2176C19.9532 42.1876 19.9532 42.1575 19.95 42.1276C19.9697 42.0642 19.9823 41.9987 19.9875 41.9326C19.9875 41.9326 19.9875 41.9326 19.9875 41.9326V38.1826H23.8875V45.3751H17.0175C17.1459 44.733 17.4439 44.1371 17.8804 43.6491C18.317 43.1611 18.8762 42.7989 19.5 42.6001V42.6001ZM32.175 45.3751H25.425V38.1226H29.175V41.7376C29.143 41.9069 29.1702 42.0821 29.2521 42.2337C29.3341 42.3854 29.4658 42.5041 29.625 42.5701C29.625 42.5701 29.625 42.5701 29.67 42.5701C30.3043 42.7664 30.8735 43.1308 31.3172 43.6247C31.7609 44.1186 32.0625 44.7235 32.19 45.3751H32.175ZM32.7225 21.6376C32.2912 21.6306 31.8795 21.4557 31.575 21.1501L29.325 19.1026C29.3286 19.0451 29.3286 18.9875 29.325 18.9301V15.6151C29.6075 15.7065 29.8644 15.8633 30.075 16.0726L32.7 18.6976C32.8266 18.8255 32.9773 18.9272 33.1433 18.9967C33.3094 19.0662 33.4875 19.1022 33.6675 19.1026H39.75C39.6927 19.6097 39.7543 20.1233 39.93 20.6026L40.32 21.6451L32.7225 21.6376ZM44.6175 19.9801L43.1175 24.8026L42.21 22.3576C42.2001 22.2074 42.1452 22.0636 42.0525 21.9451L41.355 20.0701C41.2785 19.8565 41.2451 19.6299 41.2567 19.4033C41.2683 19.1767 41.3247 18.9547 41.4225 18.7501C41.4521 18.7078 41.4772 18.6625 41.4975 18.6151C41.4975 18.5776 41.535 18.5326 41.5575 18.4951C41.7945 18.158 42.1437 17.9165 42.5427 17.8137C42.9416 17.7109 43.3641 17.7537 43.7344 17.9343C44.1047 18.1149 44.3985 18.4216 44.5631 18.7993C44.7276 19.1769 44.7523 19.6009 44.6325 19.9951L44.6175 19.9801Z" fill="#028577"/>
<path d="M22.1475 22.3574C21.9485 22.3574 21.7578 22.4364 21.6171 22.5771C21.4765 22.7177 21.3975 22.9085 21.3975 23.1074V25.5524C21.3975 26.2088 21.6582 26.8384 22.1224 27.3025C22.5865 27.7667 23.2161 28.0274 23.8725 28.0274H25.2525C25.9089 28.0274 26.5384 27.7667 27.0026 27.3025C27.4667 26.8384 27.7275 26.2088 27.7275 25.5524V23.1074C27.7275 22.9085 27.6484 22.7177 27.5078 22.5771C27.3671 22.4364 27.1764 22.3574 26.9775 22.3574H22.1475ZM26.25 25.5524C26.25 25.811 26.1472 26.059 25.9644 26.2419C25.7815 26.4247 25.5335 26.5274 25.275 26.5274H23.8725C23.6139 26.5274 23.3659 26.4247 23.183 26.2419C23.0002 26.059 22.8975 25.811 22.8975 25.5524V23.8574H26.25V25.5524Z" fill="#028577"/>
</svg>
