<svg width="48" height="48" viewBox="0 0 48 48" fill="none" xmlns="http://www.w3.org/2000/svg">
<path d="M29.1723 26.541C29.0325 26.541 28.8228 26.4735 28.683 26.3386C28.4034 26.0688 28.4034 25.6642 28.683 25.4618L31.8282 22.4267C31.968 22.2918 32.2475 22.2244 32.4572 22.2244C35.183 22.8314 37.9088 22.0895 39.8658 20.201C41.6131 18.5149 42.4518 16.0868 42.1024 13.7262L38.3981 17.3008C38.2583 17.4357 38.0486 17.5032 37.8389 17.5032L32.6669 16.7613C32.3873 16.6938 32.1077 16.4915 32.1077 16.2217L31.5486 11.433C31.5486 11.2307 31.6185 11.0284 31.7583 10.8935L35.4626 7.31883C33.0163 6.9816 30.5002 7.7235 28.7529 9.4771C26.7959 11.3656 26.0271 14.0634 26.6561 16.6264C26.726 16.8287 26.6561 17.0985 26.4464 17.2334L21.9034 21.6174C21.6239 21.8872 21.2045 21.8872 20.9948 21.6174C20.7153 21.3476 20.7153 20.9429 20.9948 20.7406L25.2583 16.6264C24.6292 13.7262 25.6077 10.6911 27.7744 8.6003C30.1507 6.30714 33.7153 5.43034 36.9303 6.37458C37.14 6.44203 37.3497 6.64437 37.3497 6.8467C37.4196 7.04904 37.3497 7.31883 37.2099 7.45372L32.8766 11.6354L33.2959 15.6147L37.6292 16.2217L42.0325 12.04C42.1723 11.9052 42.4518 11.8377 42.6615 11.9052C42.8712 11.9726 43.0809 12.1075 43.1507 12.3098C44.1292 15.4798 43.2206 18.8521 40.8443 21.1453C38.6776 23.2361 35.6024 24.1803 32.5271 23.5733L29.6615 26.3386C29.5217 26.4735 29.312 26.541 29.1723 26.541Z" fill="#028577"/>
<path d="M9.60215 43.4688C8.27419 43.4688 7.01613 42.9966 5.96774 42.0524C4.01075 40.1639 4.01075 36.9939 5.96774 35.1054L18.828 22.8303C19.1075 22.5605 19.5269 22.5605 19.7366 22.8303C20.0161 23.1001 20.0161 23.5047 19.7366 23.7071L6.94624 35.9822C6.24731 36.6567 5.82796 37.6009 5.82796 38.5452C5.82796 39.4894 6.24731 40.4337 6.94624 41.1081C8.41398 42.5245 10.7903 42.5245 12.328 41.1081L23.7204 30.2493C24 29.9795 24.4194 29.9795 24.629 30.2493C24.9086 30.5191 24.9086 30.9238 24.629 31.1261L13.2366 42.0524C12.1882 42.9966 10.9301 43.4688 9.60215 43.4688Z" fill="#028577"/>
<path d="M37.2794 43.4684C35.9515 43.4684 34.6934 42.9962 33.645 42.052L19.6665 26.472C19.4569 26.2022 19.4569 25.865 19.6665 25.5952L23.7203 21.6833C23.9999 21.4135 24.3493 21.4135 24.6289 21.6833L40.844 34.9702C42.8708 36.9261 42.8708 40.0286 40.9138 41.9846C39.8655 42.9288 38.5375 43.4684 37.2794 43.4684ZM21.0644 25.9998L34.5536 41.1078C36.0214 42.5241 38.3977 42.5241 39.8655 41.0403C41.3332 39.6239 41.3332 37.3308 39.8655 35.847L24.2794 22.8973L21.0644 25.9998Z" fill="#028577"/>
<path d="M21.2739 25.6628C21.0642 25.6628 20.9245 25.5954 20.7847 25.4605L11.489 16.4902C11.2094 16.2204 11.2094 15.8157 11.489 15.6134L13.5159 13.6574C13.7954 13.3876 14.2148 13.3876 14.4245 13.6574L23.7202 22.6277C23.9997 22.8975 23.9997 23.3022 23.7202 23.5045L21.6933 25.4605C21.6234 25.5954 21.4137 25.6628 21.2739 25.6628ZM12.8868 16.018L21.2739 24.1116L22.3223 23.0999L13.9352 15.0063L12.8868 16.018Z" fill="#028577"/>
<path d="M10.7901 17.5017C10.6503 17.5017 10.4406 17.4343 10.3008 17.2994L7.15566 14.2643C7.08577 14.1969 7.08577 14.1294 7.01588 14.1294L4.77932 9.81288C4.63953 9.54309 4.70943 9.27331 4.84921 9.07097L6.66642 7.31738C6.87609 7.11504 7.15566 7.04759 7.43523 7.18248L11.7686 9.27331C11.8385 9.27331 11.9084 9.34076 11.9782 9.4082L15.2632 12.5782C15.5428 12.848 15.5428 13.2526 15.2632 13.455L11.2094 17.3668C11.1395 17.4343 10.9299 17.5017 10.7901 17.5017ZM8.20405 13.455L10.7901 15.9505L13.8653 12.9828L11.1395 10.285L7.29545 8.5314L6.17717 9.61054L8.20405 13.455Z" fill="#028577"/>
</svg>
