<svg width="48" height="48" viewBox="0 0 48 48" fill="none" xmlns="http://www.w3.org/2000/svg">
<path d="M38.2333 38.4C38.0083 37.2951 37.5681 36.2469 36.9383 35.3169C36.3086 34.3869 35.5021 33.5939 34.5662 32.9845C33.6303 32.375 32.5838 31.9613 31.4882 31.7677C30.3925 31.5742 29.2698 31.6045 28.1859 31.8571C28.1611 30.1944 27.5403 28.5976 26.4395 27.3654C25.3387 26.1332 23.8333 25.3498 22.2046 25.1616C20.5759 24.9735 18.9354 25.3934 17.5897 26.343C16.244 27.2926 15.2852 28.7069 14.8926 30.3214C14.6595 30.2853 14.4242 30.2662 14.1885 30.2643C12.9248 30.2662 11.7135 30.7762 10.82 31.6827C9.92644 32.5892 9.42364 33.8181 9.42178 35.1C9.42145 35.6699 9.51914 36.2355 9.71046 36.7714C8.61167 37.3333 7.68633 38.1908 7.03563 39.2503C6.38493 40.3098 6.03393 41.5303 6.02101 42.7786C6.02047 42.8726 6.03823 42.9658 6.07327 43.0528C6.10831 43.1398 6.15994 43.219 6.22519 43.2857C6.2904 43.3532 6.36817 43.4069 6.45398 43.4437C6.53979 43.4805 6.63194 43.4996 6.7251 43.5H41.458C41.5561 43.5004 41.6531 43.48 41.7429 43.4402C41.8328 43.4003 41.9134 43.3419 41.9797 43.2686C42.046 43.1953 42.0964 43.1088 42.1279 43.0145C42.1593 42.9203 42.1709 42.8205 42.1621 42.7214C42.0651 41.6637 41.6279 40.6676 40.918 39.8867C40.208 39.1058 39.2647 38.5834 38.2333 38.4V38.4ZM7.4644 42.0714C7.59896 41.1108 7.98751 40.205 8.58878 39.4504C9.19004 38.6958 9.98156 38.1206 10.8793 37.7857C10.975 37.7492 11.0618 37.6919 11.1336 37.6179C11.2053 37.5439 11.2603 37.4549 11.2947 37.3571C11.3289 37.2605 11.3423 37.1576 11.3338 37.0552C11.3253 36.9529 11.2951 36.8537 11.2454 36.7643C10.9609 36.2445 10.8152 35.6584 10.8227 35.0639C10.8301 34.4694 10.9904 33.8872 11.2877 33.3749C11.585 32.8626 12.009 32.4379 12.5178 32.1429C13.0266 31.8479 13.6025 31.6927 14.1885 31.6928C14.5479 31.6922 14.9049 31.7526 15.2446 31.8714C15.3438 31.905 15.4491 31.9158 15.5529 31.903C15.6567 31.8902 15.7564 31.8541 15.8447 31.7974C15.933 31.7406 16.0078 31.6646 16.0635 31.5748C16.1193 31.4851 16.1546 31.3839 16.167 31.2786C16.3372 29.9138 17.0132 28.6659 18.0576 27.7884C19.1019 26.9109 20.4364 26.4697 21.7899 26.5542C23.1434 26.6388 24.4144 27.2429 25.3447 28.2437C26.275 29.2446 26.7949 30.5672 26.7988 31.9428C26.7953 32.1985 26.7765 32.4538 26.7425 32.7071C26.725 32.8296 26.7392 32.9545 26.7836 33.0697C26.8281 33.1849 26.9012 33.2864 26.9959 33.3643C27.0927 33.4452 27.2089 33.4984 27.3327 33.5185C27.4565 33.5386 27.5833 33.5248 27.7 33.4786C28.4671 33.1935 29.2771 33.0461 30.094 33.0428C31.772 33.0478 33.3917 33.6679 34.6546 34.7889C35.9174 35.9099 36.7383 37.4562 36.9659 39.1428C36.9886 39.3073 37.0671 39.4586 37.1879 39.5708C37.3087 39.6829 37.4642 39.7488 37.6278 39.7571C38.2921 39.8022 38.9283 40.0461 39.456 40.458C39.9836 40.87 40.379 41.4315 40.592 42.0714H7.4644Z" fill="#028577"/>
<path d="M17.0542 34.75C15.9484 34.7631 14.8917 35.2155 14.1111 36.0101C13.3304 36.8047 12.888 37.8782 12.8789 39C12.8789 39.1894 12.9531 39.3711 13.0851 39.5051C13.2172 39.639 13.3963 39.7143 13.583 39.7143C13.7697 39.7143 13.9488 39.639 14.0809 39.5051C14.2129 39.3711 14.2871 39.1894 14.2871 39C14.2871 38.2548 14.5784 37.5401 15.0971 37.0125C15.6159 36.4849 16.3197 36.1876 17.0542 36.1857C17.7266 36.1953 18.3735 36.4487 18.8778 36.9C18.9494 36.9629 19.0326 37.0108 19.1225 37.041C19.2124 37.0712 19.3073 37.0832 19.4018 37.0763C19.4963 37.0693 19.5885 37.0435 19.6731 37.0004C19.7578 36.9573 19.8332 36.8977 19.8952 36.825C19.9571 36.7523 20.0044 36.6679 20.0342 36.5767C20.064 36.4855 20.0758 36.3892 20.0689 36.2934C20.0621 36.1976 20.0367 36.104 19.9942 36.0181C19.9517 35.9323 19.8929 35.8557 19.8213 35.7929C19.0525 35.119 18.0701 34.7488 17.0542 34.75V34.75Z" fill="#028577"/>
<path d="M30.3826 35.2783C29.4994 35.2769 28.6458 35.6019 27.9817 36.1926C27.9023 36.2508 27.8358 36.3251 27.7863 36.4109C27.7369 36.4966 27.7056 36.5919 27.6945 36.6906C27.6834 36.7893 27.6927 36.8893 27.7218 36.9841C27.751 37.079 27.7993 37.1666 27.8637 37.2414C27.9281 37.3163 28.0072 37.3766 28.0959 37.4187C28.1847 37.4607 28.2811 37.4836 28.379 37.4857C28.4769 37.4878 28.5741 37.4692 28.6645 37.431C28.755 37.3929 28.8365 37.336 28.904 37.264C29.2319 36.9787 29.6334 36.7947 30.0612 36.7338C30.4889 36.6728 30.9249 36.7375 31.3176 36.9201C31.7102 37.1027 32.043 37.3957 32.2766 37.7642C32.5103 38.1328 32.6349 38.5616 32.6357 38.9998C32.6357 39.1892 32.7099 39.3709 32.842 39.5048C32.974 39.6388 33.1531 39.714 33.3398 39.714C33.5266 39.714 33.7056 39.6388 33.8377 39.5048C33.9697 39.3709 34.0439 39.1892 34.0439 38.9998C34.0439 38.014 33.6584 37.0685 32.972 36.3708C32.2856 35.6731 31.3543 35.2802 30.3826 35.2783V35.2783Z" fill="#028577"/>
<path d="M21.3068 29.6572C20.6111 29.6548 19.9381 29.9086 19.4128 30.3715C19.3335 30.4297 19.2669 30.5041 19.2175 30.5898C19.168 30.6755 19.1367 30.7708 19.1256 30.8695C19.1145 30.9682 19.1238 31.0682 19.153 31.163C19.1821 31.2579 19.2304 31.3455 19.2949 31.4204C19.3593 31.4952 19.4384 31.5556 19.5271 31.5976C19.6158 31.6397 19.7122 31.6625 19.8101 31.6646C19.908 31.6667 20.0053 31.6481 20.0957 31.61C20.1861 31.5718 20.2677 31.5149 20.3352 31.443C20.5492 31.2561 20.8114 31.1353 21.091 31.0948C21.3705 31.0544 21.6556 31.0959 21.9125 31.2146C22.1695 31.3333 22.3876 31.5242 22.541 31.7646C22.6945 32.0051 22.7768 32.2851 22.7784 32.5715C22.7784 32.761 22.8526 32.9427 22.9846 33.0766C23.1167 33.2106 23.2958 33.2858 23.4825 33.2858C23.6692 33.2858 23.8483 33.2106 23.9804 33.0766C24.1124 32.9427 24.1866 32.761 24.1866 32.5715C24.1829 31.7985 23.878 31.0584 23.3386 30.5125C22.7991 29.9665 22.0688 29.6591 21.3068 29.6572Z" fill="#028577"/>
<path d="M43.2885 17.5714L32.5793 6.85714C32.4938 6.77627 32.3898 6.71826 32.2767 6.68833C32.1637 6.65841 32.045 6.65751 31.9315 6.68571V5.21429C31.9315 5.02485 31.8573 4.84316 31.7253 4.70921C31.5932 4.57526 31.4141 4.5 31.2274 4.5H18.251C18.0642 4.5 17.8851 4.57526 17.7531 4.70921C17.6211 4.84316 17.5469 5.02485 17.5469 5.21429V7.5C17.5469 7.68944 17.6211 7.87112 17.7531 8.00508C17.8851 8.13903 18.0642 8.21429 18.251 8.21429H18.5326L19.8211 9.56429C19.8874 9.6348 19.9671 9.69082 20.0555 9.7289C20.1439 9.76698 20.2391 9.78632 20.3351 9.78571V9.78571C20.4299 9.78535 20.5237 9.76554 20.6108 9.72749C20.6979 9.68944 20.7766 9.63393 20.842 9.56429L21.8066 8.53571L22.7783 9.56429C22.8443 9.63264 22.9232 9.68683 23.0103 9.72364C23.0974 9.76045 23.1909 9.77913 23.2852 9.77857C23.3808 9.7801 23.4756 9.76189 23.5639 9.72505C23.6523 9.68821 23.7324 9.63351 23.7992 9.56429L24.7497 8.52857L25.7214 9.56429C25.7868 9.63393 25.8655 9.68944 25.9526 9.72749C26.0397 9.76554 26.1335 9.78535 26.2283 9.78571C26.3232 9.78535 26.417 9.76554 26.5041 9.72749C26.5912 9.68944 26.6698 9.63393 26.7353 9.56429L27.9886 8.21429H30.6078C30.6078 8.21429 30.6078 8.26429 30.6078 8.28571L30.7134 9.71429L29.3052 9.75714C29.122 9.76169 28.9477 9.83856 28.8194 9.97143C28.7479 10.044 28.6927 10.1313 28.6575 10.2274C28.6222 10.3236 28.6078 10.4263 28.6152 10.5286L28.7208 11.9571L27.3126 11.9929C27.119 12.0039 26.9371 12.091 26.8057 12.2357C26.742 12.3082 26.6936 12.3931 26.6633 12.4852C26.633 12.5773 26.6216 12.6747 26.6297 12.7714L26.7282 14.2L25.3201 14.2429C25.2227 14.2425 25.1263 14.2627 25.0369 14.3021C24.9476 14.3416 24.8673 14.3993 24.8012 14.4718C24.735 14.5444 24.6844 14.63 24.6525 14.7234C24.6206 14.8167 24.6082 14.9158 24.616 15.0143L24.7216 16.4429L23.3134 16.4786C23.2175 16.4808 23.1231 16.5028 23.0359 16.5433C22.9488 16.5839 22.8707 16.642 22.8064 16.7143L22.4192 17.1571C22.2935 17.2966 22.2274 17.4808 22.2353 17.6696C22.2432 17.8583 22.3245 18.0362 22.4614 18.1643L33.6213 28.3857C33.7512 28.509 33.9222 28.5779 34.1001 28.5786V28.5786C34.2851 28.5634 34.4581 28.4795 34.5859 28.3429L43.3167 18.5714C43.442 18.4342 43.5092 18.2526 43.504 18.0656C43.4987 17.8786 43.4213 17.7012 43.2885 17.5714V17.5714ZM30.5233 6.78571H27.7069C27.6109 6.78511 27.5158 6.80445 27.4274 6.84253C27.339 6.88061 27.2592 6.93663 27.1929 7.00714L26.2143 8.03571L25.2496 7.00714C25.1109 6.8735 24.927 6.79898 24.7357 6.79898C24.5444 6.79898 24.3604 6.8735 24.2217 7.00714L23.2571 8.03571L22.2925 7.00714C22.1538 6.8735 21.9698 6.79898 21.7785 6.79898C21.5872 6.79898 21.4032 6.8735 21.2645 7.00714L20.3069 8.03571L19.3423 7.00714C19.2368 6.90002 19.1018 6.8278 18.9551 6.8V5.92857H30.5233V6.78571ZM34.0438 26.85L24.3062 17.8143L25.5383 17.7786C25.6342 17.7764 25.7286 17.7543 25.8158 17.7138C25.903 17.6733 25.9811 17.6151 26.0453 17.5429C26.109 17.4704 26.1574 17.3855 26.1877 17.2934C26.218 17.2013 26.2294 17.1039 26.2213 17.0071L26.1157 15.5786L27.5239 15.5357C27.6197 15.5335 27.7142 15.5115 27.8013 15.4709C27.8885 15.4304 27.9666 15.3722 28.0308 15.3C28.0936 15.2284 28.1416 15.1447 28.1718 15.0539C28.202 14.9631 28.214 14.867 28.2068 14.7714L28.1083 13.3429L29.5165 13.3071C29.6111 13.304 29.7042 13.2815 29.7901 13.241C29.876 13.2005 29.9529 13.1428 30.0164 13.0714C30.0804 13.0004 30.1296 12.9169 30.1611 12.8261C30.1926 12.7353 30.2056 12.6389 30.1994 12.5429L30.0938 11.1143L31.502 11.0714C31.5983 11.0719 31.6936 11.0511 31.7811 11.0104C31.8687 10.9697 31.9464 10.9101 32.0089 10.8357C32.0717 10.7641 32.1197 10.6804 32.1499 10.5896C32.1802 10.4988 32.1921 10.4027 32.185 10.3071L32.0512 8.45714L32.1146 8.37857L41.8451 18.0929L34.0438 26.85Z" fill="#028577"/>
<path d="M14.3222 21.3999C14.5338 21.3999 14.7408 21.3363 14.9168 21.217C15.0928 21.0977 15.2299 20.9281 15.3109 20.7297C15.3919 20.5313 15.4131 20.313 15.3718 20.1024C15.3305 19.8918 15.2286 19.6984 15.0789 19.5465C14.9293 19.3947 14.7386 19.2913 14.531 19.2494C14.3234 19.2075 14.1082 19.229 13.9126 19.3112C13.7171 19.3933 13.5499 19.5325 13.4323 19.711C13.3147 19.8896 13.252 20.0995 13.252 20.3142C13.252 20.6022 13.3647 20.8783 13.5654 21.0819C13.7661 21.2856 14.0383 21.3999 14.3222 21.3999V21.3999Z" fill="#028577"/>
<path d="M18.5822 18.5073C18.7942 18.5088 19.0018 18.4463 19.1787 18.3279C19.3556 18.2094 19.4939 18.0403 19.576 17.8421C19.6581 17.6438 19.6803 17.4253 19.6398 17.2142C19.5993 17.0032 19.4979 16.809 19.3485 16.6565C19.1991 16.5039 19.0084 16.3998 18.8007 16.3573C18.5929 16.3149 18.3773 16.3359 18.1814 16.4179C17.9854 16.4999 17.8178 16.639 17.6999 16.8177C17.582 16.9964 17.519 17.2066 17.519 17.4216C17.519 17.7083 17.6308 17.9834 17.83 18.1868C18.0292 18.3902 18.2996 18.5055 18.5822 18.5073V18.5073Z" fill="#028577"/>
<path d="M18.5822 24.286C18.7925 24.286 18.9981 24.2228 19.1729 24.1043C19.3477 23.9858 19.484 23.8173 19.5645 23.6202C19.6449 23.4231 19.666 23.2063 19.625 22.9971C19.584 22.7878 19.4827 22.5957 19.334 22.4448C19.1853 22.294 18.9959 22.1912 18.7896 22.1496C18.5834 22.108 18.3696 22.1294 18.1754 22.211C17.9811 22.2926 17.815 22.4309 17.6982 22.6083C17.5814 22.7856 17.519 22.9942 17.519 23.2075C17.519 23.4935 17.6311 23.7679 17.8304 23.9701C18.0298 24.1724 18.3003 24.286 18.5822 24.286V24.286Z" fill="#028577"/>
<path d="M14.3222 15.6143C14.5342 15.6143 14.7414 15.5504 14.9175 15.4308C15.0937 15.3112 15.2308 15.1412 15.3116 14.9424C15.3924 14.7436 15.4132 14.5249 15.3713 14.3141C15.3294 14.1033 15.2268 13.9099 15.0764 13.7583C14.9261 13.6068 14.7347 13.504 14.5266 13.4629C14.3186 13.4218 14.1032 13.4443 13.9077 13.5276C13.7123 13.6109 13.5457 13.7511 13.4289 13.9306C13.3122 14.1101 13.2506 14.3207 13.252 14.5357C13.2538 14.8224 13.3674 15.0968 13.5679 15.2988C13.7684 15.5009 14.0396 15.6143 14.3222 15.6143V15.6143Z" fill="#028577"/>
<path d="M18.5822 12.7216C19.1694 12.7216 19.6454 12.2387 19.6454 11.643C19.6454 11.0473 19.1694 10.5645 18.5822 10.5645C17.995 10.5645 17.519 11.0473 17.519 11.643C17.519 12.2387 17.995 12.7216 18.5822 12.7216Z" fill="#028577"/>
</svg>
