<svg width="48" height="48" viewBox="0 0 48 48" fill="none" xmlns="http://www.w3.org/2000/svg">
<path d="M45.9598 26.0096C45.9634 25.9672 45.9634 25.9246 45.9598 25.8821L45.8323 20.8646C45.8323 20.6657 45.7533 20.475 45.6126 20.3343C45.472 20.1937 45.2812 20.1146 45.0823 20.1146H42.9073C42.7498 20.0546 42.3673 19.8596 42.0598 19.7021C40.5973 18.9521 39.2023 18.2621 38.2048 18.2621H38.1073C37.4829 17.3534 36.6739 16.5864 35.7331 16.0114C34.7923 15.4363 33.7408 15.066 32.6473 14.9246V9.19465C36.5398 8.76715 37.4398 7.69465 37.7998 3.41965C37.8089 3.30923 37.7935 3.19815 37.7546 3.09441C37.7157 2.99067 37.6543 2.89683 37.5748 2.81965C37.4948 2.74315 37.3988 2.68532 37.2937 2.6503C37.1887 2.61529 37.0772 2.60397 36.9673 2.61715H36.7048C32.7448 3.07465 31.7998 3.77965 31.2973 7.29715C30.5398 6.51715 29.2498 6.19465 27.1198 5.94715H26.8648C26.755 5.93467 26.6439 5.9466 26.5392 5.98208C26.4346 6.01756 26.3391 6.07571 26.2596 6.15238C26.1801 6.22905 26.1184 6.32235 26.0791 6.4256C26.0399 6.52884 26.0239 6.6395 26.0323 6.74965C26.3848 10.9871 27.2923 12.0896 31.1773 12.5171V14.9022C29.4083 15.0143 27.7295 15.7227 26.415 16.9119C25.1006 18.101 24.228 19.7007 23.9398 21.4496L23.6923 21.3671L22.4998 20.9246C20.5573 20.2571 19.3498 19.8446 19.0048 19.7471C18.6305 19.6753 18.2429 19.7383 17.9106 19.925C17.5784 20.1117 17.323 20.4101 17.1898 20.7671C17.0357 21.0762 16.9797 21.425 17.0293 21.7668C17.0789 22.1086 17.2317 22.4271 17.4673 22.6796C17.5343 22.7642 17.6187 22.8332 17.7148 22.8821L29.1748 28.7921C29.8574 29.1414 30.613 29.3238 31.3798 29.3246C31.865 29.3253 32.3477 29.2546 32.8123 29.1146L40.8523 26.6321H45.2548C45.3046 26.639 45.355 26.639 45.4048 26.6321C45.4495 26.6392 45.4951 26.6392 45.5398 26.6321C45.5842 26.6117 45.6248 26.5838 45.6598 26.5497C45.7006 26.507 45.7313 26.4557 45.7498 26.3997C45.7814 26.3654 45.8091 26.3276 45.8323 26.2871C45.86 26.2489 45.885 26.2088 45.9073 26.1671C45.9322 26.1174 45.9499 26.0644 45.9598 26.0096V26.0096ZM36.2098 4.21465C35.9173 6.85465 35.3848 7.38715 32.7448 7.67965C33.1348 4.92715 33.4948 4.56715 36.2473 4.21465H36.2098ZM27.6148 7.49965C30.3673 7.85215 30.7273 8.24965 31.0723 10.9646C28.4323 10.6871 27.9073 10.1621 27.6148 7.49965ZM31.6723 16.3422C32.5949 16.3424 33.5063 16.5438 34.3431 16.9324C35.1799 17.321 35.9219 17.8874 36.5173 18.5922C35.2172 19.044 33.9449 19.5724 32.7073 20.1746L32.5873 20.2271H27.9598C27.4537 20.2884 26.9729 20.4832 26.567 20.7916C26.161 21.1 25.8444 21.5109 25.6498 21.9821L25.3873 21.8921C25.581 20.3623 26.3264 18.9558 27.4836 17.9367C28.6408 16.9176 30.1303 16.3559 31.6723 16.3571V16.3422ZM40.8298 25.1172H40.7173H40.5748H40.4623L32.3698 27.6746C31.5363 27.9352 30.6337 27.857 29.8573 27.4571L18.5323 21.6296C18.5038 21.5842 18.4859 21.5329 18.4798 21.4796C18.4784 21.4597 18.4784 21.4396 18.4798 21.4196V21.4196C18.5212 21.3504 18.5689 21.2851 18.6223 21.2246C19.0723 21.3596 20.4748 21.8396 21.9523 22.3496L23.1748 22.7696L25.8598 23.6846L27.2923 24.1647L27.4723 24.2172C27.5911 24.2545 27.7153 24.2722 27.8398 24.2696H34.0048C34.2037 24.2696 34.3945 24.1906 34.5351 24.05C34.6758 23.9093 34.7548 23.7186 34.7548 23.5196C34.7548 23.3207 34.6758 23.13 34.5351 22.9893C34.3945 22.8487 34.2037 22.7696 34.0048 22.7696H27.8998H27.8098L27.0598 22.5297C27.1606 22.3316 27.3069 22.1603 27.4869 22.0299C27.6668 21.8995 27.8752 21.8137 28.0948 21.7797H32.7373C32.8434 21.7792 32.9482 21.7562 33.0448 21.7122L33.3223 21.5847C36.5023 20.0847 37.7398 19.7921 38.2198 19.7921C38.9698 19.7921 40.5298 20.6171 41.3848 21.0596C41.8175 21.3502 42.3049 21.5493 42.8173 21.6446H44.3698L44.4523 25.1697L40.8298 25.1172Z" fill="#028577"/>
<path d="M42.3224 43.8898H24.5549C25.4318 40.2327 25.0157 36.3849 23.3774 32.9998L23.3399 32.9173C23.2967 32.8285 23.2364 32.7491 23.1625 32.6837C23.0885 32.6183 23.0024 32.5682 22.909 32.5361C22.8156 32.504 22.7169 32.4907 22.6183 32.497C22.5198 32.5032 22.4235 32.5288 22.3349 32.5723L19.9724 33.7498L18.8024 31.3348C18.7592 31.246 18.6989 31.1666 18.625 31.1012C18.551 31.0358 18.4649 30.9857 18.3715 30.9536C18.2781 30.9215 18.1794 30.9082 18.0808 30.9145C17.9823 30.9207 17.886 30.9463 17.7974 30.9898L17.6249 31.0723L10.8224 17.0473L12.9599 16.0123C13.0487 15.971 13.1278 15.9116 13.1924 15.838C13.257 15.7644 13.3055 15.6782 13.3349 15.5848C13.4099 15.4022 13.4099 15.1974 13.3349 15.0148L11.9174 12.0898C11.8742 12.001 11.8139 11.9216 11.74 11.8562C11.666 11.7908 11.5799 11.7407 11.4865 11.7086C11.3931 11.6765 11.2944 11.6632 11.1958 11.6695C11.0973 11.6757 11.001 11.7013 10.9124 11.7448L2.24989 15.8848C2.07077 15.971 1.9332 16.1247 1.86739 16.3123C1.80421 16.4998 1.81769 16.7047 1.90489 16.8823L3.32238 19.8073C3.38423 19.9335 3.48031 20.0398 3.59966 20.1141C3.71901 20.1883 3.85682 20.2276 3.99738 20.2273C4.11166 20.2277 4.22454 20.2021 4.32739 20.1523L6.46489 19.1173L13.2749 33.1348L13.1024 33.2173C13.013 33.2598 12.9329 33.3196 12.8667 33.3932C12.8005 33.4669 12.7495 33.5529 12.7168 33.6463C12.684 33.7398 12.6701 33.8388 12.6757 33.9376C12.6814 34.0365 12.7066 34.1332 12.7499 34.2223L13.9274 36.6373L11.5649 37.7848C11.3928 37.8773 11.2636 38.0332 11.2048 38.2195C11.146 38.4058 11.1621 38.6077 11.2499 38.7823L11.3624 39.0148C12.2559 40.8551 13.4902 42.5093 14.9999 43.8898H6.35239C6.15347 43.8898 5.96271 43.9688 5.82206 44.1094C5.6814 44.2501 5.60239 44.4409 5.60239 44.6398C5.60239 44.8387 5.6814 45.0294 5.82206 45.1701C5.96271 45.3108 6.15347 45.3898 6.35239 45.3898H42.3524C42.5513 45.3898 42.7421 45.3108 42.8827 45.1701C43.0234 45.0294 43.1024 44.8387 43.1024 44.6398C43.1024 44.4409 43.0234 44.2501 42.8827 44.1094C42.7421 43.9688 42.5513 43.8898 42.3524 43.8898H42.3224ZM3.61489 16.8898L10.8674 13.3648L11.6174 14.9398L9.47989 15.9748L6.47989 17.4223L4.37238 18.4723L3.61489 16.8898ZM9.47238 17.6398L16.2749 31.6798L14.6474 32.4298L7.84488 18.4573L9.47238 17.6398ZM18.6224 34.3348L15.3074 35.9998L14.4599 34.2598L17.7824 32.6473L18.6224 34.3348ZM14.8724 41.6323L18.5624 39.8473C18.6512 39.8041 18.7305 39.7438 18.7959 39.6698C18.8613 39.5959 18.9115 39.5098 18.9436 39.4164C18.9756 39.323 18.9889 39.2243 18.9827 39.1257C18.9765 39.0272 18.9509 38.9309 18.9074 38.8423C18.8201 38.6649 18.6664 38.5292 18.4796 38.4646C18.2928 38.4 18.0881 38.4117 17.9099 38.4973L13.9274 40.4248C13.5508 39.8967 13.2076 39.3457 12.8999 38.7748L22.2749 34.2223C23.5984 37.2598 23.8626 40.6541 23.0249 43.8598H17.3474C16.4543 43.2191 15.6344 42.4821 14.9024 41.6623L14.8724 41.6323Z" fill="#028577"/>
</svg>
