<svg width="16" height="16" viewBox="0 0 16 16" fill="none" xmlns="http://www.w3.org/2000/svg">
<circle cx="8" cy="8" r="7" fill="#D02620"/>
<path d="M11.3545 12.4164V12.3481C11.3545 11.3132 10.7833 10.6884 9.4751 10.4199" stroke="white" stroke-linecap="round" stroke-linejoin="round"/>
<path d="M6.57562 10.3955C5.27716 10.6689 4.70605 11.2888 4.70605 12.3237V12.4018" stroke="white" stroke-linecap="round" stroke-linejoin="round"/>
<path d="M9.29465 9.8291V10.8347C9.29465 11.0005 9.26196 11.1646 9.19836 11.3178C9.13476 11.4709 9.04154 11.6099 8.92408 11.7269C8.80661 11.8439 8.66718 11.9366 8.51382 11.9996C8.36046 12.0626 8.19618 12.0947 8.03038 12.0941V12.0941C7.86459 12.0947 7.70031 12.0626 7.54695 11.9996C7.39359 11.9366 7.25415 11.8439 7.13669 11.7269C7.01922 11.6099 6.926 11.4709 6.86241 11.3178C6.79881 11.1646 6.76611 11.0005 6.76611 10.8347V9.8291" stroke="white" stroke-linecap="round" stroke-linejoin="round"/>
<path d="M4.78906 5.85547H11.2813" stroke="white" stroke-linecap="round" stroke-linejoin="round"/>
<path d="M9.91982 5.4944H6.15625L6.64439 3H9.4268L9.91982 5.4944Z" stroke="white" stroke-linecap="round" stroke-linejoin="round"/>
<path d="M6.15566 5.85059C5.8608 6.24897 5.70164 6.73151 5.70166 7.22714C5.70166 7.84642 5.94733 8.44042 6.38477 8.87877C6.82221 9.31713 7.41571 9.56405 8.03499 9.56534C8.65512 9.56534 9.24987 9.319 9.68837 8.8805C10.1269 8.44201 10.3732 7.84727 10.3732 7.22714C10.3715 6.73101 10.2106 6.24853 9.91432 5.85059" stroke="white" stroke-linecap="round" stroke-linejoin="round"/>
</svg>
