<svg width="16" height="23" viewBox="0 0 16 23" fill="none" xmlns="http://www.w3.org/2000/svg">
<path d="M1.07773 6.42345L1.07771 6.42352C0.675712 8.17149 0.96098 10.0417 1.87993 11.7006L1.87999 11.7007L7.50794 21.834C7.50798 21.8341 7.50802 21.8342 7.50806 21.8342C7.61022 22.0203 7.81772 22.1161 8.00784 22.0978H8.00787H8.00797H8.00806H8.00816H8.00826H8.00835H8.00845H8.00854H8.00864H8.00874H8.00883H8.00893H8.00903H8.00912H8.00922H8.00931H8.00941H8.00951H8.0096H8.0097H8.0098H8.00989H8.00999H8.01008H8.01018H8.01027H8.01037H8.01047H8.01056H8.01066H8.01075H8.01085H8.01095H8.01104H8.01114H8.01123H8.01133H8.01143H8.01152H8.01162H8.01171H8.01181H8.0119H8.012H8.01209H8.01219H8.01229H8.01238H8.01248H8.01257H8.01267H8.01276H8.01286H8.01295H8.01305H8.01314H8.01324H8.01333H8.01343H8.01353H8.01362H8.01372H8.01381H8.01391H8.014H8.0141H8.01419H8.01429H8.01438H8.01448H8.01457H8.01466H8.01476H8.01485H8.01495H8.01504H8.01514H8.01523H8.01533H8.01542H8.01552H8.01561H8.01571H8.0158H8.01589H8.01599H8.01608H8.01618H8.01627H8.01637H8.01646H8.01655H8.01665H8.01674H8.01684H8.01693H8.01702H8.01712H8.01721H8.01731H8.0174H8.01749H8.01759H8.01768H8.01778H8.01787H8.01796H8.01806H8.01815H8.01824H8.01834H8.01843H8.01852H8.01862H8.01871H8.0188H8.0189H8.01899H8.01908H8.01918H8.01927H8.01936H8.01946H8.01955H8.01964H8.01973H8.01983H8.01992H8.02001H8.0201H8.0202H8.02029H8.02038H8.02047H8.02057H8.02066H8.02075H8.02084H8.02094H8.02103H8.02112H8.02121H8.02131H8.0214H8.02149H8.02158H8.02167H8.02176H8.02186H8.02195H8.02204H8.02213H8.02222H8.02231H8.02241H8.0225H8.02259H8.02268H8.02277H8.02286H8.02295H8.02305H8.02314H8.02323H8.02332H8.02341H8.0235H8.02359H8.02368H8.02377H8.02386H8.02395H8.02404H8.02413H8.02422H8.02431H8.02441H8.0245H8.02459H8.02468H8.02477H8.02486H8.02495H8.02504H8.02513H8.02522H8.0253H8.02539H8.02548H8.02557H8.02566H8.02575H8.02584H8.02593H8.02602H8.02611H8.0262H8.02629H8.02638H8.02647H8.02655H8.02664H8.02673H8.02682H8.02691H8.027H8.02709H8.02717H8.02726H8.02735H8.02744H8.02753H8.02762H8.0277H8.02779H8.02788H8.02797H8.02806H8.02814H8.02823H8.02832H8.02841H8.02849H8.02858H8.02867H8.02876H8.02884H8.02893H8.02902H8.0291H8.02919H8.02928H8.02936H8.02945H8.02954H8.02962H8.02971H8.0298H8.02988H8.02997H8.03006H8.03014H8.03023H8.03031H8.0304H8.03049H8.03057H8.03066H8.03074H8.03083H8.03091H8.031H8.03108H8.03117H8.03125H8.03134H8.03142H8.03151H8.03159H8.03168H8.03176H8.03185H8.03193H8.03202H8.0321H8.03219H8.03227H8.03235H8.03244H8.03252H8.03261H8.03269H8.03277H8.03286H8.03294H8.03302H8.03311H8.03319H8.03327H8.03336H8.03344H8.03352H8.03361H8.03369H8.03377H8.03386H8.03394H8.03402H8.0341H8.03419H8.03427H8.03435H8.03443H8.03451H8.0346H8.03468H8.03476H8.03484H8.03492H8.035H8.03509H8.03517H8.03525H8.03533H8.03541H8.03549H8.03557H8.03565H8.03573H8.03581H8.0359H8.03598H8.03606H8.03614H8.03622H8.0363H8.03638H8.03646H8.03654H8.03662H8.0367H8.03678H8.03685H8.03693H8.03701H8.03709H8.03717H8.03725H8.03733H8.03741H8.03749H8.03757H8.03764H8.03772H8.0378H8.03788H8.03796H8.03804H8.03811H8.03819H8.03827H8.03835H8.03842H8.0385H8.03858H8.03866H8.03873H8.03881H8.03889H8.03896H8.03904H8.03912H8.03919H8.03927H8.03935H8.03942H8.0395H8.03958H8.03965H8.03973H8.0398H8.03988H8.03996H8.04003H8.04011H8.04018H8.04026H8.04033H8.04041H8.04048H8.04056H8.04063H8.04071H8.04078H8.04085H8.04093H8.041H8.04108H8.04115H8.04122H8.0413H8.04137H8.04144H8.04152H8.04159H8.04166H8.04174H8.04181H8.04188H8.04196H8.04203H8.0421H8.04217H8.04225H8.04232H8.04239H8.04246H8.04253H8.04261H8.04268H8.04275H8.04282H8.04289H8.04296H8.04303H8.04311H8.04318H8.04325H8.04332H8.04339H8.04346H8.04353H8.0436H8.04367H8.04374H8.04381H8.04388H8.04395H8.04402H8.04409H8.04416H8.04423H8.04429H8.04436H8.04443H8.0445H8.04457H8.04464H8.04471H8.04477H8.04484H8.04491H8.04498H8.04505H8.04511H8.04518H8.04525H8.04532H8.04538H8.04545H8.04552H8.04558H8.04565H8.04572H8.04578H8.04585H8.04592H8.04598H8.04605H8.04611H8.04618H8.04624H8.04631H8.04637H8.04644H8.0465H8.04657H8.04663H8.0467H8.04676C8.22406 22.0978 8.40203 22.0017 8.49217 21.8338C8.4923 21.8336 8.49243 21.8333 8.49256 21.8331L14.12 11.7007L14.1201 11.7006C15.039 10.0417 15.3243 8.16594 14.9223 6.4235C14.6338 5.16988 14.0731 3.78858 13.0022 2.71991C11.9288 1.64872 10.3511 0.9 8.04676 0.9H7.95324C5.64611 0.9 4.06839 1.65013 2.99569 2.72204C1.92553 3.79142 1.36624 5.17271 1.07773 6.42345ZM13.2243 11.1914L7.99725 20.6045L2.77005 11.1911L2.77003 11.1911C1.97252 9.75646 1.72965 8.14841 2.07037 6.65784C2.32103 5.57306 2.80292 4.3931 3.71263 3.48507C4.61984 2.57954 5.96076 1.93612 7.94773 1.93612H8.04126C10.0282 1.93612 11.3691 2.58089 12.2763 3.48714C13.1861 4.39592 13.668 5.57598 13.9187 6.65802L13.9187 6.65807C14.2647 8.14825 14.0166 9.75633 13.2243 11.1914Z" fill="#9FAABE" stroke="#9FAABE" stroke-width="0.2"/>
<path d="M8.04664 4.23887C5.94356 4.23887 4.23301 5.97384 4.23301 8.10141C4.23301 10.229 5.94356 11.964 8.04664 11.964C10.1497 11.964 11.8603 10.229 11.8603 8.10141C11.8603 5.97394 10.1553 4.23887 8.04664 4.23887ZM8.04664 10.9334C6.50773 10.9334 5.25826 9.66404 5.25826 8.10698C5.25826 6.55005 6.51311 5.28056 8.04664 5.28056C9.58017 5.28056 10.835 6.55005 10.835 8.10698C10.835 9.66404 9.58555 10.9334 8.04664 10.9334Z" fill="#9FAABE" stroke="#9FAABE" stroke-width="0.2"/>
</svg>
