<svg id="Layer_1" data-name="Layer 1" xmlns="http://www.w3.org/2000/svg" viewBox="0 0 676.3 416.14"><defs><style>.cls-1{fill:#def2e7;}.cls-2{fill:#4e4e4f;}.cls-3{fill:#f9d568;}.cls-4{fill:#f7cd57;}.cls-5{fill:#fff;}.cls-6{fill:#92bdb6;}.cls-7{fill:#eaf5ed;}.cls-8{fill:#3d3d3d;}.cls-9{fill:#58a99f;}</style></defs><path class="cls-1" d="M393.58,13.61c-76.19,5.08-147.69,11.05-226,67.31S52,156.27,38.93,170.34s-51.24,67.31-4,144.67,85.4,76.36,118.55,66.31,294.37-37.17,373.74-34.16,102.48-51.24,110.51-68.32,56.27-90.42-1-155.72S484,7.58,393.58,13.61Z"/><path class="cls-1" d="M157.7,401.86C180,396.06,204.14,388,236.29,388s71-12.95,82.16-13.84,155.39-21.44,213-10.27-22.77,20.54-28.57,21-194.24,9.83-211.66,10.72S170.21,406.33,157.7,401.86Z"/><path class="cls-2" d="M173,239.33c5.38-8.57,5.35-16.08-1.34-18.76s-12.28-8.7-10.94-15.4,2.23-12.06-1.57-15.41-11.61-7.81-5.35-18.08,11.16-15.18,5.35-32.15-26.56-22.77-35.94-23-26.35,5.58-30.14,11.39-13.62,15-10.27,31.48,9.38,21.43,3.79,28.8S64.27,209,61.14,211s-5.36,6.7.45,9.6,14.51,4,14.73,9.6-38.17,19.2-41.75,21.21-8.93,8.49-.66,13.62H93.29C138.39,254.73,168.08,247.14,173,239.33Z"/><path class="cls-3" d="M117.85,200.26c1.22,9.78,3.57,12.05.89,18.53s-6.47,8.93-26.34,15.85S57.79,262.1,57.57,267s22.1,42.2,67.2,39.3,72.79-37.07,73.68-47.56-30.59-23.67-40-24.11-25.22-6.48-25.67-14.51-.45-20.32-.45-20.32S117.63,198.47,117.85,200.26Z"/><path class="cls-4" d="M118.39,219.59a86.91,86.91,0,0,1,14.15-6.39c-.11-4.38-.16-8.73-.17-11.23l-6.87,2.36L118,201c1.24,9.19,3.41,11.52.79,17.84C118.63,219.06,118.51,219.33,118.39,219.59Z"/><path class="cls-3" d="M99.77,175.47c0,3.58,11.83,34.16,26.34,34.61s23.89-31.48,24.56-40,3.13-29.25-12.5-37.51c-7.15,9.6-17,21.34-32.37,29-5.36,2.68-1.57,1.79-1.57,4.69A11.91,11.91,0,0,1,99.77,175.47Z"/><path class="cls-5" d="M188.17,246.31c6.15,4,10.62,8.4,10.28,12.44-.89,10.49-28.58,44.65-73.68,47.56S57.35,271.92,57.57,267c.15-3.25,6.65-13.34,16.79-21.8C72.63,244.48,190.48,245.75,188.17,246.31Z"/><path class="cls-5" d="M122.82,189.09a49.74,49.74,0,0,0,10.05-.16C131.86,195,124.49,194.79,122.82,189.09Z"/><path class="cls-6" d="M167.84,236.8a39.61,39.61,0,0,0-9.36-2.16l-.62,0c1.29,12.82,4.81,45.08,4.81,47.59-4.52,2.68-54.08,5.53-68.15,1.68-.14-4-.49-37.47-.62-49.76l-1.5.53a50.59,50.59,0,0,0-8.2,3.74l-.82,57.9a69.35,69.35,0,0,0,41.39,10,94.74,94.74,0,0,0,49-17.59C171.69,278.84,168.88,260.29,167.84,236.8Z"/><path class="cls-7" d="M322.25,201.32c.65,9.42.67,26.29.67,29s25.11,8.54,27.63,5.87,1-1.34,1-7,1-27.12.17-29.8S321.91,196.46,322.25,201.32Z"/><path class="cls-5" d="M325.79,225.08c8.74,4.34,11.25,15.62,11.53,20.94,1.25-12.29,7.41-17.23,14.27-19.6.06-2.95.2-7.14.31-11.36A45.29,45.29,0,0,0,325.79,225.08Z"/><path class="cls-7" d="M322.25,201.32c.65,9.42.67,26.29.67,29s25.11,8.54,27.63,5.87,1-1.34,1-7,1-27.12.17-29.8S321.91,196.46,322.25,201.32Z"/><path class="cls-4" d="M325.93,119.44c-8,4.35-18.75,9.71-19.09,25.78s1.68,47.22,9.38,54.25,16.07,13.74,29.8,9.72,16.08-21.1,16.75-25.46,6-38.84,1-48.55c-6.23-12.05-12.72-15.74-18.42-15.74,2.52-1.85,6.2-2,8.71-2-2.34-1.85-5.19-3-4.69-6.2.67-3.18,4.52-10.21,1.51-13.23-5.12-5.12-11.39-6.7-18.08,2.35-1-2.35-1.51-3.35-1-5-6,2-9.17,5.22-9.88,14.74C321.58,114.58,326.1,115.08,325.93,119.44Z"/><path class="cls-5" d="M336.48,152.09c5.86,0,13.06-3.69,17.25-5.19s9.37-.34,9.54,4.69-1,23.77-2,25.78A12.59,12.59,0,0,1,348,183.73c-8-1.17-17.58-1-20.26,0s-14.57,1.18-16.07-7.36,0-22.11.5-26.12,7-5.36,11.39-2.52S331,152.09,336.48,152.09Z"/><path class="cls-5" d="M330.62,191.44c3.52.5,12.89.33,14.23-.51C343.68,194.28,336.48,198.8,330.62,191.44Z"/><path class="cls-2" d="M337.32,246c-.34-6.36-3.85-21.26-17.42-22.6-1.84,7.87-7.2,11.72-17.41,12.89s-32.65,7.71-38.85,22.78c15.57,34,31,45.88,63.63,47.22s63.46-7,88.41-45.72c-4.85-10.88-5.23-17.35-42.36-23.11-21.6-3.34-16.24-9-17.58-12.22C347.36,227.1,338.82,231.29,337.32,246Z"/><path class="cls-6" d="M384.14,239.39c-3.21-.64-6.78-1.28-10.81-1.9l3.84,53.41c-12.73,3.35-55.59,4.86-72.84,1.51L304,236.1c-.51.08-1,.15-1.55.21a64.15,64.15,0,0,0-10.2,2.14l-5.93,54.32c10.39,8.91,23.07,12.8,40.91,13.54,23.33.95,45.72-3.06,65.7-19.53C390.24,274.48,385.67,251.66,384.14,239.39Z"/><path class="cls-2" d="M549.47,207.51c.17,8.71,1.34,21.1-2.18,24s-12,5.52-18.25,6.36-21.93-2-45.88,25.62c13.4,19.42,28.64,39.85,63.13,42.2s45.21-1,54.59-6.37S625,284.2,630,254.06c-8.37-5.69-15.4-11.72-40.52-15.07s-22.44-9.71-23.44-16.07-.34-19.43-.34-19.43Z"/><path class="cls-6" d="M597.92,240.33l-.81-.14c-1,35.49-9.76,53.43-36.76,54.39-28.13,1-34.15-23.1-39.18-50.9l2.23,57a75,75,0,0,0,22.89,5c34.49,2.34,45.21-1,54.59-6.37,1.72-1,3.63-2.12,5.63-3.5Z"/><path class="cls-5" d="M614.48,288.94c-2.68-6.79-5.58-18.83-8.86-46.88-3.27-.87-7-1.66-11.39-2.37,1.44,16.26,4.48,51.52,4,52.55-5,3-55.93,6.36-72.34,2.34-.55-10.65-1.32-38.93-1.58-56.43a40.38,40.38,0,0,0-11.52,2.43l-5,51.09c9.65,7.45,21.83,12.83,38.53,14,34.49,2.34,45.21-1,54.59-6.37A55.83,55.83,0,0,0,614.48,288.94Z"/><path class="cls-8" d="M565.71,203.49l-16.24,4c.11,5.92.69,13.52-.06,18.69,8.41-6.23,12.4-7.07,16.31-6.31A163.68,163.68,0,0,1,565.71,203.49Z"/><path class="cls-6" d="M544.61,123.79c16.18,4.35,67.65,23.78,79.71,42.2s3.35,24.11-8.37,24.44S552.32,189.09,510.12,167s-20.43-33.82-9.71-38.51S535.91,121.44,544.61,123.79Z"/><path class="cls-2" d="M530.21,167.66c-.22,8.26,8.49,36.17,17.87,42.87s14.51,6,20.31-1.57S584,188.2,586.7,168.78,584,142.65,570,144.66,530.44,159.4,530.21,167.66Z"/><path class="cls-5" d="M550.75,192.22c2.46.67,9.83.67,11.84.22C561.47,200,554.1,201.37,550.75,192.22Z"/><path class="cls-6" d="M522.93,138.94c8.21-14.82,23.36-31.56,27-33.57S562,99,575.42,107s22.11,21.1,22.44,29.14-11,23.28-11,23.28C567.8,147.66,552.82,143.05,522.93,138.94Z"/><path class="cls-9" d="M580.83,110.73c-4.16.21-6.79,2.16-6.05,6,1.31,6.78,8,13.73,19.09,13.73.92,0,1.81,0,2.66-.09C594.11,124.13,588.55,116.69,580.83,110.73Z"/><path class="cls-3" d="M527.31,167.44c.7,3.5.9,7.36,8.49,6,9.14-1.61,11.83-6.25,15.62-10.27s5.81-5.35,10.05-6.25,12.28-1.78,15-3.57c-8.71-4.46-15.63-7.59-24.78-8.71-8-1-23.22-3.12-23.89,3.8S526.42,163,527.31,167.44Z"/><path class="cls-3" d="M577.94,154.6c-.38,5.22,5,16.07,9.37,17.75s2-8.21,2.18-10.38S578.1,152.25,577.94,154.6Z"/></svg>