<svg width="24" height="24" viewBox="0 0 24 24" fill="none" xmlns="http://www.w3.org/2000/svg">
<path d="M22.4899 10.4899H13.5101V1.51007C13.5101 0.674497 12.8356 0 12 0C11.1644 0 10.4899 0.674497 10.4899 1.51007V10.4899H1.51007C0.674497 10.4899 0 11.1644 0 12C0 12.8356 0.674497 13.5101 1.51007 13.5101H10.4899V22.4899C10.4899 23.3255 11.1644 24 12 24C12.8356 24 13.5101 23.3255 13.5101 22.4899V13.5101H22.4899C23.3255 13.5101 24 12.8356 24 12C24 11.1644 23.3154 10.4899 22.4899 10.4899Z" fill="#66738A"/>
</svg>
