<svg width="24" height="25" viewBox="0 0 24 25" fill="none" xmlns="http://www.w3.org/2000/svg">
<g id="Add-skew">
<path id="Icon" d="M19.7141 7.35488L18.2856 17.3549M6.14286 7.35498L4.35714 17.355M18 5.35498L8 5.35498M16 19.355L6 19.355M5.6 7.35498H6.4C6.96005 7.35498 7.24008 7.35498 7.45399 7.24599C7.64215 7.15011 7.79513 6.99713 7.89101 6.80897C8 6.59506 8 6.31503 8 5.75498V4.95498C8 4.39493 8 4.1149 7.89101 3.90099C7.79513 3.71283 7.64215 3.55985 7.45399 3.46397C7.24008 3.35498 6.96005 3.35498 6.4 3.35498H5.6C5.03995 3.35498 4.75992 3.35498 4.54601 3.46397C4.35785 3.55985 4.20487 3.71283 4.10899 3.90099C4 4.1149 4 4.39493 4 4.95498V5.75498C4 6.31503 4 6.59506 4.10899 6.80897C4.20487 6.99713 4.35785 7.15011 4.54601 7.24599C4.75992 7.35498 5.03995 7.35498 5.6 7.35498ZM3.6 21.355H4.4C4.96005 21.355 5.24008 21.355 5.45399 21.246C5.64215 21.1501 5.79513 20.9971 5.89101 20.809C6 20.5951 6 20.315 6 19.755V18.955C6 18.3949 6 18.1149 5.89101 17.901C5.79513 17.7128 5.64215 17.5598 5.45399 17.464C5.24008 17.355 4.96005 17.355 4.4 17.355H3.6C3.03995 17.355 2.75992 17.355 2.54601 17.464C2.35785 17.5598 2.20487 17.7128 2.10899 17.901C2 18.1149 2 18.3949 2 18.955V19.755C2 20.315 2 20.5951 2.10899 20.809C2.20487 20.9971 2.35785 21.1501 2.54601 21.246C2.75992 21.355 3.03995 21.355 3.6 21.355ZM19.6 7.35498H20.4C20.9601 7.35498 21.2401 7.35498 21.454 7.24599C21.6422 7.15011 21.7951 6.99713 21.891 6.80897C22 6.59506 22 6.31503 22 5.75498V4.95498C22 4.39493 22 4.1149 21.891 3.90099C21.7951 3.71283 21.6422 3.55985 21.454 3.46397C21.2401 3.35498 20.9601 3.35498 20.4 3.35498H19.6C19.0399 3.35498 18.7599 3.35498 18.546 3.46397C18.3578 3.55985 18.2049 3.71283 18.109 3.90099C18 4.1149 18 4.39493 18 4.95498V5.75498C18 6.31503 18 6.59506 18.109 6.80897C18.2049 6.99713 18.3578 7.15011 18.546 7.24599C18.7599 7.35498 19.0399 7.35498 19.6 7.35498ZM17.6 21.355H18.4C18.9601 21.355 19.2401 21.355 19.454 21.246C19.6422 21.1501 19.7951 20.9971 19.891 20.809C20 20.5951 20 20.315 20 19.755V18.955C20 18.3949 20 18.1149 19.891 17.901C19.7951 17.7128 19.6422 17.5598 19.454 17.464C19.2401 17.355 18.9601 17.355 18.4 17.355H17.6C17.0399 17.355 16.7599 17.355 16.546 17.464C16.3578 17.5598 16.2049 17.7128 16.109 17.901C16 18.1149 16 18.3949 16 18.955V19.755C16 20.315 16 20.5951 16.109 20.809C16.2049 20.9971 16.3578 21.1501 16.546 21.246C16.7599 21.355 17.0399 21.355 17.6 21.355Z" stroke="#5D697E" stroke-width="2" stroke-linecap="round" stroke-linejoin="round"/>
<path id="Union" fill-rule="evenodd" clip-rule="evenodd" d="M11.0512 15.3726C11.0512 15.9248 11.4989 16.3726 12.0512 16.3726C12.6035 16.3726 13.0512 15.9248 13.0512 15.3726V13.2658H14.9824C15.5347 13.2658 15.9824 12.8181 15.9824 12.2658C15.9824 11.7136 15.5347 11.2658 14.9824 11.2658H13.0512V9.37256C13.0512 8.82027 12.6035 8.37256 12.0512 8.37256C11.4989 8.37256 11.0512 8.82027 11.0512 9.37256V11.2658H8.98242C8.43014 11.2658 7.98242 11.7136 7.98242 12.2658C7.98242 12.8181 8.43014 13.2658 8.98242 13.2658H11.0512V15.3726Z" fill="#5D697E"/>
</g>
</svg>
