<svg width="32" height="32" viewBox="0 0 32 32" fill="none" xmlns="http://www.w3.org/2000/svg">
<path d="M5.51007 25.3057L26.4899 25.3057C27.3255 25.3057 28 24.6312 28 23.7956C28 22.96 27.3255 22.2855 26.4899 22.2855L5.51007 22.2855C4.6745 22.2855 4 22.96 4 23.7956C4 24.6312 4.68456 25.3057 5.51007 25.3057Z" fill="current"/>
<path d="M6.31527 13.2152L14.9831 19.6179C14.9931 19.6179 14.9931 19.628 15.0032 19.628C15.1139 19.7085 15.2448 19.7689 15.3757 19.8192C15.4059 19.8293 15.4361 19.8394 15.4562 19.8495C15.5871 19.8897 15.728 19.9099 15.869 19.9199L15.879 19.9199C16.02 19.9199 16.1609 19.8897 16.2918 19.8495C16.322 19.8394 16.3522 19.8293 16.3723 19.8192C16.5032 19.7689 16.6341 19.7085 16.7448 19.628C16.7549 19.628 16.7549 19.6179 16.7649 19.6179L25.4327 13.2152C26.1072 12.7219 26.2482 11.7756 25.7549 11.1011C25.2616 10.4266 24.3153 10.2857 23.6408 10.779L17.379 15.3998L17.379 3.51052C17.379 2.67495 16.7045 2.00046 15.869 2.00046C15.0334 2.00046 14.3589 2.67495 14.3589 3.51052L14.3589 15.4099L8.09715 10.789C7.82534 10.5877 7.51325 10.4971 7.20117 10.4971C6.73808 10.4971 6.28506 10.7085 5.98305 11.1112C5.49983 11.7756 5.64077 12.7219 6.31527 13.2152Z" fill="current"/>
</svg>
