<svg width="24" height="24" viewBox="0 0 24 24" fill="none" xmlns="http://www.w3.org/2000/svg">
<path d="M14.4486 23.4305C14.2775 23.4305 14.1064 23.4003 13.9454 23.3399L8.31927 21.327C7.71539 21.1156 7.31281 20.542 7.31281 19.9079V12.1279L0.287681 2.39539C-0.0444529 1.93241 -0.0947789 1.32853 0.166902 0.825301C0.428583 0.322069 0.94188 0 1.51557 0H22.4903C23.3257 0 24 0.674332 24 1.5097C24 1.9928 23.7685 2.43565 23.4062 2.70739C23.1042 3.03953 21.7757 4.69013 15.9684 12.6513V21.9107C15.9684 22.4039 15.7269 22.8669 15.3243 23.1487C15.0525 23.3299 14.7506 23.4305 14.4486 23.4305ZM10.3221 18.841L12.9289 19.777V12.1682C12.9289 11.8461 13.0295 11.5341 13.2208 11.2825C16.1395 7.27674 18.0216 4.70019 19.2797 3.02946H4.45445L10.0303 10.7591C10.2114 11.0208 10.3121 11.3227 10.3121 11.6448V18.841H10.3221Z" fill="current"/>
</svg>
