<svg width="24" height="25" viewBox="0 0 24 25" fill="none" xmlns="http://www.w3.org/2000/svg">
<g id="filter-funnel-01">
<path id="Icon" d="M2.98993 5.6755C2.98993 5.17089 2.98993 4.91858 3.08813 4.72585C3.17452 4.55631 3.31235 4.41847 3.48189 4.33209C3.67462 4.23389 3.92693 4.23389 4.43154 4.23389H19.5685C20.0731 4.23389 20.3254 4.23389 20.5181 4.33209C20.6877 4.41847 20.8255 4.55631 20.9119 4.72585C21.0101 4.91858 21.0101 5.17089 21.0101 5.6755V6.27863C21.0101 6.52082 21.0101 6.64191 20.9805 6.75451C20.9543 6.8543 20.9111 6.94883 20.8529 7.034C20.7872 7.13011 20.6956 7.20942 20.5126 7.36804L14.75 12.3623C14.567 12.5209 14.4755 12.6003 14.4097 12.6964C14.3515 12.7815 14.3083 12.8761 14.2821 12.9759C14.2525 13.0885 14.2525 13.2096 14.2525 13.4517V18.162C14.2525 18.3382 14.2525 18.4263 14.2241 18.5025C14.199 18.5698 14.1582 18.6301 14.105 18.6784C14.0448 18.7331 13.963 18.7658 13.7994 18.8313L10.736 20.0566C10.4048 20.1891 10.2393 20.2553 10.1063 20.2277C9.9901 20.2035 9.88809 20.1345 9.8225 20.0355C9.74749 19.9224 9.74749 19.744 9.74749 19.3874V13.4517C9.74749 13.2096 9.74749 13.0885 9.71789 12.9759C9.69167 12.8761 9.6485 12.7815 9.59027 12.6964C9.52456 12.6003 9.43305 12.5209 9.25003 12.3623L3.48739 7.36804C3.30437 7.20942 3.21286 7.13011 3.14715 7.034C3.08892 6.94883 3.04575 6.8543 3.01952 6.75451C2.98993 6.64191 2.98993 6.52082 2.98993 6.27863V5.6755Z" stroke="#5D697E" stroke-width="2" stroke-linecap="round" stroke-linejoin="round"/>
</g>
</svg>
