<svg width="20" height="24" viewBox="0 0 20 24" fill="none" xmlns="http://www.w3.org/2000/svg">
<path d="M9.75 0.375C14.933 0.375 19.1248 4.51042 19.125 9.59961C19.125 12.6946 17.3908 15.0023 15.2705 17.1768C14.7419 17.7189 14.1938 18.2483 13.6455 18.7793C13.0987 19.3089 12.5514 19.8402 12.0322 20.3789C11.1633 21.2805 10.3611 22.2184 9.75 23.2334C9.13885 22.2184 8.33666 21.2805 7.46777 20.3789C6.94856 19.8402 6.40133 19.3089 5.85449 18.7793C5.30615 18.2483 4.7581 17.7189 4.22949 17.1768C2.10918 15.0023 0.375 12.6946 0.375 9.59961C0.375215 4.51042 4.56696 0.375 9.75 0.375Z" fill="white" stroke="#EBF5F4" stroke-width="0.75"/>
<rect x="5" y="3.03906" width="1.24294" height="13.6723" fill="#41A499"/>
<rect x="6.24219" y="4.90332" width="7.45761" height="1.24294" fill="#41A499"/>
<rect x="6.24219" y="7.80371" width="7.45761" height="1.24294" fill="#41A499"/>
<rect x="6.24219" y="10.7036" width="7.45761" height="1.24294" fill="#41A499"/>
<rect x="6.24219" y="13.604" width="7.45761" height="1.24294" fill="#41A499"/>
<rect x="13.7012" y="3.03906" width="1.24294" height="13.6723" fill="#41A499"/>
</svg>
