<svg width="20" height="24" viewBox="0 0 20 24" fill="none" xmlns="http://www.w3.org/2000/svg">
<path d="M10 0.390625C15.3222 0.390625 19.6092 4.52847 19.6094 9.59961C19.6094 12.6843 17.8366 14.9869 15.6611 17.1621C15.119 17.7042 14.5567 18.2335 13.9941 18.7646C13.4334 19.2941 12.8724 19.8254 12.3398 20.3643C11.45 21.2645 10.6275 22.202 10 23.2168C9.37253 22.202 8.54997 21.2645 7.66016 20.3643C7.12756 19.8254 6.5666 19.2941 6.00586 18.7646C5.44335 18.2335 4.88097 17.7042 4.33887 17.1621C2.16337 14.9869 0.390625 12.6843 0.390625 9.59961C0.390845 4.52847 4.67784 0.390625 10 0.390625Z" fill="#8F26F0" stroke="#F4E8FF" stroke-width="0.78125"/>
<rect x="5" y="3.03906" width="1.24294" height="13.6723" fill="#F4E8FF"/>
<rect x="6.24219" y="4.90332" width="7.45761" height="1.24294" fill="#F4E8FF"/>
<rect x="6.24219" y="7.80371" width="7.45761" height="1.24294" fill="#F4E8FF"/>
<rect x="6.24219" y="10.7036" width="7.45761" height="1.24294" fill="#F4E8FF"/>
<rect x="6.24219" y="13.604" width="7.45761" height="1.24294" fill="#F4E8FF"/>
<rect x="13.7012" y="3.03906" width="1.24294" height="13.6723" fill="#F4E8FF"/>
</svg>
