<svg width="26" height="32" viewBox="0 0 26 32" fill="none" xmlns="http://www.w3.org/2000/svg">
<path d="M13 0.5C19.9108 0.5 25.4999 6.01407 25.5 12.7998C25.5 16.9265 23.1874 20.0031 20.3604 22.9023C19.6555 23.6252 18.9245 24.331 18.1934 25.0391C17.4641 25.7453 16.7344 26.4534 16.042 27.1719C14.8844 28.3731 13.8146 29.6215 13 30.9736C12.1854 29.6215 11.1156 28.3731 9.95801 27.1719C9.26562 26.4534 8.53588 25.7453 7.80664 25.0391C7.0755 24.331 6.34448 23.6252 5.63965 22.9023C2.81257 20.0031 0.5 16.9265 0.5 12.7998C0.500107 6.01407 6.08917 0.5 13 0.5Z" fill="#3A0070" stroke="#F4E8FF"/>
<rect x="6.66797" y="4.05176" width="1.65725" height="18.2297" fill="#F4E8FF"/>
<rect x="8.32617" y="6.5376" width="9.94349" height="1.65725" fill="#F4E8FF"/>
<rect x="8.32617" y="10.4043" width="9.94349" height="1.65725" fill="#F4E8FF"/>
<rect x="8.32617" y="14.2715" width="9.94349" height="1.65725" fill="#F4E8FF"/>
<rect x="8.32617" y="18.1382" width="9.94349" height="1.65725" fill="#F4E8FF"/>
<rect x="18.2695" y="4.05176" width="1.65725" height="18.2297" fill="#F4E8FF"/>
</svg>
