<svg width="24" height="36" viewBox="0 0 24 36" fill="none" xmlns="http://www.w3.org/2000/svg">
<path d="M17.2 16L12.1 13.9L7 16L12.1 6L17.2 16Z" fill="white" stroke="#66738A" stroke-miterlimit="10" stroke-linecap="round" stroke-linejoin="round"/>
<path d="M16.918 29.5C17.1941 29.5 17.418 29.2761 17.418 29V19.7197C17.418 19.4436 17.1941 19.2197 16.918 19.2197H14.6836C14.4075 19.2197 14.1836 19.4436 14.1836 19.7197V23.9155C14.1836 23.9562 14.1837 23.9977 14.184 24.0401L11.8004 19.4878C11.7141 19.323 11.5434 19.2197 11.3574 19.2197H8.08203C7.80589 19.2197 7.58203 19.4436 7.58203 19.7197V29C7.58203 29.2761 7.80589 29.5 8.08203 29.5H10.3037C10.5799 29.5 10.8037 29.2761 10.8037 29V24.8169C10.8037 24.758 10.8033 24.6966 10.8023 24.6325L13.186 29.2301C13.2719 29.3959 13.4431 29.5 13.6299 29.5H16.918Z" fill="white" stroke="#66738A" stroke-linejoin="round"/>
</svg>
