<svg width="26" height="32" viewBox="0 0 26 32" fill="none" xmlns="http://www.w3.org/2000/svg">
<path d="M13 0.5C19.9108 0.5 25.4999 6.01407 25.5 12.7998C25.5 16.9265 23.1874 20.0031 20.3604 22.9023C19.6555 23.6252 18.9245 24.331 18.1934 25.0391C17.4641 25.7453 16.7344 26.4534 16.042 27.1719C14.8844 28.3731 13.8146 29.6215 13 30.9736C12.1854 29.6215 11.1156 28.3731 9.95801 27.1719C9.26562 26.4534 8.53588 25.7453 7.80664 25.0391C7.0755 24.331 6.34448 23.6252 5.63965 22.9023C2.81257 20.0031 0.5 16.9265 0.5 12.7998C0.500107 6.01407 6.08917 0.5 13 0.5Z" fill="white" stroke="#EBF5F4"/>
<path d="M18.528 12.4949C18.7844 12.2386 19.2002 12.2388 19.4567 12.4949C22.3045 15.3426 22.3045 19.9597 19.4567 22.8074C19.2002 23.0639 18.7845 23.0639 18.528 22.8074C18.2718 22.5508 18.2716 22.1351 18.528 21.8787C20.8627 19.544 20.8626 15.7593 18.528 13.4246C18.2715 13.168 18.2715 12.7514 18.528 12.4949ZM9.14424 12.4949C9.40074 12.2384 9.81741 12.2384 10.0739 12.4949C10.3304 12.7514 10.3304 13.168 10.0739 13.4246C7.81211 15.6864 7.74133 19.3092 9.86201 21.656L10.0739 21.8787L10.1579 21.9822C10.326 22.237 10.298 22.583 10.0739 22.8074C9.84954 23.0318 9.50269 23.0605 9.24776 22.8923L9.14424 22.8074L8.88643 22.5359C6.29986 19.6734 6.38544 15.2537 9.14424 12.4949ZM17.5808 14.3718C19.3919 16.1831 19.392 19.1202 17.5808 20.9314C17.3242 21.1879 16.9076 21.1879 16.6511 20.9314C16.3946 20.6749 16.3946 20.2582 16.6511 20.0017C17.9493 18.7035 17.9493 16.5987 16.6511 15.3005L17.1159 14.8367L17.5808 14.3718ZM11.0212 14.3718C11.2776 14.1154 11.6934 14.1156 11.9499 14.3718C12.2064 14.6283 12.2064 15.044 11.9499 15.3005C10.6923 16.5582 10.6537 18.5727 11.8327 19.8777L11.9499 20.0017L12.0349 20.1052C12.203 20.3602 12.1743 20.707 11.9499 20.9314C11.7255 21.1554 11.3795 21.1834 11.1247 21.0154L11.0212 20.9314L10.8571 20.7576C9.21227 18.9369 9.26663 16.1264 11.0212 14.3718ZM14.3005 15.6677C15.396 15.6677 16.2847 16.5556 16.2849 17.6511C16.2849 18.7468 15.3962 19.6355 14.3005 19.6355C13.205 19.6353 12.3171 18.7466 12.3171 17.6511C12.3173 16.5558 13.2051 15.6679 14.3005 15.6677ZM14.3005 16.9812C13.9307 16.9814 13.6308 17.2813 13.6306 17.6511C13.6306 18.0211 13.9305 18.3218 14.3005 18.322C14.6706 18.322 14.9714 18.0213 14.9714 17.6511C14.9712 17.2812 14.6705 16.9812 14.3005 16.9812ZM16.6511 14.3718C16.9076 14.1153 17.3243 14.1153 17.5808 14.3718L16.6511 15.3005C16.395 15.044 16.3949 14.6282 16.6511 14.3718ZM15.8806 3.58276C16.137 3.32693 16.5529 3.32689 16.8093 3.58276C19.6569 6.43033 19.6566 11.0475 16.8093 13.8953C16.5528 14.1518 16.1371 14.1518 15.8806 13.8953C15.6244 13.6387 15.6242 13.2229 15.8806 12.9665C18.2148 10.6318 18.215 6.847 15.8806 4.51245C15.6241 4.25593 15.6241 3.83925 15.8806 3.58276ZM6.49678 3.58276C6.7533 3.3267 7.17009 3.32646 7.42647 3.58276C7.68284 3.83913 7.68255 4.2559 7.42647 4.51245C5.16467 6.77427 5.09394 10.3971 7.21455 12.7439L7.42647 12.9665L7.51045 13.0701C7.67838 13.3247 7.65011 13.6709 7.42647 13.8953C7.20209 14.1196 6.85522 14.1484 6.60029 13.9802L6.49678 13.8953L6.23897 13.6238C3.65247 10.7613 3.73801 6.34156 6.49678 3.58276ZM14.9333 5.45971C16.7443 7.27081 16.7441 10.208 14.9333 12.0193C14.6768 12.2758 14.2601 12.2758 14.0036 12.0193C13.7472 11.7628 13.7472 11.3461 14.0036 11.0896C15.3014 9.79135 15.3017 7.68649 14.0036 6.38842L14.4685 5.92456L14.9333 5.45971ZM8.37373 5.45971C8.63017 5.20373 9.04605 5.20366 9.30244 5.45971C9.55881 5.71608 9.55853 6.13188 9.30244 6.38842C8.04488 7.64602 8.00635 9.66063 9.18526 10.9656L9.30244 11.0896L9.3874 11.1931C9.55546 11.4479 9.52643 11.7949 9.30244 12.0193C9.07808 12.2433 8.73202 12.2713 8.47725 12.1033L8.37373 12.0193L8.20967 11.8455C6.56488 10.0248 6.61919 7.21429 8.37373 5.45971ZM11.653 6.75561C12.7482 6.75581 13.6369 7.64386 13.6374 8.73901C13.6374 9.83455 12.7485 10.7232 11.653 10.7234C10.5576 10.7232 9.66963 9.83453 9.66963 8.73901C9.6701 7.64388 10.5578 6.75584 11.653 6.75561ZM11.653 8.06909C11.2834 8.06932 10.9836 8.36941 10.9831 8.73901C10.9831 9.10901 11.2831 9.40968 11.653 9.40991C12.023 9.40971 12.3239 9.10903 12.3239 8.73901C12.3235 8.36939 12.0227 8.06929 11.653 8.06909ZM14.0036 5.45971C14.2601 5.20364 14.6769 5.2034 14.9333 5.45971L14.0036 6.38842C13.7476 6.13192 13.7474 5.71608 14.0036 5.45971Z" fill="#308F85"/>
</svg>
