<svg width="19" height="24" viewBox="0 0 19 24" fill="none" xmlns="http://www.w3.org/2000/svg">
<path d="M9.5 0.5C14.4655 0.5 18.4998 4.56905 18.5 9.59961C18.5 12.6475 16.8385 14.9253 14.7783 17.0938C14.2647 17.6344 13.732 18.1629 13.1973 18.6943C12.6646 19.2238 12.1298 19.7562 11.6221 20.2969C10.8273 21.1433 10.0859 22.0262 9.5 22.9775C8.91407 22.0262 8.1727 21.1433 7.37793 20.2969C6.87024 19.7562 6.33541 19.2238 5.80273 18.6943C5.268 18.1629 4.73532 17.6344 4.22168 17.0938C2.16146 14.9253 0.5 12.6475 0.5 9.59961C0.500209 4.56905 4.53449 0.5 9.5 0.5Z" fill="#3A0070" stroke="#F4E8FF"/>
<path d="M6.74316 9.30615C6.93554 9.1757 7.20007 9.19327 7.37305 9.36182C7.57034 9.55445 7.57409 9.87117 7.38184 10.0688L7.22656 10.2358C5.72864 11.9376 5.72883 14.5398 7.22656 16.2417L7.38184 16.4087L7.44531 16.4878C7.57065 16.6833 7.54556 16.9471 7.37305 17.1157C7.20016 17.2842 6.93551 17.3026 6.74316 17.1724L6.66602 17.1069L6.47656 16.9028C4.58485 14.7545 4.64829 11.4424 6.66602 9.37158L6.74316 9.30615ZM13.5322 9.36182C13.7052 9.19367 13.9689 9.17581 14.1611 9.30615L14.2393 9.37158L14.4287 9.57568C16.3196 11.724 16.2565 15.0364 14.2393 17.1069L14.1611 17.1724C13.9689 17.3026 13.7052 17.2839 13.5322 17.1157C13.3345 16.923 13.3298 16.6065 13.5225 16.4087L13.6777 16.2417C15.1754 14.5398 15.1756 11.9376 13.6777 10.2358L13.5225 10.0688L13.46 9.98975C13.3344 9.79403 13.3592 9.53043 13.5322 9.36182ZM8.11426 10.7134C8.30664 10.5829 8.57113 10.6014 8.74414 10.77C8.94134 10.9627 8.9453 11.2794 8.75293 11.4771L8.58691 11.6655C7.81 12.6435 7.86523 14.0903 8.75293 15.0015C8.94528 15.1992 8.94163 15.5159 8.74414 15.7085C8.54654 15.901 8.22987 15.8969 8.03711 15.6997C6.71178 14.3395 6.71178 12.139 8.03711 10.7788L8.11426 10.7134ZM12.8672 15.6997C12.6745 15.897 12.3578 15.9008 12.1602 15.7085C11.9626 15.5158 11.9587 15.1992 12.1514 15.0015L12.8672 15.6997ZM12.1602 10.77C12.3332 10.6016 12.5977 10.5829 12.79 10.7134L12.8672 10.7788L12.9883 10.9087C14.1915 12.2756 14.1508 14.3821 12.8672 15.6997L12.5098 15.3501L12.1514 15.0015C13.039 14.0903 13.0942 12.6435 12.3174 11.6655L12.1514 11.4771L12.0879 11.397C11.9628 11.2015 11.9876 10.9385 12.1602 10.77ZM10.4521 11.7437C11.2757 11.7439 11.9217 12.4256 11.9219 13.2388C11.9218 14.0521 11.2758 14.7336 10.4521 14.7339C9.62839 14.7338 8.98249 14.0522 8.98242 13.2388C8.98258 12.4255 9.62844 11.7437 10.4521 11.7437ZM10.4521 12.7437C10.205 12.7438 9.98258 12.9531 9.98242 13.2388C9.98249 13.5245 10.205 13.7338 10.4521 13.7339C10.6992 13.7336 10.9218 13.5244 10.9219 13.2388C10.9217 12.9532 10.6992 12.7439 10.4521 12.7437ZM4.73047 2.68799C4.92314 2.49032 5.23973 2.48567 5.4375 2.67822C5.63516 2.87089 5.63881 3.18749 5.44629 3.38525C3.79534 5.07969 3.74351 7.79947 5.29102 9.55811L5.44629 9.7251L5.50977 9.8042C5.63537 9.9998 5.61026 10.2635 5.4375 10.4321C5.2645 10.6006 4.99998 10.6193 4.80762 10.4888L4.73047 10.4233L4.54102 10.2192C2.64945 8.07089 2.71284 4.75877 4.73047 2.68799ZM11.5967 2.67822C11.7696 2.50996 12.0333 2.49229 12.2256 2.62256L12.3037 2.68799L12.4932 2.89209C14.3844 5.04044 14.3212 8.35268 12.3037 10.4233L12.2256 10.4888C12.0332 10.619 11.7696 10.6006 11.5967 10.4321C11.3991 10.2394 11.3943 9.92282 11.5869 9.7251L11.7422 9.55811C13.2401 7.85612 13.2403 5.2541 11.7422 3.55225L11.5869 3.38525L11.5244 3.30615C11.399 3.11047 11.4237 2.84679 11.5967 2.67822ZM6.17871 4.02979C6.37106 3.8991 6.6355 3.9179 6.80859 4.08643C7.00615 4.27916 7.01002 4.59575 6.81738 4.79346L6.65137 4.98193C5.87452 5.95989 5.92983 7.40666 6.81738 8.31787C7.01009 8.51565 7.00635 8.83219 6.80859 9.0249C6.61089 9.21748 6.29428 9.21363 6.10156 9.01611C4.77639 7.65591 4.77633 5.45538 6.10156 4.09521L6.17871 4.02979ZM10.9316 9.01611C10.7389 9.21344 10.4222 9.21746 10.2246 9.0249C10.0272 8.83218 10.0233 8.51554 10.2158 8.31787L10.9316 9.01611ZM10.2246 4.08643C10.3976 3.9179 10.6621 3.89938 10.8545 4.02979L10.9316 4.09521L11.0527 4.2251C12.2563 5.59206 12.2155 7.69845 10.9316 9.01611L10.5742 8.6665L10.2158 8.31787C11.1037 7.40661 11.1589 5.96 10.3818 4.98193L10.2158 4.79346L10.1523 4.71338C10.0273 4.5179 10.0522 4.25487 10.2246 4.08643ZM8.5166 5.06006C9.34036 5.06006 9.98612 5.74185 9.98633 6.55518C9.98633 7.36867 9.34049 8.05029 8.5166 8.05029C7.69289 8.05009 7.04688 7.36855 7.04688 6.55518C7.04708 5.74197 7.69302 5.06026 8.5166 5.06006ZM8.5166 6.06006C8.26958 6.06026 8.04708 6.26966 8.04688 6.55518C8.04688 6.84089 8.26947 7.05009 8.5166 7.05029C8.76388 7.05029 8.98633 6.84104 8.98633 6.55518C8.98613 6.26952 8.76377 6.06006 8.5166 6.06006Z" fill="#F4E8FF"/>
</svg>
