<svg width="26" height="26" viewBox="0 0 36 36" fill="none" xmlns="http://www.w3.org/2000/svg">
<g filter="url(#filter0_d_23446_47341)">
<path d="M2 10C2 5.58172 5.58172 2 10 2H26C30.4183 2 34 5.58172 34 10V26C34 30.4183 30.4183 34 26 34H10C5.58172 34 2 30.4183 2 26V10Z" fill="#8F26F0" shape-rendering="crispEdges"/>
<path d="M10 1.5C5.30558 1.5 1.5 5.30558 1.5 10V26C1.5 30.6944 5.30558 34.5 10 34.5H26C30.6944 34.5 34.5 30.6944 34.5 26V10C34.5 5.30558 30.6944 1.5 26 1.5H10Z" stroke="#F4E8FF" shape-rendering="crispEdges"/>
<path fill-rule="evenodd" clip-rule="evenodd" d="M9.78967 7.3404C10.1103 7.01972 10.1103 6.49981 9.78967 6.17913C9.46899 5.85846 8.94908 5.85846 8.6284 6.17913C5.06808 9.73946 5.06808 15.5119 8.6284 19.0722C8.94908 19.3929 9.46899 19.3929 9.78967 19.0722C10.1103 18.7515 10.1103 18.2316 9.78967 17.9109C6.87069 14.992 6.87069 10.2594 9.78967 7.3404ZM21.5215 6.17917C21.2008 5.8585 20.6809 5.8585 20.3602 6.17917C20.0395 6.49985 20.0395 7.01976 20.3602 7.34044C23.2792 10.2594 23.2792 14.992 20.3602 17.911C20.0395 18.2317 20.0395 18.7516 20.3602 19.0722C20.6809 19.3929 21.2008 19.3929 21.5215 19.0722C25.0818 15.5119 25.0818 9.73949 21.5215 6.17917ZM12.136 9.68673C12.4567 9.36606 12.4567 8.84614 12.136 8.52547C11.8154 8.20479 11.2954 8.20479 10.9748 8.52547C8.7103 10.7899 8.7103 14.4613 10.9748 16.7258C11.2954 17.0465 11.8154 17.0465 12.136 16.7258C12.4567 16.4051 12.4567 15.8852 12.136 15.5645C10.5129 13.9414 10.5129 11.3098 12.136 9.68673ZM19.1751 8.52549C18.8544 8.20482 18.3345 8.20482 18.0138 8.52549C17.6932 8.84617 17.6932 9.36608 18.0138 9.68676C19.637 11.3099 19.637 13.9415 18.0138 15.5646C17.6932 15.8853 17.6932 16.4052 18.0138 16.7258C18.3345 17.0465 18.8544 17.0465 19.1751 16.7258C21.4396 14.4614 21.4396 10.79 19.1751 8.52549ZM14.2369 12.6257C14.2369 12.1629 14.6121 11.7877 15.0749 11.7877C15.5377 11.7877 15.9129 12.1629 15.9129 12.6257C15.9129 13.0885 15.5377 13.4637 15.0749 13.4637C14.6121 13.4637 14.2369 13.0885 14.2369 12.6257ZM15.0749 10.1454C13.7051 10.1454 12.5947 11.2559 12.5947 12.6257C12.5947 13.9955 13.7051 15.1059 15.0749 15.1059C16.4447 15.1059 17.5552 13.9955 17.5552 12.6257C17.5552 11.2559 16.4447 10.1454 15.0749 10.1454ZM15.5983 18.481C15.9189 18.1603 15.9189 17.6404 15.5983 17.3198C15.2776 16.9991 14.7577 16.9991 14.437 17.3198C10.8767 20.8801 10.8767 26.6525 14.437 30.2128C14.7577 30.5335 15.2776 30.5335 15.5983 30.2128C15.9189 29.8922 15.9189 29.3722 15.5983 29.0516C12.6793 26.1326 12.6793 21.4 15.5983 18.481ZM27.3301 17.3198C27.0094 16.9991 26.4895 16.9991 26.1688 17.3198C25.8481 17.6405 25.8481 18.1604 26.1688 18.4811C29.0878 21.4 29.0878 26.1326 26.1688 29.0516C25.8481 29.3723 25.8481 29.8922 26.1688 30.2129C26.4895 30.5335 27.0094 30.5335 27.3301 30.2129C30.8904 26.6525 30.8904 20.8801 27.3301 17.3198ZM17.9446 20.8274C18.2653 20.5067 18.2653 19.9868 17.9446 19.6661C17.6239 19.3454 17.104 19.3454 16.7834 19.6661C14.5189 21.9306 14.5189 25.602 16.7834 27.8664C17.104 28.1871 17.6239 28.1871 17.9446 27.8664C18.2653 27.5458 18.2653 27.0258 17.9446 26.7052C16.3215 25.0821 16.3215 22.4505 17.9446 20.8274ZM24.9837 19.6661C24.663 19.3454 24.1431 19.3454 23.8224 19.6661C23.5018 19.9868 23.5018 20.5067 23.8224 20.8274C25.4456 22.4505 25.4456 25.0821 23.8224 26.7052C23.5018 27.0259 23.5018 27.5458 23.8224 27.8665C24.1431 28.1871 24.663 28.1871 24.9837 27.8665C27.2482 25.602 27.2482 21.9306 24.9837 19.6661ZM20.0455 23.7663C20.0455 23.3035 20.4207 22.9283 20.8835 22.9283C21.3463 22.9283 21.7215 23.3035 21.7215 23.7663C21.7215 24.2291 21.3463 24.6043 20.8835 24.6043C20.4207 24.6043 20.0455 24.2291 20.0455 23.7663ZM20.8835 21.286C19.5137 21.286 18.4033 22.3965 18.4033 23.7663C18.4033 25.1361 19.5137 26.2466 20.8835 26.2466C22.2533 26.2466 23.3638 25.1361 23.3638 23.7663C23.3638 22.3965 22.2533 21.286 20.8835 21.286Z" fill="#F4E8FF"/>
</g>
<defs>
<filter id="filter0_d_23446_47341" x="0" y="0" width="36" height="36" filterUnits="userSpaceOnUse" color-interpolation-filters="sRGB">
<feFlood flood-opacity="0" result="BackgroundImageFix"/>
<feColorMatrix in="SourceAlpha" type="matrix" values="0 0 0 0 0 0 0 0 0 0 0 0 0 0 0 0 0 0 127 0" result="hardAlpha"/>
<feOffset/>
<feGaussianBlur stdDeviation="0.5"/>
<feComposite in2="hardAlpha" operator="out"/>
<feColorMatrix type="matrix" values="0 0 0 0 0 0 0 0 0 0 0 0 0 0 0 0 0 0 0.25 0"/>
<feBlend mode="normal" in2="BackgroundImageFix" result="effect1_dropShadow_23446_47341"/>
<feBlend mode="normal" in="SourceGraphic" in2="effect1_dropShadow_23446_47341" result="shape"/>
</filter>
</defs>
</svg>
