<svg width="26" height="26" viewBox="0 0 36 36" fill="none" xmlns="http://www.w3.org/2000/svg">
<g filter="url(#filter0_d_21777_15661)">
<path d="M2 10C2 5.58172 5.58172 2 10 2H26C30.4183 2 34 5.58172 34 10V26C34 30.4183 30.4183 34 26 34H10C5.58172 34 2 30.4183 2 26V10Z" fill="#3A0070" shape-rendering="crispEdges"/>
<path d="M10 1.5C5.30558 1.5 1.5 5.30558 1.5 10V26C1.5 30.6944 5.30558 34.5 10 34.5H26C30.6944 34.5 34.5 30.6944 34.5 26V10C34.5 5.30558 30.6944 1.5 26 1.5H10Z" stroke="#F4E8FF" shape-rendering="crispEdges"/>
<path d="M22.2426 13.7581C24.5858 16.1013 24.5858 19.9003 22.2426 22.2434M13.7574 22.2434C11.4142 19.9002 11.4142 16.1012 13.7574 13.7581M10.9289 25.0718C7.02369 21.1666 7.02369 14.8349 10.9289 10.9297M25.0711 10.9297C28.9763 14.835 28.9763 21.1666 25.0711 25.0719M20 18.0008C20 19.1053 19.1046 20.0008 18 20.0008C16.8954 20.0008 16 19.1053 16 18.0008C16 16.8962 16.8954 16.0008 18 16.0008C19.1046 16.0008 20 16.8962 20 18.0008Z" stroke="#F4E8FF" stroke-width="1.5" stroke-linecap="round" stroke-linejoin="round"/>
</g>
<defs>
<filter id="filter0_d_21777_15661" x="0" y="0" width="36" height="36" filterUnits="userSpaceOnUse" color-interpolation-filters="sRGB">
<feFlood flood-opacity="0" result="BackgroundImageFix"/>
<feColorMatrix in="SourceAlpha" type="matrix" values="0 0 0 0 0 0 0 0 0 0 0 0 0 0 0 0 0 0 127 0" result="hardAlpha"/>
<feOffset/>
<feGaussianBlur stdDeviation="0.5"/>
<feComposite in2="hardAlpha" operator="out"/>
<feColorMatrix type="matrix" values="0 0 0 0 0 0 0 0 0 0 0 0 0 0 0 0 0 0 0.25 0"/>
<feBlend mode="normal" in2="BackgroundImageFix" result="effect1_dropShadow_21777_15661"/>
<feBlend mode="normal" in="SourceGraphic" in2="effect1_dropShadow_21777_15661" result="shape"/>
</filter>
</defs>
</svg>
