<svg width="26" height="26" viewBox="0 0 32 32" fill="none" xmlns="http://www.w3.org/2000/svg">
<rect width="32" height="32" rx="16" fill="white"/>
<path d="M20.2426 11.7581C22.5858 14.1013 22.5858 17.9003 20.2426 20.2434M11.7574 20.2434C9.41421 17.9002 9.41421 14.1012 11.7574 11.7581M8.92893 23.0718C5.02369 19.1666 5.02369 12.8349 8.92893 8.92969M23.0711 8.92973C26.9763 12.835 26.9763 19.1666 23.0711 23.0719M18 16.0008C18 17.1053 17.1046 18.0008 16 18.0008C14.8954 18.0008 14 17.1053 14 16.0008C14 14.8962 14.8954 14.0008 16 14.0008C17.1046 14.0008 18 14.8962 18 16.0008Z" stroke="#308F85" stroke-width="1.5" stroke-linecap="round" stroke-linejoin="round"/>
</svg>
