<svg width="19" height="24" viewBox="0 0 19 24" fill="none" xmlns="http://www.w3.org/2000/svg">
<path d="M9.5 0.5C14.4655 0.5 18.4998 4.56905 18.5 9.59961C18.5 12.6475 16.8385 14.9253 14.7783 17.0938C14.2647 17.6344 13.732 18.1629 13.1973 18.6943C12.6646 19.2238 12.1298 19.7562 11.6221 20.2969C10.8273 21.1433 10.0859 22.0262 9.5 22.9775C8.91407 22.0262 8.1727 21.1433 7.37793 20.2969C6.87024 19.7562 6.33541 19.2238 5.80273 18.6943C5.268 18.1629 4.73532 17.6344 4.22168 17.0938C2.16146 14.9253 0.5 12.6475 0.5 9.59961C0.500209 4.56905 4.53449 0.5 9.5 0.5Z" fill="white" stroke="#EBF5F4"/>
<path d="M6.66406 9.37061C6.8568 9.17332 7.17347 9.16833 7.37109 9.36084C7.5686 9.55336 7.57198 9.87007 7.37988 10.0679C5.72887 11.7623 5.67702 14.4821 7.22461 16.2407L7.37988 16.4077L7.44336 16.4868C7.56885 16.6823 7.54347 16.9461 7.37109 17.1147C7.19811 17.2833 6.93359 17.3019 6.74121 17.1714L6.66406 17.106L6.47461 16.9019C4.58296 14.7535 4.64636 11.4414 6.66406 9.37061ZM13.5303 9.36084C13.7033 9.19292 13.9671 9.17488 14.1592 9.30518L14.2373 9.37061L14.4258 9.57471C16.3173 11.7229 16.2545 15.0351 14.2373 17.106L14.1592 17.1714C13.9668 17.3017 13.7032 17.2832 13.5303 17.1147C13.3326 16.922 13.3278 16.6055 13.5205 16.4077L13.6758 16.2407C15.1733 14.5387 15.1738 11.9366 13.6758 10.2349L13.5205 10.0679L13.458 9.98877C13.3325 9.79307 13.3573 9.52941 13.5303 9.36084ZM8.1123 10.7124C8.30465 10.582 8.56924 10.6006 8.74219 10.769C8.9396 10.9616 8.94319 11.2783 8.75098 11.4761L8.58496 11.6646C7.80805 12.6425 7.86332 14.0893 8.75098 15.0005C8.94354 15.1981 8.93953 15.5148 8.74219 15.7075C8.54449 15.9001 8.22789 15.8963 8.03516 15.6987C6.70988 14.3385 6.70985 12.138 8.03516 10.7778L8.1123 10.7124ZM12.8652 15.6987C12.6725 15.8961 12.3558 15.9001 12.1582 15.7075C11.9607 15.5148 11.9568 15.1982 12.1494 15.0005L12.8652 15.6987ZM12.1582 10.769C12.3312 10.6008 12.5959 10.582 12.7881 10.7124L12.8652 10.7778L12.9863 10.9077C14.1897 12.2745 14.1487 14.3811 12.8652 15.6987L12.5078 15.3491L12.1494 15.0005C13.0369 14.0892 13.0924 12.6425 12.3154 11.6646L12.1494 11.4761L12.0859 11.396C11.9609 11.2005 11.9857 10.9375 12.1582 10.769ZM10.4502 11.7427C11.2737 11.7429 11.9195 12.4248 11.9199 13.2378C11.9199 14.0512 11.2739 14.7327 10.4502 14.7329C9.62638 14.7328 8.98047 14.0512 8.98047 13.2378C8.98087 12.4247 9.62664 11.7428 10.4502 11.7427ZM10.4502 12.7427C10.2032 12.7428 9.98086 12.9524 9.98047 13.2378C9.98047 13.5236 10.203 13.7328 10.4502 13.7329C10.6973 13.7327 10.9199 13.5235 10.9199 13.2378C10.9195 12.9525 10.6971 12.7429 10.4502 12.7427ZM4.72852 2.68701C4.92115 2.48945 5.23779 2.48486 5.43555 2.67725C5.63318 2.86989 5.6368 3.18651 5.44434 3.38428C3.7934 5.07866 3.74167 7.79847 5.28906 9.55713L5.44434 9.72412L5.50781 9.80322C5.63339 9.9988 5.60826 10.2625 5.43555 10.4312C5.26255 10.5997 4.99804 10.6183 4.80566 10.4878L4.72852 10.4224L4.53906 10.2183C2.64761 8.0699 2.71089 4.75774 4.72852 2.68701ZM11.5947 2.67725C11.7676 2.50908 12.0314 2.49142 12.2236 2.62158L12.3018 2.68701L12.4902 2.89111C14.3819 5.03942 14.3193 8.35155 12.3018 10.4224L12.2236 10.4878C12.0313 10.6181 11.7677 10.5997 11.5947 10.4312C11.3973 10.2384 11.3924 9.9218 11.585 9.72412L11.7402 9.55713C13.2381 7.85515 13.2383 5.25309 11.7402 3.55127L11.585 3.38428L11.5225 3.30518C11.3971 3.10949 11.4218 2.84576 11.5947 2.67725ZM6.17676 4.02881C6.36906 3.89816 6.63355 3.91706 6.80664 4.08545C7.00417 4.27816 7.008 4.59477 6.81543 4.79248L6.64941 4.98096C5.87257 5.95887 5.92799 7.40567 6.81543 8.31689C7.00812 8.51465 7.00435 8.83121 6.80664 9.02393C6.60895 9.21655 6.29234 9.21266 6.09961 9.01514C4.77456 7.65491 4.77438 5.45434 6.09961 4.09424L6.17676 4.02881ZM10.9297 9.01514C10.7369 9.21251 10.4203 9.2165 10.2227 9.02393C10.0253 8.83118 10.0213 8.51452 10.2139 8.31689L10.9297 9.01514ZM10.2227 4.08545C10.3956 3.91701 10.6602 3.8985 10.8525 4.02881L10.9297 4.09424L11.0508 4.22412C12.2543 5.59106 12.2135 7.69748 10.9297 9.01514L10.5723 8.66553L10.2139 8.31689C11.1017 7.40564 11.157 5.959 10.3799 4.98096L10.2139 4.79248L10.1504 4.7124C10.0255 4.51691 10.0502 4.25384 10.2227 4.08545ZM8.51465 5.05908C9.33833 5.05908 9.98405 5.74098 9.98438 6.5542C9.98438 7.3677 9.33854 8.04932 8.51465 8.04932C7.69094 8.04911 7.04492 7.36757 7.04492 6.5542C7.04525 5.7411 7.69115 5.05929 8.51465 5.05908ZM8.51465 6.05908C8.2677 6.0593 8.04524 6.26881 8.04492 6.5542C8.04492 6.83991 8.26752 7.0491 8.51465 7.04932C8.76193 7.04932 8.98438 6.84006 8.98438 6.5542C8.98405 6.26866 8.76175 6.05908 8.51465 6.05908Z" fill="#308F85"/>
</svg>
