<svg width="20" height="24" viewBox="0 0 20 24" fill="none" xmlns="http://www.w3.org/2000/svg">
<path d="M10 0.5C15.266 0.5 19.4998 4.59304 19.5 9.59961C19.5 12.6377 17.7561 14.9131 15.584 17.085C15.0432 17.6257 14.4817 18.1541 13.9189 18.6855C13.3583 19.2149 12.7959 19.7477 12.2617 20.2881C11.4129 21.1469 10.6212 22.0432 10 23.0117C9.37876 22.0432 8.58713 21.1469 7.73828 20.2881C7.20411 19.7477 6.64172 19.2149 6.08105 18.6855C5.51825 18.1541 4.9568 17.6257 4.41602 17.085C2.24388 14.9131 0.5 12.6377 0.5 9.59961C0.50022 4.59304 4.734 0.5 10 0.5Z" fill="white" stroke="#EBF5F4"/>
<path d="M12.9921 6.00856C14.6443 7.66078 14.6443 10.3396 12.9921 11.9918M7.00889 11.9918C5.35668 10.3395 5.35668 7.66076 7.00889 6.00854M5.01449 13.9862C2.26079 11.2325 2.26079 6.76786 5.01449 4.01416M14.9865 4.01419C17.7402 6.76789 17.7402 11.2325 14.9865 13.9862M11.4108 9.00017C11.4108 9.77903 10.7794 10.4104 10.0005 10.4104C9.22164 10.4104 8.59024 9.77903 8.59024 9.00017C8.59024 8.22131 9.22164 7.58991 10.0005 7.58991C10.7794 7.58991 11.4108 8.22131 11.4108 9.00017Z" stroke="#308F85" stroke-linecap="round" stroke-linejoin="round"/>
</svg>
