<svg width="26" height="32" viewBox="0 0 26 32" fill="none" xmlns="http://www.w3.org/2000/svg">
<path d="M13 0.5C19.9108 0.5 25.4999 6.01407 25.5 12.7998C25.5 16.9265 23.1874 20.0031 20.3604 22.9023C19.6555 23.6252 18.9245 24.331 18.1934 25.0391C17.4641 25.7453 16.7344 26.4534 16.042 27.1719C14.8844 28.3731 13.8146 29.6215 13 30.9736C12.1854 29.6215 11.1156 28.3731 9.95801 27.1719C9.26562 26.4534 8.53588 25.7453 7.80664 25.0391C7.0755 24.331 6.34448 23.6252 5.63965 22.9023C2.81257 20.0031 0.5 16.9265 0.5 12.7998C0.500107 6.01407 6.08917 0.5 13 0.5Z" fill="#8F26F0" stroke="#F4E8FF"/>
<path d="M18.528 12.495C18.7844 12.2388 19.2003 12.239 19.4568 12.495C22.3045 15.3427 22.3045 19.9598 19.4568 22.8075C19.2003 23.064 18.7845 23.064 18.528 22.8075C18.2719 22.551 18.2717 22.1352 18.528 21.8788C20.8628 19.5441 20.8627 15.7594 18.528 13.4247C18.2716 13.1682 18.2716 12.7515 18.528 12.495ZM9.14426 12.495C9.40074 12.2385 9.81745 12.2386 10.0739 12.495C10.3304 12.7515 10.3304 13.1682 10.0739 13.4247C7.81226 15.6864 7.74081 19.3093 9.86105 21.6562L10.0739 21.8788L10.1579 21.9823C10.326 22.2371 10.298 22.5832 10.0739 22.8075C9.84958 23.0319 9.50268 23.0607 9.24777 22.8925L9.14426 22.8075L8.88644 22.536C6.29991 19.6736 6.38548 15.2538 9.14426 12.495ZM11.0212 14.372C11.2776 14.1156 11.6934 14.1158 11.9499 14.372C12.2064 14.6285 12.2064 15.0442 11.9499 15.3007C10.6923 16.5583 10.6538 18.5729 11.8327 19.8778L11.9499 20.0019L12.0349 20.1054C12.203 20.3603 12.1743 20.7072 11.9499 20.9316C11.7256 21.1555 11.3795 21.1836 11.1247 21.0155L11.0212 20.9316L10.8571 20.7577C9.21232 18.9371 9.26667 16.1266 11.0212 14.372ZM16.6521 14.372C16.8765 14.1479 17.2225 14.1198 17.4773 14.288L17.5808 14.372L17.7448 14.5448C19.39 16.3654 19.3355 19.1769 17.5808 20.9316L17.4773 21.0155C17.2225 21.1836 16.8764 21.1555 16.6521 20.9316C16.3956 20.6751 16.3956 20.2584 16.6521 20.0019L16.7693 19.8778C17.9103 18.6149 17.9105 16.6876 16.7693 15.4247L16.6521 15.3007L16.5671 15.1982C16.3988 14.9432 16.4277 14.5964 16.6521 14.372ZM14.3005 15.6679C15.396 15.6679 16.2847 16.5558 16.2849 17.6513C16.2849 18.7469 15.3961 19.6357 14.3005 19.6357C13.2051 19.6354 12.3171 18.7468 12.3171 17.6513C12.3173 16.556 13.2052 15.6681 14.3005 15.6679ZM14.3005 16.9814C13.9307 16.9816 13.6308 17.2814 13.6306 17.6513C13.6306 18.0213 13.9305 18.3219 14.3005 18.3222C14.6707 18.3222 14.9714 18.0215 14.9714 17.6513C14.9712 17.2813 14.6705 16.9814 14.3005 16.9814ZM15.8806 3.58389C16.1369 3.32776 16.5528 3.32791 16.8093 3.58389C19.6568 6.43157 19.6568 11.0487 16.8093 13.8964C16.5529 14.1528 16.1371 14.1527 15.8806 13.8964C15.6244 13.6399 15.6242 13.2241 15.8806 12.9677C18.2151 10.633 18.2151 6.84828 15.8806 4.51358C15.6241 4.25709 15.6241 3.84038 15.8806 3.58389ZM6.4968 3.58389C6.75329 3.32754 7.17003 3.32747 7.42648 3.58389C7.68278 3.84036 7.6828 4.25713 7.42648 4.51358C5.1648 6.7753 5.09334 10.3982 7.21359 12.745L7.42648 12.9677L7.51047 13.0712C7.67837 13.3259 7.65034 13.6721 7.42648 13.8964C7.20217 14.1207 6.8552 14.1494 6.60031 13.9814L6.4968 13.8964L6.23898 13.6249C3.65244 10.7624 3.73802 6.3427 6.4968 3.58389ZM8.37375 5.46085C8.63016 5.20457 9.04599 5.20467 9.30246 5.46085C9.55876 5.71731 9.55877 6.13311 9.30246 6.38956C8.04485 7.6472 8.00629 9.66174 9.18527 10.9667L9.30246 11.0907L9.38742 11.1942C9.55544 11.4491 9.52667 11.7961 9.30246 12.0204C9.07816 12.2444 8.73201 12.2723 8.47726 12.1044L8.37375 12.0204L8.20969 11.8466C6.56486 10.026 6.61921 7.21543 8.37375 5.46085ZM14.0046 5.46085C14.229 5.23686 14.5751 5.20874 14.8298 5.37686L14.9333 5.46085L15.0974 5.6337C16.7424 7.45428 16.6878 10.2658 14.9333 12.0204L14.8298 12.1044C14.5751 12.2724 14.229 12.2443 14.0046 12.0204C13.7481 11.7639 13.7481 11.3472 14.0046 11.0907L14.1218 10.9667C15.2626 9.70377 15.2629 7.77638 14.1218 6.51358L14.0046 6.38956L13.9196 6.28702C13.7514 6.03209 13.7802 5.68526 14.0046 5.46085ZM11.653 6.75675C12.7484 6.75689 13.6372 7.64478 13.6374 8.74014C13.6374 9.83568 12.7485 10.7244 11.653 10.7245C10.5576 10.7243 9.66966 9.83562 9.66965 8.74014C9.66986 7.64484 10.5577 6.75699 11.653 6.75675ZM11.653 8.07022C11.2832 8.07046 10.9833 8.3703 10.9831 8.74014C10.9831 9.11016 11.2831 9.4108 11.653 9.41104C12.0231 9.41089 12.3239 9.11021 12.3239 8.74014C12.3237 8.37024 12.023 8.07037 11.653 8.07022Z" fill="#F4E8FF"/>
</svg>
