<svg width="26" height="26" viewBox="0 0 32 32" fill="none" xmlns="http://www.w3.org/2000/svg">
<rect x="0.5" y="0.5" width="31" height="31" rx="7.5" fill="white"/>
<rect x="0.5" y="0.5" width="31" height="31" rx="7.5" stroke="#EBF5F4"/>
<path fill-rule="evenodd" clip-rule="evenodd" d="M7.78944 5.3404C8.11011 5.01972 8.11011 4.49981 7.78944 4.17913C7.46876 3.85846 6.94885 3.85846 6.62817 4.17913C3.06815 7.73915 3.06815 13.5111 6.62817 17.0711C6.94885 17.3918 7.46876 17.3918 7.78944 17.0711C8.11011 16.7504 8.11011 16.2305 7.78944 15.9098C4.87077 12.9912 4.87077 8.25907 7.78944 5.3404ZM19.5201 4.17917C19.1995 3.8585 18.6795 3.8585 18.3589 4.17917C18.0382 4.49985 18.0382 5.01976 18.3589 5.34044C21.2775 8.2591 21.2775 12.9912 18.3589 15.9099C18.0382 16.2305 18.0382 16.7505 18.3589 17.0711C18.6795 17.3918 19.1995 17.3918 19.5201 17.0711C23.0802 13.5111 23.0802 7.73919 19.5201 4.17917ZM10.1356 7.68651C10.4563 7.36583 10.4563 6.84592 10.1356 6.52524C9.8149 6.20457 9.29499 6.20457 8.97431 6.52524C6.71003 8.78953 6.71003 12.4606 8.97431 14.7249C9.29499 15.0456 9.8149 15.0456 10.1356 14.7249C10.4563 14.4043 10.4563 13.8843 10.1356 13.5637C8.51265 11.9407 8.51264 9.30944 10.1356 7.68651ZM17.174 6.52527C16.8533 6.2046 16.3334 6.2046 16.0127 6.52527C15.6921 6.84595 15.6921 7.36586 16.0127 7.68654C17.6357 9.30947 17.6357 11.9408 16.0127 13.5637C15.6921 13.8844 15.6921 14.4043 16.0127 14.725C16.3334 15.0456 16.8533 15.0456 17.174 14.725C19.4383 12.4607 19.4383 8.78955 17.174 6.52527ZM12.2363 10.6251C12.2363 10.1624 12.6114 9.78728 13.0742 9.78728C13.5369 9.78728 13.912 10.1624 13.912 10.6251C13.912 11.0878 13.5369 11.4629 13.0742 11.4629C12.6114 11.4629 12.2363 11.0878 12.2363 10.6251ZM13.0742 8.14501C11.7044 8.14501 10.594 9.25539 10.594 10.6251C10.594 11.9948 11.7044 13.1052 13.0742 13.1052C14.4439 13.1052 15.5543 11.9948 15.5543 10.6251C15.5543 9.25539 14.4439 8.14501 13.0742 8.14501ZM13.598 16.481C13.9187 16.1603 13.9187 15.6404 13.598 15.3198C13.2774 14.9991 12.7574 14.9991 12.4368 15.3198C8.87675 18.8798 8.87675 24.6517 12.4368 28.2117C12.7574 28.5324 13.2774 28.5324 13.598 28.2117C13.9187 27.891 13.9187 27.3711 13.598 27.0505C10.6794 24.1318 10.6794 19.3997 13.598 16.481ZM25.3287 15.3198C25.0081 14.9991 24.4881 14.9991 24.1675 15.3198C23.8468 15.6405 23.8468 16.1604 24.1675 16.4811C27.0861 19.3997 27.0861 24.1318 24.1675 27.0505C23.8468 27.3712 23.8468 27.8911 24.1675 28.2118C24.4881 28.5324 25.0081 28.5324 25.3287 28.2118C28.8887 24.6517 28.8887 18.8798 25.3287 15.3198ZM15.9442 18.8271C16.2648 18.5065 16.2648 17.9865 15.9442 17.6659C15.6235 17.3452 15.1036 17.3452 14.7829 17.6659C12.5186 19.9302 12.5186 23.6013 14.7829 25.8656C15.1036 26.1862 15.6235 26.1862 15.9442 25.8656C16.2648 25.5449 16.2648 25.025 15.9442 24.7043C14.3212 23.0814 14.3212 20.4501 15.9442 18.8271ZM22.9826 17.6659C22.6619 17.3452 22.142 17.3452 21.8213 17.6659C21.5007 17.9866 21.5007 18.5065 21.8213 18.8272C23.4443 20.4501 23.4443 23.0814 21.8213 24.7043C21.5007 25.025 21.5007 25.5449 21.8213 25.8656C22.142 26.1863 22.6619 26.1863 22.9826 25.8656C25.2469 23.6013 25.2469 19.9302 22.9826 17.6659ZM18.0449 21.7657C18.0449 21.303 18.42 20.9279 18.8827 20.9279C19.3455 20.9279 19.7206 21.303 19.7206 21.7657C19.7206 22.2285 19.3455 22.6036 18.8827 22.6036C18.42 22.6036 18.0449 22.2285 18.0449 21.7657ZM18.8827 19.2856C17.513 19.2856 16.4026 20.396 16.4026 21.7657C16.4026 23.1355 17.513 24.2458 18.8827 24.2458C20.2525 24.2458 21.3629 23.1355 21.3629 21.7657C21.3629 20.396 20.2525 19.2856 18.8827 19.2856Z" fill="#308F85"/>
</svg>
