<svg width="20" height="24" viewBox="0 0 20 24" fill="none" xmlns="http://www.w3.org/2000/svg">
<path d="M10 0.5C15.266 0.5 19.4998 4.59304 19.5 9.59961C19.5 12.6377 17.7561 14.9131 15.584 17.085C15.0432 17.6257 14.4817 18.1541 13.9189 18.6855C13.3583 19.2149 12.7959 19.7477 12.2617 20.2881C11.4129 21.1469 10.6212 22.0432 10 23.0117C9.37876 22.0432 8.58713 21.1469 7.73828 20.2881C7.20411 19.7477 6.64172 19.2149 6.08105 18.6855C5.51825 18.1541 4.9568 17.6257 4.41602 17.085C2.24388 14.9131 0.5 12.6377 0.5 9.59961C0.50022 4.59304 4.734 0.5 10 0.5Z" fill="#8F26F0" stroke="#F4E8FF"/>
<path d="M12.9921 6.83322C14.6443 8.44413 14.6443 11.0559 12.9921 12.6668M7.00889 12.6668C5.35668 11.0559 5.35668 8.4441 7.00889 6.83319M5.01449 14.6114C2.26079 11.9265 2.26079 7.57353 5.01449 4.88867M14.9865 4.8887C17.7402 7.57356 17.7402 11.9266 14.9865 14.6114M11.4108 9.75003C11.4108 10.5094 10.7794 11.125 10.0005 11.125C9.22164 11.125 8.59024 10.5094 8.59024 9.75003C8.59024 8.99064 9.22164 8.37503 10.0005 8.37503C10.7794 8.37503 11.4108 8.99064 11.4108 9.75003Z" stroke="#F4E8FF" stroke-linecap="round" stroke-linejoin="round"/>
</svg>
