<svg width="26" height="32" viewBox="0 0 26 32" fill="none" xmlns="http://www.w3.org/2000/svg">
<path d="M13 0.5C19.9108 0.5 25.4999 6.01407 25.5 12.7998C25.5 16.9265 23.1874 20.0031 20.3604 22.9023C19.6555 23.6252 18.9245 24.331 18.1934 25.0391C17.4641 25.7453 16.7344 26.4534 16.042 27.1719C14.8844 28.3731 13.8146 29.6215 13 30.9736C12.1854 29.6215 11.1156 28.3731 9.95801 27.1719C9.26562 26.4534 8.53588 25.7453 7.80664 25.0391C7.0755 24.331 6.34448 23.6252 5.63965 22.9023C2.81257 20.0031 0.5 16.9265 0.5 12.7998C0.500107 6.01407 6.08917 0.5 13 0.5Z" fill="white" stroke="#EBF5F4"/>
<path d="M16.8897 9.11128C19.0376 11.2592 19.0376 14.7416 16.8897 16.8895M9.11156 16.8894C6.96368 14.7415 6.96368 11.2591 9.11156 9.11125M6.51884 19.4822C2.93903 15.9024 2.93903 10.0984 6.51884 6.51855M19.4825 6.5186C23.0623 10.0984 23.0623 15.9024 19.4825 19.4822M14.834 13.0004C14.834 14.0129 14.0132 14.8337 13.0007 14.8337C11.9881 14.8337 11.1673 14.0129 11.1673 13.0004C11.1673 11.9878 11.9881 11.167 13.0007 11.167C14.0132 11.167 14.834 11.9878 14.834 13.0004Z" stroke="#308F85" stroke-width="1.5" stroke-linecap="round" stroke-linejoin="round"/>
</svg>
