<svg width="24" height="24" viewBox="0 0 24 24" fill="none" xmlns="http://www.w3.org/2000/svg">
<path d="M4.9 14.0998C5.94934 14.0998 6.8 13.2491 6.8 12.1998C6.8 11.1505 5.94934 10.2998 4.9 10.2998C3.85066 10.2998 3 11.1505 3 12.1998C3 13.2491 3.85066 14.0998 4.9 14.0998Z" stroke="current" stroke-width="1.5" stroke-miterlimit="10" stroke-linecap="round" stroke-linejoin="round"/>
<path d="M15.8004 20.4001C16.8497 20.4001 17.7004 19.5494 17.7004 18.5001C17.7004 17.4508 16.8497 16.6001 15.8004 16.6001C14.7511 16.6001 13.9004 17.4508 13.9004 18.5001C13.9004 19.5494 14.7511 20.4001 15.8004 20.4001Z" stroke="current" stroke-width="1.5" stroke-miterlimit="10" stroke-linecap="round" stroke-linejoin="round"/>
<path d="M15.8004 7.8C16.8497 7.8 17.7004 6.94934 17.7004 5.9C17.7004 4.85066 16.8497 4 15.8004 4C14.7511 4 13.9004 4.85066 13.9004 5.9C13.9004 6.94934 14.7511 7.8 15.8004 7.8Z" stroke="current" stroke-width="1.5" stroke-miterlimit="10" stroke-linecap="round" stroke-linejoin="round"/>
<path d="M6.69922 11.1999L14.0992 6.8999" stroke="current" stroke-width="1.5" stroke-miterlimit="10" stroke-linecap="round" stroke-linejoin="round"/>
<path d="M14.0992 17.5002L6.69922 13.2002" stroke="current" stroke-width="1.5" stroke-miterlimit="10" stroke-linecap="round" stroke-linejoin="round"/>
</svg>
