<svg width="33" height="32" viewBox="0 0 33 32" fill="none" xmlns="http://www.w3.org/2000/svg">
<g id="signal-01">
<path id="Icon" d="M22.1562 10.3415C25.2804 13.4657 25.2804 18.5311 22.1562 21.6553M10.8425 21.6552C7.7183 18.531 7.7183 13.4657 10.8425 10.3415M7.07126 25.4265C1.86427 20.2195 1.86427 11.7773 7.07126 6.57031M25.9274 6.57037C31.1344 11.7774 31.1344 20.2196 25.9274 25.4266M19.166 15.9984C19.166 17.4712 17.9721 18.6651 16.4993 18.6651C15.0266 18.6651 13.8327 17.4712 13.8327 15.9984C13.8327 14.5256 15.0266 13.3317 16.4993 13.3317C17.9721 13.3317 19.166 14.5256 19.166 15.9984Z" stroke="#308F85" stroke-width="2" stroke-linecap="round" stroke-linejoin="round"/>
</g>
</svg>
