<svg width="20" height="24" viewBox="0 0 20 24" fill="none" xmlns="http://www.w3.org/2000/svg">
<path d="M9.75 0.375C14.933 0.375 19.1248 4.51042 19.125 9.59961C19.125 12.6946 17.3908 15.0023 15.2705 17.1768C14.7419 17.7189 14.1938 18.2483 13.6455 18.7793C13.0987 19.3089 12.5514 19.8402 12.0322 20.3789C11.1633 21.2805 10.3611 22.2184 9.75 23.2334C9.13885 22.2184 8.33666 21.2805 7.46777 20.3789C6.94856 19.8402 6.40133 19.3089 5.85449 18.7793C5.30615 18.2483 4.7581 17.7189 4.22949 17.1768C2.10918 15.0023 0.375 12.6946 0.375 9.59961C0.375215 4.51042 4.56696 0.375 9.75 0.375Z" fill="white" stroke="#EBF5F4" stroke-width="0.75"/>
<g clip-path="url(#clip0_45003_73410)">
<path d="M8.39941 7.69482C8.27147 7.82869 8.13864 7.9603 8.00488 8.08936C7.85182 8.23703 7.69933 8.38369 7.55664 8.53662C7.27133 8.84242 7.02772 9.16924 6.89453 9.56494C6.70913 10.1164 6.73868 10.7044 6.91895 11.2593H6.91797C6.92853 11.2916 6.96616 11.3909 7.00488 11.4868C7.02411 11.5344 7.04329 11.5802 7.05957 11.6157C7.06776 11.6336 7.07445 11.6483 7.08008 11.6587C7.08724 11.6719 7.08859 11.6711 7.08398 11.6665C7.08042 11.6629 7.07918 11.6626 7.08398 11.6655C7.08759 11.6677 7.09274 11.6708 7.09961 11.6743C7.11393 11.6816 7.13294 11.6899 7.15234 11.6978C7.17183 11.7056 7.19132 11.7126 7.20703 11.7173C7.22562 11.7229 7.23053 11.723 7.22656 11.7231C7.2393 11.7226 7.2613 11.7152 7.2998 11.6997C7.33188 11.6868 7.37719 11.6676 7.41895 11.6597C7.92088 11.5637 8.2743 11.5882 8.75391 11.7651C8.81921 11.7893 8.86451 11.8136 8.89941 11.8335C8.93674 11.8548 8.95174 11.8646 8.96973 11.8716C8.99351 11.8808 9.0273 11.8868 9.17383 11.8423C9.56835 11.7222 9.91313 11.4653 10.2236 11.1841C10.2748 11.1378 10.4855 10.9368 10.6855 10.7388C10.7854 10.6399 10.8826 10.5424 10.9551 10.4663C10.9913 10.4283 11.0203 10.3956 11.041 10.3716C11.0438 10.3684 11.0455 10.3646 11.0479 10.3618C11.0446 10.3574 11.0414 10.3517 11.0371 10.3462C11.0116 10.3136 10.9722 10.2701 10.9229 10.2173C10.8242 10.1118 10.6888 9.97576 10.5479 9.8374C10.4066 9.69876 10.2623 9.56005 10.1436 9.44385C10.0672 9.36908 10.0027 9.30003 9.95605 9.25146C9.72953 9.47016 9.51158 9.69892 9.28809 9.92627C9.04797 10.1705 8.80217 10.4122 8.53906 10.6333C8.52997 10.6409 8.51937 10.6463 8.50781 10.6489C8.36006 10.6824 8.22523 10.6378 8.14844 10.5366C8.07136 10.4349 8.06519 10.292 8.14062 10.1567L8.15234 10.1411L9.49707 8.79248L8.39941 7.69482ZM13.6172 3.51416C13.572 3.5581 13.5155 3.6171 13.459 3.67822C13.4026 3.73919 13.3465 3.80182 13.3018 3.854C13.2553 3.90826 13.2251 3.94599 13.2168 3.95947V3.96045C12.5863 4.98932 13.7884 6.1686 14.8047 5.5249C14.8488 5.49701 14.9544 5.40811 15.0605 5.31006C15.1126 5.26196 15.1639 5.21362 15.2051 5.17139C15.2477 5.12773 15.2765 5.09495 15.2881 5.07764V5.07666C15.2194 5.01516 15.1061 4.90209 14.9746 4.76611C14.8136 4.59965 14.6157 4.39209 14.4238 4.19287C14.2311 3.99279 14.0429 3.79946 13.8955 3.65869C13.8216 3.58812 13.7593 3.53182 13.7129 3.49463C13.6959 3.48106 13.6817 3.47152 13.6709 3.46436C13.6568 3.47632 13.6385 3.49343 13.6172 3.51416ZM16.0557 5.15479C16.0556 5.17397 16.0484 5.19265 16.0352 5.20654C15.8476 5.40342 15.6588 5.62649 15.4521 5.81592C15.2429 6.00763 15.0072 6.17362 14.7129 6.26123C14.2003 6.41367 13.6445 6.33459 13.2002 6.03174L10.4023 8.80615L11.7256 10.1274L11.7344 10.1362L11.6729 10.1802L11.7334 10.1372C11.7869 10.2124 11.8238 10.2836 11.8203 10.3628C11.8186 10.4017 11.8077 10.4385 11.79 10.4741L11.7207 10.5796C11.5923 10.7462 11.3394 11.0093 11.0801 11.2612C10.8202 11.5137 10.5489 11.7598 10.3818 11.894C10.1284 12.0975 9.84987 12.2407 9.56641 12.3765L9.81055 12.7603C9.82982 12.7504 9.8544 12.7373 9.88086 12.7202C9.91193 12.7001 9.94365 12.6784 9.97266 12.6587C9.9994 12.6406 10.0277 12.621 10.0479 12.6108C11.1073 12.0796 12.2965 12.3343 13.0967 13.1694C14.4009 12.7425 15.7287 13.6249 16.0537 14.896C16.0552 14.902 16.0557 14.9083 16.0557 14.9146V15.231C16.0556 15.2724 16.0219 15.3062 15.9805 15.3062H10.7725C10.7621 15.3062 10.7517 15.3035 10.7422 15.2993C10.6431 15.2555 10.5688 15.1698 10.5391 15.0718C10.5088 14.9717 10.5253 14.8574 10.6094 14.7671C10.6198 14.7561 10.6362 14.7451 10.6455 14.7388C10.6581 14.7303 10.6731 14.7202 10.6875 14.7114C10.7018 14.7027 10.7168 14.6944 10.7285 14.688C10.7342 14.6849 10.74 14.6817 10.7451 14.6792C10.7476 14.678 10.7513 14.6767 10.7549 14.6753C10.7567 14.6746 10.7594 14.6733 10.7627 14.6724C10.7649 14.6717 10.7733 14.6694 10.7842 14.6694H15.2803C14.995 14.0948 14.355 13.6582 13.709 13.6987C13.5918 13.7061 13.4854 13.7363 13.3789 13.771C13.2751 13.8048 13.1649 13.8446 13.0537 13.8628C12.9799 13.8749 12.9158 13.869 12.8594 13.8462C12.8036 13.8236 12.7607 13.7873 12.7256 13.7485C12.6913 13.7106 12.6604 13.6662 12.6328 13.6274C12.6041 13.587 12.5768 13.5503 12.5449 13.5181C11.9665 12.934 11.0267 12.8022 10.3047 13.1987C10.2389 13.2349 10.1525 13.3061 10.0625 13.3804C10.019 13.4162 9.97537 13.4531 9.93555 13.4829C9.89721 13.5116 9.85654 13.5386 9.82031 13.5532C9.73381 13.5882 9.65688 13.5981 9.58887 13.5786C9.51974 13.5588 9.47301 13.5128 9.44043 13.4624C9.40871 13.4133 9.38647 13.3547 9.36816 13.3032C9.34879 13.2488 9.33308 13.2021 9.31348 13.1616C8.70833 11.9143 7.00223 11.9364 6.51562 13.2065C6.50303 13.2395 6.49247 13.2782 6.48145 13.3228C6.47075 13.366 6.45921 13.4158 6.44434 13.4624C6.4151 13.5539 6.36736 13.6579 6.26074 13.7104V13.7095C6.17862 13.7501 6.09409 13.7448 6.02441 13.7329C5.99051 13.7271 5.95443 13.7185 5.9248 13.7124C5.89313 13.7059 5.86473 13.7011 5.83887 13.6997C5.15063 13.6613 4.52328 14.064 4.2207 14.6685H8.71484C8.72523 14.6685 8.73371 14.6706 8.73633 14.6714C8.73987 14.6724 8.7433 14.6736 8.74512 14.6743C8.74876 14.6758 8.75243 14.678 8.75488 14.6792C8.75995 14.6817 8.76591 14.6849 8.77148 14.688C8.78311 14.6944 8.79736 14.7028 8.81152 14.7114C8.82576 14.7201 8.841 14.7294 8.85352 14.7378C8.86291 14.7441 8.88021 14.7559 8.89062 14.7671C8.97456 14.8573 8.99112 14.9718 8.96094 15.0718C8.93128 15.1697 8.85686 15.2555 8.75781 15.2993C8.7484 15.3035 8.73782 15.3051 8.72754 15.3052H3.51953C3.47824 15.3052 3.44454 15.2722 3.44434 15.231V14.9146C3.44434 14.9084 3.44576 14.902 3.44727 14.896C3.72585 13.806 4.75013 12.9861 5.89648 13.0562C6.0238 12.6683 6.27052 12.3306 6.5791 12.0718C6.13541 11.1856 5.98327 10.143 6.3584 9.19189C6.53964 8.73226 6.84522 8.35788 7.17871 8.01416C7.34539 7.84237 7.52043 7.6763 7.69141 7.51221C7.86283 7.34768 8.03056 7.1844 8.18457 7.01416L8.19238 7.00537C8.30018 6.91679 8.4424 6.90647 8.55859 6.97314L8.60645 7.00635L8.6123 7.01123H8.61133L9.94336 8.34717H9.94434L12.7168 5.55127C12.3384 4.99466 12.3124 4.26987 12.6416 3.68115C12.7404 3.50458 12.8751 3.37187 12.9883 3.23193L12.9951 3.22314L12.9961 3.22412L13.5449 2.71436L13.5684 2.69971C13.577 2.69627 13.5862 2.69387 13.5957 2.69385H13.7422C13.7629 2.69393 13.7814 2.70271 13.7949 2.71631L16.0342 4.95557C16.0481 4.96957 16.0556 4.98853 16.0557 5.0083V5.15479Z" fill="#308F85" stroke="#308F85" stroke-width="0.15" stroke-linejoin="round"/>
<path d="M9.65625 14.6826C9.75336 14.6567 9.84217 14.6693 9.91309 14.7109C9.98303 14.752 10.031 14.8187 10.0527 14.8916C10.0963 15.0384 10.0383 15.2192 9.85254 15.2998L9.83789 15.3057H9.66309L9.64941 15.3008C9.50894 15.2462 9.43527 15.113 9.43262 14.9863C9.42997 14.8576 9.50135 14.7243 9.65625 14.6826Z" fill="#308F85" stroke="#308F85" stroke-width="0.15"/>
</g>
<defs>
<clipPath id="clip0_45003_73410">
<rect width="13.5" height="13.5" fill="white" transform="translate(3 2.25)"/>
</clipPath>
</defs>
</svg>
