<svg width="26" height="26" viewBox="0 0 26 26" fill="none" xmlns="http://www.w3.org/2000/svg">
<circle cx="13" cy="13" r="12.5" fill="white" stroke="#F2FAF5"/>
<g clip-path="url(#clip0_41542_97671)">
<path d="M11.3496 10.6675C11.1948 10.8291 11.0335 10.9873 10.8721 11.1431C10.6849 11.3236 10.4994 11.5032 10.3252 11.6899C10.0204 12.0166 9.75429 12.3619 9.58398 12.7661L9.51758 12.9429C9.29163 13.615 9.32693 14.3324 9.54688 15.0093L9.65234 15.2856C9.67587 15.3439 9.69889 15.4005 9.71875 15.4438C9.72867 15.4655 9.73741 15.4831 9.74414 15.4956C9.74507 15.4973 9.74535 15.4992 9.74609 15.5005C9.75032 15.5031 9.75631 15.507 9.76465 15.5112C9.78193 15.52 9.80452 15.53 9.82812 15.5396C9.85185 15.5491 9.8756 15.5583 9.89453 15.564C9.91738 15.5708 9.92189 15.5696 9.91504 15.5698L10.002 15.5425C10.0408 15.5268 10.0972 15.5026 10.1494 15.4927L10.3721 15.4556C10.875 15.3856 11.2709 15.4319 11.7852 15.6216L11.8887 15.6655C11.9179 15.6795 11.9424 15.6933 11.9639 15.7056C12.0106 15.7322 12.0284 15.7442 12.0498 15.7524C12.0759 15.7624 12.1152 15.7694 12.293 15.7153L12.4707 15.6528C12.8781 15.4905 13.2415 15.214 13.5732 14.9136L14.1377 14.3687C14.2597 14.2479 14.3773 14.1285 14.4658 14.0356C14.5102 13.9891 14.547 13.9506 14.5723 13.9214C14.5738 13.9196 14.5747 13.9172 14.5762 13.9155C14.573 13.9113 14.5704 13.9059 14.5664 13.9009C14.5354 13.8613 14.4882 13.8073 14.4277 13.7427C14.3073 13.6139 14.141 13.4489 13.9688 13.2798C13.796 13.1102 13.6208 12.9395 13.4756 12.7974C13.3859 12.7095 13.3068 12.6307 13.25 12.5718C12.9761 12.8366 12.7111 13.1119 12.4404 13.3872C12.2202 13.6112 11.9967 13.834 11.7627 14.0454L11.5254 14.2524C11.5132 14.2627 11.4989 14.2704 11.4834 14.2739C11.3001 14.3154 11.1313 14.2601 11.0352 14.1333C10.9387 14.006 10.932 13.8282 11.0254 13.6606L11.042 13.6382L12.6797 11.9966L11.3496 10.6675ZM17.7324 5.55029C17.6774 5.6038 17.6091 5.67582 17.54 5.75049C17.4711 5.82511 17.4023 5.90247 17.3477 5.96631L17.2441 6.09424C16.4775 7.34436 17.9389 8.77809 19.1738 7.99561L19.3008 7.89697C19.3557 7.85076 19.4204 7.79383 19.4854 7.73389C19.5489 7.6752 19.6109 7.61543 19.6611 7.56396C19.7095 7.51438 19.7415 7.47599 19.7568 7.45459C19.6719 7.37778 19.5352 7.24319 19.3789 7.08154C19.1822 6.87817 18.9414 6.62371 18.707 6.38037C18.4714 6.13574 18.2406 5.9 18.0605 5.72803C17.9703 5.64179 17.8944 5.57306 17.8379 5.52783C17.8197 5.51331 17.8041 5.50294 17.792 5.49463C17.7758 5.50865 17.7558 5.52756 17.7324 5.55029ZM20.7158 7.55029C20.7157 7.57585 20.7051 7.60014 20.6875 7.61865C20.4588 7.85877 20.2285 8.13295 19.9756 8.36475C19.7513 8.57026 19.5012 8.75152 19.2002 8.86572L19.0674 8.91064C18.4405 9.09693 17.7592 9.00328 17.2148 8.63428L13.8086 12.0122L15.4209 13.6216L15.4316 13.6343C15.4972 13.7264 15.5425 13.8159 15.5381 13.9155C15.5348 13.9891 15.5049 14.0556 15.4619 14.1206L15.415 14.186C15.2576 14.3903 14.9477 14.7112 14.6309 15.019C14.4721 15.1733 14.3102 15.3261 14.1621 15.4604L13.7773 15.7935C13.4694 16.0408 13.1317 16.2165 12.7881 16.3813L13.0771 16.8345C13.0989 16.8229 13.1263 16.8083 13.1553 16.7896C13.1931 16.7651 13.2311 16.7384 13.2666 16.7144C13.2992 16.6923 13.3351 16.6685 13.3604 16.6558L13.6084 16.5435C14.8392 16.0476 16.1736 16.3806 17.0918 17.3354C18.6894 16.8155 20.3139 17.8978 20.7119 19.4536C20.714 19.4617 20.7148 19.4706 20.7148 19.479V19.8657C20.7147 19.9208 20.6703 19.9653 20.6152 19.9653H14.249C14.2352 19.9653 14.2217 19.9621 14.209 19.9565C14.0857 19.902 13.993 19.7955 13.9561 19.6733C13.9183 19.5485 13.9389 19.4062 14.0439 19.2935L14.0898 19.2563C14.1053 19.2459 14.1241 19.2348 14.1416 19.2241C14.1592 19.2134 14.1769 19.2028 14.1914 19.1948C14.1983 19.191 14.2055 19.1872 14.2119 19.1841C14.215 19.1826 14.2198 19.1801 14.2246 19.1782C14.227 19.1773 14.2308 19.1756 14.2354 19.1743C14.2384 19.1735 14.2494 19.1704 14.2637 19.1704H19.7451C19.418 18.5228 18.7209 18.0222 17.9941 17.9985L17.8389 18.0005C17.6968 18.0094 17.5675 18.046 17.4375 18.0884C17.3742 18.109 17.3089 18.1325 17.2422 18.1528L17.0391 18.2017C16.9476 18.2167 16.8675 18.2087 16.7969 18.1802C16.7274 18.152 16.6742 18.107 16.6309 18.0591C16.5885 18.0122 16.5502 17.9568 16.5166 17.9097L16.4102 17.7769C15.7058 17.066 14.5607 16.9054 13.6816 17.3882L13.6826 17.3892C13.603 17.4329 13.498 17.5198 13.3877 17.6108C13.3346 17.6547 13.2803 17.6983 13.2314 17.7349C13.2078 17.7526 13.1835 17.7703 13.1592 17.7856L13.0889 17.8228C12.9821 17.8659 12.8854 17.8795 12.7998 17.855C12.7129 17.83 12.6547 17.771 12.6143 17.7085C12.5749 17.6476 12.5478 17.575 12.5254 17.5122L12.459 17.3394C11.7451 15.8685 9.77483 15.8491 9.11426 17.2534L9.05469 17.394C9.03945 17.4339 9.02719 17.4809 9.01367 17.5356C9.00063 17.5884 8.98606 17.6493 8.96777 17.7065C8.93635 17.8049 8.88668 17.9164 8.78516 17.9868L8.73828 18.0142C8.63564 18.0648 8.53086 18.0571 8.44531 18.0425C8.40343 18.0353 8.35836 18.0245 8.32227 18.0171C8.28391 18.0092 8.25052 18.0041 8.21973 18.0024L8.21875 18.0015C7.38546 17.9551 6.62437 18.4405 6.25391 19.1704H11.7354C11.7496 19.1705 11.7608 19.1735 11.7637 19.1743C11.7682 19.1756 11.7721 19.1773 11.7744 19.1782C11.7789 19.18 11.7831 19.1816 11.7861 19.1831C11.7926 19.1863 11.8006 19.1899 11.8076 19.1938C11.8221 19.2018 11.8398 19.2124 11.8574 19.2231C11.8751 19.2339 11.8937 19.2459 11.9092 19.2563L11.9551 19.2925L11.9902 19.3364C12.064 19.4408 12.0758 19.5632 12.043 19.6724C12.0061 19.7946 11.9136 19.9019 11.79 19.9565C11.7774 19.9621 11.7638 19.9653 11.75 19.9653H5.38477C5.32954 19.9653 5.28516 19.92 5.28516 19.8647V19.478C5.28518 19.4698 5.28604 19.4616 5.28809 19.4536C5.62897 18.1198 6.88127 17.1172 8.28418 17.1997C8.44014 16.7283 8.73977 16.3179 9.11426 16.0024C8.57333 14.919 8.38895 13.6451 8.84766 12.4819L8.9375 12.2749C9.16338 11.804 9.49372 11.4064 9.85059 11.0386C10.0544 10.8285 10.2696 10.6258 10.4785 10.4253C10.6879 10.2243 10.8922 10.0246 11.0801 9.81689L11.0908 9.80615C11.2251 9.69568 11.402 9.68239 11.5469 9.76514L11.6074 9.80615L11.6152 9.81299H11.6143L13.2363 11.4399L16.6152 8.03369C16.1546 7.35145 16.1235 6.46488 16.5264 5.74463L16.625 5.59131C16.7294 5.44597 16.849 5.32246 16.9521 5.19482L16.9619 5.18408L17.6318 4.56104L17.6641 4.5415C17.6755 4.53703 17.6877 4.53468 17.7002 4.53467H17.8789L17.918 4.54248C17.9298 4.54755 17.9402 4.55497 17.9492 4.56396L20.6865 7.30029C20.7053 7.31905 20.7158 7.34506 20.7158 7.37158V7.55029Z" fill="#308F85" stroke="#308F85" stroke-width="0.2" stroke-linejoin="round"/>
<path d="M12.9717 19.1719C13.0578 19.165 13.1366 19.1835 13.2031 19.2227C13.2906 19.2741 13.3498 19.3574 13.377 19.4482C13.4314 19.6314 13.3593 19.8567 13.1279 19.957L13.1084 19.9648H12.8906L12.873 19.958C12.698 19.8898 12.6068 19.7241 12.6035 19.5664C12.6003 19.4058 12.689 19.2395 12.8828 19.1875L12.9717 19.1719Z" fill="#308F85" stroke="#308F85" stroke-width="0.2"/>
</g>
<defs>
<clipPath id="clip0_41542_97671">
<rect width="16.5" height="16.5" fill="white" transform="translate(4.75 4)"/>
</clipPath>
</defs>
</svg>
