<svg width="20" height="24" viewBox="0 0 20 24" fill="none" xmlns="http://www.w3.org/2000/svg">
<path d="M9.75 0.375C14.933 0.375 19.1248 4.51042 19.125 9.59961C19.125 12.6946 17.3908 15.0023 15.2705 17.1768C14.7419 17.7189 14.1938 18.2483 13.6455 18.7793C13.0987 19.3089 12.5514 19.8402 12.0322 20.3789C11.1633 21.2805 10.3611 22.2184 9.75 23.2334C9.13885 22.2184 8.33666 21.2805 7.46777 20.3789C6.94856 19.8402 6.40133 19.3089 5.85449 18.7793C5.30615 18.2483 4.7581 17.7189 4.22949 17.1768C2.10918 15.0023 0.375 12.6946 0.375 9.59961C0.375215 4.51042 4.56696 0.375 9.75 0.375Z" fill="#8F26F0" stroke="#F4E8FF" stroke-width="0.75"/>
<g clip-path="url(#clip0_45003_73416)">
<path d="M8.18555 7.73291C8.06631 7.85988 7.94282 7.98466 7.81934 8.10693C7.67013 8.25467 7.52227 8.40088 7.38379 8.55322C7.10706 8.85766 6.87143 9.18078 6.74316 9.57178C6.5643 10.1178 6.59309 10.7013 6.76758 11.2524L6.85059 11.478C6.86924 11.5254 6.88767 11.5709 6.90332 11.606C6.91094 11.623 6.91681 11.6373 6.92188 11.647C6.92445 11.6485 6.92759 11.6507 6.93164 11.6528C6.94479 11.6597 6.96207 11.6677 6.98047 11.6753C6.99894 11.6829 7.01699 11.6895 7.03125 11.6938C7.0371 11.6956 7.04176 11.696 7.04492 11.6968C7.04827 11.6961 7.05293 11.6957 7.05859 11.6938C7.07049 11.69 7.0844 11.6843 7.10156 11.6772C7.13142 11.6649 7.17931 11.6439 7.22363 11.6353C7.71778 11.5383 8.06762 11.5639 8.54004 11.7427C8.60535 11.7675 8.65066 11.7916 8.68555 11.812C8.72437 11.8347 8.73592 11.8431 8.75098 11.8491C8.76397 11.8543 8.78857 11.8622 8.93066 11.8179C9.30895 11.6996 9.64168 11.4469 9.94336 11.1665C9.99294 11.1205 10.1978 10.9192 10.3926 10.7212C10.4896 10.6226 10.5831 10.5254 10.6533 10.4497C10.6862 10.4143 10.7128 10.3838 10.7324 10.3608C10.7082 10.3292 10.6711 10.2856 10.623 10.2329C10.5273 10.1278 10.3951 9.99331 10.2578 9.85498C10.12 9.7161 9.98033 9.57704 9.86426 9.46045C9.80063 9.39653 9.74535 9.33599 9.70117 9.28955C9.48809 9.50171 9.28171 9.72216 9.07031 9.94287C8.83625 10.1872 8.59621 10.4299 8.33887 10.6519C8.32675 10.6622 8.3124 10.6697 8.29688 10.6733C8.143 10.7091 7.99877 10.6611 7.91699 10.5503C7.8357 10.4398 7.8312 10.2877 7.9082 10.146L7.92383 10.1235L9.21777 8.79248L8.18555 7.73291ZM13.2881 3.53076C13.2445 3.5742 13.1906 3.6329 13.1357 3.69385C13.0808 3.75479 13.0259 3.81758 12.9824 3.86963C12.9366 3.92455 12.9091 3.96086 12.9023 3.97217C12.6009 4.4765 12.7359 5.01548 13.0703 5.35303C13.4044 5.69015 13.9283 5.81767 14.4102 5.50439C14.4507 5.47805 14.5525 5.39085 14.6562 5.29248C14.7066 5.24477 14.7553 5.19648 14.7949 5.15479C14.8262 5.1219 14.8478 5.09487 14.8613 5.07764C14.7924 5.01235 14.6874 4.90699 14.5703 4.78271C14.4136 4.61639 14.2208 4.4083 14.0342 4.20947C13.8464 4.00934 13.6627 3.81665 13.5195 3.67627C13.4478 3.60598 13.3881 3.55058 13.3438 3.51416C13.3359 3.50773 13.3285 3.50232 13.3223 3.49756C13.3123 3.50685 13.3008 3.51805 13.2881 3.53076ZM15.6719 5.15479C15.6718 5.17994 15.6616 5.20372 15.6445 5.22217C15.4634 5.41738 15.2783 5.6433 15.0762 5.8335C14.8708 6.02668 14.637 6.19528 14.3447 6.28467C13.8445 6.43736 13.3021 6.36175 12.8652 6.06494L10.1719 8.80615L11.4453 10.1108L11.4561 10.1235C11.509 10.1999 11.5487 10.2767 11.5449 10.3638C11.5412 10.4492 11.4958 10.523 11.4424 10.5942C11.316 10.7625 11.0688 11.0262 10.8164 11.2778C10.6898 11.4041 10.5597 11.529 10.4414 11.6392L10.1338 11.9126C9.89168 12.1122 9.62676 12.2546 9.3584 12.3872L9.56934 12.7251C9.58189 12.7176 9.597 12.7099 9.6123 12.6997C9.64221 12.6799 9.67268 12.659 9.70117 12.6392C9.72663 12.6214 9.75571 12.6006 9.77734 12.5894L9.97754 12.4966C10.9633 12.089 12.0307 12.3606 12.7676 13.1392C14.0525 12.7182 15.35 13.6146 15.668 14.8901C15.6699 14.898 15.6709 14.9064 15.6709 14.9146V15.231C15.6709 15.2862 15.6265 15.3306 15.5713 15.3306H10.4961C10.4819 15.3305 10.468 15.3276 10.4551 15.3218C10.3511 15.2745 10.274 15.1829 10.2432 15.0786C10.2118 14.972 10.2281 14.8489 10.3164 14.7515L10.3564 14.7183C10.3691 14.7095 10.3843 14.6998 10.3984 14.6909C10.4127 14.682 10.4276 14.6732 10.4395 14.6665C10.4452 14.6632 10.4513 14.6596 10.457 14.6567C10.4597 14.6554 10.4642 14.6537 10.4688 14.6519C10.471 14.6509 10.475 14.6493 10.4795 14.6479C10.4829 14.647 10.4938 14.6441 10.5078 14.644H14.8457C14.5822 14.1315 14.0417 13.7401 13.4814 13.7212L13.3594 13.7231C13.2491 13.7302 13.1483 13.7599 13.0449 13.7944C12.9454 13.8277 12.8356 13.8685 12.7246 13.8872C12.6481 13.9001 12.5802 13.8938 12.5195 13.8687C12.4599 13.8439 12.4147 13.8047 12.3789 13.7642C12.3442 13.7248 12.3136 13.6783 12.2871 13.6401C12.2593 13.6 12.2334 13.5651 12.2041 13.5347C11.649 12.9594 10.7468 12.83 10.0547 13.2202C9.9934 13.2549 9.91173 13.324 9.82324 13.3989C9.78096 13.4347 9.73766 13.4712 9.69824 13.5015C9.66074 13.5303 9.61913 13.5604 9.58008 13.5767C9.49239 13.6131 9.40981 13.6251 9.33496 13.603C9.25899 13.5806 9.20936 13.5283 9.17578 13.4751C9.14321 13.4234 9.12034 13.3624 9.10254 13.311L9.05078 13.1714C8.76037 12.557 8.2057 12.2578 7.66895 12.2651C7.13346 12.2726 6.60999 12.5853 6.375 13.2144C6.36324 13.2459 6.35357 13.2838 6.34277 13.3286C6.33245 13.3715 6.32044 13.4217 6.30566 13.4692C6.28412 13.5384 6.25082 13.6189 6.1875 13.6792L6.11328 13.7319C6.02496 13.7768 5.93494 13.7696 5.86523 13.7573C5.83148 13.7514 5.79444 13.7427 5.7666 13.7368C5.73634 13.7304 5.71125 13.7254 5.68848 13.7241H5.6875C5.04321 13.6874 4.45242 14.0669 4.15527 14.644H8.49219C8.50621 14.6441 8.51709 14.647 8.52051 14.6479C8.52497 14.6493 8.52898 14.6509 8.53125 14.6519C8.5358 14.6537 8.54026 14.6554 8.54297 14.6567C8.54867 14.6596 8.55477 14.6632 8.56055 14.6665C8.57244 14.6732 8.58733 14.682 8.60156 14.6909C8.61571 14.6998 8.63093 14.7095 8.64355 14.7183L8.68359 14.7505L8.73633 14.8276C8.77713 14.9084 8.7804 14.9974 8.75684 15.0776C8.72611 15.1821 8.64926 15.2745 8.54492 15.3218C8.53204 15.3276 8.51804 15.3305 8.50391 15.3306H3.42969C3.37459 15.3306 3.33028 15.286 3.33008 15.231V14.9146C3.33008 14.9064 3.33105 14.898 3.33301 14.8901C3.60503 13.7978 4.60218 12.9711 5.72656 13.0308C5.85176 12.652 6.08623 12.3218 6.37891 12.0659C5.95048 11.1789 5.80487 10.1368 6.1709 9.18408C6.34915 8.72014 6.64875 8.34226 6.97461 7.99756C7.13728 7.82549 7.30838 7.65934 7.47461 7.49561C7.64171 7.33101 7.80462 7.16717 7.9541 6.99756C7.9573 6.99394 7.96116 6.99092 7.96484 6.98779C8.07887 6.89146 8.23022 6.8793 8.35352 6.95166L8.4043 6.98779L8.41211 6.99365L8.41113 6.99463L9.68945 8.31006L12.3574 5.54834C11.9938 4.98625 11.9721 4.25996 12.2939 3.66943C12.3916 3.49047 12.5269 3.3543 12.6348 3.21729L12.6436 3.20654L13.1787 2.69678L13.2109 2.67627C13.2225 2.67168 13.2353 2.66943 13.248 2.66943H13.3896C13.4179 2.66943 13.4437 2.68083 13.4619 2.69971L15.6436 4.93896C15.6616 4.95756 15.6718 4.98242 15.6719 5.0083V5.15479Z" fill="#F4E8FF" stroke="#F4E8FF" stroke-width="0.2" stroke-linejoin="round"/>
<path d="M9.40332 14.6592C9.50488 14.6313 9.59953 14.6435 9.67578 14.6895C9.75045 14.7345 9.79965 14.807 9.82227 14.8848C9.86765 15.0409 9.80843 15.2354 9.61328 15.3223L9.59375 15.3311H9.41113L9.39355 15.3232C9.24456 15.2638 9.1687 15.1203 9.16602 14.9863C9.1634 14.85 9.23731 14.7049 9.40332 14.6592Z" fill="#F4E8FF" stroke="#F4E8FF" stroke-width="0.2"/>
</g>
<defs>
<clipPath id="clip0_45003_73416">
<rect width="13.1538" height="13.5" fill="white" transform="translate(2.92383 2.25)"/>
</clipPath>
</defs>
</svg>
