<svg width="26" height="32" viewBox="0 0 26 32" fill="none" xmlns="http://www.w3.org/2000/svg">
<path d="M13 0.5C19.9108 0.5 25.4999 6.01407 25.5 12.7998C25.5 16.9265 23.1874 20.0031 20.3604 22.9023C19.6555 23.6252 18.9245 24.331 18.1934 25.0391C17.4641 25.7453 16.7344 26.4534 16.042 27.1719C14.8844 28.3731 13.8146 29.6215 13 30.9736C12.1854 29.6215 11.1156 28.3731 9.95801 27.1719C9.26562 26.4534 8.53588 25.7453 7.80664 25.0391C7.0755 24.331 6.34448 23.6252 5.63965 22.9023C2.81257 20.0031 0.5 16.9265 0.5 12.7998C0.500107 6.01407 6.08917 0.5 13 0.5Z" fill="#3A0070" stroke="#F4E8FF"/>
<g clip-path="url(#clip0_45003_73347)">
<path d="M11.1982 10.2593C11.0274 10.438 10.8495 10.6134 10.6709 10.7856C10.4668 10.9825 10.2645 11.1784 10.0742 11.3823C9.69376 11.7901 9.36898 12.2257 9.19141 12.7534C8.94425 13.4887 8.98331 14.2724 9.22363 15.0122C9.2377 15.0552 9.28633 15.1872 9.33789 15.3149C9.36358 15.3786 9.38938 15.4404 9.41113 15.4878C9.42202 15.5115 9.43197 15.5306 9.43945 15.5444C9.44154 15.5483 9.44205 15.552 9.44336 15.5542C9.44828 15.5572 9.45618 15.561 9.46582 15.5659C9.48491 15.5756 9.50936 15.5867 9.53516 15.5972C9.56122 15.6077 9.58741 15.6172 9.6084 15.6235C9.6223 15.6277 9.63034 15.6296 9.63379 15.6304C9.6507 15.6297 9.67992 15.6209 9.73145 15.6001C9.7529 15.5914 9.77912 15.5808 9.80664 15.5708L9.8916 15.5454C10.5603 15.4177 11.0309 15.4514 11.6699 15.687C11.757 15.7192 11.8177 15.7503 11.8643 15.7769C11.9147 15.8056 11.9348 15.8193 11.959 15.8286C11.9907 15.8408 12.0356 15.8478 12.2305 15.7886C12.7565 15.6285 13.2169 15.2875 13.6309 14.9126C13.6991 14.8509 13.9793 14.582 14.2461 14.3179C14.3792 14.1861 14.5079 14.056 14.6045 13.9546C14.6529 13.9037 14.693 13.8607 14.7207 13.8286C14.7241 13.8247 14.7266 13.8204 14.7295 13.8169C14.725 13.8108 14.7209 13.8031 14.7148 13.7954C14.6808 13.7519 14.6285 13.6932 14.5625 13.6226C14.431 13.4819 14.2504 13.3012 14.0625 13.1167C13.8741 12.9317 13.6818 12.7463 13.5234 12.5913C13.4217 12.4917 13.3336 12.4021 13.2715 12.3374C12.9702 12.6284 12.6801 12.9324 12.3828 13.2349C12.0628 13.5604 11.7355 13.8825 11.3848 14.1772C11.3727 14.1874 11.3582 14.1952 11.3428 14.1987C11.1457 14.2434 10.9656 14.1834 10.8633 14.0483C10.7605 13.9127 10.752 13.7228 10.8525 13.5425C10.857 13.5346 10.8627 13.5274 10.8691 13.521L12.6621 11.7231L11.1982 10.2593ZM18.1553 4.68506C18.095 4.74368 18.0198 4.82217 17.9443 4.90381C17.869 4.98529 17.7941 5.06944 17.7344 5.13916C17.6724 5.21146 17.6331 5.26185 17.6221 5.27979H17.6211C16.7797 6.65181 18.3839 8.22544 19.7393 7.3667C19.7982 7.32935 19.9386 7.21024 20.0801 7.07959C20.1493 7.01568 20.2167 6.95117 20.2715 6.89502C20.328 6.83712 20.3662 6.7932 20.3818 6.77002L20.3828 6.76709C20.2912 6.68494 20.1396 6.53568 19.9648 6.35498C19.7503 6.13308 19.4872 5.8559 19.2314 5.59033C18.9744 5.32345 18.7219 5.06617 18.5254 4.87842C18.427 4.7844 18.3441 4.70922 18.2822 4.65967C18.2598 4.64171 18.2409 4.62917 18.2266 4.61963C18.2078 4.63556 18.1835 4.65758 18.1553 4.68506ZM21.4072 6.87256C21.4072 6.89824 21.3966 6.9233 21.3789 6.94189C21.129 7.2043 20.878 7.50189 20.6025 7.75439C20.3236 8.01004 20.0085 8.23127 19.6162 8.34814C18.9322 8.55158 18.1884 8.44817 17.5957 8.04346L13.8682 11.7407L15.6328 13.5034L15.6436 13.5161C15.7148 13.6163 15.7635 13.7113 15.7588 13.8169C15.7553 13.8948 15.7232 13.9654 15.6768 14.0356L15.626 14.106C15.4548 14.3281 15.118 14.6784 14.7725 15.0142C14.4258 15.351 14.0636 15.6799 13.8408 15.8589C13.5028 16.1303 13.132 16.3223 12.7539 16.5034L13.0791 17.0142C13.1048 17.0011 13.1374 16.9834 13.1729 16.9604C13.2142 16.9337 13.2563 16.9046 13.2949 16.8784C13.3305 16.8543 13.3686 16.8285 13.3955 16.8149H13.3965C14.8086 16.1071 16.3931 16.4455 17.46 17.5581C19.199 16.9884 20.9698 18.166 21.4033 19.8608C21.4054 19.8689 21.4062 19.8779 21.4062 19.8862V20.3081C21.406 20.3631 21.3616 20.4076 21.3066 20.4077H14.3613C14.3475 20.4077 14.3339 20.4045 14.3213 20.3989C14.1891 20.3404 14.0903 20.226 14.0508 20.0952C14.0105 19.962 14.0317 19.8103 14.1436 19.6899C14.1574 19.6751 14.1798 19.6593 14.1924 19.6509C14.2092 19.6396 14.2299 19.6274 14.249 19.6157C14.2681 19.6041 14.2871 19.5921 14.3027 19.5835C14.3104 19.5793 14.3183 19.5751 14.3252 19.5718C14.3284 19.5702 14.3331 19.5688 14.3379 19.5669C14.3402 19.566 14.3441 19.5643 14.3486 19.563C14.3516 19.5622 14.3634 19.5591 14.3779 19.5591H20.3721C19.9917 18.793 19.1386 18.2101 18.2773 18.2642H18.2764C18.1203 18.274 17.9788 18.3146 17.8369 18.3608C17.6986 18.4059 17.5524 18.4596 17.4043 18.4839C17.3057 18.5001 17.2199 18.4919 17.1445 18.4614C17.0701 18.4313 17.0127 18.3824 16.9658 18.3306C16.9201 18.28 16.8795 18.221 16.8428 18.1694C16.8044 18.1156 16.7681 18.0659 16.7256 18.0229C15.9543 17.2445 14.7008 17.0695 13.7383 17.5981C13.6506 17.6464 13.5359 17.7414 13.416 17.8403C13.3581 17.8882 13.2992 17.9363 13.2461 17.9761C13.195 18.0143 13.1411 18.0512 13.0928 18.0708C12.9774 18.1175 12.8739 18.131 12.7832 18.105C12.6913 18.0785 12.6293 18.0167 12.5859 17.9497C12.5437 17.8843 12.5146 17.8063 12.4902 17.7378C12.4643 17.665 12.4432 17.6024 12.417 17.5483C11.6101 15.8853 9.33532 15.9154 8.68652 17.6089C8.66972 17.6529 8.65632 17.7046 8.6416 17.7642C8.62734 17.8219 8.61163 17.8876 8.5918 17.9497C8.55767 18.0565 8.50377 18.1754 8.39551 18.2505L8.3457 18.2798C8.23632 18.3338 8.12405 18.3259 8.03125 18.3101C7.98586 18.3023 7.93705 18.2909 7.89746 18.2827C7.85545 18.2741 7.81852 18.268 7.78418 18.2661C6.86652 18.2149 6.03039 18.7521 5.62695 19.5581H11.6191C11.6334 19.5582 11.6445 19.5612 11.6475 19.562C11.652 19.5633 11.6558 19.565 11.6582 19.5659C11.663 19.5678 11.6676 19.5702 11.6709 19.5718C11.6778 19.5751 11.6857 19.5793 11.6934 19.5835C11.709 19.5921 11.7289 19.6031 11.748 19.6147C11.7672 19.6264 11.7869 19.6396 11.8037 19.6509L11.8525 19.689L11.8906 19.7358C11.9692 19.8473 11.9815 19.9786 11.9463 20.0952C11.9067 20.226 11.8071 20.3405 11.6748 20.3989C11.6622 20.4044 11.6485 20.4077 11.6348 20.4077H4.69141C4.63618 20.4077 4.5918 20.3624 4.5918 20.3071V19.8853C4.59181 19.877 4.59269 19.8688 4.59473 19.8608C4.96622 18.4073 6.33258 17.3149 7.86133 17.4087C8.03111 16.8911 8.35968 16.4404 8.77148 16.0952C8.17989 14.9137 7.97636 13.5235 8.47656 12.2554C8.71826 11.6426 9.12567 11.1433 9.57031 10.6851C9.79255 10.456 10.0259 10.2349 10.2539 10.0161C10.4826 9.79662 10.7057 9.5782 10.9111 9.35107C10.9144 9.3475 10.9182 9.34438 10.9219 9.34131C11.086 9.20624 11.3095 9.20632 11.4736 9.34131L11.4814 9.34717V9.34814L13.2568 11.1294L16.9541 7.40088C16.45 6.65878 16.4155 5.69248 16.8545 4.90771C16.9863 4.67222 17.1665 4.49577 17.3174 4.30908L17.3271 4.29834L18.0586 3.61865L18.0898 3.59912C18.1014 3.59454 18.1143 3.59229 18.127 3.59229H18.3213C18.3489 3.59231 18.3735 3.60348 18.3916 3.62158L21.3779 6.60693C21.3966 6.62568 21.4072 6.65174 21.4072 6.67822V6.87256Z" fill="#F4E8FF" stroke="#F4E8FF" stroke-width="0.2" stroke-linejoin="round"/>
<path d="M12.876 19.5767C13.0056 19.542 13.1242 19.5582 13.2188 19.6138C13.312 19.6686 13.3753 19.7578 13.4043 19.855C13.4626 20.0507 13.3854 20.2913 13.1377 20.3989L13.1182 20.4077H12.8838L12.8672 20.4009C12.6798 20.328 12.5816 20.1499 12.5781 19.981C12.5748 19.8094 12.6694 19.6321 12.876 19.5767Z" fill="#F4E8FF" stroke="#F4E8FF" stroke-width="0.2"/>
</g>
<defs>
<clipPath id="clip0_45003_73347">
<rect width="18" height="18" fill="white" transform="translate(4 3)"/>
</clipPath>
</defs>
</svg>
