<svg width="24" height="24" viewBox="0 0 24 24" fill="none" xmlns="http://www.w3.org/2000/svg">
<circle cx="12" cy="12" r="12" fill="white"/>
<g clip-path="url(#clip0_41542_97671)">
<path d="M10.3496 9.66748C10.1948 9.82909 10.0335 9.98732 9.87207 10.1431C9.68494 10.3236 9.49944 10.5032 9.3252 10.6899C9.02041 11.0166 8.75429 11.3619 8.58398 11.7661L8.51758 11.9429C8.29163 12.615 8.32693 13.3324 8.54688 14.0093L8.65234 14.2856C8.67587 14.3439 8.69889 14.4005 8.71875 14.4438C8.72867 14.4655 8.73741 14.4831 8.74414 14.4956C8.74507 14.4973 8.74535 14.4992 8.74609 14.5005C8.75032 14.5031 8.75631 14.507 8.76465 14.5112C8.78193 14.52 8.80452 14.53 8.82812 14.5396C8.85185 14.5491 8.8756 14.5583 8.89453 14.564C8.91738 14.5708 8.92189 14.5696 8.91504 14.5698L9.00195 14.5425C9.04082 14.5268 9.0972 14.5026 9.14941 14.4927L9.37207 14.4556C9.87497 14.3856 10.2709 14.4319 10.7852 14.6216L10.8887 14.6655C10.9179 14.6795 10.9424 14.6933 10.9639 14.7056C11.0106 14.7322 11.0284 14.7442 11.0498 14.7524C11.0759 14.7624 11.1152 14.7694 11.293 14.7153L11.4707 14.6528C11.8781 14.4905 12.2415 14.214 12.5732 13.9136L13.1377 13.3687C13.2597 13.2479 13.3773 13.1285 13.4658 13.0356C13.5102 12.9891 13.547 12.9506 13.5723 12.9214C13.5738 12.9196 13.5747 12.9172 13.5762 12.9155C13.573 12.9113 13.5704 12.9059 13.5664 12.9009C13.5354 12.8613 13.4882 12.8073 13.4277 12.7427C13.3073 12.6139 13.141 12.4489 12.9688 12.2798C12.796 12.1102 12.6208 11.9395 12.4756 11.7974C12.3859 11.7095 12.3068 11.6307 12.25 11.5718C11.9761 11.8366 11.7111 12.1119 11.4404 12.3872C11.2202 12.6112 10.9967 12.834 10.7627 13.0454L10.5254 13.2524C10.5132 13.2627 10.4989 13.2704 10.4834 13.2739C10.3001 13.3154 10.1313 13.2601 10.0352 13.1333C9.93869 13.006 9.93204 12.8282 10.0254 12.6606L10.042 12.6382L11.6797 10.9966L10.3496 9.66748ZM16.7324 4.55029C16.6774 4.6038 16.6091 4.67582 16.54 4.75049C16.4711 4.82511 16.4023 4.90247 16.3477 4.96631L16.2441 5.09424C15.4775 6.34436 16.9389 7.77809 18.1738 6.99561L18.3008 6.89697C18.3557 6.85076 18.4204 6.79383 18.4854 6.73389C18.5489 6.6752 18.6109 6.61543 18.6611 6.56396C18.7095 6.51438 18.7415 6.47599 18.7568 6.45459C18.6719 6.37778 18.5352 6.24319 18.3789 6.08154C18.1822 5.87817 17.9414 5.62371 17.707 5.38037C17.4714 5.13574 17.2406 4.9 17.0605 4.72803C16.9703 4.64179 16.8944 4.57306 16.8379 4.52783C16.8197 4.51331 16.8041 4.50294 16.792 4.49463C16.7758 4.50865 16.7558 4.52756 16.7324 4.55029ZM19.7158 6.55029C19.7157 6.57585 19.7051 6.60014 19.6875 6.61865C19.4588 6.85877 19.2285 7.13295 18.9756 7.36475C18.7513 7.57026 18.5012 7.75152 18.2002 7.86572L18.0674 7.91064C17.4405 8.09693 16.7592 8.00328 16.2148 7.63428L12.8086 11.0122L14.4209 12.6216L14.4316 12.6343C14.4972 12.7264 14.5425 12.8159 14.5381 12.9155C14.5348 12.9891 14.5049 13.0556 14.4619 13.1206L14.415 13.186C14.2576 13.3903 13.9477 13.7112 13.6309 14.019C13.4721 14.1733 13.3102 14.3261 13.1621 14.4604L12.7773 14.7935C12.4694 15.0408 12.1317 15.2165 11.7881 15.3813L12.0771 15.8345C12.0989 15.8229 12.1263 15.8083 12.1553 15.7896C12.1931 15.7651 12.2311 15.7384 12.2666 15.7144C12.2992 15.6923 12.3351 15.6685 12.3604 15.6558L12.6084 15.5435C13.8392 15.0476 15.1736 15.3806 16.0918 16.3354C17.6894 15.8155 19.3139 16.8978 19.7119 18.4536C19.714 18.4617 19.7148 18.4706 19.7148 18.479V18.8657C19.7147 18.9208 19.6703 18.9653 19.6152 18.9653H13.249C13.2352 18.9653 13.2217 18.9621 13.209 18.9565C13.0857 18.902 12.993 18.7955 12.9561 18.6733C12.9183 18.5485 12.9389 18.4062 13.0439 18.2935L13.0898 18.2563C13.1053 18.2459 13.1241 18.2348 13.1416 18.2241C13.1592 18.2134 13.1769 18.2028 13.1914 18.1948C13.1983 18.191 13.2055 18.1872 13.2119 18.1841C13.215 18.1826 13.2198 18.1801 13.2246 18.1782C13.227 18.1773 13.2308 18.1756 13.2354 18.1743C13.2384 18.1735 13.2494 18.1704 13.2637 18.1704H18.7451C18.418 17.5228 17.7209 17.0222 16.9941 16.9985L16.8389 17.0005C16.6968 17.0094 16.5675 17.046 16.4375 17.0884C16.3742 17.109 16.3089 17.1325 16.2422 17.1528L16.0391 17.2017C15.9476 17.2167 15.8675 17.2087 15.7969 17.1802C15.7274 17.152 15.6742 17.107 15.6309 17.0591C15.5885 17.0122 15.5502 16.9568 15.5166 16.9097L15.4102 16.7769C14.7058 16.066 13.5607 15.9054 12.6816 16.3882L12.6826 16.3892C12.603 16.4329 12.498 16.5198 12.3877 16.6108C12.3346 16.6547 12.2803 16.6983 12.2314 16.7349C12.2078 16.7526 12.1835 16.7703 12.1592 16.7856L12.0889 16.8228C11.9821 16.8659 11.8854 16.8795 11.7998 16.855C11.7129 16.83 11.6547 16.771 11.6143 16.7085C11.5749 16.6476 11.5478 16.575 11.5254 16.5122L11.459 16.3394C10.7451 14.8685 8.77483 14.8491 8.11426 16.2534L8.05469 16.394C8.03945 16.4339 8.02719 16.4809 8.01367 16.5356C8.00063 16.5884 7.98606 16.6493 7.96777 16.7065C7.93635 16.8049 7.88668 16.9164 7.78516 16.9868L7.73828 17.0142C7.63564 17.0648 7.53086 17.0571 7.44531 17.0425C7.40343 17.0353 7.35836 17.0245 7.32227 17.0171C7.28391 17.0092 7.25052 17.0041 7.21973 17.0024L7.21875 17.0015C6.38546 16.9551 5.62437 17.4405 5.25391 18.1704H10.7354C10.7496 18.1705 10.7608 18.1735 10.7637 18.1743C10.7682 18.1756 10.7721 18.1773 10.7744 18.1782C10.7789 18.18 10.7831 18.1816 10.7861 18.1831C10.7926 18.1863 10.8006 18.1899 10.8076 18.1938C10.8221 18.2018 10.8398 18.2124 10.8574 18.2231C10.8751 18.2339 10.8937 18.2459 10.9092 18.2563L10.9551 18.2925L10.9902 18.3364C11.064 18.4408 11.0758 18.5632 11.043 18.6724C11.0061 18.7946 10.9136 18.9019 10.79 18.9565C10.7774 18.9621 10.7638 18.9653 10.75 18.9653H4.38477C4.32954 18.9653 4.28516 18.92 4.28516 18.8647V18.478C4.28518 18.4698 4.28604 18.4616 4.28809 18.4536C4.62897 17.1198 5.88127 16.1172 7.28418 16.1997C7.44014 15.7283 7.73977 15.3179 8.11426 15.0024C7.57333 13.919 7.38895 12.6451 7.84766 11.4819L7.9375 11.2749C8.16338 10.804 8.49372 10.4064 8.85059 10.0386C9.05444 9.82847 9.26962 9.62578 9.47852 9.42529C9.6879 9.22433 9.89217 9.02462 10.0801 8.81689L10.0908 8.80615C10.2251 8.69568 10.402 8.68239 10.5469 8.76514L10.6074 8.80615L10.6152 8.81299H10.6143L12.2363 10.4399L15.6152 7.03369C15.1546 6.35145 15.1235 5.46488 15.5264 4.74463L15.625 4.59131C15.7294 4.44597 15.849 4.32246 15.9521 4.19482L15.9619 4.18408L16.6318 3.56104L16.6641 3.5415C16.6755 3.53703 16.6877 3.53468 16.7002 3.53467H16.8789L16.918 3.54248C16.9298 3.54755 16.9402 3.55497 16.9492 3.56396L19.6865 6.30029C19.7053 6.31905 19.7158 6.34506 19.7158 6.37158V6.55029Z" fill="#308F85" stroke="#308F85" stroke-width="0.2" stroke-linejoin="round"/>
<path d="M11.9717 18.1719C12.0578 18.165 12.1366 18.1835 12.2031 18.2227C12.2906 18.2741 12.3498 18.3574 12.377 18.4482C12.4314 18.6314 12.3593 18.8567 12.1279 18.957L12.1084 18.9648H11.8906L11.873 18.958C11.698 18.8898 11.6068 18.7241 11.6035 18.5664C11.6003 18.4058 11.689 18.2395 11.8828 18.1875L11.9717 18.1719Z" fill="#308F85" stroke="#308F85" stroke-width="0.2"/>
</g>
<defs>
<clipPath id="clip0_41542_97671">
<rect width="16.5" height="16.5" fill="white" transform="translate(3.75 3)"/>
</clipPath>
</defs>
</svg>
