<svg width="26" height="26" viewBox="0 0 28 28" fill="none" xmlns="http://www.w3.org/2000/svg">
<g filter="url(#filter0_d_41542_97669)">
<rect x="2" y="2" width="24" height="24" rx="12" fill="#8F26F0" shape-rendering="crispEdges"/>
<rect x="1.5" y="1.5" width="25" height="25" rx="12.5" stroke="#F4E8FF" shape-rendering="crispEdges"/>
<g clip-path="url(#clip0_41542_97669)">
<path d="M12.1904 12.6465L11.6494 13.1719C11.5604 13.26 11.4735 13.3496 11.3887 13.4404C11.0922 13.7582 10.8318 14.0955 10.665 14.4912L10.5996 14.665C10.3788 15.3223 10.4136 16.0226 10.6279 16.6826L10.7305 16.9531C10.7533 17.0098 10.7764 17.0649 10.7959 17.1074L10.8281 17.1719L10.8311 17.1729C10.8359 17.1759 10.8427 17.1801 10.8516 17.1846C10.8691 17.1935 10.8916 17.2034 10.915 17.2129C10.9385 17.2224 10.9622 17.2306 10.9814 17.2363C11.0038 17.243 11.0114 17.244 11.0088 17.2441L11.1016 17.2148C11.1405 17.1991 11.1926 17.1769 11.2402 17.168L11.4541 17.1328C11.9382 17.0654 12.3185 17.1104 12.8135 17.293L12.9111 17.334C12.9389 17.3473 12.962 17.3604 12.9824 17.3721C13.0261 17.3969 13.0463 17.4101 13.0693 17.4189C13.1032 17.4319 13.1482 17.4364 13.3213 17.3838L13.4951 17.3223C13.8944 17.1632 14.2497 16.8927 14.5723 16.6006L15.1201 16.0723C15.2384 15.9552 15.3524 15.8393 15.4385 15.749C15.4815 15.7039 15.5171 15.6655 15.542 15.6367C15.5485 15.6292 15.5529 15.621 15.5576 15.6152C15.5522 15.6074 15.5459 15.5971 15.5371 15.5859C15.5064 15.5468 15.4599 15.4943 15.4014 15.4316C15.2843 15.3064 15.124 15.1453 14.957 14.9814C14.7896 14.8171 14.6182 14.6513 14.4775 14.5137C14.3806 14.4188 14.299 14.3342 14.2441 14.2764C13.9715 14.5389 13.7086 14.8131 13.4404 15.0859C13.1559 15.3753 12.8659 15.6623 12.5547 15.9238C12.5458 15.9313 12.5348 15.9359 12.5234 15.9385C12.3535 15.9769 12.2008 15.9256 12.1143 15.8115C12.0275 15.697 12.019 15.5354 12.1055 15.3799L12.1182 15.3633L13.7236 13.7549L12.3994 12.4307C12.3306 12.5029 12.2618 12.5758 12.1904 12.6465ZM18.6396 7.4248C18.6221 7.43945 18.5992 7.4602 18.5723 7.48633C18.5184 7.53872 18.451 7.60895 18.3838 7.68164C18.3169 7.75401 18.2504 7.82858 18.1973 7.89062L18.0947 8.01855C17.3381 9.25267 18.78 10.6674 19.999 9.89551L20.125 9.79785C20.1789 9.75249 20.2418 9.69675 20.3047 9.63867C20.3664 9.58165 20.4266 9.52387 20.4756 9.47363C20.5259 9.42203 20.5614 9.38227 20.5762 9.36035L20.584 9.34863V9.34668C20.5048 9.27717 20.366 9.14007 20.2031 8.97168C20.0123 8.77435 19.7784 8.52827 19.5508 8.29199C19.3223 8.05479 19.0988 7.82535 18.9238 7.6582C18.8362 7.57444 18.7617 7.50743 18.7061 7.46289C18.6806 7.44248 18.6601 7.42886 18.6455 7.41992C18.6437 7.42138 18.6417 7.4231 18.6396 7.4248ZM21.457 9.44238C21.457 9.46106 21.4504 9.47964 21.4375 9.49316C21.2142 9.72758 20.9916 9.99072 20.7471 10.2148C20.531 10.4129 20.291 10.5861 20.0029 10.6953L19.877 10.7383C19.2696 10.9189 18.6102 10.8244 18.0859 10.4619L14.7539 13.7646L14.7568 13.7773L16.3301 15.3477L16.3389 15.3564H16.3379C16.4008 15.4448 16.4414 15.526 16.4375 15.6143C16.4356 15.6577 16.4224 15.6987 16.4023 15.7393L16.3223 15.8623C16.1708 16.0588 15.8718 16.3694 15.5645 16.668C15.4103 16.8177 15.2529 16.9655 15.1094 17.0957L14.7383 17.418C14.4343 17.6621 14.0996 17.8328 13.7578 17.9961L14.0654 18.4785C14.0912 18.4666 14.1257 18.4471 14.1631 18.4229C14.2002 18.3989 14.2382 18.3729 14.2725 18.3496C14.3045 18.3279 14.3376 18.3063 14.3604 18.2949L14.5986 18.1865C15.7872 17.7075 17.0766 18.0312 17.9609 18.959C19.4995 18.4488 21.07 19.4903 21.4541 20.9922C21.4556 20.998 21.457 21.0038 21.457 21.0098V21.3848C21.457 21.4249 21.424 21.458 21.3838 21.458H15.2109C15.2008 21.458 15.1909 21.4553 15.1816 21.4512C15.0685 21.4011 14.984 21.3031 14.9502 21.1914C14.9159 21.0778 14.934 20.949 15.0293 20.8467L15.0703 20.8145C15.0849 20.8047 15.1024 20.7934 15.1191 20.7832C15.1358 20.7731 15.1525 20.7633 15.166 20.7559C15.1727 20.7521 15.1798 20.7479 15.1855 20.7451C15.1883 20.7438 15.1925 20.7427 15.1963 20.7412C15.1982 20.7405 15.2008 20.7392 15.2041 20.7383C15.2063 20.7377 15.215 20.7354 15.2256 20.7354H20.5781C20.2652 20.0839 19.5713 19.5736 18.8438 19.5498L18.6904 19.5527C18.5494 19.5616 18.4214 19.5974 18.2949 19.6387C18.2331 19.6588 18.1702 19.6808 18.1064 19.7002L17.9131 19.748C17.8279 19.7621 17.7543 19.7543 17.6904 19.7285C17.6274 19.7029 17.5787 19.6611 17.5381 19.6162C17.4983 19.5722 17.4626 19.5208 17.4297 19.4746L17.3242 19.3428C16.6766 18.6889 15.6495 18.5103 14.8135 18.8809L14.6494 18.9629C14.5698 19.0067 14.4664 19.0922 14.3604 19.1797C14.3087 19.2223 14.2568 19.2647 14.21 19.2998C14.1872 19.3169 14.1641 19.3334 14.1416 19.3477L14.0771 19.3818C13.9765 19.4225 13.8884 19.4329 13.8125 19.4111C13.7356 19.389 13.6828 19.3379 13.6455 19.2803C13.6091 19.2239 13.5842 19.1557 13.5625 19.0947L13.4971 18.9248C12.7969 17.4819 10.8597 17.4597 10.21 18.8418L10.1514 18.9795C10.136 19.0198 10.1235 19.0671 10.1104 19.1201C10.0976 19.1716 10.0838 19.2287 10.0664 19.2832C10.0406 19.3639 10.0035 19.4506 9.93555 19.5137L9.85645 19.5674C9.76383 19.6132 9.66849 19.6067 9.58691 19.5928C9.54689 19.5859 9.50455 19.5767 9.46875 19.5693L9.36523 19.5537C8.53378 19.5073 7.77761 19.9999 7.4209 20.7344H12.7725C12.7831 20.7344 12.7917 20.7377 12.7939 20.7383C12.7974 20.7393 12.8009 20.7395 12.8027 20.7402L12.832 20.7549C12.8456 20.7624 12.8621 20.773 12.8789 20.7832C12.8958 20.7935 12.9141 20.8046 12.9287 20.8145C12.9402 20.8222 12.958 20.8343 12.9688 20.8457L13.0264 20.9268C13.0704 21.0116 13.0746 21.1061 13.0488 21.1914C13.015 21.3031 12.9297 21.4011 12.8164 21.4512C12.8072 21.4552 12.7972 21.457 12.7871 21.457H6.61523C6.57517 21.457 6.54313 21.4248 6.54297 21.3848V21.0098C6.54297 21.0037 6.54342 20.9971 6.54492 20.9912C6.87449 19.7022 8.08896 18.7347 9.44434 18.8242C9.59431 18.3588 9.8904 17.9542 10.2617 17.6455C9.73271 16.5957 9.5509 15.3596 9.99512 14.2334L10.082 14.0352C10.2993 13.582 10.6176 13.1987 10.9629 12.8428C11.1602 12.6395 11.3685 12.4436 11.5713 12.249C11.7745 12.054 11.9733 11.8595 12.1562 11.6572L12.1631 11.6484L12.21 11.7061L12.1641 11.6494C12.2864 11.5487 12.4472 11.5359 12.5791 11.6113L12.6338 11.6494L12.6396 11.6543H12.6387L14.2227 13.2422L14.2344 13.2441L17.5361 9.91406C17.0844 9.25822 17.0511 8.40028 17.4404 7.7041L17.5342 7.55664C17.634 7.41768 17.7488 7.29974 17.8506 7.17383L17.8574 7.16602L18.5078 6.56152L18.5312 6.54785C18.5396 6.54459 18.5485 6.54297 18.5576 6.54297H18.7305L18.7588 6.54785C18.7686 6.55197 18.7771 6.55864 18.7842 6.56641L21.4355 9.21777C21.4492 9.23141 21.457 9.25024 21.457 9.26953V9.44238Z" fill="#F4E8FF" stroke="#F4E8FF" stroke-width="0.145455" stroke-linejoin="round"/>
<path d="M13.9746 20.7368C14.0538 20.7304 14.1255 20.7474 14.1855 20.7827C14.2644 20.8291 14.318 20.904 14.3428 20.9868C14.3926 21.1537 14.3276 21.3595 14.1152 21.4517L14.1016 21.4575H13.8994L13.8867 21.4526C13.727 21.3906 13.6436 21.2388 13.6406 21.0942C13.6378 20.9478 13.7183 20.7985 13.8936 20.7515V20.7505L13.9746 20.7368Z" fill="#F4E8FF" stroke="#F4E8FF" stroke-width="0.145455"/>
</g>
</g>
<defs>
<filter id="filter0_d_41542_97669" x="0" y="0" width="28" height="28" filterUnits="userSpaceOnUse" color-interpolation-filters="sRGB">
<feFlood flood-opacity="0" result="BackgroundImageFix"/>
<feColorMatrix in="SourceAlpha" type="matrix" values="0 0 0 0 0 0 0 0 0 0 0 0 0 0 0 0 0 0 127 0" result="hardAlpha"/>
<feOffset/>
<feGaussianBlur stdDeviation="0.5"/>
<feComposite in2="hardAlpha" operator="out"/>
<feColorMatrix type="matrix" values="0 0 0 0 0 0 0 0 0 0 0 0 0 0 0 0 0 0 0.25 0"/>
<feBlend mode="normal" in2="BackgroundImageFix" result="effect1_dropShadow_41542_97669"/>
<feBlend mode="normal" in="SourceGraphic" in2="effect1_dropShadow_41542_97669" result="shape"/>
</filter>
<clipPath id="clip0_41542_97669">
<rect width="16" height="16" fill="white" transform="translate(6 6)"/>
</clipPath>
</defs>
</svg>
