<svg width="20" height="24" viewBox="0 0 20 24" fill="none" xmlns="http://www.w3.org/2000/svg">
<path d="M10 0.390625C15.3222 0.390625 19.6092 4.52847 19.6094 9.59961C19.6094 12.6843 17.8366 14.9869 15.6611 17.1621C15.119 17.7042 14.5567 18.2335 13.9941 18.7646C13.4334 19.2941 12.8724 19.8254 12.3398 20.3643C11.45 21.2645 10.6275 22.202 10 23.2168C9.37253 22.202 8.54997 21.2645 7.66016 20.3643C7.12756 19.8254 6.5666 19.2941 6.00586 18.7646C5.44335 18.2335 4.88097 17.7042 4.33887 17.1621C2.16337 14.9869 0.390625 12.6843 0.390625 9.59961C0.390845 4.52847 4.67784 0.390625 10 0.390625Z" fill="#8F26F0" stroke="#F4E8FF" stroke-width="0.78125"/>
<g clip-path="url(#clip0_45003_73413)">
<path d="M8.61523 7.69775C8.48381 7.83184 8.34635 7.96307 8.20898 8.09229C8.05201 8.23995 7.89628 8.38669 7.75 8.53955C7.45739 8.84534 7.2076 9.17195 7.07129 9.56689C6.88166 10.1172 6.91204 10.7043 7.09668 11.2583C7.10764 11.2908 7.14503 11.3894 7.18457 11.4849C7.20432 11.5325 7.22452 11.5783 7.24121 11.6138C7.24942 11.6312 7.25607 11.6455 7.26172 11.6558C7.26305 11.6582 7.26374 11.6611 7.26465 11.6626C7.26837 11.6648 7.27397 11.6678 7.28125 11.6714C7.29591 11.6787 7.31509 11.687 7.33496 11.6948C7.355 11.7027 7.37545 11.7096 7.3916 11.7144C7.41097 11.72 7.41567 11.7201 7.41113 11.7202C7.42425 11.7198 7.44667 11.7124 7.48633 11.6968C7.51937 11.6838 7.56639 11.6646 7.60938 11.6567C8.12393 11.5609 8.48577 11.5854 8.97754 11.7622C9.04453 11.7864 9.09112 11.8097 9.12695 11.8296C9.16567 11.8511 9.18066 11.8617 9.19922 11.8687C9.22379 11.8779 9.25881 11.883 9.40918 11.8384C9.81365 11.7183 10.1671 11.4621 10.4854 11.1812C10.5378 11.1349 10.7538 10.9339 10.959 10.7358C11.0614 10.637 11.161 10.5395 11.2354 10.4634C11.2725 10.4253 11.303 10.3926 11.3242 10.3687C11.3262 10.3665 11.3274 10.3638 11.3291 10.3618C11.3262 10.358 11.323 10.3537 11.3193 10.3491C11.2932 10.3166 11.2529 10.2722 11.2021 10.2192C11.1011 10.1138 10.9627 9.97847 10.8184 9.84033C10.6735 9.70165 10.5252 9.56303 10.4033 9.44678C10.3254 9.3724 10.2588 9.30395 10.2109 9.25537C9.97881 9.47389 9.75448 9.70198 9.52539 9.9292C9.27919 10.1734 9.02764 10.4151 8.75781 10.6362C8.74841 10.6439 8.73744 10.6492 8.72559 10.6519C8.57464 10.6852 8.43584 10.6415 8.35645 10.5396C8.2763 10.4364 8.2696 10.2913 8.34766 10.1548C8.35121 10.1486 8.35623 10.1432 8.36133 10.1382L9.7373 8.79248L8.61523 7.69775ZM11.3506 10.3364L11.3486 10.3394L11.3496 10.3384C11.3502 10.3375 11.3506 10.3364 11.3506 10.3364ZM13.9668 3.51709C13.9204 3.56102 13.8627 3.61992 13.8047 3.68115C13.7467 3.74227 13.6885 3.80464 13.6426 3.85693C13.5948 3.9113 13.565 3.94921 13.5566 3.9624C13.2343 4.4748 13.3777 5.02271 13.7363 5.3667C14.0955 5.71104 14.6634 5.84396 15.1846 5.52197L15.292 5.44092C15.3382 5.40304 15.392 5.35605 15.4463 5.30713C15.4996 5.25916 15.5516 5.21059 15.5938 5.16846C15.6357 5.12651 15.6642 5.09422 15.6768 5.07666C15.6059 5.01448 15.4903 4.903 15.3574 4.76904C15.1924 4.6027 14.9906 4.39482 14.7939 4.1958C14.5962 3.99564 14.4021 3.80241 14.251 3.66162C14.1756 3.59139 14.112 3.53566 14.0645 3.49854C14.047 3.4849 14.0316 3.47542 14.0205 3.46826C14.0062 3.48012 13.9882 3.49679 13.9668 3.51709ZM16.4688 5.15479C16.4687 5.17512 16.4605 5.19493 16.4463 5.20947C16.2541 5.40617 16.0606 5.62938 15.8486 5.81885C15.6339 6.01071 15.3916 6.17651 15.0898 6.26416C14.5643 6.41655 13.994 6.33773 13.5381 6.03467L10.6709 8.80615L12.0264 10.1245L12.0361 10.1333L11.9717 10.1802L12.0352 10.1343C12.0899 10.2093 12.1277 10.2819 12.124 10.3628C12.1204 10.4424 12.0772 10.512 12.0215 10.5825C11.8896 10.7493 11.6302 11.0123 11.3643 11.2642C11.0976 11.5167 10.8189 11.7627 10.6475 11.897C10.3884 12.0998 10.1041 12.2431 9.81445 12.3784L10.0615 12.7573C10.0813 12.7475 10.1065 12.7345 10.1338 12.7173C10.1656 12.6972 10.1978 12.6754 10.2275 12.6558C10.255 12.6376 10.2849 12.6181 10.3057 12.6079C11.3919 12.077 12.6114 12.3308 13.4326 13.1665C14.769 12.7402 16.1317 13.6212 16.4658 14.895C16.4675 14.9014 16.4678 14.908 16.4678 14.9146V15.231C16.4677 15.2741 16.4328 15.3091 16.3896 15.3091H11.0479C11.0373 15.3091 11.0263 15.3064 11.0166 15.3022C10.9152 15.2583 10.8384 15.172 10.8076 15.0728C10.7762 14.9711 10.793 14.8552 10.8799 14.7642H10.8809C10.8916 14.7531 10.9084 14.7421 10.918 14.7358C10.9309 14.7274 10.9462 14.7172 10.9609 14.7085C10.9757 14.6997 10.9909 14.6915 11.0029 14.6851L11.0303 14.6714C11.0321 14.6707 11.0349 14.6703 11.0381 14.6694C11.0403 14.6688 11.0495 14.6655 11.0605 14.6655H15.667C15.3735 14.0953 14.7204 13.6611 14.0596 13.7017C13.9395 13.709 13.8307 13.7393 13.7217 13.7739C13.6153 13.8077 13.5025 13.8475 13.3887 13.8657C13.3131 13.8779 13.2473 13.8719 13.1895 13.8491C13.1321 13.8265 13.0871 13.7896 13.0508 13.7505C13.0156 13.7125 12.9842 13.6679 12.9561 13.6294C12.9266 13.5891 12.8986 13.552 12.8662 13.52V13.521C12.2734 12.9374 11.3091 12.805 10.5684 13.2017C10.501 13.2378 10.4126 13.309 10.3203 13.3833C10.2758 13.4192 10.2313 13.456 10.1904 13.4858C10.1509 13.5147 10.1086 13.5424 10.0713 13.5571C9.98265 13.592 9.90348 13.602 9.83398 13.5825C9.7631 13.5626 9.71542 13.5153 9.68164 13.4644C9.64889 13.4149 9.62619 13.3566 9.60742 13.3052C9.58746 13.2505 9.57174 13.2038 9.55176 13.1636C8.93169 11.9174 7.18187 11.9405 6.68359 13.2085C6.67076 13.2413 6.65978 13.28 6.64844 13.3247C6.63752 13.3678 6.62561 13.4168 6.61035 13.4634C6.58018 13.5555 6.5307 13.6605 6.4209 13.7134C6.33672 13.754 6.25009 13.7478 6.17871 13.7358C6.14381 13.73 6.10666 13.7214 6.07617 13.7153L5.98828 13.7026C5.28373 13.6643 4.6427 14.0652 4.33203 14.6655H8.93848C8.94921 14.6656 8.95758 14.6678 8.95996 14.6685C8.96358 14.6695 8.96688 14.6707 8.96875 14.6714C8.97246 14.6728 8.97601 14.6741 8.97852 14.6753C8.98368 14.6777 8.98938 14.681 8.99512 14.6841C9.00717 14.6906 9.02238 14.6997 9.03711 14.7085C9.05176 14.7172 9.0672 14.7264 9.08008 14.7349L9.11816 14.7642L9.1709 14.8364C9.21098 14.9121 9.21498 14.9965 9.19141 15.0728C9.16061 15.1722 9.08325 15.2584 8.98145 15.3022C8.97169 15.3064 8.96082 15.3091 8.9502 15.3091H3.60938C3.56635 15.3091 3.53145 15.2739 3.53125 15.231V14.9146C3.53125 14.9079 3.53248 14.9005 3.53418 14.894C3.82065 13.802 4.87228 12.9834 6.04688 13.0532C6.17757 12.666 6.42992 12.3292 6.74512 12.0708C6.29087 11.1845 6.13554 10.1415 6.52051 9.18994C6.70672 8.72966 7.02027 8.35493 7.3623 8.01123C7.53329 7.83941 7.71333 7.67335 7.88867 7.50928C8.06437 7.34486 8.23576 7.18129 8.39355 7.01123L8.40137 7.00244L8.40234 7.00342C8.51303 6.91459 8.65806 6.9035 8.77734 6.97021L8.82617 7.00342L8.83301 7.0083H8.83203L10.1982 8.34424L13.0391 5.55029C12.6526 4.99298 12.6272 4.26807 12.9648 3.6792C13.0664 3.50215 13.2055 3.36873 13.3213 3.229L13.3281 3.22021L13.3291 3.22119L13.8916 2.71143C13.906 2.69841 13.9249 2.69092 13.9443 2.69092H14.0938C14.1163 2.69092 14.1361 2.70102 14.1504 2.71631L16.4453 4.95264C16.4602 4.96727 16.4687 4.98741 16.4688 5.0083V5.15479Z" fill="#F4E8FF" stroke="#F4E8FF" stroke-width="0.15625" stroke-linejoin="round"/>
<path d="M9.90332 14.6797C10.0027 14.6539 10.0933 14.6663 10.166 14.708C10.2378 14.7492 10.2869 14.8157 10.3096 14.8896C10.3555 15.0394 10.2945 15.222 10.1035 15.3027L10.0889 15.3086H9.90918L9.89551 15.3037C9.75135 15.2491 9.67461 15.1153 9.67188 14.9863C9.6691 14.8549 9.74439 14.7212 9.90332 14.6797Z" fill="#F4E8FF" stroke="#F4E8FF" stroke-width="0.15625"/>
</g>
<defs>
<clipPath id="clip0_45003_73413">
<rect width="13.8462" height="13.5" fill="white" transform="translate(3.07617 2.25)"/>
</clipPath>
</defs>
</svg>
