<svg width="10" height="16" viewBox="0 0 10 16" fill="none" xmlns="http://www.w3.org/2000/svg">
<path d="M4.14621 15.4397C6.07478 15.4397 7.64175 13.8728 7.64175 11.9442C7.64175 10.9263 7.2199 10.0357 6.42301 9.3125C6.2757 9.17856 6.24218 9.1049 6.24218 8.90401L6.25558 2.89061C6.25558 1.49104 5.40515 0.560242 4.14621 0.560242C2.88058 0.560242 2.03015 1.49104 2.03015 2.89061L2.03684 8.90401C2.03684 9.1049 2.00335 9.17856 1.86275 9.3125C1.05915 10.0357 0.643982 10.9263 0.643982 11.9442C0.643982 13.8728 2.20427 15.4397 4.14621 15.4397ZM4.14621 14.4688C2.75335 14.4688 1.62167 13.3304 1.62167 11.9442C1.62167 11.1071 2.01675 10.3504 2.72658 9.87498C2.93418 9.73436 3.01453 9.60713 3.01453 9.33259V2.93078C3.01453 2.08704 3.47658 1.54464 4.14621 1.54464C4.80915 1.54464 5.26453 2.08704 5.26453 2.93078V9.33259C5.26453 9.60713 5.34487 9.73436 5.55247 9.87498C6.2623 10.3504 6.65738 11.1071 6.65738 11.9442C6.65738 13.3304 5.53238 14.4688 4.14621 14.4688ZM7.50113 3.01784H8.96095C9.19533 3.01784 9.35604 2.83704 9.35604 2.62944C9.35604 2.42187 9.19533 2.24107 8.96095 2.24107H7.50113C7.26675 2.24107 7.10604 2.42187 7.10604 2.62944C7.10604 2.83704 7.26675 3.01784 7.50113 3.01784ZM7.50113 4.89956H8.96095C9.19533 4.89956 9.35604 4.71873 9.35604 4.51116C9.35604 4.30356 9.19533 4.12276 8.96095 4.12276H7.50113C7.26675 4.12276 7.10604 4.30356 7.10604 4.51116C7.10604 4.71873 7.26675 4.89956 7.50113 4.89956ZM4.13953 13.5647C5.03684 13.5647 5.76007 12.8415 5.76007 11.9375C5.76007 11.308 5.40515 10.7924 4.88953 10.5112C4.67524 10.3973 4.60158 10.317 4.60158 9.98881V6.43301C4.60158 6.08481 4.40067 5.87721 4.13953 5.87721C3.88504 5.87721 3.67747 6.08481 3.67747 6.43301V9.98881C3.67747 10.317 3.60381 10.3973 3.38953 10.5112C2.8739 10.7924 2.51898 11.308 2.51898 11.9375C2.51898 12.8415 3.24218 13.5647 4.13953 13.5647ZM7.50113 6.78124H8.96095C9.19533 6.78124 9.35604 6.60044 9.35604 6.39284C9.35604 6.18527 9.19533 5.99776 8.96095 5.99776H7.50113C7.26675 5.99776 7.10604 6.18527 7.10604 6.39284C7.10604 6.60044 7.26675 6.78124 7.50113 6.78124ZM7.50113 8.66293H8.96095C9.19533 8.66293 9.35604 8.47544 9.35604 8.26784C9.35604 8.06024 9.19533 7.87947 8.96095 7.87947H7.50113C7.26675 7.87947 7.10604 8.06024 7.10604 8.26784C7.10604 8.47544 7.26675 8.66293 7.50113 8.66293Z" fill="black"/>
</svg>
