<svg width="24" height="24"  viewBox="0 0 700 700" xmlns="http://www.w3.org/2000/svg">
  <path stroke="current" stroke-width="2" stroke-miterlimit="10" stroke-linecap="round" stroke-linejoin="round" d="m532.28 506.18c-6.5508 6.5508-15.176 9.8555-23.742 9.8555-8.625 0-17.246-3.3047-23.801-9.8555-13.105-13.16-13.105-34.383 0-47.543 74.09-74.09 74.09-194.6 0-268.69-74.031-74.031-194.6-74.031-268.63 0l-12.152 12.152h80.191c18.535 0 33.602 15.062 33.602 33.602 0 18.594-15.062 33.602-33.602 33.602l-158.14-0.003906c-18.535 0-33.602-15.008-33.602-33.602v-158.14c0-18.535 15.062-33.602 33.602-33.602 18.535 0 33.602 15.062 33.602 33.602v73.863l8.9609-8.9609c100.3-100.3 263.43-100.3 363.72 0 100.29 100.3 100.29 263.43 0 363.72z"/>
</svg>
