<svg width="20" height="24" viewBox="0 0 20 24" fill="none" xmlns="http://www.w3.org/2000/svg">
<path d="M9.75 0.375C14.933 0.375 19.1248 4.51042 19.125 9.59961C19.125 12.6946 17.3908 15.0023 15.2705 17.1768C14.7419 17.7189 14.1938 18.2483 13.6455 18.7793C13.0987 19.3089 12.5514 19.8402 12.0322 20.3789C11.1633 21.2805 10.3611 22.2184 9.75 23.2334C9.13885 22.2184 8.33666 21.2805 7.46777 20.3789C6.94856 19.8402 6.40133 19.3089 5.85449 18.7793C5.30615 18.2483 4.7581 17.7189 4.22949 17.1768C2.10918 15.0023 0.375 12.6946 0.375 9.59961C0.375215 4.51042 4.56696 0.375 9.75 0.375Z" fill="white" stroke="#EBF5F4" stroke-width="0.75"/>
<path d="M10.3267 6.54634C10.7279 5.90533 11.0123 5.19828 11.1667 4.45801C11.4583 5.91634 12.3333 7.31634 13.5 8.24967C14.6667 9.18301 15.25 10.2913 15.25 11.458C15.2533 12.2643 15.0172 13.0535 14.5715 13.7255C14.1258 14.3974 13.4906 14.9219 12.7464 15.2325C12.0023 15.543 11.1827 15.6256 10.3915 15.4698C9.60037 15.3139 8.87331 14.9267 8.3025 14.3572M7.08333 12.2047C8.36667 12.2047 9.41667 11.1372 9.41667 9.84217C9.41667 9.16551 9.08417 8.52384 8.41917 7.98134C7.75417 7.43884 7.2525 6.63384 7.08333 5.78801C6.91417 6.63384 6.41833 7.44467 5.7475 7.98134C5.07667 8.51801 4.75 9.17134 4.75 9.84217C4.75 11.1372 5.8 12.2047 7.08333 12.2047Z" stroke="#308F85" stroke-width="1.375" stroke-linecap="round" stroke-linejoin="round"/>
</svg>
