<svg width="26" height="32" viewBox="0 0 26 32" fill="none" xmlns="http://www.w3.org/2000/svg">
<path d="M13 0.547852C19.885 0.547852 25.452 6.04132 25.4521 12.7998C25.4521 16.9065 23.1517 19.9706 20.3262 22.8682C19.6218 23.5905 18.8916 24.2966 18.1602 25.0049C17.431 25.711 16.7008 26.4196 16.0078 27.1387C14.8689 28.3205 13.8121 29.5495 13 30.8799C12.1879 29.5495 11.1311 28.3205 9.99219 27.1387C9.29919 26.4196 8.56896 25.711 7.83984 25.0049C7.10843 24.2966 6.37822 23.5905 5.67383 22.8682C2.84835 19.9706 0.547852 16.9065 0.547852 12.7998C0.547959 6.04132 6.11502 0.547852 13 0.547852Z" fill="white" stroke="#EBF5F4" stroke-width="1.09615"/>
<path d="M13.7695 8.72878C14.3045 7.8741 14.6837 6.93137 14.8895 5.94434C15.2784 7.88878 16.4451 9.75545 18.0007 10.9999C19.5562 12.2443 20.334 13.7221 20.334 15.2777C20.3384 16.3528 20.0236 17.405 19.4293 18.301C18.835 19.1969 17.9881 19.8962 16.9959 20.3103C16.0037 20.7243 14.9109 20.8344 13.856 20.6267C12.8011 20.4189 11.8317 19.9026 11.0707 19.1432M9.4451 16.2732C11.1562 16.2732 12.5562 14.8499 12.5562 13.1232C12.5562 12.221 12.1129 11.3654 11.2262 10.6421C10.3395 9.91878 9.67065 8.84545 9.4451 7.71767C9.21954 8.84545 8.55843 9.92656 7.66398 10.6421C6.76954 11.3577 6.33398 12.2288 6.33398 13.1232C6.33398 14.8499 7.73398 16.2732 9.4451 16.2732Z" stroke="#308F85" stroke-width="1.5" stroke-linecap="round" stroke-linejoin="round"/>
</svg>
