<svg width="26" height="32" viewBox="0 0 26 32" fill="none" xmlns="http://www.w3.org/2000/svg">
<path d="M13 0.547852C19.885 0.547852 25.452 6.04132 25.4521 12.7998C25.4521 16.9065 23.1517 19.9706 20.3262 22.8682C19.6218 23.5905 18.8916 24.2966 18.1602 25.0049C17.431 25.711 16.7008 26.4196 16.0078 27.1387C14.8689 28.3205 13.8121 29.5495 13 30.8799C12.1879 29.5495 11.1311 28.3205 9.99219 27.1387C9.29919 26.4196 8.56896 25.711 7.83984 25.0049C7.10843 24.2966 6.37822 23.5905 5.67383 22.8682C2.84835 19.9706 0.547852 16.9065 0.547852 12.7998C0.547959 6.04132 6.11502 0.547852 13 0.547852Z" fill="#3A0070" stroke="#F4E8FF" stroke-width="1.09615"/>
<path d="M13.7655 8.72826C14.3005 7.87359 14.6797 6.93087 14.8855 5.94385C15.2744 7.88827 16.4411 9.75491 17.9966 10.9993C19.5521 12.2438 20.3299 13.7215 20.3299 15.2771C20.3344 16.3522 20.0195 17.4044 19.4252 18.3003C18.8309 19.1963 17.984 19.8956 16.9918 20.3096C15.9996 20.7236 14.9069 20.8338 13.852 20.626C12.7972 20.4182 11.8278 19.9019 11.0667 19.1426M9.44115 16.2726C11.1522 16.2726 12.5522 14.8493 12.5522 13.1226C12.5522 12.2204 12.1089 11.3649 11.2222 10.6416C10.3356 9.91824 9.6667 8.84492 9.44115 7.71716C9.2156 8.84492 8.5545 9.92602 7.66006 10.6416C6.76563 11.3571 6.33008 12.2282 6.33008 13.1226C6.33008 14.8493 7.73006 16.2726 9.44115 16.2726Z" stroke="#F4E8FF" stroke-width="1.5" stroke-linecap="round" stroke-linejoin="round"/>
</svg>
