<svg width="26" height="32" viewBox="0 0 26 32" fill="none" xmlns="http://www.w3.org/2000/svg">
<path d="M13 0.547852C19.885 0.547852 25.452 6.04132 25.4521 12.7998C25.4521 16.9065 23.1517 19.9706 20.3262 22.8682C19.6218 23.5905 18.8916 24.2966 18.1602 25.0049C17.431 25.711 16.7008 26.4196 16.0078 27.1387C14.8689 28.3205 13.8121 29.5495 13 30.8799C12.1879 29.5495 11.1311 28.3205 9.99219 27.1387C9.29919 26.4196 8.56896 25.711 7.83984 25.0049C7.10843 24.2966 6.37822 23.5905 5.67383 22.8682C2.84835 19.9706 0.547852 16.9065 0.547852 12.7998C0.547959 6.04132 6.11502 0.547852 13 0.547852Z" fill="#8F26F0" stroke="#F4E8FF" stroke-width="1.09615"/>
<path d="M13.7676 8.72878C14.3025 7.8741 14.6817 6.93137 14.8876 5.94434C15.2765 7.88878 16.4431 9.75545 17.9987 10.9999C19.5543 12.2443 20.332 13.7221 20.332 15.2777C20.3365 16.3528 20.0216 17.405 19.4273 18.301C18.833 19.1969 17.9861 19.8962 16.9939 20.3103C16.0017 20.7243 14.9089 20.8344 13.8541 20.6267C12.7992 20.4189 11.8298 19.9026 11.0687 19.1432M9.44314 16.2732C11.1543 16.2732 12.5543 14.8499 12.5543 13.1232C12.5543 12.221 12.1109 11.3654 11.2243 10.6421C10.3376 9.91878 9.6687 8.84545 9.44314 7.71767C9.21759 8.84545 8.55648 9.92656 7.66203 10.6421C6.76759 11.3577 6.33203 12.2288 6.33203 13.1232C6.33203 14.8499 7.73203 16.2732 9.44314 16.2732Z" stroke="#F4E8FF" stroke-width="1.5" stroke-linecap="round" stroke-linejoin="round"/>
</svg>
