<svg width="20" height="24" viewBox="0 0 20 24" fill="none" xmlns="http://www.w3.org/2000/svg">
<path d="M10 0.390625C15.3222 0.390625 19.6092 4.52847 19.6094 9.59961C19.6094 12.6843 17.8366 14.9869 15.6611 17.1621C15.119 17.7042 14.5567 18.2335 13.9941 18.7646C13.4334 19.2941 12.8724 19.8254 12.3398 20.3643C11.45 21.2645 10.6275 22.202 10 23.2168C9.37253 22.202 8.54997 21.2645 7.66016 20.3643C7.12756 19.8254 6.5666 19.2941 6.00586 18.7646C5.44335 18.2335 4.88097 17.7042 4.33887 17.1621C2.16337 14.9869 0.390625 12.6843 0.390625 9.59961C0.390845 4.52847 4.67784 0.390625 10 0.390625Z" fill="#3A0070" stroke="#F4E8FF" stroke-width="0.78125"/>
<path d="M10.3267 6.54634C10.7279 5.90533 11.0123 5.19828 11.1667 4.45801C11.4583 5.91634 12.3333 7.31634 13.5 8.24967C14.6667 9.18301 15.25 10.2913 15.25 11.458C15.2533 12.2643 15.0172 13.0535 14.5715 13.7255C14.1258 14.3974 13.4906 14.9219 12.7464 15.2325C12.0023 15.543 11.1827 15.6256 10.3915 15.4698C9.60037 15.3139 8.87331 14.9267 8.3025 14.3572M7.08333 12.2047C8.36667 12.2047 9.41667 11.1372 9.41667 9.84217C9.41667 9.16551 9.08417 8.52384 8.41917 7.98134C7.75417 7.43884 7.2525 6.63384 7.08333 5.78801C6.91417 6.63384 6.41833 7.44467 5.7475 7.98134C5.07667 8.51801 4.75 9.17134 4.75 9.84217C4.75 11.1372 5.8 12.2047 7.08333 12.2047Z" stroke="#F4E8FF" stroke-width="1.375" stroke-linecap="round" stroke-linejoin="round"/>
</svg>
