<?xml version="1.0" encoding="UTF-8"?>
<svg width="44px" height="45px" viewBox="0 0 44 45" version="1.1" xmlns="http://www.w3.org/2000/svg" xmlns:xlink="http://www.w3.org/1999/xlink">
    <!-- Generator: Sketch 52.6 (67491) - http://www.bohemiancoding.com/sketch -->
    <title>Group 37</title>
    <desc>Created with Sketch.</desc>
    <defs>
        <polygon id="path-1" points="0 44 44 44 44 0 0 0"></polygon>
    </defs>
    <g id="Page-1" stroke="none" stroke-width="1" fill="none" fill-rule="evenodd">
        <g id="Insights" transform="translate(-24.000000, -392.000000)">
            <g id="Menu" transform="translate(0.000000, 130.000000)">
                <g id="bio" transform="translate(0.000000, 243.000000)">
                    <g id="Group" transform="translate(24.000000, 16.000000)">
                        <g id="Group-37" transform="translate(0.000000, 3.500000)">
                            <path d="M37.7504823,0.936170213 L13.7388794,0.936170213 C10.8043311,0.936170213 8.42553191,3.29480592 8.42553191,6.20447997 L8.42553191,26.212766 L43.0638298,26.212766 L43.0638298,6.20447997 C43.0638298,3.29480592 40.6850306,0.936170213 37.7504823,0.936170213" id="Fill-1" fill="#BCE8CA"></path>
                            <mask id="mask-2" fill="white">
                                <use xlink:href="#path-1"></use>
                            </mask>
                            <g id="Clip-4"></g>
                            <polygon id="Fill-3" fill="#BCE8CA" mask="url(#mask-2)" points="8.42553191 43.0638298 43.0638298 43.0638298 43.0638298 26.212766 8.42553191 26.212766"></polygon>
                            <path d="M8.89648162,37.7078262 C9.90095224,38.3641908 11.5796685,39.2151732 13.5316804,39.2151732 C16.277996,39.2151732 17.787234,36.5121019 17.787234,36.5121019 L17.787234,36.5091747 C17.787234,36.5091747 16.277996,33.8061034 13.5316804,33.8061034 C11.5796685,33.8061034 9.90095224,34.6570858 8.89648162,35.3134504 C8.35626433,34.0916321 7.091508,33.2340426 5.61702128,33.2340426 C5.61702128,33.9259519 5.83295103,34.569604 6.20403935,35.1066219 C6.79035891,35.9560989 6.79035891,37.0651777 6.20403935,37.9146547 C5.83295103,38.4517563 5.61702128,39.0953247 5.61702128,39.787234 C7.091508,39.787234 8.35626433,38.9296445 8.89648162,37.7078262" id="Fill-5" fill="#FFFFFF" mask="url(#mask-2)"></path>
                            <path d="M11.4680851,10.2978723 C11.4680851,10.2978723 13.106383,9.319723 13.106383,7.47996467 C13.106383,5.64054961 11.4680851,4.68085106 11.4680851,4.68085106 C11.4680851,4.68085106 9.82978723,5.64054961 9.82978723,7.47996467 C9.82978723,9.319723 11.4680851,10.2978723 11.4680851,10.2978723" id="Fill-6" fill="#BCE8CA" mask="url(#mask-2)"></path>
                            <path d="M7.08091596,14.9795248 C6.30202248,14.9666769 5.75159878,15.1125674 5.75159878,15.1125674 C5.75159878,15.1125674 5.02823791,17.8259952 6.93561831,19.7333907 C8.84308323,21.6408708 11.5759301,20.9368605 11.5759301,20.9368605 C11.5759301,20.9368605 11.7178468,20.3825442 11.7006883,19.5993338 C10.7445469,19.5782025 9.44692643,19.3193863 8.39831519,18.2707668 C7.34970395,17.2220627 7.09672205,15.9307713 7.08091596,14.9795248" id="Fill-7" fill="#FFFFFF" mask="url(#mask-2)"></path>
                            <path d="M7.0212766,14.9787234 C7.03729166,15.9425389 7.29361827,17.2508922 8.35609335,18.313453 C9.41856844,19.375928 10.733345,19.638164 11.7021277,19.6595745 C11.6810597,18.6904492 11.4188238,17.3760152 10.3562631,16.3135402 C9.29344543,15.2510651 7.98509206,14.9947385 7.0212766,14.9787234" id="Fill-8" fill="#BCE8CA" mask="url(#mask-2)"></path>
                            <path d="M27.6767774,14.9795248 C26.8979031,14.9666769 26.3472393,15.1125674 26.3472393,15.1125674 C26.3472393,15.1125674 25.6241498,17.8259952 27.5314833,19.7333907 C29.4389014,21.6408708 32.171343,20.9368605 32.171343,20.9368605 C32.171343,20.9368605 32.3135943,20.3825442 32.2964362,19.5993338 C31.3399802,19.5782025 30.0427297,19.3193863 28.9941442,18.2707668 C27.9455588,17.2220627 27.6925831,15.9307713 27.6767774,14.9795248" id="Fill-9" fill="#FFFFFF" mask="url(#mask-2)"></path>
                            <path d="M27.6170213,14.9787234 C27.6330363,15.9425389 27.8893629,17.2508922 28.951838,18.313453 C30.0143131,19.375928 31.3290896,19.638164 32.2978723,19.6595745 C32.2768044,18.6904492 32.0145685,17.3760152 30.9517508,16.3135402 C29.8891901,15.2510651 28.5808367,14.9947385 27.6170213,14.9787234" id="Fill-10" fill="#BCE8CA" mask="url(#mask-2)"></path>
                            <path d="M14.780084,17.5087349 C15.7275434,16.5618795 16.8735068,16.2634464 17.787234,16.203016 C17.7717629,15.5532415 17.6548417,15.1131561 17.6548417,15.1131561 C17.6548417,15.1131561 14.9408824,14.390189 13.0331133,16.2974226 C11.125006,18.2046562 11.8290697,20.9370392 11.8290697,20.9370392 C11.8290697,20.9370392 12.5205366,21.1149497 13.4504959,21.0492792 C13.4333339,20.0796039 13.6413912,18.6474461 14.780084,17.5087349" id="Fill-11" fill="#FFFFFF" mask="url(#mask-2)"></path>
                            <path d="M17.7855391,16.3829787 C16.8984004,16.4471833 15.7859685,16.764255 14.8661644,17.7702462 C13.7607087,18.9800755 13.5587244,20.5016787 13.5753854,21.5319149 C14.4676127,21.4631307 15.5862002,21.1414793 16.5069892,20.1340515 C17.613676,18.9235935 17.8082736,17.4075578 17.7855391,16.3829787" id="Fill-12" fill="#BCE8CA" mask="url(#mask-2)"></path>
                            <path d="M35.3758415,17.5087349 C36.3232968,16.5618795 37.4692554,16.2634464 38.3829787,16.203016 C38.3675076,15.5532415 38.2502487,15.1131561 38.2502487,15.1131561 C38.2502487,15.1131561 35.536301,14.390189 33.62854,16.2974226 C31.720779,18.2046562 32.4248397,20.9370392 32.4248397,20.9370392 C32.4248397,20.9370392 33.1163037,21.1149497 34.046259,21.0492792 C34.0290971,20.0796039 34.2371535,18.6474461 35.3758415,17.5087349" id="Fill-13" fill="#FFFFFF" mask="url(#mask-2)"></path>
                            <path d="M38.3812838,16.3829787 C37.4941451,16.4471833 36.3817132,16.764255 35.461909,17.7702462 C34.3564534,18.9800755 34.1544691,20.5016787 34.1711301,21.5319149 C35.0636856,21.4631307 36.1819449,21.1414793 37.1027339,20.1340515 C38.2094207,18.9235935 38.4040183,17.4075578 38.3812838,16.3829787" id="Fill-14" fill="#BCE8CA" mask="url(#mask-2)"></path>
                            <path d="M7.86579346,8.89608129 C7.16759853,8.87400466 6.66704594,9.0075241 6.66704594,9.0075241 C6.66704594,9.0075241 6.05504355,11.30314 7.66885763,12.9167647 C9.28293664,14.530831 11.5949456,13.9351154 11.5949456,13.9351154 C11.5949456,13.9351154 11.7245877,13.4310618 11.6987123,12.7291134 C10.8977221,12.6997957 9.8390375,12.4672846 8.97896662,11.6070027 C8.11863081,10.7467207 7.89096239,9.69287088 7.86579346,8.89608129" id="Fill-15" fill="#FFFFFF" mask="url(#mask-2)"></path>
                            <path d="M7.95744681,9.36170213 C7.98203632,10.1401257 8.20446357,11.1696844 9.04473468,12.0101368 C9.88526463,12.8505893 10.9195772,13.077741 11.7021277,13.106383 C11.673483,12.3239046 11.4463967,11.2896874 10.6057805,10.4494937 C9.76525055,9.60904121 8.73568332,9.38628937 7.95744681,9.36170213" id="Fill-16" fill="#BCE8CA" mask="url(#mask-2)"></path>
                            <path d="M28.4615381,8.89608129 C27.7633432,8.87400466 27.2627906,9.0075241 27.2627906,9.0075241 C27.2627906,9.0075241 26.6507882,11.30314 28.2646023,12.9167647 C29.8786813,14.530831 32.1906903,13.9351154 32.1906903,13.9351154 C32.1906903,13.9351154 32.3203324,13.4310618 32.294457,12.7291134 C31.4934668,12.6994424 30.4347822,12.4672846 29.5747113,11.6070027 C28.7143755,10.7467207 28.4863538,9.69287088 28.4615381,8.89608129" id="Fill-17" fill="#FFFFFF" mask="url(#mask-2)"></path>
                            <path d="M28.5531915,9.36170213 C28.5774359,10.1401257 28.8002082,11.1696844 29.6404794,12.0101368 C30.4810093,12.8505893 31.5153219,13.077741 32.2978723,13.106383 C32.2688826,12.3239046 32.0421414,11.2896874 31.2015252,10.4494937 C30.3609952,9.60904121 29.331428,9.38628937 28.5531915,9.36170213" id="Fill-18" fill="#BCE8CA" mask="url(#mask-2)"></path>
                            <path d="M14.345459,11.1280782 C15.1337649,10.3397746 16.0844835,10.0831299 16.8510638,10.0261664 C16.848326,9.42385514 16.7379314,9.00744783 16.7379314,9.00744783 C16.7379314,9.00744783 14.4420763,8.39551014 12.8278419,10.0092982 C11.214049,11.6234395 11.8094735,13.9355378 11.8094735,13.9355378 C11.8094735,13.9355378 12.4142595,14.0907963 13.2204935,14.0272975 C13.2212,13.2100264 13.4192039,12.0543305 14.345459,11.1280782" id="Fill-19" fill="#FFFFFF" mask="url(#mask-2)"></path>
                            <path d="M16.8510074,10.2978723 C16.0604219,10.3511848 15.079932,10.5913799 14.2669406,11.3291577 C13.3116802,12.1960424 13.1073849,13.2776646 13.106383,14.0425532 C13.9015225,13.9860172 14.887113,13.7422679 15.700742,13.0038289 C16.656731,12.1359523 16.8549239,11.0585455 16.8510074,10.2978723" id="Fill-20" fill="#BCE8CA" mask="url(#mask-2)"></path>
                            <path d="M34.7890357,11.1280345 C35.6304194,10.2866591 36.6564713,10.0506819 37.4468085,10.0172105 C37.4426577,9.41967237 37.3333228,9.00741872 37.3333228,9.00741872 C37.3333228,9.00741872 35.0374678,8.39548522 33.4235866,10.0096155 C31.8097937,11.6233924 32.4052182,13.9358281 32.4052182,13.9358281 C32.4052182,13.9358281 32.9351124,14.0713914 33.663717,14.0369486 C33.6630105,13.2193298 33.858983,12.0580781 34.7890357,11.1280345" id="Fill-21" fill="#FFFFFF" mask="url(#mask-2)"></path>
                            <path d="M37.4467066,10.2978723 C36.6644155,10.3290533 35.648897,10.5488834 34.8159917,11.3326864 C33.8954076,12.1990901 33.7014302,13.2808814 33.7021277,14.0425532 C34.4885292,14.0075054 35.5092053,13.7838085 36.3427225,12.9993474 C37.2636562,12.1326146 37.4518642,11.0553483 37.4467066,10.2978723" id="Fill-22" fill="#BCE8CA" mask="url(#mask-2)"></path>
                            <path d="M32.5319149,10.2978723 C32.5319149,10.2978723 34.1702128,9.319723 34.1702128,7.47996467 C34.1702128,5.64054961 32.5319149,4.68085106 32.5319149,4.68085106 C32.5319149,4.68085106 30.893617,5.64054961 30.893617,7.47996467 C30.893617,9.319723 32.5319149,10.2978723 32.5319149,10.2978723" id="Fill-23" fill="#BCE8CA" mask="url(#mask-2)"></path>
                            <path d="M25.2794603,37.7078262 C26.283931,38.3641908 27.9626472,39.2151732 29.9146591,39.2151732 C32.6609747,39.2151732 34.1702128,36.5121019 34.1702128,36.5121019 L34.1702128,36.5091747 C34.1702128,36.5091747 32.6609747,33.8061034 29.9146591,33.8061034 C27.9626472,33.8061034 26.283931,34.6570858 25.2794603,35.3134504 C24.7392431,34.0916321 23.4744867,33.2340426 22,33.2340426 C22,33.9259519 22.2159297,34.569604 22.5870181,35.1066219 C23.1733376,35.9560989 23.1733376,37.0651777 22.5870181,37.9146547 C22.2159297,38.4517563 22,39.0953247 22,39.787234 C23.4744867,39.787234 24.7392431,38.9296445 25.2794603,37.7078262" id="Fill-24" fill="#FFFFFF" mask="url(#mask-2)"></path>
                            <path d="M23.4042553,1.87234043 C23.6503745,1.87234043 23.8920936,1.77217021 24.0661277,1.59804255 C24.2402553,1.42400851 24.3404255,1.18228936 24.3404255,0.936170213 C24.3404255,0.690051064 24.2402553,0.448331915 24.0661277,0.274297872 C23.8920936,0.100170213 23.6503745,0 23.4042553,0 C23.1581362,0 22.916417,0.100170213 22.742383,0.274297872 C22.5682553,0.448331915 22.4680851,0.690051064 22.4680851,0.936170213 C22.4680851,1.18228936 22.5682553,1.42400851 22.742383,1.59804255 C22.916417,1.77217021 23.1581362,1.87234043 23.4042553,1.87234043" id="Fill-25" fill="#82CF9C" mask="url(#mask-2)"></path>
                            <path d="M31.4299219,20.3772422 C30.6497813,20.45175 29.1824844,20.4084375 28.0686484,19.2946016 C26.954125,18.1801641 26.9218984,16.7192266 27.0011328,15.9497422 C27.7701875,15.8718828 29.2355078,15.9041094 30.3472812,17.0159687 C31.1798437,17.8484453 31.4141094,18.8780625 31.4483984,19.6702344 L31.4483984,20.1086875 C31.4443594,20.2050234 31.438,20.295 31.4299219,20.3772422 M31.2096641,15.0501484 C31.2925938,15.0501484 31.3721719,15.0484297 31.4483984,15.0454219 L31.4483984,15.6922734 C31.1613672,15.4213984 30.8619609,15.1971875 30.5571406,15.0128516 C30.7880547,15.03975 31.0079688,15.0501484 31.2096641,15.0501484 M28.1619766,10.0455781 C28.7789219,10.0032969 29.8105156,10.0795234 30.6050938,10.8744453 C31.3996719,11.6690234 31.4832891,12.705 31.4453906,13.3286484 C30.820625,13.3673203 29.7849922,13.2826719 28.9907578,12.4884375 C28.1961797,11.6935156 28.1199531,10.6622656 28.1619766,10.0455781 M32.3121563,5.55130469 C32.6682813,5.88938281 33.1124063,6.47152344 33.1124063,7.27177344 C33.1124063,8.07073437 32.6712891,8.65820312 32.3144766,9.00229687 C31.9582656,8.65648437 31.5121641,8.06532031 31.5121641,7.27177344 C31.5121641,6.47083594 31.9569766,5.88835156 32.3121563,5.55130469 M36.4579531,10.0455781 C36.4998906,10.6639844 36.4236641,11.6942031 35.6290859,12.4884375 C34.8351953,13.2826719 33.7999063,13.3669766 33.1748828,13.3286484 C33.1372422,12.703625 33.2212031,11.6683359 34.0150938,10.8744453 C34.8100156,10.0795234 35.8409219,10.0036406 36.4579531,10.0455781 M33.1671484,15.6966562 L33.1671484,15.0450781 C33.2450078,15.0484297 33.3262188,15.0501484 33.4105234,15.0501484 C33.6123047,15.0501484 33.8321328,15.03975 34.0631328,15.0128516 C33.7565938,15.1981328 33.4558125,15.4237187 33.1671484,15.6966562 M37.6177656,15.9487969 C37.6959688,16.7175078 37.6633984,18.1828281 36.551625,19.2946016 C35.4381328,20.4084375 33.9710937,20.45175 33.1912969,20.3772422 C33.1184219,19.5994219 33.1613906,18.1273984 34.2729062,17.0163125 C35.3874297,15.9014453 36.8480234,15.868875 37.6177656,15.9487969 M10.8096484,20.3772422 C10.0301094,20.45175 8.562125,20.4084375 7.44828906,19.2946016 C6.33385156,18.1801641 6.301625,16.7192266 6.38111719,15.9497422 C7.15025781,15.8718828 8.61523437,15.9041094 9.72700781,17.0159687 C10.5592266,17.8481016 10.7934922,18.877375 10.828125,19.6696328 L10.828125,20.1090312 C10.8240859,20.2053672 10.8176406,20.2953437 10.8096484,20.3772422 M10.5893906,15.0501484 C10.6723203,15.0501484 10.7518984,15.0484297 10.828125,15.0454219 L10.828125,15.6922734 C10.5410938,15.4213984 10.2416016,15.1971875 9.93678125,15.0128516 C10.1677813,15.03975 10.3876953,15.0501484 10.5893906,15.0501484 M7.54161719,10.0455781 C8.160625,10.0036406 9.19058594,10.0802109 9.98482031,10.8744453 C10.7793984,11.6686797 10.8630156,12.705 10.8250313,13.3286484 C10.2006953,13.3662891 9.16471875,13.2826719 8.37048437,12.4884375 C7.57590625,11.6938594 7.49967969,10.6626094 7.54161719,10.0455781 M11.6917969,5.55130469 C12.0480078,5.88938281 12.4921328,6.47152344 12.4921328,7.27177344 C12.4921328,8.07073437 12.0510156,8.65820312 11.6942031,9.00229687 C11.3379922,8.65648437 10.8918906,8.06532031 10.8918906,7.27177344 C10.8918906,6.47083594 11.3369609,5.88835156 11.6917969,5.55130469 M15.8379375,10.0455781 C15.8799609,10.6619219 15.8040781,11.6935156 15.0091562,12.4884375 C14.2149219,13.2826719 13.1792891,13.3669766 12.5548672,13.3286484 C12.5169687,12.703625 12.6008437,11.6683359 13.3948203,10.8744453 C14.1897422,10.0791797 15.2219375,10.0032969 15.8379375,10.0455781 M12.546875,15.6966562 L12.546875,15.0450781 C12.6247344,15.0484297 12.7059453,15.0501484 12.79025,15.0501484 C12.9919453,15.0501484 13.2118594,15.03975 13.4431172,15.0128516 C13.1363203,15.1981328 12.8355391,15.4237187 12.546875,15.6966562 M16.9984375,15.9487969 C17.0780156,16.7194844 17.0457891,18.1801641 15.9312656,19.2946016 C14.8177734,20.4080938 13.3511641,20.4514063 12.5710234,20.3772422 C12.4981484,19.5994219 12.5411172,18.1273984 13.6526328,17.0163125 C14.7674141,15.9011016 16.2290391,15.8692188 16.9984375,15.9487969 M37.8477344,0 L27.2971875,0 C26.8228984,0 26.4378125,0.38465625 26.4378125,0.859375 C26.4378125,1.33400781 26.8228984,1.71875 27.2971875,1.71875 L37.8477344,1.71875 C40.2922266,1.71875 42.28125,3.7076875 42.28125,6.15226563 L42.28125,25.3945312 L33.1671484,25.3945312 L33.1671484,22.0963359 C33.3215781,22.1074219 33.4901016,22.1148125 33.6713437,22.1148125 C34.8193828,22.1148125 36.4448047,21.8321641 37.7667813,20.5098438 C40.030375,18.24625 39.22875,15.1152891 39.1935156,14.9829453 C39.1142813,14.6856016 38.8819922,14.4532266 38.5845625,14.3740781 C38.5090234,14.3538828 37.4529375,14.0840391 36.1393828,14.2786875 C36.3813828,14.1196172 36.6183984,13.9302109 36.8446719,13.7040234 C38.7436328,11.8049766 38.0719453,9.18121875 38.0423828,9.07044531 C37.9631484,8.77301563 37.7308594,8.54072656 37.4334297,8.46114844 C37.3555703,8.44069531 36.0416719,8.1049375 34.6085781,8.56117969 C34.744875,8.1785 34.8315,7.74915625 34.8315,7.27177344 C34.8315,4.96082812 32.8283828,3.77454688 32.7431328,3.72513281 C32.4766406,3.57078906 32.1482734,3.57078906 31.8817812,3.72513281 C31.7965313,3.77454688 29.7937578,4.96082812 29.7937578,7.27177344 C29.7937578,7.74984375 29.8803828,8.17978906 30.0170234,8.5628125 C28.5818672,8.10433594 27.2646172,8.44069531 27.1867578,8.46114844 C26.8893281,8.54072656 26.6570391,8.77301563 26.5778047,9.07044531 C26.5482422,9.18121875 25.8765547,11.8049766 27.7756016,13.7040234 C28.0017891,13.9302109 28.2388047,14.1196172 28.4808906,14.2786875 C27.16725,14.0840391 26.1111641,14.3535391 26.035625,14.3740781 C25.7382812,14.4532266 25.5059063,14.6856016 25.4267578,14.9829453 C25.3914375,15.1152891 24.5898125,18.2465938 26.8534062,20.5098438 C28.1757266,21.8321641 29.8008047,22.1148125 30.9488438,22.1148125 C31.1284531,22.1148125 31.2953438,22.1077656 31.4483984,22.0966797 L31.4483984,25.3945312 L12.546875,25.3945312 L12.546875,22.0963359 C12.7012188,22.1074219 12.8697422,22.1148125 13.0510703,22.1148125 C14.1991094,22.1148125 15.8245313,21.8321641 17.1465078,20.5098438 C19.4101016,18.24625 18.6084766,15.1152891 18.5735,14.9829453 C18.4940078,14.6856016 18.2617188,14.4532266 17.9642891,14.3740781 C17.88875,14.3538828 16.8323203,14.0840391 15.5190234,14.2790313 C15.7607656,14.119875 15.998125,13.9302109 16.2243984,13.7040234 C18.1233594,11.8049766 17.4516719,9.18121875 17.4221094,9.07044531 C17.342875,8.77301563 17.1105859,8.54072656 16.8131562,8.46114844 C16.7356406,8.44069531 15.4213984,8.1049375 13.9883047,8.56117969 C14.1246016,8.17884375 14.2108828,7.74915625 14.2108828,7.27177344 C14.2108828,4.96082812 12.2081094,3.77454688 12.1228594,3.72513281 C11.8562813,3.57078906 11.5276563,3.57078906 11.2615078,3.72513281 C11.1761719,3.77454688 9.17314063,4.96082812 9.17314063,7.27177344 C9.17314063,7.74984375 9.26002344,8.17978906 9.39666406,8.5628125 C7.96159375,8.10433594 6.64434375,8.44069531 6.56648438,8.46114844 C6.26905469,8.54072656 6.03676563,8.77301563 5.95753125,9.07044531 C5.92796875,9.18121875 5.25628125,11.8049766 7.15524219,13.7040234 C7.38151563,13.9302109 7.61853125,14.1196172 7.86053125,14.2786875 C6.54697656,14.0840391 5.49089063,14.3538828 5.41535156,14.3740781 C5.11792188,14.4532266 4.88563281,14.6856016 4.80639844,14.9829453 C4.77116406,15.1152891 3.96953906,18.2465938 6.23313281,20.5098438 C7.55510937,21.8321641 9.18053125,22.1148125 10.3285703,22.1148125 C10.5081797,22.1148125 10.6749844,22.1077656 10.828125,22.0966797 L10.828125,25.3945312 L7.6484375,25.3945312 C7.17371875,25.3945312 6.7890625,25.7791875 6.7890625,26.2539062 C6.7890625,26.7285391 7.17371875,27.1132812 7.6484375,27.1132812 L10.4863516,27.1132812 L8.05053906,29.5490938 C7.71486719,29.8847656 7.71486719,30.4289219 8.05053906,30.7645938 C8.38621094,31.0999219 8.93010937,31.0999219 9.266125,30.7645938 L10.828125,29.20225 L10.828125,30.1566719 C10.828125,30.6313047 11.2127812,31.0160469 11.6875,31.0160469 C12.1621328,31.0160469 12.546875,30.6313047 12.546875,30.1566719 L12.546875,29.20225 L14.1091328,30.76425 C14.2769687,30.9320859 14.4968828,31.0160469 14.7167969,31.0160469 C14.936625,31.0160469 15.1565391,30.9320859 15.324375,30.76425 C15.6600469,30.4289219 15.6600469,29.8847656 15.324375,29.5490938 L12.8885625,27.1132812 L31.106625,27.1132812 L28.6705547,29.5490938 C28.3351406,29.8847656 28.3351406,30.4289219 28.6705547,30.7645938 C29.0062266,31.0999219 29.5503828,31.0999219 29.8860547,30.7645938 L31.4483984,29.20225 L31.4483984,30.1566719 C31.4483984,30.6313047 31.8330547,31.0160469 32.3077734,31.0160469 C32.7824063,31.0160469 33.1671484,30.6313047 33.1671484,30.1566719 L33.1671484,29.20225 L34.7291484,30.76425 C34.8969844,30.9320859 35.1171563,31.0160469 35.3370703,31.0160469 C35.5568984,31.0160469 35.7768125,30.9320859 35.9446484,30.76425 C36.2803203,30.4289219 36.2803203,29.8847656 35.9446484,29.5490938 L33.5088359,27.1132812 L42.28125,27.1132812 L42.28125,42.28125 L1.71875,42.28125 L1.71875,6.15226563 C1.71875,3.7076875 3.7076875,1.71875 6.15217969,1.71875 L19.3359375,1.71875 C19.8105703,1.71875 20.1953125,1.33400781 20.1953125,0.859375 C20.1953125,0.38465625 19.8105703,0 19.3359375,0 L6.15217969,0 C2.75971094,0 0,2.75971094 0,6.15226563 L0,43.140625 C0,43.6152578 0.38465625,44 0.859375,44 L43.140625,44 C43.6152578,44 44,43.6152578 44,43.140625 L44,6.15226563 C44,2.75971094 41.2402031,0 37.8477344,0" id="Fill-26" fill="#82CF9C" mask="url(#mask-2)"></path>
                            <path d="M13.2526708,38.4241924 C11.5932407,38.4241924 10.1389825,37.665641 9.21149363,37.0291602 C9.00087105,36.88456 8.73676242,36.8427562 8.49156127,36.9150563 C8.24670081,36.9873564 8.04706501,37.1666504 7.9472471,37.4029107 C7.68577871,38.0243146 7.20670388,38.5058299 6.62082731,38.7735287 C6.67601673,38.6520577 6.74125608,38.5339276 6.81543815,38.4211942 C7.57829561,37.260709 7.57829561,35.7605676 6.81543815,34.6000824 C6.74125608,34.487349 6.67601673,34.3695615 6.62082731,34.2477479 C7.20670388,34.5157894 7.68577871,34.996962 7.9472471,35.6187086 C8.04706501,35.8549689 8.24670081,36.0340059 8.49156127,36.1062203 C8.73642174,36.1785204 9.00087105,36.1367166 9.21149363,35.9921164 C10.1389825,35.3557212 11.5932407,34.5970841 13.2526708,34.5970841 C14.8196074,34.5970841 15.9194781,35.8472592 16.3925911,36.510467 C15.9185412,37.1750454 14.8190112,38.4241924 13.2526708,38.4241924 M13.2526708,32.8838116 C11.591878,32.8838116 10.1277402,33.4627264 9.03144667,34.0878139 C8.22966704,32.9771849 6.9391885,32.2978723 5.53253964,32.2978723 C5.30667183,32.2978723 5.09008743,32.3882475 4.93039582,32.5488668 C4.77070421,32.7094861 4.68085106,32.9273287 4.68085106,33.1545086 C4.68085106,34.0084894 4.92775558,34.8350577 5.39448092,35.5451235 C5.78012551,36.1316624 5.78012551,36.8896142 5.39448092,37.4762387 C4.92775558,38.1859619 4.68085106,39.0127872 4.68085106,39.8664253 C4.68085106,40.0936053 4.77070421,40.3117905 4.93039582,40.4724098 C5.09008743,40.6330291 5.30667183,40.7234043 5.53253964,40.7234043 C6.9391885,40.7234043 8.22966704,40.0440917 9.03144667,38.9334627 C10.1277402,39.5585502 11.591878,40.137465 13.2526708,40.137465 C16.4056219,40.137465 18.0846408,37.0479206 18.1545644,36.9160843 C18.2207406,36.791872 18.2553191,36.650013 18.2553191,36.509182 C18.2553191,36.3679227 18.2207406,36.2294046 18.1545644,36.1049353 C18.0846408,35.9734417 16.4056219,32.8838116 13.2526708,32.8838116" id="Fill-27" fill="#82CF9C" mask="url(#mask-2)"></path>
                            <path d="M23.1983451,34.6001058 C23.1241626,34.4873713 23.0589228,34.3695826 23.003733,34.2477677 C23.5896133,34.5154693 24.0686911,34.9969894 24.3301612,35.6183997 C24.4299797,35.8549194 24.6296167,36.0339582 24.8744787,36.106259 C25.1193407,36.1785599 25.3837917,36.1366699 25.5944156,35.9918113 C26.5219103,35.3556667 27.9761777,34.5971075 29.6356181,34.5971075 C31.2025646,34.5971075 32.3025273,35.8472952 32.7755581,36.5105098 C32.3015053,37.175095 31.2019684,38.4242547 29.6356181,38.4242547 C27.9761777,38.4242547 26.5219103,37.6656099 25.5944156,37.0291227 C25.3837917,36.8846067 25.1196814,36.8428024 24.8744787,36.9150176 C24.6296167,36.9873184 24.4299797,37.1666999 24.3301612,37.4029626 C24.0686911,38.0243728 23.5896133,38.505893 23.003733,38.7735946 C23.0589228,38.6521223 23.1241626,38.533991 23.1983451,38.4211708 C23.9612073,37.2607595 23.9612073,35.7606028 23.1983451,34.6001058 M21.0638298,39.8667593 C21.0638298,40.0940272 21.1535983,40.311872 21.3132909,40.4724929 C21.4729835,40.6331139 21.6895693,40.7234043 21.9154385,40.7234043 C23.3220962,40.7234043 24.6125829,40.0441704 25.4144527,38.9335302 C26.5106679,39.558624 27.974815,40.1375447 29.6356181,40.1375447 C32.788589,40.1375447 34.4676184,37.0478832 34.5375425,36.9163882 C34.6037191,36.7922603 34.6382979,36.6500573 34.6382979,36.5091392 C34.6382979,36.3683067 34.6037191,36.2294446 34.5375425,36.1052311 C34.4676184,35.9733934 32.788589,32.8838175 29.6356181,32.8838175 C27.974815,32.8838175 26.5106679,33.4627382 25.4144527,34.0878321 C24.6125829,32.9771918 23.3220962,32.2978723 21.9154385,32.2978723 C21.6895693,32.2978723 21.4729835,32.3882484 21.3132909,32.5488693 C21.1535983,32.7094903 21.0638298,32.9273351 21.0638298,33.1545173 C21.0638298,34.0085067 21.3106507,34.8349978 21.777379,35.5450709 C22.163026,36.1317014 22.163026,36.8896609 21.777379,37.4762057 C21.3106507,38.1859361 21.0638298,39.0128555 21.0638298,39.8667593" id="Fill-28" fill="#82CF9C" mask="url(#mask-2)"></path>
                            <path d="M14.5468612,35.5744681 L14.4744154,35.5744681 C13.9773745,35.5744681 13.5744681,35.9935915 13.5744681,36.5106383 C13.5744681,37.0274043 13.9773745,37.4468085 14.4744154,37.4468085 L14.5468612,37.4468085 C15.0439021,37.4468085 15.4468085,37.0274043 15.4468085,36.5106383 C15.4468085,35.9935915 15.0439021,35.5744681 14.5468612,35.5744681" id="Fill-29" fill="#82CF9C" mask="url(#mask-2)"></path>
                            <path d="M31.3254792,37.4468085 L31.397925,37.4468085 C31.8949659,37.4468085 32.2978723,37.0274043 32.2978723,36.5106383 C32.2978723,35.9935915 31.8949659,35.5744681 31.397925,35.5744681 L31.3254792,35.5744681 C30.8284383,35.5744681 30.4255319,35.9935915 30.4255319,36.5106383 C30.4255319,37.0274043 30.8284383,37.4468085 31.3254792,37.4468085" id="Fill-30" fill="#82CF9C" mask="url(#mask-2)"></path>
                            <path d="M36.3172255,35.848766 C36.142817,36.0228 36.0425532,36.2645191 36.0425532,36.5106383 C36.0425532,36.7567574 36.142817,36.9984766 36.3172255,37.1726043 C36.4912596,37.3466383 36.7326043,37.4468085 36.9787234,37.4468085 C37.225217,37.4468085 37.4665617,37.3466383 37.6406894,37.1726043 C37.8158468,36.9984766 37.9148936,36.7567574 37.9148936,36.5106383 C37.9148936,36.2645191 37.8158468,36.0228 37.6406894,35.848766 C37.4665617,35.6736085 37.225217,35.5744681 36.9787234,35.5744681 C36.7326043,35.5744681 36.4912596,35.6736085 36.3172255,35.848766" id="Fill-31" fill="#FFFFFF" mask="url(#mask-2)"></path>
                            <path d="M40.9171915,34.3636255 C41.0923489,34.1895915 41.1914894,33.9482468 41.1914894,33.7021277 C41.1914894,33.455634 41.0923489,33.2142894 40.9171915,33.0401617 C40.7431574,32.8650043 40.5018128,32.7659574 40.2553191,32.7659574 C40.0092,32.7659574 39.7678553,32.8650043 39.5937277,33.0401617 C39.4193191,33.2142894 39.3191489,33.4548851 39.3191489,33.7021277 C39.3191489,33.9482468 39.4193191,34.1895915 39.5937277,34.3636255 C39.7678553,34.5376596 40.0092,34.6382979 40.2553191,34.6382979 C40.5018128,34.6382979 40.7431574,34.538034 40.9171915,34.3636255" id="Fill-32" fill="#FFFFFF" mask="url(#mask-2)"></path>
                            <path d="M38.3829787,30.4255319 C38.6294723,30.4255319 38.870817,30.3263915 39.0448511,30.151234 C39.2200085,29.9772 39.3191489,29.7358553 39.3191489,29.4893617 C39.3191489,29.2432426 39.2200085,29.0018979 39.0448511,28.8278638 C38.870817,28.6533617 38.6302213,28.5531915 38.3829787,28.5531915 C38.1368596,28.5531915 37.8955149,28.6533617 37.7214809,28.8278638 C37.5469787,29.0018979 37.4468085,29.2432426 37.4468085,29.4893617 C37.4468085,29.7366043 37.5469787,29.9772 37.7214809,30.151234 C37.8955149,30.3263915 38.1368596,30.4255319 38.3829787,30.4255319" id="Fill-33" fill="#FFFFFF" mask="url(#mask-2)"></path>
                            <path d="M19.3852766,32.9597447 C19.5593106,32.7857106 19.6595745,32.5439915 19.6595745,32.2978723 C19.6595745,32.0517532 19.5593106,31.810034 19.3852766,31.6359064 C19.2112426,31.4618723 18.9695234,31.3617021 18.7234043,31.3617021 C18.4772851,31.3617021 18.235566,31.4618723 18.0614383,31.6359064 C17.8874043,31.810034 17.787234,32.0506298 17.787234,32.2978723 C17.787234,32.5439915 17.8874043,32.7857106 18.0614383,32.9597447 C18.235566,33.1337787 18.4772851,33.2340426 18.7234043,33.2340426 C18.9695234,33.2340426 19.2112426,33.1337787 19.3852766,32.9597447" id="Fill-34" fill="#FFFFFF" mask="url(#mask-2)"></path>
                            <path d="M20.5957447,28.0851064 C20.3496255,28.0851064 20.1079064,28.1852766 19.9338723,28.3594043 C19.7597447,28.5334383 19.6595745,28.7751574 19.6595745,29.0212766 C19.6595745,29.2673957 19.7597447,29.5091149 19.9338723,29.6831489 C20.1079064,29.8572766 20.3496255,29.9574468 20.5957447,29.9574468 C20.8418638,29.9574468 21.083583,29.8572766 21.257617,29.6831489 C21.4317447,29.5091149 21.5319149,29.2673957 21.5319149,29.0212766 C21.5319149,28.7751574 21.4317447,28.5334383 21.257617,28.3594043 C21.083583,28.1852766 20.8418638,28.0851064 20.5957447,28.0851064" id="Fill-35" fill="#FFFFFF" mask="url(#mask-2)"></path>
                            <path d="M4.21276596,25.2765957 C3.96664681,25.2765957 3.72492766,25.376766 3.55089362,25.5508936 C3.37676596,25.7249277 3.27659574,25.9666468 3.27659574,26.212766 C3.27659574,26.4588851 3.37676596,26.7006043 3.55089362,26.8746383 C3.72492766,27.048766 3.96664681,27.1489362 4.21276596,27.1489362 C4.45888511,27.1489362 4.70060426,27.048766 4.8746383,26.8746383 C5.04876596,26.7006043 5.14893617,26.4588851 5.14893617,26.212766 C5.14893617,25.9666468 5.04876596,25.7249277 4.8746383,25.5508936 C4.70060426,25.376766 4.45888511,25.2765957 4.21276596,25.2765957" id="Fill-36" fill="#82CF9C" mask="url(#mask-2)"></path>
                        </g>
                    </g>
                </g>
            </g>
        </g>
    </g>
</svg>