<?xml version="1.0" encoding="UTF-8"?>
<svg width="52px" height="53px" viewBox="0 0 52 53" version="1.1" xmlns="http://www.w3.org/2000/svg" xmlns:xlink="http://www.w3.org/1999/xlink">
    <!-- Generator: Sketch 53.2 (72643) - https://sketchapp.com -->
    <title>Group 32</title>
    <desc>Created with Sketch.</desc>
    <defs>
        <filter x="-3.2%" y="-15.0%" width="106.4%" height="131.2%" filterUnits="objectBoundingBox" id="filter-1">
            <feOffset dx="0" dy="2" in="SourceAlpha" result="shadowOffsetOuter1"></feOffset>
            <feGaussianBlur stdDeviation="2" in="shadowOffsetOuter1" result="shadowBlurOuter1"></feGaussianBlur>
            <feColorMatrix values="0 0 0 0 0   0 0 0 0 0   0 0 0 0 0  0 0 0 0.5 0" type="matrix" in="shadowBlurOuter1" result="shadowMatrixOuter1"></feColorMatrix>
            <feMerge>
                <feMergeNode in="shadowMatrixOuter1"></feMergeNode>
                <feMergeNode in="SourceGraphic"></feMergeNode>
            </feMerge>
        </filter>
        <polygon id="path-2" points="0 0 43.95192 0 43.95192 44 0 44"></polygon>
    </defs>
    <g id="Page-1" stroke="none" stroke-width="1" fill="none" fill-rule="evenodd">
        <g id="Insights" transform="translate(-20.000000, -714.000000)">
            <g id="Menu" transform="translate(0.000000, 130.000000)">
                <g id="Ero" filter="url(#filter-1)" transform="translate(0.000000, 567.000000)">
                    <g id="Group-11" transform="translate(24.000000, 16.000000)">
                        <g id="Group-32" transform="translate(0.000000, 3.250000)">
                            <polygon id="Fill-1" fill="#BCE8CA" points="0.75862069 43.2413793 0.75862069 0.75862069 6.54493351 6.28498694 8.62344046 9.65852883 7.67197507 14.2251027 12.2360142 15.6569115 14.7879437 18.3934314 15.2636764 22.5601415 19.9247445 26.0358216 21.7790752 31.2672734 27.5657303 33.3443673 32.0821106 37.8917743 38.2615874 38.5831451 43.2413793 43.2413793"></polygon>
                            <polygon id="Fill-2" fill="#BCE8CA" points="15.9310345 6.75520373 17.9271222 3.39356511 22.5965545 3.03448276 25.0344828 7.37442785 23.1620354 10.5272593 17.9248029 11.3793103"></polygon>
                            <polygon id="Fill-3" fill="#BCE8CA" points="32.5022835 13.5754938 31.1034483 11.7689471 32.0564792 9.3157586 35.0975109 9.10344828 36.4137931 10.8020138 35.5991863 13.6551724"></polygon>
                            <polygon id="Fill-4" fill="#BCE8CA" points="26.2852471 24.9042883 25.0344828 22.0815343 26.8634154 18.9655172 30.6865927 19.4426012 31.862069 22.0921226 30.095467 25.7931034"></polygon>
                            <polygon id="Fill-5" fill="#BCE8CA" points="36.7912441 32.3020314 36.4137931 29.5580078 38.1913851 28.0689655 41.0332983 28.5656857 41.7241379 31.2204787 40.0528858 32.6206897"></polygon>
                            <g id="Group-31">
                                <g id="Group-8">
                                    <mask id="mask-3" fill="white">
                                        <use xlink:href="#path-2"></use>
                                    </mask>
                                    <g id="Clip-7"></g>
                                    <path d="M5.25044633,43.2413793 C5.65312939,43.2413793 5.31089301,8.04795638 5.25044633,7.99716732 C5.63720285,7.49309609 6.304764,7.35594331 7.25312977,7.585709 C8.95143814,7.99716732 11.0035562,9.74788203 10.1347614,8.56442152 C9.50467001,7.7061195 6.68019386,4.93100503 1.66133297,0.239078125 C1.37747925,0.000859375 0.958382204,-0.0660859375 0.596684941,0.06875 C0.234791104,0.203671875 -1.7254902e-05,0.514421875 -1.7254902e-05,0.858429687 L-1.7254902e-05,43.1415703 C-1.7254902e-05,43.6156875 0.439523549,44 0.981774581,44 L5.25044633,43.2413793 Z" id="Path-Copy" fill="#FFFFFF"></path>
                                    <path d="M1.7235749,2.87160156 L5.71187294,6.68258594 L7.52372392,9.62482812 L6.61585725,13.9839219 C6.52595922,14.4154141 6.77874353,14.8445859 7.20071216,14.9770156 L11.6904376,16.3861328 L13.8460925,18.6989687 L14.2958416,22.6395469 C14.3226729,22.8744141 14.4455278,23.0879687 14.6355043,23.2296797 L19.1439514,26.5932734 L20.9365631,31.6530156 C21.0226651,31.8959609 21.2135906,32.0874297 21.4568847,32.1748281 L27.1485004,34.2190234 L31.5806808,38.6839062 C31.7191514,38.8233828 31.9015357,38.9114687 32.0972925,38.9333828 L38.0466965,39.5993984 L40.9142886,42.2832266 L1.7235749,42.2832266 L1.7235749,2.87160156 Z M43.090218,44 C43.4436847,44 43.7611749,43.7850703 43.8913631,43.4577344 C44.0214651,43.1303984 43.9377788,42.7570859 43.6802494,42.5159453 L39.0178886,38.1525547 C38.8822651,38.025625 38.7090259,37.945875 38.5240533,37.9251641 L32.5922494,37.261125 L28.2370259,32.8738437 C28.146869,32.7829219 28.0373004,32.7132266 27.9166024,32.6699141 L22.4260063,30.6979062 L20.6823984,25.7766094 C20.6257161,25.6165937 20.522618,25.4769453 20.3863043,25.3751953 L15.9664612,22.0776875 L15.52672,18.2248516 C15.5059278,18.0426641 15.4271592,17.8720781 15.3020612,17.7377578 L12.7985475,15.0516953 C12.6968298,14.9425547 12.5685396,14.8616875 12.4260141,14.817 L8.46195922,13.5727969 L9.28096314,9.64046875 C9.32548078,9.42648437 9.28648471,9.2035625 9.17165333,9.01725 L7.12297882,5.69078125 C7.08441412,5.62830469 7.03808471,5.57098437 6.98502588,5.52019531 L1.45828078,0.239078125 C1.20912,0.000859375 0.84124549,-0.0660859375 0.523755294,0.06875 C0.206092549,0.203671875 -1.7254902e-05,0.514421875 -1.7254902e-05,0.858429687 L-1.7254902e-05,43.1415703 C-1.7254902e-05,43.6156875 0.385802353,44 0.861778824,44 L43.090218,44 Z" id="Fill-6" fill="#82CF9C"></path>
                                </g>
                                <path d="M18.6563365,10.0763438 L17.2428149,6.71696094 L18.6452071,4.296875 L21.9508149,4.03639844 L23.7091757,7.24384375 L22.4324855,9.44676562 L18.6563365,10.0763438 Z M23.7220306,10.6558203 L25.4438973,7.68478906 C25.5942737,7.42542969 25.5979835,7.10694531 25.4539914,6.84423438 L23.1960149,2.72542188 C23.0331286,2.42850781 22.7106345,2.25414063 22.371662,2.281125 L18.0575051,2.62109375 C17.7746973,2.6434375 17.5209639,2.8029375 17.3791286,3.04777344 L15.5365639,6.22746094 C15.4019757,6.45966406 15.3840306,6.74110938 15.4881639,6.9884375 L17.3307286,11.3672969 C17.466611,11.6901641 17.7827208,11.8939219 18.1251443,11.8939219 C18.1723365,11.8939219 18.2200463,11.8900547 18.2678424,11.8820625 L23.118109,11.0733906 C23.3716698,11.0309375 23.5933953,10.8777969 23.7220306,10.6558203 L23.7220306,10.6558203 Z" id="Fill-9" fill="#82CF9C"></path>
                                <path d="M27.3265537,19.8050703 L29.9794086,20.1268203 L30.734742,21.7815469 L29.5094714,24.2767422 L26.9264125,23.6910781 L26.0891184,21.8540781 L27.3265537,19.8050703 Z M25.533942,24.7885859 C25.6453224,25.0328203 25.8648047,25.2112266 26.127338,25.2706953 L29.792538,26.101625 C29.8564675,26.1161484 29.9205694,26.1231094 29.9841537,26.1231094 C30.3075969,26.1231094 30.6110243,25.9409219 30.7579498,25.6417734 L32.4616988,22.1719609 C32.574891,21.9416484 32.5786871,21.6729219 32.472138,21.4394297 L31.34824,18.9774062 C31.2240047,18.7049844 30.9662165,18.5167812 30.6678792,18.4805156 L26.9802478,18.0332969 C26.6429145,17.9923047 26.3128282,18.15275 26.137691,18.4429609 L24.37864,21.3556406 C24.2325773,21.5976406 24.2152361,21.8958437 24.3325694,22.1530547 L25.533942,24.7885859 Z" id="Fill-11" fill="#82CF9C"></path>
                                <path d="M33.0701239,9.87412422 L34.7532533,9.74788203 L35.3981553,10.6423195 L34.9478024,12.3377805 L33.2950416,12.2921477 L32.5631749,11.2764523 L33.0701239,9.87412422 Z M35.5823514,14.0728586 C35.5904612,14.0730305 35.598571,14.0732023 35.6065082,14.0732023 C35.9963827,14.0732023 36.3392376,13.8116945 36.4394024,13.434343 L37.1685082,10.6899289 C37.234422,10.4419992 37.1855043,10.1778273 37.0353867,9.96951484 L35.8710259,8.35483516 C35.6958024,8.11163203 35.4061788,7.97688203 35.1063749,7.99965547 L32.3838102,8.20392891 C32.0450102,8.22936641 31.7528847,8.45074141 31.6377082,8.76905391 L30.7879906,11.1194445 C30.6919671,11.3853352 30.7332925,11.6813039 30.8987671,11.9109289 L32.1441396,13.6389602 C32.3010729,13.8567258 32.5511827,13.9890695 32.8202729,13.9964602 L35.5823514,14.0728586 Z" id="Fill-13" fill="#82CF9C"></path>
                                <path d="M38.4964024,28.8618258 L39.9624651,29.1568492 L40.3332729,30.7973102 L39.5389435,31.563357 L37.7893827,31.3665602 L37.5938847,29.731857 L38.4964024,28.8618258 Z M36.1585357,32.2447555 C36.2058141,32.6404977 36.5201984,32.9516773 36.9176651,32.9962789 L39.7494533,33.3147633 C39.7818063,33.3183727 39.8140729,33.3201773 39.8462533,33.3201773 C40.0687553,33.3201773 40.2840965,33.2343258 40.4456886,33.0785211 L41.8797435,31.6957008 C42.0956024,31.4875602 42.1869671,31.1823102 42.1210533,30.8902945 L41.5212729,28.2369742 C41.4465592,27.9068023 41.1840259,27.6509664 40.8510925,27.5840211 L38.393218,27.0895367 C38.1152416,27.0338492 37.827171,27.1176383 37.623218,27.3141773 L36.0883082,28.794107 C35.8948808,28.9805914 35.8001514,29.2463102 35.8319004,29.5123727 L36.1585357,32.2447555 Z" id="Fill-15" fill="#82CF9C"></path>
                                <path d="M35.6151357,27.0844148 C36.7241945,27.0844148 36.7260063,25.3674695 35.6151357,25.3674695 C34.5061631,25.3674695 34.5041788,27.0844148 35.6151357,27.0844148" id="Fill-17" fill="#82CF9C"></path>
                                <path d="M22.2130204,19.3893133 C23.3219929,19.3893133 23.323891,17.6724539 22.2130204,17.6724539 C21.1039616,17.6724539 21.1021498,19.3893133 22.2130204,19.3893133" id="Fill-19" fill="#82CF9C"></path>
                                <path d="M19.3041114,17.0525094 C20.4131702,17.0525094 20.414982,15.33565 19.3041114,15.33565 C18.1950525,15.33565 18.1931545,17.0525094 19.3041114,17.0525094" id="Fill-21" fill="#82CF9C"></path>
                                <path d="M12.2376078,5.02528984 C13.3466667,5.02528984 13.3484784,3.30843047 12.2376078,3.30843047 C11.128549,3.30843047 11.1267373,5.02528984 12.2376078,5.02528984" id="Fill-23" fill="#82CF9C"></path>
                                <path d="M29.2221427,4.43006094 C28.1130839,4.43006094 28.1112722,6.14692031 29.2221427,6.14692031 C30.3311153,6.14692031 30.3330996,4.43006094 29.2221427,4.43006094" id="Fill-25" fill="#82CF9C"></path>
                                <path d="M15.7636071,38.1626266 L9.04152863,38.1626266 C8.56555216,38.1626266 8.17973255,38.5469391 8.17973255,39.0210563 C8.17973255,39.4951734 8.56555216,39.8794859 9.04152863,39.8794859 L15.7636071,39.8794859 C16.2395835,39.8794859 16.6254031,39.4951734 16.6254031,39.0210563 C16.6254031,38.5469391 16.2395835,38.1626266 15.7636071,38.1626266" id="Fill-27" fill="#82CF9C"></path>
                                <path d="M18.7798416,38.2484781 C17.6707827,38.2484781 17.668971,39.9653375 18.7798416,39.9653375 C19.8889004,39.9653375 19.8907122,38.2484781 18.7798416,38.2484781" id="Fill-29" fill="#82CF9C"></path>
                            </g>
                        </g>
                    </g>
                </g>
            </g>
        </g>
    </g>
</svg>