<?xml version="1.0" encoding="UTF-8"?>
<svg width="44px" height="44px" viewBox="0 0 44 44" version="1.1" xmlns="http://www.w3.org/2000/svg" xmlns:xlink="http://www.w3.org/1999/xlink">
    <!-- Generator: Sketch 53.2 (72643) - https://sketchapp.com -->
    <title>Group 20</title>
    <desc>Created with Sketch.</desc>
    <defs>
        <polygon id="path-1" points="0 8.59375001e-06 44 8.59375001e-06 44 44 0 44"></polygon>
    </defs>
    <g id="Page-1" stroke="none" stroke-width="1" fill="none" fill-rule="evenodd">
        <g id="Insights" transform="translate(-24.000000, -229.000000)">
            <g id="Menu" transform="translate(0.000000, 130.000000)">
                <g id="nb" transform="translate(0.000000, 81.000000)">
                    <g id="Group-20" transform="translate(24.000000, 18.000000)">
                        <mask id="mask-2" fill="white">
                            <use xlink:href="#path-1"></use>
                        </mask>
                        <g id="Clip-6"></g>
                        <path d="M18,1 L43,1 L43,43 L6,43 L6,13 C6,6.372583 11.372583,1 18,1 Z" id="Rectangle" fill="#BCE8CA" fill-rule="nonzero" mask="url(#mask-2)"></path>
                        <path d="M32.3541645,30.6980862 L26.8567263,30.6980862 C26.6182838,30.6980862 26.3938775,30.5809139 26.2563576,30.3846721 L18.3859474,19.1458577 C18.2236274,18.9142039 17.9312792,18.8149113 17.662956,18.9009244 C17.394719,18.9865903 17.2125073,19.2375993 17.2125073,19.5213297 L17.2125073,30.6533004 C17.2125073,30.6781235 17.1926156,30.6980862 17.1680738,30.6980862 L13.6722091,30.6980862 L13.6722091,14.6509569 C13.6722091,14.2914551 13.383047,14 13.0263736,14 C12.6697001,14 12.380538,14.2914551 12.380538,14.6509569 L12.380538,30.6980862 L11.6458355,30.6980862 C11.2891621,30.6980862 11,30.9895413 11,31.3490431 C11,31.7086317 11.2891621,32 11.6458355,32 L17.1680738,32 C17.904843,32 18.5041784,31.395912 18.5041784,30.6533004 L18.5041784,21.5722779 L25.2012345,31.1354424 C25.580383,31.676865 26.1991796,32 26.8567263,32 L32.3541645,32 C32.7108379,32 33,31.7086317 33,31.3490431 C33,30.9895413 32.7108379,30.6980862 32.3541645,30.6980862" id="Fill-1" fill="#82CF9C" mask="url(#mask-2)"></path>
                        <path d="M32.354167,12 L26.8325531,12 C26.0957868,12 25.4963677,12.6040851 25.4963677,13.3466932 L25.4963677,22.4276718 L18.7994238,12.8646402 C18.4202768,12.3232202 17.8013966,12 17.1439386,12 L11.645833,12 C11.289161,12 11,12.2914537 11,12.6509538 C11,13.0104538 11.289161,13.3019075 11.645833,13.3019075 L17.1439386,13.3019075 C17.3823801,13.3019075 17.6066994,13.4190792 17.7441327,13.6154069 L25.6145982,24.8540803 C25.7379953,25.030185 25.9364813,25.1296507 26.1423729,25.1296507 C26.2073868,25.1296507 26.2732617,25.1196694 26.3376728,25.0990993 C26.6059088,25.013347 26.7880337,24.7623392 26.7880337,24.4786969 L26.7880337,13.3467799 C26.7880337,13.3220437 26.8080115,13.3019943 26.8325531,13.3019943 L30.3277152,13.3019943 L30.3277152,29.3490462 C30.3277152,29.7085463 30.6168762,30 30.9735482,30 C31.3301342,30 31.6193813,29.7085463 31.6193813,29.3490462 L31.6193813,13.3019075 L32.354167,13.3019075 C32.710839,13.3019075 33,13.0104538 33,12.6509538 C33,12.2914537 32.710839,12 32.354167,12" id="Fill-3" fill="#82CF9C" mask="url(#mask-2)"></path>
                        <g id="Group-7" mask="url(#mask-2)" fill="#82CF9C">
                            <path d="M42.7109375,41.2888523 C42.7109375,42.073032 42.0730234,42.7109461 41.2888438,42.7109461 L2.71115625,42.7109461 C1.92697656,42.7109461 1.2890625,42.073032 1.2890625,41.2888523 L1.2890625,2.71116484 C1.2890625,1.92698516 1.92697656,1.28907109 2.71115625,1.28907109 L41.2887578,1.28907109 C42.0730234,1.28907109 42.7109375,1.92698516 42.7109375,2.71116484 L42.7109375,41.2888523 Z M2.71115625,8.59375001e-06 C1.2161875,8.59375001e-06 0,1.21619609 0,2.71116484 C0,16.6990159 0,27.1899042 0,34.1838297 C0,35.7627045 0,38.1310167 0,41.2887664 C0,42.7838211 1.2161875,44.0000086 2.71115625,44.0000086 L41.2887578,44.0000086 C42.7838125,44.0000086 44,42.7838211 44,41.2888523 L44,2.71116484 C44,1.21619609 42.7838125,8.59375001e-06 41.2888437,8.59375001e-06 L2.71115625,8.59375001e-06 Z" id="Fill-5"></path>
                        </g>
                        <path d="M7.81133511,7.77044504 C7.81133511,7.79302967 7.79302967,7.81133511 7.77044504,7.81133511 L5.22955496,7.81133511 C5.20697033,7.81133511 5.18866489,7.79302967 5.18866489,7.77044504 L5.18866489,5.22955496 C5.18866489,5.20697033 5.20697033,5.18866489 5.22955496,5.18866489 L7.77044504,5.18866489 C7.79302967,5.18866489 7.81133511,5.20697033 7.81133511,5.22955496 L7.81133511,7.77044504 Z M5.22955496,4 C4.55154051,4 4,4.55154051 4,5.22955496 L4,7.77044504 C4,8.44845949 4.55154051,9 5.22955496,9 L7.77044504,9 C8.44845949,9 9,8.44845949 9,7.77044504 L9,5.22955496 C9,4.55154051 8.44845949,4 7.77044504,4 L5.22955496,4 Z" id="Fill-8" fill="#82CF9C" mask="url(#mask-2)"></path>
                        <path d="M39.4237861,4 L37.5762139,4 C37.2579902,4 37,4.22386667 37,4.5 C37,4.77613333 37.2579902,5 37.5762139,5 L39.4237861,5 C39.7420098,5 40,4.77613333 40,4.5 C40,4.22386667 39.7420098,4 39.4237861,4" id="Fill-10" fill="#FFFFFF" mask="url(#mask-2)"></path>
                        <path d="M39.4237861,8 L37.5762139,8 C37.2579902,8 37,8.22386667 37,8.5 C37,8.77613333 37.2579902,9 37.5762139,9 L39.4237861,9 C39.7420098,9 40,8.77613333 40,8.5 C40,8.22386667 39.7420098,8 39.4237861,8" id="Fill-12" fill="#FFFFFF" mask="url(#mask-2)"></path>
                        <path d="M39.4237861,11 L37.5762139,11 C37.2579902,11 37,11.2238667 37,11.5 C37,11.7761333 37.2579902,12 37.5762139,12 L39.4237861,12 C39.7420098,12 40,11.7761333 40,11.5 C40,11.2238667 39.7420098,11 39.4237861,11" id="Fill-14" fill="#FFFFFF" mask="url(#mask-2)"></path>
                        <path d="M32.3542506,35 L11.6458355,35 C11.2891621,35 11,35.2238 11,35.5 C11,35.7761333 11.2891621,36 11.6458355,36 L32.3541645,36 C32.7108379,36 33,35.7761333 33,35.5 C33,35.2238 32.710924,35 32.3542506,35" id="Fill-16" fill="#FFFFFF" mask="url(#mask-2)"></path>
                        <path d="M29.37289,38 L14.62711,38 C14.280778,38 14,38.2238667 14,38.5 C14,38.7762 14.280778,39 14.62711,39 L29.37289,39 C29.7193056,39 30,38.7762 30,38.5 C30,38.2238667 29.7193056,38 29.37289,38" id="Fill-18" fill="#FFFFFF" mask="url(#mask-2)"></path>
                    </g>
                </g>
            </g>
        </g>
    </g>
</svg>