<?xml version="1.0" encoding="UTF-8"?>
<svg width="42px" height="43px" viewBox="0 0 42 43" version="1.1" xmlns="http://www.w3.org/2000/svg" xmlns:xlink="http://www.w3.org/1999/xlink">
    <!-- Generator: Sketch 52.6 (67491) - http://www.bohemiancoding.com/sketch -->
    <title>Group 27</title>
    <desc>Created with Sketch.</desc>
    <defs>
        <polygon id="path-1" points="3.66666667e-05 -0.000146666667 38.8661533 -0.000146666667 38.8661533 39.6 3.66666667e-05 39.6"></polygon>
        <polygon id="path-3" points="0.732636667 0 12.4659333 0 12.4659333 11.7331867 0.732636667 11.7331867"></polygon>
    </defs>
    <g id="Page-1" stroke="none" stroke-width="1" fill="none" fill-rule="evenodd">
        <g id="Insights" transform="translate(-25.000000, -474.000000)">
            <g id="Menu" transform="translate(0.000000, 130.000000)">
                <g id="prices" transform="translate(0.000000, 324.000000)">
                    <g id="Group-4" transform="translate(24.000000, 16.000000)">
                        <g id="Group-27" transform="translate(0.000000, 4.000000)">
                            <g id="Group-3" transform="translate(0.000000, 3.667033)">
                                <mask id="mask-2" fill="white">
                                    <use xlink:href="#path-1"></use>
                                </mask>
                                <g id="Clip-2"></g>
                                <path d="M21.5271317,2.5663 L2.6814021,21.6120192 C2.03953263,22.255394 2.03953263,23.299004 2.6814021,23.9430307 L15.9909263,37.2837689 C16.6327957,37.9271437 17.6739639,37.9271437 18.3164837,37.2837689 L36.6666667,18.3931897 L36.6666667,2.5663 L21.5271317,2.5663 Z" id="Path" fill="#BCE8CA"></path>
                                <path d="M21.5271317,2.5663 L2.6814021,21.6120192 C2.03953263,22.255394 2.03953263,23.299004 2.6814021,23.9430307 C3.61922135,24.5538182 4.14910815,24.7967013 4.2710625,24.67168 C9.32796875,19.4876 14.7859616,13.6293421 23.4042553,5.58333417 C23.8620058,5.15598 27.727254,4.5779798 35,3.84933358 C37.9213313,3.39128867 38.2293617,3.05249969 35.9240911,2.83296667 C33.6188205,2.61343364 28.819834,2.52454475 21.5271317,2.5663 Z" id="Path" fill="#FFFFFF"></path>
                                <path d="M21.5271317,2.5663 L2.6814021,21.6120192 C2.03953263,22.255394 2.03953263,23.299004 2.6814021,23.9430307 L15.9909263,37.2837689 C16.6327957,37.9271437 17.6739639,37.9271437 18.3164837,37.2837689 L36.6666667,18.3931897 L36.6666667,2.5663 L21.5271317,2.5663 Z" id="Fill-1" stroke="#82CF9C" stroke-width="2"></path>
                                <path d="M30.4333333,11.3663 C29.0158917,11.3663 27.8666667,10.217075 27.8666667,8.79963333 C27.8666667,7.38219167 29.0158917,6.23296667 30.4333333,6.23296667 C31.850775,6.23296667 33,7.38219167 33,8.79963333 C33,10.217075 31.850775,11.3663 30.4333333,11.3663 Z" id="Path" stroke="#82CF9C" stroke-width="1.5" fill="#FFFFFF"></path>
                            </g>
                            <g id="Group-6" transform="translate(30.066667, 0.000367)">
                                <mask id="mask-4" fill="white">
                                    <use xlink:href="#path-3"></use>
                                </mask>
                                <g id="Clip-5"></g>
                                <path d="M1.46615333,11.7331867 C1.27842,11.7331867 1.09068667,11.66132 0.947686667,11.51832 C0.660953333,11.2315867 0.660953333,10.76812 0.947686667,10.4813867 L11.2143533,0.21472 C11.5010867,-0.0720133333 11.9645533,-0.0720133333 12.2512867,0.21472 C12.53802,0.501453333 12.53802,0.96492 12.2512867,1.25165333 L1.98462,11.51832 C1.84162,11.66132 1.65388667,11.7331867 1.46615333,11.7331867" id="Fill-4" fill="#84D09E" mask="url(#mask-4)"></path>
                            </g>
                            <path d="M30.6139533,22.9397667 L22.83622,30.7175 C22.5494867,31.0049667 22.5494867,31.4684333 22.83622,31.7551667 C22.97922,31.8981667 23.1669533,31.9693 23.3546867,31.9693 C23.5416867,31.9693 23.7301533,31.8981667 23.8731533,31.7551667 L31.6508867,23.9774333 C31.93762,23.6899667 31.93762,23.2272333 31.6508867,22.9405 C31.36342,22.6530333 30.9006867,22.6530333 30.6139533,22.9397667" id="Fill-7" fill="#82CF9C"></path>
                            <path d="M34.23838,20.3430333 C33.9670467,20.0717 33.48378,20.0717 33.2051133,20.3430333 C33.0716467,20.4816333 32.9924467,20.6723 32.9924467,20.8637 C32.9924467,21.0617 33.0716467,21.2516333 33.2051133,21.3843667 C33.34298,21.5229667 33.5336467,21.5970333 33.72578,21.5970333 C33.9164467,21.5970333 34.10638,21.5229667 34.23838,21.3843667 C34.37698,21.2516333 34.4591133,21.0617 34.4591133,20.8637 C34.4591133,20.6723 34.3777133,20.4823667 34.23838,20.3430333" id="Fill-9" fill="#82CF9C"></path>
                            <path d="M26.9838067,14.124 C27.2712733,13.8372667 27.2712733,13.3738 26.9838067,13.0870667 C26.6970733,12.8003333 26.23434,12.8003333 25.9468733,13.0870667 L18.1684067,20.8655333 C17.8816733,21.1522667 17.8816733,21.6157333 18.1684067,21.9024667 C18.3114067,22.0454667 18.49914,22.1173333 18.6868733,22.1173333 C18.8746067,22.1173333 19.06234,22.0454667 19.20534,21.9024667 L26.9838067,14.124 Z" id="Fill-11" fill="#82CF9C"></path>
                            <path d="M24.3914,22.9397667 C24.5344,23.0820333 24.7221333,23.1546333 24.9098667,23.1546333 C25.0976,23.1546333 25.2860667,23.0820333 25.4283333,22.9397667 L30.6137333,17.7543667 C30.9004667,17.4676333 30.9004667,17.0041667 30.6137333,16.7174333 C30.3277333,16.4307 29.8635333,16.4307 29.5768,16.7174333 L24.3914,21.9028333 C24.1046667,22.1895667 24.1046667,22.6530333 24.3914,22.9397667" id="Fill-13" fill="#82CF9C"></path>
                            <path d="M20.24242,26.0507133 L19.2054867,27.0869133 C18.9187533,27.37438 18.9187533,27.8378467 19.2054867,28.1238467 C19.3484867,28.2668467 19.53622,28.3387133 19.7239533,28.3387133 C19.9116867,28.3387133 20.09942,28.2668467 20.24242,28.1238467 L21.2793533,27.0869133 C21.5660867,26.80018 21.5660867,26.3374467 21.2793533,26.0507133 C20.99262,25.7632467 20.5291533,25.76398 20.24242,26.0507133" id="Fill-15" fill="#82CF9C"></path>
                            <path d="M20.76162,12.0504267 C20.4748867,11.7636933 20.01142,11.7636933 19.7246867,12.0504267 L11.94622,19.82816 C11.6594867,20.1148933 11.6594867,20.57836 11.94622,20.8650933 C12.08922,21.0080933 12.2769533,21.07996 12.4646867,21.07996 C12.65242,21.07996 12.8401533,21.0080933 12.9831533,20.8650933 L20.7608867,13.08736 C21.04762,12.8006267 21.04762,12.3364267 20.76162,12.0504267" id="Fill-17" fill="#82CF9C"></path>
                            <path d="M22.8351933,10.70696 C23.0265933,10.70696 23.21726,10.6336267 23.35586,10.4942933 C23.4893267,10.3556933 23.5685267,10.17236 23.5685267,9.97362667 C23.5685267,9.78296 23.4893267,9.59229333 23.3485267,9.45296 C23.0771933,9.18162667 22.5931933,9.18162667 22.3145267,9.46029333 C22.1825267,9.59302667 22.10186,9.78296 22.10186,9.97362667 C22.10186,10.1642933 22.1825267,10.3556933 22.3145267,10.4942933 C22.45386,10.6336267 22.6445267,10.70696 22.8351933,10.70696" id="Fill-19" fill="#82CF9C"></path>
                            <path d="M16.0962267,22.9390333 C15.9568933,23.0769 15.88356,23.2602333 15.88356,23.4597 C15.88356,23.6569667 15.9568933,23.8403 16.0962267,23.9723 C16.2282267,24.1116333 16.41816,24.1930333 16.6168933,24.1930333 C16.80756,24.1930333 16.9982267,24.1123667 17.1294933,23.9803667 C17.2688267,23.8403 17.3502267,23.6503667 17.3502267,23.4597 C17.3502267,23.2675667 17.26956,23.0769 17.1294933,22.9390333 C16.8588933,22.6677 16.3668267,22.6677 16.0962267,22.9390333" id="Fill-21" fill="#82CF9C"></path>
                            <path d="M23.35586,25.0137067 C23.4893267,24.8809733 23.5685267,24.6917733 23.5685267,24.49304 C23.5685267,24.30164 23.4893267,24.1117067 23.35586,23.9723733 C23.0771933,23.70104 22.5931933,23.70104 22.3145267,23.9723733 C22.1825267,24.1117067 22.10186,24.30164 22.10186,24.49304 C22.10186,24.6917733 22.1825267,24.8751067 22.3145267,25.0137067 C22.4545933,25.1523067 22.6445267,25.2263733 22.8351933,25.2263733 C23.0265933,25.2263733 23.21726,25.15304 23.35586,25.0137067" id="Fill-23" fill="#82CF9C"></path>
                            <path d="M16.2764067,30.25374 C16.59394,30.2104733 16.92614,30.30654 17.1776733,30.5118733 C17.41234,30.7018067 17.55534,30.9658067 17.57954,31.2562067 C17.6118067,31.6492733 17.5282067,32.0328067 17.3624733,32.3796733 L15.3524067,30.3696067 L16.2764067,30.25374 Z M11.27214,29.4008733 C10.95094,29.4412067 10.6202067,29.3480733 10.3694067,29.14274 C10.1354733,28.9528067 9.99247333,28.6880733 9.96827333,28.3976733 C9.93600667,28.00534 10.0196067,27.6210733 10.1846067,27.27494 L12.1954067,29.2850067 L11.27214,29.4008733 Z M18.90174,33.9182067 L18.4434067,33.4598733 C18.8944067,32.7786067 19.1100067,31.96314 19.04034,31.13374 C18.98314,30.4414733 18.6494733,29.81594 18.1016733,29.37154 C17.5406733,28.9176067 16.8044067,28.7100733 16.0938067,28.79954 L14.0390067,29.0554733 L11.2186067,26.2358067 C12.03554,25.84714 13.04094,25.9828067 13.71634,26.6582067 C14.0030733,26.94494 14.46654,26.94494 14.7532733,26.6582067 C15.0400067,26.3714733 15.0400067,25.9080067 14.7532733,25.6220067 C13.5014733,24.3702067 11.5618067,24.21474 10.1384067,25.1556067 L9.56714,24.5850733 C9.28040667,24.2976067 8.81694,24.2976067 8.53020667,24.5850733 C8.24347333,24.8710733 8.24347333,25.33454 8.53020667,25.6220067 L9.10294,26.1940067 C8.65267333,26.8752733 8.43707333,27.69074 8.50674,28.52014 C8.56394,29.2116733 8.89760667,29.8386733 9.44467333,30.2816067 C10.0056733,30.73554 10.73754,30.94454 11.4532733,30.8558067 L13.5080733,30.59914 L16.32114,33.4122067 C15.5064067,33.78034 14.4804733,33.6454067 13.83074,32.9956733 C13.5440067,32.70894 13.08054,32.70894 12.7938067,32.9956733 C12.5070733,33.2816733 12.5070733,33.7458733 12.7938067,34.0326067 C13.48534,34.7248733 14.4064067,35.10694 15.38614,35.10694 C16.11654,35.10694 16.8132067,34.89354 17.40794,34.4990067 L17.8640733,34.95514 C18.0070733,35.09814 18.1948067,35.1700067 18.38254,35.1700067 C18.5702733,35.1700067 18.7580067,35.09814 18.9010067,34.95514 C19.1884733,34.66914 19.1884733,34.20494 18.90174,33.9182067 Z" id="Fill-25" fill="#82CF9C"></path>
                        </g>
                    </g>
                </g>
            </g>
        </g>
    </g>
</svg>