<svg width="32" height="32" viewBox="0 0 32 32" fill="none" xmlns="http://www.w3.org/2000/svg" >
<g clip-path="url(#clip0_32506_105357)" transform="translate(4, 0)">
<rect width="24" height="24" />
<circle cx="12" cy="12" r="12" />
<circle cx="12" cy="12" r="12" />
<path d="M12.2869 13.5069C13.2139 13.5069 13.9654 12.7554 13.9654 11.8284C13.9654 10.9014 13.2139 10.1499 12.2869 10.1499C11.3599 10.1499 10.6084 10.9014 10.6084 11.8284C10.6084 12.7554 11.3599 13.5069 12.2869 13.5069Z" stroke="#028577" stroke-width="1.7" stroke-linecap="round" stroke-linejoin="round"/>
<path d="M6.4054 6C4.86325 7.54753 3.99814 9.64374 4 11.8285C4.00001 12.9174 4.21481 13.9957 4.6321 15.0015C5.04939 16.0073 5.66098 16.9209 6.4318 17.69" stroke="#028577" stroke-width="1.7" stroke-linecap="round" stroke-linejoin="round"/>
<path d="M18.1484 17.6834C18.9197 16.9159 19.5316 16.0036 19.9489 14.9987C20.3663 13.9939 20.5808 12.9165 20.5803 11.8285C20.5874 9.64657 19.7296 7.55076 18.1947 6" stroke="#028577" stroke-width="1.7" stroke-linecap="round" stroke-linejoin="round"/>
<path d="M8.68555 15.4366C8.21015 14.9637 7.83285 14.4015 7.57535 13.7823C7.31795 13.1631 7.18545 12.4991 7.18555 11.8285C7.18395 10.49 7.71125 9.20502 8.65255 8.25342" stroke="#028577" stroke-width="1.7" stroke-linecap="round" stroke-linejoin="round"/>
<path d="M15.9344 8.25342C16.8709 9.20769 17.3953 10.4915 17.3948 11.8285C17.3961 12.4987 17.2648 13.1625 17.0085 13.7817C16.7522 14.4009 16.3759 14.9634 15.9014 15.4366" stroke="#028577" stroke-width="1.7" stroke-linecap="round" stroke-linejoin="round"/>
<path d="M12.2913 11.8225L12.2627 11.8511L12.2913 11.8797L12.3199 11.8511L12.2913 11.8225Z" fill="#028577"/>
</g>
<defs>
<clipPath id="clip0_32506_105357">
<rect width="24" height="24" />
</clipPath>
</defs>
</svg>
