<svg width="1115" height="655" viewBox="0 0 1115 655" fill="none" xmlns="http://www.w3.org/2000/svg">
<path d="M1040.91 238.166C1082.46 314.924 1157.79 448.957 1083.54 499.847C987.463 565.695 807.16 577.027 614.277 577.027C376.461 579.219 167.622 554.76 130.56 541.457C51.3966 513.042 89.6092 343.131 201.359 214.673C304.168 86.5356 370.07 127.382 582.182 22.8492C752.649 -61.1604 968.854 105.056 1040.91 238.166Z" fill="#E6F5EB"/>
<path d="M469.658 33.8037C450.557 42.7944 387.243 68.0731 399.63 68.0731C439.859 68.0731 538.263 34.7977 550.117 10.5912C565.017 -19.8354 488.759 24.8131 469.658 33.8037Z" fill="#E6F5EB"/>
<path fill-rule="evenodd" clip-rule="evenodd" d="M62.7515 215.554C54.7224 214.64 47.104 217.206 40.0232 223.535C33.7421 229.149 31.3736 238.024 32.0589 249.312C32.7444 260.604 36.489 274.405 42.5511 290.002C54.6773 321.203 76.1281 359.722 101.184 399.991C123.661 436.115 149.059 473.679 173.255 508.657L173.101 508.536C173.01 508.463 172.918 508.391 172.826 508.318C172.711 508.228 172.597 508.139 172.483 508.049C158.32 496.973 144.562 489.92 132.697 487.401C120.83 484.881 110.781 486.89 104.19 494.056C101.412 497.075 100.944 500.715 102.288 504.764C103.62 508.779 106.74 513.228 111.174 517.997C120.05 527.541 134.356 538.532 150.816 550.1C161.694 557.745 173.533 565.656 185.39 573.579C191.479 577.648 197.573 581.72 203.544 585.761C220.568 597.282 236.595 608.551 248.719 618.8L248.739 618.999L248.842 620.017L249.459 619.428C249.625 619.57 249.791 619.712 249.955 619.853L250.747 619.291L250.617 618.962C250.557 618.81 250.497 618.657 250.437 618.505C256.402 612.945 264.438 606.703 272.91 600.272C274.474 599.084 276.053 597.891 277.636 596.694L277.65 596.683C285.044 591.093 292.528 585.434 299.023 580.04C306.899 573.499 313.387 567.295 316.495 562.025C318.048 559.391 318.805 556.909 318.378 554.696C317.945 552.453 316.326 550.624 313.445 549.246C309.287 547.258 302.739 546.443 295.399 547.354C288.046 548.267 279.845 550.919 272.363 555.926C268.631 558.424 265.083 561.504 261.911 565.241C266.801 542.816 271.799 518.941 275.443 497.525C278.865 477.424 281.101 459.452 280.931 446.862C280.847 440.58 280.163 435.57 278.683 432.301C277.941 430.66 276.979 429.415 275.749 428.686C274.507 427.95 273.052 427.777 271.405 428.17C260.098 430.87 251.703 437.192 245.808 446.793C245.258 440.318 244.639 433.934 243.95 427.679C240.635 397.584 235.696 370.461 229.003 350.624C225.658 340.707 221.865 332.583 217.598 326.814C213.334 321.049 208.546 317.573 203.205 317.105C196.533 316.52 190.96 318.187 186.497 321.898C182.046 325.599 178.742 331.297 176.519 338.7C173.564 348.541 172.498 361.468 173.234 376.92C162.711 350.758 152.14 327.136 141.671 306.543C123.116 270.044 104.852 243.009 87.6899 228.225C79.1064 220.831 70.7579 216.466 62.7515 215.554ZM261.439 567.402C264.858 563.039 268.779 559.528 272.92 556.757C280.258 551.845 288.308 549.242 295.523 548.346C302.75 547.449 309.087 548.271 313.014 550.149C315.717 551.441 317.043 553.056 317.396 554.886C317.755 556.746 317.137 558.966 315.633 561.518C312.625 566.62 306.266 572.725 298.384 579.271C291.908 584.649 284.447 590.29 277.054 595.88L277.051 595.883C275.462 597.084 273.877 598.282 272.306 599.475C264.202 605.627 256.456 611.635 250.538 617.051C251.524 612.421 252.609 607.439 253.764 602.184C255.328 598.799 257.005 595.537 259.008 592.288C263.473 585.05 269.571 577.871 279.674 569.609L279.041 568.835C268.864 577.157 262.688 584.417 258.157 591.763C256.891 593.815 255.754 595.874 254.695 597.962C255.367 594.919 256.058 591.795 256.765 588.605C258.273 581.796 259.848 574.683 261.439 567.402ZM249.807 615.685C250.417 612.829 251.063 609.847 251.739 606.755C250.944 608.611 250.154 610.514 249.338 612.48L249.272 612.64C249.276 612.72 249.28 612.801 249.283 612.881L249.291 613.039C249.462 613.919 249.633 614.8 249.807 615.685ZM259.99 569.347C253.216 578.909 248.777 592.202 249.189 610.232C250.393 607.34 251.565 604.567 252.811 601.864C253.763 597.533 254.763 593.018 255.794 588.362L255.797 588.351C257.153 582.227 258.563 575.86 259.99 569.347ZM248.166 607.175C248.303 589.371 253.27 576.294 260.511 566.966C265.532 543.994 270.71 519.377 274.458 497.357C277.878 477.262 280.1 459.367 279.931 446.876C279.847 440.618 279.162 435.784 277.772 432.713C277.08 431.184 276.232 430.135 275.239 429.547C274.258 428.965 273.078 428.799 271.638 429.143C260.38 431.831 252.099 438.178 246.32 447.878C246.196 448.086 246.073 448.296 245.952 448.507C250.148 499.146 250.153 555.117 246.478 598.112C247.024 601.101 247.586 604.122 248.166 607.175ZM174.393 379.812C173.374 363.124 174.379 349.303 177.477 338.988C179.665 331.699 182.887 326.201 187.137 322.667C191.374 319.143 196.677 317.536 203.118 318.101C208.054 318.534 212.612 321.756 216.794 327.409C220.973 333.058 224.726 341.073 228.056 350.944C234.714 370.681 239.644 397.722 242.956 427.789C243.694 434.486 244.351 441.333 244.929 448.28C239.361 458.083 236.216 471.044 235.045 486.824C232.935 515.252 237.225 552.964 245.47 598.161L245.441 598.509L245.393 599.06L245.362 599.415C240.744 582.129 236.031 565.172 231.242 548.6C216.933 489.076 207.725 435.303 211.654 388.802L210.658 388.717C207.107 430.738 214.247 478.645 226.165 531.271C209.516 475.233 192.027 423.979 174.393 379.812ZM245.099 602.313C243.235 595.307 241.356 588.355 239.462 581.461C241.281 588.509 243.149 595.628 245.052 602.818L245.099 602.313ZM246.294 611.392C246.394 611.764 246.493 612.136 246.592 612.509C246.157 611.862 245.716 611.21 245.272 610.553L245.343 609.896C245.362 609.718 245.381 609.54 245.4 609.362C245.699 610.04 245.997 610.716 246.294 611.392ZM244.589 607.516L244.538 608.006C241.575 601.667 238.701 595.365 235.916 589.107C237.621 592.371 239.287 595.704 240.908 599.105C242.14 601.931 243.367 604.735 244.589 607.516ZM234.497 584.318C233.442 582.375 232.373 580.458 231.291 578.567C225.373 564.886 219.892 551.441 214.857 538.311C221.476 553.922 228.044 569.358 234.497 584.318ZM206.369 518.274C191.942 484.205 177.403 449.915 163.4 418.47C149.341 386.896 135.827 358.2 123.514 335.478C111.189 312.732 100.106 296.048 90.9243 288.427L91.563 287.658C100.913 295.418 112.076 312.269 124.394 335.001C136.725 357.758 150.251 386.482 164.314 418.063C176.419 445.249 188.926 474.558 201.411 504.007C188.458 465.66 179.788 430.934 175.706 402.118C174.601 394.312 173.831 386.935 173.405 380.034C162.529 352.804 151.599 328.277 140.78 306.996C122.238 270.524 104.046 243.634 87.0373 228.983C78.5353 221.659 70.3695 217.428 62.6383 216.548C54.9298 215.67 47.5874 218.115 40.6896 224.28C34.7359 229.601 32.3804 238.105 33.0571 249.251C33.7335 260.394 37.4366 274.082 43.4832 289.64C55.5744 320.75 76.9844 359.205 102.033 399.463C125.11 436.552 151.253 475.137 176.017 510.89C193.582 525.394 211.615 546.003 227.318 571.833C219.528 553.462 212.537 535.544 206.369 518.274ZM207.301 517.911C207.355 518.039 207.41 518.167 207.464 518.295L208.533 520.819C219.814 547.46 231.013 573.906 241.818 598.69C242.689 600.516 243.546 602.36 244.39 604.224C239.369 585.278 234.589 566.803 230.272 548.843C212.486 487.301 193.642 431.079 174.616 383.077C175.063 389.041 175.758 395.35 176.697 401.978C181.267 434.243 191.609 473.966 207.301 517.911ZM247.538 616.055L247.694 616.637C235.743 606.729 220.36 595.933 204.105 584.933C198.123 580.884 192.023 576.808 185.931 572.738L185.931 572.737L185.93 572.737C174.08 564.818 162.259 556.92 151.391 549.282C134.931 537.714 120.704 526.775 111.906 517.316C107.504 512.582 104.502 508.26 103.237 504.449C101.983 500.672 102.442 497.433 104.926 494.733C111.193 487.918 120.826 485.903 132.489 488.379C144.155 490.856 157.776 497.817 171.867 508.837C173 509.723 174.136 510.636 175.274 511.574C185.785 526.749 196.047 541.413 205.717 555.232L205.718 555.233L205.719 555.235C218.073 572.889 229.462 589.164 239.174 603.366C213.878 570.09 193.259 544.693 161.027 528.777L160.584 529.674C194.972 546.655 216.054 574.488 244.1 611.517C245.234 613.015 246.38 614.528 247.538 616.055ZM246.996 610.141C246.592 608.623 246.19 607.108 245.788 605.595L245.838 605.094C246.377 607.127 246.914 609.164 247.45 611.206C247.299 610.85 247.148 610.495 246.996 610.141ZM246.112 602.228L246.147 601.84C246.255 602.42 246.363 603.001 246.472 603.583L246.282 602.87L246.112 602.228ZM245.789 594.3C237.985 550.763 233.999 514.426 236.042 486.898C237.155 471.897 240.057 459.549 245.078 450.087C249.029 498.824 249.114 552.319 245.789 594.3ZM243.188 607.478C232.8 592.189 220.247 574.251 206.505 554.614L206.503 554.611C197.488 541.729 187.962 528.115 178.198 514.038C196.261 529.587 214.684 551.567 230.395 579.015C234.456 588.401 238.721 597.898 243.188 607.478Z" fill="white" fill-opacity="0.8"/>
<path opacity="0.6" fill-rule="evenodd" clip-rule="evenodd" d="M877.788 133.431C872.052 128.052 864.653 125.803 855.535 126.993C847.445 128.049 840.557 134.063 834.677 143.821C828.793 153.588 823.86 167.194 819.709 183.625C811.404 216.494 806.192 260.795 802.789 308.623C799.739 351.496 798.141 397.237 797.078 440.149C797.004 439.874 796.93 439.6 796.856 439.327C792.136 421.998 785.443 408.238 777.642 399.329C769.839 390.418 760.864 386.301 751.642 388.471C747.755 389.385 745.327 392.141 744.075 396.261C742.831 400.353 742.727 405.834 743.466 412.339C744.945 425.36 749.825 442.702 756.053 461.761C760.177 474.38 764.892 487.754 769.614 501.148C778.939 527.601 788.29 554.128 793.162 575.046L793.059 575.234L792.561 576.136L793.383 576.001L793.425 576.187C793.458 576.332 793.491 576.477 793.523 576.621L794.496 576.632C794.566 576.352 794.636 576.071 794.705 575.79C802.504 574.6 812.302 574.033 822.548 573.559C824.445 573.471 826.358 573.387 828.276 573.302L828.278 573.302C837.208 572.906 846.247 572.506 854.368 571.758C864.215 570.85 872.795 569.425 878.212 566.832C880.923 565.534 882.918 563.909 883.841 561.835C884.773 559.738 884.559 557.297 883.099 554.497C880.994 550.455 876.36 546.013 870.126 542.551C863.88 539.083 855.985 536.572 847.31 536.432C842.997 536.363 838.499 536.88 833.922 538.151C850.476 522.34 867.938 505.386 882.949 489.698C897.04 474.973 908.997 461.335 916.021 450.786C919.528 445.521 921.841 440.973 922.547 437.415C922.901 435.632 922.861 434.05 922.32 432.741C921.772 431.416 920.735 430.43 919.219 429.806C908.892 425.557 898.773 425.977 888.741 430.542C891.992 424.855 895.137 419.203 898.155 413.619C912.687 386.726 924.264 361.37 930.335 341.059C933.37 330.905 935.038 321.983 934.998 314.747C934.959 307.519 933.213 301.883 929.318 298.42C924.453 294.097 919.158 292.275 913.563 292.794C907.987 293.312 902.174 296.148 896.237 301.017C888.367 307.472 880.214 317.551 872.026 330.746C878.7 303.025 883.898 277.38 887.456 254.302C893.772 213.341 894.934 180.407 889.988 158.278C887.515 147.212 883.503 138.791 877.788 133.431ZM832.326 539.675C837.462 538.018 842.504 537.355 847.294 537.432C855.788 537.569 863.523 540.028 869.64 543.425C875.768 546.828 880.226 551.146 882.213 554.959C883.579 557.582 883.699 559.693 882.927 561.429C882.144 563.188 880.397 564.678 877.78 565.93C872.543 568.437 864.129 569.854 854.276 570.762C846.181 571.508 837.171 571.907 828.241 572.302L828.234 572.302L828.228 572.303L828.223 572.303C826.309 572.388 824.399 572.472 822.502 572.56C812.716 573.013 803.287 573.552 795.608 574.646C799.009 571.367 802.687 567.853 806.575 564.152C809.717 562.238 812.877 560.492 816.284 558.945C823.87 555.5 832.693 553.042 845.247 551.985L845.163 550.988C832.51 552.053 823.574 554.536 815.87 558.034C813.748 558.998 811.72 560.038 809.735 561.146C811.975 559.017 814.276 556.834 816.625 554.604L816.629 554.601L816.633 554.597C821.678 549.808 826.948 544.807 832.326 539.675ZM795.847 573.028C797.903 571.049 800.054 568.989 802.286 566.858C800.651 567.919 798.993 569.02 797.281 570.157L797.281 570.157L797.133 570.255C797.064 570.367 796.995 570.478 796.926 570.59C796.567 571.4 796.207 572.212 795.847 573.028ZM830.033 540.48C819.356 544.532 808.371 553.008 798.46 568.174C801.015 566.482 803.48 564.869 805.962 563.354C809.164 560.307 812.506 557.135 815.953 553.863L815.96 553.857L815.964 553.853L815.965 553.852L815.973 553.845C820.507 549.541 825.222 545.066 830.033 540.48ZM799.457 564.913C809.652 550.325 820.903 542.367 831.802 538.793C848.768 522.603 866.792 505.138 882.227 489.007C896.313 474.286 908.217 460.702 915.189 450.232C918.681 444.987 920.9 440.576 921.566 437.221C921.898 435.548 921.835 434.185 921.396 433.124C920.963 432.078 920.143 431.268 918.838 430.731C908.565 426.503 898.526 427.014 888.519 431.748C888.303 431.85 888.088 431.954 887.872 432.06C862.346 476.516 830.528 522.992 803.224 556.582C801.973 559.323 800.718 562.101 799.457 564.913ZM871.257 333.922C879.954 319.478 888.595 308.577 896.871 301.791C902.72 296.994 908.349 294.283 913.655 293.79C918.943 293.299 923.97 295.005 928.653 299.168C932.241 302.356 933.959 307.649 933.998 314.753C934.037 321.848 932.399 330.662 929.377 340.772C923.335 360.988 911.794 386.275 897.275 413.143C894.04 419.131 890.658 425.195 887.156 431.298C877.25 436.24 867.435 445.196 857.554 457.623C839.752 480.014 821.649 513.789 802.367 556.051C802.126 556.347 801.885 556.642 801.645 556.936C807.876 539.942 813.847 523.166 819.539 506.664C842.242 449.047 865.647 399.129 895.135 362.784L894.358 362.154C867.817 394.868 846.204 438.519 825.631 488.797C844.445 432.936 859.908 380.55 871.257 333.922ZM799.718 559.285C801.943 553.234 804.135 547.21 806.294 541.216C804.023 547.277 801.747 553.405 799.463 559.593L799.718 559.285ZM795.485 567.502L795.125 568.481L795.152 567.749C795.17 567.244 795.188 566.737 795.206 566.226L795.64 565.715C795.736 565.602 795.832 565.489 795.929 565.375C795.78 566.085 795.633 566.794 795.485 567.502ZM796.359 563.315C796.271 563.42 796.183 563.525 796.094 563.63C797.348 556.912 798.646 550.27 799.985 543.71C799.481 547.17 798.916 550.661 798.287 554.178C797.636 557.246 796.993 560.292 796.359 563.315ZM801.798 537.795C802.058 535.733 802.296 533.683 802.513 531.644C805.595 517.316 808.871 503.408 812.307 489.987C808.708 506.179 805.169 522.202 801.798 537.795ZM817.364 467.269C825.511 430.689 833.697 393.861 840.683 359.704C847.697 325.412 853.499 293.821 856.84 267.882C860.183 241.915 861.048 221.692 858.236 210.087L859.208 209.851C862.069 221.661 861.173 242.06 857.831 268.009C854.486 293.986 848.678 325.605 841.663 359.904C835.658 389.264 828.767 420.595 821.777 452.04C833.461 412.984 846.403 379.355 859.552 353.203C863.132 346.083 866.728 339.514 870.322 333.537C877.343 304.679 882.785 278.036 886.468 254.15C892.78 213.215 893.915 180.435 889.012 158.496C886.561 147.528 882.613 139.327 877.103 134.16C871.614 129.012 864.526 126.829 855.664 127.985C848.019 128.982 841.35 134.685 835.534 144.337C829.723 153.981 824.82 167.478 820.678 183.87C812.396 216.65 807.188 260.88 803.787 308.694C800.652 352.747 799.053 399.805 797.991 443.718C803.392 465.776 805.706 493.138 803.275 523.485C807.641 503.861 812.368 485.064 817.364 467.269ZM818.334 467.513C818.304 467.646 818.275 467.779 818.245 467.913L817.641 470.623C811.273 499.213 804.951 527.593 799.268 554.371C798.921 556.311 798.554 558.258 798.168 560.214C805.011 541.664 811.775 523.64 818.605 506.306C839.732 445.062 857.019 387.621 869.503 336.882C866.484 342.058 863.46 347.656 860.446 353.652C845.654 383.072 831.113 422.003 818.334 467.513ZM793.801 572.088L793.61 572.609C788.597 551.992 779.54 526.297 770.528 500.731L770.528 500.731C765.812 487.354 761.109 474.012 757.004 461.45C750.776 442.392 745.926 425.136 744.46 412.227C743.726 405.767 743.847 400.448 745.032 396.551C746.208 392.682 748.414 390.257 751.871 389.444C760.602 387.39 769.227 391.237 776.89 399.988C784.555 408.742 791.194 422.344 795.891 439.59C796.27 440.979 796.635 442.391 796.988 443.827C796.537 462.464 796.183 480.532 795.849 497.56L795.849 497.56L795.849 497.561L795.849 497.563L795.849 497.563C795.429 519.025 795.04 538.834 794.532 556.043C793.766 514.233 792.091 481.503 776.158 449.959L775.265 450.41C792.365 484.262 792.94 519.485 793.706 566.341C793.737 568.237 793.769 570.153 793.801 572.088ZM796.784 566.867C797.332 565.377 797.879 563.891 798.425 562.408L798.68 562.102C797.986 563.983 797.289 565.867 796.589 567.753C796.654 567.457 796.719 567.162 796.784 566.867ZM800.597 559.79L800.753 559.601L800.536 560.081L800.29 560.625L800.597 559.79ZM804.907 552.906C823.57 512.329 841.111 479.91 858.337 458.245C867.712 446.454 876.97 437.88 886.233 432.902C861.631 475.577 831.335 519.975 804.907 552.906ZM795.341 562.218C795.947 543.614 796.379 521.606 796.851 497.525L796.851 497.525L796.851 497.524L796.851 497.524C797.161 481.688 797.489 464.955 797.896 447.703C803.081 470.963 804.901 499.739 801.525 531.485C799.364 541.531 797.299 551.783 795.341 562.218Z" fill="white"/>
<path d="M307.594 574.911C333.982 455.155 422.579 148.515 362.169 124.673C293.149 97.4335 279.178 309.011 307.594 574.911Z" fill="#DCF2E2"/>
<path d="M307.594 574.911C272.998 519.58 196.297 406.099 221.105 402.768C266.893 396.62 289.278 464.247 307.594 574.911Z" fill="#DCF2E2"/>
<path d="M307.596 576.321C338.043 518.472 425.323 418.922 397.92 404.805C364.43 387.552 308.611 465.698 307.596 576.321Z" fill="#D2EAD7"/>
<path d="M358.338 458.235C330.936 488.681 321.717 525.353 307.594 574.947" stroke="white"/>
<path d="M309.221 565.206C264.39 474.522 208.515 290.855 245.107 272.56C291.792 249.218 322.238 386.227 309.221 565.206Z" fill="#D2EAD7"/>
<path d="M262.702 343.036C290.104 401.811 299.474 482.557 308.608 573.897" stroke="white"/>
<path d="M308.371 575.443C277.925 562.25 208.328 551.042 225.151 532.818C237.329 519.624 291.118 509.476 308.371 575.443Z" fill="#D2EAD7"/>
<path d="M263.193 539.111C287.686 547.525 295.926 557.66 308.551 571.366" stroke="white"/>
<path d="M337.802 203.997C314.46 246.622 314.698 437.937 307.594 573.931" stroke="white"/>
<path d="M880.723 230.969H957.055C962.6 219.448 981.52 199.367 968.798 190.479C962.514 186.089 947.269 187.516 940.418 192.454C934.938 196.405 934.873 204.963 935.525 208.255C932.263 206.609 927.875 202.307 919.867 203.317C912.038 204.305 905.514 213.193 901.274 218.131C900.947 216.814 899.316 214.181 895.402 214.181C889.53 214.181 883.985 225.373 880.723 230.969Z" fill="white"/>
<path d="M212.427 244.412H291.363C301.614 245.436 320.067 237.246 305.715 222.914C300.053 217.261 297.106 213.701 288.287 213.701C282.137 213.701 271.885 217.796 269.835 221.891C266.418 220.184 260.796 214.701 252.408 215.748C244.207 216.772 238.398 225.985 233.955 231.104C233.614 229.739 231.905 228.033 227.805 228.033C221.654 228.033 215.845 238.611 212.427 244.412Z" fill="white"/>
<path d="M800.921 572.753C836.205 544.987 886.057 532.453 872.556 518.784C860.983 507.066 816.273 528.802 800.921 572.753Z" fill="#DCF2E2"/>
<path d="M800.917 573.39C769.195 547.286 694.833 519.248 728.459 505.021C761.396 491.086 799.884 523.502 800.917 573.39Z" fill="#D2EAD7"/>
<path d="M748.057 520.109C776.611 533.854 786.211 550.397 800.921 572.769" stroke="white"/>
<path d="M799.227 568.379C845.977 527.506 904.259 444.706 866.123 436.436C817.467 425.884 785.701 487.656 799.227 568.379Z" fill="#D2EAD7"/>
<path d="M847.763 468.208C819.189 494.699 809.404 531.108 799.863 572.295" stroke="white"/>
<path d="M799.744 572.901C830.83 575.464 895.149 595.573 887.046 574.973C881.18 560.059 838.16 530.375 799.744 572.901Z" fill="#D2EAD7"/>
<path d="M851.833 564.109C827.608 560.393 816.86 564.635 801.042 569.764" stroke="white"/>
</svg>
