<svg width="390" height="765" viewBox="0 0 390 765" fill="none" xmlns="http://www.w3.org/2000/svg">
<path d="M793.444 304.789C846.645 403.066 943.093 574.676 848.023 639.834C725.011 724.142 494.159 738.652 247.2 738.652C-57.2899 741.459 -324.679 710.143 -372.133 693.11C-473.49 656.728 -424.564 439.181 -281.484 274.709C-149.852 110.647 -65.473 162.945 206.107 29.1053C424.366 -78.4572 701.186 134.359 793.444 304.789Z" fill="#E6F5EB"/>
<path d="M62.0343 43.1311C37.578 54.6423 -43.4867 87.0082 -27.6272 87.0082C23.8805 87.0081 149.873 44.4036 165.05 13.4107C184.128 -25.5463 86.4905 31.6198 62.0343 43.1311Z" fill="#E6F5EB"/>
<path opacity="0.6" fill-rule="evenodd" clip-rule="evenodd" d="M584.493 170.792C577.184 163.937 567.753 161.067 556.115 162.586C545.819 163.929 537.032 171.586 529.512 184.065C521.988 196.553 515.677 213.958 510.362 234.991C499.733 277.061 493.06 333.774 488.703 395.008C484.775 450.228 482.728 509.16 481.367 564.385C481.191 563.714 481.012 563.047 480.832 562.383C474.792 540.208 466.229 522.612 456.261 511.228C446.29 499.841 434.847 494.607 423.109 497.369C418.192 498.525 415.115 502.007 413.522 507.247C411.938 512.459 411.803 519.454 412.748 527.777C414.639 544.433 420.884 566.624 428.858 591.026C434.135 607.175 440.17 624.295 446.215 641.441L446.215 641.441C458.164 675.338 470.15 709.338 476.387 736.137C476.334 736.233 476.281 736.328 476.228 736.424L475.73 737.327L476.627 737.179C476.657 737.308 476.686 737.438 476.715 737.567L476.776 737.833L476.836 738.101L477.809 738.113C477.866 737.885 477.923 737.657 477.979 737.43C478.02 737.268 478.06 737.106 478.1 736.944C488.109 735.409 500.697 734.681 513.856 734.072C516.286 733.959 518.735 733.851 521.191 733.742L521.194 733.742C532.628 733.236 544.197 732.724 554.59 731.766C567.199 730.604 578.161 728.78 585.072 725.472C588.529 723.817 591.049 721.755 592.21 719.144C593.382 716.509 593.121 713.431 591.265 709.87C588.586 704.727 582.678 699.058 574.71 694.633C566.732 690.202 556.646 686.995 545.564 686.817C539.887 686.725 533.956 687.429 527.92 689.166C549.234 668.812 571.754 646.957 591.096 626.743C609.136 607.89 624.438 590.436 633.425 576.941C637.912 570.202 640.861 564.398 641.759 559.872C642.21 557.604 642.155 555.609 641.476 553.968C640.791 552.311 639.493 551.073 637.582 550.286C624.262 544.805 611.216 545.408 598.274 551.409C602.513 544 606.613 536.637 610.543 529.364C629.146 494.936 643.965 462.481 651.734 436.488C655.618 423.493 657.749 412.086 657.698 402.84C657.648 393.603 655.416 386.435 650.472 382.04C644.27 376.527 637.528 374.211 630.407 374.872C623.305 375.531 615.888 379.145 608.299 385.369C598.09 393.741 587.503 406.891 576.87 424.143C585.513 388.326 592.237 355.207 596.829 325.427C604.915 272.985 606.399 230.839 600.073 202.533C596.91 188.379 591.781 177.627 584.493 170.792ZM526.308 690.704C532.909 688.571 539.389 687.717 545.548 687.816C556.449 687.992 566.375 691.148 574.225 695.507C582.086 699.873 587.819 705.419 590.378 710.332C592.141 713.715 592.307 716.465 591.297 718.738C590.275 721.035 588.003 722.96 584.64 724.57C577.909 727.792 567.113 729.607 554.498 730.77C544.131 731.726 532.59 732.236 521.157 732.743L521.155 732.743L521.143 732.743L521.133 732.744C518.683 732.852 516.237 732.96 513.809 733.073C501.096 733.661 488.86 734.363 478.96 735.804C483.404 731.516 488.223 726.912 493.325 722.056C497.356 719.6 501.411 717.358 505.784 715.373C515.514 710.954 526.825 707.803 542.913 706.449L542.829 705.453C526.643 706.815 515.217 709.991 505.37 714.462C502.305 715.854 499.393 717.372 496.54 718.997C499.64 716.05 502.833 713.02 506.1 709.92L506.191 709.833L506.195 709.829L506.204 709.821L506.219 709.806C512.678 703.676 519.424 697.273 526.308 690.704ZM479.259 734.127C482.371 731.129 485.657 727.983 489.088 724.711C486.589 726.315 484.061 727.994 481.434 729.739L481.433 729.74L481.219 729.882C481.123 730.036 481.028 730.19 480.932 730.345C480.375 731.6 479.818 732.861 479.259 734.127ZM524.038 691.488C510.003 696.638 495.533 707.704 482.535 727.808C486.012 725.502 489.35 723.309 492.712 721.258C496.818 717.35 501.105 713.281 505.526 709.085L505.546 709.066L505.619 708.997C511.557 703.361 517.735 697.498 524.038 691.488ZM483.545 724.478C496.819 705.008 511.542 694.484 525.784 689.822C547.515 669.086 570.603 646.714 590.373 626.052C608.409 607.203 623.658 589.803 632.593 576.386C637.066 569.669 639.92 564.001 640.779 559.677C641.207 557.52 641.129 555.745 640.552 554.35C639.982 552.973 638.902 551.911 637.202 551.211C624.009 545.782 611.114 546.439 598.269 552.516C597.979 552.653 597.689 552.793 597.4 552.935C564.714 609.866 523.964 669.389 489 712.4C487.19 716.368 485.372 720.394 483.545 724.478ZM477.11 734.845L477.148 734.78L477.09 734.759L477.11 734.845ZM576.096 427.336C587.24 408.825 598.318 394.848 608.933 386.142C616.434 379.991 623.667 376.501 630.499 375.867C637.312 375.235 643.787 377.436 649.808 382.788C654.444 386.909 656.648 393.733 656.699 402.846C656.749 411.95 654.647 423.25 650.776 436.201C643.035 462.098 628.254 494.484 609.663 528.889C605.514 536.568 601.175 544.346 596.684 552.174C584.014 558.485 571.449 569.94 558.792 585.86C536.007 614.517 512.832 657.754 488.143 711.869C487.655 712.47 487.167 713.067 486.681 713.662C494.762 691.633 502.504 669.89 509.88 648.507C538.95 574.733 568.924 510.804 606.69 464.256L605.914 463.625C571.201 506.41 543.073 563.814 516.218 629.96C540.969 556.814 561.273 488.237 576.096 427.336ZM484.754 716.007C489.504 703.089 494.138 690.269 498.65 677.561C493.741 690.482 488.831 703.658 483.889 717.053C484.177 716.706 484.465 716.357 484.754 716.007ZM479.054 727.29L478.579 728.585C478.608 727.8 478.637 727.009 478.665 726.213C478.682 725.734 478.699 725.252 478.716 724.769L479.303 724.078C479.545 723.793 479.787 723.507 480.03 723.22C479.802 724.313 479.575 725.403 479.348 726.491L479.054 727.29ZM480.462 721.159C480.226 721.438 479.991 721.717 479.757 721.995C481.667 711.738 483.658 701.619 485.723 691.65C484.934 697.512 484.006 703.444 482.934 709.438C482.099 713.372 481.274 717.28 480.462 721.159ZM486.717 691.757C487.225 687.983 487.676 684.237 488.072 680.523C492.62 659.38 497.497 638.952 502.637 619.368C497.173 643.925 491.789 668.237 486.717 691.757ZM507.362 598.149C517.794 551.315 528.274 504.162 537.219 460.428C546.199 416.521 553.629 376.07 557.907 342.853C562.188 309.609 563.299 283.691 559.692 268.804L560.664 268.568C564.32 283.66 563.177 309.753 558.899 342.981C554.616 376.235 547.181 416.714 538.199 460.628C530.263 499.43 521.118 540.921 511.873 582.486C527.126 530.857 544.108 486.465 561.366 452.14C565.951 443.019 570.559 434.604 575.161 426.951C584.153 389.991 591.124 355.867 595.841 325.275C603.923 272.859 605.381 230.867 599.097 202.751C595.956 188.695 590.891 178.164 583.808 171.521C576.746 164.898 567.626 162.092 556.245 163.577C546.393 164.863 537.824 172.209 530.369 184.581C522.918 196.946 516.636 214.242 511.332 235.236C500.725 277.218 494.056 333.858 489.701 395.079C485.687 451.489 483.64 511.751 482.279 567.984C489.316 596.711 492.26 632.474 488.876 672.143C494.591 646.287 500.794 621.541 507.362 598.149ZM508.332 598.393C508.294 598.567 508.255 598.742 508.216 598.916L507.443 602.387C499.288 638.997 491.193 675.34 483.915 709.63C483.368 712.689 482.783 715.764 482.159 718.853C491.133 694.508 499.995 670.866 508.946 648.149C536.127 569.356 558.345 495.476 574.348 430.276C570.318 437.138 566.282 444.587 562.259 452.589C543.316 490.266 524.695 540.119 508.332 598.393ZM480.74 725.603C481.445 723.685 482.149 721.772 482.853 719.863C483.14 719.519 483.427 719.174 483.715 718.828C482.496 722.134 481.27 725.447 480.036 728.765C480.275 727.71 480.51 726.656 480.74 725.603ZM477.197 732.351L476.784 733.478C470.391 707.014 458.734 673.946 447.132 641.033L447.131 641.03L447.131 641.029L447.13 641.026L447.129 641.026L447.129 641.024C441.09 623.894 435.067 606.807 429.809 590.716C421.834 566.314 415.62 544.209 413.741 527.664C412.802 519.387 412.954 512.555 414.479 507.538C415.996 502.548 418.851 499.398 423.338 498.342C434.585 495.696 445.677 500.659 455.508 511.886C465.342 523.116 473.849 540.554 479.867 562.646C480.353 564.432 480.823 566.248 481.276 568.093C480.699 591.958 480.246 615.095 479.818 636.9L479.818 636.902L479.818 636.904L479.818 636.904C479.232 666.839 478.694 694.263 477.953 717.612C477.001 661.27 475.46 617.832 454.341 576.022L453.448 576.473C475.357 619.846 476.094 664.976 477.074 724.956C477.114 727.396 477.154 729.861 477.197 732.351ZM485.634 716.512C485.93 716.153 486.226 715.793 486.523 715.432C485.632 717.395 484.74 719.372 483.846 721.363C484.444 719.744 485.04 718.127 485.634 716.512ZM490.676 708.738C514.748 656.302 537.364 614.417 559.575 586.482C571.73 571.194 583.739 560.117 595.767 553.768C564.001 608.924 524.771 666.374 490.676 708.738ZM480.819 636.889L480.819 636.881L480.819 636.873L480.82 636.869L480.82 636.865L480.82 636.865L480.82 636.863L480.82 636.855L480.82 636.845L480.82 636.828C481.224 616.213 481.652 594.411 482.185 571.931C489.019 601.922 491.462 639.195 487.083 680.364C484.192 693.808 481.434 707.54 478.827 721.527C479.635 697.334 480.199 668.51 480.819 636.892L480.819 636.889Z" fill="white"/>
<path d="M-145.465 735.943C-111.68 582.612 1.75719 190.003 -75.5891 159.477C-163.96 124.6 -181.848 395.496 -145.465 735.943Z" fill="#DCF2E2"/>
<path d="M-145.462 737.748C-106.479 663.68 5.2706 536.221 -29.8143 518.146C-72.6944 496.056 -144.162 596.111 -145.462 737.748Z" fill="#D2EAD7"/>
<path d="M417.917 589.134C386.195 563.029 311.833 534.991 345.459 520.764C378.396 506.829 416.884 539.246 417.917 589.134Z" fill="#D2EAD7"/>
<path d="M365.057 535.852C393.611 549.597 403.211 566.14 417.921 588.513" stroke="white"/>
</svg>
