<svg width="247" height="418" viewBox="0 0 247 418" fill="none" xmlns="http://www.w3.org/2000/svg">
<path fill-rule="evenodd" clip-rule="evenodd" d="M246.237 417.786H5.94946V413.95H246.237V417.786Z" fill="#2C2727"/>
<path d="M80.8127 186.753C80.7186 197.53 79.9656 223.704 78.0393 227.784L148.165 217.529C145.699 211.205 140.655 196.192 139.945 190.892C139.057 184.267 140.134 169.158 142.634 159.52C119.735 154.49 105.256 153.156 76.3099 149.281C80.6632 155.936 80.897 177.094 80.8127 186.753Z" fill="white"/>
<path d="M21.7711 35.2986L70.5781 130.401L80.2177 117.92C58.7793 83.9222 28.2352 31.2357 26.6535 29.3037C25.0719 27.3716 4.98328 21.8693 4.98328 21.8693C4.97273 23.0768 7.9488 31.5763 9.71805 32.7783C13.3192 35.2248 19.3563 35.2775 21.7711 35.2986Z" fill="#FED450"/>
<path d="M176.437 23.3663L144.879 130.404L132.36 120.814C144.36 82.4545 171.572 19.9114 172.605 17.6382C173.638 15.365 189.932 8.99407 189.932 8.99407C190.252 10.1584 188.747 17.016 187.346 18.6316C184.493 21.92 178.765 22.7265 176.437 23.3663Z" fill="#FED450"/>
<path fill-rule="evenodd" clip-rule="evenodd" d="M150.78 325.02C135.453 282.623 121.175 258.348 118.76 258.327C117.046 258.312 104.446 302.265 98.8082 321.934C98.4042 323.344 98.0359 324.629 97.7099 325.764L74.7584 326.771C72.5334 305.016 72.4464 240.969 79.1787 227.793C84.5996 220.948 93.2106 211.47 100.49 203.458C104.688 198.838 108.443 194.705 110.888 191.845C110.888 191.845 77.3543 160.157 77.4176 152.912C78.625 152.923 87.0453 156.619 87.0453 156.619L114.542 188.254L135.247 167.908L148.55 165.609C147.436 166.513 145.955 167.7 144.243 169.071C134.739 176.689 118.149 189.986 118.132 191.908C118.119 193.394 124.363 198.003 131.523 203.29C138.028 208.092 145.29 213.453 149.304 217.538C154.938 223.272 163.666 232.154 172.556 320.38L150.78 325.02ZM94.9582 218.271L113.281 194.28C116.912 198.31 121.072 201.439 125.141 204.498C128.568 207.075 131.931 209.604 134.857 212.582C120.565 211.563 108.7 214.108 94.9582 218.271Z" fill="#84BFB6"/>
<path d="M170.913 400.792C171.348 398.776 157.451 343.372 149.669 321.907C150.677 319.667 154.027 316.777 158.464 315.656C162.9 314.536 170.322 317.085 172.642 318.485C173.788 326.138 175.032 354.442 175.07 360.479C175.108 366.517 178.394 397.711 179.243 401.071C180.091 404.431 181.833 405.216 183.03 406.434C184.169 407.594 187.838 408.891 186.61 411.296C185.87 412.743 181.65 414.585 180.541 414.865C179.432 415.145 171.49 415.4 170.882 414.781C169.685 413.563 169.262 410.75 169.283 408.352C169.304 406.042 170.37 403.312 170.913 400.792Z" fill="#4D4D4D"/>
<path d="M82.1433 399.595C81.7915 396.497 95.1517 341.959 97.7144 325.076C95.3099 323.848 91.7196 320.194 86.8899 320.151C82.1637 320.11 75.9698 321.918 74.784 323.668C74.3812 340.042 72.5756 394.9 72.9273 397.998C73.367 401.871 59.8297 406.645 60.984 412.693C61.3385 414.55 74.4418 413.885 78.6268 413.487C80.3181 413.326 81.1841 413.083 82.0438 410.984C82.7495 409.261 82.583 403.468 82.1433 399.595Z" fill="#4D4D4D"/>
<path d="M139.697 81.0058C142.038 89.479 139.716 114.541 140.589 117.239C144.116 128.137 164.61 131.939 164.463 148.843C164.449 150.361 165.491 169.379 123.211 171.425C95.2363 172.779 71.042 160.833 66.7458 138.329C64.4367 126.234 76.6223 113.637 76.6801 107.021C76.7379 100.404 70.8966 83.6868 70.9794 74.2036C71.0622 64.7204 79.0975 56.8941 82.5038 53.5074C90.499 45.5584 110.691 45.8542 117.01 51.8273C126.59 60.8831 134.49 62.1596 139.697 81.0058Z" fill="#282B36"/>
</svg>
