<svg width="252" height="306" viewBox="0 0 252 306" fill="none" xmlns="http://www.w3.org/2000/svg">
<path d="M292.256 264.403C289.222 260.746 299.189 240.89 266.688 240.89C220.754 242.98 191.371 253.448 155.912 254.053C115.806 254.736 69.8701 247.989 71.2502 260.746C74.0651 286.765 142.691 295.002 184.293 295.002C199.459 295.002 217.72 306.726 261.488 305.159C325.198 302.877 329.956 276.421 319.989 273.286C311.174 270.513 295.289 268.061 292.256 264.403Z" fill="#83BFB6"/>
<path d="M74.7088 286.871C74.7088 269.055 50.8867 281.148 34.6036 281.148C24.8482 281.148 -3.33409 276.547 1.00174 286.871C5.53515 297.665 74.7088 304.688 74.7088 286.871Z" fill="#83BFB6"/>
<line x1="108.931" y1="273.826" x2="258.947" y2="273.826" stroke="#2E3434" stroke-width="2"/>
<path d="M196.943 0.695012C204.469 1.36052 207.657 14.837 208.31 21.4921L183.616 13.1733C184.923 8.73656 189.417 0.0295053 196.943 0.695012Z" fill="#84BFB6"/>
<path d="M215.365 32.7221C215.365 18.58 187.134 6.53715 178.521 6.10178C170.289 5.68571 164.018 28.1467 165.978 32.7221C175.623 55.2387 215.365 48.1175 215.365 32.7221Z" fill="#66AFA0"/>
<path d="M207.918 16.9176C206.611 11.649 203.648 2.13561 200.862 3.19155C195.767 5.12286 203.998 13.5903 207.918 16.9176Z" fill="#66AFA0"/>
<path d="M121.452 122.582C120.824 122.582 120.405 125.055 120.274 126.291H123.022V129.175C128.517 128.351 146.783 113.416 155.207 102.804C161.094 95.3872 159.917 87.9703 161.094 87.5583C162.036 87.2286 164.365 98.6836 165.411 104.452L210.549 101.98L211.334 79.7293L220.753 94.563C214.081 103.628 216.016 111.486 210.941 116.814C209.685 118.132 204.792 117.363 202.699 116.402V119.286C204.007 119.835 206.702 121.264 207.016 122.582C207.409 124.23 205.054 126.291 204.269 127.527C203.484 128.763 202.699 131.648 203.091 132.06C203.484 132.472 206.231 130.411 206.231 131.236C206.231 131.895 205.054 134.12 205.054 134.532H205.446L207.409 134.12L207.801 134.944C209.502 133.57 213.139 130.411 214.081 128.763C215.023 127.115 214.735 123.956 214.474 122.582C221.538 114.616 236.061 104.864 235.668 92.5029C235.472 86.3255 223.108 65.7196 215.259 60.363C209.831 56.6594 201.129 54.1822 193.671 54.5942L192.886 48.0015C193.54 47.4521 195.32 45.5292 197.204 42.2328C199.559 38.1123 199.166 29.0472 198.381 26.987C197.596 24.9267 195.634 21.6302 186.999 20.8061C178.364 19.982 175.616 29.8712 175.224 39.3484C174.91 46.9301 179.541 50.4737 181.896 51.2978V54.5942C179.934 54.7315 174.91 55.1711 170.514 55.8303C165.019 56.6544 161.879 60.7749 159.917 63.2472C157.954 65.7195 146.964 90.0306 144.217 94.5631C141.469 99.0956 123.807 119.698 123.022 122.994C122.753 124.125 122.237 122.582 121.452 122.582Z" fill="#4D4D4D"/>
<path d="M199.897 53.8551C198.35 61.493 197.19 74.6471 185.591 75.92C177.61 76.7959 171.339 63.5899 169.061 56.2903L166.645 57.674C166.903 59.9371 166.8 65.8211 167.418 78.0417C168.037 90.2622 165.872 95.0147 163.938 95.8633L168.192 118.353L210.723 120.05V91.1958C207.63 91.1958 203.995 89.2439 201.83 84.8309C199.665 80.4179 201.057 62.0587 202.603 55.1281L199.897 53.8551Z" fill="white"/>
<path d="M203.253 55.9246C202.166 55.6643 201.543 55.5533 200.474 55.5087C200.474 57.727 200.082 63.8273 199.689 67.9866C199.315 71.9597 197.37 80.0485 195.801 84.2078C190.668 84.6238 180.078 84.6238 176.155 84.6238C172.233 78.3848 170.238 66.7388 168.311 56.7565C167.161 57.0527 166.535 57.3078 165.565 58.0042L168.345 92.9424C168.475 105.004 167.683 122.224 166.742 124.553C165.565 127.465 165.991 139.526 165.599 149.509C164.799 169.871 169.095 190.686 168.703 211.066H184.818C185.995 192.766 188.427 156.247 188.741 156.58C189.133 156.996 191.486 177.376 192.271 184.863C192.898 190.852 195.67 203.718 196.978 209.403H213.843C213.713 187.081 213.297 151.162 213.81 137.031C214.293 123.721 203.612 100.845 202.043 84.6238C201.883 82.9687 202.6 64.6591 203.253 55.9246Z" fill="#84BFB6"/>
<path d="M206.155 207.773C200.453 208.643 196.642 205.638 196.555 206.541C196.161 210.645 197.477 224.597 198.091 229.521C198.859 235.677 200.779 261.94 200.779 265.633C200.779 269.327 196.555 269.737 197.323 271.378C198.091 273.02 210.762 272.199 210.762 270.968C210.762 267.275 208.469 269.327 208.469 257.837C208.469 248.645 213.844 220.083 213.844 204.49C213.844 204.068 211.53 206.952 206.155 207.773Z" fill="#4D4D4D"/>
<path d="M183.116 235.267C184.001 228.963 185.804 215.98 185.42 206.952C185.381 206.026 180.834 208.183 177.356 208.183C172.749 208.183 169.293 205.72 168.525 206.541C167.757 207.362 169.677 231.984 170.829 238.139C171.981 244.294 173.517 259.478 173.133 263.171C172.749 266.864 162.381 268.095 162.381 270.558C162.381 272.199 182.177 272.609 182.348 270.968C182.732 267.275 180.438 263.992 180.054 260.299C179.67 256.606 181.964 243.474 183.116 235.267Z" fill="#4D4D4D"/>
<path d="M134.037 92.9886C133.125 94.6451 124.407 96.1632 120.352 96.3012L134.037 266.914C134.29 268.709 134.265 272.298 132.136 272.298C130.007 272.298 129.729 269.537 129.855 268.157L115.41 97.1295C112.749 97.5436 106.439 97.792 102.485 95.473C97.5432 92.5743 91.8413 61.9302 92.2217 57.7889C92.9122 50.2701 122.253 49.4172 124.153 51.5775C132.898 61.5159 135.178 90.9181 134.037 92.9886Z" fill="#FED450"/>
<path d="M214.755 129.28C215.697 127.662 215.409 124.156 215.148 122.807L211.615 117.144C210.358 118.439 205.465 117.683 203.371 116.74V119.571C204.68 120.111 207.375 121.513 207.689 122.807C208.082 124.425 205.726 126.448 204.941 127.662C204.156 128.875 203.371 131.707 203.764 132.111C204.156 132.516 206.904 130.493 206.904 131.302C206.904 131.95 205.726 134.134 205.726 134.539H206.119L208.082 134.134C208.194 134.488 208.29 134.653 208.474 134.943C210.437 134.539 213.813 130.898 214.755 129.28Z" fill="#4D4D4D"/>
<path d="M122.898 131.302C122.898 130.089 117.794 124.83 116.617 124.425C115.439 124.425 115.439 131.302 115.831 131.707C116.616 132.92 122.897 132.111 122.898 131.302Z" fill="#4D4D4D"/>
<path d="M123.29 123.616L123.683 128.875L123.29 126.448H120.935C120.935 125.235 121.327 122.807 122.112 122.807C122.426 122.807 123.028 123.347 123.29 123.616Z" fill="#4D4D4D"/>
<path fill-rule="evenodd" clip-rule="evenodd" d="M203.659 113.454C204.072 113.545 204.307 113.866 204.185 114.171C203.146 116.75 202.735 118.641 203.016 120.401C203.296 122.154 204.14 123.769 206.038 125.918C206.162 126.058 205.097 126.881 204.864 126.617C202.899 124.392 201.786 122.535 201.466 120.536C201.148 118.545 201.629 116.475 202.689 113.842C202.812 113.537 203.246 113.363 203.659 113.454Z" fill="#BBDFC8"/>
<path d="M198.496 37.3066C199.129 36.7618 200.243 34.2016 199.636 28.3186C198.464 16.9831 182.158 12.3853 177.979 25.0505C179.245 26.14 182.994 28.482 187.857 29.1357C192.721 29.7894 195.709 27.5015 196.596 26.2759C196.343 27.2291 195.988 29.4625 196.596 30.7699C197.356 32.404 198.496 31.587 198.496 32.404V37.3066Z" fill="#FED450"/>
</svg>
