<svg width="26" height="26" viewBox="0 0 26 26" fill="none" xmlns="http://www.w3.org/2000/svg">
<path d="M8.05859 13.0004C10.7902 13.0004 13.0001 8.34198 13.0001 2.60059C13.0001 8.34198 15.2098 13.0004 17.9414 13.0004C15.2098 13.0004 13.0001 17.6508 13.0001 23.4002C13.0001 17.6508 10.7902 13.0004 8.05859 13.0004Z" stroke="#028577" stroke-width="1.5" stroke-linecap="round" stroke-linejoin="round"/>
<path d="M1 4.20317C1.93387 4.19307 2.82625 3.85214 3.48598 3.25343C4.1457 2.65471 4.52036 1.84582 4.52963 1C4.5389 1.84582 4.91356 2.65471 5.57328 3.25343C6.23301 3.85214 7.1253 4.19307 8.05917 4.20317C7.12307 4.20317 6.22535 4.53997 5.56343 5.13947C4.9015 5.73897 4.52963 6.55206 4.52963 7.39988C4.52963 6.55206 4.15776 5.73897 3.49583 5.13947C2.83391 4.53997 1.9361 4.20317 1 4.20317Z" stroke="#028577" stroke-width="1.5" stroke-linecap="round" stroke-linejoin="round"/>
<path d="M17.9414 21.8028C18.8753 21.7927 19.7677 21.4518 20.4274 20.853C21.0871 20.2543 21.4617 19.4454 21.4709 18.5996C21.4802 19.4454 21.8549 20.2543 22.5146 20.853C23.1743 21.4518 24.0667 21.7927 25.0006 21.8028C24.0645 21.8028 23.1667 22.1396 22.5047 22.7391C21.8428 23.3386 21.4709 24.1517 21.4709 24.9995C21.4709 24.1517 21.0991 23.3386 20.4372 22.7391C19.7752 22.1396 18.8775 21.8028 17.9414 21.8028Z" stroke="#028577" stroke-width="1.5" stroke-linecap="round" stroke-linejoin="round"/>
</svg>
