<svg width="307" height="148" viewBox="0 0 307 148" fill="none" xmlns="http://www.w3.org/2000/svg">
    <path d="M155.453 146.267C203.218 143.467 268.894 141.041 283.751 141.041C298.608 141.041 325.962 136.282 286.945 127.883C247.789 119.484 218.908 126.297 186.833 117.898C154.759 109.499 59.3687 102.127 17.1581 111.085C-25.0525 120.044 20.3517 123.684 49.2326 124.243C78.1135 124.803 33.5425 134.789 22.7121 134.789C11.743 134.789 12.576 148.973 66.4501 147.947C120.324 146.92 137.542 147.294 155.453 146.267Z"
          fill="#EAF5ED"/>
    <g clip-path="url(#clip0)">
        <path d="M233.876 45.9045C235.469 45.9045 236.265 44.1411 235.81 42.0364C234.616 36.9169 232.625 29.8634 231.487 27.6449C230.35 25.4265 229.269 24.9146 227.164 24.9146C222.784 24.9146 212.09 25.0852 213.057 29.579C214.024 34.0727 215.787 47.0421 221.078 46.8715C222.443 46.8146 223.865 46.7577 225.23 46.6439L232.454 129.637C232.511 130.376 233.137 130.945 233.876 130.945C233.933 130.945 233.933 130.945 233.99 130.945C234.786 130.888 235.355 130.205 235.298 129.409L228.074 46.4164C230.748 46.1889 232.966 45.9045 233.876 45.9045Z"
              fill="#F9D568"/>
        <path d="M227.164 24.9146C223.637 24.9146 215.958 25.0283 213.682 27.4174C213.682 27.5312 213.625 27.5881 213.625 27.7018C213.625 27.7018 220.679 41.6382 220.679 42.8896C224.035 41.2969 229.951 39.7042 232.511 40.6712C232.056 35.8361 228.358 26.4504 227.903 24.9146C227.676 24.9146 227.448 24.9146 227.164 24.9146Z"
              fill="#F7CD57"/>
        <path d="M258.45 4.15271C258.677 1.42232 262.432 -0.511709 264.195 0.114006C265.958 0.682838 267.551 0.625955 268.575 3.527C269.599 6.42804 270.395 8.24831 270.225 10.353C270.054 12.5145 258.222 6.48493 258.45 4.15271Z"
              fill="#92BDB6"/>
        <path d="M267.381 7.16738C263.57 5.0627 258.28 3.0149 256.971 2.84426C255.663 2.67361 253.558 1.30841 252.022 4.49387C250.487 7.67933 246.619 14.164 249.804 17.3495C252.933 20.5349 260.782 23.2653 265.618 21.8432C270.453 20.4212 275.458 18.8284 273.979 14.676C272.5 10.5804 270.225 8.70323 267.381 7.16738Z"
              fill="#75AD9F"/>
        <path d="M255.094 12.0594C252.932 16.4962 252.818 22.9809 256.971 24.0617C261.123 25.1994 264.309 21.6157 265.447 18.1459C267.893 10.8079 258.45 5.17649 255.094 12.0594Z"
              fill="#4E4E4F"/>
        <path d="M262.432 20.4211L262.887 26.5076C262.261 29.0673 256.971 30.8307 256.971 27.4746C256.971 24.1185 257.142 22.1845 257.426 20.4211C257.71 18.6577 262.602 17.8045 262.432 20.4211Z"
              fill="#4E4E4F"/>
        <path d="M260.668 25.5405C264.991 25.0854 271.248 25.5405 274.775 29.0672C278.302 32.594 271.988 37.5428 271.817 36.6896L271.419 44.4257C271.419 44.4257 248.893 48.8057 248.495 47.3267C248.097 45.8478 246.959 40.6145 246.959 40.6145C246.504 43.3449 244.342 48.635 239.621 52.5031C234.9 56.3712 234.729 57.3382 229.837 59.7273L227.676 59.4428C227.676 59.4428 226.481 60.1823 226.254 59.9548C226.026 59.7273 226.083 58.6465 226.936 58.3621C227.789 58.0208 227.676 58.5327 228.87 56.7693C230.065 55.006 236.265 47.213 238.142 44.767C239.962 42.2641 242.863 36.6896 243.091 35.5519C243.318 34.4142 246.845 25.768 253.33 25.5405C259.871 25.256 260.668 25.5405 260.668 25.5405Z"
              fill="#4E4E4F"/>
        <path d="M225.344 60.8653C225.23 61.8323 226.538 64.0507 227.221 63.937C227.904 63.8232 229.269 62.6287 229.383 62.4011C229.496 62.1167 228.871 61.6048 228.245 61.5479C227.676 61.4341 225.401 60.2965 225.344 60.8653Z"
              fill="#4E4E4F"/>
        <path d="M250.372 27.3613C250.771 30.4899 253.785 34.6423 256.687 35.2112C259.588 35.78 263.057 35.7231 264.195 32.5377C265.333 29.3522 266.755 26.6787 266.584 26.1099L267.551 26.4512C267.551 26.4512 266.129 39.0792 267.836 40.5582C269.542 42.0372 271.533 42.606 271.533 42.606C271.533 42.606 271.135 55.0634 271.419 56.6561C271.704 58.2489 251.34 58.1351 251.226 56.713C251.055 55.2909 248.154 47.6117 247.927 44.5969C249.349 41.9234 250.771 37.8278 250.714 35.0405C250.657 32.2532 249.576 28.1577 249.861 27.6457C250.031 27.3044 250.316 27.02 250.372 27.3613Z"
              fill="white"/>
        <path opacity="0.6"
              d="M268.405 24.6305C268.405 24.6874 268.405 24.7443 268.405 24.8581C268.405 24.7443 268.405 24.6874 268.405 24.6305C268.405 23.7773 267.95 23.436 267.438 23.436C267.95 23.3791 268.405 23.7773 268.405 24.6305Z"
              fill="#92BDB6"/>
        <path opacity="0.6"
              d="M249.064 27.0198C249.064 26.906 249.007 26.7922 249.007 26.6785C249.007 26.7922 249.007 26.906 249.064 27.0198Z"
              fill="#92BDB6"/>
        <path opacity="0.6"
              d="M268.348 25.4839C268.348 25.3701 268.348 25.2563 268.348 25.1995C268.405 25.2563 268.405 25.3701 268.348 25.4839Z"
              fill="#92BDB6"/>
        <path opacity="0.6"
              d="M249.007 26.6215C249.007 26.5077 249.007 26.4508 248.95 26.3939C248.95 26.4508 248.95 26.5077 249.007 26.6215Z"
              fill="#92BDB6"/>
        <path d="M273.24 69.2268C273.069 62.2871 272.614 59.898 272.045 57.8502C271.476 55.8024 267.21 41.0696 267.21 38.2255C267.21 35.6657 268.348 25.7112 268.348 25.8249C267.722 25.7112 267.096 25.5974 266.47 25.5405C266.129 28.8966 264.821 37.5998 263.911 39.1925H254.013C253.558 38.5099 250.6 26.1094 250.6 26.1662C250.031 26.3938 249.519 26.6782 249.064 27.0195C249.406 28.7829 250.259 32.139 250.486 33.4473C250.771 35.1538 250.316 49.659 250.316 53.0151C250.316 56.3712 249.917 59.6136 249.519 63.311C249.064 67.0084 249.747 81.4567 250.202 84.1871C250.657 86.9175 250.543 96.0757 250.714 98.6923C251.169 104.096 256.857 103.471 258.109 100.911C259.36 98.351 259.986 79.0108 260.611 74.2894C261.067 79.0108 264.593 96.8152 265.447 99.9438C266.072 102.276 272.728 100.854 272.898 98.863C273.183 96.9858 273.353 76.1666 273.24 69.2268Z"
              fill="#92BDB6"/>
        <path d="M257.711 98.0666C256.573 98.8629 253.16 99.0336 251.624 98.1803C250.088 97.3271 249.918 97.7253 249.918 98.4648C249.918 99.2042 250.999 109.329 251.567 113.368C252.136 117.35 254.07 123.778 252.193 125.314C250.316 126.849 248.894 127.248 247.984 127.589C247.074 127.987 247.301 128.556 248.211 128.897C249.121 129.239 256.004 129.352 256.459 129.239C256.914 129.125 257.768 127.418 257.142 126.793C256.118 125.712 255.947 123.892 255.947 122.868C255.947 121.787 257.881 111.662 258.052 108.704C258.223 105.803 258.792 98.9198 258.735 98.1803C258.678 97.4409 258.45 97.5546 257.711 98.0666Z"
              fill="#4E4E4F"/>
        <path d="M272.5 97.2706C271.362 98.067 267.722 99.034 266.186 98.1808C264.65 97.3275 264.479 97.7257 264.479 98.4652C264.479 99.2047 265.56 109.33 266.129 113.369C266.698 117.35 267.665 122.982 266.812 126.054C266.641 126.736 266.243 127.533 265.333 127.931C264.423 128.329 264.138 129.125 265.048 129.523C265.958 129.922 271.021 129.467 271.533 129.353C271.988 129.239 272.386 127.533 271.761 126.85C270.737 125.769 270.566 123.949 270.566 122.925C270.566 121.844 272.5 111.719 272.671 108.761C272.841 105.86 273.638 98.1808 273.581 97.4413C273.524 96.6449 273.24 96.7587 272.5 97.2706Z"
              fill="#4E4E4F"/>
        <path d="M262.318 8.76014C260.156 8.02066 257.767 7.50871 256.629 8.76014C255.435 10.0116 255.094 10.5235 254.752 11.2061C254.411 11.8887 254.98 12.23 256.061 12.5144C257.141 12.8557 260.953 14.7329 264.081 12.2869C264.081 13.8796 264.593 14.7898 265.105 14.9604C265.56 15.1311 264.65 17.122 265.162 17.4633C265.617 17.8615 266.47 17.0082 266.47 16.0412C266.47 15.0742 266.812 10.2391 262.318 8.76014Z"
              fill="#F9D568"/>
        <path d="M274.775 29.068C278.302 32.5947 283.08 39.1363 283.592 40.7859C284.047 42.3786 284.218 46.8724 282.17 48.9771C279.781 51.3662 273.524 58.0784 273.524 58.0784C273.467 60.0693 273.012 60.4675 271.931 61.8896C270.964 63.141 270.168 63.9374 269.485 63.9374C268.802 63.9374 267.722 62.7997 267.779 62.1171C267.892 61.4345 269.542 59.273 269.826 58.8748C270.111 58.4766 270.225 56.7132 268.916 56.7132C267.608 56.7132 267.722 55.4618 268.404 55.5187C269.087 55.5756 270.509 56.2581 271.135 56.0306C271.76 55.86 272.443 55.4618 272.898 53.8691C273.353 52.2763 275.913 44.7109 277.392 44.4833C275.799 42.5493 272.045 37.5436 271.874 36.6903C271.817 36.6903 271.248 25.5412 274.775 29.068Z"
              fill="#4E4E4F"/>
    </g>
    <path d="M23.5442 118.107H23.2112C23.2112 116.375 23.2112 114.843 23.2112 113.311C23.1445 107.649 23.0779 102.787 24.0105 93.6615H24.3435C23.4776 102.72 23.4776 107.583 23.5442 113.245C23.5442 114.843 23.5442 116.375 23.5442 118.107Z"
          fill="#92BDB6"/>
    <path d="M23.3445 118.108C29.0729 108.582 34.7347 101.056 39.0643 104.985C42.6612 108.316 29.8056 116.709 23.3445 118.108Z"
          fill="#92BDB6"/>
    <path d="M23.3445 107.316C27.9405 99.7228 32.4033 93.728 35.867 96.8586C38.7312 99.523 28.4734 106.251 23.3445 107.316Z"
          fill="#92BDB6"/>
    <path d="M23.7449 99.1893C27.2752 93.3943 30.6722 88.7983 33.27 91.1962C35.4681 93.1945 27.6748 98.3234 23.7449 99.1893Z"
          fill="#92BDB6"/>
    <path d="M23.3435 118.108C17.6151 108.582 11.9533 101.056 7.62365 104.985C4.02674 108.316 16.8824 116.709 23.3435 118.108Z"
          fill="#92BDB6"/>
    <path d="M23.3426 107.316C18.7465 99.7228 14.2837 93.728 10.82 96.8586C7.95583 99.523 18.2137 106.251 23.3426 107.316Z"
          fill="#92BDB6"/>
    <path d="M23.8088 99.1893C20.2785 93.3943 16.8814 88.7983 14.2837 91.1962C12.019 93.1945 19.8789 98.3234 23.8088 99.1893Z"
          fill="#92BDB6"/>
    <path d="M24.0757 94.4611C26.2072 90.6644 26.8067 88 24.2089 88C21.6111 88 21.8776 91.4637 24.0757 94.4611Z"
          fill="#92BDB6"/>
    <path d="M83.9268 93.9379C76.7432 87.5078 67.4269 99.7029 57.8862 115.224C57.8862 112.563 57.8862 110.235 57.8862 107.907C57.8862 104.581 57.7739 101.366 57.8862 97.929C66.6412 95.9335 83.4778 84.9579 78.6513 80.6341C72.9269 75.5344 65.5188 85.1796 57.8862 97.5965C57.8862 93.7162 58.1107 89.5033 58.4474 84.4035C65.182 82.8514 77.9779 74.4257 74.2738 71.2106C69.8963 67.3304 64.2841 74.6474 58.4474 84.071C58.6719 81.6319 58.8964 78.9712 59.1208 76.0887C62.4882 70.102 63.2739 66 59.0086 66C54.7433 66 55.0801 71.4324 58.5596 76.3104C58.3351 79.082 58.1107 81.5211 57.8862 83.8492C52.1617 74.5366 46.4373 67.3304 42.172 71.2106C38.5802 74.5366 51.1515 82.7406 57.8862 84.4035C57.5494 89.5033 57.3249 93.7162 57.3249 97.7073C49.6923 85.2905 42.172 75.6452 36.5598 80.745C31.7333 85.0687 48.5699 96.0443 57.3249 98.0399C57.3249 101.477 57.3249 104.692 57.3249 108.018C57.3249 110.457 57.3249 112.896 57.3249 115.667C47.6719 100.035 38.2434 87.6186 31.0598 94.1596C24.9986 99.592 46.4373 113.561 57.3249 116H57.5494H57.8862V115.889C68.8861 113.228 89.988 99.4812 83.9268 93.9379Z"
          stroke="#92BDB6" stroke-miterlimit="10"/>
    <g clip-path="url(#clip1)">
        <path d="M186.216 106.267C182.632 103.072 177.984 109.131 173.224 116.843C173.224 115.521 173.224 114.364 173.224 113.208C173.224 111.555 173.168 109.958 173.224 108.25C177.48 107.203 185.88 101.75 183.528 99.6017C180.672 97.0678 176.976 101.86 173.168 108.03C173.168 106.102 173.28 104.008 173.448 101.475C176.808 100.703 183.192 96.5169 181.344 94.9195C179.16 92.9364 176.36 96.572 173.448 101.254C173.56 100.042 173.672 98.7203 173.784 97.2881C175.464 94.3135 175.856 92.2754 173.728 92.2754C171.6 92.2754 171.768 94.9745 173.504 97.3983C173.392 98.7754 173.28 99.9873 173.168 101.144C170.312 96.5169 167.456 92.9364 165.328 94.8644C163.536 96.5169 169.808 100.593 173.168 101.419C173 103.953 172.888 106.047 172.888 108.03C169.08 101.86 165.328 97.0678 162.472 99.6017C160.12 101.75 168.52 107.203 172.888 108.195C172.888 109.903 172.888 111.5 172.888 113.153C172.888 114.364 172.888 115.576 172.888 116.953C168.072 109.186 163.368 103.017 159.784 106.267C156.76 109.021 167.456 115.907 172.888 117.119H173H173.168V117.064C178.656 115.852 189.184 109.021 186.216 106.267Z"
              stroke="#92BDB6" stroke-miterlimit="10"/>
    </g>
    <defs>
        <clipPath id="clip0">
            <rect width="70.8765" height="130.945" fill="white" transform="translate(213)"/>
        </clipPath>
        <clipPath id="clip1">
            <rect width="28" height="26" fill="white" transform="translate(159 92)"/>
        </clipPath>
    </defs>
</svg>
