<svg width="74" height="24" viewBox="0 0 74 24" fill="none" xmlns="http://www.w3.org/2000/svg">
<path d="M9.24 8.19V10.65H15.12C14.94 12.03 14.48 13.04 13.78 13.75C12.92 14.61 11.58 15.55 9.24 15.55C5.62 15.55 2.79 12.63 2.79 9.01C2.79 5.39 5.62 2.47 9.24 2.47C11.19 2.47 12.62 3.24 13.67 4.23L15.4 2.5C13.94 1.08 11.98 0 9.24 0C4.28 0 0.11 4.04 0.11 9C0.11 13.96 4.28 18 9.24 18C11.92 18 13.94 17.12 15.52 15.48C17.14 13.86 17.65 11.57 17.65 9.73C17.65 9.16 17.61 8.63 17.52 8.19H9.24Z" fill="#4285F4"/>
<path d="M25 6.19043C21.79 6.19043 19.17 8.63043 19.17 12.0004C19.17 15.3404 21.79 17.8104 25 17.8104C28.21 17.8104 30.83 15.3504 30.83 12.0004C30.83 8.63043 28.21 6.19043 25 6.19043ZM25 15.5204C23.24 15.5204 21.72 14.0704 21.72 12.0004C21.72 9.91043 23.24 8.48043 25 8.48043C26.76 8.48043 28.28 9.91043 28.28 12.0004C28.28 14.0704 26.76 15.5204 25 15.5204Z" fill="#EA4335"/>
<path d="M53.58 7.49043H53.49C52.92 6.81043 51.82 6.19043 50.43 6.19043C47.53 6.19043 45 8.72043 45 12.0004C45 15.2604 47.53 17.8104 50.43 17.8104C51.82 17.8104 52.92 17.1904 53.49 16.4904H53.58V17.3004C53.58 19.5204 52.39 20.7104 50.48 20.7104C48.92 20.7104 47.95 19.5904 47.55 18.6404L45.33 19.5604C45.97 21.1004 47.66 22.9904 50.48 22.9904C53.47 22.9904 56 21.2304 56 16.9404V6.49043H53.58V7.49043ZM50.65 15.5204C48.89 15.5204 47.55 14.0204 47.55 12.0004C47.55 9.95043 48.89 8.48043 50.65 8.48043C52.39 8.48043 53.75 9.98043 53.75 12.0204C53.76 14.0504 52.39 15.5204 50.65 15.5204Z" fill="#4285F4"/>
<path d="M38 6.19043C34.79 6.19043 32.17 8.63043 32.17 12.0004C32.17 15.3404 34.79 17.8104 38 17.8104C41.21 17.8104 43.83 15.3504 43.83 12.0004C43.83 8.63043 41.21 6.19043 38 6.19043ZM38 15.5204C36.24 15.5204 34.72 14.0704 34.72 12.0004C34.72 9.91043 36.24 8.48043 38 8.48043C39.76 8.48043 41.28 9.91043 41.28 12.0004C41.28 14.0704 39.76 15.5204 38 15.5204Z" fill="#FBBC05"/>
<path d="M58 0.240234H60.51V17.8102H58V0.240234Z" fill="#34A853"/>
<path d="M68.26 15.5204C66.96 15.5204 66.04 14.9304 65.44 13.7604L73.21 10.5504L72.95 9.89043C72.47 8.59043 70.99 6.19043 67.98 6.19043C64.99 6.19043 62.5 8.54043 62.5 12.0004C62.5 15.2604 64.96 17.8104 68.26 17.8104C70.92 17.8104 72.46 16.1804 73.1 15.2404L71.12 13.9204C70.46 14.8804 69.56 15.5204 68.26 15.5204ZM68.08 8.37043C69.11 8.37043 69.99 8.90043 70.28 9.65043L65.03 11.8204C65.03 9.38043 66.76 8.37043 68.08 8.37043Z" fill="#EA4335"/>
</svg>
