<svg width="24" height="24" viewBox="0 0 24 24" fill="none" xmlns="http://www.w3.org/2000/svg">
    <g>
        <path d="M4.80786 21.685V21.7787C4.80786 21.8782 4.84736 21.9735 4.91769 22.0439C4.98802 22.1142 5.0834 22.1537 5.18286 22.1537C5.28231 22.1537 5.37769 22.1142 5.44802 22.0439C5.51835 21.9735 5.55786 21.8782 5.55786 21.7787V21.685C7.58286 21.4675 8.05536 20.8975 8.2391 18.685C8.24425 18.6291 8.23681 18.5729 8.21734 18.5203C8.19787 18.4677 8.16687 18.4202 8.12661 18.3812C8.08659 18.343 8.0386 18.314 7.98608 18.2965C7.93356 18.279 7.87782 18.2734 7.82286 18.28H7.68786C6.63411 18.4 5.99286 18.5612 5.58411 18.9287C6.93786 17.2112 6.93411 16.6412 5.56161 14.9087L5.47536 14.8037C5.44017 14.7612 5.39605 14.7271 5.34614 14.7036C5.29623 14.6801 5.24176 14.668 5.18661 14.668C5.13146 14.668 5.07699 14.6801 5.02708 14.7036C4.97716 14.7271 4.93304 14.7612 4.89786 14.8037C3.43536 16.5325 3.39786 17.2637 4.78161 18.9287C4.37286 18.5537 3.73161 18.4 2.67036 18.2762H2.53536C2.48039 18.2696 2.42465 18.2753 2.37213 18.2928C2.31961 18.3103 2.27162 18.3392 2.23161 18.3775C2.19239 18.4172 2.16207 18.4649 2.14268 18.5172C2.12328 18.5696 2.11525 18.6255 2.11911 18.6812C2.30661 20.8975 2.77536 21.4675 4.80786 21.685ZM7.43286 19.09C7.28286 20.5 7.00536 20.7775 5.59536 20.9275C5.79411 19.4762 6.00036 19.2737 7.44786 19.09H7.43286ZM5.17536 15.6587C6.07161 16.8175 6.07161 17.1025 5.17536 18.2612C4.28661 17.155 4.28661 16.765 5.17536 15.6587ZM4.74786 20.9275C3.33786 20.7775 3.06411 20.5 2.91036 19.09C4.36161 19.2737 4.56411 19.4762 4.74786 20.9275Z"
              fill="#028577"/>
        <path d="M4.80702 8.91549V8.99799C4.80702 9.09744 4.84653 9.19283 4.91686 9.26315C4.98718 9.33348 5.08257 9.37299 5.18202 9.37299C5.28148 9.37299 5.37686 9.33348 5.44719 9.26315C5.51751 9.19283 5.55702 9.09744 5.55702 8.99799V8.90424C7.58202 8.68299 8.05452 8.11299 8.23827 5.90424C8.24249 5.84916 8.23449 5.79384 8.21485 5.74221C8.1952 5.69059 8.16439 5.64394 8.12462 5.6056C8.08486 5.56727 8.03711 5.53819 7.9848 5.52045C7.93249 5.50271 7.8769 5.49675 7.82202 5.50299H7.68702C6.63327 5.62299 5.99202 5.78049 5.58327 6.15174C6.94077 4.43424 6.93327 3.86424 5.56077 2.13174L5.47452 2.06049C5.43999 2.01678 5.39617 1.98132 5.34622 1.95667C5.29627 1.93202 5.24146 1.91881 5.18577 1.91799C5.13097 1.91744 5.07672 1.92891 5.02684 1.95158C4.97695 1.97426 4.93264 2.00759 4.89702 2.04924C3.43452 3.78174 3.39702 4.51299 4.78077 6.17424C4.37202 5.79924 3.73077 5.64174 2.66952 5.52174H2.53452C2.48259 5.5179 2.43043 5.52492 2.38136 5.54236C2.33229 5.55979 2.28739 5.58725 2.24952 5.62299C2.20977 5.66158 2.17907 5.7085 2.15962 5.76037C2.14017 5.81224 2.13245 5.86778 2.13702 5.92299C2.30577 8.12799 2.77452 8.69799 4.80702 8.91549ZM7.43202 6.32049C7.28202 7.73049 7.00452 8.00424 5.59452 8.15799C5.79327 6.70674 5.99952 6.50424 7.44702 6.32049H7.43202ZM5.17452 2.88924C6.07077 4.04799 6.07077 4.33299 5.17452 5.49174C4.28577 4.38549 4.28577 3.99549 5.17452 2.88924ZM4.74702 8.15799C3.33702 8.00424 3.06327 7.73049 2.90952 6.32049C4.36077 6.50424 4.56327 6.70674 4.74702 8.15799Z"
              fill="#028577"/>
        <path d="M11.3326 15.3023V15.396C11.3326 15.4955 11.3721 15.5908 11.4424 15.6612C11.5128 15.7315 11.6082 15.771 11.7076 15.771C11.8071 15.771 11.9024 15.7315 11.9728 15.6612C12.0431 15.5908 12.0826 15.4955 12.0826 15.396V15.3023C14.1114 15.081 14.5801 14.511 14.7676 12.3023C14.7722 12.2471 14.7645 12.1915 14.745 12.1396C14.7256 12.0878 14.6949 12.0409 14.6551 12.0023C14.6154 11.9633 14.5676 11.9337 14.5151 11.9156C14.4625 11.8974 14.4066 11.8912 14.3514 11.8973H14.2164C13.1589 12.021 12.5214 12.1785 12.1089 12.5498C13.4664 10.8323 13.4589 10.2585 12.0864 8.52976L12.0001 8.44351C11.9652 8.40049 11.9212 8.36574 11.8713 8.34175C11.8214 8.31776 11.7667 8.30513 11.7114 8.30476C11.6559 8.30366 11.601 8.31486 11.5504 8.33755C11.4998 8.36025 11.4549 8.39387 11.4189 8.43601C9.95636 10.1685 9.91886 10.8998 11.3064 12.561C10.8939 12.186 10.2526 12.0285 9.19511 11.9048H9.06011C9.00486 11.8987 8.94895 11.9049 8.89641 11.9231C8.84388 11.9412 8.79604 11.9708 8.75636 12.0098C8.71661 12.0484 8.68591 12.0953 8.66646 12.1471C8.647 12.199 8.63929 12.2546 8.64386 12.3098C8.83136 14.511 9.30386 15.081 11.3326 15.3023ZM13.9764 12.7035C13.8226 14.1173 13.5489 14.391 12.1389 14.5448C12.3226 13.0898 12.5251 12.891 13.9764 12.7035ZM11.7039 9.27601C12.6001 10.4348 12.6001 10.716 11.7039 11.8748C10.8114 10.7685 10.8114 10.3823 11.7039 9.27601ZM11.2764 14.5448C9.86636 14.391 9.58886 14.1173 9.43886 12.7035C10.8751 12.891 11.0926 13.0898 11.2764 14.5448Z"
              fill="#028577"/>
        <path d="M21.1271 18.2953L20.9958 18.3141C19.9383 18.4341 19.2971 18.5916 18.8883 18.9628C20.2496 17.2491 20.2496 16.6716 18.8658 14.9428L18.7833 14.8378C18.7488 14.7941 18.705 14.7586 18.655 14.734C18.6051 14.7093 18.5503 14.6961 18.4946 14.6953C18.4394 14.6959 18.385 14.7079 18.3346 14.7305C18.2843 14.753 18.2392 14.7858 18.2021 14.8266C16.7396 16.5591 16.7021 17.2903 18.0858 18.9516C17.6771 18.5766 17.0358 18.4191 15.9746 18.2991L15.8433 18.2803C15.7878 18.2734 15.7314 18.279 15.6784 18.2966C15.6253 18.3143 15.5768 18.3437 15.5366 18.3825C15.4963 18.4213 15.4652 18.4687 15.4456 18.5211C15.426 18.5735 15.4184 18.6296 15.4233 18.6853C15.6108 20.8866 16.0796 21.4566 18.1121 21.6853V21.7791C18.1121 21.8785 18.1516 21.9739 18.2219 22.0442C18.2922 22.1146 18.3876 22.1541 18.4871 22.1541C18.5865 22.1541 18.6819 22.1146 18.7522 22.0442C18.8226 21.9739 18.8621 21.8785 18.8621 21.7791V21.6853C20.8908 21.4641 21.3596 20.8941 21.5433 18.6853C21.5479 18.6301 21.5402 18.5746 21.5207 18.5227C21.5013 18.4708 21.4706 18.4239 21.4308 18.3853C21.3898 18.3491 21.3414 18.3222 21.2889 18.3067C21.2364 18.2911 21.1812 18.2872 21.1271 18.2953ZM18.4796 15.6703C19.3758 16.8291 19.3758 17.1141 18.4796 18.2691C17.5908 17.1628 17.5908 16.7728 18.4796 15.6666V15.6703ZM16.2296 19.1016C17.6846 19.2853 17.8833 19.4766 18.0671 20.9391C16.6421 20.7816 16.3683 20.5078 16.2146 19.0978L16.2296 19.1016ZM18.9296 20.9391C19.1133 19.4878 19.3046 19.2853 20.7708 19.1016C20.6021 20.5078 20.3246 20.7816 18.9146 20.9353L18.9296 20.9391Z"
              fill="#028577"/>
        <path d="M18.1123 9.15566V9.26816C18.1123 9.36761 18.1518 9.463 18.2221 9.53332C18.2925 9.60365 18.3878 9.64316 18.4873 9.64316C18.5868 9.64316 18.6821 9.60365 18.7525 9.53332C18.8228 9.463 18.8623 9.36761 18.8623 9.26816V9.15566C20.9136 8.93066 21.3598 8.36441 21.5436 6.06191C21.5478 6.00683 21.5398 5.95151 21.5201 5.89988C21.5005 5.84826 21.4697 5.80161 21.4299 5.76327C21.3901 5.72494 21.3424 5.69586 21.2901 5.67812C21.2378 5.66038 21.1822 5.65442 21.1273 5.66066H20.9923C19.9161 5.78816 19.2711 5.95691 18.8623 6.35441C20.2498 4.53941 20.2498 3.99191 18.8623 2.18066L18.7798 2.06816C18.7453 2.02327 18.701 1.9868 18.6503 1.96147C18.5997 1.93614 18.5439 1.92261 18.4873 1.92191C18.4307 1.92115 18.3746 1.93325 18.3233 1.95728C18.2719 1.98131 18.2267 2.01665 18.1911 2.06066C16.6911 3.87941 16.6911 4.59191 18.1048 6.36566C17.6961 5.96441 17.0473 5.79566 15.9711 5.66816H15.8361C15.7811 5.66157 15.7253 5.66723 15.6728 5.68474C15.6203 5.70224 15.5723 5.73116 15.5323 5.76941C15.4919 5.80765 15.4605 5.85442 15.4404 5.90631C15.4203 5.9582 15.412 6.01391 15.4161 6.06941C15.6111 8.36816 16.0573 8.93066 18.1123 9.15566ZM20.7561 6.45941C20.6023 7.93316 20.3136 8.23691 18.9148 8.39816C19.0986 6.86441 19.2973 6.65441 20.7561 6.45941ZM18.4798 2.90441C19.3836 4.11191 19.3836 4.40441 18.4798 5.62316C17.5986 4.49816 17.5986 4.04816 18.4798 2.90441ZM18.0561 8.39816C16.6536 8.23691 16.3686 7.93316 16.2148 6.45941C17.6736 6.65441 17.8686 6.86441 18.0561 8.39816Z"
              fill="#028577"/>
        <path d="M23.625 0H0.375C0.275544 0 0.180161 0.0395088 0.109835 0.109835C0.0395088 0.180161 0 0.275544 0 0.375L0 23.625C0 23.7245 0.0395088 23.8198 0.109835 23.8902C0.180161 23.9605 0.275544 24 0.375 24H23.625C23.7245 24 23.8198 23.9605 23.8902 23.8902C23.9605 23.8198 24 23.7245 24 23.625V0.375C24 0.275544 23.9605 0.180161 23.8902 0.109835C23.8198 0.0395088 23.7245 0 23.625 0V0ZM23.25 23.25H0.75V0.75H23.25V23.25Z"
              fill="#028577"/>
    </g>
</svg>
