<svg width="24" height="24" viewBox="0 0 24 24" fill="none" xmlns="http://www.w3.org/2000/svg">
    <path d="M2.75644 7.04445V7.6557C2.75644 7.75516 2.79594 7.85054 2.86627 7.92086C2.9366 7.99119 3.03198 8.0307 3.13144 8.0307C3.23089 8.0307 3.32627 7.99119 3.3966 7.92086C3.46693 7.85054 3.50644 7.75516 3.50644 7.6557V7.04445C5.53519 6.8232 6.00394 6.2532 6.18769 4.04445C6.19226 3.98924 6.18454 3.9337 6.16509 3.88183C6.14564 3.82996 6.11493 3.78304 6.07519 3.74445C6.0355 3.70553 5.98766 3.67592 5.93513 3.65776C5.8826 3.6396 5.82668 3.63335 5.77144 3.63945H5.63644C4.58269 3.7632 3.94144 3.9207 3.53269 4.29195C4.87519 2.59695 4.87519 2.0232 3.51019 0.294449L3.42769 0.185699C3.39279 0.142682 3.3488 0.107929 3.29887 0.0839384C3.24895 0.0599479 3.19433 0.0473155 3.13894 0.0469492C3.08351 0.0458463 3.02853 0.0570454 2.97795 0.0797405C2.92737 0.102436 2.88246 0.136062 2.84644 0.178199C1.38019 1.9107 1.34644 2.64195 2.73394 4.3032C2.32144 3.9282 1.68019 3.7707 0.618936 3.64695H0.483936C0.428688 3.64085 0.372775 3.6471 0.320242 3.66526C0.267709 3.68342 0.219869 3.71303 0.180186 3.75195C0.140438 3.79054 0.109735 3.83746 0.0902829 3.88933C0.0708309 3.9412 0.0631135 3.99674 0.0676856 4.05195C0.255186 6.2532 0.723935 6.8232 2.75644 7.04445ZM5.38144 4.4457C5.23144 5.8557 4.95394 6.1332 3.54394 6.28695C3.75019 4.83195 3.94519 4.6332 5.39644 4.4457H5.38144ZM3.12394 1.0182C4.02019 2.1732 4.02019 2.4582 3.12394 3.61695C2.25019 2.5107 2.25019 2.1207 3.12394 1.0182ZM2.69644 6.28695C1.28644 6.1332 1.01269 5.8557 0.858936 4.4457C2.31019 4.6332 2.51269 4.83195 2.69644 6.28695Z"
          fill="#028577"/>
    <path d="M11.6252 7.04445V7.6557C11.6252 7.75516 11.6647 7.85054 11.7351 7.92086C11.8054 7.99119 11.9008 8.0307 12.0002 8.0307C12.0997 8.0307 12.1951 7.99119 12.2654 7.92086C12.3357 7.85054 12.3752 7.75516 12.3752 7.6557V7.04445C14.404 6.8232 14.8765 6.2532 15.0602 4.04445C15.065 3.98907 15.0575 3.93332 15.0381 3.88123C15.0187 3.82914 14.988 3.782 14.9481 3.74324C14.9083 3.70448 14.8603 3.67506 14.8077 3.65711C14.7551 3.63916 14.6992 3.63313 14.644 3.63945H14.509C13.4515 3.7632 12.814 3.9207 12.4015 4.29195C13.759 2.57445 13.7552 2.0007 12.3827 0.271949L12.3077 0.185699C12.2728 0.142682 12.2288 0.107929 12.1789 0.0839384C12.129 0.0599479 12.0744 0.0473155 12.019 0.0469492C11.9635 0.0458463 11.9086 0.0570454 11.858 0.0797405C11.8074 0.102436 11.7625 0.136062 11.7265 0.178199C10.264 1.9107 10.2265 2.64195 11.614 4.3032C11.2052 3.9282 10.564 3.7707 9.50272 3.64695H9.36772C9.31248 3.64085 9.25656 3.6471 9.20403 3.66526C9.1515 3.68342 9.10366 3.71303 9.06397 3.75195C9.02423 3.79054 8.99352 3.83746 8.97407 3.88933C8.95462 3.9412 8.9469 3.99674 8.95147 4.05195C9.13522 6.2532 9.60772 6.8232 11.6252 7.04445ZM14.2502 4.4457C14.0965 5.8557 13.8227 6.1332 12.4127 6.28695C12.6265 4.83195 12.829 4.6332 14.2802 4.4457H14.2502ZM12.0002 1.0182C12.8965 2.1732 12.8965 2.4582 12.0002 3.61695C11.119 2.5107 11.119 2.1207 12.0002 1.0182ZM11.5802 6.28695C10.1702 6.1332 9.89647 5.8557 9.74272 4.4457C11.194 4.6332 11.3965 4.83195 11.5802 6.28695Z"
          fill="#028577"/>
    <path d="M20.4978 7.04437V7.65562C20.4978 7.75508 20.5373 7.85046 20.6076 7.92079C20.678 7.99112 20.7733 8.03062 20.8728 8.03062C20.9723 8.03062 21.0676 7.99112 21.138 7.92079C21.2083 7.85046 21.2478 7.75508 21.2478 7.65562V7.04437C23.2766 6.82312 23.7453 6.25312 23.9328 4.04437C23.9376 3.989 23.93 3.93325 23.9107 3.88116C23.8913 3.82906 23.8606 3.78193 23.8207 3.74317C23.7809 3.70441 23.7329 3.67499 23.6803 3.65704C23.6277 3.63909 23.5718 3.63305 23.5166 3.63937H23.3816C22.3241 3.76312 21.6866 3.92062 21.2741 4.29187C22.6316 2.57437 22.6241 2.00063 21.2516 0.271875L21.1691 0.185625C21.1342 0.142608 21.0902 0.107855 21.0402 0.0838642C20.9903 0.0598737 20.9357 0.0472413 20.8803 0.046875C20.8251 0.0474717 20.7707 0.059435 20.7204 0.0820176C20.67 0.1046 20.6249 0.137317 20.5878 0.178125C19.1253 1.91062 19.0878 2.64188 20.4753 4.30313C20.0628 3.92813 19.4216 3.77063 18.3641 3.64688H18.2291C18.1738 3.64077 18.1179 3.64703 18.0654 3.66519C18.0128 3.68335 17.965 3.71296 17.9253 3.75187C17.8856 3.79047 17.8549 3.83738 17.8354 3.88926C17.8159 3.94113 17.8082 3.99666 17.8128 4.05188C18.0003 6.25313 18.4691 6.82312 20.4978 7.04437ZM23.1416 4.44563C22.9878 5.85563 22.7141 6.13312 21.3041 6.28687C21.4878 4.83187 21.6903 4.63313 23.1416 4.44563ZM20.8653 1.01813C21.7653 2.17313 21.7653 2.45813 20.8653 3.61688C19.9766 2.51063 19.9766 2.12063 20.8653 1.01813ZM20.4416 6.28687C19.0316 6.13312 18.7541 5.85563 18.6003 4.44563C20.0553 4.63313 20.2503 4.83187 20.4416 6.28687Z"
          fill="#028577"/>
    <path d="M7.16636 9.63844C6.75386 9.26344 6.11636 9.10969 5.05511 8.98594H4.92011C4.86515 8.97935 4.8094 8.98501 4.75689 9.00251C4.70437 9.02002 4.65638 9.04894 4.61636 9.08719C4.57838 9.12489 4.54848 9.16994 4.52849 9.21959C4.5085 9.26923 4.49885 9.32243 4.50011 9.37594C4.68386 11.5772 5.15636 12.1472 7.18886 12.3759V12.9909C7.18886 13.0904 7.22837 13.1858 7.29869 13.2561C7.36902 13.3264 7.4644 13.3659 7.56386 13.3659C7.66332 13.3659 7.7587 13.3264 7.82903 13.2561C7.89935 13.1858 7.93886 13.0904 7.93886 12.9909V12.3759C9.96386 12.1584 10.4364 11.5884 10.6201 9.37594C10.6253 9.32012 10.6178 9.26386 10.5983 9.21129C10.5789 9.15872 10.5479 9.11119 10.5076 9.07219C10.4676 9.03394 10.4196 9.00502 10.3671 8.98751C10.3146 8.97001 10.2588 8.96435 10.2039 8.97094H10.0689C9.01136 9.09094 8.37386 9.25219 7.96136 9.62344C9.31886 7.90219 9.31511 7.33219 7.96136 5.59969L7.87511 5.50969C7.84058 5.46598 7.79675 5.43052 7.74681 5.40587C7.69686 5.38122 7.64205 5.36801 7.58636 5.36719C7.53127 5.3671 7.47683 5.37915 7.42693 5.40248C7.37702 5.42581 7.33287 5.45986 7.29761 5.50219C5.81636 7.23094 5.78261 7.96219 7.16636 9.63844ZM5.29136 9.76969C6.74261 9.95344 6.94511 10.1447 7.12886 11.6072C5.72261 11.4572 5.44886 11.1797 5.29511 9.76969H5.29136ZM9.82886 9.76969C9.67886 11.1797 9.40136 11.4572 7.99136 11.6072C8.17886 10.1559 8.38136 9.95344 9.83261 9.76969H9.82886ZM7.56011 6.33844C8.45636 7.49719 8.45636 7.78219 7.56011 8.94094C6.67136 7.83469 6.67136 7.44469 7.56011 6.33844Z"
          fill="#028577"/>
    <path d="M16.0391 9.63781C15.6266 9.26281 14.9853 9.10906 13.9278 8.98531H13.7928C13.7379 8.97872 13.6821 8.98438 13.6296 9.00189C13.5771 9.0194 13.5291 9.04831 13.4891 9.08656C13.4488 9.12556 13.4178 9.1731 13.3983 9.22566C13.3789 9.27823 13.3714 9.33449 13.3766 9.39031C13.5603 11.5916 14.0328 12.1616 16.0616 12.3903V13.0053C16.0616 13.1048 16.1011 13.2002 16.1714 13.2705C16.2417 13.3408 16.3371 13.3803 16.4366 13.3803C16.536 13.3803 16.6314 13.3408 16.7017 13.2705C16.7721 13.2002 16.8116 13.1048 16.8116 13.0053V12.3753C18.8403 12.1578 19.3091 11.5878 19.4966 9.37531C19.5004 9.3196 19.4924 9.2637 19.473 9.21133C19.4536 9.15896 19.4233 9.11132 19.3841 9.07156C19.3441 9.03331 19.2961 9.0044 19.2436 8.98689C19.191 8.96938 19.1353 8.96372 19.0803 8.97031H18.9453C17.8878 9.09031 17.2503 9.25156 16.8378 9.62281C18.1953 7.90156 18.1916 7.33156 16.8153 5.59906L16.7328 5.49406C16.6983 5.45036 16.6545 5.41489 16.6045 5.39024C16.5546 5.36559 16.4998 5.35238 16.4441 5.35156C16.3888 5.35329 16.3344 5.36613 16.2841 5.38933C16.2339 5.41252 16.1888 5.44559 16.1516 5.48656C14.6891 7.23031 14.6553 7.96156 16.0391 9.63781ZM14.1641 9.76906C15.6153 9.95281 15.8178 10.1441 16.0016 11.6066C14.5953 11.4566 14.3178 11.1791 14.1678 9.76906H14.1641ZM18.7016 9.76906C18.5478 11.1791 18.2741 11.4566 16.8641 11.6066C17.0516 10.1553 17.2503 9.95281 18.7053 9.76906H18.7016ZM16.4328 6.33781C17.3291 7.49656 17.3291 7.78156 16.4328 8.94031C15.5441 7.83406 15.5441 7.44406 16.4328 6.33781Z"
          fill="#028577"/>
    <path d="M10.2079 19.4123H10.0729C9.01542 19.5323 8.37792 19.6898 7.96542 20.0611C9.32292 18.3436 9.31917 17.7736 7.96542 16.0411L7.87542 15.9511C7.84129 15.9079 7.79807 15.8727 7.74881 15.8481C7.69955 15.8234 7.64547 15.81 7.59042 15.8086C7.53596 15.8091 7.48226 15.8214 7.43304 15.8447C7.38382 15.868 7.34027 15.9017 7.30542 15.9436C5.83917 17.6723 5.80542 18.4036 7.18917 20.0686C6.78042 19.6936 6.13917 19.5398 5.07792 19.4161H4.94292C4.88796 19.4095 4.83221 19.4152 4.7797 19.4327C4.72718 19.4502 4.67919 19.4791 4.63917 19.5173C4.59942 19.5559 4.56872 19.6029 4.54927 19.6547C4.52982 19.7066 4.5221 19.7621 4.52667 19.8173C4.71042 22.0223 5.18292 22.5923 7.21542 22.8173V23.4323C7.21542 23.5318 7.25493 23.6272 7.32526 23.6975C7.39558 23.7678 7.49096 23.8073 7.59042 23.8073C7.68988 23.8073 7.78526 23.7678 7.85559 23.6975C7.92591 23.6272 7.96542 23.5318 7.96542 23.4323V22.8061C9.99042 22.5886 10.4629 22.0186 10.6467 19.8061C10.6483 19.7469 10.6359 19.6882 10.6105 19.6348C10.585 19.5813 10.5473 19.5347 10.5004 19.4986C10.4604 19.4645 10.4137 19.4393 10.3633 19.4244C10.3129 19.4095 10.26 19.4054 10.2079 19.4123ZM7.56042 16.7873C8.45667 17.9461 8.45667 18.2311 7.56042 19.3898C6.67167 18.2761 6.67167 17.8861 7.56042 16.7798V16.7873ZM5.31042 20.2186C6.76167 20.4023 6.96417 20.5936 7.14792 22.0561C5.72292 21.8986 5.44917 21.6211 5.29542 20.2111L5.31042 20.2186ZM8.01042 22.0561C8.19417 20.6048 8.38542 20.4023 9.84792 20.2186C9.68292 21.6211 9.40542 21.8986 7.99542 22.0486L8.01042 22.0561Z"
          fill="#028577"/>
    <path d="M18.9075 19.4156H18.7725C17.7187 19.5356 17.0775 19.6931 16.6687 20.0644C18.0262 18.3469 18.0187 17.7769 16.6462 16.0444L16.5637 15.9394C16.5292 15.8957 16.4854 15.8602 16.4354 15.8356C16.3855 15.8109 16.3307 15.7977 16.275 15.7969C16.2205 15.7973 16.1668 15.8096 16.1176 15.833C16.0684 15.8563 16.0248 15.89 15.99 15.9319C14.5275 17.6606 14.49 18.3919 15.8775 20.0569C15.465 19.6819 14.8237 19.5244 13.7625 19.4006H13.6275C13.5725 19.394 13.5168 19.3997 13.4643 19.4172C13.4117 19.4347 13.3638 19.4636 13.3237 19.5019C13.284 19.5405 13.2533 19.5874 13.2338 19.6393C13.2144 19.6911 13.2067 19.7467 13.2112 19.8019C13.3987 22.0069 13.8675 22.5769 15.9 22.8019V23.4169C15.9 23.5163 15.9395 23.6117 16.0098 23.682C16.0802 23.7524 16.1755 23.7919 16.275 23.7919C16.3744 23.7919 16.4698 23.7524 16.5402 23.682C16.6105 23.6117 16.65 23.5163 16.65 23.4169V22.8094C18.675 22.5919 19.1475 22.0219 19.3312 19.8094C19.3358 19.7542 19.3281 19.6986 19.3086 19.6468C19.2892 19.5949 19.2585 19.548 19.2187 19.5094C19.1772 19.4714 19.1277 19.4433 19.0738 19.427C19.0199 19.4108 18.9631 19.4069 18.9075 19.4156ZM16.26 16.7906C17.1562 17.9494 17.1562 18.2344 16.26 19.3931C15.375 18.2794 15.375 17.8894 16.26 16.7831V16.7906ZM14.01 20.2219C15.4612 20.4056 15.6637 20.5969 15.8475 22.0594C14.4225 21.9019 14.1487 21.6244 13.995 20.2144L14.01 20.2219ZM16.71 22.0594C16.8937 20.6081 17.085 20.4056 18.5475 20.2219C18.375 21.6244 18.105 21.9019 16.695 22.0519L16.71 22.0594Z"
          fill="#028577"/>
    <path d="M6.18769 14.4943C6.19226 14.4391 6.18454 14.3836 6.16509 14.3317C6.14564 14.2798 6.11493 14.2329 6.07519 14.1943C6.0355 14.1554 5.98766 14.1258 5.93513 14.1076C5.8826 14.0895 5.82668 14.0832 5.77144 14.0893H5.63644C4.58269 14.2131 3.94144 14.3706 3.53269 14.7381C4.89019 13.0243 4.88269 12.4506 3.51019 10.7218L3.42769 10.6131C3.39035 10.5748 3.34528 10.545 3.29548 10.5256C3.24568 10.5062 3.1923 10.4976 3.13894 10.5006C3.08354 10.5019 3.029 10.5145 2.97869 10.5377C2.92837 10.5609 2.88336 10.5942 2.84644 10.6356C1.38394 12.3681 1.34644 13.0956 2.73019 14.7606C2.32144 14.3856 1.68019 14.2281 0.618936 14.1043H0.483936C0.428688 14.0982 0.372775 14.1045 0.320242 14.1226C0.267709 14.1408 0.219869 14.1704 0.180186 14.2093C0.140438 14.2479 0.109735 14.2948 0.0902829 14.3467C0.0708309 14.3986 0.0631135 14.4541 0.0676856 14.5093C0.255186 16.7106 0.723935 17.2806 2.75644 17.5093V18.1206C2.75644 18.22 2.79594 18.3154 2.86627 18.3857C2.9366 18.456 3.03198 18.4956 3.13144 18.4956C3.23089 18.4956 3.32627 18.456 3.3966 18.3857C3.46693 18.3154 3.50644 18.22 3.50644 18.1206V17.4831C5.53519 17.2506 6.00019 16.6956 6.18769 14.4943ZM5.39644 14.8881C5.24644 16.2981 4.96894 16.5756 3.55894 16.7293C3.75019 15.2743 3.94519 15.0756 5.39644 14.8881ZM3.12394 11.4606C4.02019 12.6156 4.02019 12.9006 3.12394 14.0593C2.25019 12.9531 2.25019 12.5631 3.12394 11.4606ZM0.873936 14.8881C2.32519 15.0756 2.52769 15.2631 2.71144 16.7293C1.28644 16.5756 1.01269 16.2981 0.858936 14.8881H0.873936Z"
          fill="#028577"/>
    <path d="M15.0596 14.4925C15.0641 14.4373 15.0564 14.3818 15.037 14.3299C15.0175 14.278 14.9868 14.2311 14.9471 14.1925C14.9074 14.1536 14.8595 14.124 14.807 14.1058C14.7545 14.0877 14.6986 14.0814 14.6433 14.0875H14.5083C13.4546 14.2113 12.8133 14.3688 12.4008 14.7363C13.7583 13.0225 13.7546 12.4488 12.4008 10.72L12.3146 10.6113C12.2744 10.5694 12.225 10.5375 12.1703 10.5179C12.1156 10.4984 12.0572 10.4919 11.9996 10.4988C11.8882 10.5039 11.7832 10.5523 11.7071 10.6338C10.2446 12.3663 10.2071 13.0938 11.5946 14.7588C11.1858 14.3838 10.5446 14.2263 9.48332 14.1025H9.34832C9.2931 14.0962 9.23716 14.1022 9.18456 14.1202C9.13195 14.1381 9.08399 14.1675 9.04416 14.2063C9.00432 14.2451 8.9736 14.2922 8.95421 14.3443C8.93482 14.3964 8.92726 14.4521 8.93207 14.5075C9.11582 16.7088 9.58832 17.2788 11.6171 17.5075V18.1188C11.6171 18.2182 11.6566 18.3136 11.7269 18.3839C11.7972 18.4542 11.8926 18.4938 11.9921 18.4938C12.0915 18.4938 12.1869 18.4542 12.2572 18.3839C12.3276 18.3136 12.3671 18.2182 12.3671 18.1188V17.4813C14.4033 17.2488 14.8758 16.6938 15.0596 14.4925ZM14.2683 14.8863C14.1146 16.2963 13.8408 16.5738 12.4308 16.7275C12.6146 15.2725 12.8171 15.0738 14.2683 14.8863ZM11.9996 11.4588C12.8958 12.6138 12.8958 12.8988 11.9996 14.0575C11.1071 12.9513 11.1071 12.5613 11.9996 11.4588ZM9.74957 14.8863C11.2008 15.0738 11.4033 15.2613 11.5871 16.7275C10.1583 16.5738 9.88457 16.2963 9.74957 14.8863Z"
          fill="#028577"/>
    <path d="M23.5166 14.0875H23.3816C22.3241 14.2112 21.6866 14.3687 21.2741 14.7362C22.6316 13.0225 22.6241 12.4487 21.2516 10.7162L21.1691 10.6112C21.1345 10.5675 21.0907 10.5321 21.0408 10.5074C20.9908 10.4828 20.936 10.4696 20.8803 10.4688C20.8251 10.4709 20.7708 10.4839 20.7206 10.5071C20.6704 10.5303 20.6253 10.5631 20.5878 10.6038C19.1253 12.3325 19.0878 13.0637 20.4753 14.7287C20.0628 14.3537 19.4216 14.2 18.3641 14.0762H18.2291C18.1738 14.0701 18.1179 14.0764 18.0654 14.0946C18.0128 14.1127 17.965 14.1423 17.9253 14.1812C17.8856 14.2198 17.8549 14.2668 17.8354 14.3186C17.8159 14.3705 17.8082 14.426 17.8128 14.4812C17.9966 16.6825 18.4691 17.2525 20.4978 17.4812V18.0925C20.4978 18.192 20.5373 18.2873 20.6076 18.3577C20.678 18.428 20.7733 18.4675 20.8728 18.4675C20.9723 18.4675 21.0676 18.428 21.138 18.3577C21.2083 18.2873 21.2478 18.192 21.2478 18.0925V17.4812C23.2766 17.2637 23.7453 16.6937 23.9328 14.4812C23.9374 14.426 23.9297 14.3705 23.9102 14.3186C23.8908 14.2668 23.8601 14.2198 23.8203 14.1812C23.7796 14.1443 23.7313 14.1168 23.6789 14.1006C23.6264 14.0844 23.571 14.0799 23.5166 14.0875ZM20.8691 11.4625C21.7653 12.6175 21.7653 12.9025 20.8691 14.0612C19.9766 12.9512 19.9766 12.5612 20.8691 11.4587V11.4625ZM18.6191 14.89C20.0703 15.0775 20.2728 15.265 20.4566 16.7312C19.0316 16.5737 18.7503 16.2962 18.6041 14.8862L18.6191 14.89ZM21.3191 16.7312C21.5028 15.2762 21.6941 15.0775 23.1566 14.89C22.9878 16.2962 22.7141 16.5737 21.3041 16.7275L21.3191 16.7312Z"
          fill="#028577"/>
</svg>
