<svg width="24" height="24" viewBox="0 0 24 24" fill="none" xmlns="http://www.w3.org/2000/svg">
    <g>
        <path d="M10.1436 0.046875C10.0441 0.046875 9.94872 0.0863838 9.87839 0.15671C9.80806 0.227036 9.76855 0.322419 9.76855 0.421875V23.6719C9.76855 23.7713 9.80806 23.8667 9.87839 23.937C9.94872 24.0074 10.0441 24.0469 10.1436 24.0469C10.243 24.0469 10.3384 24.0074 10.4087 23.937C10.479 23.8667 10.5186 23.7713 10.5186 23.6719V0.421875C10.5186 0.322419 10.479 0.227036 10.4087 0.15671C10.3384 0.0863838 10.243 0.046875 10.1436 0.046875Z"
              fill="#028577"/>
        <path d="M7.84874 20.1659H7.71749C6.65999 20.2896 6.02249 20.4471 5.60999 20.8184C6.96749 19.1009 6.95999 18.5271 5.58749 16.7984L5.50499 16.6934C5.47046 16.6497 5.42663 16.6142 5.37669 16.5895C5.32674 16.5649 5.27193 16.5517 5.21624 16.5509C5.16081 16.5498 5.10583 16.561 5.05526 16.5836C5.00468 16.6063 4.95976 16.64 4.92374 16.6821C3.46124 18.4146 3.42374 19.1459 4.81124 20.8071C4.39874 20.4321 3.75749 20.2746 2.69999 20.1509H2.56499C2.50974 20.1448 2.45383 20.151 2.4013 20.1692C2.34876 20.1873 2.30092 20.2169 2.26124 20.2559C2.22149 20.2944 2.19079 20.3414 2.17134 20.3932C2.15189 20.4451 2.14417 20.5006 2.14874 20.5559C2.33624 22.7834 2.78249 23.3309 4.83374 23.5559V23.6496C4.83374 23.7491 4.87325 23.8444 4.94357 23.9148C5.0139 23.9851 5.10928 24.0246 5.20874 24.0246C5.3082 24.0246 5.40358 23.9851 5.4739 23.9148C5.54423 23.8444 5.58374 23.7491 5.58374 23.6496V23.5559C7.61249 23.3346 8.08124 22.7646 8.26874 20.5559C8.27364 20.5001 8.26602 20.444 8.24642 20.3916C8.22683 20.3392 8.19576 20.2919 8.15548 20.253C8.11521 20.2142 8.06677 20.1849 8.01369 20.1672C7.96061 20.1495 7.90425 20.1439 7.84874 20.1509V20.1659ZM5.22374 17.5409C6.11999 18.6996 6.11999 18.9809 5.22374 20.1396C4.31249 19.0296 4.31249 18.6434 5.20499 17.5371L5.22374 17.5409ZM2.97374 20.9721C4.42499 21.1559 4.62374 21.3471 4.81124 22.8096C3.37499 22.6521 3.08999 22.3784 2.93999 20.9684L2.97374 20.9721ZM5.67374 22.8096C5.85749 21.3584 6.04874 21.1559 7.51124 20.9721C7.32374 22.3784 7.04999 22.6521 5.62499 22.8059L5.67374 22.8096Z"
              fill="#028577"/>
        <path d="M7.85202 3.64688H7.71702C6.65952 3.77063 6.02202 3.92813 5.60952 4.29938C6.96702 2.58188 6.95952 2.00813 5.58702 0.279375L5.50452 0.185625C5.46963 0.142608 5.42563 0.107855 5.37571 0.0838642C5.32578 0.0598737 5.27116 0.0472413 5.21577 0.046875C5.16061 0.0474717 5.10617 0.059435 5.05584 0.0820176C5.00552 0.1046 4.96039 0.137317 4.92327 0.178125C3.46077 1.91062 3.42327 2.64188 4.81077 4.30313C4.39827 3.92813 3.75702 3.77063 2.69577 3.64688H2.56452C2.50748 3.63902 2.44939 3.6444 2.39477 3.66261C2.34014 3.68082 2.29044 3.71136 2.24952 3.75187C2.20977 3.79047 2.17907 3.83738 2.15962 3.88926C2.14017 3.94113 2.13245 3.99666 2.13702 4.05188C2.32077 6.25313 2.79327 6.82312 4.82202 7.05187V7.12687C4.82202 7.22633 4.86153 7.32171 4.93186 7.39204C5.00218 7.46237 5.09756 7.50187 5.19702 7.50187C5.29648 7.50187 5.39186 7.46237 5.46219 7.39204C5.53251 7.32171 5.57202 7.22633 5.57202 7.12687V7.03312C7.60077 6.81187 8.06952 6.24188 8.25702 4.03312C8.26183 3.97775 8.25427 3.922 8.23488 3.86991C8.2155 3.81781 8.18477 3.77068 8.14493 3.73192C8.1051 3.69316 8.05714 3.66374 8.00454 3.64579C7.95193 3.62784 7.89599 3.6218 7.84077 3.62813L7.85202 3.64688ZM5.20452 1.02188C6.10077 2.17688 6.10077 2.46187 5.20452 3.62063C4.31202 2.51062 4.31202 2.12063 5.20452 1.01813V1.02188ZM2.93577 4.44563C4.39077 4.63313 4.58952 4.82062 4.77702 6.28687C3.37452 6.13312 3.08952 5.85563 2.93577 4.44563ZM5.62452 6.28687C5.80827 4.83187 5.99952 4.63313 7.46202 4.44563C7.32327 5.85563 7.04952 6.13312 5.62452 6.28687Z"
              fill="#028577"/>
        <path d="M7.84827 11.908H7.71702C6.65952 12.0318 6.02202 12.1893 5.60952 12.5605C6.96702 10.843 6.95952 10.2693 5.58702 8.54054L5.50452 8.43554C5.47 8.39184 5.42617 8.35637 5.37622 8.33172C5.32627 8.30707 5.27146 8.29386 5.21577 8.29304C5.16035 8.29194 5.10537 8.30314 5.05479 8.32583C5.00421 8.34853 4.95929 8.38216 4.92327 8.42429C3.46077 10.1568 3.42327 10.888 4.81077 12.5493C4.39827 12.1743 3.75702 12.0168 2.69952 11.893H2.56452C2.50719 11.8857 2.44892 11.8916 2.39428 11.9105C2.33963 11.9294 2.29009 11.9606 2.24952 12.0018C2.20977 12.0404 2.17907 12.0873 2.15962 12.1392C2.14017 12.191 2.13245 12.2466 2.13702 12.3018C2.32077 14.503 2.79327 15.073 4.82202 15.3018V15.3955C4.82202 15.495 4.86153 15.5904 4.93186 15.6607C5.00218 15.731 5.09757 15.7705 5.19702 15.7705C5.29648 15.7705 5.39186 15.731 5.46219 15.6607C5.53251 15.5904 5.57202 15.495 5.57202 15.3955V15.3018C7.60077 15.0805 8.06952 14.5105 8.25702 12.3018C8.26193 12.2461 8.2543 12.1899 8.23471 12.1375C8.21511 12.0851 8.18404 12.0378 8.14377 11.999C8.1035 11.9601 8.05505 11.9308 8.00197 11.9131C7.94889 11.8954 7.89253 11.8899 7.83702 11.8968L7.84827 11.908ZM5.22327 9.28304C6.11952 10.438 6.11952 10.723 5.22327 11.8818C4.31202 10.7718 4.31202 10.3855 5.20452 9.27929L5.22327 9.28304ZM2.97327 12.7105C4.42452 12.898 4.62327 13.0855 4.81077 14.5518C3.37452 14.3943 3.08952 14.1168 2.93952 12.7068L2.97327 12.7105ZM5.62452 14.548C5.80827 13.093 5.99952 12.8943 7.46202 12.7068C7.32327 14.1205 7.04952 14.3943 5.62452 14.548Z"
              fill="#028577"/>
        <path d="M13.4434 0.046875C13.3439 0.046875 13.2485 0.0863838 13.1782 0.15671C13.1079 0.227036 13.0684 0.322419 13.0684 0.421875V23.6719C13.0684 23.7713 13.1079 23.8667 13.1782 23.937C13.2485 24.0074 13.3439 24.0469 13.4434 24.0469C13.5428 24.0469 13.6382 24.0074 13.7085 23.937C13.7789 23.8667 13.8184 23.7713 13.8184 23.6719V0.421875C13.8184 0.322419 13.7789 0.227036 13.7085 0.15671C13.6382 0.0863838 13.5428 0.046875 13.4434 0.046875Z"
              fill="#028577"/>
        <path d="M23.625 0.046875C23.5255 0.046875 23.4302 0.0863838 23.3598 0.15671C23.2895 0.227036 23.25 0.322419 23.25 0.421875V23.6719C23.25 23.7713 23.2895 23.8667 23.3598 23.937C23.4302 24.0074 23.5255 24.0469 23.625 24.0469C23.7245 24.0469 23.8198 24.0074 23.8902 23.937C23.9605 23.8667 24 23.7713 24 23.6719V0.421875C24 0.322419 23.9605 0.227036 23.8902 0.15671C23.8198 0.0863838 23.7245 0.046875 23.625 0.046875Z"
              fill="#028577"/>
        <path d="M0.40918 0.046875C0.309723 0.046875 0.214341 0.0863838 0.144015 0.15671C0.0736885 0.227036 0.0341797 0.322419 0.0341797 0.421875V23.6719C0.0341797 23.7211 0.0438793 23.7699 0.0627249 23.8154C0.0815704 23.8609 0.109193 23.9022 0.144015 23.937C0.178837 23.9719 0.220176 23.9995 0.265673 24.0183C0.31117 24.0372 0.359934 24.0469 0.40918 24.0469C0.458425 24.0469 0.507189 24.0372 0.552686 24.0183C0.598183 23.9995 0.639523 23.9719 0.674345 23.937C0.709167 23.9022 0.736789 23.8609 0.755634 23.8154C0.77448 23.7699 0.78418 23.7211 0.78418 23.6719V0.421875C0.78418 0.322419 0.744671 0.227036 0.674345 0.15671C0.604019 0.0863838 0.508636 0.046875 0.40918 0.046875Z"
              fill="#028577"/>
        <path d="M21.1575 20.1735H21.0225C19.965 20.2935 19.3275 20.4547 18.915 20.8222C20.2725 19.1047 20.265 18.5347 18.8925 16.8022L18.81 16.6972C18.7755 16.6535 18.7316 16.618 18.6817 16.5934C18.6317 16.5687 18.5769 16.5555 18.5212 16.5547C18.4655 16.5541 18.4103 16.5658 18.3597 16.5892C18.3091 16.6126 18.2644 16.6469 18.2287 16.6897C16.7662 18.4185 16.7287 19.1497 18.1162 20.8147C17.7037 20.4397 17.0625 20.286 16.005 20.1622H15.87C15.815 20.1556 15.7593 20.1613 15.7068 20.1788C15.6542 20.1963 15.6062 20.2252 15.5662 20.2635C15.526 20.3025 15.495 20.35 15.4755 20.4026C15.456 20.4551 15.4486 20.5114 15.4537 20.5672C15.6375 22.7685 16.11 23.3385 18.1387 23.5672V23.661C18.1387 23.7604 18.1782 23.8558 18.2486 23.9261C18.3189 23.9965 18.4143 24.036 18.5137 24.036C18.6132 24.036 18.7086 23.9965 18.7789 23.9261C18.8492 23.8558 18.8887 23.7604 18.8887 23.661V23.5672C20.9175 23.3497 21.3862 22.7797 21.5737 20.5672C21.5776 20.5115 21.5696 20.4556 21.5502 20.4032C21.5308 20.3509 21.5005 20.3032 21.4612 20.2635C21.4202 20.2272 21.3718 20.2004 21.3193 20.1848C21.2669 20.1693 21.2116 20.1654 21.1575 20.1735ZM18.51 17.5485C19.4062 18.7072 19.4062 18.9922 18.51 20.151C17.625 19.0372 17.625 18.6472 18.51 17.541V17.5485ZM16.26 20.9797C17.7112 21.1635 17.9137 21.3547 18.0975 22.8172C16.6725 22.6597 16.395 22.3822 16.245 20.9722L16.26 20.9797ZM18.96 22.8172C19.1437 21.366 19.335 21.1635 20.7975 20.9797C20.625 22.3822 20.355 22.6597 18.945 22.8097L18.96 22.8172Z"
              fill="#028577"/>
        <path d="M21.1536 3.78175H21.0186C19.9423 3.913 19.2973 4.078 18.8886 4.47925C20.2761 2.66425 20.2761 2.11675 18.8886 0.301752L18.8136 0.189252C18.779 0.144368 18.7347 0.107892 18.6841 0.0825628C18.6334 0.0572332 18.5777 0.0437079 18.5211 0.0430021C18.4644 0.0422467 18.4083 0.0543388 18.357 0.07837C18.3057 0.102401 18.2605 0.137747 18.2248 0.181752C16.7248 1.99675 16.7248 2.70925 18.1386 4.483C17.7298 4.078 17.0848 3.913 16.0048 3.78175H15.8698C15.8146 3.77543 15.7586 3.78146 15.706 3.79941C15.6534 3.81736 15.6055 3.84678 15.5656 3.88555C15.5258 3.92431 15.4951 3.97144 15.4757 4.02353C15.4563 4.07563 15.4487 4.13138 15.4536 4.18675C15.6411 6.48925 16.0836 7.0555 18.1386 7.2805V7.393C18.1386 7.49246 18.1781 7.58784 18.2484 7.65817C18.3187 7.72849 18.4141 7.768 18.5136 7.768C18.613 7.768 18.7084 7.72849 18.7787 7.65817C18.849 7.58784 18.8886 7.49246 18.8886 7.393V7.2805C20.9398 7.05175 21.3861 6.48925 21.5736 4.18675C21.5774 4.13104 21.5694 4.07514 21.55 4.02277C21.5306 3.9704 21.5003 3.92276 21.4611 3.883C21.4196 3.84569 21.3709 3.81742 21.318 3.79999C21.265 3.78256 21.209 3.77635 21.1536 3.78175ZM16.2411 4.58425C17.6998 4.7755 17.8986 4.98925 18.0823 6.523C16.6836 6.373 16.3948 6.058 16.2411 4.58425ZM18.4911 1.02925C19.3911 2.23675 19.3911 2.52925 18.4911 3.74425C17.6248 2.6005 17.6248 2.173 18.5098 1.02925H18.4911ZM18.9411 6.523C19.1286 4.98925 19.3161 4.7755 20.7823 4.58425C20.6248 6.073 20.3586 6.373 18.9411 6.523Z"
              fill="#028577"/>
        <path d="M21.1575 11.9117H21.0225C19.965 12.0355 19.3275 12.193 18.915 12.5642C20.2725 10.8467 20.2687 10.273 18.8925 8.54422L18.81 8.43547C18.7755 8.39176 18.7316 8.3563 18.6817 8.33165C18.6317 8.307 18.5769 8.29379 18.5212 8.29297C18.4659 8.29448 18.4114 8.30723 18.3611 8.33044C18.3108 8.35364 18.2658 8.38683 18.2287 8.42797C16.7662 10.1567 16.7287 10.888 18.1162 12.553C17.7037 12.178 17.0625 12.0205 16.005 11.8967H15.87C15.815 11.8901 15.7593 11.8958 15.7068 11.9133C15.6542 11.9308 15.6062 11.9597 15.5662 11.998C15.526 12.037 15.495 12.0845 15.4755 12.1371C15.456 12.1896 15.4486 12.2459 15.4537 12.3017C15.6375 14.503 16.11 15.073 18.1387 15.3017V15.3917C18.1387 15.4912 18.1782 15.5866 18.2486 15.6569C18.3189 15.7272 18.4143 15.7667 18.5137 15.7667C18.6132 15.7667 18.7086 15.7272 18.7789 15.6569C18.8492 15.5866 18.8887 15.4912 18.8887 15.3917V15.298C20.9175 15.0805 21.3862 14.5105 21.5737 12.298C21.5776 12.2423 21.5696 12.1864 21.5502 12.134C21.5308 12.0816 21.5005 12.034 21.4612 11.9942C21.4196 11.9593 21.3709 11.9338 21.3184 11.9196C21.266 11.9053 21.2111 11.9026 21.1575 11.9117ZM18.51 9.28672C19.4062 10.4417 19.4062 10.7267 18.51 11.8855C17.625 10.7755 17.625 10.3855 18.51 9.28297V9.28672ZM16.26 12.7142C17.7112 12.898 17.9137 13.0892 18.0975 14.5555C16.6725 14.398 16.395 14.1205 16.245 12.7105L16.26 12.7142ZM18.96 14.5555C19.1437 13.1005 19.335 12.898 20.7975 12.7142C20.625 14.1205 20.355 14.398 18.945 14.5517L18.96 14.5555Z"
              fill="#028577"/>
    </g>
</svg>
