<svg width="24" height="24" viewBox="0 0 24 24" fill="none" xmlns="http://www.w3.org/2000/svg">
<path d="M7.02361 12.5852C6.99871 12.4945 6.97382 12.4039 6.99871 12.3132L7.52146 10.1367L7.84506 10.7488C7.96953 10.9982 8.21845 11.1796 8.51717 11.2476L11.2056 11.9504L11.33 16.1901L10.3094 16.2127C10.1352 16.2127 9.96094 16.3488 9.98583 16.5301L10.0356 18.0038C10.0356 18.3439 10.1601 18.6386 10.3592 18.888C10.5833 18.7293 10.8322 18.6386 11.0811 18.5479C11.5541 17.7771 12.4751 17.2783 13.4708 17.2783H13.5206L13.4957 16.4168C13.4957 16.2581 13.3463 16.0994 13.1472 16.122L12.1515 16.1447L12.027 11.9278C12.3755 11.8144 12.6493 11.5423 12.6991 11.1796C12.7987 10.7035 12.4502 10.25 11.9524 10.0687L11.9026 8.14156L12.7987 8.11889C13.0227 8.11889 13.197 7.96019 13.197 7.75614C13.197 7.5521 12.9978 7.3934 12.7738 7.3934L10.2099 7.46141C9.98583 7.46141 9.81158 7.62011 9.81158 7.82416C9.81158 8.0282 10.0107 8.18691 10.2348 8.18691L11.1309 8.16424L11.1807 9.84195L9.63734 9.43386L7.99442 6.55454C7.96953 6.48652 7.86996 6.32782 7.62103 6.1011C7.22275 5.73835 6.65022 5.55698 6.07768 5.57965C5.53005 5.60232 5.0073 5.85171 4.6588 6.21446C4.53434 6.35049 4.40988 6.57721 4.36009 6.75858L3.04078 11.5423C2.9661 11.8144 2.99099 12.1318 3.14035 12.3812L5.38069 16.2354C5.43047 16.3261 5.45537 16.4168 5.43047 16.5075L4.6588 21.1098C4.55923 21.6993 4.90773 22.3114 5.55494 22.4928C5.6794 22.5382 5.80386 22.5382 5.92833 22.5382C6.55064 22.5382 7.07339 22.1527 7.19785 21.5859L8.26824 16.3941C8.31802 16.1901 8.29313 15.9633 8.21845 15.782L7.02361 12.5852Z" fill="#282B36"/>
<path d="M7.07339 5.17161C8.33819 5.17161 9.36351 4.23776 9.36351 3.0858C9.36351 1.93385 8.33819 1 7.07339 1C5.80859 1 4.78326 1.93385 4.78326 3.0858C4.78326 4.23776 5.80859 5.17161 7.07339 5.17161Z" fill="#282B36"/>
<path d="M18.6486 20.7698C18.549 19.9083 17.8022 19.2508 16.8563 19.1828C16.682 18.3439 15.8855 17.7318 14.9396 17.7318C14.5413 17.7318 14.143 17.8452 13.8443 18.0492C13.7198 18.0265 13.5954 18.0265 13.4709 18.0265C12.6245 18.0265 11.9027 18.5253 11.6288 19.2055C10.7576 19.3415 10.0855 19.9763 9.98592 20.7925C9.16446 20.9059 8.49236 21.4727 8.343 22.2208C8.29322 22.4022 8.46747 22.5609 8.66661 22.5609H20.0923C20.2915 22.5609 20.4657 22.4022 20.416 22.2208C20.2168 21.4273 19.5198 20.8378 18.6486 20.7698Z" fill="#282B36"/>
</svg>
