<svg width="45" height="45" viewBox="0 0 45 45" fill="none" xmlns="http://www.w3.org/2000/svg">
<g clip-path="url(#clip0)">
<mask id="path-1-outside-1" maskUnits="userSpaceOnUse" x="6.375" y="1.75" width="32" height="44" fill="black">
<rect fill="white" x="6.375" y="1.75" width="32" height="44"/>
<path fill-rule="evenodd" clip-rule="evenodd" d="M35.2966 13.9611C34.2237 9.29975 31.1394 3.75 22.5877 3.75H22.4123C13.8503 3.75 10.7763 9.3102 9.70344 13.9611C8.96071 17.1906 9.48681 20.6501 11.1889 23.7228L21.7418 42.7237C21.8965 43.0059 22.2163 43.1522 22.5052 43.1208H22.5877C22.8559 43.1208 23.1241 42.9745 23.2582 42.7237L33.8111 23.7228C35.5132 20.6501 36.0393 17.1802 35.2966 13.9611ZM22.5871 10.0098C18.7497 10.0098 15.624 13.1766 15.624 17.0645C15.624 20.9525 18.7497 24.1193 22.5871 24.1193C26.4245 24.1193 29.5501 20.9525 29.5501 17.0645C29.5501 13.1766 26.4348 10.0098 22.5871 10.0098Z"/>
</mask>
<path fill-rule="evenodd" clip-rule="evenodd" d="M35.2966 13.9611C34.2237 9.29975 31.1394 3.75 22.5877 3.75H22.4123C13.8503 3.75 10.7763 9.3102 9.70344 13.9611C8.96071 17.1906 9.48681 20.6501 11.1889 23.7228L21.7418 42.7237C21.8965 43.0059 22.2163 43.1522 22.5052 43.1208H22.5877C22.8559 43.1208 23.1241 42.9745 23.2582 42.7237L33.8111 23.7228C35.5132 20.6501 36.0393 17.1802 35.2966 13.9611ZM22.5871 10.0098C18.7497 10.0098 15.624 13.1766 15.624 17.0645C15.624 20.9525 18.7497 24.1193 22.5871 24.1193C26.4245 24.1193 29.5501 20.9525 29.5501 17.0645C29.5501 13.1766 26.4348 10.0098 22.5871 10.0098Z" fill="#9FAABE"/>
<path d="M35.2966 13.9611L33.3475 14.4097L33.3478 14.4108L35.2966 13.9611ZM9.70344 13.9611L7.75462 13.5116L7.75432 13.5129L9.70344 13.9611ZM11.1889 23.7228L9.43937 24.6919L9.44046 24.6939L11.1889 23.7228ZM21.7418 42.7237L23.4955 41.7621L23.4902 41.7526L21.7418 42.7237ZM22.5052 43.1208V41.1208H22.3969L22.2893 41.1325L22.5052 43.1208ZM23.2582 42.7237L21.5098 41.7526L21.502 41.7666L21.4944 41.7807L23.2582 42.7237ZM33.8111 23.7228L35.5595 24.6939L35.5606 24.6919L33.8111 23.7228ZM22.5877 5.75C26.3856 5.75 28.7698 6.96233 30.3339 8.52321C31.9485 10.1344 32.8598 12.2908 33.3475 14.4097L37.2456 13.5125C36.6604 10.9701 35.4932 8.02087 33.1594 5.69188C30.7752 3.31254 27.3415 1.75 22.5877 1.75V5.75ZM22.4123 5.75H22.5877V1.75H22.4123V5.75ZM11.6523 14.4107C12.1402 12.2952 13.0496 10.1386 14.6631 8.5262C16.2259 6.96455 18.6098 5.75 22.4123 5.75V1.75C17.6528 1.75 14.2187 3.31555 11.8358 5.69673C9.5036 8.02717 8.33947 10.9761 7.75462 13.5116L11.6523 14.4107ZM12.9384 22.7537C11.4599 20.0845 11.0274 17.1276 11.6526 14.4094L7.75432 13.5129C6.894 17.2537 7.51375 21.2156 9.43937 24.6919L12.9384 22.7537ZM23.4902 41.7526L12.9373 22.7518L9.44046 24.6939L19.9934 43.6947L23.4902 41.7526ZM22.2893 41.1325C22.7542 41.082 23.2379 41.2924 23.4955 41.7621L19.9881 43.6853C20.5552 44.7194 21.6785 45.2223 22.721 45.1091L22.2893 41.1325ZM22.5877 41.1208H22.5052V45.1208H22.5877V41.1208ZM21.4944 41.7807C21.7301 41.3399 22.1656 41.1208 22.5877 41.1208V45.1208C23.5462 45.1208 24.5181 44.6091 25.022 43.6666L21.4944 41.7807ZM32.0627 22.7518L21.5098 41.7526L25.0066 43.6947L35.5595 24.6939L32.0627 22.7518ZM33.3478 14.4108C33.9723 17.1175 33.5402 20.0844 32.0616 22.7537L35.5606 24.6919C37.4862 21.2158 38.1063 17.2429 37.2454 13.5115L33.3478 14.4108ZM17.624 17.0645C17.624 14.2564 19.8788 12.0098 22.5871 12.0098V8.00977C17.6205 8.00977 13.624 12.0968 13.624 17.0645H17.624ZM22.5871 22.1193C19.8788 22.1193 17.624 19.8727 17.624 17.0645H13.624C13.624 22.0323 17.6205 26.1193 22.5871 26.1193V22.1193ZM27.5501 17.0645C27.5501 19.8727 25.2953 22.1193 22.5871 22.1193V26.1193C27.5537 26.1193 31.5501 22.0323 31.5501 17.0645H27.5501ZM22.5871 12.0098C25.3037 12.0098 27.5501 14.2544 27.5501 17.0645H31.5501C31.5501 12.0987 27.5659 8.00977 22.5871 8.00977V12.0098Z" fill="#F3F6FB" mask="url(#path-1-outside-1)"/>
</g>
<defs>
<clipPath id="clip0">
<rect width="45" height="45" fill="white"/>
</clipPath>
</defs>
</svg>
