<svg width="45" height="45" viewBox="0 0 45 45" fill="none" xmlns="http://www.w3.org/2000/svg">
<g clip-path="url(#clip0)">
<path d="M33.8985 23.7714L33.8986 23.7713C35.6118 20.6784 36.1426 17.1833 35.394 13.9386C34.8551 11.5974 33.8094 9.0248 31.8173 7.03676C29.8227 5.04619 26.8874 3.65 22.5877 3.65H22.4123C18.1074 3.65 15.1721 5.04882 13.1788 7.04073C11.1879 9.0301 10.1448 11.6027 9.606 13.9386L9.60599 13.9387C8.85738 17.1938 9.38816 20.6784 11.1014 23.7713L11.1015 23.7714L21.6541 42.7717C21.6541 42.7718 21.6541 42.7718 21.6542 42.7718C21.8285 43.0897 22.1854 43.2538 22.5104 43.2208H22.5877C22.8901 43.2208 23.1933 43.0565 23.346 42.7716C23.3461 42.7713 23.3463 42.7711 23.3464 42.7708L33.8985 23.7714Z" fill="#9FAABE" stroke="#F3F6FB" stroke-width="0.2"/>
<path d="M22.5871 9.90977C18.6932 9.90977 15.524 13.1226 15.524 17.0645C15.524 21.0065 18.6932 24.2193 22.5871 24.2193C26.481 24.2193 29.6501 21.0065 29.6501 17.0645C29.6501 13.1227 26.4914 9.90977 22.5871 9.90977Z" fill="#F3F6FB" stroke="#F3F6FB" stroke-width="0.2"/>
<circle cx="33" cy="11" r="6" fill="#F3F6FB"/>
<path d="M33 3C28.576 3 25 6.576 25 11C25 15.424 28.576 19 33 19C37.424 19 41 15.424 41 11C41 6.576 37.424 3 33 3ZM37 13.872L35.872 15L33 12.128L30.128 15L29 13.872L31.872 11L29 8.128L30.128 7L33 9.872L35.872 7L37 8.128L34.128 11L37 13.872Z"
      fill="#D02620"/>
</g>
<defs>
<clipPath id="clip0">
<rect width="45" height="45" fill="white"/>
</clipPath>
</defs>
</svg>
