<svg width="24" height="21" viewBox="0 0 24 21" fill="none" xmlns="http://www.w3.org/2000/svg">
    <path d="M7.33334 10.5009C9.78412 10.5009 11.7667 6.81293 11.7667 2.26758C11.7667 6.81293 13.7492 10.5009 16.2 10.5009C13.7492 10.5009 11.7667 14.1826 11.7667 18.7343C11.7667 14.1826 9.78412 10.5009 7.33334 10.5009Z"
          stroke="#028577" stroke-width="1.5" stroke-linecap="round" stroke-linejoin="round"/>
    <path d="M1 3.5359C1.83785 3.52789 2.63847 3.25799 3.23037 2.784C3.82226 2.31001 4.15839 1.66962 4.16671 1C4.17503 1.66962 4.51116 2.31001 5.10305 2.784C5.69494 3.25799 6.49549 3.52789 7.33334 3.5359C6.49349 3.5359 5.68807 3.80253 5.09421 4.27715C4.50034 4.75176 4.16671 5.39547 4.16671 6.06667C4.16671 5.39547 3.83307 4.75176 3.23921 4.27715C2.64534 3.80253 1.83985 3.5359 1 3.5359Z"
          stroke="#028577" stroke-width="1.5" stroke-linecap="round" stroke-linejoin="round"/>
    <path d="M16.1989 17.4695C17.0368 17.4615 17.8374 17.1916 18.4293 16.7176C19.0212 16.2436 19.3573 15.6032 19.3656 14.9336C19.3739 15.6032 19.71 16.2436 20.3019 16.7176C20.8938 17.1916 21.6944 17.4615 22.5323 17.4695C21.6924 17.4695 20.8869 17.7361 20.2931 18.2107C19.6992 18.6854 19.3656 19.3291 19.3656 20.0003C19.3656 19.3291 19.0319 18.6854 18.4381 18.2107C17.8442 17.7361 17.0388 17.4695 16.1989 17.4695Z"
          stroke="#028577" stroke-width="1.5" stroke-linecap="round" stroke-linejoin="round"/>
</svg>
