<svg width="54" height="56" viewBox="0 0 54 56" fill="none" xmlns="http://www.w3.org/2000/svg">
<mask id="mask0" mask-type="alpha" maskUnits="userSpaceOnUse" x="12" y="39" width="32" height="17">
<path d="M31.2629 46.8054C32.4421 49.1638 36.5693 49.1638 40.1069 49.7534C40.9493 49.8938 42.0738 50.0551 43.3622 50.3057C29.4931 61.5454 14.1635 53.291 12.8306 49.6953C18.0036 48.6842 22.0039 48.8147 23.0085 46.8054C24.1877 44.447 23.5981 40.9094 23.5981 39.1406H30.6733C30.4768 40.5164 30.1269 44.5335 31.2629 46.8054Z" fill="#4D4D4D"/>
</mask>
<g mask="url(#mask0)">
<path d="M43.0558 72.1581C34.2119 75.6957 10.0383 78.6437 -1.16406 59.187C0.604733 55.6494 4.79402 51.7733 10.0383 50.343C16.5239 48.5742 21.8303 49.1638 23.0095 46.8054C24.1887 44.447 23.5991 40.9094 23.5991 39.1406H30.6743C30.4777 40.5164 30.1279 44.5335 31.2639 46.8054C32.4431 49.1638 36.5702 49.1638 40.1078 49.7534C42.9379 50.2251 48.9518 50.9326 53.6686 54.4702C52.4894 62.7246 48.3622 70.0356 43.0558 72.1581Z" fill="#4D4D4D"/>
<path d="M22.4185 46.2158V37.3718L32.4416 36.7822V41.499C31.2624 41.6955 28.4324 42.2065 26.5456 42.6782C24.6589 43.1499 23.0081 45.2331 22.4185 46.2158Z" fill="#3D3D3D"/>
<path d="M27.7265 70.3894C14.1655 70.3894 14.5586 56.0425 15.3447 49.1638L11.8071 49.7534L12.3967 71.5686L43.6455 72.1582L43.0559 50.343L38.9275 49.1638C41.2859 58.5974 39.9992 70.3894 27.7265 70.3894Z" fill="white"/>
<path d="M46.0038 61.5454C45.5322 59.6587 45.0212 53.0945 44.8246 50.343L39.5183 49.1638C40.3044 56.239 41.7587 69.9177 41.2871 70.3894C40.6975 70.979 35.3911 70.979 31.2639 70.979C27.9621 70.979 18.8823 70.1928 14.7551 69.7998V48.5742L11.2175 49.1638L8.85913 69.2102L7.09033 73.927C14.7551 74.7131 30.4384 76.4033 31.8535 76.8749C33.2685 77.3466 43.4489 73.927 48.3622 72.1582C47.7726 69.4067 46.4755 63.4321 46.0038 61.5454Z" fill="#80BFB6"/>
</g>
<path d="M53.6667 29.1175C55.5534 25.8157 46.5915 19.0943 41.8747 16.1463C41.8747 15.3602 42.4645 13.7879 42.4645 12.6087C42.4645 11.2902 40.1061 7.89193 38.9269 6.12313C37.7477 4.35433 33.0309 1.99592 28.3142 0.227126C24.5407 -1.18791 20.4528 4.35432 18.8806 7.30231C12.9489 7.30231 0.603417 9.07112 0.0132292 15.5567C-0.470626 20.8738 12.3948 25.5799 24.1868 29.1175C35.9787 32.655 51.3083 33.2446 53.6667 29.1175Z" fill="#80BFB6"/>
<path d="M41.2351 10.5566C40.2525 8.19824 36.9716 2.37016 33.5703 4.07105C31.2124 5.25023 37.1079 8.5913 41.2351 10.5566Z" fill="#59A99F"/>
<path d="M31.8522 17.9153C33.0314 18.5049 36.1668 19.8335 38.5002 21.0002C38.5002 27.6962 36.5089 40.32 27.1354 40.32C16.3336 40.32 16.3335 23.7039 16.3335 16.3335C20.8538 16.9231 30.5865 17.2824 31.8522 17.9153Z" fill="#4D4D4D"/>
<path d="M15.9327 21C15.9327 19.1133 15.7365 17.129 15.9331 16.1463C19.4707 14.9671 22.4187 14.9671 25.3663 15.5567C28.1414 16.1118 32.2615 17.684 33.8337 18.6667C31.6719 19.2563 26.8993 20.3914 25.9559 20.8631C24.7767 21.4527 23.598 23.2215 22.4188 24.4007C21.4755 25.3441 18.5693 25.6542 16.8 26.8334C16.2167 25.0834 15.9327 22.8867 15.9327 21Z" fill="#FFD366"/>
<path d="M35.9796 23.8111C35.383 22.6178 34.8004 20.2735 34.8004 19.0943L37.3337 20.4167L38.5004 21C38.5004 22.4058 38.7805 24.2269 38.338 25.5799C37.7484 25.5799 36.5692 24.9903 35.9796 23.8111Z" fill="#FFD366"/>
<path d="M32.4419 33.2446H21.8291C22.3532 34.4238 24.6199 36.7822 27.1355 36.7822C29.6511 36.7822 31.9178 34.4238 32.4419 33.2446Z" fill="white"/>
</svg>
