<svg width="349" height="234" viewBox="0 0 349 234" fill="none" xmlns="http://www.w3.org/2000/svg">
<path fill-rule="evenodd" clip-rule="evenodd" d="M129.508 11.4462C127.731 12.2821 124.83 13.5324 121.638 14.9077C113.164 18.5586 102.646 23.0905 105.705 23.0905C119.379 23.0904 152.828 11.784 156.857 3.55896C161.042 -4.98325 144.073 3.88961 134.387 8.95396L134.387 8.95407C132.351 10.019 130.636 10.9155 129.508 11.4462ZM324.026 81.5177C324.275 81.9757 324.526 82.4396 324.781 82.9089C339.075 109.261 362.772 152.948 338.174 169.801C305.516 192.175 244.229 196.026 178.666 196.026C140.903 196.374 105.29 194.745 76.7746 192.451C77.1515 191.985 77.4733 191.532 77.7305 191.096C78.2749 190.173 78.578 189.244 78.4105 188.376C78.2372 187.477 77.5899 186.785 76.552 186.288C75.0622 185.576 72.767 185.301 70.2349 185.616C67.6898 185.931 64.852 186.848 62.2619 188.581C61.2862 189.234 60.3486 190.001 59.4766 190.891C61.0548 183.621 62.6432 175.968 63.818 169.068C64.9813 162.236 65.7462 156.103 65.6881 151.793C65.6592 149.65 65.4272 147.89 64.8946 146.714C64.6255 146.119 64.2607 145.632 63.7647 145.338C63.2563 145.037 62.6711 144.975 62.0432 145.125C58.4374 145.986 55.6778 147.911 53.6653 150.796C53.4993 148.918 53.3161 147.064 53.1154 145.243C51.9875 135.008 50.3054 125.765 48.0195 118.992C46.8773 115.607 45.5748 112.81 44.0953 110.81C42.6183 108.815 40.9153 107.55 38.9663 107.379C36.6218 107.173 34.6387 107.76 33.0473 109.083C31.468 110.395 30.3174 112.397 29.5505 114.95C28.6548 117.932 28.2658 121.721 28.3564 126.181C25.0074 117.969 21.6469 110.52 18.3158 103.97C18.0324 103.413 17.7493 102.862 17.4663 102.318C23.1665 92.2738 30.1634 82.2646 38.3102 72.9033C59.6758 46.2838 76.3521 41.1272 102.564 33.022C119.225 27.8702 139.738 21.5272 167.757 7.72429C225.7 -20.8209 299.191 35.6568 323.684 80.8859C323.797 81.0952 323.912 81.3058 324.026 81.5177ZM3.4426 135.182C-3.25032 159.029 -0.460267 178.663 14.2446 183.94C15.1633 184.269 16.3925 184.619 17.9135 184.984C13.5989 181.843 9.89334 178.858 7.41345 176.193C5.89547 174.561 4.79671 173.007 4.3213 171.576C3.83469 170.11 3.99708 168.741 5.03806 167.61C7.38516 165.059 10.9384 164.379 15.0395 165.249C18.7437 166.035 22.9571 168.093 27.3049 171.274C19.4354 159.874 11.255 147.735 3.97925 136.046C3.79982 135.758 3.62093 135.47 3.4426 135.182ZM35.7309 188.103C29.4459 187.223 24.2735 186.352 20.3993 185.54C15.2827 181.903 10.911 178.484 8.14567 175.512C6.65994 173.915 5.67788 172.488 5.27044 171.261C4.87421 170.067 5.02694 169.099 5.77412 168.287C7.79794 166.087 10.9348 165.4 14.832 166.227C18.7318 167.055 23.3161 169.39 28.082 173.116C28.4531 173.406 28.8252 173.704 29.198 174.011C32.7087 179.077 36.1369 183.975 39.3723 188.597C38.7225 188.512 38.0829 188.426 37.4535 188.341C33.6734 184.747 29.594 181.727 24.7468 179.335L24.3042 180.231C28.6141 182.359 32.3051 184.99 35.7309 188.103ZM42.9136 189.051C42.1693 188.958 41.4367 188.865 40.716 188.772C40.5842 188.584 40.4521 188.395 40.3197 188.206L40.318 188.204C37.7587 184.548 35.0784 180.719 32.3316 176.771C35.9261 180.148 39.5239 184.263 42.9136 189.051ZM44.2502 189.216C39.7144 182.676 34.7787 177.327 29.9408 173.327C21.5348 161.195 12.6638 148.106 4.8283 135.518C4.48857 134.972 4.15082 134.427 3.81519 133.884C5.70045 127.453 8.26352 120.734 11.4576 113.92C11.4916 113.982 11.5256 114.045 11.5597 114.108C15.7386 121.817 20.3281 131.559 25.106 142.284C29.8629 152.963 34.8024 164.608 39.7053 176.182C41.2262 180.438 42.8941 184.81 44.7056 189.272C44.5533 189.253 44.4015 189.235 44.2502 189.216ZM48.5974 189.732C47.8674 189.648 47.1467 189.563 46.4354 189.479C44.6547 185.301 42.8566 181.057 41.0522 176.797L41.052 176.797L40.6892 175.941L40.6375 175.818C35.3115 160.907 31.8033 147.435 30.2539 136.5C30.0526 135.08 29.8846 133.703 29.75 132.374C35.9256 148.192 42.0347 166.529 47.8158 186.524C48.0717 187.588 48.3324 188.657 48.5974 189.732ZM50.8196 189.983C50.4831 189.946 50.1485 189.908 49.8157 189.871C49.4738 188.668 49.1308 187.472 48.7865 186.281C43.9269 166.072 40.8069 147.847 42.1382 132.097L41.1416 132.013C40.1107 144.209 41.7227 157.853 44.728 172.688C39.7811 156.652 34.6449 141.902 29.4704 128.942C29.1308 123.32 29.4732 118.684 30.5083 115.238C31.2409 112.799 32.3086 110.997 33.6867 109.852C35.0529 108.716 36.7666 108.19 38.8791 108.375C40.4233 108.51 41.8974 109.521 43.2913 111.405C44.6828 113.285 45.9452 115.972 47.0719 119.311C49.3241 125.984 50.9965 135.145 52.1213 145.353C52.3682 147.593 52.5886 149.883 52.7829 152.206C50.8882 155.585 49.8279 160.012 49.4315 165.351C48.93 172.107 49.4878 180.389 50.8196 189.983ZM53.7183 190.301C53.088 190.233 52.4637 190.165 51.8453 190.097C50.4945 180.441 49.9295 172.151 50.4288 165.426C50.7643 160.907 51.5783 157.126 52.9366 154.121C53.8581 166.102 54.0993 178.852 53.7183 190.301ZM58.4737 190.796C57.1994 190.668 55.9464 190.538 54.7154 190.407C55.1184 178.385 54.837 164.935 53.8052 152.433L53.8362 152.38L53.8769 152.312C55.7972 149.089 58.5391 146.99 62.2757 146.098C62.697 145.997 63.0078 146.051 63.255 146.198C63.5146 146.352 63.765 146.643 63.9836 147.126C64.4264 148.104 64.6595 149.689 64.6881 151.807C64.7449 156.019 63.9944 162.073 62.8321 168.9C61.6532 175.824 60.058 183.503 58.4737 190.796ZM75.5499 192.351C70.3746 191.928 65.4389 191.484 60.773 191.026C61.428 190.419 62.1141 189.883 62.8182 189.412C65.2655 187.775 67.9517 186.907 70.3583 186.608C72.7781 186.308 74.8624 186.589 76.1207 187.19C76.9808 187.602 77.3349 188.079 77.4286 188.565C77.5281 189.081 77.364 189.749 76.869 190.588C76.5442 191.139 76.0978 191.729 75.5499 192.351ZM11.9867 112.802C12.137 113.076 12.2877 113.353 12.4389 113.632C16.6365 121.375 21.2385 131.145 26.0196 141.878C29.2012 149.02 32.464 156.593 35.7416 164.285C32.5782 154.015 30.3998 144.658 29.2637 136.64C28.8899 134.002 28.6282 131.505 28.4819 129.164C24.7949 119.939 21.0906 111.632 17.4244 104.423C17.2427 104.066 17.0611 103.711 16.8797 103.359C15.119 106.512 13.4864 109.666 11.9867 112.802Z" fill="#E6F5EB"/>
<path opacity="0.6" fill-rule="evenodd" clip-rule="evenodd" d="M268.461 45.0572C266.431 43.1533 263.813 42.368 260.629 42.7832C257.732 43.161 255.319 45.3071 253.299 48.6581C251.274 52.0171 249.588 56.6764 248.174 62.2725C245.344 73.4699 243.57 88.5469 242.413 104.802C241.427 118.658 240.888 133.402 240.526 147.361C238.957 142.278 236.863 138.19 234.444 135.429C231.746 132.348 228.579 130.86 225.282 131.635C223.819 131.979 222.921 133.025 222.47 134.508C222.028 135.963 221.998 137.878 222.251 140.104C222.758 144.565 224.427 150.486 226.544 156.962C227.952 161.269 229.558 165.824 231.165 170.38C234.313 179.306 237.462 188.234 239.121 195.304L238.649 196.159L239.666 195.992C239.699 195.986 239.732 195.981 239.765 195.976C239.784 195.972 239.803 195.969 239.822 195.966L240.245 195.971L240.263 195.899C242.857 195.52 246.085 195.334 249.475 195.177C250.101 195.148 250.733 195.12 251.367 195.092L251.4 195.09L251.409 195.09L251.418 195.089L251.419 195.089C254.455 194.955 257.537 194.819 260.306 194.564C263.651 194.255 266.622 193.769 268.523 192.859C269.476 192.403 270.236 191.806 270.595 190.998C270.966 190.165 270.861 189.227 270.335 188.217C269.58 186.768 267.947 185.218 265.792 184.022C263.627 182.82 260.891 181.95 257.882 181.902C256.761 181.884 255.607 181.98 254.435 182.213C259.799 177.081 265.389 171.637 270.229 166.581C275.02 161.576 279.102 156.924 281.507 153.314C282.703 151.518 283.521 149.927 283.774 148.652C283.902 148.009 283.896 147.399 283.678 146.873C283.454 146.331 283.029 145.937 282.445 145.697C279.156 144.344 275.921 144.351 272.726 145.573C273.662 143.923 274.572 142.282 275.45 140.659C280.393 131.513 284.341 122.875 286.414 115.941C287.45 112.477 288.027 109.41 288.013 106.905C287.999 104.408 287.397 102.379 285.971 101.112C284.258 99.59 282.37 98.9329 280.366 99.1187C278.382 99.3028 276.345 100.308 274.298 101.986C271.928 103.929 269.494 106.816 267.051 110.522C269.105 101.819 270.719 93.7401 271.848 86.4185C273.996 72.4918 274.4 61.2504 272.705 53.6685C271.857 49.8763 270.472 46.942 268.461 45.0572ZM252.956 183.626C254.645 183.089 256.299 182.877 257.866 182.902C260.693 182.947 263.27 183.766 265.307 184.897C267.355 186.033 268.812 187.46 269.448 188.679C269.882 189.512 269.891 190.121 269.682 190.591C269.462 191.085 268.95 191.546 268.092 191.957C266.371 192.78 263.566 193.259 260.214 193.568C257.471 193.821 254.418 193.956 251.383 194.09C250.73 194.119 250.077 194.148 249.429 194.178C246.515 194.313 243.68 194.47 241.253 194.76C242.194 193.856 243.191 192.905 244.232 191.914C245.281 191.277 246.333 190.696 247.467 190.182C250.007 189.029 252.968 188.202 257.203 187.845L257.119 186.849C252.785 187.214 249.711 188.065 247.053 189.271L246.978 189.306L247.67 188.65L247.67 188.649L247.67 188.649L247.671 188.648L247.672 188.647L247.673 188.646L247.683 188.637L247.69 188.631C249.383 187.024 251.151 185.347 252.956 183.626ZM250.387 184.691C247.717 186.068 245.022 188.337 242.494 191.823C242.87 191.581 243.244 191.346 243.62 191.116C244.704 190.085 245.835 189.012 247.001 187.905L247.003 187.903L247.015 187.892C248.112 186.852 249.239 185.782 250.387 184.691ZM243.09 189.436C246.09 185.876 249.296 183.787 252.431 182.744C258.18 177.259 264.28 171.35 269.507 165.889C274.293 160.889 278.322 156.291 280.675 152.759C281.857 150.984 282.58 149.53 282.793 148.457C282.899 147.926 282.87 147.535 282.754 147.255C282.645 146.992 282.438 146.775 282.064 146.621C278.663 145.223 275.348 145.389 272.025 146.96C271.983 146.98 271.942 147 271.9 147.02C263.232 162.098 252.443 177.85 243.174 189.254L243.09 189.436ZM266.324 113.551C269.259 108.684 272.165 105.028 274.932 102.759C276.891 101.154 278.744 100.274 280.459 100.114C282.154 99.9571 283.775 100.499 285.307 101.86C286.425 102.853 287 104.538 287.013 106.91C287.026 109.275 286.479 112.234 285.456 115.655C283.411 122.492 279.501 131.062 274.57 140.183C273.487 142.187 272.355 144.216 271.184 146.258C267.786 147.977 264.444 151.045 261.1 155.248C255.823 161.883 250.477 171.435 244.867 183.244C246.196 179.543 247.488 175.877 248.74 172.249C256.454 152.679 264.393 135.752 274.389 123.437L273.613 122.807C265.946 132.253 259.489 144.368 253.439 158.249C258.655 142.237 263.005 127.174 266.324 113.551ZM242.329 186.242C244.139 177.784 246.12 168.893 248.115 159.941L248.115 159.941L248.319 159.022C248.329 158.978 248.339 158.933 248.349 158.889C252.687 143.449 257.621 130.246 262.636 120.274C263.262 119.03 263.888 117.838 264.514 116.699C260.325 133.343 254.661 152.027 247.806 171.891C245.973 176.54 244.156 181.332 242.329 186.242ZM247.379 158.645C246.015 163.5 244.711 168.573 243.482 173.834C243.84 165.11 243.039 157.224 241.443 150.689C241.804 135.788 242.347 119.825 243.411 104.873C244.567 88.6309 246.336 73.626 249.143 62.5173C250.548 56.9603 252.205 52.4104 254.156 49.1742C256.111 45.9299 258.306 44.0946 260.758 43.7748C263.686 43.393 265.993 44.1136 267.777 45.7867C269.582 47.4788 270.903 50.1924 271.729 53.8868C273.381 61.2784 273.004 72.3658 270.86 86.2663C269.611 94.3595 267.767 103.387 265.389 113.166C264.17 115.195 262.953 117.419 261.743 119.825C258.112 127.043 254.53 135.93 251.186 146.112C252.98 137.978 254.719 129.951 256.281 122.316C258.666 110.66 260.642 99.9064 261.781 91.0678C262.916 82.256 263.231 75.2667 262.242 71.1866L261.27 71.4223C262.209 75.2983 261.926 82.1117 260.789 90.9402C259.655 99.7419 257.685 110.467 255.301 122.116C252.928 133.715 250.147 146.22 247.379 158.645ZM244.936 185.44C253.255 174.817 262.497 161.194 270.199 147.964C267.455 149.68 264.692 152.338 261.883 155.871C256.413 162.748 250.84 172.841 244.936 185.44ZM240.663 186.914C241.091 184.75 241.533 182.61 241.987 180.498C242.991 171.045 242.634 162.374 241.341 155.074C241.233 159.876 241.142 164.542 241.055 168.999L241.055 169C240.927 175.487 240.809 181.533 240.663 186.914ZM232.079 169.963C234.802 177.686 237.544 185.46 239.32 192.023C239.061 176.277 238.821 164.487 233.093 153.151L233.986 152.7C237.921 160.487 239.312 168.486 239.88 177.675C239.938 174.921 239.994 172.052 240.052 169.089L240.052 169.08L240.053 169.067L240.053 169.057L240.053 169.045L240.053 169.036L240.053 169.036L240.053 169.033C240.167 163.256 240.287 157.124 240.44 150.799C240.324 150.33 240.204 149.868 240.08 149.413C238.491 143.581 236.253 139.011 233.692 136.088C231.133 133.167 228.317 131.949 225.511 132.609C224.478 132.852 223.802 133.566 223.427 134.798C223.044 136.058 222.997 137.812 223.245 139.991C223.739 144.341 225.377 150.176 227.494 156.651C228.883 160.901 230.478 165.423 232.079 169.963L232.079 169.963Z" fill="white"/>
<path d="M74.4207 195.307C83.39 154.615 113.505 50.4236 92.9714 42.3226C69.5105 33.0669 64.7616 104.958 74.4207 195.307Z" fill="#DCF2E2"/>
<path d="M74.4207 195.307C62.6613 176.506 36.5895 137.947 45.0221 136.815C60.5861 134.726 68.1951 157.705 74.4207 195.307Z" fill="#DCF2E2"/>
<path d="M74.4211 195.785C84.7704 176.129 114.438 142.304 105.124 137.507C93.7396 131.645 74.7662 158.197 74.4211 195.785Z" fill="#D2EAD7"/>
<path d="M91.6693 155.662C82.3551 166.007 79.2215 178.468 74.4207 195.319" stroke="white"/>
<path d="M74.9738 192.009C59.735 161.196 40.7425 98.7888 53.1805 92.5723C69.0495 84.6409 79.3984 131.195 74.9738 192.009Z" fill="#D2EAD7"/>
<path d="M59.1617 116.519C68.4759 136.49 71.6607 163.926 74.7654 194.962" stroke="white"/>
<path d="M74.6856 195.488C64.3365 191.005 40.6798 187.197 46.3979 181.004C50.5376 176.521 68.8211 173.073 74.6856 195.488Z" fill="#D2EAD7"/>
<path d="M59.328 183.142C67.6535 186.001 70.4545 189.445 74.7457 194.102" stroke="white"/>
<path d="M84.689 69.2756C76.7547 83.759 76.8355 148.765 74.4207 194.974" stroke="white"/>
<path fill-rule="evenodd" clip-rule="evenodd" d="M320.223 233.898H265.525V232.885H320.223V233.898Z" fill="#2C2727"/>
<path d="M282.842 173.322C282.842 176.167 282.704 183.078 282.204 184.159L300.698 181.291C300.032 179.627 298.666 175.676 298.466 174.278C298.216 172.532 298.466 168.541 299.104 165.991C293.045 164.716 289.219 164.398 281.567 163.442C282.732 165.188 282.842 170.772 282.842 173.322Z" fill="white"/>
<path d="M266.902 133.481L280.01 158.471L282.526 155.154C276.787 146.23 268.6 132.393 268.178 131.887C267.756 131.381 262.438 129.975 262.438 129.975C262.438 130.293 263.244 132.53 263.714 132.843C264.67 133.481 266.265 133.481 266.902 133.481Z" fill="#FED450"/>
<path d="M307.716 129.974L299.63 158.301L296.302 155.798C299.382 145.645 306.423 129.074 306.691 128.471C306.958 127.869 311.246 126.15 311.246 126.15C311.333 126.456 310.952 128.27 310.585 128.699C309.84 129.574 308.329 129.8 307.716 129.974Z" fill="#FED450"/>
<path fill-rule="evenodd" clip-rule="evenodd" d="M301.637 209.658C297.492 198.502 293.666 192.128 293.028 192.128C292.575 192.128 289.35 203.759 287.906 208.963C287.803 209.336 287.709 209.676 287.625 209.977L281.567 210.295C280.929 204.558 280.759 187.653 282.506 184.159C283.922 182.34 286.174 179.818 288.077 177.687C289.175 176.457 290.157 175.358 290.796 174.597C290.796 174.597 281.868 166.31 281.868 164.398C282.187 164.398 284.419 165.354 284.419 165.354L291.753 173.641L297.173 168.223L300.681 167.585C300.389 167.826 300 168.143 299.551 168.509C297.059 170.542 292.709 174.09 292.709 174.597C292.709 174.989 294.368 176.192 296.271 177.571C298 178.823 299.93 180.222 300.999 181.291C302.5 182.791 304.826 185.115 307.376 208.383L301.637 209.658ZM286.651 181.609L291.434 175.235C292.402 176.29 293.508 177.106 294.589 177.904C295.5 178.577 296.394 179.236 297.173 180.016C293.397 179.78 290.27 180.479 286.651 181.609Z" fill="#84BFB6"/>
<path d="M307.127 229.612C307.237 229.079 303.44 214.487 301.336 208.838C301.596 208.245 302.475 207.474 303.643 207.168C304.812 206.862 306.778 207.518 307.394 207.882C307.714 209.9 308.108 217.368 308.132 218.961C308.156 220.555 309.095 228.781 309.327 229.666C309.559 230.551 310.021 230.755 310.34 231.073C310.643 231.377 311.615 231.711 311.296 232.348C311.104 232.732 309.994 233.228 309.702 233.304C309.41 233.381 307.313 233.467 307.151 233.305C306.832 232.986 306.714 232.244 306.714 231.611C306.714 231.001 306.989 230.278 307.127 229.612Z" fill="#4D4D4D"/>
<path d="M283.685 229.501C283.585 228.684 286.987 214.257 287.625 209.795C286.987 209.476 286.031 208.52 284.755 208.52C283.507 208.52 281.876 209.012 281.567 209.476C281.498 213.799 281.148 228.283 281.248 229.1C281.373 230.122 277.809 231.413 278.128 233.007C278.226 233.496 281.685 233.29 282.789 233.176C283.235 233.129 283.463 233.063 283.685 232.507C283.868 232.051 283.81 230.522 283.685 229.501Z" fill="#4D4D4D"/>
<path d="M298.147 145.273C298.785 147.505 298.229 154.125 298.466 154.835C299.423 157.704 304.843 158.66 304.843 163.123C304.843 163.523 305.162 168.541 294.002 169.178C286.618 169.6 280.202 166.503 279.016 160.573C278.378 157.385 281.567 154.032 281.567 152.286C281.567 150.539 279.986 146.14 279.986 143.636C279.986 141.133 282.09 139.049 282.981 138.147C285.074 136.03 290.407 136.062 292.089 137.624C294.64 139.992 296.729 140.311 298.147 145.273Z" fill="#282B36"/>
<path d="M269.234 78.4403H295.18C297.065 74.5254 303.496 67.7024 299.172 64.6823C297.036 63.1905 291.854 63.6756 289.525 65.3534C287.663 66.6957 287.64 69.6039 287.862 70.7224C286.753 70.1631 285.262 68.7013 282.54 69.0446C279.879 69.3802 277.661 72.4002 276.22 74.078C276.109 73.6306 275.554 72.7358 274.224 72.7358C272.228 72.7358 270.343 76.5388 269.234 78.4403Z" fill="white"/>
<path d="M42.0725 83.0076H68.9036C72.3881 83.3555 78.6603 80.5728 73.782 75.7031C71.8575 73.782 70.8558 72.5725 67.8582 72.5725C65.7675 72.5725 62.2829 73.9639 61.586 75.3552C60.4245 74.7755 58.5135 72.9124 55.6623 73.2682C52.8746 73.6161 50.9001 76.7466 49.3901 78.4858C49.2739 78.022 48.6932 77.4423 47.2993 77.4423C45.2086 77.4423 43.234 81.0366 42.0725 83.0076Z" fill="white"/>
<rect x="94.9399" y="45.5" width="159" height="129" rx="3.5" fill="#FFFBFB" stroke="#83CF9E"/>
<path d="M242.11 194.573C254.103 185.139 271.049 180.88 266.46 176.235C262.526 172.254 247.328 179.639 242.11 194.573Z" fill="#DCF2E2"/>
<path d="M242.107 194.789C231.325 185.919 206.048 176.392 217.478 171.558C228.674 166.824 241.756 177.838 242.107 194.789Z" fill="#D2EAD7"/>
<path d="M224.141 176.685C233.847 181.355 237.11 186.976 242.11 194.578" stroke="white"/>
<path d="M241.534 193.087C257.425 179.199 277.236 151.065 264.273 148.255C247.734 144.669 236.936 165.658 241.534 193.087Z" fill="#D2EAD7"/>
<path d="M258.032 159.05C248.319 168.052 244.993 180.423 241.75 194.417" stroke="white"/>
<path d="M241.708 194.623C252.275 195.494 274.138 202.326 271.383 195.327C269.39 190.259 254.766 180.173 241.708 194.623Z" fill="#D2EAD7"/>
<path d="M259.415 191.636C251.18 190.373 247.527 191.814 242.15 193.557" stroke="white"/>
<path d="M132.008 101H129.469L127.047 92.4844C126.943 92.1133 126.812 91.5794 126.656 90.8828C126.5 90.1797 126.406 89.6914 126.373 89.418C126.308 89.8346 126.201 90.375 126.051 91.0391C125.908 91.7031 125.787 92.1979 125.689 92.5234L123.326 101H120.787L118.941 93.8516L117.066 86.7227H119.449L121.49 95.043C121.809 96.3776 122.037 97.556 122.174 98.5781C122.245 98.0247 122.353 97.4062 122.496 96.7227C122.639 96.0391 122.77 95.4857 122.887 95.0625L125.211 86.7227H127.525L129.908 95.1016C130.136 95.8763 130.377 97.0352 130.631 98.5781C130.729 97.6471 130.963 96.4622 131.334 95.0234L133.365 86.7227H135.729L132.008 101ZM142.232 101.195C140.553 101.195 139.238 100.707 138.287 99.7305C137.343 98.7474 136.871 97.3965 136.871 95.6777C136.871 93.9134 137.311 92.5267 138.189 91.5176C139.068 90.5085 140.276 90.0039 141.812 90.0039C143.238 90.0039 144.365 90.4368 145.191 91.3027C146.018 92.1686 146.432 93.36 146.432 94.877V96.1172H139.234C139.267 97.1654 139.55 97.9727 140.084 98.5391C140.618 99.099 141.37 99.3789 142.34 99.3789C142.978 99.3789 143.57 99.3203 144.117 99.2031C144.671 99.0794 145.263 98.8776 145.895 98.5977V100.463C145.335 100.73 144.768 100.919 144.195 101.029C143.622 101.14 142.968 101.195 142.232 101.195ZM141.812 91.7422C141.083 91.7422 140.497 91.9733 140.055 92.4355C139.618 92.8978 139.358 93.5716 139.273 94.457H144.176C144.163 93.5651 143.948 92.8913 143.531 92.4355C143.115 91.9733 142.542 91.7422 141.812 91.7422ZM151.334 101H149.039V85.8047H151.334V101ZM158.98 101.195C157.346 101.195 156.103 100.72 155.25 99.7695C154.404 98.8125 153.98 97.4421 153.98 95.6582C153.98 93.8418 154.423 92.4453 155.309 91.4688C156.201 90.4922 157.486 90.0039 159.166 90.0039C160.305 90.0039 161.331 90.2155 162.242 90.6387L161.549 92.4844C160.579 92.1068 159.778 91.918 159.146 91.918C157.278 91.918 156.344 93.1582 156.344 95.6387C156.344 96.8496 156.575 97.7611 157.037 98.373C157.506 98.9785 158.189 99.2812 159.088 99.2812C160.11 99.2812 161.077 99.0273 161.988 98.5195V100.521C161.578 100.762 161.139 100.935 160.67 101.039C160.208 101.143 159.645 101.195 158.98 101.195ZM174.107 95.5801C174.107 97.3444 173.655 98.7214 172.75 99.7109C171.845 100.701 170.585 101.195 168.971 101.195C167.962 101.195 167.07 100.967 166.295 100.512C165.52 100.056 164.924 99.4017 164.508 98.5488C164.091 97.696 163.883 96.7064 163.883 95.5801C163.883 93.8288 164.332 92.4616 165.23 91.4785C166.129 90.4954 167.395 90.0039 169.029 90.0039C170.592 90.0039 171.829 90.5085 172.74 91.5176C173.652 92.5202 174.107 93.8743 174.107 95.5801ZM166.246 95.5801C166.246 98.0736 167.167 99.3203 169.01 99.3203C170.833 99.3203 171.744 98.0736 171.744 95.5801C171.744 93.1126 170.826 91.8789 168.99 91.8789C168.027 91.8789 167.327 92.1979 166.891 92.8359C166.461 93.474 166.246 94.3887 166.246 95.5801ZM185.855 101H183.551V94.3398C183.551 93.513 183.395 92.8978 183.082 92.4941C182.77 92.084 182.281 91.8789 181.617 91.8789C180.732 91.8789 180.081 92.1686 179.664 92.748C179.254 93.321 179.049 94.278 179.049 95.6191V101H176.754V90.1992H178.551L178.873 91.6152H178.99C179.29 91.1009 179.723 90.7038 180.289 90.4238C180.862 90.1439 181.49 90.0039 182.174 90.0039C183.834 90.0039 184.934 90.5703 185.475 91.7031H185.631C185.95 91.1693 186.399 90.7526 186.979 90.4531C187.558 90.1536 188.222 90.0039 188.971 90.0039C190.26 90.0039 191.197 90.3294 191.783 90.9805C192.376 91.6315 192.672 92.6243 192.672 93.959V101H190.377V94.3398C190.377 93.513 190.217 92.8978 189.898 92.4941C189.586 92.084 189.098 91.8789 188.434 91.8789C187.542 91.8789 186.887 92.1589 186.471 92.7188C186.061 93.2721 185.855 94.125 185.855 95.2773V101ZM200.592 101.195C198.912 101.195 197.597 100.707 196.646 99.7305C195.702 98.7474 195.23 97.3965 195.23 95.6777C195.23 93.9134 195.67 92.5267 196.549 91.5176C197.428 90.5085 198.635 90.0039 200.172 90.0039C201.598 90.0039 202.724 90.4368 203.551 91.3027C204.378 92.1686 204.791 93.36 204.791 94.877V96.1172H197.594C197.626 97.1654 197.91 97.9727 198.443 98.5391C198.977 99.099 199.729 99.3789 200.699 99.3789C201.337 99.3789 201.93 99.3203 202.477 99.2031C203.03 99.0794 203.622 98.8776 204.254 98.5977V100.463C203.694 100.73 203.128 100.919 202.555 101.029C201.982 101.14 201.327 101.195 200.592 101.195ZM200.172 91.7422C199.443 91.7422 198.857 91.9733 198.414 92.4355C197.978 92.8978 197.717 93.5716 197.633 94.457H202.535C202.522 93.5651 202.307 92.8913 201.891 92.4355C201.474 91.9733 200.901 91.7422 200.172 91.7422ZM216.617 99.3398C217.177 99.3398 217.737 99.252 218.297 99.0762V100.805C218.043 100.915 217.714 101.007 217.311 101.078C216.913 101.156 216.5 101.195 216.07 101.195C213.896 101.195 212.809 100.049 212.809 97.7578V91.9375H211.334V90.9219L212.916 90.082L213.697 87.7969H215.113V90.1992H218.189V91.9375H215.113V97.7188C215.113 98.2721 215.25 98.6823 215.523 98.9492C215.803 99.2096 216.168 99.3398 216.617 99.3398ZM230.045 95.5801C230.045 97.3444 229.592 98.7214 228.688 99.7109C227.783 100.701 226.523 101.195 224.908 101.195C223.899 101.195 223.007 100.967 222.232 100.512C221.458 100.056 220.862 99.4017 220.445 98.5488C220.029 97.696 219.82 96.7064 219.82 95.5801C219.82 93.8288 220.27 92.4616 221.168 91.4785C222.066 90.4954 223.333 90.0039 224.967 90.0039C226.529 90.0039 227.766 90.5085 228.678 91.5176C229.589 92.5202 230.045 93.8743 230.045 95.5801ZM222.184 95.5801C222.184 98.0736 223.105 99.3203 224.947 99.3203C226.77 99.3203 227.682 98.0736 227.682 95.5801C227.682 93.1126 226.764 91.8789 224.928 91.8789C223.964 91.8789 223.264 92.1979 222.828 92.8359C222.398 93.474 222.184 94.3887 222.184 95.5801ZM130.211 133V118.723H132.545V130.998H138.59V133H130.211ZM143.102 133H140.807V122.199H143.102V133ZM140.67 119.338C140.67 118.928 140.781 118.612 141.002 118.391C141.23 118.169 141.552 118.059 141.969 118.059C142.372 118.059 142.685 118.169 142.906 118.391C143.134 118.612 143.248 118.928 143.248 119.338C143.248 119.729 143.134 120.038 142.906 120.266C142.685 120.487 142.372 120.598 141.969 120.598C141.552 120.598 141.23 120.487 141.002 120.266C140.781 120.038 140.67 119.729 140.67 119.338ZM150.416 131.34C150.976 131.34 151.536 131.252 152.096 131.076V132.805C151.842 132.915 151.513 133.007 151.109 133.078C150.712 133.156 150.299 133.195 149.869 133.195C147.695 133.195 146.607 132.049 146.607 129.758V123.938H145.133V122.922L146.715 122.082L147.496 119.797H148.912V122.199H151.988V123.938H148.912V129.719C148.912 130.272 149.049 130.682 149.322 130.949C149.602 131.21 149.967 131.34 150.416 131.34ZM158.98 133.195C157.301 133.195 155.986 132.707 155.035 131.73C154.091 130.747 153.619 129.396 153.619 127.678C153.619 125.913 154.059 124.527 154.938 123.518C155.816 122.508 157.024 122.004 158.561 122.004C159.986 122.004 161.113 122.437 161.939 123.303C162.766 124.169 163.18 125.36 163.18 126.877V128.117H155.982C156.015 129.165 156.298 129.973 156.832 130.539C157.366 131.099 158.118 131.379 159.088 131.379C159.726 131.379 160.318 131.32 160.865 131.203C161.419 131.079 162.011 130.878 162.643 130.598V132.463C162.083 132.73 161.516 132.919 160.943 133.029C160.37 133.14 159.716 133.195 158.98 133.195ZM158.561 123.742C157.831 123.742 157.245 123.973 156.803 124.436C156.367 124.898 156.106 125.572 156.021 126.457H160.924C160.911 125.565 160.696 124.891 160.279 124.436C159.863 123.973 159.29 123.742 158.561 123.742ZM168.346 133H166.031V118.723H174.088V120.695H168.346V125.158H173.727V127.141H168.346V133ZM183.189 133L182.73 131.496H182.652C182.132 132.154 181.607 132.603 181.08 132.844C180.553 133.078 179.876 133.195 179.049 133.195C177.988 133.195 177.158 132.909 176.559 132.336C175.966 131.763 175.67 130.952 175.67 129.904C175.67 128.791 176.083 127.951 176.91 127.385C177.737 126.818 178.997 126.509 180.689 126.457L182.555 126.398V125.822C182.555 125.132 182.392 124.618 182.066 124.279C181.747 123.934 181.249 123.762 180.572 123.762C180.019 123.762 179.488 123.843 178.98 124.006C178.473 124.169 177.984 124.361 177.516 124.582L176.773 122.941C177.359 122.635 178.001 122.404 178.697 122.248C179.394 122.085 180.051 122.004 180.67 122.004C182.044 122.004 183.079 122.303 183.775 122.902C184.479 123.501 184.83 124.442 184.83 125.725V133H183.189ZM179.771 131.438C180.605 131.438 181.272 131.206 181.773 130.744C182.281 130.275 182.535 129.621 182.535 128.781V127.844L181.148 127.902C180.068 127.941 179.28 128.124 178.785 128.449C178.297 128.768 178.053 129.26 178.053 129.924C178.053 130.406 178.196 130.78 178.482 131.047C178.769 131.307 179.199 131.438 179.771 131.438ZM193.512 122.004C193.974 122.004 194.355 122.036 194.654 122.102L194.43 124.24C194.104 124.162 193.766 124.123 193.414 124.123C192.496 124.123 191.751 124.423 191.178 125.021C190.611 125.62 190.328 126.398 190.328 127.355V133H188.033V122.199H189.83L190.133 124.104H190.25C190.608 123.459 191.074 122.948 191.646 122.57C192.226 122.193 192.848 122.004 193.512 122.004ZM205.768 133H203.463V126.34C203.463 125.513 203.307 124.898 202.994 124.494C202.682 124.084 202.193 123.879 201.529 123.879C200.644 123.879 199.993 124.169 199.576 124.748C199.166 125.321 198.961 126.278 198.961 127.619V133H196.666V122.199H198.463L198.785 123.615H198.902C199.202 123.101 199.635 122.704 200.201 122.424C200.774 122.144 201.402 122.004 202.086 122.004C203.746 122.004 204.846 122.57 205.387 123.703H205.543C205.862 123.169 206.311 122.753 206.891 122.453C207.47 122.154 208.134 122.004 208.883 122.004C210.172 122.004 211.109 122.329 211.695 122.98C212.288 123.632 212.584 124.624 212.584 125.959V133H210.289V126.34C210.289 125.513 210.13 124.898 209.811 124.494C209.498 124.084 209.01 123.879 208.346 123.879C207.454 123.879 206.799 124.159 206.383 124.719C205.973 125.272 205.768 126.125 205.768 127.277V133ZM217.77 128.664H216.07L215.562 118.723H218.268L217.77 128.664ZM215.445 131.779C215.445 131.298 215.572 130.933 215.826 130.686C216.08 130.432 216.441 130.305 216.91 130.305C217.372 130.305 217.727 130.435 217.975 130.695C218.222 130.956 218.346 131.317 218.346 131.779C218.346 132.242 218.219 132.609 217.965 132.883C217.717 133.15 217.366 133.283 216.91 133.283C216.448 133.283 216.087 133.153 215.826 132.893C215.572 132.632 215.445 132.261 215.445 131.779Z" fill="#282B36"/>
</svg>
