<?xml version="1.0" standalone="no"?>
<!DOCTYPE svg PUBLIC "-//W3C//DTD SVG 20010904//EN"
 "http://www.w3.org/TR/2001/REC-SVG-20010904/DTD/svg10.dtd">
<svg version="1.0" xmlns="http://www.w3.org/2000/svg"
 width="700.000000pt" height="700.000000pt" viewBox="0 0 700.000000 700.000000"
 preserveAspectRatio="xMidYMid meet">
<metadata>
Created by potrace 1.14, written by Peter Selinger 2001-2017
</metadata>
<g transform="translate(0.000000,700.000000) scale(0.100000,-0.100000)"
fill="#000000" stroke="none">
<path d="M0 6595 l0 -405 915 0 915 0 0 405 0 405 -915 0 -915 0 0 -405z"/>
<path d="M2030 4515 l0 -2485 2485 0 2485 0 0 2485 0 2485 -2485 0 -2485 0 0
-2485z"/>
<path d="M0 5580 l0 -410 405 0 405 0 0 410 0 410 -405 0 -405 0 0 -410z"/>
<path d="M1010 5580 l0 -410 410 0 410 0 0 410 0 410 -410 0 -410 0 0 -410z"/>
<path d="M0 4310 l0 -660 915 0 915 0 0 660 0 660 -915 0 -915 0 0 -660z"/>
<path d="M0 1725 l0 -1725 915 0 915 0 0 1725 0 1725 -915 0 -915 0 0 -1725z"/>
<path d="M2030 1420 l0 -410 455 0 455 0 0 410 0 410 -455 0 -455 0 0 -410z"/>
<path d="M3140 1420 l0 -410 1930 0 1930 0 0 410 0 410 -1930 0 -1930 0 0
-410z"/>
<path d="M6087 813 c-4 -3 -7 -188 -7 -410 l0 -403 460 0 460 0 0 410 0 410
-453 0 c-250 0 -457 -3 -460 -7z"/>
<path d="M2030 405 l0 -405 455 0 455 0 0 405 0 405 -455 0 -455 0 0 -405z"/>
<path d="M3140 405 l0 -405 1375 0 1375 0 0 405 0 405 -1375 0 -1375 0 0 -405z"/>
</g>
</svg>
