<?xml version="1.0" encoding="UTF-8"?>
<svg width="44px" height="44px" viewBox="0 0 44 44" version="1.1" xmlns="http://www.w3.org/2000/svg" xmlns:xlink="http://www.w3.org/1999/xlink">
    <!-- Generator: Sketch 52.6 (67491) - http://www.bohemiancoding.com/sketch -->
    <title>Group 30</title>
    <desc>Created with Sketch.</desc>
    <defs>
        <polygon id="path-1" points="0 44 44 44 44 0 0 0"></polygon>
    </defs>
    <g id="Page-1" stroke="none" stroke-width="1" fill="none" fill-rule="evenodd">
        <g id="Insights" transform="translate(-24.000000, -636.000000)">
            <g id="Menu" transform="translate(0.000000, 130.000000)">
                <g id="People-fed" transform="translate(0.000000, 486.000000)">
                    <g id="Group-5" transform="translate(24.000000, 16.000000)">
                        <g id="Group-30" transform="translate(0.000000, 4.000000)">
                            <polygon id="Fill-1" fill="#BCE8CA" points="9.05882353 43.3529412 43.3529412 43.3529412 43.3529412 22 9.05882353 22"></polygon>
                            <g id="Group-29">
                                <path d="M16.925657,9.65789687 L16.925657,21.6156703 L35.8093914,21.7328031 C35.9775711,21.4679437 36.1175633,21.1832328 36.2242977,20.8827953 C36.4854617,20.9328109 36.7547039,20.9600531 37.0299617,20.9600531 C39.3798367,20.9600531 41.2848992,19.0549906 41.2848992,16.7051156 C41.2848992,14.7151469 39.9186648,13.0450375 38.0733289,12.5797719 C38.6010711,11.8711312 38.9131961,10.9925922 38.9131961,10.0412641 C38.9131961,7.69138906 37.0084773,5.78667031 34.6586883,5.78667031 C33.7009148,5.78667031 32.8173914,6.10292031 32.1063445,6.63702187 C31.2073523,5.83969375 30.0254539,5.35500625 28.7296023,5.35500625 C28.4238367,5.35500625 28.125032,5.3835375 27.8340477,5.43484219 C27.5708211,4.27434219 26.9585164,3.233725 26.1146102,2.43880312 C25.387493,3.13300625 24.8211648,3.9941 24.4791336,4.96124062 C24.0618211,4.87693594 23.630157,4.83233437 23.1876648,4.83233437 C20.1819148,4.83233437 17.6547508,6.88074062 16.925657,9.65789687" id="Fill-2" fill="#BCE8CA"></path>
                                <polygon id="Fill-4" fill="#FFFFFF" points="30.3933437 9.76297266 29.5138594 14.4861836 30.25 22.000043 32.5800234 10.2127695"></polygon>
                                <polygon id="Fill-6" fill="#FFFFFF" points="34.3860773 13.9369828 29.6779914 21.7328031 32.5800148 21.7851391 36.8916711 15.6043422"></polygon>
                                <mask id="mask-2" fill="white">
                                    <use xlink:href="#path-1"></use>
                                </mask>
                                <g id="Clip-9"></g>
                                <polygon id="Fill-8" fill="#FFFFFF" mask="url(#mask-2)" points="27.2622969 22 29.4862734 22 29.4862734 11.9718672 27.2622969 11.9718672"></polygon>
                                <polygon id="Fill-10" fill="#FFFFFF" mask="url(#mask-2)" points="5.94309375 8.12814063 8.00559375 8.12814063 8.00559375 0.859375 5.94309375 0.859375"></polygon>
                                <path d="M13.578125,14.2411156 C13.578125,11.7012328 11.8493203,9.536725 9.42459375,8.7041625 C6.99952344,9.536725 5.2710625,11.7012328 5.2710625,14.2411156 C5.2710625,15.3965453 5.98907031,18.48935 6.945125,21.9999828 L11.9037187,21.9999828 C12.3719922,20.2802016 12.7832031,18.661225 13.0809766,17.3207719 C13.391125,15.9242875 13.578125,14.8305609 13.578125,14.2411156" id="Fill-11" fill="#BCE8CA" mask="url(#mask-2)"></path>
                                <path d="M18.2294922,16.8377086 C17.6369531,16.6195133 16.9964609,16.4999742 16.328125,16.4999742 C13.2904062,16.4999742 10.828125,18.9623414 10.828125,21.9999742 L14.6305156,21.9999742 C14.6305156,19.6306773 16.12875,17.6118336 18.2294922,16.8377086" id="Fill-12" fill="#FFFFFF" mask="url(#mask-2)"></path>
                                <path d="M18.2294922,16.8377086 C16.12875,17.6118336 14.6305156,19.6306773 14.6305156,21.9999742 L21.828125,21.9999742 C21.828125,19.6306773 20.3298906,17.6118336 18.2294922,16.8377086" id="Fill-13" fill="#BCE8CA" mask="url(#mask-2)"></path>
                                <path d="M22.0265203,14.5019531 C23.0674812,14.5019531 24.0406375,14.7913047 24.8705359,15.2938672 C23.9070906,13.7019609 22.1591219,12.6378828 20.16245,12.6378828 C17.6806609,12.6378828 15.5825828,14.2816953 14.8980906,16.5399609 C14.8980906,16.5399609 16.1146219,16.4865938 17.5241687,16.8420313 C18.5191531,15.4268125 20.1647703,14.5019531 22.0265203,14.5019531" id="Fill-14" fill="#FFFFFF" mask="url(#mask-2)"></path>
                                <path d="M24.8705102,15.29385 C24.0406977,14.7912875 23.0675414,14.5019359 22.0264945,14.5019359 C20.1650883,14.5019359 18.5192133,15.4267953 17.5242289,16.8421 C18.8827289,17.1848187 20.4202367,17.9075531 21.2232367,19.4232328 C21.4141898,19.7840844 21.5642367,20.1892797 21.6599711,20.6451781 C21.7787367,20.4034359 21.9030023,20.1838656 22.0312211,19.9844906 C23.5673539,17.5970609 25.6624242,18.1378656 25.6624242,18.1378656 C25.6624242,17.0968187 25.3730727,16.1236625 24.8705102,15.29385" id="Fill-15" fill="#BCE8CA" mask="url(#mask-2)"></path>
                                <path d="M25.8081055,18.3701461 C25.4824883,18.2304977 25.1249883,18.152982 24.749957,18.152982 C23.2313555,18.152982 21.999957,19.4181539 21.999957,20.9787789 C21.999957,21.3434117 22.0678477,21.6912008 22.1899648,22.0110602 L24.3061758,22.0110602 C24.1840586,21.6912008 24.1162539,21.3434117 24.1162539,20.9787789 C24.1162539,19.8035836 24.8147539,18.7961383 25.8081055,18.3701461" id="Fill-16" fill="#FFFFFF" mask="url(#mask-2)"></path>
                                <path d="M25.8081055,18.3701461 C24.8147539,18.7961383 24.1162539,19.8035836 24.1162539,20.9787789 C24.1162539,21.3434117 24.1840586,21.6912008 24.3061758,22.0110602 L27.3100352,22.0110602 C27.4321523,21.6912008 27.499957,21.3434117 27.499957,20.9787789 C27.499957,19.8035836 26.801457,18.7961383 25.8081055,18.3701461" id="Fill-17" fill="#BCE8CA" mask="url(#mask-2)"></path>
                                <path d="M6.02670234,38.9380836 L6.01862422,38.932068 C5.64196016,38.643318 5.10253047,38.714818 4.81386641,39.091482 C4.52511641,39.4684898 4.59661641,40.0079195 4.97328047,40.2963258 L4.98135859,40.3023414 C5.13707734,40.4218805 5.32072578,40.4795445 5.50334297,40.4795445 C5.76149922,40.4795445 6.01699141,40.3637867 6.18611641,40.1429273 C6.47486641,39.7659195 6.40336641,39.2264039 6.02670234,38.9380836" id="Fill-18" fill="#82CF9C" mask="url(#mask-2)"></path>
                                <path d="M6.02670234,31.8912086 L6.01862422,31.885193 C5.64196016,31.596443 5.10253047,31.667943 4.81386641,32.044607 C4.52511641,32.4216148 4.59661641,32.9610445 4.97328047,33.2494508 L4.98135859,33.2554664 C5.13707734,33.3750055 5.32072578,33.4326695 5.50334297,33.4326695 C5.76149922,33.4326695 6.01699141,33.3169117 6.18611641,33.0960523 C6.47486641,32.7190445 6.40336641,32.1795289 6.02670234,31.8912086" id="Fill-19" fill="#82CF9C" mask="url(#mask-2)"></path>
                                <path d="M6.02670234,24.8443336 L6.01862422,24.838318 C5.64196016,24.549568 5.10253047,24.621068 4.81386641,24.997732 C4.52511641,25.3747398 4.59661641,25.9141695 4.97328047,26.2025758 L4.98135859,26.2085914 C5.13707734,26.3281305 5.32072578,26.3857945 5.50334297,26.3857945 C5.76149922,26.3857945 6.01699141,26.2700367 6.18611641,26.0491773 C6.47486641,25.6721695 6.40336641,25.1326539 6.02670234,24.8443336" id="Fill-20" fill="#82CF9C" mask="url(#mask-2)"></path>
                                <path d="M39.0189852,38.9353938 L39.010907,38.9293781 C38.6329539,38.6426906 38.093782,38.7168547 37.8070945,39.0951516 C37.520493,39.4731906 37.594657,40.0122766 37.9729539,40.2989641 L37.981032,40.3050656 C38.1361492,40.4228859 38.3184227,40.4796047 38.4993211,40.4796047 C38.7591961,40.4796047 39.0159773,40.3623859 39.1848445,40.1392062 C39.471532,39.7611672 39.397282,39.2220813 39.0189852,38.9353938" id="Fill-21" fill="#82CF9C" mask="url(#mask-2)"></path>
                                <path d="M37.9729625,33.2521062 L37.9810406,33.2581219 C38.1360719,33.3759422 38.3184312,33.4327469 38.4993297,33.4327469 C38.7591188,33.4327469 39.0159859,33.3155281 39.1848531,33.0923484 C39.4714547,32.7143094 39.3972906,32.1752234 39.0189938,31.8885359 L39.0109156,31.8824344 C38.6329625,31.5958328 38.0937906,31.6699969 37.8071031,32.0482937 C37.5204156,32.4263328 37.5946656,32.9654187 37.9729625,33.2521062" id="Fill-22" fill="#82CF9C" mask="url(#mask-2)"></path>
                                <path d="M37.9729625,26.2052312 L37.9810406,26.2112469 C38.1360719,26.3290672 38.3184312,26.3858719 38.4993297,26.3858719 C38.7591188,26.3858719 39.0159859,26.2686531 39.1848531,26.0454734 C39.4714547,25.6674344 39.3972906,25.1283484 39.0189938,24.8416609 L39.0109156,24.8355594 C38.6329625,24.5489578 38.0937906,24.6231219 37.8071031,25.0014187 C37.5204156,25.3798016 37.5946656,25.9185437 37.9729625,26.2052312" id="Fill-23" fill="#82CF9C" mask="url(#mask-2)"></path>
                                <path d="M31.7404742,29.90625 L31.7515602,29.90625 C32.2258492,29.90625 32.6109352,29.5215078 32.6109352,29.046875 C32.6109352,28.5722422 32.2258492,28.1875 31.7515602,28.1875 L31.7404742,28.1875 C31.2658414,28.1875 30.8810992,28.5722422 30.8810992,29.046875 C30.8810992,29.5215078 31.2658414,29.90625 31.7404742,29.90625" id="Fill-24" fill="#82CF9C" mask="url(#mask-2)"></path>
                                <path d="M12.2595172,35.234375 L12.2484312,35.234375 C11.7741422,35.234375 11.3890562,35.6191172 11.3890562,36.09375 C11.3890562,36.5683828 11.7741422,36.953125 12.2484312,36.953125 L12.2595172,36.953125 C12.73415,36.953125 13.1188922,36.5683828 13.1188922,36.09375 C13.1188922,35.6191172 12.73415,35.234375 12.2595172,35.234375" id="Fill-25" fill="#82CF9C" mask="url(#mask-2)"></path>
                                <path d="M6.33520937,15.6631148 C6.10927969,15.6631148 5.88773281,15.7547242 5.72763125,15.9149117 C5.5677875,16.0746695 5.47583437,16.2962164 5.47583437,16.5231773 C5.47583437,16.749107 5.5677875,16.9699664 5.72763125,17.1297242 C5.88773281,17.2905133 6.10859219,17.3818648 6.33520937,17.3818648 C6.56148281,17.3818648 6.78302969,17.2905133 6.9427875,17.1297242 C7.10263125,16.9699664 7.19458438,16.749107 7.19458438,16.5231773 C7.19458438,16.2962164 7.10263125,16.075357 6.9427875,15.9149117 C6.78302969,15.7547242 6.56148281,15.6631148 6.33520937,15.6631148" id="Fill-26" fill="#82CF9C" mask="url(#mask-2)"></path>
                                <path d="M42.28125,28.1875 L34.71875,28.1875 C34.2441172,28.1875 33.859375,28.5722422 33.859375,29.046875 C33.859375,29.5215078 34.2441172,29.90625 34.71875,29.90625 L42.28125,29.90625 L42.28125,35.234375 L15.1769922,35.234375 C14.7027031,35.234375 14.3176172,35.6191172 14.3176172,36.09375 C14.3176172,36.5683828 14.7027031,36.953125 15.1769922,36.953125 L42.28125,36.953125 L42.28125,42.28125 L1.71875,42.28125 L1.71875,36.953125 L9.28125,36.953125 C9.75588281,36.953125 10.140625,36.5683828 10.140625,36.09375 C10.140625,35.6191172 9.75588281,35.234375 9.28125,35.234375 L1.71875,35.234375 L1.71875,29.90625 L28.8230078,29.90625 C29.2972969,29.90625 29.6823828,29.5215078 29.6823828,29.046875 C29.6823828,28.5722422 29.2972969,28.1875 28.8230078,28.1875 L1.71875,28.1875 L1.71875,22.859375 L42.28125,22.859375 L42.28125,28.1875 Z M1.77014063,13.5617109 C1.82385156,13.5724531 1.87885156,13.578125 1.93557031,13.578125 L6.18414844,13.578125 C6.65878125,13.578125 7.04352344,13.1933828 7.04352344,12.71875 C7.04352344,12.2441172 6.65878125,11.859375 6.18414844,11.859375 L2.37230469,11.859375 C3.30120312,10.2769219 5.12505469,9.19832031 7.21875,9.19832031 C10.2513984,9.19832031 12.71875,11.4605391 12.71875,14.2411328 C12.71875,14.4653437 12.6828281,14.8789609 12.5461875,15.640625 L9.13283594,15.640625 C8.65854688,15.640625 8.27346094,16.0253672 8.27346094,16.5 C8.27346094,16.9746328 8.65854688,17.359375 9.13283594,17.359375 L11.9865625,17.359375 C10.9439688,18.3355391 10.2299141,19.6571719 10.0284766,21.140625 L3.19180469,21.140625 C2.25285156,17.6356641 1.71875,15.1380625 1.71875,14.2411328 C1.71875,14.0104766 1.73722656,13.7842031 1.77014063,13.5617109 Z M6.80246875,1.71875 L7.14621875,1.71875 L7.14621875,7.48163281 C7.03080469,7.48257813 6.91625,7.48558594 6.80246875,7.4916875 L6.80246875,1.71875 Z M24.75,19.0122969 C25.7926797,19.0122969 26.640625,19.8945312 26.640625,20.9788047 C26.640625,21.0332031 26.6379609,21.0869141 26.6339219,21.140625 L22.8660781,21.140625 C22.8616953,21.0869141 22.859375,21.0332031 22.859375,20.9788047 C22.859375,19.8945312 23.7073203,19.0122969 24.75,19.0122969 Z M20.8878828,21.140625 L11.7687109,21.140625 C12.172875,18.9911562 14.0632422,17.359375 16.328125,17.359375 C18.5933516,17.359375 20.483375,18.9911562 20.8878828,21.140625 Z M16.328125,15.640625 C16.3026016,15.640625 16.2777656,15.6423437 16.2522422,15.6426016 C17.0925391,14.3381563 18.5648203,13.4972578 20.1623984,13.4972578 C22.4330391,13.4972578 24.3266719,15.1371172 24.7248203,17.2942344 C23.5357891,17.3026563 22.4820234,17.9012109 21.8298437,18.8166172 C20.7280391,16.9199766 18.6753359,15.640625 16.328125,15.640625 Z M28.1156562,19.6497812 C28.1193516,19.6172109 28.1216719,19.5843828 28.1216719,19.5507812 L28.1216719,12.8312422 L28.6268984,12.8312422 L28.6268984,21.140625 L28.3556797,21.140625 C28.358,21.0869141 28.359375,21.0328594 28.359375,20.9788047 C28.359375,20.5105312 28.2724062,20.0623672 28.1156562,19.6497812 Z M30.3456484,17.0841172 L30.3456484,14.6979766 C30.3500313,14.6798437 30.3551016,14.6620547 30.3587969,14.6433203 L31.0778359,10.7811172 L31.5716328,10.8825234 L30.3456484,17.0841172 Z M31.4205547,20.5095 L34.6576484,15.1498359 L35.6841719,15.8332969 L31.9818125,21.140625 L31.2960313,21.140625 L31.4205547,20.5095 Z M15.5765156,5.46545312 C15.9072031,5.46545312 16.2381484,5.49828125 16.5607578,5.56376563 C16.9803906,5.64867188 17.3983047,5.41174219 17.5413047,5.00817969 C18.2368828,3.04304687 20.1046484,1.72278906 22.1893203,1.72278906 C24.2209687,1.72278906 26.0339922,2.98933594 26.769875,4.82891406 C24.4485312,5.64102344 22.7785078,7.85185156 22.7785078,10.4468203 C22.7785078,10.9214531 23.1631641,11.3061953 23.6378828,11.3061953 C24.1121719,11.3061953 24.4972578,10.9214531 24.4972578,10.4468203 C24.4972578,8.11301562 26.395875,6.21439844 28.7296797,6.21439844 C29.764625,6.21439844 30.7612422,6.59303906 31.5360547,7.28019531 C31.8415625,7.55107031 32.2957422,7.56954687 32.6223047,7.32445312 C33.213125,6.88067188 33.9174687,6.6460625 34.6586797,6.6460625 C36.5308281,6.6460625 38.0538984,8.16947656 38.0538984,10.041625 C38.0538984,10.7774219 37.8222109,11.4780703 37.3841875,12.0664844 C37.2126562,12.2967969 37.1672812,12.5975781 37.2636172,12.8677656 C37.3599531,13.1383828 37.5849375,13.3428281 37.8635469,13.4129531 C39.3718359,13.7936562 40.4255156,15.1471719 40.4255156,16.7054766 C40.4255156,18.577625 38.9021875,20.1006094 37.0300391,20.1006094 C36.8168281,20.1006094 36.6003516,20.0798125 36.3861094,20.0389062 C35.9699141,19.9589844 35.5573281,20.1949687 35.4150156,20.5944922 C35.3474687,20.7834687 35.2622187,20.9660859 35.1621875,21.140625 L34.0772266,21.140625 L37.5962812,16.0961797 C37.7285391,15.9065156 37.7788984,15.6714766 37.7359297,15.4446016 C37.6929609,15.2172969 37.5600156,15.0168906 37.3676875,14.8890156 L34.8620937,13.2216562 C34.6670156,13.0917187 34.4269922,13.0470312 34.1983984,13.0984219 C33.9694609,13.1498125 33.7717187,13.292125 33.6505469,13.492875 L32.3974062,15.5674062 L33.4233281,10.3792734 C33.5145937,9.91641406 33.2155312,9.46584375 32.7532734,9.37088281 L30.5665937,8.92142969 C30.3406641,8.87476562 30.1052812,8.92108594 29.9139844,9.04999219 C29.7222578,9.17855469 29.5906875,9.37896094 29.5484062,9.60549219 L29.2677344,11.1124922 L27.2622969,11.1124922 C26.7880078,11.1124922 26.4029219,11.4971484 26.4029219,11.9718672 L26.4029219,16.9172266 C25.8319531,13.9926875 23.2515078,11.7785078 20.1623984,11.7785078 C18.7706406,11.7785078 17.4483203,12.2202266 16.3395547,13.0557969 C15.42475,13.7446719 14.7063984,14.6825937 14.2740469,15.7366172 C14.3834453,15.0913984 14.4375,14.5963125 14.4375,14.2411328 C14.4375,13.0755625 14.1209062,11.9782266 13.564375,11.0201094 C14.0158906,9.79154687 15.1897969,8.95700781 16.5174453,8.95700781 C16.7285937,8.95700781 16.9397422,8.97814844 17.1459063,9.02008594 C17.5657969,9.10533594 17.9847422,8.86797656 18.1271406,8.4638125 C18.3117344,7.94148437 18.632625,7.47424219 19.0552656,7.11270312 C19.4158594,6.8041875 19.4581406,6.26166406 19.149625,5.9008125 C18.8411094,5.54030469 18.2990156,5.49802344 17.9380781,5.80645312 C17.4657656,6.21035937 17.0760391,6.70011719 16.7886641,7.24590625 C16.6984297,7.24092187 16.6081094,7.23825781 16.5174453,7.23825781 C14.8071172,7.23825781 13.261875,8.1338125 12.390125,9.53029687 C11.9819219,9.13721875 11.5237031,8.79046094 11.0244922,8.49939062 C11.7791094,6.68396094 13.5650625,5.46545312 15.5765156,5.46545312 Z M43.140625,21.140625 L39.5712109,21.140625 C41.1073437,20.2571016 42.1442656,18.6007422 42.1442656,16.7054766 C42.1442656,14.7375937 41.0281094,12.9862734 39.3274922,12.1339453 C39.6205391,11.4816797 39.7729922,10.7733828 39.7729922,10.041625 C39.7729922,7.22141406 37.4788047,4.9273125 34.6586797,4.9273125 C33.7693984,4.9273125 32.9157812,5.15152344 32.1547187,5.58086719 C31.1563828,4.87729688 29.9622812,4.49564844 28.7296797,4.49564844 C28.6460625,4.49564844 28.5631328,4.49865625 28.4802031,4.50200781 C27.5725312,1.85539062 25.0407266,0.0040390625 22.1893203,0.0040390625 C19.6178984,0.0040390625 17.2915703,1.49350781 16.1951797,3.77523438 C15.9894453,3.75607031 15.7829375,3.74670313 15.5765156,3.74670313 C12.8742109,3.74670313 10.4743203,5.37848438 9.44942969,7.81154688 C9.2675,7.75620313 9.0825625,7.70782031 8.894875,7.66553906 C8.9931875,6.56751563 9.34166406,5.72524219 9.93617969,5.15925781 C10.4538672,4.66614844 10.9737891,4.56371094 10.9959609,4.55975781 L10.9839297,4.56173437 L10.9839297,4.56070312 C11.1655156,4.53389062 11.3373906,4.45027344 11.4679297,4.31904687 C11.6277734,4.15920312 11.7197266,3.93834375 11.7197266,3.71241406 C11.7197266,3.48553906 11.6277734,3.26459375 11.4679297,3.10380469 C11.3081719,2.94404687 11.0862812,2.85209375 10.8603516,2.85209375 C10.8120547,2.85209375 10.7643594,2.85707812 10.7170078,2.86515625 L10.7166641,2.86378125 C10.2064531,2.94404687 9.50855469,3.23004688 8.86496875,3.81115625 L8.86496875,0.859375 C8.86496875,0.384742187 8.47996875,0 8.00559375,0 L5.94309375,0 C5.46846094,0 5.08371875,0.384742187 5.08371875,0.859375 L5.08371875,4.07266406 C4.09509375,2.86111719 3.02757813,2.15282031 2.94507812,2.09876562 C2.547875,1.83957813 2.01721094,1.95172656 1.75733594,2.3478125 C1.49789063,2.74432812 1.60866406,3.27671094 2.00440625,3.5371875 C2.0329375,3.55600781 4.63289062,5.29692969 5.01926563,7.80149219 C2.11114062,8.67530469 0,11.231 0,14.2411328 C0,15.4916094 0.713367187,18.4943516 1.41324219,21.140625 L0.859375,21.140625 C0.384742187,21.140625 0,21.5253672 0,22 L0,43.140625 C0,43.6152578 0.384742187,44 0.859375,44 L43.140625,44 C43.6152578,44 44,43.6152578 44,43.140625 L44,22 C44,21.5253672 43.6152578,21.140625 43.140625,21.140625 Z" id="Fill-27" fill="#82CF9C" mask="url(#mask-2)"></path>
                                <path d="M21.0832187,6.359375 L21.0946484,6.359375 C21.5692812,6.359375 21.9540234,5.97463281 21.9540234,5.5 C21.9540234,5.02536719 21.5692812,4.640625 21.0946484,4.640625 L21.0832187,4.640625 C20.6088437,4.640625 20.2238437,5.02536719 20.2238437,5.5 C20.2238437,5.97463281 20.6088437,6.359375 21.0832187,6.359375" id="Fill-28" fill="#82CF9C" mask="url(#mask-2)"></path>
                            </g>
                        </g>
                    </g>
                </g>
            </g>
        </g>
    </g>
</svg>