<?xml version="1.0" encoding="UTF-8"?>
<svg width="46px" height="45px" viewBox="0 0 46 45" version="1.1" xmlns="http://www.w3.org/2000/svg" xmlns:xlink="http://www.w3.org/1999/xlink">
    <!-- Generator: Sketch 53.2 (72643) - https://sketchapp.com -->
    <title>water balance</title>
    <desc>Created with Sketch.</desc>
    <g id="Page-1" stroke="none" stroke-width="1" fill="none" fill-rule="evenodd">
        <g id="Insights" transform="translate(-23.000000, -148.000000)">
            <g id="Menu" transform="translate(0.000000, 130.000000)">
                <g id="wb">
                    <g id="Group-2" transform="translate(24.000000, 16.000000)">
                        <g id="water-balance" transform="translate(0.000000, 3.000000)">
                            <g id="water">
                                <g>
                                    <path d="M24.0822066,24.1534228 C24.0822066,30.8033335 19.3674442,36.1233099 13.6117168,36.1233099 C7.85598945,36.1233099 3.14115738,30.8033335 3.14115738,24.1534228 C3.14115738,17.5034324 13.6117168,2.52352623 13.6117168,2.52352623 C13.6117168,2.52352623 24.0822066,17.5733829 24.0822066,24.1534228" id="Fill-1" fill="#BCE8CA"></path>
                                    <path d="M24.0822066,23.440925 C24.0822066,30.4866662 18.6602299,36.1233099 12.0411434,36.1233099 C5.42205688,36.1233099 0,30.4866662 0,23.440925 C0,16.3950993 12.0411434,0.52352623 12.0411434,0.52352623 C12.0411434,0.52352623 24.0822066,16.4692134 24.0822066,23.440925 Z" id="Stroke-3" stroke="#82CF9C" stroke-width="1.5"></path>
                                    <path d="M4.24580117,23.573721 C4.24580117,22.9796433 4.76566779,22.4597724 5.35974071,22.4597724 C5.95372911,22.4597724 6.47359574,22.9796433 6.47359574,23.573721 C6.47359574,27.5093907 9.66674823,30.702569 13.6023862,30.702569 C14.1963746,30.702569 14.7163258,31.2223553 14.7163258,31.816433 C14.7163258,32.4105107 14.1963746,32.9302971 13.6023862,32.9302971 C8.47851788,32.9302971 4.24580117,28.7718376 4.24580117,23.573721 Z" id="Fill-5" fill="#FFFFFF" transform="translate(9.481063, 27.695035) rotate(6.000000) translate(-9.481063, -27.695035) "></path>
                                </g>
                            </g>
                            <g transform="translate(25.153056, 27.770687)" id="water">
                                <g transform="translate(0.000000, 0.523526)">
                                    <path d="M9.42347215,9.37636998 C9.42347215,12.1946665 7.57856513,14.449324 5.32632398,14.449324 C3.07408283,14.449324 1.22914854,12.1946665 1.22914854,9.37636998 C1.22914854,6.5580397 5.32632398,0.209410492 5.32632398,0.209410492 C5.32632398,0.209410492 9.42347215,6.58768537 9.42347215,9.37636998" id="Fill-1" fill="#BCE8CA"></path>
                                    <path d="M9.42347215,9.37636998 C9.42347215,12.1946665 7.30182908,14.449324 4.71175175,14.449324 C2.12167443,14.449324 0,12.1946665 0,9.37636998 C0,6.5580397 4.71175175,0.209410492 4.71175175,0.209410492 C4.71175175,0.209410492 9.42347215,6.58768537 9.42347215,9.37636998 Z" id="Stroke-3" stroke="#82CF9C" stroke-width="1.2"></path>
                                    <path d="M1.65717753,9.42514748 C1.65664051,9.18757283 1.85964603,8.98014384 2.09216579,8.98068086 C2.32465247,8.9812178 2.52859787,9.18958668 2.5291349,9.42716132 C2.5326926,11.0010553 3.78537696,12.2809097 5.32578314,12.2844674 C5.55826982,12.2850043 5.76224823,12.4933395 5.76278526,12.7309141 C5.76332228,12.9684888 5.56028361,13.1758839 5.32779693,13.1753469 C3.32231815,13.1707152 1.66187644,11.5039002 1.65717753,9.42514748 Z" id="Fill-5" fill="#FFFFFF" transform="translate(3.709981, 11.078014) rotate(6.000000) translate(-3.709981, -11.078014) "></path>
                                </g>
                            </g>
                            <g transform="translate(31.387777, 5.211466)" id="water">
                                <g>
                                    <path d="M12.5646295,12.0553328 C12.5646295,15.6788569 10.1047535,18.5777022 7.10176531,18.5777022 C4.0987771,18.5777022 1.63886472,15.6788569 1.63886472,12.0553328 C1.63886472,8.43176533 7.10176531,0.269242061 7.10176531,0.269242061 C7.10176531,0.269242061 12.5646295,8.46988119 12.5646295,12.0553328" id="Fill-1" fill="#BCE8CA"></path>
                                    <path d="M12.5646295,12.0553328 C12.5646295,15.6788569 9.7357721,18.5777022 6.28233567,18.5777022 C2.82889924,18.5777022 0,15.6788569 0,12.0553328 C0,8.43176533 6.28233567,0.269242061 6.28233567,0.269242061 C6.28233567,0.269242061 12.5646295,8.46988119 12.5646295,12.0553328 Z" id="Stroke-3" stroke="#82CF9C" stroke-width="1.2"></path>
                                    <path d="M2.21882001,12.1273484 C2.21928032,11.8217744 2.49087555,11.5539671 2.80077826,11.5535068 C3.11063688,11.5530466 3.3814265,11.8200482 3.38096619,12.1256223 C3.37791673,14.1500015 5.04117514,15.7899934 7.09423097,15.786944 C7.40408959,15.7864837 7.67492336,16.0534419 7.67446305,16.3590159 C7.67400275,16.66459 7.40236349,16.9323539 7.09250487,16.9328141 C4.41959953,16.9367842 2.21479238,14.8010889 2.21882001,12.1273484 Z" id="Fill-5" fill="#FFFFFF" transform="translate(4.946639, 14.243163) rotate(6.000000) translate(-4.946639, -14.243163) "></path>
                                </g>
                            </g>
                        </g>
                    </g>
                </g>
            </g>
        </g>
    </g>
</svg>