<svg width="197" height="104" viewBox="0 0 197 104" fill="none" xmlns="http://www.w3.org/2000/svg">
<path d="M38.0296 37.1636C46.5462 16.2592 65.2666 9.29102 104.753 9.29102C131.851 17.8076 177.293 39.9028 190.554 66.5846C213.643 113.039 155.714 96.0056 123.196 86.7147C90.6777 77.4239 20.3608 117.684 4.87606 96.7798C-10.6087 75.8754 29.513 58.068 38.0296 37.1636Z" fill="#BADEC6" stroke="#FAFAFD"/>
<path d="M116.655 11.149C116.655 10.8393 116.655 10.5296 116.5 10.2199C113.558 4.02603 107.21 0 100.319 0C90.4861 0 82.5114 7.97464 82.5114 17.8075V57.7581L76.8595 52.4933C76.0078 42.4282 67.6461 34.9181 57.1165 35.3052C56.7293 45.68 64.0072 53.9643 73.9948 55.0483L82.5114 62.9455V95.6183C82.5114 96.7022 83.3631 97.5539 84.447 97.5539C85.531 97.5539 86.3826 96.7022 86.3826 95.6183V91.7471L94.4347 84.3144C104.655 83.5402 112.32 75.101 111.855 64.5714C101.558 64.1843 93.2733 71.3847 92.1894 81.2175L86.4601 86.5597V17.8075C86.4601 10.0651 92.7314 3.79376 100.474 3.79376C105.661 3.79376 110.384 6.65844 112.784 11.149C103.88 12.2329 97.0671 19.6656 97.0671 28.7242V49.7835L105.893 40.9572L114.72 49.7835L123.546 40.9572L132.372 49.7835V28.7242C132.372 19.5882 125.482 12.1555 116.655 11.149Z" fill="#4D4D4D"/>
</svg>
