<svg width="17" height="17" viewBox="0 0 17 17" fill="none" xmlns="http://www.w3.org/2000/svg">
<path d="M13.3062 4.30497C13.3062 3.98218 13.3062 3.82079 13.2434 3.6975C13.1882 3.58906 13.1 3.50089 12.9915 3.44563C12.8683 3.38281 12.7069 3.38281 12.3841 3.38281H2.70145C2.37867 3.38281 2.21728 3.38281 2.09399 3.44563C1.98554 3.50089 1.89737 3.58906 1.84211 3.6975C1.7793 3.82079 1.7793 3.98218 1.7793 4.30497V4.69077C1.7793 4.84569 1.7793 4.92315 1.79823 4.99518C1.815 5.05901 1.84262 5.11948 1.87986 5.17396C1.9219 5.23544 1.98043 5.28617 2.0975 5.38763L5.78369 8.58233C5.90076 8.68379 5.9593 8.73452 6.00133 8.796C6.03858 8.85048 6.06619 8.91095 6.08297 8.97478C6.1019 9.04681 6.1019 9.12427 6.1019 9.27919V13.076C6.1019 13.3042 6.1019 13.4183 6.14988 13.4906C6.19184 13.5539 6.25709 13.5981 6.33144 13.6136C6.41647 13.6312 6.52238 13.5889 6.73422 13.5041L8.69379 12.7203C8.79844 12.6784 8.85077 12.6575 8.88926 12.6225C8.92327 12.5916 8.94939 12.553 8.96545 12.51C8.98363 12.4613 8.98363 12.4049 8.98363 12.2922V11.362" stroke="#98A1B1" stroke-width="1.5" stroke-linecap="round" stroke-linejoin="round"/>
<path d="M13.1242 6.57041C13.4494 6.24517 13.4494 5.71787 13.1242 5.39264C12.799 5.06739 12.2716 5.06739 11.9464 5.39264L10.7688 6.57032L9.5914 5.39292C9.26616 5.06767 8.73882 5.06767 8.41358 5.39292C8.08836 5.71816 8.08836 6.24545 8.41358 6.57069L9.59098 7.74813L8.41308 8.92608C8.08786 9.25131 8.08786 9.77861 8.41308 10.1038C8.73832 10.4291 9.26565 10.4291 9.59089 10.1038L10.7688 8.92594L11.9469 10.1041C12.2721 10.4294 12.7995 10.4294 13.1247 10.1041C13.4499 9.77889 13.4499 9.25159 13.1247 8.92636L11.9465 7.74813L13.1242 6.57041Z" fill="#98A1B1"/>
</svg>
