<svg width="24" height="24" viewBox="0 0 24 24" fill="none" xmlns="http://www.w3.org/2000/svg">
<g clip-path="url(#clip0_6390_71067)">
<path d="M12.7951 23.0051H5.19512C3.95512 23.0051 3.27512 23.0051 2.63512 22.6751C2.06512 22.3851 1.61512 21.9351 1.32512 21.3651C0.995117 20.7251 0.995117 20.0451 0.995117 18.8051V11.2051C0.995117 9.9651 0.995117 9.2851 1.32512 8.6451C1.61512 8.0751 2.06512 7.6251 2.63512 7.3351C3.27512 7.0051 3.96512 7.0051 5.19512 7.0051H12.7951C14.0351 7.0051 14.7151 7.0051 15.3551 7.3351C15.9251 7.6251 16.3751 8.0751 16.6651 8.6451C16.9951 9.2851 16.9951 9.9651 16.9951 11.2051V18.8051C16.9951 20.0451 16.9951 20.7251 16.6651 21.3651C16.3751 21.9351 15.9251 22.3851 15.3551 22.6751C14.7151 23.0051 14.0251 23.0051 12.7951 23.0051ZM5.19512 9.0051C4.32512 9.0051 3.75512 9.0051 3.54512 9.1151C3.35512 9.2151 3.20512 9.3651 3.10512 9.5551C2.99512 9.7651 2.99512 10.3451 2.99512 11.2051V18.8051C2.99512 19.6751 2.99512 20.2451 3.10512 20.4551C3.19512 20.6451 3.35512 20.7951 3.54512 20.8951C3.75512 21.0051 4.33512 21.0051 5.19512 21.0051H12.7951C13.6651 21.0051 14.2351 21.0051 14.4451 20.8951C14.6351 20.7951 14.7851 20.6451 14.8851 20.4551C14.9951 20.2451 14.9951 19.6651 14.9951 18.8051V11.2051C14.9951 10.3351 14.9951 9.7651 14.8851 9.5551C14.7851 9.3651 14.6351 9.2151 14.4451 9.1151C14.2351 9.0051 13.6551 9.0051 12.7951 9.0051H5.19512ZM19.4951 17.0051C18.9451 17.0051 18.5051 16.5651 18.4951 16.0151C18.4951 15.4651 18.9251 15.0051 19.4851 15.0051C19.8951 15.0051 20.2851 14.9851 20.4551 14.8951C20.6451 14.7951 20.7951 14.6451 20.8951 14.4551C20.9751 14.2951 20.9951 13.8951 21.0051 13.4851C21.0051 12.9351 21.4951 12.4651 22.0151 12.4951C22.5651 12.4951 23.0051 12.9551 23.0051 13.5051C22.9951 14.3151 22.9351 14.8451 22.6851 15.3551C22.3951 15.9251 21.9451 16.3751 21.3751 16.6651C20.8651 16.9251 20.3351 16.9751 19.5251 16.9851H19.5151L19.4951 17.0051ZM21.9951 11.0051C21.4451 11.0051 20.9951 10.5551 20.9951 10.0051V8.0051C20.9951 7.4551 21.4451 7.0051 21.9951 7.0051C22.5451 7.0051 22.9951 7.4551 22.9951 8.0051V10.0051C22.9951 10.5551 22.5451 11.0051 21.9951 11.0051ZM21.9951 5.5051C21.4451 5.5051 21.0051 5.0651 20.9951 4.5151C20.9951 4.1151 20.9751 3.7151 20.8851 3.5451C20.7851 3.3551 20.6351 3.2051 20.4451 3.1051C20.2851 3.0251 19.8851 3.0051 19.4751 2.9951C18.9251 2.9951 18.4851 2.5351 18.4851 1.9851C18.4851 1.4351 18.9651 0.985098 19.4951 0.995098C20.3051 1.0051 20.8351 1.0651 21.3451 1.3151C21.9151 1.6051 22.3651 2.0551 22.6551 2.6251C22.9151 3.1351 22.9651 3.6651 22.9751 4.4751C22.9751 5.0251 22.5451 5.4851 21.9851 5.4851H21.9751L21.9951 5.5051ZM7.99512 5.5051H7.98512C7.43512 5.5051 6.99512 5.0451 6.99512 4.4951C7.00512 3.6851 7.06512 3.1551 7.31512 2.6451C7.60512 2.0751 8.05512 1.6251 8.62512 1.3351C9.14512 1.0751 9.67512 1.0151 10.4851 1.0051H10.4951C11.0451 1.0051 11.4851 1.4451 11.4951 1.9951C11.4951 2.5451 11.0651 3.0051 10.5051 3.0051C10.0951 3.0051 9.70512 3.0251 9.53512 3.1151C9.34512 3.2151 9.19512 3.3651 9.09512 3.5551C9.01512 3.7251 8.99512 4.1151 8.98512 4.5251C8.98512 5.0751 8.53512 5.5151 7.98512 5.5151L7.99512 5.5051ZM15.9951 3.0051H13.9951C13.4451 3.0051 12.9951 2.5551 12.9951 2.0051C12.9951 1.4551 13.4451 1.0051 13.9951 1.0051H15.9951C16.5451 1.0051 16.9951 1.4551 16.9951 2.0051C16.9951 2.5551 16.5451 3.0051 15.9951 3.0051Z" fill="#FFCF54"/>
</g>
<defs>
<clipPath id="clip0_6390_71067">
<rect width="24" height="24" fill="white"/>
</clipPath>
</defs>
</svg>
