<svg width="24" height="24" viewBox="0 0 24 24" fill="none" xmlns="http://www.w3.org/2000/svg">
<g clip-path="url(#clip0_6390_71180)">
<path d="M12.7101 23.17C12.5801 23.17 12.4401 23.14 12.3101 23.09C11.9001 22.91 11.6601 22.49 11.7201 22.05L12.5801 15.17H6.42013C5.72013 15.17 5.25013 15.17 4.84013 14.84C4.48013 14.55 4.27013 14.1 4.28013 13.65C4.28013 13.12 4.59013 12.77 5.04013 12.22L13.9401 1.53001C14.2301 1.19001 14.7001 1.08001 15.1101 1.25001C15.5201 1.43001 15.7601 1.85001 15.7001 2.29001L14.8401 9.17001H21.0001C21.7101 9.17001 22.1701 9.17001 22.5801 9.50001C22.9401 9.79001 23.1501 10.23 23.1401 10.69C23.1401 11.21 22.8401 11.57 22.3901 12.11L13.4801 22.8C13.2901 23.03 13.0001 23.16 12.7101 23.16V23.17ZM6.84013 13.17H13.7101C14.0001 13.17 14.2701 13.29 14.4601 13.51C14.6501 13.72 14.7401 14.01 14.7001 14.3L14.1201 18.92L20.5701 11.18H13.7101C13.4201 11.18 13.1501 11.06 12.9601 10.84C12.7701 10.63 12.6801 10.34 12.7201 10.05L13.3001 5.43001L6.85013 13.17H6.84013Z" fill="#FFCF54"/>
<path fill-rule="evenodd" clip-rule="evenodd" d="M5.89011 0.830017H3.85011V3.82002H0.860107V5.86002H3.85011V8.85002H5.89011V5.86002H8.88011V3.82002H5.89011V0.830017Z" fill="#FFCF54"/>
</g>
<defs>
<clipPath id="clip0_6390_71180">
<rect width="22.28" height="22.34" fill="white" transform="translate(0.860107 0.830017)"/>
</clipPath>
</defs>
</svg>
