<svg width="20" height="20" viewBox="0 0 20 20" fill="none" xmlns="http://www.w3.org/2000/svg">
<path d="M16.6663 5.83317V5.6665C16.6663 4.26637 16.6663 3.56631 16.3939 3.03153C16.1542 2.56112 15.7717 2.17867 15.3013 1.93899C14.7665 1.6665 14.0665 1.6665 12.6663 1.6665H7.33301C5.93288 1.6665 5.23281 1.6665 4.69803 1.93899C4.22763 2.17867 3.84517 2.56112 3.60549 3.03153C3.33301 3.56631 3.33301 4.26637 3.33301 5.6665V14.3332C3.33301 15.7333 3.33301 16.4334 3.60549 16.9681C3.84517 17.4386 4.22763 17.821 4.69803 18.0607C5.23281 18.3332 5.93288 18.3332 7.33301 18.3332H10.4163M10.4163 9.1665H6.66634M9.58301 12.4998H6.66634M13.333 5.83317H6.66634M14.9997 14.9998V10.4165C14.9997 9.72615 15.5593 9.1665 16.2497 9.1665C16.94 9.1665 17.4997 9.72615 17.4997 10.4165V14.9998C17.4997 16.3805 16.3804 17.4998 14.9997 17.4998C13.619 17.4998 12.4997 16.3805 12.4997 14.9998V11.6665" stroke="#2B303A" stroke-width="2" stroke-linecap="round" stroke-linejoin="round"/>
</svg>
