<svg width="25" height="24" viewBox="0 0 25 24" fill="none" xmlns="http://www.w3.org/2000/svg">
<g id="edit-05">
<path id="Icon" d="M11.1914 4.00023H6.99141C5.31125 4.00023 4.47117 4.00023 3.82943 4.32721C3.26495 4.61483 2.80601 5.07377 2.51839 5.63826C2.19141 6.27999 2.19141 7.12007 2.19141 8.80023V17.2002C2.19141 18.8804 2.19141 19.7205 2.51839 20.3622C2.80601 20.9267 3.26495 21.3856 3.82943 21.6732C4.47117 22.0002 5.31125 22.0002 6.99141 22.0002H15.3914C17.0716 22.0002 17.9116 22.0002 18.5534 21.6732C19.1179 21.3856 19.5768 20.9267 19.8644 20.3622C20.1914 19.7205 20.1914 18.8804 20.1914 17.2002V13.0002M8.19138 16.0002H9.86592C10.3551 16.0002 10.5997 16.0002 10.8299 15.945C11.0339 15.896 11.229 15.8152 11.408 15.7055C11.6098 15.5818 11.7828 15.4089 12.1287 15.063L21.6914 5.50023C22.5198 4.6718 22.5198 3.32865 21.6914 2.50023C20.863 1.6718 19.5198 1.6718 18.6914 2.50022L9.12864 12.063C8.78274 12.4089 8.60978 12.5818 8.4861 12.7837C8.37644 12.9626 8.29563 13.1577 8.24664 13.3618C8.19138 13.5919 8.19138 13.8365 8.19138 14.3257V16.0002Z" stroke="#028577" stroke-width="2" stroke-linecap="round" stroke-linejoin="round"/>
</g>
</svg>
