<svg xmlns="http://www.w3.org/2000/svg" width="16" height="16" viewBox="0 0 16 16" fill="none">
  <path d="M11.3229 6.87027L9.11549 4.66282M2.76904 13.2167L4.63675 13.0092C4.86494 12.9838 4.97904 12.9711 5.08568 12.9366C5.18029 12.906 5.27034 12.8627 5.35336 12.808C5.44694 12.7463 5.52811 12.6651 5.69046 12.5027L12.9785 5.21468C13.5881 4.60511 13.5881 3.6168 12.9785 3.00723C12.369 2.39766 11.3807 2.39766 10.7711 3.00723L3.483 10.2953C3.32066 10.4576 3.23948 10.5388 3.17777 10.6324C3.12303 10.7154 3.07975 10.8055 3.04912 10.9001C3.0146 11.0067 3.00192 11.1208 2.97657 11.349L2.76904 13.2167Z" stroke="#66738A" stroke-width="1.65781" stroke-linecap="round" stroke-linejoin="round"/>
</svg>