<svg width="13" height="14" viewBox="0 0 13 14" fill="none" xmlns="http://www.w3.org/2000/svg">
<path d="M12.5938 8.52344C12.5938 9.20898 11.2734 11.7988 10.4355 11.7988C10.334 11.7988 10.2324 11.7734 10.1309 11.6973L9.29297 11.2148C9.01367 11.418 8.73438 11.5957 8.42969 11.7227V12.6875C8.42969 12.9668 8.25195 13.2207 7.97266 13.2969C7.41406 13.4492 6.85547 13.5 6.29688 13.5C5.71289 13.5 5.1543 13.4492 4.62109 13.2969C4.3418 13.2207 4.13867 12.9668 4.13867 12.6875V11.7227C3.83398 11.5957 3.55469 11.418 3.27539 11.2148L2.4375 11.6973C2.36133 11.7734 2.23438 11.7988 2.13281 11.7988C1.24414 11.7988 0 9.08203 0 8.52344C0 8.32031 0.101562 8.11719 0.304688 7.99023L1.14258 7.50781C1.11719 7.35547 1.11719 7.17773 1.11719 7C1.11719 6.84766 1.11719 6.66992 1.14258 6.51758L0.304688 6.03516C0.101562 5.9082 0 5.70508 0 5.50195C0 4.81641 1.32031 2.22656 2.13281 2.22656C2.23438 2.22656 2.36133 2.25195 2.4375 2.32812L3.27539 2.81055C3.55469 2.60742 3.83398 2.42969 4.13867 2.30273V1.33789C4.13867 1.05859 4.3418 0.804688 4.62109 0.728516C5.1543 0.576172 5.71289 0.5 6.29688 0.5C6.85547 0.5 7.41406 0.576172 7.97266 0.728516C8.25195 0.804688 8.42969 1.05859 8.42969 1.33789V2.30273C8.73438 2.42969 9.01367 2.60742 9.29297 2.81055L10.1309 2.32812C10.2324 2.25195 10.334 2.22656 10.4355 2.22656C11.3242 2.22656 12.5938 4.94336 12.5938 5.50195C12.5938 5.70508 12.4668 5.9082 12.2637 6.03516L11.4258 6.51758C11.4512 6.66992 11.4512 6.84766 11.4512 7C11.4512 7.17773 11.4512 7.35547 11.4258 7.50781L12.2637 7.99023C12.4668 8.11719 12.5938 8.32031 12.5938 8.52344ZM10.334 10.4023C10.7402 9.94531 11.0449 9.38672 11.248 8.80273C10.7148 8.49805 10.9688 8.65039 10.1562 8.16797C10.207 7.5332 10.2324 7.25391 10.2324 7C10.2324 6.74609 10.207 6.49219 10.1562 5.85742C10.9434 5.375 10.7148 5.52734 11.248 5.22266C11.0449 4.63867 10.7402 4.08008 10.334 3.62305C9.80078 3.92773 10.0801 3.75 9.2168 4.25781C8.15039 3.4707 8.4043 3.62305 7.21094 3.08984V1.82031C7.00781 1.76953 6.67773 1.71875 6.29688 1.71875C6.01758 1.71875 5.71289 1.74414 5.35742 1.82031V3.08984C4.16406 3.62305 4.41797 3.4707 3.35156 4.25781C2.53906 3.77539 2.84375 3.95312 2.23438 3.62305C1.85352 4.08008 1.52344 4.63867 1.32031 5.22266C1.85352 5.52734 1.625 5.375 2.4375 5.85742C2.36133 6.49219 2.33594 6.77148 2.33594 7.02539C2.33594 7.2793 2.36133 7.5332 2.4375 8.16797C1.625 8.65039 1.85352 8.49805 1.32031 8.80273C1.52344 9.38672 1.85352 9.94531 2.23438 10.4023C2.76758 10.0977 2.53906 10.25 3.35156 9.76758C4.41797 10.5547 4.16406 10.4023 5.35742 10.9355V12.2051C5.58594 12.2559 5.89062 12.2812 6.29688 12.2812C6.55078 12.2812 6.88086 12.2812 7.21094 12.2051V10.9355C8.4043 10.4023 8.15039 10.5547 9.2168 9.76758C10.0547 10.25 9.72461 10.0723 10.334 10.4023ZM6.29688 4.5625C7.64258 4.5625 8.73438 5.67969 8.73438 7C8.73438 8.3457 7.64258 9.4375 6.29688 9.4375C4.95117 9.4375 3.85938 8.3457 3.85938 7C3.85938 5.67969 4.95117 4.5625 6.29688 4.5625ZM6.29688 8.21875C6.95703 8.21875 7.51562 7.68555 7.51562 7C7.51562 6.33984 6.95703 5.78125 6.29688 5.78125C5.61133 5.78125 5.07812 6.33984 5.07812 7C5.07812 7.68555 5.61133 8.21875 6.29688 8.21875Z" fill="#66738A"/>
</svg>
