<svg width="20" height="21" viewBox="0 0 20 21" fill="none" xmlns="http://www.w3.org/2000/svg">
<g clip-path="url(#clip0_31258_102418)">
<path d="M15 16.1667H5C4.54167 16.1667 4.16667 15.7917 4.16667 15.3333V5.33334C4.16667 4.87501 4.54167 4.50001 5 4.50001H9.16667C9.625 4.50001 10 4.12501 10 3.66668C10 3.20834 9.625 2.83334 9.16667 2.83334H4.16667C3.24167 2.83334 2.5 3.58334 2.5 4.50001V16.1667C2.5 17.0833 3.25 17.8333 4.16667 17.8333H15.8333C16.75 17.8333 17.5 17.0833 17.5 16.1667V11.1667C17.5 10.7083 17.125 10.3333 16.6667 10.3333C16.2083 10.3333 15.8333 10.7083 15.8333 11.1667V15.3333C15.8333 15.7917 15.4583 16.1667 15 16.1667ZM11.6667 3.66668C11.6667 4.12501 12.0417 4.50001 12.5 4.50001H14.6583L7.05 12.1083C6.725 12.4333 6.725 12.9583 7.05 13.2833C7.375 13.6083 7.9 13.6083 8.225 13.2833L15.8333 5.67501V7.83334C15.8333 8.29168 16.2083 8.66668 16.6667 8.66668C17.125 8.66668 17.5 8.29168 17.5 7.83334V2.83334H12.5C12.0417 2.83334 11.6667 3.20834 11.6667 3.66668Z" fill="#66738A"/>
</g>
<defs>
<clipPath id="clip0_31258_102418">
<rect width="20" height="20" fill="white" transform="translate(0 0.333344)"/>
</clipPath>
</defs>
</svg>
