<svg width="17" height="16" viewBox="0 0 17 16" fill="none" xmlns="http://www.w3.org/2000/svg">
<g id="link-broken-02" clip-path="url(#clip0_29938_53280)">
<path id="Icon" d="M6.16732 10.332L10.834 5.66535M6.50065 2.66536V1.33203M10.5007 13.332V14.6654M3.16732 5.9987H1.83398M13.834 9.9987H15.1673M3.77679 3.27484L2.83398 2.33203M13.2245 12.7225L14.1673 13.6653M8.50067 11.7699L7.08646 13.1841C6.04506 14.2255 4.35662 14.2255 3.31522 13.1841C2.27383 12.1427 2.27383 10.4543 3.31522 9.41285L4.72944 7.99864M12.2719 7.99864L13.6861 6.58443C14.7275 5.54303 14.7275 3.85459 13.6861 2.81319C12.6447 1.77179 10.9563 1.77179 9.91489 2.81319L8.50067 4.2274" stroke="#308F85" stroke-width="2" stroke-linecap="round" stroke-linejoin="round"/>
</g>
<defs>
<clipPath id="clip0_29938_53280">
<rect width="16" height="16" fill="white" transform="translate(0.5)"/>
</clipPath>
</defs>
</svg>
