<svg width="24" height="24" viewBox="0 0 20 21" fill="none" xmlns="http://www.w3.org/2000/svg">
<path d="M5 6.5H10M5 10H13M5 16V18.3355C5 18.8684 5 19.1348 5.10933 19.2716C5.20432 19.3906 5.34837 19.4599 5.50064 19.4597C5.67572 19.4595 5.88377 19.2931 6.29985 18.9602L8.68531 17.0518C9.17261 16.662 9.41627 16.4671 9.68758 16.3285C9.9283 16.2055 10.1845 16.1156 10.4493 16.0613C10.7478 16 11.0598 16 11.6838 16H14.2C15.8802 16 16.7202 16 17.362 15.673C17.9265 15.3854 18.3854 14.9265 18.673 14.362C19 13.7202 19 12.8802 19 11.2V5.8C19 4.11984 19 3.27976 18.673 2.63803C18.3854 2.07354 17.9265 1.6146 17.362 1.32698C16.7202 1 15.8802 1 14.2 1H5.8C4.11984 1 3.27976 1 2.63803 1.32698C2.07354 1.6146 1.6146 2.07354 1.32698 2.63803C1 3.27976 1 4.11984 1 5.8V12C1 12.93 1 13.395 1.10232 13.7765C1.37972 14.8117 2.18836 15.6204 3.22364 15.8978C3.60514 16 4.07012 16 5 16Z" stroke="currentColor" stroke-width="2" stroke-linecap="round" stroke-linejoin="round"/>
</svg>
