<svg width="102" height="64" viewBox="0 0 102 64" fill="none" xmlns="http://www.w3.org/2000/svg">
<rect x="31" width="40" height="40" fill="white"/>
<rect x="31" width="10.4348" height="4.63768" fill="#66738A"/>
<rect x="31" y="11.5938" width="10.4348" height="7.53623" fill="#66738A"/>
<rect x="31" y="5.79688" width="4.63768" height="4.63768" fill="#66738A"/>
<rect x="42.5938" y="35.3623" width="5.21739" height="4.63768" fill="#66738A"/>
<rect x="42.5938" y="29.5654" width="5.21739" height="4.63768" fill="#D4DAE3"/>
<rect x="48.9707" y="35.3623" width="15.6522" height="4.63768" fill="#66738A"/>
<rect x="48.9707" y="29.5654" width="22.029" height="4.63768" fill="#66738A"/>
<rect x="65.7822" y="35.3623" width="5.21739" height="4.63768" fill="#282B36"/>
<rect x="36.7969" y="5.79688" width="4.63768" height="4.63768" fill="#282B36"/>
<rect x="31" y="20.29" width="10.4348" height="19.7101" fill="#282B36"/>
<rect x="42.5938" width="28.4058" height="28.4058" fill="#282B36"/>
<path d="M0 63.9999V51.3965H0.875021V63.1723H6.85433V63.9999H0Z" fill="#2B303A"/>
<path d="M12.3189 63.9999V51.3965H13.1939V63.9999H12.3189Z" fill="#2B303A"/>
<path d="M23.3082 63.9999H22.4246V52.224H18.3497V51.3965H27.383V52.224H23.3082V63.9999Z" fill="#2B303A"/>
<path d="M39.4017 63.9999H32.5474V51.3965H39.4017V52.2068H33.4224V56.974H39.0671V57.7844H33.4224V63.1896H39.4017V63.9999Z" fill="#2B303A"/>
<path d="M47.9546 63.9999H45.3381V51.3965H52.527V53.5861H47.9546V56.8361H52.2096V59.0171H47.9546V63.9999Z" fill="#2B303A"/>
<path d="M65.9526 63.9999L65.0432 60.9999H60.4708L59.5615 63.9999H56.6962L61.1228 51.3447H64.3741L68.8178 63.9999H65.9526ZM64.4084 58.7585C63.5677 56.0401 63.093 54.5028 62.9844 54.1465C62.8814 53.7901 62.8071 53.5085 62.7613 53.3016C62.5726 54.0373 62.0321 55.8562 61.1399 58.7585H64.4084Z" fill="#2B303A"/>
<path d="M76.3585 56.9913H77.2163C78.057 56.9913 78.6775 56.8505 79.0779 56.5689C79.4782 56.2873 79.6784 55.8447 79.6784 55.2413C79.6784 54.6436 79.4725 54.2183 79.0607 53.9654C78.6547 53.7125 78.0227 53.5861 77.1648 53.5861H76.3585V56.9913ZM76.3585 59.1637V63.9999H73.6991V51.3965H77.3536C79.0579 51.3965 80.3189 51.7097 81.1368 52.3361C81.9546 52.9568 82.3635 53.9022 82.3635 55.1723C82.3635 55.9137 82.1605 56.5746 81.7544 57.1551C81.3484 57.7298 80.7736 58.1809 80.0301 58.5085C81.9174 61.3419 83.147 63.1723 83.7189 63.9999H80.7679L77.7739 59.1637H76.3585Z" fill="#2B303A"/>
<path d="M93.9018 63.9999L90.8821 54.112H90.8049C90.9135 56.1235 90.9679 57.4654 90.9679 58.1378V63.9999H88.5916V51.3965H92.2118L95.18 61.0344H95.2315L98.3798 51.3965H102V63.9999H99.5208V58.0344C99.5208 57.7528 99.5236 57.4281 99.5294 57.0602C99.5408 56.6924 99.5808 55.7154 99.6495 54.1292H99.5723L96.3381 63.9999H93.9018Z" fill="#2B303A"/>
<g clip-path="url(#clip0_63114_238831)">
<path d="M58.7596 12.3333C59.8999 12.6886 60.9683 13.2659 61.8997 14.0417M64.8163 11.0833C62.3809 8.93662 59.246 7.75219 55.9996 7.75219C55.4954 7.75219 54.9939 7.78075 54.4974 7.83706M53.1078 17.0084C53.9538 16.4073 54.9659 16.0844 56.0037 16.0844C57.0414 16.0844 58.0535 16.4073 58.8995 17.0084M55.9997 20.25H56.008M46.9941 11.2506C48.1055 10.2322 49.39 9.39979 50.7984 8.80255M49.943 14.2025C51.1075 13.1767 52.5344 12.4418 54.1102 12.1116M59.0816 17.1459C58.2324 16.4802 57.1623 16.0833 55.9996 16.0833C54.8193 16.0833 53.7344 16.4923 52.8792 17.1763M48.4997 6.5L63.4997 21.5" stroke="white" stroke-width="2" stroke-linecap="round" stroke-linejoin="round"/>
</g>
<defs>
<clipPath id="clip0_63114_238831">
<rect width="20" height="20" fill="white" transform="translate(46 4)"/>
</clipPath>
</defs>
</svg>
