<svg width="24" height="25" viewBox="0 0 24 25" fill="none" xmlns="http://www.w3.org/2000/svg">
<path fill-rule="evenodd" clip-rule="evenodd" d="M3 12.2773C3 11.1733 3.896 10.2773 5 10.2773C6.104 10.2773 7 11.1733 7 12.2773C7 13.3813 6.104 14.2773 5 14.2773C3.896 14.2773 3 13.3813 3 12.2773ZM12 10.2773C10.896 10.2773 10 11.1733 10 12.2773C10 13.3813 10.896 14.2773 12 14.2773C13.104 14.2773 14 13.3813 14 12.2773C14 11.1733 13.104 10.2773 12 10.2773ZM19 10.2773C17.896 10.2773 17 11.1733 17 12.2773C17 13.3813 17.896 14.2773 19 14.2773C20.104 14.2773 21 13.3813 21 12.2773C21 11.1733 20.104 10.2773 19 10.2773Z" fill="#5D697E"/>
</svg>
