<svg width="28" height="24" viewBox="0 0 28 24" fill="none" xmlns="http://www.w3.org/2000/svg">
<path d="M2.65569 23.9508V22.3193C2.65569 21.918 2.55884 21.7173 2.36515 21.7173C2.22428 21.7173 2.12343 21.7894 2.0626 21.9336C2.00177 22.0761 1.97136 22.3054 1.97136 22.6215V23.9508H1.32784V22.3193C1.32784 21.918 1.2294 21.7173 1.0325 21.7173C0.894835 21.7173 0.794786 21.7886 0.732356 21.9311C0.669925 22.0736 0.63871 22.3087 0.63871 22.6363V23.9508H0V21.2136H0.506646L0.583483 21.565H0.624303C0.688334 21.4258 0.775577 21.3242 0.88603 21.2603C0.998085 21.1948 1.11734 21.162 1.2438 21.162C1.57036 21.162 1.78807 21.3201 1.89692 21.6363H1.92093C2.057 21.3201 2.27551 21.162 2.57645 21.162C2.81337 21.162 2.99265 21.2472 3.11431 21.4176C3.23757 21.5879 3.2992 21.8369 3.2992 22.1645V23.9508H2.65569Z" fill="#028577"/>
<path d="M4.46137 23.9508H3.82266V21.2136H4.46137V23.9508ZM3.79624 20.4986C3.79624 20.3905 3.82666 20.3053 3.88749 20.2431C3.94992 20.1792 4.03636 20.1473 4.14681 20.1473C4.25086 20.1473 4.33411 20.1792 4.39654 20.2431C4.45897 20.3053 4.49018 20.3905 4.49018 20.4986C4.49018 20.61 4.45817 20.6968 4.39413 20.7591C4.3301 20.8197 4.24766 20.85 4.14681 20.85C4.04116 20.85 3.95632 20.8197 3.89229 20.7591C3.82826 20.6968 3.79624 20.61 3.79624 20.4986Z" fill="#028577"/>
<path d="M6.34148 23.9508V22.3193C6.34148 22.1211 6.31827 21.9712 6.27185 21.8697C6.22542 21.7681 6.15019 21.7173 6.04614 21.7173C5.90847 21.7173 5.80762 21.7878 5.74359 21.9286C5.67956 22.0679 5.64754 22.3038 5.64754 22.6363V23.9508H5.00883V21.2136H5.51548L5.59232 21.565H5.63314C5.69076 21.4389 5.7732 21.3406 5.88046 21.2702C5.98771 21.1981 6.11337 21.162 6.25744 21.162C6.50076 21.162 6.68245 21.2472 6.8025 21.4176C6.92416 21.5879 6.98499 21.8369 6.98499 22.1645V23.9508H6.34148Z" fill="#028577"/>
<path d="M8.83389 23.9508V22.3193C8.83389 21.918 8.73544 21.7173 8.53855 21.7173C8.39128 21.7173 8.28803 21.7968 8.2288 21.9557C8.16957 22.1129 8.13995 22.3398 8.13995 22.6363V23.9508H7.50124V20.1276H8.13995V20.9778C8.13995 21.0875 8.13035 21.2833 8.11114 21.565H8.14476C8.27282 21.2964 8.46971 21.162 8.73544 21.162C8.98036 21.162 9.16525 21.2472 9.29011 21.4176C9.41497 21.5863 9.4774 21.8353 9.4774 22.1645V23.9508H8.83389Z" fill="#028577"/>
<path d="M11.3047 23.9508L11.1774 23.5773H11.163C11.0686 23.7379 10.9709 23.8484 10.8701 23.909C10.7692 23.9697 10.642 24 10.4883 24C10.2914 24 10.1361 23.9246 10.0225 23.7739C9.91041 23.6232 9.85439 23.4135 9.85439 23.1449C9.85439 22.8566 9.93122 22.6428 10.0849 22.5036C10.2402 22.3627 10.4715 22.2849 10.7788 22.2702L11.1342 22.2554V22.0589C11.1342 21.8033 11.0262 21.6756 10.8101 21.6756C10.65 21.6756 10.4659 21.7395 10.2578 21.8672L10.0369 21.4151C10.3026 21.2431 10.5915 21.1571 10.9037 21.1571C11.187 21.1571 11.4023 21.2407 11.5496 21.4077C11.6985 21.5732 11.7729 21.8083 11.7729 22.1129V23.9508H11.3047ZM10.75 23.4889C10.8669 23.4889 10.9597 23.4357 11.0286 23.3292C11.099 23.2211 11.1342 23.0777 11.1342 22.8992V22.6682L10.9373 22.6781C10.7916 22.6862 10.6844 22.7288 10.6156 22.8058C10.5483 22.8828 10.5147 22.9975 10.5147 23.1498C10.5147 23.3759 10.5931 23.4889 10.75 23.4889Z" fill="#028577"/>
<path d="M14.6927 21.7321H14.2509V23.9508H13.6122V21.7321H13.3025V21.4053L13.6122 21.2087V21.0023C13.6122 20.6977 13.6738 20.4716 13.7971 20.3242C13.9204 20.1751 14.1189 20.1006 14.3926 20.1006C14.5655 20.1006 14.7264 20.1374 14.8752 20.2112L14.7071 20.7099C14.6271 20.6706 14.5455 20.651 14.4622 20.651C14.3886 20.651 14.335 20.6805 14.3013 20.7394C14.2677 20.7984 14.2509 20.8893 14.2509 21.0122V21.2136H14.6927V21.7321Z" fill="#028577"/>
<path d="M16.2847 23.9508L16.1574 23.5773H16.143C16.0486 23.7379 15.9509 23.8484 15.8501 23.909C15.7492 23.9697 15.622 24 15.4683 24C15.2714 24 15.1161 23.9246 15.0025 23.7739C14.8904 23.6232 14.8344 23.4135 14.8344 23.1449C14.8344 22.8566 14.9112 22.6428 15.0649 22.5036C15.2202 22.3627 15.4515 22.2849 15.7589 22.2702L16.1142 22.2554V22.0589C16.1142 21.8033 16.0062 21.6756 15.7901 21.6756C15.63 21.6756 15.4459 21.7395 15.2378 21.8672L15.0169 21.4151C15.2826 21.2431 15.5716 21.1571 15.8837 21.1571C16.1671 21.1571 16.3824 21.2407 16.5296 21.4077C16.6785 21.5732 16.7529 21.8083 16.7529 22.1129V23.9508H16.2847ZM15.73 23.4889C15.8469 23.4889 15.9397 23.4357 16.0086 23.3292C16.079 23.2211 16.1142 23.0777 16.1142 22.8992V22.6682L15.9173 22.6781C15.7717 22.6862 15.6644 22.7288 15.5956 22.8058C15.5283 22.8828 15.4947 22.9975 15.4947 23.1498C15.4947 23.3759 15.5732 23.4889 15.73 23.4889Z" fill="#028577"/>
<path d="M18.6547 23.9508H17.0963V23.5331L17.9175 21.7419H17.1491V21.2136H18.621V21.6756L17.8239 23.4225H18.6547V23.9508Z" fill="#028577"/>
<path d="M20.0137 24C19.6792 24 19.415 23.8787 19.2213 23.6363C19.0292 23.3922 18.9332 23.0474 18.9332 22.6019C18.9332 22.1498 19.0204 21.7968 19.1949 21.5429C19.3694 21.289 19.6127 21.162 19.9249 21.162C20.2162 21.162 20.4459 21.271 20.614 21.4888C20.7821 21.7051 20.8661 22.0089 20.8661 22.4004V22.7493H19.5815C19.5863 22.9934 19.6351 23.1752 19.728 23.2948C19.8208 23.4127 19.9489 23.4717 20.1122 23.4717C20.3203 23.4717 20.5332 23.4053 20.7509 23.2727V23.8108C20.546 23.9369 20.3003 24 20.0137 24ZM19.9201 21.6657C19.8288 21.6657 19.7536 21.7157 19.6944 21.8156C19.6351 21.9139 19.6007 22.0671 19.5911 22.2751H20.2394C20.2362 22.0753 20.2066 21.9237 20.1506 21.8205C20.0946 21.7173 20.0177 21.6657 19.9201 21.6657Z" fill="#028577"/>
<path d="M22.6214 23.9508V22.3193C22.6214 22.1211 22.5982 21.9712 22.5518 21.8697C22.5053 21.7681 22.4301 21.7173 22.326 21.7173C22.1884 21.7173 22.0875 21.7878 22.0235 21.9286C21.9595 22.0679 21.9275 22.3038 21.9275 22.6363V23.9508H21.2887V21.2136H21.7954L21.8722 21.565H21.913C21.9707 21.4389 22.0531 21.3406 22.1604 21.2702C22.2676 21.1981 22.3933 21.162 22.5373 21.162C22.7807 21.162 22.9624 21.2472 23.0824 21.4176C23.2041 21.5879 23.2649 21.8369 23.2649 22.1645V23.9508H22.6214Z" fill="#028577"/>
<path d="M24.4847 24C24.2382 24 24.0437 23.8755 23.9012 23.6265C23.7587 23.3775 23.6875 23.0311 23.6875 22.5871C23.6875 22.1416 23.7571 21.7927 23.8964 21.5404C24.0357 21.2882 24.2278 21.162 24.4727 21.162C24.5943 21.162 24.6992 21.1932 24.7872 21.2554C24.8769 21.316 24.9593 21.4192 25.0346 21.565H25.073C25.0538 21.316 25.0442 21.1416 25.0442 21.0416V20.1276H25.6829V23.9508H25.2074L25.0994 23.5945H25.0778C24.9417 23.8648 24.744 24 24.4847 24ZM24.6912 23.4471C24.8097 23.4471 24.8961 23.3922 24.9505 23.2825C25.0049 23.1711 25.0346 22.9696 25.0394 22.6781V22.5921C25.0394 22.2743 25.0113 22.0507 24.9553 21.9213C24.9009 21.7919 24.8104 21.7272 24.684 21.7272C24.5655 21.7272 24.4791 21.8017 24.4247 21.9508C24.3718 22.0982 24.3454 22.3136 24.3454 22.597C24.3454 22.8804 24.3726 23.0933 24.4271 23.2358C24.4815 23.3767 24.5695 23.4471 24.6912 23.4471Z" fill="#028577"/>
<path d="M27.5318 23.9508L27.4045 23.5773H27.3901C27.2957 23.7379 27.198 23.8484 27.0972 23.909C26.9963 23.9697 26.8691 24 26.7154 24C26.5185 24 26.3632 23.9246 26.2496 23.7739C26.1375 23.6232 26.0815 23.4135 26.0815 23.1449C26.0815 22.8566 26.1583 22.6428 26.312 22.5036C26.4673 22.3627 26.6986 22.2849 27.0059 22.2702L27.3613 22.2554V22.0589C27.3613 21.8033 27.2532 21.6756 27.0371 21.6756C26.8771 21.6756 26.693 21.7395 26.4849 21.8672L26.264 21.4151C26.5297 21.2431 26.8186 21.1571 27.1308 21.1571C27.4141 21.1571 27.6294 21.2407 27.7767 21.4077C27.9256 21.5732 28 21.8083 28 22.1129V23.9508H27.5318ZM26.9771 23.4889C27.094 23.4889 27.1868 23.4357 27.2556 23.3292C27.3261 23.2211 27.3613 23.0777 27.3613 22.8992V22.6682L27.1644 22.6781C27.0187 22.6862 26.9115 22.7288 26.8426 22.8058C26.7754 22.8828 26.7418 22.9975 26.7418 23.1498C26.7418 23.3759 26.8202 23.4889 26.9771 23.4889Z" fill="#028577"/>
<path fill-rule="evenodd" clip-rule="evenodd" d="M21.3574 1.04021C21.4646 1.04436 21.5697 1.04843 21.6725 1.05224L23 1.10134L21.8664 1.79724C21.5021 2.02093 21.2936 2.36722 21.1651 2.85207C21.0399 3.32476 21.0021 3.88133 20.9589 4.51902C20.9564 4.55608 20.9538 4.59342 20.9513 4.63103C20.8611 5.95117 20.7334 7.56673 19.4867 8.74601C18.6579 9.5301 17.5004 9.76789 16.4109 9.75131C15.5078 9.73756 14.6064 9.54911 13.8806 9.30657C13.7054 10.1698 13.6075 11.2004 13.582 12.4749C13.5706 13.045 13.5635 13.4931 13.5751 14.0761C14.3023 13.9737 15.0712 13.9585 15.8405 14.0358C17.8155 14.2345 19.8629 15.05 21.2883 16.6619L20.69 17.1961C19.4292 15.7703 17.5879 15.0198 15.7607 14.8361C14.3203 14.6912 12.9316 14.9026 11.8842 15.3747C12.5956 15.6214 13.323 15.9575 14.0627 16.3932L13.658 17.087C12.6582 16.4982 11.6944 16.1093 10.7766 15.8846C7.85351 15.1687 5.33539 16.1054 3.52718 17.6956L3 17.0904C4.93718 15.3868 7.65072 14.3545 10.7899 15.0617C11.3507 14.6886 12.0308 14.4082 12.7777 14.2275C12.7624 13.5846 12.7688 13.1112 12.7804 12.5229C12.5721 11.8462 12.3347 11.3516 12.0067 10.9663C11.7975 11.2807 11.5035 11.6368 11.0959 11.937C10.4568 12.4075 9.56556 12.7203 8.3526 12.5639C7.18524 12.4133 6.45673 11.6891 5.85075 11.0737L5.83236 11.0551C5.20719 10.4201 4.72787 9.93327 4.00706 9.84031L3.09659 9.72288L3.80184 9.1325C3.86354 9.08085 3.9433 9.00319 4.04206 8.90705C4.63793 8.32692 5.92532 7.07357 8.10893 6.79688C9.74856 6.58912 10.7836 7.08018 11.4178 7.87462C11.979 8.57769 12.1816 9.46801 12.2924 10.1116C12.5145 10.3119 12.7035 10.5333 12.8676 10.7776C12.9287 10.0848 13.0211 9.4657 13.1481 8.9045C12.5419 8.30038 11.9604 7.41523 11.7899 6.39542C11.5978 5.24664 11.938 3.98256 13.2204 2.8406C14.4296 1.76378 15.9532 1.30134 17.4521 1.11345C18.8207 0.941898 20.2068 0.995612 21.3574 1.04021ZM14.0737 8.52326C14.5187 7.01552 15.2811 6.03208 16.4684 5.00782L15.9469 4.39762C14.7491 5.43104 13.9124 6.47047 13.402 7.99073C13.0122 7.51138 12.6875 6.9096 12.5793 6.26218C12.4357 5.40344 12.6625 4.41202 13.7513 3.44249C14.7925 2.51526 16.1362 2.08889 17.5512 1.91152C18.6328 1.77595 19.7294 1.78839 20.7348 1.82212C20.5772 2.0749 20.4687 2.35449 20.3917 2.64513C20.2456 3.19625 20.2031 3.82775 20.162 4.43887C20.1589 4.4847 20.1558 4.53041 20.1527 4.57596C20.0601 5.93137 19.9271 7.22479 18.9381 8.16044C18.3248 8.7406 17.4131 8.96221 16.4231 8.94714C15.5863 8.93441 14.7403 8.75241 14.0737 8.52326ZM11.3299 9.47427C11.2154 9.08403 11.05 8.69924 10.7934 8.37782C10.3622 7.83769 9.62177 7.41581 8.20908 7.59481C6.52907 7.80769 5.49328 8.64805 4.84658 9.25211C5.45676 9.52628 5.92049 9.99912 6.33447 10.4212C6.36313 10.4505 6.39154 10.4794 6.41975 10.5081C7.03367 11.1316 7.58875 11.6545 8.4545 11.7662C9.46447 11.8964 10.1498 11.6365 10.6228 11.2882C10.9732 11.0302 11.2216 10.7127 11.397 10.4329C10.8239 10.057 10.006 9.77715 8.75534 9.52687L8.91169 8.7381C9.90375 8.93664 10.6942 9.16401 11.3299 9.47427Z" fill="#028577"/>
</svg>
