<svg width="24" height="24" viewBox="0 0 24 24" fill="none" xmlns="http://www.w3.org/2000/svg">
<path d="M5.54857 22.7672V21.1018C5.54857 20.6921 5.44071 20.4873 5.22498 20.4873C5.06809 20.4873 4.95577 20.5609 4.88802 20.708C4.82028 20.8535 4.7864 21.0876 4.7864 21.4103V22.7672H4.0697V21.1018C4.0697 20.6921 3.96005 20.4873 3.74076 20.4873C3.58743 20.4873 3.47601 20.56 3.40647 20.7055C3.33694 20.851 3.30218 21.0909 3.30218 21.4253V22.7672H2.59082V19.9731H3.15509L3.24067 20.3318H3.28613C3.35745 20.1896 3.45461 20.086 3.57763 20.0208C3.70243 19.9539 3.83525 19.9204 3.9761 19.9204C4.3398 19.9204 4.58227 20.0818 4.7035 20.4045H4.73024C4.88178 20.0818 5.12514 19.9204 5.46032 19.9204C5.72418 19.9204 5.92386 20.0074 6.05936 20.1813C6.19664 20.3552 6.26528 20.6093 6.26528 20.9438V22.7672H5.54857Z" fill="#028577"/>
<path d="M6.54073 19.9731H7.27883L7.69067 21.5507C7.73167 21.6912 7.76466 21.8877 7.78961 22.1402H7.80566C7.80744 22.1 7.81547 22.029 7.82973 21.927C7.84399 21.8233 7.85558 21.7422 7.86449 21.6837C7.87341 21.6252 7.99643 21.055 8.23354 19.9731H8.98234L8.12925 22.9679C8.02584 23.3357 7.88856 23.5999 7.71741 23.7604C7.54626 23.921 7.31805 24.0012 7.03279 24.0012C6.89195 24.0012 6.76626 23.987 6.65572 23.9586V23.3993C6.72882 23.4193 6.81083 23.4294 6.90175 23.4294C7.14066 23.4294 7.29755 23.2822 7.37243 22.9879L7.42324 22.8124L6.54073 19.9731Z" fill="#028577"/>
<path d="M11.9642 20.5023H11.4721V22.7672H10.7607V20.5023H10.4158V20.1687L10.7607 19.9681V19.7574C10.7607 19.4464 10.8294 19.2156 10.9667 19.0652C11.1039 18.913 11.325 18.8369 11.6299 18.8369C11.8224 18.8369 12.0016 18.8745 12.1674 18.9498L11.9802 19.4589C11.8911 19.4188 11.8001 19.3987 11.7074 19.3987C11.6254 19.3987 11.5657 19.4288 11.5283 19.489C11.4908 19.5492 11.4721 19.642 11.4721 19.7674V19.9731H11.9642V20.5023Z" fill="#028577"/>
<path d="M13.7372 22.7672L13.5955 22.386H13.5794C13.4742 22.5498 13.3655 22.6627 13.2532 22.7246C13.1408 22.7864 12.9991 22.8174 12.828 22.8174C12.6087 22.8174 12.4357 22.7405 12.3091 22.5866C12.1843 22.4328 12.1219 22.2188 12.1219 21.9445C12.1219 21.6502 12.2075 21.432 12.3787 21.2899C12.5516 21.1461 12.8092 21.0667 13.1515 21.0516L13.5473 21.0366V20.8359C13.5473 20.5751 13.427 20.4446 13.1863 20.4446C13.008 20.4446 12.803 20.5099 12.5712 20.6403L12.3252 20.1788C12.6211 20.0032 12.9429 19.9154 13.2906 19.9154C13.6062 19.9154 13.846 20.0007 14.01 20.1713C14.1758 20.3401 14.2587 20.5801 14.2587 20.8911V22.7672H13.7372ZM13.1194 22.2957C13.2496 22.2957 13.353 22.2413 13.4297 22.1326C13.5081 22.0223 13.5473 21.876 13.5473 21.6937V21.4579L13.328 21.468C13.1658 21.4763 13.0464 21.5198 12.9697 21.5984C12.8948 21.677 12.8574 21.794 12.8574 21.9495C12.8574 22.1803 12.9447 22.2957 13.1194 22.2957Z" fill="#028577"/>
<path d="M16.1039 19.9204C16.1913 19.9204 16.2769 19.933 16.3607 19.9581L16.2778 20.6052C16.2278 20.5884 16.1628 20.5801 16.0825 20.5801C15.9096 20.5801 15.7768 20.6445 15.6841 20.7732C15.5914 20.9003 15.545 21.0859 15.545 21.33V22.7672H14.8337V19.9731H15.4193L15.4996 20.4095H15.5236C15.6021 20.234 15.6876 20.1086 15.7804 20.0333C15.8731 19.9581 15.9809 19.9204 16.1039 19.9204Z" fill="#028577"/>
<path d="M19.6367 22.7672V21.1018C19.6367 20.6921 19.5288 20.4873 19.3131 20.4873C19.1562 20.4873 19.0439 20.5609 18.9761 20.708C18.9084 20.8535 18.8745 21.0876 18.8745 21.4103V22.7672H18.1578V21.1018C18.1578 20.6921 18.0481 20.4873 17.8289 20.4873C17.6755 20.4873 17.5641 20.56 17.4946 20.7055C17.425 20.851 17.3903 21.0909 17.3903 21.4253V22.7672H16.6789V19.9731H17.2432L17.3288 20.3318H17.3742C17.4455 20.1896 17.5427 20.086 17.6657 20.0208C17.7905 19.9539 17.9233 19.9204 18.0642 19.9204C18.4279 19.9204 18.6704 20.0818 18.7916 20.4045H18.8183C18.9699 20.0818 19.2132 19.9204 19.5484 19.9204C19.8123 19.9204 20.012 20.0074 20.1474 20.1813C20.2847 20.3552 20.3534 20.6093 20.3534 20.9438V22.7672H19.6367Z" fill="#028577"/>
<path fill-rule="evenodd" clip-rule="evenodd" d="M20.3583 1.03997C20.4653 1.0441 20.5704 1.04815 20.6732 1.05194L21.9999 1.10078L20.867 1.793C20.5028 2.0155 20.2945 2.35996 20.1661 2.84225C20.0409 3.31244 20.0031 3.86606 19.9599 4.50038C19.9574 4.53724 19.9549 4.57438 19.9523 4.61179C19.8622 5.92495 19.7345 7.53196 18.4886 8.705C17.6602 9.48494 16.5033 9.72147 15.4144 9.70498C14.5118 9.6913 13.6108 9.50385 12.8855 9.2626C12.7104 10.1213 12.6125 11.1464 12.587 12.4142C12.5756 12.9813 12.5685 13.4269 12.5801 14.0069C13.3069 13.905 14.0754 13.8899 14.8443 13.9668C16.8183 14.1644 18.8645 14.9756 20.2892 16.579L19.6912 17.1104C18.431 15.6922 16.5908 14.9456 14.7646 14.7628C13.3249 14.6188 11.937 14.829 10.8901 15.2987C11.6012 15.544 12.3282 15.8784 13.0675 16.3117L12.663 17.0019C11.6637 16.4162 10.7005 16.0294 9.78314 15.8058C6.86163 15.0937 4.34488 16.0254 2.53764 17.6072L2.01074 17.0053C3.94688 15.3106 6.65895 14.2838 9.79639 14.9873C10.3569 14.6161 11.0366 14.3372 11.7832 14.1575C11.7679 13.5179 11.7743 13.0471 11.7859 12.4619C11.5777 11.7888 11.3404 11.2968 11.0125 10.9135C10.8035 11.2263 10.5096 11.5805 10.1023 11.8791C9.46354 12.3471 8.57276 12.6583 7.36045 12.5027C6.19372 12.3529 5.46561 11.6326 4.85995 11.0204L4.84158 11.0018C4.21674 10.3702 3.73768 9.88598 3.01726 9.79351L2.10728 9.67671L2.81215 9.08945C2.87381 9.03807 2.95353 8.96082 3.05224 8.86518C3.64779 8.28813 4.93448 7.04141 7.11692 6.76618C8.75566 6.55952 9.79014 7.04798 10.424 7.83822C10.9849 8.53757 11.1874 9.42318 11.2982 10.0633C11.5201 10.2626 11.709 10.4828 11.873 10.7258C11.9341 10.0367 12.0264 9.42088 12.1533 8.86265C11.5475 8.26173 10.9663 7.38126 10.7959 6.36685C10.6039 5.22415 10.9439 3.96676 12.2256 2.83083C13.4342 1.75972 14.9569 1.29972 16.4551 1.11283C17.8229 0.942182 19.2082 0.995612 20.3583 1.03997ZM13.0784 8.48343C13.5232 6.98367 14.2852 6.00543 15.4718 4.98659L14.9507 4.37962C13.7535 5.40757 12.9173 6.4415 12.4072 7.95372C12.0176 7.4769 11.693 6.87831 11.5848 6.23431C11.4414 5.38012 11.668 4.39394 12.7562 3.42954C13.7969 2.50722 15.1398 2.08311 16.5541 1.90668C17.6351 1.77182 18.7312 1.7842 19.736 1.81774C19.5784 2.06919 19.47 2.3473 19.393 2.6364C19.247 3.1846 19.2046 3.81277 19.1635 4.42065C19.1604 4.46623 19.1573 4.5117 19.1542 4.55702C19.0617 5.90525 18.9288 7.19183 17.9402 8.12253C17.3272 8.69961 16.416 8.92006 15.4266 8.90507C14.5902 8.8924 13.7447 8.71136 13.0784 8.48343ZM10.3361 9.42941C10.2217 9.04123 10.0563 8.65848 9.79991 8.33876C9.36898 7.80149 8.62893 7.38184 7.21701 7.5599C5.53791 7.77165 4.50268 8.60755 3.85633 9.20842C4.46617 9.48114 4.92965 9.95148 5.34341 10.3714C5.37205 10.4004 5.40045 10.4293 5.42865 10.4577C6.04224 11.0779 6.59702 11.5981 7.4623 11.7092C8.47173 11.8387 9.15664 11.5802 9.62938 11.2338C9.97968 10.9771 10.2279 10.6613 10.4032 10.383C9.83038 10.0091 9.01295 9.73069 7.76297 9.48172L7.91924 8.69713C8.91076 8.89462 9.70081 9.12079 10.3361 9.42941Z" fill="#028577"/>
</svg>
