<svg width="17" height="16" viewBox="0 0 17 16" fill="none" xmlns="http://www.w3.org/2000/svg">
<rect x="1.1665" y="0.5" width="15" height="15" rx="2.16667" stroke="currentColor"/>
<path d="M6.55549 10.9456H5.22797V7.53665C5.22797 7.44262 5.2294 7.32711 5.23227 7.1901C5.23513 7.05041 5.23943 6.90804 5.24516 6.76297C5.25088 6.61522 5.25661 6.48225 5.26234 6.36405C5.23083 6.39897 5.16639 6.45941 5.06901 6.54538C4.9745 6.62865 4.88571 6.70387 4.80265 6.77103L4.5791 7.04903L3.93896 6.29954L5.46426 5.05444H6.55549V10.9456Z" fill="#98A1B1"/>
<path d="M8.16287 9.69242C8.16287 9.4399 8.23591 9.2626 8.38198 9.16052C8.53091 9.05844 8.70992 9.00739 8.919 9.00739C9.12235 9.00739 9.29706 9.05844 9.44313 9.16052C9.59207 9.2626 9.66653 9.4399 9.66653 9.69242C9.66653 9.93419 9.59207 10.1088 9.44313 10.2163C9.29706 10.3237 9.12235 10.3774 8.919 10.3774C8.70992 10.3774 8.53091 10.3237 8.38198 10.2163C8.23591 10.1088 8.16287 9.93419 8.16287 9.69242ZM8.16287 6.36401C8.16287 6.11149 8.23591 5.93419 8.38198 5.83211C8.53091 5.73003 8.70992 5.67899 8.919 5.67899C9.12235 5.67899 9.29706 5.73003 9.44313 5.83211C9.59207 5.93419 9.66653 6.11149 9.66653 6.36401C9.66653 6.60847 9.59207 6.78443 9.44313 6.89188C9.29706 6.99665 9.12235 7.04903 8.919 7.04903C8.70992 7.04903 8.53091 6.99665 8.38198 6.89188C8.23591 6.78443 8.16287 6.60847 8.16287 6.36401Z" fill="#98A1B1"/>
<path d="M13.3941 10.9456H12.0666V7.53665C12.0666 7.44262 12.068 7.32711 12.0709 7.1901C12.0737 7.05041 12.078 6.90804 12.0838 6.76297C12.0895 6.61522 12.0952 6.48225 12.1009 6.36405C12.0694 6.39897 12.005 6.45941 11.9076 6.54538C11.8131 6.62865 11.7243 6.70387 11.6413 6.77103L11.3067 7.11351L10.6665 6.36401L12.3029 5.05444H13.3941V10.9456Z" fill="#98A1B1"/>
</svg>
