<svg width="8" height="22" viewBox="0 0 8 22" fill="none" xmlns="http://www.w3.org/2000/svg">
<path id="Icon" d="M1.4758 5.47738H3.28426M1.4758 9.39573H3.28426M1.4758 13.3141H3.28426M1.4758 17.2324H3.28426M1.55499 21.1508H6.21918C6.45791 21.1508 6.57728 21.1508 6.66846 21.1005C6.74866 21.0562 6.81387 20.9856 6.85474 20.8987C6.9012 20.7999 6.9012 20.6706 6.9012 20.412L6.9012 2.29793C6.9012 2.03931 6.9012 1.91 6.85474 1.81122C6.81387 1.72433 6.74866 1.65369 6.66846 1.60941C6.57728 1.55908 6.45791 1.55908 6.21918 1.55908L1.55499 1.55908C1.31626 1.55908 1.19689 1.55908 1.10571 1.60941C1.02551 1.65369 0.960297 1.72433 0.91943 1.81122C0.872971 1.91 0.872971 2.03931 0.872971 2.29793L0.872971 20.412C0.872971 20.6706 0.872971 20.7999 0.91943 20.8987C0.960297 20.9856 1.02551 21.0562 1.10571 21.1005C1.19689 21.1508 1.31626 21.1508 1.55499 21.1508Z" stroke="#5D697E" stroke-width="1.50706" stroke-linecap="round" stroke-linejoin="round"/>
</svg>
