<svg width="23" height="22" viewBox="0 0 23 22" fill="none" xmlns="http://www.w3.org/2000/svg">
<path id="Vector" d="M16.2233 13.8365H15.2296L14.8774 13.4969C16.1101 12.0629 16.8522 10.2013 16.8522 8.1761C16.8522 3.66038 13.1918 0 8.6761 0C4.16038 0 0.5 3.66038 0.5 8.1761C0.5 12.6918 4.16038 16.3522 8.6761 16.3522C10.7013 16.3522 12.5629 15.6101 13.9969 14.3774L14.3365 14.7296V15.7233L20.6258 22L22.5 20.1258L16.2233 13.8365ZM8.6761 13.8365C5.54402 13.8365 3.01572 11.3082 3.01572 8.1761C3.01572 5.04402 5.54402 2.51572 8.6761 2.51572C11.8082 2.51572 14.3365 5.04402 14.3365 8.1761C14.3365 11.3082 11.8082 13.8365 8.6761 13.8365Z" fill="#9FAABE"/>
</svg>
