<svg width="22" height="22" viewBox="0 0 22 22" fill="none" xmlns="http://www.w3.org/2000/svg">
<path id="Icon" d="M12.8249 9.12892L8.93577 13.018M9.08203 13.284L12.3628 19.8669C12.6206 20.384 12.7495 20.6426 12.9153 20.7154C13.0593 20.7786 13.2247 20.7703 13.3617 20.6931C13.5195 20.6042 13.6219 20.334 13.8269 19.7938L20.3261 2.65942C20.5261 2.13208 20.6261 1.8684 20.5687 1.69853C20.5187 1.55094 20.4028 1.43506 20.2553 1.38513C20.0854 1.32766 19.8217 1.42767 19.2944 1.6277L2.15407 8.12923C1.61544 8.33354 1.34612 8.43569 1.25718 8.5932C1.17994 8.72999 1.17148 8.89513 1.23433 9.03909C1.30671 9.20487 1.56417 9.33401 2.07911 9.59231L8.72472 12.9258C8.81316 12.9701 8.85738 12.9923 8.89568 13.0219C8.92967 13.0482 8.96014 13.0787 8.98632 13.1128C9.01583 13.1512 9.0379 13.1954 9.08203 13.284Z" stroke="#032D61" stroke-width="2" stroke-linecap="round" stroke-linejoin="round"/>
</svg>
