<svg xmlns="http://www.w3.org/2000/svg" xmlns:xlink="http://www.w3.org/1999/xlink" version="1.1" style="" xml:space="preserve" width="100" height="100.50724632673419"><rect id="backgroundrect" width="100%" height="100%" x="0" y="0" fill="none" stroke="none" class="" style=""/><g class="currentLayer" style=""><title>Layer 1</title><path d="M46.6,46.63333247900009 c1.8,-8 9.7,-26.1 16.6,-27 c-0.8,-0.1 -1.5,-0.1 -2.3,-0.1 c-9.7,0 -20.1,18.4 -22.6,27.1 L100,82.5333324790001 l0,-8.8 L46.6,46.63333247900009 z" id="svg_1" class="" fill="#ffffff" fill-opacity="1"/><path d="M0,43.10869479179382 c6.5,-9.2 23,-24 39.4,-24.3 c-0.5,0 -1.1,0 -1.6,0 C23.3,18.808694791793826 8.9,28.108694791793823 0,36.708694791793825 C0,40.808694791793826 0,38.208694791793825 0,43.10869479179382 z" id="svg_2" class="" fill="#ffffff" fill-opacity="1"/><path d="M46.7,18.808694791793826 c-0.6000000000000002,0 -1.3,0 -2,0 c-17,0 -33.8,18.4 -38.1,27.1 L29.9,82.60869479179382 h17.6 L14.9,45.90869479179382 C18.7,37.50869479179382 32.2,19.308694791793826 46.7,18.808694791793826 z" id="svg_3" class="" fill="#ffffff" fill-opacity="1"/><path d="M54.8,18.808694791793826 c-0.7000000000000002,0 -1.4,-0.1 -2.1,-0.1 c-13.4,0 -27,18.4 -30.4,27.1 h0 l0,0 c0,0 0,0 0,0 h0 L67.5,82.60869479179382 H85 L30.6,45.90869479179382 C33.5,37.60869479179382 44,19.40869479179382 54.8,18.808694791793826 z" id="svg_4" class="" fill="#ffffff" fill-opacity="1"/><path d="M100,65.10869479179382 l0,-5.2 l-36.3,-14 c2,-8 0.2,-26.1 7.8,-27 c-0.8,-0.1 -1.7000000000000002,-0.1 -2.5,-0.1 c-10.6,0 -11.6,18.4 -14.3,27.1 L100,65.10869479179382 z" id="svg_5" class="" fill="#ffffff" fill-opacity="1"/><polygon points="0,82.60869479179382 9.600000381469727,82.60869479179382 0,45.90869402885437 " id="svg_6" class="" fill="#ffffff" fill-opacity="1"/><path d="M72.6,45.90869479179382 l27.4,9 l0,-4 l-18.4,-5 c2.3,-8 -9.5,-26.1 -0.7000000000000002,-27 c-1,-0.1 -1.9,-0.1 -2.9,-0.1 C65.7,18.808694791793826 75.8,37.10869479179382 72.6,45.90869479179382 z" id="svg_7" class="" fill="#ffffff" fill-opacity="1"/><path d="M100,45.90869479179382 L100,45.90869479179382 c0,0 0,-2.1 0,-7.6 C94.4,29.808694791793826 82.3,19.608694791793823 88.9,18.90869479179382 c-1,-0.1 -1.9,-0.1 -2.9,-0.1 c-12.3,0 9.2,18.3 6.2,27.1 h0 l0,0 c0,0 0,0 0,0.1 h0.2 L100,47.60869479179382 L100,45.90869479179382 z" id="svg_8" class="" fill="#ffffff" fill-opacity="1"/><path d="M28.5,18.808694791793826 c-5.4,0 -10.8,1 -15.9,2.6 v-3.3 c1.6,-0.2 2.8,-1.9 2.8,-4 c0,-2.2 -1.9,-4 -3.1,-4 c-1.2,0 -3.1,1.8 -3.1,4 c0,2 1.1,3.6 2.5,3.9 V21.608694791793823 c-1.3,0.4 -2.6,0.9 -3.9,1.4 v-1.6 c0.8,-0.1 1.4,-0.9 1.4,-2 c0,-1.1 -0.9,-2 -1.5,-2 c-0.6000000000000002,0 -1.5,0.9 -1.5,2 c0,1 0.5,1.8 1.3,2 v1.8 c-2.6,1.1 -5.1,2.2 -7.5,3.5 c0,3.2 0,1.1 0,3.2 c8.7,-6 19.5,-11 30.4,-11.2 C29.8,18.808694791793826 29.2,18.808694791793826 28.5,18.808694791793826 z" id="svg_9" class="" fill="#ffffff" fill-opacity="1"/><path d="M100,28.208694791793825 c0,-2.8 0,0 0,-4.3 c-3.9,-2.8 -5.9,-4.7 -3.1,-5 c-1,-0.1 -1.9,-0.1 -2.9,-0.1 C88.1,18.808694791793826 93.3,22.90869479179382 100,28.208694791793825 z" id="svg_10" class="" fill="#ffffff" fill-opacity="1"/></g></svg>