<svg width="48" height="48" viewBox="0 0 48 48" fill="none" xmlns="http://www.w3.org/2000/svg">
<g clip-path="url(#clip0_3196_7572)">
<path d="M22.74 13.0576C22.6036 13.0576 22.4702 13.0981 22.3567 13.1739C22.2432 13.2497 22.1548 13.3575 22.1026 13.4836C22.0503 13.6096 22.0367 13.7484 22.0633 13.8822C22.0899 14.0161 22.1556 14.139 22.2521 14.2355C22.3486 14.332 22.4716 14.3977 22.6054 14.4244C22.7393 14.451 22.878 14.4373 23.0041 14.3851C23.1302 14.3329 23.2379 14.2444 23.3138 14.131C23.3896 14.0175 23.43 13.8841 23.43 13.7476C23.43 13.657 23.4122 13.5673 23.3775 13.4836C23.3429 13.3999 23.292 13.3238 23.228 13.2597C23.1639 13.1956 23.0878 13.1448 23.0041 13.1101C22.9204 13.0755 22.8307 13.0576 22.74 13.0576Z" fill="#028577"/>
<path d="M25.2599 14.4376C25.3964 14.4376 25.5298 14.3972 25.6433 14.3213C25.7568 14.2455 25.8452 14.1378 25.8974 14.0117C25.9496 13.8856 25.9633 13.7469 25.9367 13.613C25.9101 13.4792 25.8444 13.3562 25.7479 13.2597C25.6514 13.1632 25.5284 13.0975 25.3946 13.0709C25.2607 13.0443 25.122 13.0579 24.9959 13.1101C24.8698 13.1624 24.7621 13.2508 24.6862 13.3643C24.6104 13.4777 24.5699 13.6111 24.5699 13.7476C24.5699 13.8382 24.5878 13.928 24.6225 14.0117C24.6571 14.0954 24.708 14.1714 24.772 14.2355C24.8361 14.2996 24.9122 14.3504 24.9959 14.3851C25.0796 14.4198 25.1693 14.4376 25.2599 14.4376Z" fill="#028577"/>
<path d="M24 0.120117C19.277 0.120117 14.66 1.52065 10.733 4.14462C6.80594 6.76859 3.74518 10.4981 1.93776 14.8616C0.130342 19.2251 -0.342562 24.0266 0.578853 28.6589C1.50027 33.2911 3.77462 37.5461 7.1143 40.8858C10.454 44.2255 14.709 46.4999 19.3412 47.4213C23.9735 48.3427 28.775 47.8698 33.1385 46.0624C37.502 44.2549 41.2315 41.1942 43.8555 37.2671C46.4795 33.3401 47.88 28.7231 47.88 24.0001C47.874 17.6686 45.3562 11.5981 40.8791 7.12099C36.4021 2.64391 30.3315 0.126074 24 0.120117ZM24 46.3801C19.5737 46.3801 15.2467 45.0676 11.5663 42.6084C7.88597 40.1493 5.01747 36.654 3.32358 32.5646C1.62969 28.4752 1.18649 23.9753 2.05003 19.634C2.91357 15.2927 5.04506 11.305 8.17496 8.17507C11.3049 5.04517 15.2926 2.91368 19.6339 2.05014C23.9752 1.18661 28.475 1.6298 32.5645 3.32369C36.6539 5.01758 40.1491 7.88608 42.6083 11.5665C45.0674 15.2468 46.38 19.5738 46.38 24.0001C46.374 29.9338 44.0142 35.6228 39.8185 39.8186C35.6227 44.0144 29.9337 46.3742 24 46.3801Z" fill="#028577"/>
<path d="M24.0001 4.25994C19.5016 4.24087 15.135 5.77768 11.6401 8.60994C11.5587 8.67563 11.492 8.75761 11.4442 8.85061C11.3964 8.9436 11.3686 9.04556 11.3626 9.14994C11.3568 9.25489 11.3733 9.35986 11.4107 9.45806C11.4482 9.55625 11.5059 9.64547 11.5801 9.71994L38.2501 36.4199C38.3201 36.4894 38.4032 36.5444 38.4946 36.5818C38.586 36.6191 38.6839 36.638 38.7826 36.6374C38.8882 36.6324 38.9916 36.6051 39.086 36.5573C39.1804 36.5094 39.2635 36.4422 39.3301 36.3599C41.657 33.4624 43.1187 29.9668 43.5471 26.2753C43.9754 22.5838 43.3531 18.8464 41.7516 15.4929C40.15 12.1395 37.6344 9.3062 34.4941 7.31903C31.3538 5.33186 27.7163 4.2715 24.0001 4.25994ZM20.9101 14.7599C20.8894 14.3408 20.9541 13.9219 21.1003 13.5286C21.2465 13.1353 21.471 12.7758 21.7603 12.4719C22.0496 12.1679 22.3977 11.926 22.7833 11.7607C23.169 11.5953 23.5842 11.5101 24.0038 11.5101C24.4234 11.5101 24.8386 11.5953 25.2243 11.7607C25.6099 11.926 25.958 12.1679 26.2473 12.4719C26.5366 12.7758 26.7612 13.1353 26.9073 13.5286C27.0535 13.9219 27.1182 14.3408 27.0976 14.7599C27.0916 14.916 27.0741 15.0715 27.0451 15.2249C26.0901 14.7854 25.0513 14.5578 24.0001 14.5578C22.9488 14.5578 21.91 14.7854 20.9551 15.2249C20.927 15.0639 20.912 14.9009 20.9101 14.7374V14.7599ZM31.7776 27.7949L20.8951 16.9124C21.8313 16.3428 22.9042 16.037 24.0001 16.0274C28.3126 16.0274 31.8226 20.7974 31.8226 26.6624C31.8226 27.0374 31.8076 27.4199 31.7776 27.7949ZM38.7376 34.7549L33.1201 29.1374C33.2514 28.3239 33.3191 27.5015 33.3226 26.6774L35.7226 27.5174L36.1576 31.0949C36.1797 31.2779 36.2683 31.4463 36.4067 31.568C36.545 31.6897 36.7233 31.7563 36.9076 31.7549H36.9976C37.0963 31.7438 37.1919 31.7132 37.2787 31.6648C37.3656 31.6164 37.4419 31.5512 37.5033 31.473C37.5647 31.3949 37.61 31.3053 37.6365 31.2095C37.6629 31.1137 37.6701 31.0135 37.6576 30.9149L37.1626 26.8724C37.1454 26.734 37.09 26.6032 37.0025 26.4945C36.9151 26.3859 36.7991 26.3038 36.6676 26.2574L33.5851 25.1774C33.477 25.1481 33.3631 25.1481 33.2551 25.1774C33.2551 24.8849 33.1951 24.5924 33.1501 24.3074L37.0801 22.1024C37.1959 22.0373 37.2924 21.9426 37.3596 21.8279C37.4268 21.7133 37.4623 21.5828 37.4626 21.4499V19.0499C37.4626 18.851 37.3835 18.6603 37.2429 18.5196C37.1022 18.379 36.9115 18.2999 36.7126 18.2999C36.5136 18.2999 36.3229 18.379 36.1822 18.5196C36.0416 18.6603 35.9626 18.851 35.9626 19.0499V20.9999L32.8201 22.7624C32.1846 20.0698 30.6305 17.6829 28.4251 16.0124C28.5409 15.6075 28.6015 15.1887 28.6051 14.7674C28.6034 13.9889 28.4044 13.2236 28.0267 12.5428C27.6489 11.8621 27.1048 11.2883 26.4451 10.8749L26.9626 9.63744C27.0044 9.54634 27.0279 9.44788 27.0317 9.34769C27.0355 9.2475 27.0196 9.14754 26.9848 9.05353C26.9499 8.95951 26.8969 8.87327 26.8288 8.79973C26.7606 8.72619 26.6787 8.6668 26.5876 8.62494C26.4965 8.58308 26.398 8.55958 26.2978 8.55577C26.1976 8.55196 26.0977 8.56792 26.0036 8.60275C25.9096 8.63757 25.8234 8.69057 25.7498 8.75872C25.6763 8.82687 25.6169 8.90884 25.5751 8.99994L25.0501 10.2449C24.3604 10.0749 23.6397 10.0749 22.9501 10.2449L22.4251 8.99994C22.3893 8.90555 22.3348 8.81936 22.265 8.74651C22.1951 8.67367 22.1112 8.61568 22.0184 8.57602C21.9256 8.53636 21.8257 8.51584 21.7248 8.5157C21.6239 8.51555 21.5239 8.53578 21.431 8.57518C21.3381 8.61457 21.254 8.67232 21.184 8.74496C21.1139 8.81761 21.0592 8.90365 21.0231 8.99793C20.9871 9.09221 20.9705 9.1928 20.9742 9.29367C20.978 9.39454 21.0021 9.4936 21.0451 9.58494L21.5626 10.8224C20.9038 11.2362 20.3607 11.8103 19.9842 12.4911C19.6078 13.1718 19.4102 13.937 19.4101 14.7149C19.4111 14.9661 19.4311 15.2168 19.4701 15.4649L13.2451 9.23994C16.3651 6.95849 20.135 5.73867 24.0001 5.75994C28.8365 5.76589 33.4732 7.68927 36.8938 11.1084C40.3143 14.5276 42.2396 19.1635 42.2476 23.9999C42.2596 27.8683 41.0292 31.6384 38.7376 34.7549Z" fill="#028577"/>
<path d="M9.75006 11.5799C9.67559 11.5058 9.58637 11.4481 9.48817 11.4106C9.38998 11.3731 9.285 11.3567 9.18006 11.3624C9.07439 11.3675 8.97098 11.3948 8.87662 11.4426C8.78226 11.4904 8.69909 11.5577 8.63256 11.6399C6.3045 14.5408 4.84304 18.0402 4.41645 21.7351C3.98986 25.4301 4.61548 29.1704 6.22128 32.5254C7.82709 35.8805 10.3478 38.7137 13.4931 40.6991C16.6385 42.6844 20.2806 43.7411 24.0001 43.7474C28.4976 43.7616 32.8627 42.2253 36.3601 39.3974C36.4423 39.3309 36.5096 39.2477 36.5574 39.1534C36.6052 39.059 36.6325 38.9556 36.6376 38.8499C36.6433 38.745 36.6269 38.64 36.5894 38.5418C36.5519 38.4436 36.4942 38.3544 36.4201 38.2799L9.75006 11.5799ZM16.2076 26.6624C16.1777 24.8073 16.5326 22.966 17.2501 21.2549L29.7901 33.7499C28.2901 35.9999 26.2201 37.2749 24.0001 37.2749C19.6876 37.2974 16.1776 32.5274 16.1776 26.6624H16.2076ZM24.0001 42.2474C19.1623 42.2415 14.5245 40.3171 11.1037 36.8963C7.68292 33.4755 5.75851 28.8376 5.75256 23.9999C5.74051 20.1315 6.9709 16.3615 9.26256 13.2449L16.1401 20.1299C15.7344 20.9642 15.4104 21.8358 15.1726 22.7324L12.0451 20.9999V19.0499C12.0451 18.851 11.966 18.6603 11.8254 18.5196C11.6847 18.379 11.494 18.2999 11.2951 18.2999C11.0961 18.2999 10.9054 18.379 10.7647 18.5196C10.6241 18.6603 10.5451 18.851 10.5451 19.0499V21.4199C10.5453 21.5528 10.5808 21.6833 10.648 21.7979C10.7152 21.9126 10.8117 22.0073 10.9276 22.0724L14.8576 24.2774C14.8576 24.5624 14.7826 24.8549 14.7526 25.1474C14.6439 25.1229 14.5312 25.1229 14.4226 25.1474L11.3401 26.2499C11.2085 26.2963 11.0925 26.3784 11.0051 26.487C10.9177 26.5957 10.8622 26.7265 10.8451 26.8649L10.3501 30.9074C10.3375 31.006 10.3447 31.1062 10.3712 31.202C10.3976 31.2978 10.4429 31.3874 10.5043 31.4655C10.5657 31.5437 10.6421 31.6089 10.7289 31.6573C10.8157 31.7057 10.9113 31.7363 11.0101 31.7474H11.1001C11.2843 31.7488 11.4626 31.6822 11.6009 31.5605C11.7393 31.4388 11.828 31.2704 11.8501 31.0874L12.2851 27.5099L14.6851 26.6699C14.6675 29.1041 15.2579 31.5041 16.4026 33.6524L14.4601 36.0374C14.3499 36.1704 14.289 36.3373 14.2876 36.5099V38.6774C14.2876 38.8763 14.3666 39.0671 14.5072 39.2078C14.6479 39.3484 14.8386 39.4274 15.0376 39.4274C15.2365 39.4274 15.4272 39.3484 15.5679 39.2078C15.7085 39.0671 15.7876 38.8763 15.7876 38.6774V36.7874L17.2501 34.9949C18.9451 37.3274 21.3451 38.7974 24.0001 38.7974C26.6551 38.7974 29.0101 37.4174 30.7501 35.0024L32.2501 36.7874V38.6849C32.2501 38.8839 32.3291 39.0746 32.4697 39.2153C32.6104 39.3559 32.8011 39.4349 33.0001 39.4349C33.199 39.4349 33.3897 39.3559 33.5304 39.2153C33.671 39.0746 33.7501 38.8839 33.7501 38.6849V37.7024L34.7851 38.7374C31.6602 41.0352 27.8787 42.2659 24.0001 42.2474Z" fill="#028577"/>
</g>
<defs>
<clipPath id="clip0_3196_7572">
<rect width="48" height="48" fill="white"/>
</clipPath>
</defs>
</svg>
