<svg width="31" height="42" viewBox="0 0 31 42" fill="none" xmlns="http://www.w3.org/2000/svg">
<path d="M30.4321 38.9902L26.224 23.5309C26.1561 23.0521 25.9525 22.6417 25.7489 22.2997H26.8348C28.3959 22.2997 29.6176 21.0684 29.6176 19.4951C29.6176 18.6743 29.2104 17.9218 28.6674 17.3746C29.2783 16.8274 29.6176 16.0749 29.6176 15.2541C29.6176 14.4332 29.2104 13.6808 28.6674 13.1336C29.2783 12.5863 29.6176 11.8339 29.6176 11.013C29.6176 9.43974 28.3959 8.20847 26.8348 8.20847H25.138C24.9344 7.38762 24.5271 6.56677 23.8484 5.95114C22.9661 5.06189 21.7443 4.58306 20.4548 4.58306H19.0973V3.69381L23.1018 1.23127C23.509 1.09446 23.5769 0.684039 23.3733 0.34202C23.1697 0 22.7624 -0.0684039 22.4231 0.136808L19.1652 2.12052V0.684039C19.1652 0.273616 18.8937 0 18.4864 0C18.0792 0 17.8077 0.273616 17.8077 0.684039V2.12052L14.5498 0.136808C14.2104 -0.0684039 13.8032 0.0684039 13.5995 0.34202C13.3959 0.684039 13.5317 1.09446 13.8032 1.29967L17.8077 3.76221V4.58306H16.9932C15.9072 4.58306 14.8891 4.85668 13.9389 5.47231L7.49095 10.1238H1.17873C0.771493 10.1238 0.5 10.3974 0.5 10.8078V23.0521C0.5 23.4625 0.771493 23.7362 1.17873 23.7362H7.83032L9.05204 24.4202L6.47285 39.6743C6.40498 39.9479 6.6086 40.2899 6.88009 40.3583C6.94796 40.4267 7.08371 40.4267 7.15158 40.4267C7.3552 40.4267 7.55882 40.3583 7.69457 40.1531L14.957 31.4658L17.8756 41.4528C17.9434 41.7264 18.2149 41.9316 18.5543 41.9316C18.8937 41.9316 19.0973 41.7264 19.1652 41.3844L21.5407 31.9446L29.3462 39.6059C29.4819 39.7427 29.6176 39.8111 29.8213 39.8111C29.957 39.8111 30.0928 39.8111 30.1606 39.7427C30.4321 39.6059 30.5679 39.2638 30.4321 38.9902ZM22.2195 21.4104C22.0837 21.2052 21.948 21.0684 21.8122 20.9316C22.2873 21 22.7624 21.1368 23.1697 21.4104C23.5091 21.6156 23.7805 21.8208 23.9842 22.0945C24.4593 22.5733 24.7308 23.1889 24.8665 23.873L24.9344 24.1466L23.1018 25.1726C23.3733 23.8046 23.0339 22.5049 22.2195 21.4104ZM18.9615 15.3909C19.233 15.1173 19.5045 14.7752 19.7081 14.4332V17.443C19.7081 18.2638 20.0475 19.0163 20.5905 19.4951C20.3869 19.4951 20.1154 19.5635 19.9118 19.6319C19.5724 19.4951 19.3009 19.4267 18.9615 19.3583V15.5277C19.0294 15.5277 18.9615 15.4593 18.9615 15.3909ZM28.3281 19.4951C28.3281 20.316 27.7172 20.9316 26.9027 20.9316H24.7986C24.5271 20.658 24.1878 20.4528 23.8484 20.2476C23.7805 20.1792 23.6448 20.1792 23.5769 20.1107C24.3914 19.7687 25.0701 19.0163 25.2738 18.127H26.9027C27.6493 18.0586 28.3281 18.6743 28.3281 19.4951ZM28.3281 15.2541C28.3281 16.0749 27.7172 16.6906 26.9027 16.6906H25.3416V13.8176H26.9027C27.6493 13.8176 28.3281 14.4332 28.3281 15.2541ZM28.3281 11.013C28.3281 11.8339 27.7172 12.4495 26.9027 12.4495H25.3416V9.57655H26.9027C27.6493 9.57655 28.3281 10.1922 28.3281 11.013ZM8.03394 22.2313H1.85747V11.4235H7.76244C7.89819 11.4235 8.03394 11.355 8.16968 11.2866L14.7534 6.49837C15.4321 6.08795 16.2466 5.88274 17.0611 5.88274H20.5905C21.4728 5.88274 22.3552 6.22476 22.9661 6.90879C23.5769 7.52443 23.9842 8.41368 23.9842 9.30293V17.443C23.9842 18.2638 23.3733 18.8795 22.5588 18.8795C21.7443 18.8795 21.1335 18.2638 21.1335 17.443V11.6287C21.1335 11.355 20.9299 11.0814 20.6584 11.013C20.5905 11.013 20.5226 10.9446 20.4548 10.9446C20.1833 10.9446 19.9118 11.0814 19.8439 11.355C18.6222 14.7068 16.7896 15.9381 12.8529 17.443C12.5136 17.5798 12.31 17.9902 12.4457 18.3322C12.5814 18.6059 12.7851 18.7427 13.0566 18.7427C13.1244 18.7427 13.1923 18.7427 13.3281 18.6743C15.0928 17.9902 16.5181 17.3062 17.7398 16.4853V19.2215C17.1968 19.2899 16.7217 19.4267 16.2466 19.6319C14.8213 19.0163 13.1923 19.0847 11.8348 19.8371C10.681 20.4528 9.86652 21.5472 9.45928 22.7785L8.44118 22.2313C8.23756 22.2997 8.16968 22.2313 8.03394 22.2313ZM10.4774 24.1466C10.4774 24.0782 10.4774 24.0098 10.4774 24.0098C10.6131 22.7785 11.2919 21.7524 12.3778 21.2052C13.0566 20.7948 13.871 20.658 14.6176 20.7264C14.3462 21 14.1425 21.2052 13.9389 21.5472C12.9887 22.9153 12.7851 24.6938 13.3281 26.1987L14.2783 29.5505L12.1063 28.456C11.767 28.3192 11.3597 28.456 11.224 28.798C11.0882 29.1401 11.224 29.5505 11.5633 29.6873L13.7353 30.7818L8.16968 37.4169L10.4774 24.1466ZM18.4864 38.7166L15.9072 29.8241V29.7557L14.7534 25.7199C14.3462 24.557 14.4819 23.3257 15.1606 22.2997C15.8394 21.2736 16.9932 20.658 18.2149 20.658C19.4367 20.658 20.5226 21.2052 21.2014 22.1629C21.8801 23.1205 22.0837 24.3518 21.7443 25.5147L21.6765 25.7883H19.0294C18.6222 25.7883 18.3507 26.0619 18.3507 26.4723C18.3507 26.8827 18.6222 27.1564 19.0294 27.1564H21.3371L20.862 28.9349H20.7941H18.1471C17.7398 28.9349 17.4683 29.2085 17.4683 29.6189C17.4683 30.0293 17.7398 30.3029 18.1471 30.3029H20.5905L18.4864 38.7166ZM21.8801 30.4397L22.8303 26.6775C22.8982 26.6775 22.9661 26.6775 23.0339 26.6775C23.1697 26.6775 23.2376 26.6775 23.3733 26.6091L25.4095 25.4463L25.8846 27.1564H25.8167L23.5091 28.456C23.1697 28.6612 23.0339 29.0717 23.2376 29.4137C23.3733 29.6189 23.5769 29.7557 23.8484 29.7557C23.9842 29.7557 24.052 29.7557 24.1878 29.6873L26.2919 28.5244L28.5995 36.8697L21.8801 30.4397Z" fill="#028577"/>
</svg>
