<svg width="46" height="48" viewBox="0 0 46 48" fill="none" xmlns="http://www.w3.org/2000/svg">
<path d="M20.5 17.025C13.7858 17.025 8.31056 22.2879 7.90945 28.9H3.625C2.58648 28.9 1.85 28.1635 1.85 27.125V24.625C1.85 23.6619 2.58919 22.85 3.625 22.85C4.5854 22.85 5.4 23.6646 5.4 24.625C5.4 24.8404 5.465 25.0244 5.5953 25.1547C5.72561 25.285 5.90964 25.35 6.125 25.35C6.48436 25.35 6.85 25.0789 6.85 24.625C6.85 22.851 5.39898 21.4 3.625 21.4C1.77126 21.4 0.4 22.8527 0.4 24.625V27.125C0.4 28.9771 1.7729 30.35 3.625 30.35H7.90454C8.08816 33.9998 9.87991 37.4111 12.9 39.6751V44C12.9 45.8521 14.2729 47.225 16.125 47.225H17.375C19.1473 47.225 20.6 45.8537 20.6 44V42.225H30.4V44C30.4 45.8521 31.7729 47.225 33.625 47.225H34.875C36.6473 47.225 38.1 45.8537 38.1 44V39.6748C39.0163 38.9801 39.7828 38.1386 40.4718 37.225H42.375C44.1473 37.225 45.6 35.8537 45.6 34V27.75C45.6 25.976 44.149 24.525 42.375 24.525H41.971C41.3461 23.143 40.3516 21.767 39.205 20.686L40.5164 15.4404C40.5637 15.339 40.5612 15.2389 40.5384 15.1476C40.5162 15.0588 40.473 14.9723 40.4356 14.8976L40.4332 14.8928L40.4259 14.8783L40.4145 14.8668L40.4115 14.8639C40.3355 14.7879 40.2532 14.7055 40.1694 14.6427C40.0855 14.5798 39.9858 14.525 39.875 14.525H37.375C35.0956 14.525 32.9729 15.4624 31.3953 17.1026C31.2601 17.0996 31.1236 17.0826 30.9812 17.0648L30.9782 17.0645C30.8239 17.0452 30.6625 17.025 30.5 17.025H20.5ZM37.9293 21.4145L37.9293 21.4145L37.9316 21.4167C39.1708 22.5784 40.1763 23.9707 40.7953 25.5154C40.841 25.6918 40.9343 25.8121 41.0673 25.8847C41.1967 25.9552 41.3536 25.975 41.5156 25.975H42.375C43.3354 25.975 44.15 26.7896 44.15 27.75V34C44.15 35.0358 43.3382 35.775 42.375 35.775H40.1094C39.8289 35.775 39.6457 35.9598 39.5557 36.1339C38.7831 37.137 37.9338 37.9863 36.9306 38.7589C36.7352 38.8612 36.65 39.0592 36.65 39.3125V44C36.65 45.0358 35.8382 45.775 34.875 45.775H33.625C32.5865 45.775 31.85 45.0385 31.85 44V42.1301C32.0174 42.1018 32.1994 42.0852 32.3934 42.0684L32.4226 42.0658C32.6378 42.0472 32.866 42.0274 33.0946 41.9893L33.0946 41.9893L33.0977 41.9887C33.3172 41.9448 33.4806 41.8321 33.5751 41.6668C33.6683 41.5037 33.6873 41.3018 33.6449 41.0898L33.645 41.0897L33.6439 41.0851C33.5556 40.7321 33.1986 40.4504 32.8219 40.543C32.0478 40.6977 31.2738 40.775 30.5 40.775H20.5C19.6478 40.775 18.8738 40.6976 18.0999 40.543C17.7232 40.4504 17.3662 40.7321 17.278 41.0851L17.2779 41.0851L17.2769 41.0898C17.1881 41.534 17.4565 41.8969 17.8195 41.9876L17.8194 41.9879L17.8273 41.9893C18.0657 42.029 18.3035 42.0488 18.5366 42.0682L18.5386 42.0684C18.7451 42.0856 18.948 42.1026 19.15 42.1324V44C19.15 45.0358 18.3381 45.775 17.375 45.775H16.125C15.0865 45.775 14.35 45.0385 14.35 44V39.3125C14.35 39.0315 14.1645 38.8482 13.9902 38.7583C11.0507 36.5893 9.35 33.2619 9.35 29.625C9.35 23.5079 14.3057 18.475 20.5 18.475H30.5C30.6481 18.475 30.7981 18.4935 30.9825 18.5226C31.0428 18.5321 31.1072 18.5429 31.1762 18.5544C31.3158 18.5776 31.4744 18.6041 31.6577 18.6302L31.6648 18.6312H31.6719C31.8007 18.6312 31.9126 18.6097 32.0152 18.564C32.1174 18.5186 32.2054 18.4516 32.2895 18.3676L32.2897 18.3678L32.2949 18.3616C33.6048 16.8206 35.3742 15.975 37.375 15.975H38.8885L37.7475 20.6913C37.6581 20.9652 37.7511 21.2362 37.9293 21.4145ZM35.6 28.375C35.6 28.03 35.4285 27.6933 35.1801 27.4449C34.9317 27.1965 34.595 27.025 34.25 27.025C33.4877 27.025 32.9 27.6988 32.9 28.375C32.9 29.1334 33.4916 29.725 34.25 29.725C34.9262 29.725 35.6 29.1373 35.6 28.375Z" fill="#028577" stroke="#028577" stroke-width="0.2"/>
<path d="M20.5 21.5L28 21.5" stroke="#028577" stroke-width="1.5" stroke-linecap="round" stroke-linejoin="round"/>
<path d="M20.5119 1.44444C20.1974 1.17488 20.161 0.701401 20.4306 0.386907C20.7001 0.0724125 21.1736 0.0359907 21.4881 0.305557L20.5119 1.44444ZM25.0303 12.9053C24.7374 13.1982 24.2626 13.1982 23.9697 12.9053L19.1967 8.13236C18.9038 7.83947 18.9038 7.36459 19.1967 7.0717C19.4896 6.77881 19.9645 6.77881 20.2574 7.0717L24.5 11.3143L28.7426 7.0717C29.0355 6.77881 29.5104 6.77881 29.8033 7.0717C30.0962 7.36459 30.0962 7.83947 29.8033 8.13236L25.0303 12.9053ZM21.4881 0.305557C23.2356 1.80342 24.2765 2.80502 24.7825 4.54C25.0264 5.37624 25.139 6.35307 25.1946 7.59138C25.2502 8.83084 25.25 10.3817 25.25 12.375H23.75C23.75 10.3683 23.7498 8.85666 23.6961 7.65862C23.6423 6.45943 23.5361 5.62376 23.3425 4.96C22.9735 3.69498 22.2644 2.94658 20.5119 1.44444L21.4881 0.305557Z" fill="#028577"/>
</svg>
