<svg width="25" height="42" viewBox="0 0 25 42" fill="none" xmlns="http://www.w3.org/2000/svg">
<path d="M6.54541 14V40" stroke="#028577" stroke-width="1.5" stroke-linecap="round" stroke-linejoin="round"/>
<path d="M18.5454 37.4541L18.5454 7.27228" stroke="#028577" stroke-width="1.5" stroke-linecap="round" stroke-linejoin="round"/>
<path d="M6.54541 29.4541L6.54541 39.9996" stroke="#028577" stroke-width="3" stroke-linecap="round" stroke-linejoin="round"/>
<path d="M18.5454 16L18.5454 7.27273" stroke="#028577" stroke-width="3" stroke-linecap="round" stroke-linejoin="round"/>
<path d="M0.75 7.66431C0.75 7.60137 0.773738 7.54075 0.816475 7.49455L6.54375 1.3029C6.64271 1.19592 6.81183 1.19592 6.9108 1.3029L12.6381 7.49455C12.6808 7.54075 12.7045 7.60137 12.7045 7.66431V19.9414C12.7045 20.0567 12.6257 20.157 12.5136 20.1843L6.78636 21.5774C6.74753 21.5868 6.70701 21.5868 6.66819 21.5774L0.940912 20.1843C0.828868 20.157 0.75 20.0567 0.75 19.9414V7.66431Z" stroke="#028577" stroke-width="1.5"/>
<path d="M24.0454 40L24.0454 28.4105C24.0454 26.9582 23.2583 25.6201 21.989 24.9144L20.489 24.0805C19.2804 23.4086 17.8104 23.4086 16.6018 24.0805L15.1018 24.9144C13.8325 25.6201 13.0454 26.9582 13.0454 28.4105L13.0454 40" stroke="#028577" stroke-width="1.5" stroke-linecap="round"/>
</svg>
