<svg width="38" height="40" viewBox="0 0 38 40" fill="none" xmlns="http://www.w3.org/2000/svg">
<path d="M32.2334 34.3995C32.0084 33.2946 31.5682 32.2464 30.9385 31.3164C30.3088 30.3864 29.5023 29.5934 28.5664 28.984C27.6304 28.3745 26.5839 27.9608 25.4883 27.7673C24.3926 27.5737 23.2699 27.6041 22.186 27.8566C22.1612 26.1939 21.5404 24.5972 20.4396 23.3649C19.3389 22.1327 17.8334 21.3493 16.2047 21.1611C14.576 20.973 12.9355 21.393 11.5898 22.3426C10.2441 23.2921 9.28536 24.7064 8.8927 26.3209C8.65966 26.2848 8.42435 26.2657 8.18861 26.2638C6.92497 26.2657 5.71362 26.7758 4.82009 27.6822C3.92657 28.5887 3.42376 29.8176 3.4219 31.0995C3.42158 31.6694 3.51927 32.2351 3.71058 32.7709C2.61179 33.3328 1.68645 34.1903 1.03575 35.2498C0.385053 36.3093 0.0340507 37.5299 0.0211299 38.7781C0.0205942 38.8721 0.038355 38.9653 0.0733939 39.0523C0.108433 39.1393 0.160061 39.2185 0.225317 39.2852C0.290526 39.3527 0.368289 39.4064 0.454101 39.4432C0.539913 39.48 0.632066 39.4991 0.725223 39.4995H35.4581C35.5562 39.4999 35.6532 39.4795 35.7431 39.4397C35.8329 39.3998 35.9135 39.3414 35.9798 39.2681C36.0461 39.1948 36.0966 39.1083 36.128 39.0141C36.1594 38.9198 36.1711 38.82 36.1622 38.7209C36.0652 37.6632 35.6281 36.6671 34.9181 35.8863C34.2082 35.1054 33.2648 34.583 32.2334 34.3995ZM1.46452 38.0709C1.59908 37.1103 1.98764 36.2046 2.5889 35.45C3.19016 34.6954 3.98168 34.1201 4.87937 33.7852C4.97515 33.7487 5.06194 33.6914 5.13368 33.6174C5.20542 33.5434 5.2604 33.4544 5.29479 33.3566C5.32906 33.26 5.34239 33.1571 5.33389 33.0548C5.32538 32.9525 5.29523 32.8532 5.2455 32.7638C4.96107 32.244 4.81536 31.6579 4.82278 31.0634C4.8302 30.469 4.99049 29.8868 5.28781 29.3744C5.58512 28.8621 6.00914 28.4374 6.51792 28.1424C7.02669 27.8474 7.60259 27.6923 8.18861 27.6924C8.54801 27.6918 8.90497 27.7521 9.24475 27.8709C9.34391 27.9046 9.44922 27.9154 9.55301 27.9025C9.65681 27.8897 9.75648 27.8536 9.84481 27.7969C9.93313 27.7401 10.0079 27.6641 10.0636 27.5743C10.1194 27.4846 10.1547 27.3834 10.1671 27.2781C10.3374 25.9133 11.0133 24.6654 12.0577 23.7879C13.1021 22.9104 14.4365 22.4692 15.79 22.5537C17.1435 22.6383 18.4145 23.2424 19.3448 24.2432C20.2752 25.2441 20.7951 26.5667 20.7989 27.9424C20.7954 28.198 20.7766 28.4533 20.7426 28.7066C20.7251 28.8291 20.7393 28.954 20.7838 29.0692C20.8282 29.1844 20.9013 29.2859 20.9961 29.3638C21.0928 29.4447 21.209 29.4979 21.3328 29.518C21.4566 29.5381 21.5834 29.5243 21.7002 29.4781C22.4672 29.1931 23.2772 29.0456 24.0941 29.0424C25.7721 29.0473 27.3918 29.6674 28.6547 30.7884C29.9176 31.9094 30.7384 33.4557 30.966 35.1424C30.9887 35.3068 31.0672 35.4582 31.188 35.5703C31.3088 35.6824 31.4644 35.7483 31.6279 35.7566C32.2922 35.8017 32.9284 36.0456 33.4561 36.4576C33.9837 36.8695 34.3791 37.431 34.5921 38.0709H1.46452Z" fill="#028577"/>
<path d="M11.0542 30.75C9.94839 30.7631 8.89173 31.2155 8.11108 32.0101C7.33043 32.8047 6.88805 33.8782 6.87891 35C6.87891 35.1894 6.95309 35.3711 7.08513 35.5051C7.21717 35.639 7.39626 35.7143 7.583 35.7143C7.76974 35.7143 7.94883 35.639 8.08087 35.5051C8.21291 35.3711 8.28709 35.1894 8.28709 35C8.28709 34.2548 8.5784 33.5401 9.09712 33.0125C9.61585 32.4849 10.3197 32.1876 11.0542 32.1857C11.7266 32.1953 12.3735 32.4487 12.8778 32.9C12.9494 32.9629 13.0326 33.0108 13.1225 33.041C13.2124 33.0712 13.3073 33.0832 13.4018 33.0763C13.4963 33.0693 13.5885 33.0435 13.6731 33.0004C13.7578 32.9573 13.8332 32.8977 13.8952 32.825C13.9571 32.7523 14.0044 32.6679 14.0342 32.5767C14.064 32.4855 14.0758 32.3892 14.0689 32.2934C14.0621 32.1976 14.0367 32.104 13.9942 32.0181C13.9517 31.9323 13.8929 31.8557 13.8213 31.7929C13.0525 31.119 12.0701 30.7488 11.0542 30.75Z" fill="#028577"/>
<path d="M24.3826 31.2783C23.4994 31.2769 22.6458 31.6019 21.9817 32.1926C21.9023 32.2508 21.8358 32.3251 21.7863 32.4109C21.7369 32.4966 21.7056 32.5919 21.6945 32.6906C21.6834 32.7893 21.6927 32.8893 21.7218 32.9841C21.751 33.079 21.7993 33.1666 21.8637 33.2414C21.9281 33.3163 22.0072 33.3766 22.0959 33.4187C22.1847 33.4607 22.281 33.4836 22.379 33.4857C22.4769 33.4878 22.5741 33.4692 22.6645 33.431C22.755 33.3929 22.8365 33.336 22.904 33.264C23.2319 32.9787 23.6334 32.7947 24.0612 32.7338C24.4889 32.6728 24.9249 32.7375 25.3176 32.9201C25.7102 33.1027 26.043 33.3957 26.2766 33.7642C26.5103 34.1328 26.6349 34.5616 26.6357 34.9998C26.6357 35.1892 26.7099 35.3709 26.842 35.5048C26.974 35.6388 27.1531 35.714 27.3398 35.714C27.5266 35.714 27.7056 35.6388 27.8377 35.5048C27.9697 35.3709 28.0439 35.1892 28.0439 34.9998C28.0439 34.014 27.6584 33.0685 26.972 32.3708C26.2856 31.6731 25.3543 31.2802 24.3826 31.2783Z" fill="#028577"/>
<path d="M15.307 25.6572C14.6112 25.6548 13.9382 25.9086 13.4129 26.3715C13.3336 26.4297 13.267 26.5041 13.2176 26.5898C13.1681 26.6755 13.1369 26.7708 13.1258 26.8695C13.1147 26.9682 13.124 27.0682 13.1531 27.163C13.1822 27.2579 13.2306 27.3455 13.295 27.4204C13.3594 27.4952 13.4385 27.5556 13.5272 27.5976C13.6159 27.6397 13.7123 27.6625 13.8102 27.6646C13.9081 27.6667 14.0054 27.6481 14.0958 27.61C14.1862 27.5718 14.2678 27.5149 14.3353 27.443C14.5493 27.2561 14.8116 27.1353 15.0911 27.0948C15.3706 27.0544 15.6557 27.0959 15.9127 27.2146C16.1696 27.3333 16.3877 27.5242 16.5412 27.7646C16.6946 28.0051 16.777 28.2851 16.7785 28.5715C16.7785 28.761 16.8527 28.9427 16.9847 29.0766C17.1168 29.2106 17.2959 29.2858 17.4826 29.2858C17.6693 29.2858 17.8484 29.2106 17.9805 29.0766C18.1125 28.9427 18.1867 28.761 18.1867 28.5715C18.183 27.7985 17.8782 27.0584 17.3387 26.5125C16.7993 25.9665 16.0689 25.6591 15.307 25.6572Z" fill="#028577"/>
<path d="M37.2888 13.5714L26.5795 2.85714C26.494 2.77627 26.3901 2.71826 26.277 2.68833C26.1639 2.65841 26.0453 2.65751 25.9317 2.68571V1.21429C25.9317 1.02485 25.8576 0.843164 25.7255 0.70921C25.5935 0.575255 25.4144 0.5 25.2276 0.5H12.2512C12.0645 0.5 11.8854 0.575255 11.7533 0.70921C11.6213 0.843164 11.5471 1.02485 11.5471 1.21429V3.5C11.5471 3.68944 11.6213 3.87112 11.7533 4.00508C11.8854 4.13903 12.0645 4.21429 12.2512 4.21429H12.5328L13.8213 5.56429C13.8876 5.6348 13.9674 5.69082 14.0558 5.7289C14.1442 5.76698 14.2393 5.78632 14.3353 5.78571C14.4302 5.78535 14.524 5.76554 14.6111 5.72749C14.6982 5.68944 14.7768 5.63393 14.8423 5.56429L15.8069 4.53571L16.7785 5.56429C16.8446 5.63264 16.9235 5.68683 17.0106 5.72364C17.0976 5.76045 17.1911 5.77913 17.2855 5.77857C17.381 5.7801 17.4758 5.76189 17.5642 5.72505C17.6526 5.68821 17.7326 5.63351 17.7995 5.56429L18.75 4.52857L19.7216 5.56429C19.7871 5.63393 19.8657 5.68944 19.9528 5.72749C20.0399 5.76554 20.1337 5.78535 20.2286 5.78571C20.3234 5.78535 20.4172 5.76554 20.5043 5.72749C20.5915 5.68944 20.6701 5.63393 20.7355 5.56429L21.9888 4.21429H24.608C24.608 4.21429 24.608 4.26429 24.608 4.28571L24.7137 5.71429L23.3055 5.75714C23.1222 5.76169 22.9479 5.83856 22.8196 5.97143C22.7482 6.04398 22.6929 6.13129 22.6577 6.22743C22.6225 6.32357 22.6081 6.42628 22.6155 6.52857L22.7211 7.95714L21.3129 7.99286C21.1192 8.0039 20.9374 8.09101 20.8059 8.23571C20.7423 8.30819 20.6938 8.39307 20.6635 8.48518C20.6333 8.57728 20.6218 8.67469 20.6299 8.77143L20.7285 10.2L19.3203 10.2429C19.2229 10.2425 19.1265 10.2627 19.0372 10.3021C18.9479 10.3416 18.8676 10.3993 18.8014 10.4718C18.7352 10.5444 18.6846 10.63 18.6527 10.7234C18.6209 10.8167 18.6084 10.9158 18.6162 11.0143L18.7218 12.4429L17.3136 12.4786C17.2178 12.4808 17.1234 12.5028 17.0362 12.5433C16.949 12.5839 16.8709 12.642 16.8067 12.7143L16.4194 13.1571C16.2938 13.2966 16.2276 13.4808 16.2356 13.6696C16.2435 13.8583 16.3248 14.0362 16.4617 14.1643L27.6216 24.3857C27.7514 24.509 27.9225 24.5779 28.1003 24.5786C28.2854 24.5634 28.4584 24.4795 28.5862 24.3429L37.3169 14.5714C37.4422 14.4342 37.5095 14.2526 37.5042 14.0656C37.499 13.8786 37.4216 13.7012 37.2888 13.5714ZM24.5236 2.78571H21.7072C21.6112 2.78511 21.516 2.80445 21.4276 2.84253C21.3392 2.88061 21.2595 2.93663 21.1932 3.00714L20.2145 4.03571L19.2499 3.00714C19.1112 2.8735 18.9272 2.79898 18.7359 2.79898C18.5446 2.79898 18.3606 2.8735 18.2219 3.00714L17.2573 4.03571L16.2927 3.00714C16.154 2.8735 15.97 2.79898 15.7787 2.79898C15.5874 2.79898 15.4034 2.8735 15.2647 3.00714L14.3072 4.03571L13.3426 3.00714C13.237 2.90002 13.102 2.8278 12.9553 2.8V1.92857H24.5236V2.78571ZM28.044 22.85L18.3064 13.8143L19.5386 13.7786C19.6344 13.7764 19.7289 13.7543 19.816 13.7138C19.9032 13.6733 19.9813 13.6151 20.0455 13.5429C20.1092 13.4704 20.1577 13.3855 20.1879 13.2934C20.2182 13.2013 20.2296 13.1039 20.2215 13.0071L20.1159 11.5786L21.5241 11.5357C21.62 11.5335 21.7144 11.5115 21.8016 11.4709C21.8887 11.4304 21.9668 11.3722 22.0311 11.3C22.0939 11.2284 22.1418 11.1447 22.172 11.0539C22.2023 10.9631 22.2142 10.867 22.2071 10.7714L22.1085 9.34286L23.5167 9.30714C23.6114 9.30399 23.7044 9.28148 23.7903 9.24098C23.8762 9.20048 23.9532 9.14281 24.0166 9.07143C24.0807 9.00039 24.1299 8.91694 24.1614 8.82611C24.1928 8.73528 24.2058 8.63893 24.1997 8.54286L24.0941 7.11429L25.5022 7.07143C25.5986 7.07193 25.6938 7.05109 25.7814 7.01038C25.8689 6.96967 25.9467 6.91006 26.0092 6.83571C26.072 6.7641 26.1199 6.68039 26.1502 6.58958C26.1804 6.49878 26.1923 6.40272 26.1852 6.30714L26.0514 4.45714L26.1148 4.37857L35.8454 14.0929L28.044 22.85Z" fill="#028577"/>
<path d="M8.32242 17.3999C8.53409 17.3999 8.74101 17.3363 8.917 17.217C9.093 17.0977 9.23017 16.9281 9.31118 16.7297C9.39218 16.5313 9.41337 16.313 9.37208 16.1024C9.33078 15.8918 9.22885 15.6984 9.07918 15.5465C8.92951 15.3947 8.73881 15.2913 8.53121 15.2494C8.32361 15.2075 8.10842 15.229 7.91286 15.3112C7.7173 15.3933 7.55016 15.5325 7.43256 15.711C7.31496 15.8896 7.2522 16.0995 7.2522 16.3142C7.2522 16.6022 7.36495 16.8783 7.56566 17.0819C7.76636 17.2856 8.03858 17.3999 8.32242 17.3999Z" fill="#028577"/>
<path d="M12.5821 14.5073C12.7941 14.5088 13.0017 14.4463 13.1786 14.3279C13.3555 14.2094 13.4938 14.0403 13.5759 13.8421C13.6579 13.6438 13.6801 13.4253 13.6397 13.2142C13.5992 13.0032 13.4978 12.809 13.3484 12.6565C13.199 12.5039 13.0083 12.3998 12.8005 12.3573C12.5927 12.3149 12.3772 12.3359 12.1812 12.4179C11.9853 12.4999 11.8177 12.639 11.6998 12.8177C11.5819 12.9964 11.5189 13.2066 11.5189 13.4216C11.5189 13.7083 11.6307 13.9834 11.8299 14.1868C12.0291 14.3902 12.2995 14.5055 12.5821 14.5073Z" fill="#028577"/>
<path d="M12.5821 20.2861C12.7924 20.2861 12.9979 20.2228 13.1728 20.1043C13.3476 19.9858 13.4839 19.8173 13.5644 19.6202C13.6448 19.4231 13.6659 19.2063 13.6249 18.9971C13.5838 18.7878 13.4826 18.5957 13.3339 18.4448C13.1852 18.294 12.9958 18.1912 12.7895 18.1496C12.5833 18.108 12.3695 18.1294 12.1752 18.211C11.981 18.2926 11.8149 18.4309 11.6981 18.6083C11.5813 18.7856 11.5189 18.9942 11.5189 19.2075C11.5189 19.4935 11.6309 19.7679 11.8303 19.9701C12.0297 20.1724 12.3001 20.2861 12.5821 20.2861Z" fill="#028577"/>
<path d="M8.32232 11.6148C8.53429 11.6148 8.74148 11.5509 8.91763 11.4313C9.09378 11.3117 9.23094 11.1417 9.31173 10.9429C9.39252 10.7441 9.4133 10.5254 9.37143 10.3146C9.32956 10.1038 9.22693 9.91038 9.07656 9.75883C8.92618 9.60728 8.73482 9.50444 8.52676 9.46336C8.3187 9.42228 8.10329 9.4448 7.90786 9.52807C7.71243 9.61134 7.54578 9.75161 7.42903 9.93109C7.31228 10.1106 7.2507 10.3212 7.2521 10.5362C7.25396 10.8229 7.36753 11.0973 7.56804 11.2993C7.76854 11.5014 8.0397 11.6148 8.32232 11.6148Z" fill="#028577"/>
<path d="M12.5821 8.7216C13.1693 8.7216 13.6453 8.2387 13.6453 7.64302C13.6453 7.04735 13.1693 6.56445 12.5821 6.56445C11.9949 6.56445 11.5189 7.04735 11.5189 7.64302C11.5189 8.2387 11.9949 8.7216 12.5821 8.7216Z" fill="#028577"/>
</svg>