<svg width="40" height="44" viewBox="0 0 40 44" fill="none" xmlns="http://www.w3.org/2000/svg">
<path d="M7.18604 5.4414C7.18604 3.23226 8.9769 1.44141 11.186 1.44141H27.0465C29.2556 1.44141 31.0465 3.23227 31.0465 5.44141V42.9763H7.18604V5.4414Z" stroke="#028577" stroke-width="1.5"/>
<path d="M34.7749 11.5183C34.5089 11.2008 34.0358 11.1591 33.7183 11.4251C33.4008 11.6911 33.3591 12.1642 33.6251 12.4817L34.7749 11.5183ZM34.25 25.6949V36H35.75V25.6949H34.25ZM39.75 36V19.1831H38.25V36H39.75ZM38.6409 16.1324L34.7749 11.5183L33.6251 12.4817L37.4912 17.0958L38.6409 16.1324ZM39.75 19.1831C39.75 18.0675 39.3574 16.9875 38.6409 16.1324L37.4912 17.0958C37.9814 17.6809 38.25 18.4198 38.25 19.1831H39.75ZM37 38.75C38.5188 38.75 39.75 37.5188 39.75 36H38.25C38.25 36.6904 37.6904 37.25 37 37.25V38.75ZM34.25 36C34.25 37.5188 35.4812 38.75 37 38.75V37.25C36.3096 37.25 35.75 36.6904 35.75 36H34.25ZM31 22.4449C32.7949 22.4449 34.25 23.9 34.25 25.6949H35.75C35.75 23.0716 33.6234 20.9449 31 20.9449V22.4449Z" fill="#028577"/>
<path d="M1 43H36.3488" stroke="#028577" stroke-width="1.5" stroke-linecap="round"/>
<rect x="10.7209" y="5.86035" width="16.7907" height="13.2558" rx="3" stroke="#028577" stroke-width="1.5"/>
<path d="M39 21.767C38.3008 21.767 37.6174 21.5241 37.0361 21.0691C36.4548 20.614 36.0017 19.9672 35.7342 19.2105C35.4666 18.4538 35.3966 17.6211 35.533 16.8177C35.6694 16.0144 36.0061 15.2764 36.5004 14.6973L38.5212 17.0647C38.8302 17.4268 39 17.8872 39 18.3632L39 21.767Z" stroke="#028577" stroke-width="1.5"/>
</svg>
