<svg width="39" height="38" viewBox="0 0 39 38" fill="none" xmlns="http://www.w3.org/2000/svg">
<path d="M38.1612 18.2217C24.7176 18.2217 13.0696 25.8574 7.37402 37.0004" stroke="#028577" stroke-width="1.5" stroke-linecap="round" stroke-linejoin="round"/>
<path d="M38.1613 23.8545C34.959 23.8545 31.8785 24.3716 29 25.3262M13.8746 36.9996C15.884 33.9071 18.4773 31.2231 21.5 29.101" stroke="#028577" stroke-width="1.5" stroke-linecap="round" stroke-linejoin="round"/>
<path d="M38.1613 29.2539C31.5192 29.2539 25.5553 32.1578 21.4701 36.7654" stroke="#028577" stroke-width="1.5" stroke-linecap="round" stroke-linejoin="round"/>
<path d="M0.838707 18.2217C7.5024 18.2217 13.7249 20.0977 19 23.3471" stroke="#028577" stroke-width="1.5" stroke-linecap="round" stroke-linejoin="round"/>
<path d="M0.838605 23.8545C3.31056 23.8545 5.70995 24.1626 7.99988 24.7423" stroke="#028577" stroke-width="1.5" stroke-linecap="round" stroke-linejoin="round"/>
<path d="M0.838649 29.2539C4.42218 29.2539 7.80829 30.0992 10.8085 31.6012" stroke="#028577" stroke-width="1.5" stroke-linecap="round" stroke-linejoin="round"/>
<path d="M9 18.9639V14.1014C9 13.9018 9.05971 13.7068 9.17144 13.5415L12.6187 8.4401C12.8046 8.16491 13.1151 8 13.4472 8H20.5528C20.8849 8 21.1954 8.16491 21.3813 8.4401L24.8286 13.5415C24.9403 13.7068 25 13.9018 25 14.1014V20.5" stroke="#028577" stroke-width="1.5" stroke-linecap="round" stroke-linejoin="round"/>
<path d="M13 9L16.7628 13.4382C16.9159 13.6189 17 13.848 17 14.0849V22" stroke="#028577" stroke-width="1.5" stroke-linecap="round" stroke-linejoin="round"/>
<path d="M10 14L24 14" stroke="#028577" stroke-width="1.5" stroke-linecap="square" stroke-linejoin="round"/>
<path d="M14.4895 19.8036V17.5361C14.4895 16.9838 14.0418 16.5361 13.4895 16.5361H12.1338C11.5815 16.5361 11.1338 16.9838 11.1338 17.5361V18.5642" stroke="#028577" stroke-width="1.5" stroke-linecap="square" stroke-linejoin="round"/>
<path d="M5 8L5 18" stroke="#028577" stroke-width="1.5" stroke-linecap="round" stroke-linejoin="round"/>
<path d="M31.354 8.12793V18.8083" stroke="#028577" stroke-width="1.5" stroke-linecap="round" stroke-linejoin="round"/>
<path d="M7.5878 8.57254C7.5878 10.3 7.24864 11.8271 6.73408 12.8943C6.19397 14.0145 5.59246 14.3951 5.1689 14.3951C4.74535 14.3951 4.14383 14.0145 3.60373 12.8943C3.08917 11.8271 2.75 10.3 2.75 8.57254C2.75 6.84507 3.08917 5.31801 3.60373 4.25078C4.14383 3.13055 4.74535 2.75 5.1689 2.75C5.59246 2.75 6.19397 3.13055 6.73408 4.25078C7.24864 5.31801 7.5878 6.84507 7.5878 8.57254Z" stroke="#028577" stroke-width="1.5" stroke-linecap="round" stroke-linejoin="round"/>
<path d="M35.0639 8.01031C35.0639 9.94236 34.6024 11.6549 33.8953 12.8589C33.1779 14.0805 32.2956 14.6544 31.4714 14.6544C30.6471 14.6544 29.7648 14.0805 29.0474 12.8589C28.3403 11.6549 27.8788 9.94236 27.8788 8.01031C27.8788 6.07827 28.3403 4.36574 29.0474 3.16171C29.7648 1.94015 30.6471 1.36621 31.4714 1.36621C32.2956 1.36621 33.1779 1.94015 33.8953 3.16171C34.6024 4.36574 35.0639 6.07827 35.0639 8.01031Z" stroke="#028577" stroke-width="1.5" stroke-linecap="round" stroke-linejoin="round"/>
</svg>
