<svg width="40" height="33" viewBox="0 0 40 33" fill="none" xmlns="http://www.w3.org/2000/svg">
<mask id="path-1-inside-1_3196_8217" fill="white">
<path d="M19.4 23.2C19.4 28.281 15.281 32.4 10.2 32.4C5.11898 32.4 1 28.281 1 23.2C1 18.119 5.11898 14 10.2 14C15.281 14 19.4 18.119 19.4 23.2ZM8.64146 23.2C8.64146 24.0608 9.33924 24.7585 10.2 24.7585C11.0608 24.7585 11.7585 24.0608 11.7585 23.2C11.7585 22.3392 11.0608 21.6415 10.2 21.6415C9.33924 21.6415 8.64146 22.3392 8.64146 23.2Z"/>
</mask>
<path d="M19.4 23.2C19.4 28.281 15.281 32.4 10.2 32.4C5.11898 32.4 1 28.281 1 23.2C1 18.119 5.11898 14 10.2 14C15.281 14 19.4 18.119 19.4 23.2ZM8.64146 23.2C8.64146 24.0608 9.33924 24.7585 10.2 24.7585C11.0608 24.7585 11.7585 24.0608 11.7585 23.2C11.7585 22.3392 11.0608 21.6415 10.2 21.6415C9.33924 21.6415 8.64146 22.3392 8.64146 23.2Z" stroke="#028577" stroke-width="3" mask="url(#path-1-inside-1_3196_8217)"/>
<mask id="path-2-inside-2_3196_8217" fill="white">
<path d="M39 26.1998C39 29.7344 36.0451 32.5998 32.4 32.5998C28.755 32.5998 25.8 29.7344 25.8 26.1998C25.8 22.6652 28.755 19.7998 32.4 19.7998C36.0451 19.7998 39 22.6652 39 26.1998ZM31.0653 26.1998C31.0653 26.9146 31.6629 27.4941 32.4 27.4941C33.1372 27.4941 33.7348 26.9146 33.7348 26.1998C33.7348 25.485 33.1372 24.9055 32.4 24.9055C31.6629 24.9055 31.0653 25.485 31.0653 26.1998Z"/>
</mask>
<path d="M39 26.1998C39 29.7344 36.0451 32.5998 32.4 32.5998C28.755 32.5998 25.8 29.7344 25.8 26.1998C25.8 22.6652 28.755 19.7998 32.4 19.7998C36.0451 19.7998 39 22.6652 39 26.1998ZM31.0653 26.1998C31.0653 26.9146 31.6629 27.4941 32.4 27.4941C33.1372 27.4941 33.7348 26.9146 33.7348 26.1998C33.7348 25.485 33.1372 24.9055 32.4 24.9055C31.6629 24.9055 31.0653 25.485 31.0653 26.1998Z" stroke="#028577" stroke-width="3" mask="url(#path-2-inside-2_3196_8217)"/>
<path d="M21 23.3996C21 17.4349 16.1183 12.5996 10.0963 12.5996C6.7747 12.5996 3.79997 14.0708 1.80005 16.3911" stroke="#028577" stroke-width="1.5" stroke-linecap="round"/>
<path d="M25.2704 23.4C26.342 20.4856 29.1177 18.4093 32.373 18.4093C35.2241 18.4093 37.7073 20.002 39 22.3554V17.839C39 17.3756 38.6244 17 38.161 17V17C37.6977 17 37.3221 16.6244 37.3221 16.161V14.2993C37.3221 13.7959 36.9478 13.371 36.4484 13.3074L23.3734 11.6417C22.9898 11.5928 22.6688 11.3272 22.549 10.9597L19.5269 1.69003C19.3927 1.2785 19.009 1 18.5761 1H6.87291C6.32062 1 5.87291 1.44772 5.87291 2V11.4009C5.87291 11.6534 5.77737 11.8966 5.60548 12.0816L1.5 16.5" stroke="#028577" stroke-width="1.5" stroke-linecap="round" stroke-linejoin="round"/>
<path d="M25.4 24.1504C25.8142 24.1504 26.15 23.8146 26.15 23.4004C26.15 22.9862 25.8142 22.6504 25.4 22.6504V24.1504ZM21 24.1504H25.4V22.6504H21V24.1504Z" fill="#028577"/>
<mask id="path-6-inside-3_3196_8217" fill="white">
<rect x="25" y="15" width="10.0067" height="2.10667" rx="1"/>
</mask>
<rect x="25" y="15" width="10.0067" height="2.10667" rx="1" stroke="#028577" stroke-width="2.10667" mask="url(#path-6-inside-3_3196_8217)"/>
<mask id="path-7-inside-4_3196_8217" fill="white">
<rect x="7.40002" y="2.2002" width="5.6" height="8" rx="1"/>
</mask>
<rect x="7.40002" y="2.2002" width="5.6" height="8" rx="1" stroke="#028577" stroke-width="3" mask="url(#path-7-inside-4_3196_8217)"/>
<path d="M15.35 3.2002C15.35 3.06212 15.4619 2.9502 15.6 2.9502H16.9976C17.1073 2.9502 17.2042 3.02174 17.2365 3.12661L19.0845 9.12661C19.1341 9.28738 19.0138 9.4502 18.8456 9.4502H15.6C15.4619 9.4502 15.35 9.33827 15.35 9.2002V3.2002Z" stroke="#028577" stroke-width="1.5"/>
</svg>
