<svg width="47" height="46" viewBox="0 0 47 46" fill="none" xmlns="http://www.w3.org/2000/svg">
<path d="M36.5119 13.9306C36.1974 14.2001 36.161 14.6736 36.4306 14.9881C36.7001 15.3026 37.1736 15.339 37.4881 15.0694L36.5119 13.9306ZM41.0303 2.46967C40.7374 2.17678 40.2626 2.17678 39.9697 2.46967L35.1967 7.24264C34.9038 7.53553 34.9038 8.01041 35.1967 8.3033C35.4896 8.59619 35.9645 8.59619 36.2574 8.3033L40.5 4.06066L44.7426 8.3033C45.0355 8.59619 45.5104 8.59619 45.8033 8.3033C46.0962 8.01041 46.0962 7.53553 45.8033 7.24264L41.0303 2.46967ZM37.4881 15.0694C39.2356 13.5716 40.2765 12.57 40.7825 10.835C41.0264 9.99876 41.139 9.02193 41.1946 7.78362C41.2502 6.54416 41.25 4.9933 41.25 3H39.75C39.75 5.0067 39.7498 6.51834 39.6961 7.71638C39.6423 8.91557 39.5361 9.75124 39.3425 10.415C38.9735 11.68 38.2644 12.4284 36.5119 13.9306L37.4881 15.0694Z" fill="#028577"/>
<path d="M26.7157 10.0294L26.3947 9.35158L26.3947 9.35158L26.7157 10.0294ZM11.6789 16.3222C11.3046 16.4995 11.1449 16.9467 11.3222 17.3211C11.4995 17.6954 11.9467 17.8551 12.3211 17.6778L11.6789 16.3222ZM31.75 17V12.7406H30.25V17H31.75ZM26.3947 9.35158L11.6789 16.3222L12.3211 17.6778L27.0368 10.7072L26.3947 9.35158ZM31.75 12.7406C31.75 9.98767 28.8826 8.17309 26.3947 9.35158L27.0368 10.7072C28.5296 10.0001 30.25 11.0888 30.25 12.7406H31.75Z" fill="#028577"/>
<path d="M26 10V7.3197C26 4.70939 22.897 3.34439 20.9728 5.10824L8 17" stroke="#028577" stroke-width="1.5"/>
<rect x="29.75" y="25.25" width="15.5" height="9.5" rx="3.25" stroke="#028577" stroke-width="1.5"/>
<mask id="path-5-outside-1_3251_8775" maskUnits="userSpaceOnUse" x="0" y="16" width="43" height="30" fill="black">
<rect fill="white" y="16" width="43" height="30"/>
<path fill-rule="evenodd" clip-rule="evenodd" d="M6 18C3.79086 18 2 19.7909 2 22V40C2 42.2091 3.79086 44 6 44H37C39.2091 44 41 42.2091 41 40V35.5H33C30.7909 35.5 29 33.7091 29 31.5V28.5C29 26.2909 30.7909 24.5 33 24.5H41V22C41 19.7909 39.2091 18 37 18H6Z"/>
</mask>
<path d="M41 35.5H42.5V34H41V35.5ZM41 24.5V26H42.5V24.5H41ZM3.5 22C3.5 20.6193 4.61929 19.5 6 19.5V16.5C2.96243 16.5 0.5 18.9624 0.5 22H3.5ZM3.5 40V22H0.5V40H3.5ZM6 42.5C4.61929 42.5 3.5 41.3807 3.5 40H0.5C0.5 43.0376 2.96243 45.5 6 45.5V42.5ZM37 42.5H6V45.5H37V42.5ZM39.5 40C39.5 41.3807 38.3807 42.5 37 42.5V45.5C40.0376 45.5 42.5 43.0376 42.5 40H39.5ZM39.5 35.5V40H42.5V35.5H39.5ZM41 34H33V37H41V34ZM33 34C31.6193 34 30.5 32.8807 30.5 31.5H27.5C27.5 34.5376 29.9624 37 33 37V34ZM30.5 31.5V28.5H27.5V31.5H30.5ZM30.5 28.5C30.5 27.1193 31.6193 26 33 26V23C29.9624 23 27.5 25.4624 27.5 28.5H30.5ZM33 26H41V23H33V26ZM39.5 22V24.5H42.5V22H39.5ZM37 19.5C38.3807 19.5 39.5 20.6193 39.5 22H42.5C42.5 18.9624 40.0376 16.5 37 16.5V19.5ZM6 19.5H37V16.5H6V19.5Z" fill="#028577" mask="url(#path-5-outside-1_3251_8775)"/>
<circle cx="35.5" cy="30" r="1.75" stroke="#028577" stroke-width="1.5"/>
</svg>
