<svg width="42" height="39" viewBox="0 0 42 39" fill="none" xmlns="http://www.w3.org/2000/svg">
<path d="M29.6338 9.49442C28.0856 4.43099 25.093 1 21.6551 1C18.0817 1 14.9893 4.70702 13.5 10.1012" stroke="#028577" stroke-width="1.5"/>
<path d="M19.4485 17.462C14.9705 24.5429 14.3785 32.2043 18.1261 34.5744C21.8737 36.9444 28.5419 33.1255 33.0199 26.0446C37.4978 18.9638 36.0083 9.98594 34.3422 8.93233C32.5765 7.81565 23.9265 10.3812 19.4485 17.462Z" stroke="#028577" stroke-width="1.5"/>
<path d="M23.7384 34.5624C19.8625 37.0135 13.0713 33.2302 8.5698 26.1121C4.06827 18.994 5.71389 9.87516 7.43694 8.78549C9.05245 7.76383 16.1575 9.59233 20.8918 14.9557" stroke="#028577" stroke-width="1.5"/>
</svg>
