<svg width="146" height="111" viewBox="0 0 146 111" fill="none" xmlns="http://www.w3.org/2000/svg">
<rect x="31.4003" width="83.3315" height="83.5923" fill="white"/>
<rect x="31.4003" width="21.7387" height="9.69186" fill="#78C99E"/>
<rect x="31.4003" y="24.2305" width="21.7387" height="15.7493" fill="#78C99E"/>
<rect x="31.4003" y="12.1152" width="9.66163" height="9.69186" fill="#78C99E"/>
<rect x="55.5544" y="73.9004" width="10.8693" height="9.69186" fill="#78C99E"/>
<rect x="55.5544" y="61.7852" width="10.8693" height="9.69185" fill="#FFB800"/>
<rect x="68.8391" y="73.9004" width="32.608" height="9.69186" fill="#78C99E"/>
<rect x="68.8391" y="61.7852" width="45.8927" height="9.69185" fill="#78C99E"/>
<rect x="103.862" y="73.9004" width="10.8693" height="9.69186" fill="#028577"/>
<rect x="43.4773" y="12.1152" width="9.66163" height="9.69186" fill="#028577"/>
<rect x="31.4003" y="42.4004" width="21.7387" height="41.1904" fill="#028577"/>
<rect x="55.5544" width="59.1775" height="59.3626" fill="#028577"/>
<path d="M0 110.244V96.4064H0.962389V109.335H7.53871V110.244H0Z" fill="#085D50"/>
<path d="M18.3797 110.244V96.4064H19.3421V110.244H18.3797Z" fill="#085D50"/>
<path d="M35.297 110.244H34.3252V97.315H29.8435V96.4064H39.7787V97.315H35.297V110.244Z" fill="#085D50"/>
<path d="M57.8282 110.244H50.2895V96.4064H57.8282V97.2961H51.2519V102.53H57.4603V103.42H51.2519V109.354H57.8282V110.244Z" fill="#085D50"/>
<path d="M72.0659 110.244H69.1882V96.4064H77.0949V98.8104H72.0659V102.379H76.7458V104.773H72.0659V110.244Z" fill="#085D50"/>
<path d="M96.6917 110.244L95.6916 106.95H90.6627L89.6625 110.244H86.5112L91.3797 96.3496H94.9557L99.8431 110.244H96.6917ZM94.9934 104.489C94.0688 101.505 93.5467 99.8168 93.4272 99.4256C93.3139 99.0344 93.2322 98.7252 93.1819 98.4981C92.9743 99.3058 92.3799 101.303 91.3986 104.489H94.9934Z" fill="#085D50"/>
<path d="M112.967 102.549H113.911C114.836 102.549 115.518 102.394 115.958 102.085C116.399 101.776 116.619 101.29 116.619 100.628C116.619 99.9714 116.392 99.5045 115.94 99.2269C115.493 98.9492 114.798 98.8104 113.854 98.8104H112.967V102.549ZM112.967 104.934V110.244H110.043V96.4064H114.062C115.936 96.4064 117.323 96.7503 118.223 97.4381C119.122 98.1195 119.572 99.1575 119.572 100.552C119.572 101.366 119.349 102.092 118.902 102.729C118.456 103.36 117.823 103.855 117.006 104.215C119.081 107.326 120.434 109.335 121.063 110.244H117.817L114.524 104.934H112.967Z" fill="#085D50"/>
<path d="M137.093 110.244L133.772 99.3878H133.687C133.807 101.596 133.866 103.07 133.866 103.808V110.244H131.253V96.4064H135.234L138.499 106.988H138.556L142.018 96.4064H146V110.244H143.273V103.694C143.273 103.385 143.276 103.029 143.283 102.625C143.295 102.221 143.339 101.148 143.415 99.4067H143.33L139.773 110.244H137.093Z" fill="#085D50"/>
</svg>
