<svg width="471" height="291" viewBox="0 0 471 291" fill="none" xmlns="http://www.w3.org/2000/svg">
<path d="M438.82 100.27C456.322 132.601 488.052 189.058 456.776 210.494C416.307 238.229 340.361 243.003 259.116 243.003C158.944 243.926 70.9782 233.624 55.367 228.02C22.0224 216.051 38.1181 144.482 85.1889 90.3743C128.493 36.4008 156.252 53.606 245.597 9.57512C317.4 -25.811 408.469 44.2016 438.82 100.27Z" fill="#E6F5EB"/>
<path d="M198.2 14.1893C190.155 17.9763 163.486 28.6241 168.703 28.6241C185.648 28.6241 227.097 14.608 232.091 4.41186C238.367 -8.40426 206.246 10.4023 198.2 14.1893Z" fill="#E6F5EB"/>
<path fill-rule="evenodd" clip-rule="evenodd" d="M26.838 90.4575C23.3633 90.0618 20.0744 91.1776 17.0389 93.8907C14.2985 96.3401 13.2971 100.186 13.5882 104.982C13.8796 109.782 15.4689 115.627 18.0268 122.208C23.1447 135.377 32.1919 151.62 42.7479 168.586C51.8901 183.279 62.1832 198.542 72.0591 212.844C66.4757 208.663 61.0598 205.972 56.3276 204.968C51.2699 203.894 46.9166 204.738 44.0467 207.858C42.7918 209.222 42.5918 210.871 43.184 212.656C43.7649 214.406 45.1125 216.317 46.9897 218.335C50.7512 222.38 56.7999 227.025 63.733 231.897C68.317 235.119 73.3084 238.454 78.3042 241.793L78.3049 241.793L78.3058 241.794C80.87 243.507 83.4353 245.221 85.9472 246.921C93.0762 251.746 99.7789 256.458 104.862 260.744L104.961 261.728L105.46 261.252L105.47 261.261L106.261 260.699L106.203 260.551C108.687 258.255 112 255.683 115.502 253.024C116.162 252.524 116.828 252.02 117.496 251.515L117.497 251.514L117.498 251.513L117.501 251.511C120.614 249.157 123.771 246.77 126.511 244.494C129.827 241.741 132.598 239.099 133.935 236.831C134.604 235.697 134.963 234.576 134.763 233.542C134.558 232.477 133.791 231.645 132.526 231.04C130.708 230.17 127.889 229.829 124.765 230.217C121.627 230.606 118.129 231.737 114.936 233.874C113.624 234.752 112.368 235.797 111.211 237.026C113.196 227.892 115.202 218.247 116.68 209.564C118.121 201.095 119.067 193.503 118.995 188.172C118.96 185.518 118.672 183.357 118.023 181.923C117.695 181.199 117.257 180.618 116.671 180.27C116.072 179.916 115.38 179.84 114.626 180.02C110.074 181.108 106.62 183.57 104.127 187.276C103.914 184.836 103.677 182.428 103.416 180.063C102.019 167.379 99.9359 155.93 97.1073 147.546C95.6937 143.356 94.0845 139.901 92.2617 137.437C90.4414 134.976 88.3585 133.439 85.9917 133.231C83.1142 132.979 80.689 133.699 78.7438 135.316C76.8108 136.923 75.395 139.381 74.4487 142.533C73.2998 146.359 72.8252 151.267 72.99 157.071C68.7595 146.653 64.5134 137.217 60.3054 128.94C52.4859 113.558 44.7721 102.128 37.4986 95.8629C33.8595 92.7281 30.2901 90.8507 26.838 90.4575ZM110.764 239.075C112.177 237.284 113.792 235.843 115.492 234.705C118.542 232.664 121.889 231.581 124.888 231.209C127.9 230.835 130.508 231.183 132.095 231.942C133.182 232.462 133.656 233.08 133.781 233.731C133.913 234.413 133.693 235.272 133.074 236.323C131.835 238.423 129.194 240.966 125.873 243.725C123.15 245.986 120.014 248.357 116.9 250.711L116.9 250.711C116.23 251.218 115.561 251.724 114.898 252.228C111.781 254.594 108.779 256.917 106.373 259.049C106.735 257.36 107.127 255.567 107.539 253.691C108.19 252.284 108.886 250.931 109.718 249.583C111.579 246.565 114.125 243.565 118.36 240.102L117.727 239.328C113.419 242.851 110.795 245.932 108.867 249.058C108.701 249.327 108.54 249.597 108.383 249.868L108.802 247.973L108.804 247.966L108.804 247.964L108.807 247.954L108.808 247.95C109.439 245.1 110.098 242.123 110.764 239.075ZM109.265 241.243C107.103 244.825 105.683 249.518 105.616 255.573C105.934 254.825 106.253 254.093 106.585 253.372C106.982 251.567 107.399 249.687 107.828 247.749L107.832 247.728L107.835 247.714L107.836 247.711L107.837 247.706C108.301 245.612 108.78 243.45 109.265 241.243ZM104.718 253.134C105.178 246.892 107.127 242.15 109.836 238.639C111.946 228.984 114.12 218.647 115.694 209.396C117.134 200.933 118.066 193.418 117.996 188.185C117.96 185.557 117.671 183.571 117.112 182.335C116.835 181.723 116.511 181.338 116.161 181.131C115.823 180.931 115.405 180.862 114.859 180.993C110.196 182.107 106.772 184.73 104.376 188.751C104.34 188.812 104.304 188.873 104.268 188.935C106.028 210.24 106.029 233.772 104.485 251.869C104.562 252.29 104.64 252.711 104.718 253.134ZM74.1166 159.869C73.6932 152.882 74.1173 147.113 75.4064 142.82C76.3184 139.783 77.6513 137.525 79.3832 136.085C81.103 134.655 83.2588 133.996 85.9043 134.228C87.8663 134.4 89.7204 135.683 91.4577 138.032C93.1925 140.377 94.7617 143.721 96.1598 147.865C98.9546 156.15 101.028 167.516 102.422 180.173C102.73 182.963 103.004 185.815 103.246 188.708C100.898 192.879 99.5813 198.36 99.0895 204.986C98.2687 216.046 99.7404 230.416 102.691 247.491C101.168 241.889 99.6217 236.373 98.0558 230.955C92.0321 205.896 88.1621 183.287 89.8134 163.744L88.8169 163.659C87.4835 179.44 89.7215 197.18 93.7686 216.523C87.4095 195.703 80.7884 176.584 74.1166 159.869ZM102.172 251.266C97.7213 241.044 93.1159 230.169 88.4767 219.213L88.0269 218.151C88.005 218.099 87.9831 218.047 87.9612 217.996C81.3586 199.504 77.0087 182.794 75.0873 169.229C74.7941 167.159 74.5578 165.165 74.3786 163.25C82.1408 183.047 89.8221 206.067 97.0853 231.198C98.656 237.732 100.372 244.425 102.172 251.266ZM87.0292 218.359C89.2628 224.613 91.7525 231.068 94.4914 237.672C88.3313 228.172 81.4526 220.504 74.7292 214.947C64.3084 199.901 53.3098 183.667 43.597 168.057C33.0482 151.104 24.0418 134.924 18.9589 121.846C16.4165 115.305 14.8687 109.571 14.5864 104.921C14.3039 100.267 15.2923 96.793 17.7053 94.6363C20.5578 92.0867 23.5707 91.0919 26.7249 91.4511C29.9016 91.8129 33.2884 93.556 36.8459 96.6205C43.9657 102.754 51.6077 114.038 59.414 129.393C63.9613 138.337 68.5556 148.646 73.1282 160.091C73.309 162.994 73.6332 166.094 74.0971 169.369C75.5876 179.892 78.5273 192.278 82.832 205.902C78.4561 195.613 74.0944 185.46 69.8493 175.927C63.925 162.623 58.2238 150.515 53.0245 140.92C47.8383 131.349 43.1132 124.203 39.1261 120.893L38.4874 121.663C42.3063 124.832 46.9514 131.811 52.1453 141.396C57.3259 150.957 63.0147 163.037 68.9358 176.334C74.8314 189.574 80.9532 204.011 87.0292 218.359ZM103.787 247.956C104.987 230.964 104.91 209.942 103.398 190.59C101.59 194.398 100.519 199.242 100.087 205.06C99.2646 216.139 100.768 230.632 103.787 247.956ZM101.09 252.799C99.7334 249.834 98.4233 246.89 97.1602 243.97C91.0833 233.356 84.0442 224.693 77.0515 218.294C80.6773 223.513 84.2147 228.567 87.5829 233.381L87.583 233.381C92.5367 240.46 97.1246 247.016 101.09 252.799ZM86.5077 246.093C92.6697 250.263 98.5431 254.369 103.335 258.199L102.975 257.724C91.1467 242.108 82.307 230.437 67.8858 223.316L68.3285 222.419C79.1762 227.776 86.9153 235.672 94.9879 245.73C92.4154 242.031 89.6684 238.106 86.7973 234.003L86.7972 234.003C82.7282 228.188 78.4101 222.017 73.9864 215.631C73.5192 215.246 73.053 214.872 72.588 214.508C66.6735 209.882 60.9762 206.977 56.1199 205.946C51.2661 204.915 47.3292 205.766 44.7827 208.535C43.8217 209.58 43.6312 210.829 44.1331 212.341C44.6461 213.886 45.8771 215.67 47.722 217.654C51.4048 221.614 57.3749 226.207 64.308 231.079C68.8833 234.295 73.8573 237.618 78.8469 240.952L78.8471 240.953C81.4139 242.668 83.9847 244.386 86.5077 246.093Z" fill="white" fill-opacity="0.8"/>
<path opacity="0.6" fill-rule="evenodd" clip-rule="evenodd" d="M370.308 55.9429C367.821 53.6103 364.615 52.6445 360.7 53.1552C357.164 53.6166 354.199 56.2399 351.704 60.3811C349.204 64.5304 347.118 70.2931 345.366 77.2256C341.862 91.0959 339.665 109.777 338.231 129.927C336.992 147.349 336.321 165.903 335.873 183.424C333.91 176.802 331.24 171.498 328.145 167.964C324.818 164.164 320.936 162.351 316.91 163.299C315.148 163.713 314.061 164.969 313.512 166.777C312.971 168.558 312.932 170.913 313.245 173.667C313.871 179.184 315.935 186.513 318.559 194.541C320.301 199.872 322.29 205.515 324.281 211.161L324.281 211.162L324.281 211.162L324.281 211.162C328.19 222.249 332.103 233.348 334.158 242.126L333.67 243.01L334.365 242.896L335.307 242.907L335.349 242.739C338.585 242.26 342.621 242.027 346.856 241.831C347.654 241.794 348.458 241.759 349.265 241.723C353.027 241.556 356.844 241.388 360.272 241.072C364.418 240.689 368.08 240.087 370.414 238.97C371.583 238.41 372.496 237.686 372.924 236.722C373.364 235.733 373.246 234.61 372.604 233.379C371.683 231.61 369.68 229.704 367.024 228.228C364.356 226.747 360.984 225.674 357.277 225.615C355.768 225.59 354.208 225.734 352.622 226.084C359.36 219.638 366.406 212.781 372.494 206.419C378.43 200.215 383.482 194.455 386.456 189.989C387.937 187.765 388.938 185.81 389.248 184.253C389.403 183.469 389.393 182.74 389.135 182.117C388.871 181.478 388.371 181.012 387.672 180.724C383.518 179.014 379.437 179.069 375.403 180.695C376.622 178.551 377.805 176.419 378.944 174.311C385.069 162.976 389.956 152.276 392.521 143.693C393.804 139.403 394.515 135.614 394.498 132.525C394.481 129.445 393.738 126.971 392.008 125.434C389.906 123.566 387.599 122.765 385.153 122.992C382.726 123.217 380.224 124.448 377.698 126.52C374.652 129.018 371.517 132.783 368.369 137.644C370.988 126.606 373.041 116.369 374.469 107.111C377.13 89.8496 377.627 75.9328 375.532 66.5567C374.484 61.8674 372.775 58.2564 370.308 55.9429ZM351.113 227.525C353.227 226.851 355.297 226.583 357.261 226.614C360.787 226.671 363.999 227.692 366.538 229.102C369.088 230.519 370.916 232.302 371.718 233.841C372.267 234.895 372.289 235.689 372.011 236.315C371.721 236.966 371.057 237.553 369.982 238.068C367.828 239.099 364.332 239.693 360.18 240.076C356.778 240.389 352.992 240.557 349.231 240.724L349.23 240.724C348.421 240.759 347.613 240.795 346.81 240.832C343.054 241.006 339.41 241.211 336.332 241.596C337.576 240.4 338.902 239.134 340.292 237.81C341.598 237.016 342.91 236.292 344.323 235.65C347.485 234.214 351.168 233.186 356.428 232.743L356.344 231.747C350.986 232.198 347.189 233.251 343.91 234.739C343.652 234.857 343.397 234.977 343.145 235.099L344.545 233.77C346.656 231.766 348.862 229.673 351.113 227.525ZM348.644 228.497C344.958 230.229 341.218 233.293 337.749 238.235C338.396 237.814 339.036 237.406 339.679 237.013C341.024 235.733 342.428 234.4 343.875 233.027L343.876 233.026L343.887 233.016C345.429 231.552 347.021 230.041 348.644 228.497ZM338.465 235.614C342.341 230.776 346.515 227.993 350.588 226.644C357.719 219.839 365.287 212.504 371.771 205.728C377.703 199.528 382.702 193.822 385.624 189.435C387.09 187.232 387.998 185.413 388.267 184.058C388.4 183.386 388.367 182.875 388.211 182.499C388.063 182.14 387.78 181.85 387.291 181.649C383.044 179.901 378.9 180.11 374.754 182.071C374.691 182.101 374.628 182.131 374.565 182.162C363.821 200.864 350.442 220.405 338.951 234.545C338.789 234.9 338.627 235.256 338.465 235.614ZM367.63 140.715C371.275 134.668 374.887 130.119 378.332 127.293C380.77 125.294 383.088 124.188 385.245 123.988C387.383 123.789 389.423 124.474 391.343 126.181C392.766 127.445 393.481 129.574 393.498 132.531C393.514 135.479 392.833 139.16 391.563 143.406C389.026 151.894 384.176 162.525 378.064 173.835C376.716 176.33 375.307 178.857 373.849 181.4C369.65 183.516 365.51 187.31 361.361 192.528C354.494 201.165 347.53 213.798 340.187 229.484C342.139 224.085 344.026 218.742 345.847 213.466C355.405 189.209 365.248 168.219 377.642 152.943L376.865 152.313C366.937 164.55 358.646 180.408 350.852 198.608C357.678 177.831 363.348 158.303 367.63 140.715ZM337.546 232.457C339.881 221.493 342.46 209.912 345.059 198.246L345.059 198.246L345.313 197.105C345.325 197.051 345.337 196.996 345.349 196.941C350.727 177.791 356.845 161.415 363.064 149.044C363.988 147.207 364.913 145.459 365.838 143.805C360.625 164.662 353.528 188.132 344.913 213.107C342.449 219.361 340.006 225.825 337.546 232.457ZM344.379 196.697C342.58 203.106 340.864 209.822 339.255 216.8C339.838 205.469 338.845 195.236 336.789 186.82C337.236 168.339 337.91 148.54 339.229 129.998C340.661 109.862 342.854 91.2521 346.336 77.4706C348.077 70.5772 350.134 64.9237 352.56 60.8972C354.991 56.8626 357.737 54.5502 360.829 54.1468C364.487 53.6695 367.383 54.5707 369.624 56.6723C371.885 58.7929 373.53 62.1833 374.556 66.7748C376.609 75.9606 376.138 89.7235 373.481 106.958C371.932 116.999 369.645 128.199 366.695 140.33C365.184 142.846 363.673 145.607 362.171 148.595C357.396 158.091 352.688 169.919 348.329 183.529C350.742 172.616 353.087 161.827 355.178 151.606C358.133 137.156 360.581 123.83 361.992 112.877C363.399 101.952 363.785 93.3085 362.566 88.2751L361.594 88.5105C362.764 93.3399 362.409 101.807 361 112.75C359.594 123.665 357.152 136.963 354.198 151.405C351.257 165.786 347.81 181.292 344.379 196.697ZM340.689 230.772C351.252 217.377 363.092 199.948 372.883 183.074C369.334 185.2 365.767 188.593 362.144 193.151C355.222 201.857 348.169 214.712 340.689 230.772ZM335.783 233.134C336.4 229.971 337.04 226.85 337.701 223.775C339 211.546 338.464 200.371 336.689 191.075C336.545 197.439 336.424 203.618 336.308 209.504L336.308 209.505L336.308 209.506C336.139 218.125 335.983 226.116 335.783 233.134ZM325.195 210.745C328.7 220.688 332.227 230.692 334.413 239.014L334.405 238.541L334.405 238.53C334.082 218.769 333.84 203.998 326.668 189.8L327.561 189.349C332.879 199.878 334.442 210.72 335.023 223.472C335.12 219.072 335.212 214.408 335.307 209.542L335.307 209.542L335.307 209.539L335.307 209.531L335.307 209.525L335.307 209.519C335.448 202.36 335.597 194.764 335.786 186.929C335.641 186.34 335.491 185.759 335.335 185.188C333.363 177.949 330.582 172.265 327.393 168.622C324.206 164.982 320.674 163.44 317.139 164.272C315.807 164.585 314.942 165.511 314.468 167.068C313.987 168.653 313.931 170.846 314.238 173.554C314.852 178.96 316.886 186.203 319.51 194.23C321.233 199.505 323.211 205.115 325.195 210.744L325.195 210.745L325.195 210.745Z" fill="white"/>
<path d="M129.937 242.111C141.051 191.668 178.37 62.5072 152.924 52.4647C123.852 40.9909 117.967 130.111 129.937 242.111Z" fill="#DCF2E2"/>
<path d="M129.937 242.111C115.364 218.805 83.0566 171.005 93.5061 169.602C112.793 167.012 122.222 195.498 129.937 242.111Z" fill="#DCF2E2"/>
<path d="M129.937 242.705C142.762 218.338 179.525 176.407 167.983 170.46C153.876 163.193 130.365 196.109 129.937 242.705Z" fill="#D2EAD7"/>
<path d="M151.311 192.966C139.769 205.79 135.886 221.237 129.937 242.127" stroke="white"/>
<path d="M130.622 238.023C111.738 199.826 88.203 122.463 103.616 114.757C123.281 104.924 136.105 162.635 130.622 238.023Z" fill="#D2EAD7"/>
<path d="M111.028 144.442C122.57 169.199 126.516 203.21 130.364 241.684" stroke="white"/>
<path d="M130.264 242.336C117.439 236.779 88.1242 232.058 95.21 224.381C100.34 218.824 122.996 214.549 130.264 242.336Z" fill="#D2EAD7"/>
<path d="M111.234 227.032C121.551 230.576 125.022 234.845 130.339 240.618" stroke="white"/>
<path d="M142.661 85.877C132.829 103.831 132.929 184.416 129.937 241.699" stroke="white"/>
<path fill-rule="evenodd" clip-rule="evenodd" d="M446.659 289.951H378.878V288.696H446.659V289.951Z" fill="#2C2727"/>
<path d="M397.029 214.859C397.029 218.386 396.858 226.953 396.239 228.293L419.156 224.737C418.331 222.675 416.637 217.777 416.39 216.044C416.081 213.879 416.39 208.932 417.18 205.771C409.673 204.191 404.932 203.796 395.449 202.61C396.892 204.776 397.029 211.698 397.029 214.859Z" fill="white"/>
<path d="M377.277 165.469L393.519 196.449L396.638 192.337C389.526 181.274 379.381 164.121 378.858 163.493C378.334 162.866 371.745 161.123 371.745 161.123C371.745 161.518 372.744 164.291 373.326 164.679C374.511 165.469 376.487 165.469 377.277 165.469Z" fill="#FED450"/>
<path d="M427.852 161.123L417.832 196.238L413.708 193.135C417.525 180.549 426.251 160.006 426.582 159.26C426.914 158.513 432.227 156.382 432.227 156.382C432.335 156.762 431.862 159.01 431.408 159.543C430.484 160.627 428.612 160.907 427.852 161.123Z" fill="#FED450"/>
<path fill-rule="evenodd" clip-rule="evenodd" d="M420.32 259.902C415.183 246.073 410.442 238.171 409.652 238.171C409.091 238.171 405.094 252.589 403.305 259.041C403.177 259.503 403.06 259.925 402.957 260.297L395.449 260.692C394.659 253.58 394.448 232.623 396.613 228.293C398.367 226.037 401.158 222.911 403.517 220.269C404.877 218.745 406.094 217.382 406.886 216.439C406.886 216.439 395.823 206.166 395.823 203.795C396.218 203.795 398.984 204.981 398.984 204.981L408.071 215.254L414.788 208.537L419.135 207.747C418.773 208.046 418.291 208.438 417.735 208.892C414.647 211.412 409.257 215.81 409.257 216.439C409.257 216.925 411.313 218.416 413.671 220.125C415.813 221.678 418.205 223.411 419.53 224.737C421.39 226.597 424.271 229.478 427.432 258.322L420.32 259.902ZM401.749 225.132L407.676 217.229C408.876 218.537 410.246 219.549 411.586 220.539C412.715 221.372 413.823 222.19 414.789 223.156C410.109 222.863 406.234 223.73 401.749 225.132Z" fill="#84BFB6"/>
<path d="M427.123 284.638C427.26 283.977 422.554 265.888 419.947 258.887C420.27 258.151 421.358 257.195 422.806 256.816C424.255 256.437 426.691 257.25 427.454 257.701C427.851 260.202 428.339 269.46 428.368 271.436C428.398 273.411 429.562 283.609 429.85 284.706C430.137 285.803 430.709 286.055 431.104 286.45C431.48 286.826 432.685 287.24 432.29 288.03C432.052 288.506 430.676 289.121 430.314 289.216C429.952 289.311 427.354 289.417 427.153 289.216C426.758 288.821 426.612 287.901 426.612 287.117C426.612 286.361 426.953 285.464 427.123 284.638Z" fill="#4D4D4D"/>
<path d="M398.074 284.501C397.95 283.488 402.166 265.604 402.956 260.072C402.166 259.677 400.981 258.492 399.4 258.492C397.854 258.492 395.832 259.101 395.449 259.677C395.364 265.036 394.93 282.992 395.054 284.004C395.209 285.27 390.793 286.871 391.188 288.847C391.309 289.454 395.595 289.199 396.963 289.056C397.516 288.999 397.799 288.917 398.074 288.227C398.3 287.662 398.229 285.767 398.074 284.501Z" fill="#4D4D4D"/>
<path d="M415.995 180.088C416.785 182.854 416.097 191.062 416.39 191.942C417.576 195.498 424.293 196.683 424.293 202.215C424.293 202.712 424.688 208.932 410.859 209.722C401.709 210.245 393.758 206.405 392.288 199.054C391.498 195.103 395.449 190.946 395.449 188.781C395.449 186.616 393.49 181.162 393.49 178.059C393.49 174.956 396.097 172.372 397.202 171.254C399.795 168.63 406.403 168.669 408.488 170.606C411.649 173.541 414.238 173.937 415.995 180.088Z" fill="#282B36"/>
<path d="M371.347 97.2385H403.499C405.835 92.3855 413.804 83.9272 408.445 80.1834C405.798 78.3341 399.377 78.9355 396.491 81.0154C394.183 82.6793 394.155 86.2844 394.43 87.671C393.056 86.9777 391.208 85.1656 387.835 85.5911C384.537 86.0071 381.789 89.7509 380.003 91.8308C379.866 91.2762 379.179 90.1669 377.53 90.1669C375.057 90.1669 372.721 94.8813 371.347 97.2385Z" fill="white"/>
<path d="M89.8511 102.9H123.1C127.418 103.332 135.19 99.8819 129.145 93.8451C126.76 91.4637 125.519 89.9644 121.804 89.9644C119.214 89.9644 114.896 91.6891 114.032 93.4139C112.593 92.6953 110.225 90.3857 106.691 90.8268C103.237 91.258 100.79 95.1387 98.9189 97.2947C98.775 96.7198 98.0553 96.0012 96.3281 96.0012C93.7373 96.0012 91.2904 100.457 89.8511 102.9Z" fill="white"/>
<rect x="157.235" y="51.9634" width="196.066" height="170.962" rx="3.5" fill="#FFFBFB" stroke="#83CF9E"/>
<path d="M337.733 241.203C352.596 229.507 373.594 224.228 367.907 218.47C363.032 213.534 344.2 222.69 337.733 241.203Z" fill="#DCF2E2"/>
<path d="M337.732 241.471C324.37 230.475 293.047 218.665 307.211 212.673C321.085 206.803 337.297 220.457 337.732 241.471Z" fill="#D2EAD7"/>
<path d="M315.466 219.028C327.494 224.817 331.537 231.785 337.733 241.209" stroke="white"/>
<path d="M337.02 239.36C356.711 222.144 381.261 187.267 365.197 183.784C344.703 179.339 331.322 205.358 337.02 239.36Z" fill="#D2EAD7"/>
<path d="M357.464 197.167C345.428 208.326 341.306 223.662 337.287 241.01" stroke="white"/>
<path d="M337.237 241.265C350.331 242.345 377.423 250.815 374.01 242.138C371.539 235.856 353.418 223.352 337.237 241.265Z" fill="#D2EAD7"/>
<path d="M359.178 237.561C348.974 235.996 344.447 237.783 337.784 239.943" stroke="white"/>
<path d="M196.893 100.723H201.141C202.983 100.723 204.373 100.99 205.311 101.523C206.248 102.057 206.717 102.979 206.717 104.287C206.717 104.834 206.619 105.329 206.424 105.771C206.235 106.208 205.958 106.569 205.594 106.855C205.229 107.135 204.78 107.324 204.246 107.422V107.52C204.799 107.617 205.291 107.79 205.721 108.037C206.157 108.285 206.499 108.639 206.746 109.102C207 109.564 207.127 110.163 207.127 110.898C207.127 111.771 206.919 112.513 206.502 113.125C206.092 113.737 205.503 114.202 204.734 114.521C203.973 114.84 203.068 115 202.02 115H196.893V100.723ZM199.236 106.611H201.482C202.544 106.611 203.279 106.439 203.689 106.094C204.1 105.749 204.305 105.244 204.305 104.58C204.305 103.903 204.061 103.415 203.572 103.115C203.09 102.816 202.322 102.666 201.268 102.666H199.236V106.611ZM199.236 108.506V113.037H201.707C202.801 113.037 203.569 112.826 204.012 112.402C204.454 111.979 204.676 111.406 204.676 110.684C204.676 110.241 204.575 109.857 204.373 109.531C204.178 109.206 203.855 108.955 203.406 108.779C202.957 108.597 202.352 108.506 201.59 108.506H199.236ZM212.137 104.189V115H209.842V104.189H212.137ZM211.004 100.049C211.355 100.049 211.658 100.143 211.912 100.332C212.173 100.521 212.303 100.846 212.303 101.309C212.303 101.764 212.173 102.09 211.912 102.285C211.658 102.474 211.355 102.568 211.004 102.568C210.639 102.568 210.33 102.474 210.076 102.285C209.829 102.09 209.705 101.764 209.705 101.309C209.705 100.846 209.829 100.521 210.076 100.332C210.33 100.143 210.639 100.049 211.004 100.049ZM219.734 103.984C220.698 103.984 221.525 104.183 222.215 104.58C222.905 104.977 223.436 105.54 223.807 106.27C224.178 106.999 224.363 107.871 224.363 108.887V110.117H217.146C217.173 111.165 217.452 111.973 217.986 112.539C218.527 113.105 219.282 113.389 220.252 113.389C220.942 113.389 221.561 113.324 222.107 113.193C222.661 113.057 223.23 112.858 223.816 112.598V114.463C223.276 114.717 222.726 114.902 222.166 115.02C221.606 115.137 220.936 115.195 220.154 115.195C219.093 115.195 218.159 114.99 217.352 114.58C216.551 114.163 215.923 113.545 215.467 112.725C215.018 111.904 214.793 110.885 214.793 109.668C214.793 108.457 214.998 107.428 215.408 106.582C215.818 105.736 216.395 105.091 217.137 104.648C217.879 104.206 218.745 103.984 219.734 103.984ZM219.734 105.713C219.012 105.713 218.426 105.947 217.977 106.416C217.534 106.885 217.273 107.572 217.195 108.477H222.117C222.111 107.936 222.02 107.458 221.844 107.041C221.674 106.624 221.414 106.299 221.062 106.064C220.717 105.83 220.275 105.713 219.734 105.713ZM232.586 103.984C233.803 103.984 234.751 104.3 235.428 104.932C236.111 105.557 236.453 106.562 236.453 107.949V115H234.158V108.379C234.158 107.539 233.986 106.911 233.641 106.494C233.296 106.071 232.762 105.859 232.039 105.859C230.991 105.859 230.262 106.182 229.852 106.826C229.448 107.471 229.246 108.405 229.246 109.629V115H226.951V104.189H228.738L229.061 105.654H229.188C229.422 105.277 229.712 104.967 230.057 104.727C230.408 104.479 230.799 104.294 231.229 104.17C231.665 104.046 232.117 103.984 232.586 103.984ZM242.137 115L238.025 104.189H240.457L242.684 110.537C242.827 110.941 242.957 111.377 243.074 111.846C243.191 112.314 243.273 112.708 243.318 113.027H243.396C243.442 112.695 243.53 112.298 243.66 111.836C243.79 111.367 243.924 110.934 244.061 110.537L246.287 104.189H248.709L244.598 115H242.137ZM254.656 103.984C255.62 103.984 256.447 104.183 257.137 104.58C257.827 104.977 258.357 105.54 258.729 106.27C259.1 106.999 259.285 107.871 259.285 108.887V110.117H252.068C252.094 111.165 252.374 111.973 252.908 112.539C253.449 113.105 254.204 113.389 255.174 113.389C255.864 113.389 256.482 113.324 257.029 113.193C257.583 113.057 258.152 112.858 258.738 112.598V114.463C258.198 114.717 257.648 114.902 257.088 115.02C256.528 115.137 255.857 115.195 255.076 115.195C254.015 115.195 253.081 114.99 252.273 114.58C251.473 114.163 250.844 113.545 250.389 112.725C249.939 111.904 249.715 110.885 249.715 109.668C249.715 108.457 249.92 107.428 250.33 106.582C250.74 105.736 251.316 105.091 252.059 104.648C252.801 104.206 253.667 103.984 254.656 103.984ZM254.656 105.713C253.934 105.713 253.348 105.947 252.898 106.416C252.456 106.885 252.195 107.572 252.117 108.477H257.039C257.033 107.936 256.941 107.458 256.766 107.041C256.596 106.624 256.336 106.299 255.984 106.064C255.639 105.83 255.197 105.713 254.656 105.713ZM267.508 103.984C268.725 103.984 269.673 104.3 270.35 104.932C271.033 105.557 271.375 106.562 271.375 107.949V115H269.08V108.379C269.08 107.539 268.908 106.911 268.562 106.494C268.217 106.071 267.684 105.859 266.961 105.859C265.913 105.859 265.184 106.182 264.773 106.826C264.37 107.471 264.168 108.405 264.168 109.629V115H261.873V104.189H263.66L263.982 105.654H264.109C264.344 105.277 264.633 104.967 264.979 104.727C265.33 104.479 265.721 104.294 266.15 104.17C266.587 104.046 267.039 103.984 267.508 103.984ZM284.012 104.189V115H282.205L281.893 113.545H281.766C281.538 113.916 281.248 114.225 280.896 114.473C280.545 114.714 280.154 114.893 279.725 115.01C279.295 115.133 278.842 115.195 278.367 115.195C277.553 115.195 276.857 115.059 276.277 114.785C275.704 114.505 275.265 114.076 274.959 113.496C274.653 112.917 274.5 112.168 274.5 111.25V104.189H276.805V110.82C276.805 111.66 276.974 112.288 277.312 112.705C277.658 113.122 278.191 113.33 278.914 113.33C279.611 113.33 280.164 113.187 280.574 112.9C280.984 112.614 281.274 112.191 281.443 111.631C281.619 111.071 281.707 110.384 281.707 109.57V104.189H284.012ZM291.609 103.984C292.573 103.984 293.4 104.183 294.09 104.58C294.78 104.977 295.311 105.54 295.682 106.27C296.053 106.999 296.238 107.871 296.238 108.887V110.117H289.021C289.048 111.165 289.327 111.973 289.861 112.539C290.402 113.105 291.157 113.389 292.127 113.389C292.817 113.389 293.436 113.324 293.982 113.193C294.536 113.057 295.105 112.858 295.691 112.598V114.463C295.151 114.717 294.601 114.902 294.041 115.02C293.481 115.137 292.811 115.195 292.029 115.195C290.968 115.195 290.034 114.99 289.227 114.58C288.426 114.163 287.798 113.545 287.342 112.725C286.893 111.904 286.668 110.885 286.668 109.668C286.668 108.457 286.873 107.428 287.283 106.582C287.693 105.736 288.27 105.091 289.012 104.648C289.754 104.206 290.62 103.984 291.609 103.984ZM291.609 105.713C290.887 105.713 290.301 105.947 289.852 106.416C289.409 106.885 289.148 107.572 289.07 108.477H293.992C293.986 107.936 293.895 107.458 293.719 107.041C293.549 106.624 293.289 106.299 292.938 106.064C292.592 105.83 292.15 105.713 291.609 105.713ZM308.26 103.984C309.627 103.984 310.659 104.287 311.355 104.893C312.059 105.498 312.41 106.442 312.41 107.725V115H310.779L310.34 113.467H310.262C309.956 113.857 309.64 114.18 309.314 114.434C308.989 114.688 308.611 114.876 308.182 115C307.758 115.13 307.241 115.195 306.629 115.195C305.984 115.195 305.408 115.078 304.9 114.844C304.393 114.603 303.992 114.238 303.699 113.75C303.406 113.262 303.26 112.643 303.26 111.895C303.26 110.781 303.673 109.945 304.5 109.385C305.333 108.825 306.59 108.516 308.27 108.457L310.145 108.389V107.822C310.145 107.074 309.969 106.54 309.617 106.221C309.272 105.902 308.784 105.742 308.152 105.742C307.612 105.742 307.088 105.82 306.58 105.977C306.072 106.133 305.577 106.325 305.096 106.553L304.354 104.932C304.881 104.652 305.48 104.424 306.15 104.248C306.827 104.072 307.531 103.984 308.26 103.984ZM310.135 109.834L308.738 109.883C307.592 109.922 306.788 110.117 306.326 110.469C305.864 110.82 305.633 111.302 305.633 111.914C305.633 112.448 305.792 112.839 306.111 113.086C306.43 113.327 306.85 113.447 307.371 113.447C308.165 113.447 308.823 113.223 309.344 112.773C309.871 112.318 310.135 111.65 310.135 110.771V109.834ZM307.605 99.6777C307.781 99.9772 307.996 100.309 308.25 100.674C308.504 101.038 308.768 101.393 309.041 101.738C309.314 102.083 309.555 102.38 309.764 102.627V102.881H308.23C307.983 102.699 307.706 102.477 307.4 102.217C307.094 101.95 306.782 101.673 306.463 101.387C306.15 101.094 305.861 100.817 305.594 100.557C305.333 100.29 305.125 100.062 304.969 99.873V99.6777H307.605ZM210.682 147V132.723H213.025V145.008H219.09V147H210.682ZM223.621 136.189V147H221.326V136.189H223.621ZM222.488 132.049C222.84 132.049 223.143 132.143 223.396 132.332C223.657 132.521 223.787 132.846 223.787 133.309C223.787 133.764 223.657 134.09 223.396 134.285C223.143 134.474 222.84 134.568 222.488 134.568C222.124 134.568 221.814 134.474 221.561 134.285C221.313 134.09 221.189 133.764 221.189 133.309C221.189 132.846 221.313 132.521 221.561 132.332C221.814 132.143 222.124 132.049 222.488 132.049ZM230.936 145.34C231.235 145.34 231.531 145.314 231.824 145.262C232.117 145.203 232.384 145.135 232.625 145.057V146.795C232.371 146.906 232.042 147 231.639 147.078C231.235 147.156 230.815 147.195 230.379 147.195C229.767 147.195 229.217 147.094 228.729 146.893C228.24 146.684 227.853 146.329 227.566 145.828C227.28 145.327 227.137 144.633 227.137 143.748V137.938H225.662V136.912L227.244 136.102L227.996 133.787H229.441V136.189H232.537V137.938H229.441V143.719C229.441 144.266 229.578 144.673 229.852 144.939C230.125 145.206 230.486 145.34 230.936 145.34ZM239.129 135.984C240.092 135.984 240.919 136.183 241.609 136.58C242.299 136.977 242.83 137.54 243.201 138.27C243.572 138.999 243.758 139.871 243.758 140.887V142.117H236.541C236.567 143.165 236.847 143.973 237.381 144.539C237.921 145.105 238.676 145.389 239.646 145.389C240.337 145.389 240.955 145.324 241.502 145.193C242.055 145.057 242.625 144.858 243.211 144.598V146.463C242.671 146.717 242.12 146.902 241.561 147.02C241.001 147.137 240.33 147.195 239.549 147.195C238.488 147.195 237.553 146.99 236.746 146.58C235.945 146.163 235.317 145.545 234.861 144.725C234.412 143.904 234.188 142.885 234.188 141.668C234.188 140.457 234.393 139.428 234.803 138.582C235.213 137.736 235.789 137.091 236.531 136.648C237.273 136.206 238.139 135.984 239.129 135.984ZM239.129 137.713C238.406 137.713 237.82 137.947 237.371 138.416C236.928 138.885 236.668 139.572 236.59 140.477H241.512C241.505 139.936 241.414 139.458 241.238 139.041C241.069 138.624 240.809 138.299 240.457 138.064C240.112 137.83 239.669 137.713 239.129 137.713ZM248.904 147H246.58V132.723H254.646V134.695H248.904V139.148H254.275V141.111H248.904V147ZM261.248 135.984C262.615 135.984 263.647 136.287 264.344 136.893C265.047 137.498 265.398 138.442 265.398 139.725V147H263.768L263.328 145.467H263.25C262.944 145.857 262.628 146.18 262.303 146.434C261.977 146.688 261.6 146.876 261.17 147C260.747 147.13 260.229 147.195 259.617 147.195C258.973 147.195 258.396 147.078 257.889 146.844C257.381 146.603 256.98 146.238 256.688 145.75C256.395 145.262 256.248 144.643 256.248 143.895C256.248 142.781 256.661 141.945 257.488 141.385C258.322 140.825 259.578 140.516 261.258 140.457L263.133 140.389V139.822C263.133 139.074 262.957 138.54 262.605 138.221C262.26 137.902 261.772 137.742 261.141 137.742C260.6 137.742 260.076 137.82 259.568 137.977C259.061 138.133 258.566 138.325 258.084 138.553L257.342 136.932C257.869 136.652 258.468 136.424 259.139 136.248C259.816 136.072 260.519 135.984 261.248 135.984ZM263.123 141.834L261.727 141.883C260.581 141.922 259.777 142.117 259.314 142.469C258.852 142.82 258.621 143.302 258.621 143.914C258.621 144.448 258.781 144.839 259.1 145.086C259.419 145.327 259.839 145.447 260.359 145.447C261.154 145.447 261.811 145.223 262.332 144.773C262.859 144.318 263.123 143.65 263.123 142.771V141.834ZM274.09 135.984C274.272 135.984 274.471 135.994 274.686 136.014C274.9 136.033 275.086 136.059 275.242 136.092L275.027 138.24C274.891 138.201 274.721 138.172 274.52 138.152C274.324 138.133 274.148 138.123 273.992 138.123C273.582 138.123 273.191 138.191 272.82 138.328C272.449 138.458 272.12 138.66 271.834 138.934C271.548 139.201 271.323 139.536 271.16 139.939C270.997 140.343 270.916 140.812 270.916 141.346V147H268.611V136.189H270.408L270.721 138.094H270.828C271.043 137.71 271.31 137.358 271.629 137.039C271.948 136.72 272.312 136.466 272.723 136.277C273.139 136.082 273.595 135.984 274.09 135.984ZM289.461 135.984C290.672 135.984 291.583 136.297 292.195 136.922C292.814 137.547 293.123 138.549 293.123 139.93V147H290.828V140.34C290.828 139.52 290.669 138.901 290.35 138.484C290.031 138.068 289.546 137.859 288.895 137.859C287.983 137.859 287.326 138.152 286.922 138.738C286.525 139.318 286.326 140.161 286.326 141.268V147H284.031V140.34C284.031 139.793 283.96 139.337 283.816 138.973C283.68 138.602 283.468 138.325 283.182 138.143C282.895 137.954 282.534 137.859 282.098 137.859C281.466 137.859 280.962 138.003 280.584 138.289C280.213 138.576 279.946 138.999 279.783 139.559C279.62 140.112 279.539 140.792 279.539 141.6V147H277.244V136.189H279.031L279.354 137.645H279.48C279.702 137.267 279.975 136.958 280.301 136.717C280.633 136.469 281.001 136.287 281.404 136.17C281.808 136.046 282.228 135.984 282.664 135.984C283.471 135.984 284.152 136.128 284.705 136.414C285.258 136.694 285.672 137.124 285.945 137.703H286.121C286.46 137.117 286.932 136.684 287.537 136.404C288.143 136.124 288.784 135.984 289.461 135.984ZM298.309 142.645H296.58L296.111 132.723H298.777L298.309 142.645ZM295.994 145.789C295.994 145.255 296.131 144.881 296.404 144.666C296.684 144.445 297.026 144.334 297.43 144.334C297.827 144.334 298.165 144.445 298.445 144.666C298.725 144.881 298.865 145.255 298.865 145.789C298.865 146.31 298.725 146.688 298.445 146.922C298.165 147.15 297.827 147.264 297.43 147.264C297.026 147.264 296.684 147.15 296.404 146.922C296.131 146.688 295.994 146.31 295.994 145.789Z" fill="#282B36"/>
</svg>
