<?xml version="1.0" encoding="UTF-8"?>
<svg version="1.1" viewBox="0 0 676 416" xmlns="http://www.w3.org/2000/svg">
 <defs>
  <style>.cls-1{fill:#e6f5eb;}.cls-2,.cls-7{fill:#fff;}.cls-2,.cls-6,.cls-9{fill-rule:evenodd;}.cls-2{opacity:0.6;isolation:isolate;}.cls-3{fill:#dcf2e2;}.cls-4{fill:#d2ead7;}.cls-5{fill:none;stroke:#fff;}.cls-6{fill:#2c2727;}.cls-8{fill:#fed450;}.cls-9{fill:#84bfb6;}.cls-10{fill:#4d4d4d;}.cls-11{fill:#282b36;}.cls-12{fill:#fffbfb;stroke:#83cf9e;}</style>
 </defs>
 <path class="cls-1" d="m591 145c23.9 44.2 67.4 121 24.6 151-55.4 37.9-159 44.5-270 44.5-137 1.26-257-12.8-279-20.5-45.6-16.4-23.6-114 40.8-188 59.2-73.8 97.2-50.3 219-111 98.2-48.4 223 47.4 264 124z"/>
 <path class="cls-1" d="m262 27.6c-11 5.18-47.5 19.8-40.4 19.8 23.2 0 79.9-19.2 86.7-33.1 8.64-17.5-35.4 8.19-46.4 13.4z"/>
 <path class="cls-2" d="m498 84.6c-3.46-3.25-7.93-4.58-13.4-3.88-4.95 0.65-9.06 4.32-12.5 10s-6.3 13.6-8.7 23.1c-4.8 19-7.8 44.6-9.76 72.1-1.66 23.3-2.58 48.1-3.19 71.6-2.64-8.39-6.14-15.2-10.2-19.8-4.59-5.24-10-7.78-15.6-6.46a6.59 6.59 0 0 0-4.83 4.93 24.7 24.7 0 0 0-0.37 9.53c0.86 7.57 3.69 17.6 7.28 28.6 2.38 7.31 5.11 15 7.83 22.8 5.34 15.1 10.7 30.2 13.5 42.2l-0.87 1.58 2.56-0.42h0.39v-0.07c4.38-0.63 9.83-0.95 15.6-1.21l3.29-0.15c5.15-0.23 10.4-0.46 15.1-0.89 5.67-0.52 10.7-1.35 14-2.9a7 7 0 0 0 3.56-3.2 5.38 5.38 0 0 0-0.45-4.79c-1.29-2.48-4.07-5.12-7.73-7.15a28.8 28.8 0 0 0-13.4-3.61 28 28 0 0 0-5.57 0.47c9-8.64 18.4-17.8 26.6-26.3s15-16.4 19.1-22.5a24.3 24.3 0 0 0 3.85-7.94 5.37 5.37 0 0 0-0.16-3.07 3.8 3.8 0 0 0-2.14-2 21.6 21.6 0 0 0-16.3-0.3c1.54-2.72 3-5.44 4.49-8.12 8.39-15.5 15.1-30.2 18.6-41.9a55.2 55.2 0 0 0 2.71-15.4c0-4.25-1-7.72-3.49-9.89a12.3 12.3 0 0 0-9.57-3.4c-3.39 0.31-6.86 2-10.3 4.88-3.94 3.23-8 8-12 14.1 3.43-14.6 6.12-28.1 8-40.4 3.64-23.6 4.33-42.7 1.45-55.6-1.47-6.45-3.82-11.4-7.25-14.7zm-26.3 235a26.1 26.1 0 0 1 8.28-1.22 27.1 27.1 0 0 1 12.6 3.37c3.46 1.93 5.91 4.33 7 6.38a3.55 3.55 0 0 1 0.4 3.17 5.13 5.13 0 0 1-2.66 2.27c-2.9 1.39-7.64 2.2-13.3 2.72-4.65 0.43-9.82 0.66-15 0.89l-3.31 0.15c-4.83 0.22-9.54 0.48-13.6 0.95l4.85-4.63a50.2 50.2 0 0 1 5.47-2.93 48 48 0 0 1 16.5-3.95l-0.16-1.87a50.2 50.2 0 0 0-16.7 4l0.78-0.74c2.91-2.79 5.91-5.64 8.97-8.56zm-4.93 2.11a38.8 38.8 0 0 0-12.5 11.4l1.5-0.94 5.73-5.44zm-10.5 6a34.5 34.5 0 0 1 14.4-9.8c9.74-9.3 20.1-19.3 28.9-28.6 8.11-8.48 14.9-16.3 18.9-22.2 2-3 3.22-5.46 3.58-7.27a3.58 3.58 0 0 0-0.06-2 1.91 1.91 0 0 0-1.13-1 20 20 0 0 0-16.9 0.57l-0.11 0.06h-0.08a579 579 0 0 1-47.5 70.2zm38.1-127c5-8.24 9.89-14.4 14.6-18.3 3.32-2.72 6.44-4.2 9.32-4.47a10.5 10.5 0 0 1 8.16 2.94c1.86 1.66 2.84 4.49 2.86 8.5a53.2 53.2 0 0 1-2.64 14.8c-3.46 11.6-10.1 26.1-18.4 41.6q-2.76 5.08-5.73 10.3c-5.77 2.92-11.4 8.13-17.1 15.2-8.71 11-17.5 26.6-26.8 45.9q3.06-8.58 6-17c13.1-33.2 26.5-61.8 43.5-82.7l-1.46-1.18c-12.7 15.6-23.4 35.6-33.5 58.5 8.56-26.5 15.7-51.5 21.2-74.1zm-40.4 122c3-14 6.27-28.6 9.55-43.4l0.35-1.56c0-0.08 0-0.15 0.05-0.22 7.35-26.2 15.7-48.6 24.2-65.5q1.42-2.83 2.85-5.45c-7.08 28-16.6 59.5-28.1 92.9q-4.47 11.4-8.87 23.2zm8.13-45.6q-3.35 11.9-6.39 24.9a142 142 0 0 0-3.49-38.3c0.61-25.3 1.53-52.3 3.33-77.7 2-27.5 5-53 9.72-71.8 2.38-9.42 5.19-17.1 8.49-22.6s7-8.58 11.1-9.12c4.94-0.64 8.83 0.57 11.8 3.39s5.27 7.43 6.67 13.7c2.8 12.5 2.16 31.3-1.47 54.9-2.12 13.7-5.24 29-9.27 45.6-2.06 3.44-4.13 7.21-6.18 11.3a327 327 0 0 0-17.4 42.9c2.91-13.2 5.73-26.2 8.27-38.7 4-19.8 7.39-38 9.32-53s2.46-26.8 0.78-33.7l-1.82 0.44c1.59 6.55 1.11 18.1-0.82 33.1s-5.26 33.1-9.3 52.9-8.73 40.9-13.4 61.9zm-3.63 44.8a588 588 0 0 0 42.1-62.6c-4.53 2.9-9.11 7.34-13.8 13.2-9.17 11.5-18.5 28.4-28.4 49.4zm-7.55 2.13q1-5 2-9.84a156 156 0 0 0-0.94-42.2c-0.17 7.81-0.32 15.4-0.46 22.7-0.15 10.6-0.36 20.5-0.6 29.3zm-14.6-27.7c4.52 12.8 9.07 25.8 12.1 36.7-0.44-26.4-0.92-46.1-10.5-65.2l1.67-0.84c6.38 12.6 8.82 25.6 9.86 40.4q0.13-6.11 0.26-12.6c0.19-9.8 0.39-20.2 0.65-30.9-0.2-0.79-0.4-1.57-0.61-2.34-2.69-9.89-6.48-17.6-10.8-22.6s-9.07-7-13.8-5.87a4.75 4.75 0 0 0-3.47 3.66 22.9 22.9 0 0 0-0.3 8.77c0.83 7.36 3.61 17.2 7.2 28.2 2.35 7.2 5.05 14.9 7.77 22.6z"/>
 <path class="cls-3" d="m169 339c15.2-69 66.2-246 31.4-259-39.8-15.7-47.8 106-31.4 259z"/>
 <path class="cls-3" d="m169 339c-19.9-31.9-64.1-97.3-49.8-99.2 26.4-3.54 39.3 35.4 49.8 99.2z"/>
 <path class="cls-4" d="m169 340c17.5-33.3 67.8-90.7 52-98.8-19.2-9.94-51.4 35.1-52 98.8z"/>
 <path class="cls-5" d="m198 272c-15.8 17.5-21.1 38.7-29.2 67.2"/>
 <path class="cls-4" d="m170 334c-25.8-52.2-58-158-37-169 26.9-13.4 44.4 65.5 37 169z"/>
 <path class="cls-5" d="m143 206c15.8 33.9 21.2 80.4 26.4 133"/>
 <path class="cls-4" d="m169 340c-17.6-7.61-57.6-14.1-48-24.6 7.06-7.61 38.1-13.4 48 24.6z"/>
 <path class="cls-5" d="m143 319c14.1 4.85 18.9 10.7 26.1 18.6"/>
 <path class="cls-5" d="m186 126c-13.4 24.6-13.3 135-17.4 213"/>
 <path class="cls-6" d="m602 405h-92.7v-1.72h92.7z"/>
 <path class="cls-7" d="m534 302c0 4.82-0.23 16.5-1.08 18.4l31.4-4.87c-1.13-2.82-3.45-9.52-3.78-11.9a47.2 47.2 0 0 1 1.08-14c-10.3-2.16-16.8-2.71-29.7-4.33 1.97 2.97 2.16 12.4 2.16 16.8z"/>
 <path class="cls-8" d="m507 235 22.2 42.4 4.27-5.62c-9.73-15.1-23.6-38.6-24.3-39.5s-9.73-3.24-9.73-3.24c0 0.54 1.37 4.33 2.17 4.87 1.62 1.03 4.32 1.03 5.42 1.03z"/>
 <path class="cls-8" d="m576 229-13.7 48-5.64-4.25c5.18-17.2 17.2-45.3 17.6-46.3s7.72-3.94 7.72-3.94a9.71 9.71 0 0 1-1.12 4.33c-1.26 1.53-3.82 1.86-4.86 2.16z"/>
 <path class="cls-9" d="m566 364c-7-18.9-13.5-29.7-14.6-29.7-0.77 0-6.24 19.7-8.68 28.6-0.18 0.63-0.34 1.21-0.48 1.72l-10.3 0.54c-1.08-9.73-1.37-38.4 1.59-44.3 2.4-3.09 6.22-7.36 9.45-11 1.86-2.08 3.52-4 4.61-5.24 0 0-15.1-14-15.1-17.3a37.3 37.3 0 0 1 4.33 1.63l12.4 14 9.18-9.19 6-1.08-1.96 1.61c-4.23 3.44-11.6 9.46-11.6 10.3 0 0.67 2.81 2.7 6 5a78.1 78.1 0 0 1 8 6.31c2.55 2.55 6.49 6.49 10.8 45.9zm-25.4-47.6 8.11-10.8a36.3 36.3 0 0 0 5.34 4.53 38.4 38.4 0 0 1 4.39 3.58c-6.41-0.4-11.7 0.79-17.8 2.7z"/>
 <path class="cls-10" d="m575 398c0.19-0.9-6.25-25.6-9.82-35.2a6.1 6.1 0 0 1 3.91-2.84c2-0.51 5.32 0.6 6.36 1.22 0.54 3.42 1.21 16.1 1.25 18.8s1.64 16.7 2 18.2a4.2 4.2 0 0 0 1.71 2.38c0.52 0.52 2.17 1.08 1.63 2.16-0.33 0.66-2.21 1.5-2.71 1.63s-4 0.27-4.32 0a4.55 4.55 0 0 1-0.74-2.87 19.6 19.6 0 0 1 0.73-3.4z"/>
 <path class="cls-10" d="m535 397c-0.17-1.39 5.6-25.8 6.68-33.4-1.08-0.54-2.7-2.16-4.87-2.16s-4.88 0.83-5.4 1.62c-0.12 7.33-0.71 31.9-0.54 33.3 0.21 1.73-5.83 3.92-5.29 6.62 0.17 0.83 6 0.48 7.9 0.29a1.47 1.47 0 0 0 1.52-1.14 16.4 16.4 0 0 0 0-5.09z"/>
 <path class="cls-11" d="m560 255c1.08 3.78 0.13 15 0.54 16.2 1.62 4.86 10.8 6.48 10.8 14 0 0.68 0.54 9.19-18.4 10.3-12.5 0.72-23.4-4.53-25.4-14.6-1.09-5.41 4.32-11.1 4.32-14s-2.68-10.4-2.68-14.7 3.57-7.78 5.08-9.31c3.55-3.59 12.6-3.54 15.4-0.89 4.27 4.02 7.81 4.56 10.3 13z"/>
 <path class="cls-7" d="m499 141h44c3.2-6.64 14.1-18.2 6.77-23.3-3.62-2.53-12.4-1.71-16.4 1.14-3.16 2.27-3.2 7.2-2.82 9.1-1.88-1-4.41-3.43-9-2.84s-8.27 5.69-10.7 8.53a3.3 3.3 0 0 0-3.38-2.27c-3.44 0-6.63 6.43-8.51 9.67z"/>
 <path class="cls-7" d="m114 149h45.5c5.9 0.59 16.5-4.12 8.27-12.4-3.27-3.26-5-5.31-10-5.31-3.54 0-9.45 2.36-10.6 4.72-2-1-5.21-4.15-10-3.54s-8.07 5.9-10.6 8.85c-0.2-0.79-1.18-1.77-3.55-1.77-3.58-0.02-6.93 6.07-8.9 9.43z"/>
 <rect class="cls-12" x="206" y="79.6" width="268" height="233" rx="6.55"/>
 <path class="cls-3" d="m453 338c20.3-16 49-23.2 41.3-31.1-6.66-6.75-32.4 5.77-41.3 31.1z"/>
 <path class="cls-4" d="m453 339c-18.3-15-61.1-31.2-41.8-39.4 19-8.03 41.2 10.6 41.8 39.4z"/>
 <path class="cls-5" d="m422 308c16.4 7.92 22 17.4 30.5 30.4"/>
 <path class="cls-4" d="m452 336c26.9-23.6 60.5-71.3 38.6-76-28-6.11-46.3 29.5-38.6 76z"/>
 <path class="cls-5" d="m480 278c-16.5 15.3-22.1 36.2-27.6 60"/>
 <path class="cls-4" d="m452 338c17.9 1.48 55 13.1 50.3 1.2-3.38-8.6-28.2-25.7-50.3-1.2z"/>
 <path class="cls-5" d="m482 333c-14-2.15-20.2 0.3-29.3 3.25"/>
 <path d="m266 222v-26.4h3.07v23.6h11.6v2.79z"/>
 <path d="m285 197a2 2 0 0 1 0.5-1.51 1.88 1.88 0 0 1 2.52 0 2 2 0 0 1 0.52 1.5 2 2 0 0 1-0.52 1.51 1.76 1.76 0 0 1-1.25 0.49 1.74 1.74 0 0 1-1.27-0.49 2.07 2.07 0 0 1-0.5-1.5zm3.25 25.2h-3v-19.8h3z"/>
 <path d="m301 220a9.49 9.49 0 0 0 1.53-0.12 7.75 7.75 0 0 0 1.18-0.24v2.3a5.83 5.83 0 0 1-1.44 0.38 10 10 0 0 1-1.71 0.16q-5.75 0-5.74-6.05v-11.8h-2.84v-1.45l2.84-1.25 1.26-4.22h1.74v4.59h5.74v2.33h-5.74v11.6a4 4 0 0 0 0.84 2.74 3 3 0 0 0 2.34 0.93z"/>
 <path d="m316 223a9.07 9.07 0 0 1-6.93-2.68 10.3 10.3 0 0 1-2.54-7.42 11.5 11.5 0 0 1 2.36-7.61 7.82 7.82 0 0 1 6.33-2.82 7.48 7.48 0 0 1 5.89 2.45 9.42 9.42 0 0 1 2.17 6.46v1.9h-13.7a7.81 7.81 0 0 0 1.76 5.29 6.06 6.06 0 0 0 4.7 1.81 16 16 0 0 0 6.33-1.34v2.67a15.8 15.8 0 0 1-3 1 16.8 16.8 0 0 1-3.4 0.29zm-0.82-18a4.88 4.88 0 0 0-3.8 1.55 7.13 7.13 0 0 0-1.67 4.3h10.3a6.64 6.64 0 0 0-1.26-4.35 4.48 4.48 0 0 0-3.59-1.51z"/>
 <path d="M337.28,205h-5v17.47h-3V205H325.7v-1.36l3.54-1.08v-1.11q0-7.29,6.38-7.29a13.19,13.19,0,0,1,3.69.63l-.78,2.4a10,10,0,0,0-3-.56,2.89,2.89,0,0,0-2.51,1.13,6.3,6.3,0,0,0-.82,3.62v1.29h5Z"/>
 <path d="m353 222-0.59-2.82h-0.15a8.28 8.28 0 0 1-2.95 2.52 9 9 0 0 1-3.68 0.66 6.61 6.61 0 0 1-4.61-1.52 5.51 5.51 0 0 1-1.67-4.32q0-6 9.59-6.29l3.36-0.1v-1.23a5 5 0 0 0-1-3.44 4.14 4.14 0 0 0-3.21-1.11 13 13 0 0 0-5.6 1.51l-0.92-2.29a14.4 14.4 0 0 1 6.7-1.7q3.54 0 5.25 1.57t1.71 5v13.5zm-6.77-2.12a6.1 6.1 0 0 0 4.4-1.53 5.68 5.68 0 0 0 1.6-4.3v-1.79l-3 0.12a10.9 10.9 0 0 0-5.16 1.12 3.34 3.34 0 0 0-1.58 3.06 3.09 3.09 0 0 0 1 2.47 4.09 4.09 0 0 0 2.74 0.85z"/>
 <path d="m371 202a12.1 12.1 0 0 1 2.37 0.22l-0.42 2.78a10.2 10.2 0 0 0-2.17-0.27 5.28 5.28 0 0 0-4.11 1.95 7.11 7.11 0 0 0-1.71 4.86v10.6h-3v-19.8h2.53l0.34 3.66h0.15a8.7 8.7 0 0 1 2.65-3 6 6 0 0 1 3.37-1.03z"/>
 <path d="m402 222v-12.9a5.39 5.39 0 0 0-1-3.55 4 4 0 0 0-3.15-1.18 5.11 5.11 0 0 0-4.14 1.61 7.64 7.64 0 0 0-1.33 4.95v11.1h-3v-12.9a5.39 5.39 0 0 0-1-3.55 4 4 0 0 0-3.16-1.18 4.88 4.88 0 0 0-4.13 1.69c-0.88 1.13-1.31 3-1.31 5.54v10.4h-3v-19.8h2.4l0.49 2.71h0.14a5.86 5.86 0 0 1 2.39-2.26 7.24 7.24 0 0 1 3.46-0.82q4.65 0 6.07 3.36h0.15a6.31 6.31 0 0 1 2.56-2.45 8 8 0 0 1 3.83-0.91 6.7 6.7 0 0 1 5 1.73q1.68 1.73 1.68 5.52v12.9z"/>
 <path d="m411 221c0-1.64 0.72-2.46 2.17-2.46a2 2 0 0 1 1.62 0.64 2.68 2.68 0 0 1 0.56 1.82 2.63 2.63 0 0 1-0.57 1.8 2.05 2.05 0 0 1-1.61 0.64 2.16 2.16 0 0 1-1.55-0.57 2.45 2.45 0 0 1-0.62-1.87zm3.14-5.36h-1.89l-0.92-19.2h3.74z"/>
 <g aria-label="Witamy w">
  <path d="m290 152-7.04 26.5h-3.37l-5.15-17.3q-0.297-1.07-0.593-2.15-0.297-1.07-0.482-1.89-0.185-0.853-0.259-1.19-0.0371 0.482-0.408 2.08-0.334 1.56-0.853 3.26l-5 17.2h-3.37l-7.01-26.5h3.48l4.11 16.2q0.445 1.71 0.741 3.3 0.334 1.59 0.519 3 0.185-1.45 0.556-3.15 0.371-1.71 0.853-3.34l4.67-16h3.45l4.86 16.1q0.519 1.71 0.89 3.41 0.371 1.67 0.556 2.97 0.185-1.37 0.519-2.97 0.334-1.63 0.778-3.37l4.08-16.1z"/>
  <path d="m295 151q0.741 0 1.3 0.519 0.593 0.482 0.593 1.56 0 1.04-0.593 1.56-0.556 0.519-1.3 0.519-0.815 0-1.37-0.519t-0.556-1.56q0-1.07 0.556-1.56 0.556-0.519 1.37-0.519zm1.59 7.45v19.9h-3.26v-19.9z"/>
  <path d="m309 176q0.741 0 1.52-0.111 0.778-0.148 1.26-0.297v2.48q-0.519 0.259-1.48 0.408-0.964 0.185-1.85 0.185-1.56 0-2.89-0.519-1.3-0.556-2.11-1.89-0.815-1.33-0.815-3.74v-11.6h-2.82v-1.56l2.85-1.3 1.3-4.23h1.93v4.56h5.75v2.52h-5.75v11.5q0 1.82 0.853 2.71 0.89 0.853 2.26 0.853z"/>
  <path d="m324 158q3.63 0 5.37 1.59 1.74 1.59 1.74 5.08v13.5h-2.37l-0.63-2.82h-0.148q-1.3 1.63-2.74 2.41-1.41 0.778-3.93 0.778-2.71 0-4.49-1.41-1.78-1.45-1.78-4.49 0-2.97 2.34-4.56 2.34-1.63 7.19-1.78l3.37-0.111v-1.19q0-2.48-1.07-3.45-1.07-0.964-3.04-0.964-1.56 0-2.97 0.482-1.41 0.445-2.63 1.04l-1-2.45q1.3-0.704 3.08-1.19 1.78-0.519 3.71-0.519zm0.964 10.6q-3.71 0.148-5.15 1.19-1.41 1.04-1.41 2.93 0 1.67 1 2.45 1.04 0.778 2.63 0.778 2.52 0 4.19-1.37 1.67-1.41 1.67-4.3v-1.78z"/>
  <path d="m359 158q3.37 0 5.04 1.74 1.67 1.71 1.67 5.56v12.9h-3.22v-12.8q0-4.71-4.04-4.71-2.89 0-4.15 1.67-1.22 1.67-1.22 4.86v11h-3.22v-12.8q0-4.71-4.08-4.71-3 0-4.15 1.85-1.15 1.85-1.15 5.34v10.3h-3.26v-19.9h2.63l0.482 2.71h0.185q0.927-1.56 2.48-2.3 1.59-0.778 3.37-0.778 4.67 0 6.08 3.34h0.185q1-1.71 2.71-2.52 1.74-0.815 3.67-0.815z"/>
  <path d="m368 158h3.48l4.3 11.3q0.556 1.48 1 2.85 0.445 1.33 0.667 2.56h0.148q0.222-0.927 0.704-2.41 0.482-1.52 1-3.04l4.04-11.3h3.52l-8.56 22.6q-1.04 2.82-2.71 4.49-1.63 1.67-4.52 1.67-0.89 0-1.56-0.111-0.667-0.0741-1.15-0.185v-2.59q0.408 0.0741 0.964 0.148 0.593 0.0741 1.22 0.0741 1.71 0 2.74-0.964 1.07-0.964 1.67-2.56l1.04-2.63z"/>
  <path d="m413 167q-0.482-1.52-0.853-2.97-0.334-1.48-0.519-2.3h-0.148q-0.148 0.815-0.482 2.3-0.334 1.45-0.853 3l-3.56 11.2h-3.71l-5.45-19.9h3.37l2.74 10.6q0.408 1.59 0.778 3.22 0.371 1.63 0.519 2.71h0.148q0.148-0.63 0.334-1.56 0.222-0.927 0.482-1.93 0.259-1.04 0.519-1.85l3.52-11.2h3.56l3.41 11.2q0.408 1.26 0.778 2.74 0.408 1.48 0.556 2.56h0.148q0.111-0.927 0.482-2.56 0.408-1.63 0.853-3.34l2.78-10.6h3.34l-5.52 19.9h-3.82z"/>
 </g>
</svg>
