<?xml version="1.0" encoding="UTF-8"?>
<svg xmlns="http://www.w3.org/2000/svg" version="1.1" viewBox="0 0 471 291">
  <defs>
    <style>
      .cls-1 {
        fill: #84bfb6;
      }

      .cls-1, .cls-2, .cls-3, .cls-4 {
        fill-rule: evenodd;
      }

      .cls-5, .cls-6, .cls-7, .cls-8 {
        fill: #282b36;
      }

      .cls-9 {
        fill: #fed450;
      }

      .cls-2 {
        fill-opacity: .8;
      }

      .cls-2, .cls-3, .cls-10 {
        fill: #fff;
      }

      .cls-11 {
        fill: #d2ead7;
      }

      .cls-12 {
        fill: #4d4d4d;
      }

      .cls-13, .cls-3, .cls-6, .cls-7 {
        isolation: isolate;
      }

      .cls-14 {
        fill: #dcf2e2;
      }

      .cls-3 {
        opacity: .6;
      }

      .cls-4 {
        fill: #2c2727;
      }

      .cls-6 {
        font-family: OpenSans-Semibold, 'Open Sans';
        font-weight: 600;
      }

      .cls-6, .cls-7 {
        font-size: 20px;
      }

      .cls-15 {
        fill: #fffbfb;
        stroke: #83cf9e;
      }

      .cls-7 {
        font-family: ArialUnicodeMS, 'Arial Unicode MS';
      }

      .cls-8, .cls-16 {
        display: none;
      }

      .cls-17 {
        fill: #e6f5eb;
      }

      .cls-18 {
        fill: none;
        stroke: #fff;
      }
    </style>
  </defs>
  <!-- Generator: Adobe Illustrator 28.7.1, SVG Export Plug-In . SVG Version: 1.2.0 Build 142)  -->
  <g>
    <g id="Layer_1">
      <g id="Layer_1-2" data-name="Layer_1">
        <g>
          <g id="Layer_1-2">
            <path class="cls-17" d="M438.8,100.3c17.5,32.3,49.2,88.8,18,110.2-40.5,27.7-116.4,32.5-197.7,32.5-100.2.9-188.1-9.4-203.7-15-33.3-12-17.2-83.5,29.8-137.6,43.3-54,71.1-36.8,160.4-80.8,71.8-35.4,162.9,34.6,193.2,90.7h0Z"/>
            <path class="cls-17" d="M198.2,14.2c-8,3.8-34.7,14.4-29.5,14.4,16.9,0,58.4-14,63.4-24.2,6.3-12.8-25.8,6-33.9,9.8h0Z"/>
            <path class="cls-2" d="M26.8,90.5c-3.5-.4-6.8.7-9.8,3.4-2.7,2.4-3.7,6.3-3.5,11.1.3,4.8,1.9,10.6,4.4,17.2,5.1,13.2,14.2,29.4,24.7,46.4,9.1,14.7,19.4,30,29.3,44.3-5.6-4.2-11-6.9-15.7-7.9-5.1-1.1-9.4-.2-12.3,2.9-1.3,1.4-1.5,3-.9,4.8s1.9,3.7,3.8,5.7c3.8,4,9.8,8.7,16.7,13.6,4.6,3.2,9.6,6.6,14.6,9.9h0c2.6,1.7,5.1,3.4,7.6,5.1,7.1,4.8,13.8,9.5,18.9,13.8v1l.6-.5h0l.8-.6h0c2.5-2.4,5.8-5,9.3-7.7.7-.5,1.3-1,2-1.5h0c3.1-2.4,6.3-4.7,9-7,3.3-2.8,6.1-5.4,7.4-7.7.7-1.1,1-2.3.8-3.3-.2-1.1-1-1.9-2.2-2.5-1.8-.9-4.6-1.2-7.8-.8-3.1.4-6.6,1.5-9.8,3.7-1.3.9-2.6,1.9-3.7,3.2,2-9.1,4-18.8,5.5-27.5,1.4-8.5,2.4-16.1,2.3-21.4,0-2.7-.3-4.8-1-6.2-.3-.7-.8-1.3-1.4-1.7s-1.3-.4-2-.2c-4.6,1.1-8,3.6-10.5,7.3-.2-2.4-.4-4.8-.7-7.2-1.4-12.7-3.5-24.1-6.3-32.5s-3-7.6-4.8-10.1-3.9-4-6.3-4.2c-2.9-.3-5.3.5-7.2,2.1-1.9,1.6-3.3,4.1-4.3,7.2-1.1,3.8-1.6,8.7-1.5,14.5-4.2-10.4-8.5-19.9-12.7-28.1-7.8-15.4-15.5-26.8-22.8-33.1-3.6-3.1-7.2-5-10.7-5.4h.2ZM110.8,239.1c1.4-1.8,3-3.2,4.7-4.4,3.1-2,6.4-3.1,9.4-3.5s5.6,0,7.2.7c1.1.5,1.6,1.1,1.7,1.8.1.7,0,1.5-.7,2.6-1.2,2.1-3.9,4.6-7.2,7.4-2.7,2.3-5.9,4.6-9,7h0c-.7.5-1.3,1-2,1.5-3.1,2.4-6.1,4.7-8.5,6.8.4-1.7.8-3.5,1.2-5.4.7-1.4,1.3-2.8,2.2-4.1,1.9-3,4.4-6,8.6-9.5l-.6-.8c-4.3,3.5-6.9,6.6-8.9,9.7-.2.3-.3.5-.5.8l.4-1.9h0c.6-2.9,1.3-5.8,2-8.9v.2ZM109.3,241.2c-2.2,3.6-3.6,8.3-3.6,14.3.3-.7.6-1.5,1-2.2.4-1.8.8-3.7,1.2-5.6h0c.5-2.1.9-4.3,1.4-6.5ZM104.7,253.1c.5-6.2,2.4-11,5.1-14.5,2.1-9.7,4.3-20,5.9-29.2,1.4-8.5,2.4-16,2.3-21.2,0-2.6-.3-4.6-.9-5.8s-.6-1-1-1.2c-.3-.2-.8-.3-1.3-.1-4.7,1.1-8.1,3.7-10.5,7.8v.2c1.8,21.3,1.8,44.8.2,62.9,0,.4.2.8.2,1.3,0,0,0-.2,0-.2ZM74.1,159.9c-.4-7,0-12.8,1.3-17,.9-3,2.2-5.3,4-6.7,1.7-1.4,3.9-2.1,6.5-1.9,2,.2,3.8,1.5,5.6,3.8,1.7,2.3,3.3,5.7,4.7,9.8,2.8,8.3,4.9,19.7,6.3,32.3.3,2.8.6,5.6.8,8.5-2.3,4.2-3.7,9.7-4.2,16.3-.8,11.1.7,25.4,3.6,42.5-1.5-5.6-3.1-11.1-4.6-16.5-6-25.1-9.9-47.7-8.2-67.2h-1c-1.3,15.7.9,33.4,5,52.8-6.4-20.8-13-39.9-19.7-56.7h-.1ZM102.2,251.3c-4.5-10.2-9.1-21.1-13.7-32.1l-.4-1.1v-.2c-6.6-18.5-11-35.2-12.9-48.8-.3-2.1-.5-4.1-.7-6,7.8,19.8,15.4,42.8,22.7,67.9,1.6,6.5,3.3,13.2,5.1,20.1v.2h0ZM87,218.4c2.2,6.3,4.7,12.7,7.5,19.3-6.2-9.5-13-17.2-19.8-22.7-10.4-15-21.4-31.3-31.1-46.9-10.5-17-19.6-33.1-24.6-46.2-2.5-6.5-4.1-12.3-4.4-16.9-.3-4.7.7-8.1,3.1-10.3,2.9-2.5,5.9-3.5,9-3.2,3.2.4,6.6,2.1,10.1,5.2,7.1,6.1,14.8,17.4,22.6,32.8,4.5,8.9,9.1,19.3,13.7,30.7.2,2.9.5,6,1,9.3,1.5,10.5,4.4,22.9,8.7,36.5-4.4-10.3-8.7-20.4-13-30-5.9-13.3-11.6-25.4-16.8-35s-9.9-16.7-13.9-20l-.6.8c3.8,3.2,8.5,10.1,13.7,19.7,5.2,9.6,10.9,21.6,16.8,34.9,5.9,13.2,12,27.7,18.1,42h0ZM103.8,248c1.2-17,1.1-38-.4-57.4-1.8,3.8-2.9,8.7-3.3,14.5-.8,11.1.7,25.6,3.7,42.9ZM101.1,252.8c-1.4-3-2.7-5.9-3.9-8.8-6.1-10.6-13.1-19.3-20.1-25.7,3.6,5.2,7.2,10.3,10.5,15.1h0c5,7.1,9.5,13.6,13.5,19.4ZM86.5,246.1c6.2,4.2,12,8.3,16.8,12.1l-.4-.5c-11.8-15.6-20.7-27.3-35.1-34.4l.4-.9c10.8,5.4,18.6,13.3,26.7,23.3-2.6-3.7-5.3-7.6-8.2-11.7h0c-4.1-5.8-8.4-12-12.8-18.4-.5-.4-.9-.8-1.4-1.1-5.9-4.6-11.6-7.5-16.5-8.6-4.9-1-8.8-.2-11.3,2.6-1,1-1.2,2.3-.6,3.8.5,1.5,1.7,3.3,3.6,5.3,3.7,4,9.7,8.6,16.6,13.4,4.6,3.2,9.5,6.5,14.5,9.9h0c2.6,1.7,5.1,3.4,7.7,5.1h0Z"/>
            <path class="cls-3" d="M370.3,55.9c-2.5-2.3-5.7-3.3-9.6-2.8-3.5.5-6.5,3.1-9,7.2-2.5,4.1-4.6,9.9-6.3,16.8-3.5,13.9-5.7,32.6-7.1,52.7-1.2,17.4-1.9,36-2.4,53.5-2-6.6-4.6-11.9-7.7-15.5-3.3-3.8-7.2-5.6-11.2-4.7-1.8.4-2.8,1.7-3.4,3.5-.5,1.8-.6,4.1-.3,6.9.6,5.5,2.7,12.8,5.3,20.9,1.7,5.3,3.7,11,5.7,16.6h0c3.9,11.1,7.8,22.2,9.9,31l-.5.9h.7c0-.1.9-.1.9-.1v-.2c3.3-.5,7.3-.7,11.5-.9.8,0,1.6,0,2.4-.1,3.8-.2,7.6-.3,11-.7,4.1-.4,7.8-1,10.1-2.1,1.2-.6,2.1-1.3,2.5-2.2.4-1,.3-2.1-.3-3.3-.9-1.8-2.9-3.7-5.6-5.2s-6-2.6-9.7-2.6-3.1.1-4.7.5c6.7-6.4,13.8-13.3,19.9-19.7,5.9-6.2,11-12,14-16.4s2.5-4.2,2.8-5.7c.2-.8.1-1.5-.1-2.1-.3-.6-.8-1.1-1.5-1.4-4.2-1.7-8.2-1.7-12.3,0,1.2-2.1,2.4-4.3,3.5-6.4,6.1-11.3,11-22,13.6-30.6,1.3-4.3,2-8.1,2-11.2s-.8-5.6-2.5-7.1c-2.1-1.9-4.4-2.7-6.9-2.4-2.4.2-4.9,1.5-7.5,3.5-3,2.5-6.2,6.3-9.3,11.1,2.6-11,4.7-21.3,6.1-30.5,2.7-17.3,3.2-31.2,1.1-40.6-1-4.7-2.8-8.3-5.2-10.6,0,0,.1,0,.1,0ZM351.1,227.5c2.1-.7,4.2-.9,6.1-.9,3.5,0,6.7,1.1,9.3,2.5,2.6,1.4,4.4,3.2,5.2,4.7.5,1.1.6,1.8.3,2.5-.3.7-1,1.2-2,1.8-2.2,1-5.6,1.6-9.8,2-3.4.3-7.2.5-10.9.6h0c-.8,0-1.6,0-2.4.1-3.8.2-7.4.4-10.5.8,1.2-1.2,2.6-2.5,4-3.8,1.3-.8,2.6-1.5,4-2.2,3.2-1.4,6.8-2.5,12.1-2.9v-1c-5.4.5-9.2,1.5-12.5,3-.3.1-.5.2-.8.4l1.4-1.3c2.1-2,4.3-4.1,6.6-6.2h-.1ZM348.6,228.5c-3.7,1.7-7.4,4.8-10.9,9.7.6-.4,1.3-.8,1.9-1.2,1.3-1.3,2.7-2.6,4.2-4h0c1.5-1.5,3.1-3,4.8-4.5ZM338.5,235.6c3.9-4.8,8.1-7.6,12.1-9,7.1-6.8,14.7-14.1,21.2-20.9,5.9-6.2,10.9-11.9,13.9-16.3,1.5-2.2,2.4-4,2.6-5.4s.1-1.2,0-1.6c-.1-.4-.4-.6-.9-.8-4.2-1.7-8.4-1.5-12.5.4h-.2c-10.7,18.7-24.1,38.2-35.6,52.4-.2.4-.3.7-.5,1.1h-.1ZM367.6,140.7c3.6-6,7.3-10.6,10.7-13.4,2.4-2,4.8-3.1,6.9-3.3,2.1-.2,4.2.5,6.1,2.2,1.4,1.3,2.1,3.4,2.2,6.4,0,2.9-.7,6.6-1.9,10.9-2.5,8.5-7.4,19.1-13.5,30.4-1.3,2.5-2.8,5-4.2,7.6-4.2,2.1-8.3,5.9-12.5,11.1-6.9,8.6-13.8,21.3-21.2,37,2-5.4,3.8-10.7,5.7-16,9.6-24.3,19.4-45.2,31.8-60.5l-.8-.6c-9.9,12.2-18.2,28.1-26,46.3,6.8-20.8,12.5-40.3,16.8-57.9v-.2h-.1ZM337.5,232.5c2.3-11,4.9-22.5,7.5-34.2h0l.3-1.1v-.2c5.4-19.1,11.5-35.5,17.7-47.9.9-1.8,1.8-3.6,2.8-5.2-5.2,20.9-12.3,44.3-20.9,69.3-2.5,6.3-4.9,12.7-7.4,19.4h0ZM344.4,196.7c-1.8,6.4-3.5,13.1-5.1,20.1.6-11.3-.4-21.6-2.5-30,.4-18.5,1.1-38.3,2.4-56.8,1.4-20.1,3.6-38.7,7.1-52.5,1.7-6.9,3.8-12.5,6.2-16.6,2.4-4,5.2-6.3,8.3-6.8,3.7-.5,6.6.4,8.8,2.5,2.3,2.1,3.9,5.5,4.9,10.1,2.1,9.2,1.6,22.9-1.1,40.2-1.5,10-3.8,21.2-6.8,33.4-1.5,2.5-3,5.3-4.5,8.3-4.8,9.5-9.5,21.3-13.8,34.9,2.4-10.9,4.8-21.7,6.8-31.9,3-14.4,5.4-27.8,6.8-38.7,1.4-10.9,1.8-19.6.6-24.6l-1,.2c1.2,4.8.8,13.3-.6,24.2s-3.8,24.2-6.8,38.7c-2.9,14.4-6.4,29.9-9.8,45.3h.1ZM340.7,230.8c10.6-13.4,22.4-30.8,32.2-47.7-3.5,2.1-7.1,5.5-10.7,10.1-6.9,8.7-14,21.6-21.5,37.6h0ZM335.8,233.1c.6-3.2,1.3-6.3,1.9-9.4,1.3-12.2.8-23.4-1-32.7-.1,6.4-.3,12.5-.4,18.4h0c-.2,8.6-.3,16.6-.5,23.6h0ZM325.2,210.7c3.5,9.9,7,19.9,9.2,28.3v-.5h0c-.3-19.8-.6-34.5-7.7-48.7l.9-.5c5.3,10.5,6.9,21.4,7.5,34.1,0-4.4.2-9.1.3-13.9h0c.1-7.2.3-14.8.5-22.6-.1-.6-.3-1.2-.5-1.7-2-7.2-4.8-12.9-7.9-16.6-3.2-3.6-6.7-5.2-10.3-4.3-1.3.3-2.2,1.2-2.7,2.8s-.5,3.8-.2,6.5c.6,5.4,2.6,12.6,5.3,20.7,1.7,5.3,3.7,10.9,5.7,16.5h0Z"/>
            <path class="cls-14" d="M129.9,242.1c11.1-50.4,48.4-179.6,23-189.6-29.1-11.5-35,77.6-23,189.6Z"/>
            <path class="cls-14" d="M129.9,242.1c-14.6-23.3-46.9-71.1-36.4-72.5,19.3-2.6,28.7,25.9,36.4,72.5Z"/>
            <path class="cls-11" d="M129.9,242.7c12.8-24.4,49.6-66.3,38-72.2-14.1-7.3-37.6,25.6-38,72.2Z"/>
            <path class="cls-18" d="M151.3,193c-11.5,12.8-15.4,28.3-21.4,49.2"/>
            <path class="cls-11" d="M130.6,238c-18.9-38.2-42.4-115.6-27-123.3,19.7-9.8,32.5,47.9,27,123.3Z"/>
            <path class="cls-18" d="M111,144.4c11.5,24.8,15.5,58.8,19.3,97.2"/>
            <path class="cls-11" d="M130.3,242.3c-12.8-5.6-42.1-10.3-35.1-18,5.1-5.6,27.8-9.8,35.1,18Z"/>
            <path class="cls-18" d="M111.2,227c10.3,3.5,13.8,7.8,19.1,13.6"/>
            <path class="cls-18" d="M142.7,85.9c-9.8,18-9.7,98.5-12.7,155.8"/>
            <path class="cls-4" d="M446.7,290h-67.8v-1.3h67.8v1.3Z"/>
            <path class="cls-10" d="M397,214.9c0,3.5-.2,12.1-.8,13.4l22.9-3.6c-.8-2.1-2.5-7-2.8-8.7-.3-2.2,0-7.1.8-10.3-7.5-1.6-12.2-2-21.7-3.2,1.4,2.2,1.6,9.1,1.6,12.2v.2h0Z"/>
            <path class="cls-9" d="M377.3,165.5l16.2,31,3.1-4.1c-7.1-11.1-17.3-28.2-17.8-28.8s-7.1-2.4-7.1-2.4c0,.4,1,3.2,1.6,3.6,1.2.8,3.2.8,4,.8h0Z"/>
            <path class="cls-9" d="M427.9,161.1l-10,35.1-4.1-3.1c3.8-12.6,12.5-33.1,12.9-33.9.3-.7,5.6-2.9,5.6-2.9.1.4-.4,2.6-.8,3.2-.9,1.1-2.8,1.4-3.6,1.6h0Z"/>
            <path class="cls-1" d="M420.3,259.9c-5.1-13.8-9.9-21.7-10.7-21.7s-4.6,14.4-6.3,20.9c-.1.5-.2.9-.3,1.3l-7.5.4c-.8-7.1-1-28.1,1.2-32.4,1.8-2.3,4.5-5.4,6.9-8,1.4-1.5,2.6-2.9,3.4-3.8,0,0-11.1-10.3-11.1-12.6.4,0,3.2,1.2,3.2,1.2l9.1,10.3,6.7-6.7,4.3-.8c-.4.3-.8.7-1.4,1.1-3.1,2.5-8.5,6.9-8.5,7.5s2.1,2,4.4,3.7c2.1,1.6,4.5,3.3,5.9,4.6,1.9,1.9,4.7,4.7,7.9,33.6l-7.1,1.6v-.2h-.1ZM401.7,225.1l5.9-7.9c1.2,1.3,2.6,2.3,3.9,3.3,1.1.8,2.2,1.7,3.2,2.6-4.7-.3-8.6.6-13,2h0Z"/>
            <path class="cls-12" d="M427.1,284.6c.1-.7-4.6-18.8-7.2-25.8.3-.7,1.4-1.7,2.9-2.1,1.4-.4,3.9.4,4.6.9.4,2.5.9,11.8.9,13.7s1.2,12.2,1.5,13.3c.3,1.1.9,1.3,1.3,1.7.4.4,1.6.8,1.2,1.6-.2.5-1.6,1.1-2,1.2s-3,.2-3.2,0c-.4-.4-.5-1.3-.5-2.1s.3-1.7.5-2.5h0Z"/>
            <path class="cls-12" d="M398.1,284.5c-.1-1,4.1-18.9,4.9-24.4-.8-.4-2-1.6-3.6-1.6s-3.6.6-4,1.2c0,5.4-.5,23.3-.4,24.3.2,1.3-4.3,2.9-3.9,4.8.1.6,4.4.4,5.8.2.6,0,.8-.1,1.1-.8.2-.6.2-2.5,0-3.7h.1Z"/>
            <path class="cls-5" d="M416,180.1c.8,2.8.1,11,.4,11.9,1.2,3.6,7.9,4.7,7.9,10.3s.4,6.7-13.4,7.5c-9.1.5-17.1-3.3-18.6-10.7-.8-4,3.2-8.1,3.2-10.3s-2-7.6-2-10.7,2.6-5.7,3.7-6.8c2.6-2.6,9.2-2.6,11.3-.6,3.2,2.9,5.8,3.3,7.5,9.5h0Z"/>
            <path class="cls-10" d="M371.3,97.2h32.2c2.3-4.9,10.3-13.3,4.9-17.1-2.6-1.8-9.1-1.2-12,.8-2.3,1.7-2.3,5.3-2.1,6.7-1.4-.7-3.2-2.5-6.6-2.1-3.3.4-6,4.2-7.8,6.2-.1-.6-.8-1.7-2.5-1.7-2.5,0-4.8,4.7-6.2,7.1h.1Z"/>
            <path class="cls-10" d="M89.9,102.9h33.2c4.3.4,12.1-3,6-9.1-2.4-2.4-3.6-3.9-7.3-3.9s-6.9,1.7-7.8,3.4c-1.4-.7-3.8-3-7.3-2.6s-5.9,4.3-7.8,6.5c0-.6-.9-1.3-2.6-1.3-2.6,0-5,4.5-6.5,6.9h.1Z"/>
            <rect class="cls-15" x="157.2" y="52" width="196.1" height="171" rx="3.5" ry="3.5"/>
            <path class="cls-14" d="M337.7,241.2c14.9-11.7,35.9-17,30.2-22.7-4.9-4.9-23.7,4.2-30.2,22.7Z"/>
            <path class="cls-11" d="M337.7,241.5c-13.4-11-44.7-22.8-30.5-28.8,13.9-5.9,30.1,7.8,30.5,28.8Z"/>
            <path class="cls-18" d="M315.5,219c12,5.8,16.1,12.8,22.3,22.2"/>
            <path class="cls-11" d="M337,239.4c19.7-17.2,44.2-52.1,28.2-55.6-20.5-4.4-33.9,21.6-28.2,55.6Z"/>
            <path class="cls-18" d="M357.5,197.2c-12,11.2-16.2,26.5-20.2,43.8"/>
            <path class="cls-11" d="M337.2,241.3c13.1,1.1,40.2,9.6,36.8.9-2.5-6.3-20.6-18.8-36.8-.9Z"/>
            <path class="cls-18" d="M359.2,237.6c-10.2-1.6-14.7.2-21.4,2.4"/>
            <path class="cls-8" d="M196.9,100.7h4.2c1.8,0,3.2.3,4.2.8.9.5,1.4,1.5,1.4,2.8s0,1-.3,1.5c-.2.4-.5.8-.8,1.1-.4.3-.8.5-1.3.6h0c.6.2,1,.4,1.5.6.4.2.8.6,1,1.1.3.5.4,1.1.4,1.8s-.2,1.6-.6,2.2c-.4.6-1,1.1-1.8,1.4s-1.7.5-2.7.5h-5.1v-14.3h0ZM199.2,106.6h2.2c1.1,0,1.8-.2,2.2-.5s.6-.8.6-1.5-.2-1.2-.7-1.5-1.2-.4-2.3-.4h-2v3.9ZM199.2,108.5v4.5h2.5c1.1,0,1.9-.2,2.3-.6.4-.4.7-1,.7-1.7s-.1-.8-.3-1.2c-.2-.3-.5-.6-1-.8-.4-.2-1.1-.3-1.8-.3h-2.4ZM212.1,104.2v10.8h-2.3v-10.8h2.3ZM211,100c.4,0,.7,0,.9.3.3.2.4.5.4,1s-.1.8-.4,1c-.3.2-.6.3-.9.3s-.7,0-.9-.3c-.2-.2-.4-.5-.4-1s.1-.8.4-1c.3-.2.6-.3.9-.3ZM219.7,104c1,0,1.8.2,2.5.6s1.2,1,1.6,1.7c.4.7.6,1.6.6,2.6v1.2h-7.2c0,1,.3,1.9.8,2.4.5.6,1.3.8,2.3.8s1.3,0,1.9-.2c.6,0,1.1-.3,1.7-.6v1.9c-.5.3-1.1.4-1.6.6-.6,0-1.2.2-2,.2s-2-.2-2.8-.6-1.4-1-1.9-1.9c-.4-.8-.7-1.8-.7-3.1s.2-2.2.6-3.1c.4-.8,1-1.5,1.7-1.9s1.6-.7,2.6-.7h-.1ZM219.7,105.7c-.7,0-1.3.2-1.8.7-.4.5-.7,1.2-.8,2.1h4.9c0-.5,0-1-.3-1.4-.2-.4-.4-.7-.8-1-.3-.2-.8-.4-1.3-.4h.1ZM232.6,104c1.2,0,2.2.3,2.8.9.7.6,1,1.6,1,3v7.1h-2.3v-6.6c0-.8-.2-1.5-.5-1.9s-.9-.6-1.6-.6c-1,0-1.8.3-2.2,1-.4.6-.6,1.6-.6,2.8v5.4h-2.3v-10.8h1.8l.3,1.5h.1c.2-.4.5-.7.9-.9.4-.2.7-.4,1.2-.6.4,0,.9-.2,1.4-.2h0ZM242.1,115l-4.1-10.8h2.4l2.2,6.3c.1.4.3.8.4,1.3.1.5.2.9.2,1.2h0c0-.3.1-.7.3-1.2.1-.5.3-.9.4-1.3l2.2-6.3h2.4l-4.1,10.8h-2.5.2ZM254.7,104c1,0,1.8.2,2.5.6s1.2,1,1.6,1.7.6,1.6.6,2.6v1.2h-7.2c0,1,.3,1.9.8,2.4.5.6,1.3.8,2.3.8s1.3,0,1.9-.2c.6,0,1.1-.3,1.7-.6v1.9c-.5.3-1.1.4-1.6.6-.6,0-1.2.2-2,.2s-2-.2-2.8-.6-1.4-1-1.9-1.9c-.5-.8-.7-1.8-.7-3.1s.2-2.2.6-3.1,1-1.5,1.7-1.9,1.6-.7,2.6-.7h-.1ZM254.7,105.7c-.7,0-1.3.2-1.8.7-.4.5-.7,1.2-.8,2.1h4.9c0-.5,0-1-.3-1.4-.2-.4-.4-.7-.8-1-.3-.2-.8-.4-1.3-.4h0ZM267.5,104c1.2,0,2.2.3,2.8.9.7.6,1,1.6,1,3v7.1h-2.3v-6.6c0-.8-.2-1.5-.5-1.9s-.9-.6-1.6-.6c-1,0-1.8.3-2.2,1-.4.6-.6,1.6-.6,2.8v5.4h-2.3v-10.8h1.8l.3,1.5h.1c.2-.4.5-.7.9-.9.4-.2.7-.4,1.2-.6.4,0,.9-.2,1.4-.2h0ZM284,104.2v10.8h-1.8l-.3-1.5h-.1c-.2.4-.5.7-.9.9-.4.2-.7.4-1.2.5-.4,0-.9.2-1.4.2-.8,0-1.5,0-2.1-.4s-1-.7-1.3-1.3c-.3-.6-.5-1.3-.5-2.2v-7.1h2.3v6.6c0,.8.2,1.5.5,1.9s.9.6,1.6.6,1.2,0,1.7-.4c.4-.3.7-.7.9-1.3.2-.6.3-1.2.3-2.1v-5.4h2.3v.2ZM291.6,104c1,0,1.8.2,2.5.6s1.2,1,1.6,1.7.6,1.6.6,2.6v1.2h-7.2c0,1,.3,1.9.8,2.4.5.6,1.3.8,2.3.8s1.3,0,1.9-.2c.6,0,1.1-.3,1.7-.6v1.9c-.5.3-1.1.4-1.7.6-.6,0-1.2.2-2,.2s-2-.2-2.8-.6-1.4-1-1.9-1.9c-.4-.8-.7-1.8-.7-3.1s.2-2.2.6-3.1,1-1.5,1.7-1.9,1.6-.7,2.6-.7h0ZM291.6,105.7c-.7,0-1.3.2-1.8.7-.4.5-.7,1.2-.8,2.1h4.9c0-.5,0-1-.3-1.4-.2-.4-.4-.7-.8-1-.3-.2-.8-.4-1.3-.4h0ZM308.3,104c1.4,0,2.4.3,3.1.9s1.1,1.5,1.1,2.8v7.3h-1.6l-.4-1.5h0c-.3.4-.6.7-.9,1s-.7.4-1.1.6c-.4,0-.9.2-1.6.2s-1.2,0-1.7-.4c-.5-.2-.9-.6-1.2-1.1s-.4-1.1-.4-1.9.4-1.9,1.2-2.5c.8-.6,2.1-.9,3.8-.9h1.9v-.6c0-.7-.2-1.3-.5-1.6-.3-.3-.8-.5-1.5-.5s-1.1,0-1.6.2-1,.3-1.5.6l-.7-1.6c.5-.3,1.1-.5,1.8-.7.7-.2,1.4-.3,2.1-.3h-.3,0ZM310.1,109.8h-1.4c-1.1,0-2,.3-2.4.6-.5.4-.7.8-.7,1.4s.2.9.5,1.2c.3.2.7.4,1.3.4s1.5-.2,2-.7.8-1.1.8-2v-.9h0ZM307.6,99.7c.2.3.4.6.6,1,.3.4.5.7.8,1.1.3.3.5.6.7.9v.3h-1.5c-.2-.2-.5-.4-.8-.7-.3-.3-.6-.5-.9-.8s-.6-.6-.9-.8c-.3-.3-.5-.5-.6-.7v-.2h2.6,0ZM210.7,147v-14.3h2.3v12.3h6.1v2h-8.4ZM223.6,136.2v10.8h-2.3v-10.8h2.3ZM222.5,132c.4,0,.7,0,.9.3.3.2.4.5.4,1s-.1.8-.4,1c-.3.2-.6.3-.9.3s-.7,0-.9-.3c-.2-.2-.4-.5-.4-1s.1-.8.4-1c.3-.2.6-.3.9-.3ZM230.9,145.3h.9c.3,0,.6-.1.8-.2v1.7c-.3.1-.6.2-1,.3-.4,0-.8.1-1.3.1s-1.2-.1-1.6-.3c-.5-.2-.9-.6-1.2-1.1s-.4-1.2-.4-2.1v-5.8h-1.5v-1l1.6-.8.8-2.3h1.4v2.4h3.1v1.7h-3.1v5.8c0,.5.1,1,.4,1.2.3.3.6.4,1.1.4h0ZM239.1,136c1,0,1.8.2,2.5.6.7.4,1.2,1,1.6,1.7.4.7.6,1.6.6,2.6v1.2h-7.2c0,1,.3,1.9.8,2.4.5.6,1.3.9,2.3.9s1.3,0,1.9-.2c.6-.1,1.1-.3,1.7-.6v1.9c-.5.3-1.1.4-1.6.6-.6.1-1.2.2-2,.2s-2-.2-2.8-.6c-.8-.4-1.4-1-1.9-1.9-.4-.8-.7-1.8-.7-3.1s.2-2.2.6-3.1c.4-.8,1-1.5,1.7-1.9s1.6-.7,2.6-.7h-.1ZM239.1,137.7c-.7,0-1.3.2-1.8.7-.4.5-.7,1.2-.8,2.1h4.9c0-.5,0-1-.3-1.4-.2-.4-.4-.7-.8-1-.3-.2-.8-.4-1.3-.4h.1ZM248.9,147h-2.3v-14.3h8.1v2h-5.7v4.5h5.4v2h-5.4v5.9h-.1ZM261.2,136c1.4,0,2.4.3,3.1.9.7.6,1.1,1.5,1.1,2.8v7.3h-1.6l-.4-1.5h0c-.3.4-.6.7-.9,1s-.7.4-1.1.6c-.4.1-.9.2-1.6.2s-1.2-.1-1.7-.4c-.5-.2-.9-.6-1.2-1.1-.3-.5-.4-1.1-.4-1.9s.4-1.9,1.2-2.5c.8-.6,2.1-.9,3.8-.9h1.9v-.6c0-.7-.2-1.3-.5-1.6s-.8-.5-1.5-.5-1.1,0-1.6.2-1,.3-1.5.6l-.7-1.6c.5-.3,1.1-.5,1.8-.7.7-.2,1.4-.3,2.1-.3h-.3,0ZM263.1,141.8h-1.4c-1.1,0-1.9.3-2.4.6-.5.4-.7.8-.7,1.4s.2.9.5,1.2c.3.2.7.4,1.3.4s1.5-.2,2-.7.8-1.1.8-2v-.9h0ZM274.1,136h1.2l-.2,2.1h-1c-.4,0-.8,0-1.2.2-.4.1-.7.3-1,.6s-.5.6-.7,1-.2.9-.2,1.4v5.7h-2.3v-10.8h1.8l.3,1.9h.1c.2-.4.5-.7.8-1.1s.7-.6,1.1-.8.9-.3,1.4-.3h0ZM289.5,136c1.2,0,2.1.3,2.7.9.6.6.9,1.6.9,3v7.1h-2.3v-6.7c0-.8-.2-1.4-.5-1.9-.3-.4-.8-.6-1.5-.6s-1.6.3-2,.9c-.4.6-.6,1.4-.6,2.5v5.7h-2.3v-6.7c0-.5,0-1-.2-1.4-.1-.4-.3-.6-.6-.8-.3-.2-.6-.3-1.1-.3s-1.1.1-1.5.4c-.4.3-.6.7-.8,1.3-.2.6-.2,1.2-.2,2v5.4h-2.3v-10.8h1.8l.3,1.5h.1c.2-.4.5-.7.8-.9s.7-.4,1.1-.5.8-.2,1.3-.2c.8,0,1.5.1,2,.4.6.3,1,.7,1.2,1.3h.2c.3-.6.8-1,1.4-1.3s1.2-.4,1.9-.4h.2ZM298.3,142.6h-1.7l-.5-9.9h2.7l-.5,9.9ZM296,145.8c0-.5.1-.9.4-1.1.3-.2.6-.3,1-.3s.7.1,1,.3.4.6.4,1.1-.1.9-.4,1.1c-.3.2-.6.3-1,.3s-.7-.1-1-.3-.4-.6-.4-1.1Z"/>
          </g>
          <g id="Layer_2" class="cls-16">
            <g class="cls-13">
              <g class="cls-13">
                <text class="cls-7" transform="translate(183.3 114.8)"><tspan x="0" y="0">ਲਾਈਟਫਾਰਮ</tspan></text>
              </g>
              <g class="cls-13">
                <text class="cls-6" transform="translate(266.6 114.8)"><tspan x="0" y="0" xml:space="preserve"> ‘</tspan></text>
              </g>
              <g class="cls-13">
                <text class="cls-7" transform="translate(275.6 114.8)"><tspan x="0" y="0">ਤੇ</tspan></text>
              </g>
              <g class="cls-13">
                <text class="cls-7" transform="translate(292.7 114.8)"><tspan x="0" y="0">ਤੁਹਾਡਾ</tspan></text>
              </g>
              <g class="cls-13">
                <text class="cls-7" transform="translate(223 146.8)"><tspan x="0" y="0">ਸਵਾਗਤ</tspan></text>
              </g>
              <g class="cls-13">
                <text class="cls-7" transform="translate(281 146.8)"><tspan x="0" y="0">ਹੈ</tspan></text>
              </g>
              <g class="cls-13">
                <text class="cls-6" transform="translate(292 146.8)"><tspan x="0" y="0">!</tspan></text>
              </g>
            </g>
          </g>
          <g id="Punjabi" class="cls-16">
            <g>
              <path class="cls-5" d="M197,103.3v1.2h-3.2c0,1.1-.4,2.2-1,3.3.8,0,1.5.4,2.1,1.1s.8,1.4.8,2.3-.4,2-1.2,2.7-1.9,1-3.4,1v-1.2c1.1,0,1.9-.2,2.5-.6s.9-1.1.9-1.8-.2-1.2-.6-1.6-.8-.6-1.3-.6-.7,0-1,.4-.8.8-1.4,1.6c-.6-.9-1.1-1.4-1.4-1.7s-.6-.4-.9-.4c-.5,0-.9.2-1.3.6s-.6.9-.6,1.7.3,1.3.9,1.8,1.4.7,2.5.7v1.2c-1.4,0-2.6-.3-3.4-1s-1.2-1.6-1.2-2.7.3-1.7.9-2.3,1.2-1,2-1c-.6-1-.9-2.1-1.1-3.3h-3.1v-1.2h13.6v-.2h-.1ZM187.6,104.4c.2,2.1,1,3.6,2.4,4.6,1.5-1,2.3-2.6,2.5-4.6h-4.9Z"/>
              <path class="cls-5" d="M199.9,104.4v6.1h-1.2v-6.1h-1.9v-1.2h5v1.2h-2,0Z"/>
              <path class="cls-5" d="M217.9,103.3v1.2h-2v10.4h-1.2v-10.4h-3.7v4.8h-3.8c-.5,0-1,.2-1.6.5s-1.1.8-1.6,1.5c1.5,1.6,2.8,2.5,4,2.5s1.7-.4,3.1-1.2v.5c-1.3,1.2-2.4,1.8-3.6,1.8s-2.9-1.2-4.9-3.5c.4-1.1,1.2-1.9,2.3-2.6-1.5-.9-2.3-2.3-2.4-4.2h-.9v-1.2h8.1c0-1.5.3-2.7.9-3.6s1.3-1.3,2.3-1.3,1.6.3,2.1.9.8,1.4.8,2.5v1.5h2.1,0ZM209.9,108.1v-3.7h-6.1c0,1,.3,1.8.9,2.6s1.3,1.1,2.2,1.1h3ZM214.8,103.3v-1.6c0-1.4-.5-2.1-1.6-2.1s-1.2.3-1.5,1-.5,1.5-.5,2.5v.2h3.7,0Z"/>
              <path class="cls-5" d="M228.8,103.3v1.2h-1.9v3.9h-1.1c-2.7,0-4.7,1-5.9,3,1.7,1.7,3.1,2.5,4,2.5s1.9-.5,3.2-1.6v.5c-1.3,1.3-2.5,2-3.6,2s-3-1.2-5-3.5c1.5-2.8,4-4.2,7.3-4.2v-2.6h-7.9v-1.2h11s-.1,0-.1,0Z"/>
              <path class="cls-5" d="M239.8,103.3v1.2h-1.9v3.3h-5.2c-1.1,0-1.6.5-1.6,1.6s.2,1.3.5,1.9c1.4-.9,2.6-1.4,3.7-1.4s1.5.2,2,.6.7.9.7,1.6-.3,1.4-.8,1.9-1.3.8-2.3.8-2.5-.6-3.5-1.8-1.5-2.4-1.5-3.6.2-1.4.7-1.9,1.1-.8,2-.8h4.1v-2.2h-8v-1.2h11.1ZM232.2,112.1c.8,1.1,1.8,1.6,2.8,1.6s1,0,1.4-.4c.3-.3.5-.7.5-1.1,0-.8-.5-1.2-1.6-1.2s-1.8.4-3.1,1.1h0Z"/>
              <path class="cls-5" d="M242.8,104.4v6.1h-1.2v-6.1h-1.9v-1.2h5v1.2h-2,0Z"/>
              <path class="cls-5" d="M255.6,103.3v1.2h-1.9v7.7c0,1.7-.9,2.6-2.6,2.6s-2.8-.5-3.7-1.6-1.3-2.2-1.3-3.5.8-2.4,2.5-2.4h4v-2.9h-7.8v-1.2h10.9,0ZM252.5,108.4h-3.9c-.9,0-1.3.4-1.3,1.2,0,1.3.4,2.3,1.2,3s1.7,1.1,2.6,1.1.8,0,1.1-.3.4-.7.4-1.4v-3.6s-.1,0-.1,0Z"/>
              <path class="cls-5" d="M264.8,104.4v10.4h-1.2v-4.9h-4.8c0,1.1-.2,2.1-.5,2.8s-.7,1.1-1.1,1.1-.8-.3-.8-1,.2-1,.6-1.8.6-1.7.6-2.9-.2-2.7-.6-3.8h-1.6v-1.2h2.4c.6,2,.9,3.8,1,5.6h4.8v-5.6h3.1v1.2h-1.9Z"/>
              <path class="cls-5" d="M272.2,105.4v-.2c0-.5.2-1.3.6-2.2s.7-1.7,1-2.5h1.7c-.4,1.7-.7,3.3-1,4.9h-2.3Z"/>
              <path class="cls-5" d="M287.6,103.3v1.2h-1.9v.8c0,1.9-.6,3.2-1.8,3.7,1.2.7,1.8,1.6,1.8,2.7s-.4,1.7-1.2,2.3c-.8.6-1.8.8-2.9.8-2.1,0-3.8-1-5.1-3.1h.5c.5.6,1.1,1,2,1.4.8.4,1.7.6,2.4.6s1.5-.2,2.2-.6,1-.9,1-1.6-.2-.9-.7-1.4-1.1-.6-1.9-.6h-2.6c-1.1,0-1.7-.3-1.7-.9s.6-.9,1.9-.9.8,0,1.3.2c.6,0,1,.2,1.3.2.7,0,1.3-.3,1.7-.9.4-.6.6-1.2.6-2v-1.1h-8.8v-1.2h11.9v.4Z"/>
              <path class="cls-5" d="M285.6,103.3h-.6c-.2-.8-.8-1.5-1.6-2.2s-1.9-.9-3.3-.9-.6,0-.9,0h-.7c-.5,0-.7-.2-.7-.6s.6-.7,1.8-.7,2.6.4,3.7,1.2c1.1.8,1.8,1.8,2.2,3.1h.1Z"/>
              <path class="cls-5" d="M304.6,103.3v1.2h-1.9v.8c0,1.9-.6,3.2-1.8,3.7,1.2.7,1.8,1.6,1.8,2.7s-.4,1.7-1.2,2.3c-.8.6-1.8.8-2.9.8-2.1,0-3.8-1-5.1-3.1h.5c.5.6,1.1,1,2,1.4.8.4,1.7.6,2.4.6s1.5-.2,2.2-.6,1-.9,1-1.6-.2-.9-.7-1.4-1.1-.6-1.9-.6h-2.6c-1.1,0-1.7-.3-1.7-.9s.6-.9,1.9-.9.8,0,1.3.2c.6,0,1,.2,1.3.2.7,0,1.3-.3,1.7-.9.4-.6.6-1.2.6-2v-1.1h-8.8v-1.2h11.9v.4Z"/>
              <path class="cls-5" d="M296.7,117.8v-.9c1.2.2,2.3.3,3.3.3s2.6,0,3.5-.3v1c-1,.2-2.1.2-3.4.2s-2.2,0-3.4-.3Z"/>
              <path class="cls-5" d="M315.6,103.3v1.2h-1.9v7.9c0,1.7-.7,2.5-2.2,2.5s-2-.3-2.9-.8-1.7-1.1-2.2-1.9-.8-1.5-.8-2.4.5-1.6,1.4-1.6h1.7v1.1h-1.2c-.5,0-.7.2-.7.6,0,.9.6,1.8,1.7,2.6,1.1.8,2.1,1.2,3.1,1.2s1.2-.4,1.2-1.1v-8.2h-8v-1.2h11.1-.3Z"/>
              <path class="cls-5" d="M318.5,104.4v6.1h-1.2v-6.1h-1.9v-1.2h5v1.2h-2,.1Z"/>
              <path class="cls-5" d="M330.7,104.4c0,1.8-.6,2.9-2,3.4,1.2.8,1.9,1.7,1.9,2.9s-.5,2.1-1.6,2.9-2.4,1.1-3.9,1.1-1.6-.2-2.3-.6c-.6-.4-1-1-1-1.7s.3-1.1.8-1.4,1.2-.6,2-.6c1.6,0,2.9.7,3.9,2.2.7-.5,1-1.2,1-1.9s-.2-1.2-.7-1.7-1.1-.7-1.9-.7-.6,0-1.3.2h-1.6c-1.1,0-1.7-.3-1.7-.9s.6-.9,1.7-.9,1,0,2.4.3h.7c.8,0,1.4-.2,1.8-.7s.6-1.2.6-2h-9.1v-1.2h12v1.2h-1.7,0ZM324.5,111.4c-.5,0-.9,0-1.2.3-.3.2-.4.5-.4.8s.2.7.6.9c.4.2.9.3,1.5.3s1.7-.2,2.6-.5c-.9-1.2-1.9-1.8-3.1-1.8Z"/>
              <path class="cls-5" d="M335.4,104.4v6.1h-1.2v-6.1h-1.9v-1.2h5v1.2h-2,.1Z"/>
              <path class="cls-5" d="M234.3,135.3v1.2h-1.9v10.4h-1.2v-4.9h-4.8v.4c0,1-.1,1.8-.4,2.5s-.6,1.1-1.1,1.1-.8-.3-.8-1,.2-.9.5-1.7.5-1.5.5-2c0-1.5-.4-3.1-1.3-4.8h-.9v-1.2h11.4ZM231.2,136.4h-6.1c.6,1.1,1,2.6,1.2,4.4h4.9v-4.4h0Z"/>
              <path class="cls-5" d="M246.3,135.3v1.2h-1.8v3.5h-6.3c-.9,0-1.4.4-1.4,1.2s.4,1.3,1.2,1.3h6.3v1.1h-5.1c1.1,1.5,2.2,2.3,3.4,2.3h1.7l-.6,1.1h-1.1c-2.1,0-3.7-1.1-4.9-3.3-1.5,0-2.2-.8-2.2-2.3s.9-2.3,2.6-2.3h5.1v-2.4h-9.1v-1.2h12.1v-.2h.1Z"/>
              <path class="cls-5" d="M249.3,136.4v6.1h-1.2v-6.1h-1.9v-1.2h5v1.2h-2,0Z"/>
              <path class="cls-5" d="M262.2,136.4v10.4h-1.2v-10.4h-2.2v7.9c0,1.7-.7,2.5-2.1,2.5s-2.4-.5-3.2-1.5c-.9-1-1.3-2.2-1.3-3.5s.9-2.4,2.7-2.4h2.7v-2.9h-6.3v-1.2h12.9v1.2h-2,0ZM257.5,140.4h-2.7c-.6,0-1,.1-1.2.3s-.3.5-.3,1c0,1.1.3,2.1,1,2.8s1.4,1.1,2.2,1.1,1-.3,1-1v-4.3h0Z"/>
              <path class="cls-5" d="M275.9,135.3v1.2h-1.9v.8c0,1.9-.6,3.2-1.8,3.7,1.2.7,1.8,1.6,1.8,2.7s-.4,1.7-1.2,2.3c-.8.6-1.8.8-2.9.8-2.1,0-3.8-1-5.1-3.1h.5c.5.6,1.1,1,2,1.4.8.4,1.7.6,2.4.6s1.5-.2,2.2-.6c.7-.4,1-.9,1-1.6s-.2-.9-.7-1.4-1.1-.6-1.9-.6-.7,0-1.3.1c-.6,0-1,.1-1.3.1-1.1,0-1.7-.3-1.7-.9s.6-.9,1.9-.9.8,0,1.3.2c.6.1,1,.2,1.3.2.7,0,1.3-.3,1.7-.9.4-.6.6-1.2.6-2v-1.1h-8.8v-1.2h11.9v.2Z"/>
              <path class="cls-5" d="M292.1,135.3v1.2h-1.9v7.9c0,1.7-.7,2.5-2.2,2.5s-2-.3-2.9-.8-1.7-1.1-2.2-1.9-.8-1.5-.8-2.4.5-1.6,1.4-1.6h1.7v1.1h-1.2c-.5,0-.7.2-.7.6,0,.9.6,1.8,1.7,2.6s2.1,1.2,3.1,1.2,1.2-.4,1.2-1.1v-8.2h-8v-1.2h11.1-.3Z"/>
              <path class="cls-5" d="M290.1,135.3h-.5c-1.1-1.3-2.4-2-3.8-2s-1.2,0-1.7.3h-.1c-.4.2-.7.3-.9.3-.3,0-.5-.2-.5-.5s.3-.5.8-.7,1.1-.3,1.6-.3c1.3,0,2.6.5,3.9,1.4-1.4-1.8-2.9-2.7-4.5-2.7s-.4,0-.6,0h-.6c-.4,0-.6-.2-.6-.5s.5-.7,1.5-.7,2.3.5,3.5,1.4,2,2.2,2.6,3.8v.2h0Z"/>
              <path class="cls-5" d="M293.3,145.6c0-.5.1-.8.4-1.1s.6-.4,1.1-.4.8.1,1.1.4c.2.3.4.6.4,1.1s-.1.8-.4,1.1c-.2.3-.6.4-1.1.4s-.8-.1-1.1-.4c-.3-.3-.4-.6-.4-1.1ZM295.6,142.5h-1.7l-.5-9.9h2.7l-.5,9.9Z"/>
            </g>
          </g>
          <g id="Layer_2_copy_2" class="cls-16">
            <g>
              <path class="cls-5" d="M197.1,114.8h-2.5l-2.4-8.5c-.1-.4-.2-.9-.4-1.6s-.3-1.2-.3-1.5c0,.4-.2,1-.3,1.6s-.3,1.2-.4,1.5l-2.4,8.5h-2.5l-1.8-7.1-1.9-7.1h2.4l2,8.3c.3,1.3.5,2.5.7,3.5,0-.6.2-1.2.3-1.9s.3-1.2.4-1.7l2.3-8.3h2.3l2.4,8.4c.2.8.5,1.9.7,3.5,0-.9.3-2.1.7-3.6l2-8.3h2.4s-3.7,14.3-3.7,14.3Z"/>
              <path class="cls-5" d="M202.4,101.2c0-.4.1-.7.3-.9s.5-.3,1-.3.7,0,.9.3.3.5.3.9-.1.7-.3.9-.5.3-.9.3-.7,0-1-.3-.3-.5-.3-.9ZM204.9,114.8h-2.3v-10.8h2.3v10.8Z"/>
              <path class="cls-5" d="M210.5,114.8h-2.3v-15.2h2.3v15.2Z"/>
              <path class="cls-5" d="M216,114.8h-2.3v-15.2h2.3v15.2Z"/>
              <path class="cls-5" d="M221.5,109.1l1.3-1.6,3.3-3.5h2.6l-4.3,4.6,4.6,6.2h-2.7l-3.5-4.7-1.3,1v3.7h-2.3v-15.2h2.3v9.5c-.1,0,0,0,0,0h0Z"/>
              <path class="cls-5" d="M240.3,109.4c0,1.8-.5,3.1-1.4,4.1s-2.2,1.5-3.8,1.5-1.9-.2-2.7-.7-1.4-1.1-1.8-2-.6-1.8-.6-3c0-1.8.4-3.1,1.3-4.1s2.2-1.5,3.8-1.5,2.8.5,3.7,1.5,1.4,2.4,1.4,4.1h.1ZM232.5,109.4c0,2.5.9,3.7,2.8,3.7s2.7-1.2,2.7-3.7-.9-3.7-2.8-3.7-1.7.3-2.1,1-.6,1.6-.6,2.7h0Z"/>
              <path class="cls-5" d="M252.1,114.8h-2.3v-6.7c0-.8-.2-1.4-.5-1.9s-.8-.6-1.5-.6-1.5.3-1.9.9-.6,1.5-.6,2.9v5.4h-2.3v-10.8h1.8l.3,1.4h.1c.3-.5.7-.9,1.3-1.2.6-.3,1.2-.4,1.9-.4,1.7,0,2.8.6,3.3,1.7h.2c.3-.5.8-1,1.3-1.2.6-.3,1.2-.4,2-.4,1.3,0,2.2.3,2.8,1,.6.7.9,1.6.9,3v7h-2.3v-6.7c0-.8-.2-1.4-.5-1.9-.3-.4-.8-.6-1.5-.6s-1.5.3-2,.8c-.4.6-.6,1.4-.6,2.6v5.7s.1,0,.1,0Z"/>
              <path class="cls-5" d="M271.2,114.8h-2.3v-6.7c0-.8-.2-1.4-.5-1.9s-.8-.6-1.5-.6-1.5.3-1.9.9-.6,1.5-.6,2.9v5.4h-2.3v-10.8h1.8l.3,1.4h.1c.3-.5.7-.9,1.3-1.2.6-.3,1.2-.4,1.9-.4,1.7,0,2.8.6,3.3,1.7h.2c.3-.5.8-1,1.3-1.2.6-.3,1.2-.4,2-.4,1.3,0,2.2.3,2.8,1,.6.7.9,1.6.9,3v7h-2.3v-6.7c0-.8-.2-1.4-.5-1.9-.3-.4-.8-.6-1.5-.6s-1.5.3-2,.8c-.4.6-.6,1.4-.6,2.6v5.7h.1Z"/>
              <path class="cls-5" d="M285.9,115c-1.7,0-3-.5-3.9-1.5s-1.4-2.3-1.4-4,.4-3.2,1.3-4.2,2.1-1.5,3.6-1.5,2.6.4,3.4,1.3,1.2,2.1,1.2,3.6v1.2h-7.2c0,1,.3,1.9.8,2.4.5.6,1.3.8,2.3.8s1.2,0,1.8-.2c.6,0,1.1-.3,1.8-.6v1.9c-.6.3-1.1.5-1.7.6s-1.2.2-2,.2h0ZM285.5,105.6c-.7,0-1.3.2-1.8.7s-.7,1.1-.8,2h4.9c0-.9-.2-1.6-.6-2-.4-.5-1-.7-1.7-.7Z"/>
              <path class="cls-5" d="M302.2,114.8h-2.3v-6.6c0-.8-.2-1.5-.5-1.9s-.9-.6-1.6-.6-1.7.3-2.1.9-.7,1.5-.7,2.9v5.4h-2.3v-10.8h1.8l.3,1.4h.1c.3-.5.8-.9,1.4-1.2.6-.3,1.3-.4,2-.4,2.6,0,3.9,1.3,3.9,4v7h0Z"/>
              <path class="cls-5" d="M316.1,103.8c1.3,0,2.4.5,3.1,1.5s1.1,2.3,1.1,4.1-.4,3.1-1.1,4.1-1.8,1.5-3.2,1.5-2.4-.5-3.2-1.5h-.2l-.4,1.3h-1.7v-15.2h2.3v5.8h0c.7-1.1,1.8-1.6,3.2-1.6h.1ZM315.5,105.7c-.9,0-1.6.3-2,.8s-.6,1.5-.6,2.7v.2c0,1.3.2,2.3.6,2.9s1.1.9,2,.9,1.4-.3,1.9-1,.6-1.6.6-2.8c0-2.5-.8-3.7-2.5-3.7Z"/>
              <path class="cls-5" d="M327.8,115c-1.7,0-3-.5-3.9-1.5s-1.4-2.3-1.4-4,.4-3.2,1.3-4.2,2.1-1.5,3.6-1.5,2.6.4,3.4,1.3,1.2,2.1,1.2,3.6v1.2h-7.2c0,1,.3,1.9.8,2.4.5.6,1.3.8,2.3.8s1.2,0,1.8-.2c.6,0,1.1-.3,1.8-.6v1.9c-.6.3-1.1.5-1.7.6s-1.2.2-2,.2h0ZM327.4,105.6c-.7,0-1.3.2-1.8.7s-.7,1.1-.8,2h4.9c0-.9-.2-1.6-.6-2-.4-.5-1-.7-1.7-.7Z"/>
              <path class="cls-5" d="M334.5,101.2c0-.4.1-.7.3-.9s.5-.3,1-.3.7,0,.9.3.3.5.3.9-.1.7-.3.9-.5.3-.9.3-.7,0-1-.3-.3-.5-.3-.9ZM336.9,114.8h-2.3v-10.8h2.3v10.8Z"/>
              <path class="cls-5" d="M216.5,146.8v-14.3h2.3v12.3h6v2h-8.4,0Z"/>
              <path class="cls-5" d="M227,133.2c0-.4.1-.7.3-.9s.5-.3,1-.3.7.1.9.3.3.5.3.9-.1.7-.3.9-.5.3-.9.3-.7-.1-1-.3-.3-.5-.3-.9ZM229.4,146.8h-2.3v-10.8h2.3v10.8Z"/>
              <path class="cls-5" d="M236.7,145.2c.6,0,1.1,0,1.7-.3v1.7c-.3.1-.6.2-1,.3-.4,0-.8.1-1.2.1-2.2,0-3.3-1.1-3.3-3.4v-5.8h-1.5v-1l1.6-.8.8-2.3h1.4v2.4h3.1v1.7h-3.1v5.8c0,.6.1,1,.4,1.2s.6.4,1.1.4h0Z"/>
              <path class="cls-5" d="M245.3,147c-1.7,0-3-.5-3.9-1.5s-1.4-2.3-1.4-4,.4-3.2,1.3-4.2,2.1-1.5,3.6-1.5,2.6.4,3.4,1.3c.8.9,1.2,2.1,1.2,3.6v1.2h-7.2c0,1,.3,1.9.8,2.4.5.6,1.3.8,2.3.8s1.2,0,1.8-.2c.6-.1,1.1-.3,1.8-.6v1.9c-.6.3-1.1.5-1.7.6-.6.1-1.2.2-2,.2h0ZM244.8,137.6c-.7,0-1.3.2-1.8.7s-.7,1.1-.8,2h4.9c0-.9-.2-1.6-.6-2-.4-.5-1-.7-1.7-.7h0Z"/>
              <path class="cls-5" d="M254.6,146.8h-2.3v-14.3h8.1v2h-5.7v4.5h5.4v2h-5.4v5.9h-.1Z"/>
              <path class="cls-5" d="M269.5,146.8l-.5-1.5h0c-.5.7-1,1.1-1.6,1.3-.5.2-1.2.4-2,.4s-1.9-.3-2.5-.9c-.6-.6-.9-1.4-.9-2.4s.4-2,1.2-2.5c.8-.6,2.1-.9,3.8-.9h1.9v-.6c0-.7-.2-1.2-.5-1.5s-.8-.5-1.5-.5-1.1,0-1.6.2-1,.4-1.5.6l-.7-1.6c.6-.3,1.2-.5,1.9-.7.7-.2,1.4-.2,2-.2,1.4,0,2.4.3,3.1.9.7.6,1,1.5,1,2.8v7.3h-1.6v-.2h0ZM266.1,145.2c.8,0,1.5-.2,2-.7s.8-1.1.8-2v-.9h-1.4c-1.1,0-1.9.3-2.4.6s-.7.8-.7,1.5.1.9.4,1.1c.3.3.7.4,1.3.4h0Z"/>
              <path class="cls-5" d="M279.8,135.8h1.1l-.2,2.1c-.3,0-.7-.1-1-.1-.9,0-1.7.3-2.2.9-.6.6-.9,1.4-.9,2.3v5.6h-2.3v-10.8h1.8l.3,1.9h.1c.4-.6.8-1.2,1.4-1.5s1.2-.6,1.9-.6v.2h0Z"/>
              <path class="cls-5" d="M292,146.8h-2.3v-6.7c0-.8-.2-1.4-.5-1.9s-.8-.6-1.5-.6-1.5.3-1.9.9c-.4.6-.6,1.5-.6,2.9v5.4h-2.3v-10.8h1.8l.3,1.4h.1c.3-.5.7-.9,1.3-1.2.6-.3,1.2-.4,1.9-.4,1.7,0,2.8.6,3.3,1.7h.2c.3-.5.8-1,1.3-1.2.6-.3,1.2-.4,2-.4,1.3,0,2.2.3,2.8,1,.6.7.9,1.6.9,3v7h-2.3v-6.7c0-.8-.2-1.4-.5-1.9-.3-.4-.8-.6-1.5-.6s-1.5.3-2,.8c-.4.6-.6,1.4-.6,2.6v5.7h.1Z"/>
              <path class="cls-5" d="M301.7,145.6c0-.5.1-.8.4-1.1s.6-.4,1.1-.4.8.1,1.1.4c.2.3.4.6.4,1.1s-.1.8-.4,1.1c-.2.3-.6.4-1.1.4s-.8-.1-1.1-.4c-.3-.3-.4-.6-.4-1.1ZM304,142.5h-1.7l-.5-9.9h2.7l-.5,9.9Z"/>
            </g>
          </g>
          <g id="Layer_2_copy" class="cls-16">
            <g>
              <path class="cls-5" d="M196.3,102.6v1.4h-3v11.1h-.4l-1.1-1.2v-6.5c-.3,0-.7.3-1.1.7s-1.1,1.1-2,2.3l-1.1-1.1c.2-.3.5-.7.9-1.1-.6-.6-1.3-.9-1.9-.9s-.8.2-1.2.5-.6.8-.6,1.2.2,1,.5,1.5,1.2,1.5,2.7,2.9l-.3.3-2.8-2.8c-.6-.6-1-1.1-1.2-1.5s-.3-.8-.3-1.1c0-.6.2-1.2.6-1.6s.9-.6,1.5-.6c1,0,2,.6,3.2,1.7,1-1,2-1.5,3.1-1.5v-2.3h-9.4v-1.4h13.9Z"/>
              <path class="cls-5" d="M202.7,102.6v1.4h-3v11.1h-.4l-1.2-1.4v-9.8h-2.2v-1.4h6.8,0Z"/>
              <path class="cls-5" d="M213.3,102.6v1.4h-3.7l.2,2.6h-3.4c-.5,0-.9,0-1.2.3s-.4.5-.4.8.1.6.3.9.5.4.7.4.5,0,1.2-.3c.7-.2,1.2-.3,1.5-.3s.9.3,1.5,1,.9,1.2.9,1.7c0,.9-.7,1.8-2.1,2.6l3.2,3.2h-.6l-3-3c-.4.2-.9.3-1.3.3-.6,0-1.2-.2-1.6-.6s-.6-.8-.6-1.3,0-.5.3-.7.4-.3.6-.3c.5,0,1.1.4,1.9,1.3.7,0,1.2-.3,1.7-.7s.7-.9.7-1.4-.1-.6-.3-.8-.5-.3-.8-.3-.5,0-1,.2c-.6.2-1,.2-1.3.2-.7,0-1.4-.3-2-1s-.9-1.4-.9-2.1.2-.7.5-.9.8-.3,1.4-.3h2.8v-1.7h-6.1v-1.4h10.9v.2h0Z"/>
              <path class="cls-5" d="M223.4,102.6v1.4h-3.5l.3,4.3h-1.3c-1.3,0-2.2.2-2.9.6s-1,1-1,1.8.2,1.2.7,1.6,1,.6,1.7.6,2.2-.5,4.1-1.4l.9,1.2c-1.5.8-2.9,1.3-4.1,1.3s-2.1-.4-3-1.3-1.3-1.8-1.3-2.9.3-1.6,1-2.1,1.8-.7,3.4-.7h.3v-2.9h-5.6v-1.4h10.3Z"/>
              <path class="cls-5" d="M237.4,102.6v1.4h-6.1v3.5c.7-.3,1.3-.5,1.8-.5,1,0,1.7.4,2.3,1.3s.9,1.8.9,2.8-.4,2.1-1.1,3.3l-1.4-.8c1-1.6,1.5-3,1.5-4s-.1-.8-.4-1.1-.6-.4-1-.4-1.4.4-2.7,1.1v5.9h-.4l-1.1-1.2v-4c-.7.3-1.2.4-1.8.4-1,0-1.8-.4-2.5-1.2s-1.1-1.7-1.1-2.6v-2.4h-1.3v-1.4h14.4ZM229.8,104h-3.8v3.9c0,.7,0,1.1.3,1.3s.4.3.8.3c.6,0,1.5-.4,2.8-1.2v-4.2h-.1Z"/>
              <path class="cls-5" d="M243.7,102.6v1.4h-3v11.1h-.4l-1.2-1.4v-9.8h-2.2v-1.4h6.8,0Z"/>
              <path class="cls-5" d="M253.5,102.6v1.4h-4.3c.2.6.4,1.3.4,2s-.2,1.6-.5,2.3c-.4.7-.9,1.4-1.6,2,.6.7,1.3,1.4,2.2,2.1s1.9,1.5,3.1,2.3l-.3.4c-1-.7-2-1.4-2.8-2.1s-1.6-1.4-2.3-2.1c-1.4-1.4-2.1-2.4-2.1-3s.4-.9,1.2-.9.8,0,1.4.3c.4-.5.6-1.1.6-1.6s-.1-1-.4-1.7h-4.4v-1.4h10-.2,0Z"/>
              <path class="cls-5" d="M253.9,120.2h-.5c-.3-1-.8-1.8-1.6-2.4s-1.7-.9-2.7-.9-.3,0-.4,0l-.5-1.5c1.5,0,2.7.3,3.7,1.2,1,.9,1.6,2.1,2,3.7h0Z"/>
              <path class="cls-5" d="M266.1,102.6v1.4h-3v11.1h-.4l-1.1-1.3v-3.9h-4v1.7c0,.4-.1.6-.4.6s-.8-.5-1.7-1.4c-.9-.9-1.3-1.6-1.3-1.9s.2-.3.5-.3h1.4v-4.5h-2.9v-1.4h12.9ZM257.6,108.6h4v-4.5h-4v4.5Z"/>
              <path class="cls-5" d="M284,102.6v1.4h-3v11.1h-.4l-1.1-1.3v-3.9h-4v1.7c0,.4-.1.6-.4.6s-.8-.5-1.7-1.4c-.9-.9-1.3-1.6-1.3-1.9s.2-.3.5-.3h1.4v-4.5h-2.9v-1.4h12.9ZM275.5,108.6h4v-4.5h-4v4.5Z"/>
              <path class="cls-5" d="M273.7,98.7l-.6-1.7h1c.6,0,1.1,0,1.6.3s1,.5,1.4.8c.4.4,1,1,1.7,2l2,2.7h-.6l-1.7-2.1c-.5-.7-1.1-1.2-1.6-1.5s-1.2-.5-1.9-.5c0,0-1.3,0-1.3,0Z"/>
              <path class="cls-5" d="M278.9,99.2l1.3-1.3,1.3,1.3-1.3,1.3-1.3-1.3Z"/>
              <path class="cls-5" d="M307.4,102.6v1.4h-3v11.1h-.4l-1.2-1.4v-9.8h-2.8v11.1h-.4l-1.1-1.3v-4.5c-.5.2-1.1.3-1.6.3h-.6v.6c0,.7-.3,1.4-.8,1.8s-1.1.7-1.9.7-1.8-.4-2.6-1.3-1.3-2-1.5-3.4h.5c.2,1,.6,1.8,1.2,2.4s1.2.9,2,.9.9-.2,1.3-.5.6-.8.6-1.3-.2-.9-.6-1.2-.9-.5-1.5-.5-.7,0-1,.2l-1.1-1.3c1.3,0,2.3-.4,2.9-.8s1-.8,1-1.3-.1-.7-.4-.9c-.3-.2-.6-.3-1.1-.3s-1.4.3-2.8,1l-.9-1.2c.9-.4,1.8-.6,2.6-.6s1.8.3,2.4.8.9,1.2.9,2-.2,1.1-.5,1.4-.8.6-1.3.8c1.2.5,2.1.8,2.6.8s1.1-.2,1.4-.5c.4-.3.5-.8.5-1.3v-2.5h-1.5l-1.1-1.4h11.8Z"/>
              <path class="cls-5" d="M318.7,102.6v1.4h-3v11.1h-.4l-1.2-1.3v-3.9c-.5.4-1.1.6-1.8.6s-1.2-.2-1.7-.5c-.6-.3-1.1-.7-1.5-1.2s-.6-1-.6-1.7v-3.1h-1.5v-1.4h11.7ZM314.2,104h-4.1v3.8c0,.9.2,1.4.5,1.6s.7.3,1.1.3c.8,0,1.6-.5,2.5-1.5v-4.2Z"/>
              <path class="cls-5" d="M332,102.6v1.4h-5.8v3.1c.4-.2.8-.3,1.2-.3.8,0,1.5.3,2.2,1s1,1.6,1,2.7-.3,1.8-.8,2.8l-1.1-1.1c.6-1.1.9-2,.9-2.8s-.1-1-.3-1.3c-.2-.3-.6-.4-1-.4-.7,0-1.3.3-2.1,1v6.5h-.4l-1.1-1.3v-4.2c-.9.8-1.7,1.2-2.5,1.2s-1.4-.3-1.9-.8-.7-1.2-.7-1.9.2-1.2.7-1.6,1-.6,1.5-.6c1.1,0,2.1.5,3,1.6v-3.4h-6.3v-1.4h13.6v-.2h-.1ZM324.6,108.1v-.2c-.5-.4-1.1-.7-1.9-.7s-1.4.2-1.9.5c-.4.3-.7.7-.7,1.1s.1.6.3.9c.2.2.5.3,1,.3s1.8-.6,3.2-1.9Z"/>
              <path class="cls-5" d="M338.4,102.6v1.4h-3v11.1h-.4l-1.2-1.4v-9.8h-2.2v-1.4h6.8Z"/>
              <path class="cls-5" d="M235.3,134.6v1.4h-3v11.1h-.4l-1.1-1.2v-5.1c-.9.5-1.6.7-2.1.7s-1.5-.2-2.5-.5c-.4.8-.8,1.4-1.2,1.8.6.8,1.2,1.5,1.8,2.1s1.1,1.2,1.5,1.7l-.3.3c-1-1-1.8-1.9-2.4-2.6s-1.2-1.4-1.5-1.9c-.7-1-1.1-1.8-1.1-2.3s0-.6.2-.7.4-.2.7-.2.8.1,1.2.3c.3-.4.5-1.1.5-1.9s-.1-1-.4-1.5h-3.1v-1.4h13.2ZM230.8,136h-4.3c.2.6.3,1.3.3,2s0,1.1-.3,1.9c.9.3,1.7.5,2.3.5s1.1-.2,1.4-.5.5-.6.5-1v-2.9h.1Z"/>
              <path class="cls-5" d="M235.7,152.2h-.5c-.3-1-.8-1.8-1.6-2.4s-1.7-.9-2.7-.9-.3,0-.4,0l-.5-1.5c1.5,0,2.7.3,3.7,1.2s1.6,2.1,2,3.7h0Z"/>
              <path class="cls-5" d="M247.1,134.6v1.4h-3v11.1h-.4l-1.1-1.2v-3.2c-1.1.8-2.1,1.2-3,1.2s-1.6-.4-2.3-1.2-1.2-1.5-1.2-2.2.2-.9.5-1.3.9-.7,1.6-.9,1.3-.3,1.8-.3c.9,0,1.7.4,2.6,1.3v-3.1h-7.6v-1.4h12.1v-.2h0ZM242.6,140.3v-.5c-.6-.4-1.1-.6-1.7-.6s-1.6.2-2.4.6c-.9.4-1.3.9-1.3,1.4s.1.8.4,1c.3.3.6.4,1,.4s1.2-.3,2.3-.9c1.1-.6,1.6-1.1,1.7-1.5h0Z"/>
              <path class="cls-5" d="M253.5,134.6v1.4h-3v11.1h-.4l-1.2-1.4v-9.8h-2.2v-1.4h6.8,0Z"/>
              <path class="cls-5" d="M265.4,134.6v1.4h-3v11.1h-.5l-1.1-1.3v-9.8h-3.3c.3,3.3.4,5.1.4,5.5,0,.7,0,1.2-.2,1.5s-.4.5-.6.5-.4,0-.6-.3-.7-.8-1.4-1.7-1.1-1.5-1.1-1.8.2-.4.6-.4h1c.5,0,.7-.2.7-.6v-2.9h-3.3v-1.4h12.1l.3.2h0Z"/>
              <path class="cls-5" d="M277.1,134.6v1.4h-3v11.1h-.5l-1.1-1.2v-6.2h-2.4c-1,0-1.8.2-2.2.5s-.6.8-.6,1.4.3,1.3.8,2.1,1.4,1.7,2.6,3l-.3.3c-1.6-1.6-2.7-2.8-3.2-3.7s-.8-1.7-.8-2.6.2-1.3.6-1.8,1.1-.7,2.1-.7h3.5v-2.3h-7.5v-1.4h12Z"/>
              <path class="cls-5" d="M293.2,134.6v1.4h-2.8l.2,3.7h-5.4c-.4,0-.7,0-.9.2-.2.1-.3.3-.3.5s.1.5.3.9.5.7,1,1.1c.8-.5,1.6-.7,2.6-.7s1.7.3,2.3,1c.7.6,1,1.3,1,2.1s-.2,1.1-.5,1.6-.8,1-1.4,1.5l-1.1-1.1c.7-.5,1.3-1,1.7-1.4.4-.4.6-.8.6-1.1s-.2-.7-.5-.9-.7-.4-1.2-.4c-.9,0-1.8.3-2.7.8-.8.5-1.2,1.2-1.2,2s.7,1.9,2.1,2.9c.7.5,1.5,1,2.5,1.4s2,.8,3.2,1.2v.4c-.1,0-.8-.2-.8-.2-2.4-.8-4.4-1.8-6-2.9-.8-.6-1.4-1.2-1.8-1.7-.4-.6-.6-1.2-.6-1.7s.5-1.6,1.4-2.3c-1.3-1.3-1.9-2.3-1.9-3s.2-.8.5-1,.9-.3,1.6-.3h4v-2.3h-7.3v-1.4h11.2l.2-.3h0Z"/>
              <path class="cls-5" d="M289.7,134.8h-.4c-.7-.5-1.4-.9-2.1-1.2s-1.3-.4-1.9-.4-1,0-1.5.1l-.4-1.7h.7c.7,0,1.4.2,2.1.5s1.7,1,2.9,2c-.3-1.2-.7-2.1-1.2-2.7s-1.3-.9-2.2-.9-.2,0-.3,0l-.8-1.6h1.3c1,0,1.7.4,2.3,1.3.5.9,1,2.4,1.5,4.6h0Z"/>
              <path class="cls-5" d="M294.2,145.6c0-.5.1-.8.4-1.1s.6-.4,1.1-.4.8.1,1.1.4c.2.3.4.6.4,1.1s-.1.8-.4,1.1c-.2.3-.6.4-1.1.4s-.8-.1-1.1-.4c-.3-.3-.4-.6-.4-1.1ZM296.6,142.5h-1.7l-.5-9.9h2.7l-.5,9.9Z"/>
            </g>
          </g>
        </g>
        <g>
          <path d="M292.6,146.4v9.4h-1.6v-9.4c-.1,0,1.6,0,1.6,0ZM291.8,159.6c-.3,0-.6-.1-.8-.3-.2-.2-.3-.5-.3-.8s.1-.6.3-.8c.2-.2.5-.3.8-.3s.6.1.8.3c.2.2.3.5.3.8s0,.4-.2.6c-.1.2-.2.3-.4.4-.2.1-.4.2-.6.2Z"/>
          <path d="M285.2,158.5c-.7,0-1.3-.1-1.9-.4-.5-.3-.9-.7-1.2-1.2-.3-.5-.4-1.1-.4-1.8s.1-1.3.4-1.8c.3-.5.7-.9,1.2-1.2.5-.3,1.1-.4,1.8-.4s1.3.1,1.8.4c.5.3.9.7,1.2,1.2.3.5.4,1.1.4,1.8s-.2,1.3-.4,1.8c-.3.5-.7.9-1.2,1.2-.5.3-1.1.4-1.8.4ZM285.2,153c-.6,0-1,.2-1.4.5-.4.3-.6.9-.6,1.6s.2,1.3.6,1.6c.4.3.9.5,1.4.5s1-.2,1.4-.5c.4-.4.6-.9.6-1.6s-.2-1.3-.6-1.6c-.4-.4-.8-.5-1.4-.5Z"/>
          <path d="M272,158.5c-.8,0-1.4-.2-2-.5-.6-.3-1-.8-1.3-1.4-.3-.6-.4-1.4-.4-2.2s.1-1.5.4-2.1c.3-.6.6-1.2,1.1-1.7s1-.9,1.5-1.3l.3-.3c.5-.3,1.1-.5,1.6-.6.6-.1,1.2-.2,1.8-.2s1.7.1,2.3.4c.7.3,1.2.6,1.7,1.1s.8,1,1,1.6c.2.6.3,1.3.3,2s-.1,1.6-.4,2.2c-.3.6-.6,1.2-1,1.7-.4.5-.9.9-1.5,1.3l-.9-1.1c.4-.2.8-.5,1.1-.9.3-.4.6-.8.8-1.3.2-.5.3-1.1.3-1.7s-.2-1.5-.4-2.1c-.3-.6-.7-1.1-1.3-1.4-.6-.3-1.3-.5-2.1-.5s-.7,0-1,0c-.3,0-.6.1-.9.2l-.6.3c-.5.2-.9.5-1.3,1-.4.4-.7.9-.9,1.5-.2.6-.3,1.2-.3,2s0,1.4.3,1.8c.2.4.5.7.8.9.3.2.7.3,1,.3s.7,0,1-.2c.3-.2.6-.5.8-.9.2-.4.3-1,.3-1.8s-.1-1.3-.3-1.9-.5-1.1-.9-1.6c-.4-.5-.9-.8-1.4-1l-.4-.2c-.3,0-.5-.2-.8-.2s-.6,0-.9,0c-.9,0-1.7.2-2.3.5-.6.3-1.1.8-1.4,1.4-.3.6-.5,1.3-.5,2.1s0,1.2.3,1.7c.2.5.4.9.8,1.3.3.4.7.7,1.2,1l-.9,1.1c-.5-.3-1-.7-1.4-1.2-.4-.5-.8-1-1.1-1.7-.3-.7-.4-1.4-.4-2.3s.1-1.4.4-2.1c.3-.6.6-1.2,1.1-1.7.5-.5,1.1-.8,1.8-1.1s1.5-.4,2.4-.4,1.1,0,1.6.2c.5.1,1,.3,1.5.6l.5.4c.8.5,1.5,1.2,2.1,2.1.6.9.8,1.9.8,3.1s-.1,1.6-.4,2.2c-.3.6-.7,1.1-1.2,1.4-.5.3-1.2.5-2,.5Z"/>
          <path d="M257.9,148.1c.9,0,1.6.2,2.2.6.6.4,1.1,1,1.5,1.7.3.7.5,1.6.5,2.6s-.1,1.5-.3,2.2c-.2.6-.5,1.2-.9,1.8-.4.5-.9,1-1.5,1.5l-1-1.1c.4-.3.8-.6,1.1-1,.3-.4.6-.9.8-1.4.2-.5.3-1.2.3-1.8s-.1-1.4-.3-1.9c-.2-.6-.5-1-.9-1.3-.4-.3-.9-.5-1.4-.5s-.8,0-1.1.3c-.3.2-.5.4-.7.6-.2.3-.3.7-.4,1.2,0,.5-.1,1.3-.1,2.3v.2c0,.6,0,1.1-.1,1.5,0,.4-.2.8-.3,1.1-.1.3-.3.6-.5.9-.3.4-.7.6-1.2.8-.5.2-1,.3-1.7.3s-1.6-.2-2.3-.6c-.6-.4-1.1-1-1.5-1.7s-.5-1.6-.5-2.7.1-1.5.3-2.2c.2-.6.5-1.2,1-1.8.4-.5.9-1,1.5-1.5l1,1.1c-.4.3-.8.6-1.1,1-.3.4-.6.9-.8,1.4-.2.5-.3,1.2-.3,1.8s.1,1.4.3,1.9c.2.6.5,1,.9,1.3.4.3.9.4,1.4.4s.9,0,1.2-.2c.3-.2.5-.4.7-.6.2-.3.3-.7.4-1.3,0-.5,0-1.3,0-2.2v-.2c0-.8,0-1.5.2-2,.2-.5.4-1,.7-1.3.3-.4.8-.7,1.2-.9s1.1-.3,1.8-.3Z"/>
          <path d="M246,153.3c0,.7,0,1.4-.2,2-.1.6-.4,1.2-.7,1.7s-.8.9-1.3,1.2c-.5.3-1.2.4-2,.4s-1.1,0-1.6-.3c-.4-.2-.8-.5-1.1-.8-.3-.3-.5-.7-.7-1.1-.2-.4-.3-.8-.4-1.1l1.6-.3c0,.3.2.7.4,1,.2.4.4.7.7.9.3.2.7.4,1.2.4s1.1-.2,1.5-.5c.4-.3.7-.8.8-1.4.2-.6.3-1.3.3-2.1s0-1.5-.3-2.1c-.2-.6-.4-1-.8-1.4-.4-.3-.9-.5-1.4-.5s-.9.1-1.2.4c-.3.2-.6.5-.7.9-.2.3-.3.7-.4,1l-1.5-.3c.1-.4.3-.8.5-1.1.2-.4.5-.7.8-1,.3-.3.7-.6,1.1-.8.5-.2,1-.3,1.6-.3s1.4.1,1.9.4c.5.3.9.7,1.2,1.2.3.5.5,1,.7,1.7.1.6.2,1.3.2,1.9Z"/>
          <path d="M236.4,148.3v12.8h-6.2v-1.3h4.6v-11.6h1.5Z"/>
          <path d="M222.8,148.1c.5,0,1,0,1.4.3.4.2.8.4,1.1.8.2.2.3.4.5.7.1.3.3.6.3,1.1,0,.5.1,1.1.1,1.9v.6c0,.7,0,1.2,0,1.7,0,.5.2.9.4,1.2.2.3.4.5.7.6.3.1.7.2,1.2.2s1-.1,1.4-.4c.4-.3.7-.7.9-1.3.2-.6.3-1.2.3-2s0-1.3-.3-1.8c-.2-.5-.4-1-.8-1.4-.3-.4-.7-.8-1.1-1l1-1.1c.6.5,1.1,1,1.5,1.5.4.5.7,1.1.9,1.8.2.6.3,1.4.3,2.2s-.2,1.9-.5,2.7c-.3.7-.8,1.3-1.5,1.7-.6.4-1.4.6-2.3.6s-1.3,0-1.7-.3c-.5-.2-.9-.5-1.2-.8-.2-.3-.4-.6-.6-.9-.1-.3-.2-.7-.3-1.1,0-.4,0-.9,0-1.5v-.9c0-.8,0-1.5-.1-1.9,0-.4-.2-.8-.4-1-.2-.2-.4-.4-.6-.4-.2-.1-.5-.2-.9-.2s-.6,0-.9.2c-.3.1-.5.3-.6.5-.2.3-.4.6-.5,1,0,.4-.1.9-.1,1.7v5.6h-1.5v-5.3c0-.7,0-1.2,0-1.6s-.2-.7-.3-1c-.2-.3-.5-.6-.8-.8-.3-.2-.7-.3-1.1-.3s-1,.2-1.5.5c-.4.3-.8.7-1,1.3-.2.5-.4,1.2-.4,1.9s0,1.3.3,1.9c.2.5.5,1,.8,1.4.3.4.7.7,1.1,1l-1,1.1c-.5-.4-1-.9-1.4-1.4-.4-.5-.7-1.1-1-1.7-.2-.7-.3-1.4-.3-2.3s.2-1.7.5-2.5c.3-.7.9-1.3,1.5-1.8.7-.4,1.5-.7,2.4-.7s1.4.2,1.9.5c.5.3.9.7,1.2,1.2h0c.3-.6.8-1,1.3-1.3.5-.3,1.1-.4,1.8-.4Z"/>
          <path d="M327.5,125.6c-.7,0-1.3-.1-1.8-.4-.5-.3-.9-.6-1.1-1s-.4-.9-.4-1.5,0-.4,0-.6c0-.2,0-.4.1-.5l1.3.3c0,.1,0,.3,0,.4,0,.2,0,.3,0,.4,0,.4,0,.8.3,1,.2.3.4.4.7.5.3.1.6.2.9.2s.7,0,1-.2c.3-.1.5-.3.7-.5.2-.3.2-.6.2-1s0-.3,0-.4c0-.2,0-.3,0-.4l1.3-.3c0,.1,0,.3.1.5,0,.2,0,.4,0,.6,0,.6-.1,1.1-.4,1.5s-.6.8-1.1,1c-.5.2-1.1.4-1.8.4Z"/>
          <path d="M311.8,126.1c1,0,1.7.2,2.4.7.6.4,1.1,1.1,1.4,1.8.3.8.4,1.7.4,2.6s-.2,2.1-.5,2.9c-.3.8-.8,1.4-1.4,1.8-.6.4-1.4.6-2.2.6s-1.2-.1-1.8-.3c-.5-.2-1-.6-1.3-1-.4-.4-.7-1-.9-1.6-.2-.7-.3-1.4-.3-2.3,0-1.6.4-2.9,1.1-3.8.8-.9,1.8-1.4,3.1-1.4ZM311.8,127.4c-.9,0-1.6.3-2,1-.4.6-.6,1.6-.6,3s0,1.6.3,2.2c.2.6.5,1,.9,1.3.4.3.9.4,1.5.4s1.1-.1,1.5-.4c.4-.3.7-.7.9-1.3.2-.6.3-1.3.3-2.2s-.1-1.6-.3-2.2c-.2-.6-.5-1-.9-1.3s-.9-.4-1.5-.4ZM306.2,136.5c-1.1,0-1.9-.3-2.5-.8-.6-.5-.8-1.2-.8-2.2s.1-1.1.4-1.5c.3-.4.6-.8,1-1,.3-.2.6-.3,1-.4.4-.1.8-.2,1.3-.2.5,0,1.1,0,1.8,0h11.3c.6,0,1.2,0,1.6.1.4,0,.8.2,1.1.3.3.1.6.3.8.6.3.3.4.6.6.9.1.4.2.8.2,1.2,0,.9-.3,1.6-.8,2.1s-1.3.8-2.3.8-1.3-.1-1.8-.4c-.5-.3-.9-.7-1.2-1.3-.3-.6-.5-1.3-.5-2.2s0-.5,0-.8,0-.5,0-.7c0,0,0-.1,0-.2,0,0,0-.1,0-.2.2-.8.4-1.4.8-2,.4-.6.8-1.1,1.3-1.5.5-.4,1.1-.7,1.7-.9.6-.2,1.3-.3,2.1-.3s1.7.1,2.4.4c.7.3,1.2.6,1.7,1.1s.8,1,1,1.6c.2.6.3,1.3.3,2s-.1,1.6-.4,2.2c-.3.6-.6,1.2-1,1.7-.4.5-.9.9-1.5,1.3l-.9-1.1c.4-.2.8-.5,1.1-.9.3-.4.6-.8.8-1.3.2-.5.3-1.1.3-1.7s-.1-1.5-.4-2.1c-.3-.6-.7-1.1-1.3-1.4-.6-.3-1.3-.5-2.1-.5s-1.3.1-1.9.4c-.6.3-1.1.7-1.5,1.2-.4.5-.7,1.1-.9,1.8,0,0,0,.1,0,.2,0,0,0,.1,0,.2,0,.2,0,.4,0,.7,0,.3,0,.5,0,.7,0,.6,0,1.1.2,1.5.2.4.4.7.7.9.3.2.7.3,1.1.3s.9-.1,1.2-.4c.3-.3.5-.7.5-1.3s0-.6-.1-.8c0-.2-.2-.4-.4-.6-.2-.2-.5-.4-.9-.4-.4,0-.9-.1-1.6-.1h-11.1c-.9,0-1.5,0-2,.1-.4,0-.8.2-1.2.4-.2.1-.4.3-.5.5-.1.2-.2.5-.2.8s0,.7.2,1c.2.3.4.4.6.6s.6.2,1,.2.8,0,1.2-.2c.4-.1.8-.4,1.2-.7l.9,1c-.4.3-.7.5-1.1.6-.3.2-.7.3-1.1.4-.4,0-.8.1-1.2.1Z"/>
          <path d="M301.1,126.3v10h-13.1v-5.6c0-.9,0-1.6.3-2.1.2-.5.5-1,.8-1.3.4-.4.8-.6,1.4-.8.5-.2,1.2-.3,1.9-.3s1.3,0,1.9.3c.5.2,1,.4,1.3.8.4.4.7.8.8,1.4.2.6.3,1.2.3,1.9v1.8h-7.1v2.7h10v-8.7h1.5ZM292.3,127.4c-1,0-1.7.3-2.1.8-.4.5-.7,1.3-.7,2.4v.5h5.6v-.5c0-1.1-.2-2-.7-2.4-.4-.5-1.1-.7-2.1-.7Z"/>
          <path d="M282.7,136.5c-.8,0-1.5-.1-2.2-.3-.7-.2-1.3-.5-1.9-.9-.5-.4-1-1-1.3-1.6-.3-.7-.5-1.5-.5-2.4s.2-1.7.5-2.3c.3-.6.8-1.2,1.3-1.6.6-.4,1.2-.7,1.9-.9.7-.2,1.4-.3,2.2-.3s1.4.1,1.9.3c.5.2.9.5,1.1.9.3.4.4.8.4,1.2s-.1.9-.3,1.3c-.2.3-.5.6-.9.8-.4.2-.8.3-1.2.3-.6,0-1.1-.1-1.5-.3-.4-.2-.7-.5-.8-.9-.2-.4-.2-.8-.2-1.2s0-.5,0-.7c0-.2.1-.4.2-.5l1.7-.3c-.2.2-.4.4-.5.7-.1.3-.2.6-.2.8s0,.5.3.8c.2.3.5.4,1,.4s.7-.1.9-.3c.2-.2.3-.5.3-.8,0-.5-.2-.8-.5-1-.3-.2-.7-.3-1.1-.3h-.5c-.2,0-.3,0-.5,0-.8,0-1.5.3-2,.6-.6.3-1,.8-1.3,1.4-.3.6-.4,1.2-.4,2s.1,1.4.4,2c.3.6.7,1.1,1.3,1.4.6.3,1.2.5,1.9.6.1,0,.3,0,.4,0,.2,0,.3,0,.4,0,.3,0,.6,0,.8-.1.3,0,.5-.2.6-.4.2-.2.2-.5.2-.8s0-.6-.3-.8c-.2-.2-.5-.3-.9-.3s-.8.1-1,.4c-.2.3-.3.6-.3.8s0,.6.2.8c.1.3.3.5.5.6l-1.7-.3c0-.1-.2-.3-.2-.5,0-.2,0-.5,0-.7,0-.4,0-.8.3-1.1.2-.3.4-.6.8-.8.4-.2.9-.3,1.5-.3s.9,0,1.3.3c.4.2.7.4.9.8.2.3.4.8.4,1.3s-.1.9-.4,1.3c-.2.4-.6.7-1.1.9-.5.2-1.1.3-1.9.3Z"/>
          <path d="M271.5,121.1c.5,0,.9,0,1.2.1.3,0,.7.2.9.4.3.3.6.6.8.9.2.3.3.8.4,1.3,0,.5.1,1.3.1,2.1v10.2h-1.5v-9.8c0-.6,0-1.2,0-1.6,0-.5,0-.8-.2-1.2,0-.3-.2-.6-.3-.8-.1-.2-.3-.3-.5-.5-.2-.1-.5-.2-.8-.2s-.5,0-.8.2c-.3.1-.5.3-.6.5-.2.2-.3.6-.3,1s0,.2,0,.3c0,.1,0,.2,0,.3l-1.5.3c0-.1,0-.3,0-.4,0-.2,0-.3,0-.4,0-.7.2-1.2.5-1.7.3-.5.7-.8,1.2-1,.5-.2,1-.3,1.6-.3Z"/>
          <path d="M265.4,126.1c.9,0,1.8.1,2.4.3.7.2,1.2.5,1.7,1,.3.3.6.6.8,1,.2.4.4.8.5,1.3.1.5.2,1.1.2,1.7v4.8h-10.9v-4.8c0-.6,0-1.2.1-1.7.1-.5.3-.9.5-1.3.2-.4.5-.7.8-1,.4-.4,1-.7,1.6-1,.6-.2,1.4-.3,2.3-.3ZM264.6,127.4c-.5,0-.9.1-1.3.4-.4.3-.7.6-.9,1-.2.3-.3.8-.5,1.2-.1.5-.2,1.1-.2,1.8v3.3h0c.8-.6,1.5-1.3,2.2-1.9s1.1-1.4,1.5-2.1c.4-.7.6-1.4.6-2s0-.6-.2-.9c0-.3-.2-.4-.5-.6-.2-.1-.5-.2-.8-.2ZM267.6,129.2c0,.7-.2,1.4-.5,2.1s-.8,1.4-1.4,2.1c-.6.7-1.3,1.4-2.1,2.1v-.4c.3,0,.7,0,1,0,.3,0,.7,0,1,0h3.9v-3.2c0-.9,0-1.6-.3-2.2-.2-.6-.5-1.1-.8-1.4-.4-.4-.9-.6-1.6-.8h0c.2.1.4.4.5.7.1.3.2.7.2,1.1Z"/>
          <path d="M258.3,131.3c0,.7,0,1.4-.2,2-.1.6-.4,1.2-.7,1.7-.3.5-.8.9-1.3,1.2-.5.3-1.2.4-2,.4s-1.1,0-1.6-.3c-.4-.2-.8-.5-1.1-.8-.3-.3-.5-.7-.7-1.1-.2-.4-.3-.8-.4-1.1l1.6-.3c0,.3.2.7.4,1,.2.4.4.7.7.9.3.2.7.4,1.2.4s1.1-.2,1.5-.5c.4-.3.7-.8.8-1.4.2-.6.3-1.3.3-2.1s0-1.5-.3-2.1c-.2-.6-.4-1-.8-1.4-.4-.3-.9-.5-1.4-.5s-.9.1-1.2.4c-.3.2-.6.5-.7.9-.2.3-.3.7-.4,1l-1.5-.3c.1-.4.3-.8.4-1.1.2-.4.5-.7.8-1,.3-.3.7-.6,1.1-.8.5-.2,1-.3,1.6-.3s1.4.1,1.9.4c.5.3.9.7,1.2,1.2.3.5.5,1,.7,1.7.1.6.2,1.3.2,1.9Z"/>
          <path d="M233.8,130.1c.8,0,1.5.2,2,.5.5.3.9.7,1.2,1.2.3.5.4,1,.4,1.5s0,.9-.2,1.3c-.2.4-.3.6-.6.8l-.5-.2h5v1.3h-5.5l-.5-.9c.2-.2.4-.5.6-.8.1-.3.2-.7.2-1.1,0-.6-.2-1.2-.5-1.5s-.9-.6-1.5-.6-.8,0-1.1.3c-.3.2-.5.4-.7.7-.2.3-.2.6-.2,1s0,.8.3,1.1c.2.3.4.6.8.9l-.8,1c-.5-.4-.9-.8-1.3-1.3-.3-.5-.5-1.1-.5-1.8s.1-1.2.4-1.7c.3-.5.7-.9,1.2-1.2.5-.3,1.2-.4,1.9-.4ZM244.4,126.1c.7,0,1.4.1,1.9.3s1,.5,1.4.9c.4.4.7.9.9,1.5.2.6.3,1.4.3,2.3v5.3h-8.9v-5.3c0-.7,0-1.2.1-1.7,0-.5.2-.9.4-1.2.2-.3.4-.6.7-.9.4-.4.8-.6,1.4-.8.5-.2,1.2-.3,1.9-.3ZM244.4,127.4c-.4,0-.8,0-1.2.2-.3.1-.6.3-.9.6-.3.3-.5.6-.6,1.1-.1.4-.2,1.1-.2,2v3.8h5.8v-3.6c0-.9,0-1.6-.2-2.1s-.3-.9-.6-1.2c-.2-.2-.5-.4-.9-.6-.3-.1-.8-.2-1.2-.2Z"/>
          <path d="M227.7,125.6c-.7,0-1.3-.1-1.8-.4-.5-.3-.9-.6-1.1-1-.3-.4-.4-.9-.4-1.5s0-.4,0-.6c0-.2,0-.4.1-.5l1.3.3c0,.1,0,.3,0,.4,0,.2,0,.3,0,.4,0,.4,0,.8.3,1,.2.3.4.4.7.5.3.1.6.2.9.2s.7,0,1-.2c.3-.1.5-.3.7-.5.2-.3.2-.6.2-1s0-.3,0-.4c0-.2,0-.3,0-.4l1.3-.3c0,.1,0,.3.1.5,0,.2,0,.4,0,.6,0,.6-.1,1.1-.4,1.5s-.6.8-1.1,1c-.5.2-1.1.4-1.8.4Z"/>
          <path d="M223.7,126.1c.9,0,1.7.1,2.3.4.7.3,1.2.6,1.7,1,.4.4.8,1,1,1.6.2.6.3,1.2.3,1.9s-.1,1.5-.4,2.1c-.3.6-.6,1.2-1,1.6-.4.5-.9.9-1.5,1.2l-.9-1.1c.4-.2.8-.5,1.1-.8.3-.3.6-.7.8-1.2.2-.5.3-1,.3-1.6s-.1-1.4-.4-1.9c-.3-.6-.7-1-1.3-1.3-.6-.3-1.2-.5-2-.5s-1.5.2-2,.5c-.6.3-1,.8-1.3,1.3-.3.6-.4,1.2-.4,1.9s.2,1.6.6,2.2c.4.6.9,1.1,1.6,1.5l-.9,1.1c-.5-.3-1-.6-1.4-1.1-.4-.5-.8-1-1.1-1.6-.3-.6-.4-1.4-.4-2.2s.1-1.3.3-1.9c.2-.6.6-1.1,1-1.6.5-.4,1-.8,1.7-1,.7-.3,1.5-.4,2.3-.4ZM223.6,135.3c.9,0,1.6.2,2.2.5.6.3,1,.8,1.3,1.3.3.5.4,1.1.4,1.8s-.2,1.5-.5,2c-.3.6-.8,1-1.3,1.4l-.9-1c.4-.3.7-.6,1-1,.2-.4.4-.9.4-1.4s0-.9-.3-1.3c-.2-.4-.5-.7-.8-.9-.4-.2-.8-.3-1.4-.3-.8,0-1.4.2-1.9.7-.4.5-.6,1.1-.6,1.8s.1,1,.3,1.4c.2.4.5.7,1,1l-.9,1c-.5-.3-.9-.8-1.3-1.4-.4-.5-.6-1.2-.6-2.1s.1-1.3.4-1.8c.3-.6.7-1,1.3-1.3.6-.3,1.3-.5,2.2-.5Z"/>
          <path d="M216.3,126.3v10h-13v-5.6c0-.9,0-1.6.3-2.1.2-.5.5-1,.8-1.3.4-.4.8-.6,1.4-.8.5-.2,1.2-.3,1.9-.3s1.3,0,1.9.3c.5.2,1,.4,1.3.8.4.4.7.8.8,1.4.2.6.3,1.2.3,1.9v1.8h-7.1v2.7h10v-8.7h1.5ZM207.6,127.4c-1,0-1.7.3-2.1.8-.4.5-.7,1.3-.7,2.4v.5h5.6v-.5c0-1.1-.2-2-.7-2.4-.4-.5-1.1-.7-2.1-.7Z"/>
          <path d="M180.6,135.3c-.6,0-1.2-.2-1.8-.5-.5-.3-1-.8-1.3-1.4-.3-.7-.5-1.5-.5-2.5s.2-1.8.5-2.5c.3-.7.7-1.4,1.3-1.9.6-.5,1.2-.9,1.9-1.2.7-.3,1.5-.4,2.4-.4s1.7.1,2.4.4c.7.3,1.2.6,1.7,1.1.4.5.8,1,1,1.6.2.6.3,1.3.3,2s-.1,1.6-.4,2.2c-.3.6-.6,1.2-1,1.7-.4.5-.9.9-1.5,1.3l-.9-1.1c.4-.2.8-.5,1.1-.9.3-.4.6-.8.8-1.3.2-.5.3-1.1.3-1.7s-.1-1.5-.4-2.1c-.3-.6-.7-1.1-1.3-1.4-.6-.3-1.3-.5-2.1-.5s-1.6.2-2.3.6c-.7.4-1.2,1-1.6,1.7-.4.7-.6,1.5-.6,2.5s0,1.3.3,1.7c.2.5.4.8.8,1,.3.2.7.3,1.1.3s.6,0,.8-.2c.2-.1.4-.3.5-.6.1-.3.2-.6.2-1,0-.6-.2-1-.5-1.3-.3-.3-.7-.5-1.2-.5s-.9.1-1.3.4c-.4.2-.8.5-1.2.9l-.3-1.1c.4-.4.8-.8,1.3-1,.5-.3,1.1-.4,1.7-.4s1.1.1,1.5.3c.4.2.8.6,1,1,.3.4.4,1,.4,1.6s-.1,1.2-.4,1.7c-.3.5-.6.8-1.1,1.1-.5.3-1,.4-1.6.4ZM193.5,135.3c-.6,0-1.2-.2-1.8-.5-.5-.3-1-.8-1.3-1.4-.3-.7-.5-1.5-.5-2.5s.1-1.8.4-2.5c.3-.7.7-1.4,1.3-1.9.6-.5,1.2-.9,1.9-1.2.7-.3,1.5-.4,2.4-.4s1.7.1,2.4.4c.7.3,1.2.6,1.7,1.1s.8,1,1,1.6c.2.6.3,1.3.3,2s-.1,1.6-.4,2.2c-.3.6-.6,1.2-1,1.7-.4.5-.9.9-1.5,1.3l-.9-1.1c.4-.2.8-.5,1.1-.9.3-.4.6-.8.8-1.3.2-.5.3-1.1.3-1.7s-.1-1.5-.5-2.1c-.3-.6-.7-1.1-1.3-1.4-.6-.3-1.3-.5-2.1-.5s-1.6.2-2.3.6c-.7.4-1.2,1-1.6,1.7-.4.7-.6,1.5-.6,2.5s0,1.3.3,1.7c.2.5.4.8.8,1,.3.2.7.3,1.1.3s.6,0,.8-.2c.2-.1.4-.3.5-.6.1-.3.2-.6.2-1,0-.6-.2-1-.5-1.3-.3-.3-.7-.5-1.2-.5s-.9.1-1.3.4c-.4.2-.8.5-1.2.9l-.3-1.1c.4-.4.8-.8,1.3-1,.5-.3,1.1-.4,1.7-.4s1.1.1,1.5.3c.4.2.8.6,1,1,.3.4.4,1,.4,1.6s-.1,1.2-.4,1.7c-.3.5-.6.8-1.1,1.1-.5.3-1,.4-1.6.4Z"/>
        </g>
      </g>
    </g>
  </g>
</svg>