<svg width="47" height="37" viewBox="0 0 47 37" fill="none" xmlns="http://www.w3.org/2000/svg">
<path d="M4.3945 12.3307L2.63983 10.5936C1.94267 9.91113 1.56667 9.00377 1.56667 8.03437C1.56667 6.80905 2.1855 5.72333 3.13333 5.07189C3.13333 5.11842 3.13333 5.1572 3.13333 5.20373C3.13333 6.48334 4.19083 7.53029 5.48333 7.53029C6.77583 7.53029 7.83333 6.48334 7.83333 5.20373C7.83333 4.02494 6.94033 3.04779 5.78883 2.89268L7.60617 1.09348L6.49383 0L4.47283 2.00859C4.136 2.33431 3.86183 2.70656 3.65033 3.10983C1.53533 3.77678 0 5.73108 0 8.03437C0 9.4148 0.5405 10.7099 1.5275 11.6871L3.28217 13.4242C3.63467 13.0365 4.00283 12.672 4.3945 12.3307ZM4.794 4.45148C4.935 4.43597 5.076 4.42821 5.217 4.42821H5.48333C5.91417 4.42821 6.26667 4.7772 6.26667 5.20373C6.26667 5.63027 5.91417 5.97925 5.48333 5.97925C5.0525 5.97925 4.7 5.63027 4.7 5.20373C4.7 4.94781 4.73133 4.69189 4.794 4.45148Z" fill="black"/>
<path d="M29.7666 11.4076V15.0681L31.4978 14.6415C33.2446 14.2072 34.4666 12.664 34.4666 10.8803V9.43779C33.7068 9.20514 32.9156 9.08105 32.1166 9.08105C30.8241 9.08105 29.7666 10.1202 29.7666 11.4076Z" fill="black"/>
<path d="M39.9499 27.6934C38.6574 27.6934 37.5999 28.7403 37.5999 30.0199C37.5999 30.2913 37.6625 30.5473 37.7487 30.7954H42.1432C42.2293 30.5473 42.292 30.2913 42.292 30.0199C42.2999 28.7326 41.2424 27.6934 39.9499 27.6934Z" fill="black"/>
<path d="M44.65 27.6934C44.1722 27.6934 43.7178 27.8407 43.334 28.1044C43.663 28.6705 43.8667 29.3142 43.8667 30.0199C43.8667 30.2836 43.8353 30.5395 43.7805 30.7954H46.8511C46.9373 30.5473 47 30.2913 47 30.0199C47 28.7326 45.9425 27.6934 44.65 27.6934Z" fill="black"/>
<path d="M35.4614 36.9998H46.9999V32.3467H37.5999C37.5999 34.2002 36.7696 35.8598 35.4614 36.9998Z" fill="black"/>
<path d="M26.6333 32.3467C26.6333 34.9136 28.7405 36.9998 31.3333 36.9998C33.9261 36.9998 36.0333 34.9136 36.0333 32.3467H26.6333Z" fill="black"/>
<path d="M31.3333 30.0199C31.3333 29.7562 31.3568 29.4925 31.4116 29.2444H31.02C26.8762 29.2444 23.5 25.9019 23.5 21.7994C23.5 21.0006 23.6332 20.2096 23.8838 19.4418L24.3225 18.1389L25.8108 18.6275L25.3722 19.9226C25.1685 20.5353 25.0667 21.1557 25.0667 21.7916C25.0667 25.041 27.7378 27.6856 31.02 27.6856H32.1323C32.8452 26.7472 33.9732 26.1345 35.2422 26.1345C36.1038 26.1345 36.9263 26.4137 37.6 26.9178C38.258 26.4292 39.057 26.1345 39.9422 26.1345C40.7255 26.1345 41.454 26.3672 42.065 26.7627C42.1982 26.5766 42.2922 26.3672 42.2922 26.1345C42.2922 25.8398 42.1747 25.5684 41.971 25.359L39.1667 22.5826V15.1377C39.1667 13.4936 38.4303 11.9425 37.1535 10.8878C36.801 10.5931 36.425 10.3372 36.0333 10.1123V10.8723C36.0333 13.3695 34.3257 15.5332 31.8817 16.1381L28.2 17.0532V11.4074C28.2 11.2988 28.2235 11.198 28.2313 11.0972H28.2235C26.2338 12.0821 23.9152 12.4156 21.7218 12.0201L15.04 10.818C14.3663 10.6939 13.677 10.6319 12.9955 10.6319C6.69748 10.6319 1.56665 15.7038 1.56665 21.9467C1.56665 23.5908 1.91132 25.1884 2.58498 26.6851L3.41532 28.5464C4.26915 30.4387 4.69998 32.455 4.69998 34.5334V36.9995H7.83332V33.1219C7.83332 31.8423 8.89082 30.7954 10.1833 30.7954H16.45C17.7425 30.7954 18.8 31.8423 18.8 33.1219V36.9995H21.9333V33.1219C21.9333 31.8423 22.9908 30.7954 24.2833 30.7954H25.0667H25.85H31.4195C31.3647 30.5395 31.3333 30.2835 31.3333 30.0199ZM35.25 17.6116C36.1117 17.6116 36.8167 18.3095 36.8167 19.1626C36.8167 20.0157 36.1117 20.7136 35.25 20.7136C34.3883 20.7136 33.6833 20.0157 33.6833 19.1626C33.6833 18.3095 34.3883 17.6116 35.25 17.6116Z" fill="black"/>
<path d="M35.2501 27.6934C33.9576 27.6934 32.9001 28.7403 32.9001 30.0199C32.9001 30.2913 32.9628 30.5473 33.049 30.7954H36.1197C36.0648 30.5395 36.0335 30.2836 36.0335 30.0199C36.0335 29.3219 36.2372 28.6705 36.5662 28.1044C36.1823 27.8407 35.728 27.6934 35.2501 27.6934Z" fill="black"/>
</svg>
