<svg width="58" height="37" viewBox="0 0 58 37" fill="none" xmlns="http://www.w3.org/2000/svg">
<path d="M14.1333 31.8172C15.012 31.3339 16.0739 31.3339 16.9526 31.8172C25.0079 36.1766 28.9439 36.1859 30.4451 35.8978C30.4451 35.8978 42.6379 35.4888 55.1601 23.6747L56.167 22.6522C57.0732 21.732 57.2654 20.3099 56.6338 19.1759C55.6635 17.447 53.4941 16.8428 51.7915 17.8281C51.6909 17.8838 51.5902 17.9489 51.4895 18.0233L47.59 20.2448C44.9995 21.6948 42.5189 23.3215 40.1481 25.1247C35.6719 28.8707 29.2552 29.0566 24.5868 25.5616C30.1888 27.5601 35.5712 25.9427 38.0244 23.9164C40.2487 22.1317 40.1664 19.9845 35.8641 19.6964C29.246 19.2409 27.1956 18.0233 26.564 17.2889C26.0056 16.6104 25.3282 16.0341 24.5776 15.5879C15.6802 10.5128 6.94763 18.4694 6.94763 18.4694L7.45108 19.3989L13.1172 30.0883L14.0326 31.7429C14.06 31.7893 14.115 31.8172 14.1699 31.7986" fill="black"/>
<path d="M5.56544 19.1294L12.7236 32.4586L7.28633 35.8885L0 22.0295L5.56544 19.1294Z" fill="black"/>
<path d="M44.9263 1.7569L44.4137 1.23637C42.7935 -0.408868 40.1664 -0.408868 38.5462 1.23637L37.8597 1.9335L37.1732 1.23637C35.5529 -0.408868 32.9258 -0.408868 31.3056 1.23637L30.793 1.7569C29.1728 3.40213 29.1728 6.06983 30.793 7.71507L31.4796 8.4122L31.4704 8.4215L37.8505 14.9002L37.8597 14.8909L37.8688 14.9002L44.2489 8.4215L44.2398 8.4122L44.9263 7.71507C46.5465 6.06983 46.5465 3.40213 44.9263 1.7569Z" fill="black"/>
</svg>
