<svg width="34" height="28" viewBox="0 0 34 28" fill="none" xmlns="http://www.w3.org/2000/svg">
<g id="Group 1456">
<g id="Group 1455">
<path id="Vector" d="M18 22.6445V17.6445C18 17.0922 17.5523 16.6445 17 16.6445C16.4477 16.6445 16 17.0922 16 17.6445V22.6445C16 23.1968 16.4477 23.6445 17 23.6445C17.5523 23.6445 18 23.1968 18 22.6445Z" fill="white" stroke="#359D92" stroke-width="1.5" stroke-linecap="round" stroke-linejoin="round"/>
<path id="Vector_2" d="M21 21H13V27H21V21Z" fill="white" stroke="#359D92" stroke-width="1.5" stroke-linecap="round" stroke-linejoin="round"/>
</g>
<g id="Group 1454">
<path id="Vector_3" d="M17 1L17 13" stroke="#359D92" stroke-width="1.5" stroke-linecap="round" stroke-linejoin="round" stroke-dasharray="2 4"/>
<g id="Group 1452">
<path id="Vector_4" d="M14 14C12.2747 11.0874 8.92548 7.51956 3 8.05353" stroke="#359D92" stroke-width="1.5" stroke-linecap="round" stroke-linejoin="round" stroke-dasharray="2 4"/>
<path id="Vector_5" d="M12 16.2959C9.53501 15.5998 5.53326 15.7575 1 21" stroke="#359D92" stroke-width="1.5" stroke-linecap="round" stroke-linejoin="round" stroke-dasharray="2 4"/>
</g>
<g id="Group 1453">
<path id="Vector_6" d="M20 14C21.7253 11.0874 25.0745 7.51956 31 8.05353" stroke="#359D92" stroke-width="1.5" stroke-linecap="round" stroke-linejoin="round" stroke-dasharray="2 4"/>
<path id="Vector_7" d="M22 16.2959C24.465 15.5998 28.4667 15.7575 33 21" stroke="#359D92" stroke-width="1.5" stroke-linecap="round" stroke-linejoin="round" stroke-dasharray="2 4"/>
</g>
</g>
</g>
</svg>
