<svg width="36" height="29" viewBox="0 0 36 29" fill="none" xmlns="http://www.w3.org/2000/svg">
<g id="Group 1456">
<g id="Group 1455">
<path id="Vector" d="M19 23.1445V18.1445C19 17.5922 18.5523 17.1445 18 17.1445C17.4477 17.1445 17 17.5922 17 18.1445V23.1445C17 23.6968 17.4477 24.1445 18 24.1445C18.5523 24.1445 19 23.6968 19 23.1445Z" fill="white" stroke="#0669E1" stroke-width="2.5" stroke-linecap="round" stroke-linejoin="round"/>
<path id="Vector_2" d="M22 21.5H14V27.5H22V21.5Z" fill="white" stroke="#0669E1" stroke-width="2.5" stroke-linecap="round" stroke-linejoin="round"/>
</g>
<g id="Group 1454">
<path id="Vector_3" d="M18 1.5L18 13.5" stroke="#0669E1" stroke-width="2.5" stroke-linecap="round" stroke-linejoin="round" stroke-dasharray="2 4"/>
<g id="Group 1452">
<path id="Vector_4" d="M15 14.5C13.2747 11.5874 9.92548 8.01956 4 8.55353" stroke="#0669E1" stroke-width="2.5" stroke-linecap="round" stroke-linejoin="round" stroke-dasharray="2 4"/>
<path id="Vector_5" d="M13 16.7959C10.535 16.0998 6.53326 16.2575 2 21.5" stroke="#0669E1" stroke-width="2.5" stroke-linecap="round" stroke-linejoin="round" stroke-dasharray="2 4"/>
</g>
<g id="Group 1453">
<path id="Vector_6" d="M21 14.5C22.7253 11.5874 26.0745 8.01956 32 8.55353" stroke="#0669E1" stroke-width="2.5" stroke-linecap="round" stroke-linejoin="round" stroke-dasharray="2 4"/>
<path id="Vector_7" d="M23 16.7959C25.465 16.0998 29.4667 16.2575 34 21.5" stroke="#0669E1" stroke-width="2.5" stroke-linecap="round" stroke-linejoin="round" stroke-dasharray="2 4"/>
</g>
</g>
</g>
</svg>
