<svg width="124" height="100" viewBox="0 0 124 100" fill="none" xmlns="http://www.w3.org/2000/svg">
<g id="Vector">
<path d="M21.9589 96.9096C28.9619 94.7533 34.7485 91.2694 38.9074 86.7378C41.9438 87.1683 46.4738 87.7567 51.6835 88.2447L52.7613 88.3416C53.4991 88.4062 54.2549 88.4707 55.0151 88.5317C55.3952 88.5604 55.7798 88.5927 56.1599 88.6214C56.9291 88.6788 57.7072 88.7327 58.4942 88.7829C59.6748 88.8583 60.8688 88.9228 62.0672 88.9802C63.7218 89.0556 65.3496 89.1058 66.9014 89.1309C67.6169 89.1417 68.3323 89.1489 69.0434 89.1489H69.3251C70.1345 89.1489 70.9395 89.1381 71.731 89.1202C73.39 89.0843 74.982 89.0125 76.4712 88.9049C77.2538 88.8511 78.0229 88.7829 78.7831 88.7076C79.1632 88.6681 79.5434 88.6286 79.919 88.582C81.4842 88.3954 82.9733 88.1622 84.3327 87.8859C85.0617 87.7388 85.7772 87.5702 86.4479 87.3944C87.5301 87.1109 88.5542 86.788 89.4978 86.4292C89.8287 86.3036 90.1507 86.1745 90.4726 86.0345C91.8455 85.4461 93.0708 84.7572 94.1127 83.993C94.1217 83.9858 94.1306 83.9786 94.1441 83.9714C94.4616 83.7382 94.7746 83.4835 95.11 83.1893C95.2084 83.1067 95.2978 83.0242 95.3783 82.9489C95.6466 82.7049 95.9104 82.4537 96.1609 82.1918C96.2056 82.1452 96.2637 82.0914 96.295 82.0555C96.5768 81.7577 96.8495 81.4455 97.1223 81.119L97.3057 80.8894C97.5248 80.6167 97.7439 80.3332 97.9541 80.0426L98.0704 79.8812C98.3074 79.5475 98.5354 79.203 98.7635 78.8406L98.8887 78.6325C99.081 78.324 99.2644 78.0046 99.4656 77.653L99.5461 77.5059C99.7518 77.1328 99.953 76.7489 100.141 76.3685L100.212 76.2178C100.387 75.859 100.561 75.4895 100.745 75.0661L100.798 74.9477C100.977 74.5387 101.147 74.1225 101.317 73.6955C101.321 73.6811 101.33 73.6668 101.335 73.6524C101.5 73.2291 101.661 72.7949 101.822 72.3357L101.867 72.2065C102.176 71.3239 102.471 70.3874 102.743 69.4151C102.752 69.3864 102.766 69.3397 102.77 69.3146C103.039 68.3458 103.289 67.3448 103.522 66.2864C103.745 65.2817 103.946 64.2412 104.121 63.1935C104.121 63.172 104.13 63.1541 104.13 63.1325C106.545 48.8775 105.19 29.4379 97.9317 19.8581C92.0244 12.0614 79.0157 7.58722 62.2416 7.58722C50.9099 7.58722 39.9538 9.75435 32.924 13.389C30.1067 14.8457 27.5533 16.6253 25.3486 18.6597C25.3307 18.674 25.2771 18.7243 25.2592 18.7422C24.7002 19.2589 24.1502 19.8078 23.6135 20.3855L23.542 20.4608C23.0322 21.0098 22.5358 21.5839 22.0529 22.1902L22.0171 22.2369C19.799 25.014 17.9834 28.2503 16.6195 31.8526C16.6195 31.8526 16.6061 31.8849 16.6016 31.8957C16.3557 32.5523 16.1187 33.2232 15.8906 33.9337C15.676 34.6046 15.4747 35.2827 15.2869 35.968C13.0375 44.2347 12.9436 52.9965 12.8631 60.7286L12.8318 63.4698L12.7916 65.5544C12.7782 65.9921 12.7692 66.4263 12.7513 66.8927V67.0542C12.729 67.5027 12.7066 67.944 12.6843 68.3781L12.6708 68.6006C12.6485 69.0168 12.6172 69.4258 12.5859 69.8492L12.568 70.043C12.5367 70.4305 12.4964 70.8072 12.4562 71.1947L12.4383 71.3741C12.3981 71.7329 12.3489 72.0845 12.2952 72.4254C12.2952 72.4361 12.2729 72.5761 12.2729 72.5761C12.2237 72.8918 12.1655 73.2004 12.0984 73.5269C12.094 73.552 12.0806 73.6094 12.0761 73.6309C12.0135 73.9323 11.9419 74.2265 11.8614 74.5064C11.5529 75.5935 11.2041 76.6663 10.8195 77.6961C10.1308 79.5439 9.30352 81.3307 8.35995 83.0027C5.27436 88.4995 1.88467 91.1402 1.88467 91.1402C0.131692 92.439 -0.458596 94.4591 0.368702 96.253C1.196 98.0506 3.3112 99.2669 5.69471 99.3387C5.69471 99.3387 5.8557 99.3423 6.15979 99.3423C6.35208 99.3423 6.61592 99.3423 6.96025 99.3315L7.53265 99.3136C9.8625 99.2311 13.5339 98.9333 17.8001 97.9896C19.2177 97.6775 20.6174 97.3079 21.9589 96.8953V96.9096Z" fill="#C1E6D2"/>
<path d="M25.3978 93.3648C32.4008 91.2084 38.1874 87.7245 42.3463 83.1929C45.3827 83.6234 49.9127 84.2119 55.1224 84.6998L56.2001 84.7967C56.938 84.8649 57.6937 84.9259 58.454 84.9869C58.8341 85.0156 59.2187 85.0478 59.5988 85.0766C60.3679 85.134 61.146 85.1878 61.9331 85.238C63.1137 85.3134 64.3077 85.3779 65.5061 85.4353C67.1607 85.5107 68.7885 85.5609 70.3402 85.586C71.0557 85.5968 71.7712 85.604 72.4823 85.604H72.764C73.5734 85.604 74.3783 85.5932 75.1699 85.5753C76.8289 85.5394 78.4209 85.4676 79.9101 85.36C80.6926 85.3062 81.4618 85.238 82.222 85.1627C82.6021 85.1232 82.9822 85.0837 83.3579 85.0371C84.923 84.8505 86.4122 84.6173 87.7716 84.341C88.5005 84.1939 89.216 84.0253 89.8868 83.8495C90.969 83.566 91.9931 83.2431 92.9366 82.8843C93.2676 82.7587 93.5895 82.6296 93.9115 82.4896C95.2844 81.9012 96.5097 81.2123 97.5516 80.4481C97.5606 80.4409 97.5695 80.4337 97.5829 80.4266C97.9004 80.1933 98.2135 79.9386 98.5489 79.6444C98.6472 79.5619 98.7367 79.4757 98.8172 79.404C99.0855 79.16 99.3493 78.9088 99.5997 78.6469C99.6445 78.6003 99.7026 78.5465 99.7339 78.5106C100.016 78.2128 100.288 77.9006 100.561 77.5741L100.745 77.3445C100.964 77.0718 101.183 76.7883 101.393 76.4977L101.509 76.3363C101.746 76.0026 101.974 75.6581 102.202 75.2958L102.328 75.0877C102.52 74.7791 102.703 74.4598 102.904 74.1081L102.985 73.961C103.191 73.5879 103.392 73.204 103.58 72.8236L103.651 72.673C103.826 72.3142 104 71.9446 104.183 71.5212L104.237 71.4028C104.416 70.9938 104.586 70.5776 104.756 70.1506C104.76 70.1363 104.769 70.1219 104.774 70.1076C104.939 69.6842 105.1 69.25 105.261 68.7908L105.306 68.6616C105.614 67.779 105.91 66.8425 106.182 65.8702C106.191 65.8415 106.205 65.7948 106.209 65.7697C106.478 64.801 106.728 63.7999 106.96 62.7415C107.184 61.7368 107.385 60.6963 107.56 59.6486C107.56 59.6271 107.569 59.6092 107.569 59.5876C109.983 45.3327 108.628 25.8931 101.371 16.3132C95.4633 8.51653 82.4546 4.04234 65.6805 4.04234C54.3488 4.04234 43.3927 6.20947 36.3673 9.84408C33.5501 11.3008 30.9966 13.0804 28.792 15.1148C28.7741 15.1292 28.7204 15.183 28.7025 15.1973C28.1436 15.714 27.5935 16.263 27.0569 16.8406L26.9853 16.916C26.4755 17.4649 25.9792 18.039 25.4962 18.6454L25.4604 18.692C23.2424 21.4691 21.4268 24.7054 20.0629 28.3078C20.0629 28.3078 20.0495 28.34 20.045 28.3508C19.799 29.0074 19.562 29.6784 19.334 30.3888C19.1193 31.0597 18.9181 31.7378 18.7302 32.4231C16.4809 40.6898 16.387 49.4516 16.3065 57.1837L16.2752 59.9249L16.2349 62.0095C16.2215 62.4473 16.2126 62.8814 16.1947 63.3478V63.5093C16.1723 63.9578 16.15 64.3991 16.1276 64.8333L16.1142 65.0557C16.0918 65.4719 16.0605 65.8809 16.0292 66.3043L16.0113 66.4981C15.98 66.8856 15.9398 67.2623 15.8996 67.6498L15.8817 67.8292C15.8369 68.188 15.7922 68.5396 15.7386 68.8805C15.7386 68.8912 15.7162 69.0312 15.7162 69.0312C15.667 69.3469 15.6089 69.6555 15.5418 69.982C15.5373 70.0071 15.5239 70.0645 15.5194 70.086C15.4568 70.3874 15.3853 70.6816 15.3048 70.9615C14.9962 72.0486 14.6474 73.1215 14.2628 74.1512C13.5742 75.999 12.7469 77.7858 11.8033 79.4578C8.71771 84.9546 5.32802 87.5953 5.32802 87.5953C3.57505 88.8942 2.98476 90.9142 3.81206 92.7082C4.63935 94.5057 6.75455 95.722 9.13806 95.7938C9.13806 95.7938 9.29906 95.7974 9.60314 95.7974C9.79543 95.7974 10.0593 95.7974 10.4036 95.7866L10.976 95.7687C13.3059 95.6862 16.9773 95.3884 21.2435 94.4447C22.661 94.1326 24.0607 93.763 25.4023 93.3504L25.3978 93.3648Z" fill="white"/>
<path d="M39.5603 13.8339C15.9487 26.0401 24.7494 58.8951 21.0467 72.0199C17.344 85.1411 9.32141 91.0864 9.32141 91.0864C9.32141 91.0864 29.9949 91.5815 39.5647 77.9652C39.5647 77.9652 82.459 85.1447 93.5672 76.9749C104.675 68.8051 105.91 31.4185 96.3442 18.7889C86.7789 6.16281 53.4499 6.65795 39.5647 13.8375L39.5603 13.8339Z" fill="#C1E6D2"/>
<path d="M97.6366 60.7824C84.1852 65.8666 61.4188 65.271 49.4744 57.8654C39.2696 51.5326 30.6255 36.4811 32.3874 26.0832C32.9106 22.9904 33.7155 19.9334 34.7619 16.9267C17.2098 30.8803 24.4721 59.8818 21.0467 72.0163C17.344 85.1375 9.32141 91.0828 9.32141 91.0828C9.32141 91.0828 29.9949 91.5779 39.5647 77.9616C39.5647 77.9616 82.459 85.1411 93.5672 76.9713C97.6232 73.9897 100.36 67.1116 101.737 58.9705C100.414 59.6343 99.0542 60.2514 97.6366 60.786V60.7824Z" fill="#6DB790"/>
<path d="M46.1071 14.3721C44.4436 14.4618 42.9991 15.0645 41.671 15.8359C41.0405 16.2019 41.5726 16.9446 42.2792 16.6719C43.5671 16.1768 44.9578 15.9221 46.2994 15.5381C47.0462 15.3229 46.9836 14.3218 46.1026 14.3685L46.1071 14.3721Z" fill="white"/>
<path d="M35.6876 19.2697C35.3612 19.5029 35.0347 19.7325 34.7127 19.9657C34.3773 20.2025 34.1224 20.468 33.8452 20.7479C33.6395 20.9596 33.55 21.2107 33.7289 21.4619C33.9212 21.7274 34.3997 21.8494 34.7306 21.6736C35.1107 21.4691 35.4953 21.2825 35.8262 21.0242C36.175 20.7551 36.5238 20.486 36.8727 20.2205C37.6552 19.6141 36.4925 18.6992 35.6876 19.2697Z" fill="white"/>
<path d="M31.2605 26.9586C30.5897 27.8879 30.1961 28.8495 29.8205 29.8757C29.6327 30.3887 30.5405 30.6794 30.8759 30.2344C31.569 29.3195 32.1817 28.4333 32.5841 27.4107C32.8346 26.7721 31.6674 26.3989 31.2605 26.9622V26.9586Z" fill="white"/>
<path d="M28.5058 34.5867C28.0049 35.8891 27.8037 37.0695 28.0675 38.4186C28.1659 38.9138 29.1944 38.9066 29.2973 38.4186C29.5432 37.2489 29.6774 36.0685 29.9368 34.9024C30.1022 34.1561 28.792 33.8404 28.5058 34.5867Z" fill="white"/>
<path d="M26.1133 44.1917C25.9479 45.5192 25.8048 46.8001 25.8718 48.1348C25.8987 48.7233 27.0256 48.8955 27.1955 48.2784C27.5667 46.9149 27.7098 45.5802 27.8439 44.1917C27.9289 43.2947 26.2251 43.3162 26.1178 44.1917H26.1133Z" fill="white"/>
<path d="M27.4102 54.2811C27.1955 53.6101 26.0552 53.8074 25.9881 54.4353C25.8674 55.5476 25.9881 56.6742 25.9166 57.7865C25.8808 58.3498 26.9049 58.4252 27.1016 57.9157C27.5577 56.7316 27.8082 55.501 27.4102 54.2811Z" fill="white"/>
<path d="M25.7735 62.9029C25.7019 63.9757 25.4873 65.0844 25.2547 66.1429C25.1608 66.577 25.921 66.9143 26.2028 66.4622C26.9272 65.3033 27.2045 64.1982 27.2224 62.9029C27.2358 62.1495 25.8226 62.1602 25.7735 62.9029Z" fill="white"/>
<path d="M25.9792 72.3572C25.8763 71.6181 24.4408 71.5894 24.5124 72.3572C24.5884 73.2219 24.4229 74.0615 24.3827 74.9226C24.3603 75.4178 25.3442 75.6797 25.6035 75.1881C26.091 74.2768 26.1178 73.3368 25.9792 72.3572Z" fill="white"/>
<path d="M23.2513 80.0103C22.8041 79.9098 22.4285 80.1323 22.2764 80.4552C21.9589 81.1154 21.4939 81.7433 21.0422 82.3496C20.6576 82.8699 21.5162 83.3471 22.0439 82.9704C22.8891 82.3712 23.4034 81.6321 23.8058 80.7961C23.9623 80.4732 23.6359 80.0964 23.2513 80.0139V80.0103Z" fill="white"/>
<path d="M19.5978 85.3671C19.3205 85.1447 18.927 85.1806 18.6453 85.3671C17.9655 85.8228 17.3618 86.2928 16.937 86.9243C16.6598 87.3369 17.2322 87.8536 17.7643 87.5881C18.5782 87.1826 19.1416 86.6373 19.7051 86.0237C19.8795 85.83 19.799 85.5286 19.5978 85.3707V85.3671Z" fill="white"/>
<path d="M25.8718 84.3984C24.5258 84.7536 23.4481 85.2451 22.4151 86.0309C21.9589 86.3789 22.5492 86.9853 23.0858 86.727C24.1636 86.2067 25.1966 85.6613 26.243 85.1088C26.6812 84.8756 26.4129 84.2585 25.8718 84.3984Z" fill="white"/>
<path d="M32.4276 79.2927C31.6048 79.9385 30.8043 80.6274 29.8921 81.1943C29.2258 81.6069 30.1112 82.5254 30.7909 82.1307C31.8597 81.5136 32.7764 80.8319 33.3622 79.8739C33.6529 79.3967 32.9285 78.9016 32.4276 79.2963V79.2927Z" fill="white"/>
<path d="M37.5882 74.1512C37.378 73.6058 36.4657 73.5018 36.0901 73.9933C35.7458 74.449 35.6519 74.8903 35.2539 75.3245C34.6233 76.0169 36.0096 76.8458 36.7162 76.2322C37.3646 75.6689 37.8833 74.9298 37.5882 74.1512Z" fill="white"/>
<path d="M47.6991 74.8509C46.4246 74.3629 45.0607 74.1799 43.6878 73.9395C42.5251 73.7386 42.0332 75.1666 43.1959 75.3675C44.5688 75.6079 45.9327 75.9165 47.3458 75.895C47.9987 75.8842 48.3565 75.102 47.6991 74.8509Z" fill="white"/>
<path d="M56.8396 75.4428C55.8111 75.2419 54.796 75.1881 53.7406 75.145C53.0027 75.1163 52.8194 76.1066 53.5662 76.1927C54.6171 76.3111 55.6233 76.4224 56.6831 76.3829C57.336 76.3578 57.5149 75.5756 56.8396 75.4428Z" fill="white"/>
<path d="M66.9237 75.755C65.3093 75.2742 63.5877 75.4357 61.9197 75.6294C61.1997 75.7155 61.3965 76.6233 62.0851 76.6233C63.6458 76.6233 65.202 76.835 66.7582 76.7345C67.4693 76.6878 67.59 75.9523 66.9237 75.755Z" fill="white"/>
<path d="M75.0894 75.5002C73.7568 75.4285 72.5136 75.5218 71.1988 75.6868C70.2955 75.798 70.537 76.939 71.409 76.939C72.7327 76.939 73.9803 76.8529 75.2772 76.6161C76.0955 76.469 75.8541 75.5397 75.0894 75.5002Z" fill="white"/>
<path d="M83.4786 74.1189C82.6468 74.2768 81.8151 74.4382 80.9833 74.5961C79.8161 74.8185 80.3617 76.3506 81.4752 76.0241C82.2802 75.7909 83.0851 75.5541 83.89 75.3209C84.8202 75.0482 84.4624 73.9287 83.4786 74.1189Z" fill="white"/>
<path d="M92.0557 69.6232C91.0763 70.4699 90.1104 71.3562 89.0148 72.106C88.2054 72.6586 89.3591 73.5305 90.1641 73.0282C91.3983 72.2567 92.4134 71.3992 93.0753 70.2547C93.3659 69.7488 92.5923 69.1639 92.0601 69.6268L92.0557 69.6232Z" fill="white"/>
<path d="M95.8076 63.1935C95.3649 64.008 94.9445 64.826 94.542 65.6549C94.0993 66.5662 96.0535 67.0326 96.3889 66.0639C96.6662 65.2638 96.9255 64.4637 97.1626 63.6528C97.3459 63.0249 96.1564 62.5513 95.8076 63.1935Z" fill="white"/>
<path d="M56.6831 12.1296C55.185 12.2265 53.754 12.5853 52.323 12.9333C51.3974 13.1593 51.7864 14.2214 52.7165 14.0814C54.1878 13.859 55.6546 13.6437 57.0364 13.1737C57.6759 12.9548 57.3494 12.0865 56.6831 12.1296Z" fill="white"/>
<path d="M67.4245 11.5376C66.396 11.29 65.3675 11.1429 64.2942 11.0712C63.4311 11.0138 63.2746 12.1045 64.093 12.2695C65.1349 12.4776 66.1679 12.5961 67.2412 12.6283C68.0372 12.6535 68.1579 11.717 67.4245 11.5412V11.5376Z" fill="white"/>
<path d="M80.9967 13.5038C79.1275 12.657 77.2225 12.4274 75.0894 12.5673C74.2978 12.6176 74.28 13.5504 75.0894 13.5648C76.9362 13.6007 78.8055 13.9128 80.5942 14.2644C81.1577 14.3757 81.5154 13.7406 80.9922 13.5038H80.9967Z" fill="white"/>
<path d="M89.9002 17.5438C88.6571 16.6576 87.3468 15.9364 85.9516 15.2116C85.2495 14.8457 84.6592 15.714 85.3076 16.0979C86.6089 16.8621 87.8745 17.5689 89.3055 18.1681C89.784 18.3691 90.3385 17.8596 89.9002 17.5474V17.5438Z" fill="white"/>
<path d="M95.8747 25.1934C95.5303 24.2318 95.1144 23.3097 94.6494 22.3804C94.2827 21.6449 92.9948 22.079 93.4017 22.8002C93.916 23.7115 94.4571 24.5906 95.0831 25.4589C95.3291 25.7997 96.0088 25.5701 95.8702 25.1934H95.8747Z" fill="white"/>
<path d="M98.2358 32.3873C98.048 31.6912 97.9138 30.9198 97.4711 30.2955C97.3727 30.1555 97.0731 30.1771 97.0284 30.3421C96.8585 30.9557 96.9882 31.5871 97.0418 32.2114C97.1134 32.9793 97.2386 33.704 97.4845 34.4467C97.6366 34.9168 98.5802 34.8271 98.5533 34.3319C98.5131 33.6646 98.4147 33.0403 98.2358 32.3873Z" fill="white"/>
<path d="M99.2331 39.4807C98.9826 38.6411 97.4354 38.9999 97.6366 39.8359C97.9362 41.0773 98.0078 42.3439 98.1732 43.6033C98.2537 44.2096 99.4835 44.468 99.6132 43.7611C99.8859 42.3008 99.6624 40.9159 99.2331 39.4843V39.4807Z" fill="white"/>
<path d="M99.8603 48.7197C99.8603 47.9878 98.446 47.9878 98.4415 48.7197C98.4371 49.753 98.3968 50.7684 98.625 51.791C98.719 52.2108 99.5828 52.2108 99.6723 51.791C99.9006 50.7684 99.8603 49.753 99.8558 48.7197H99.8603Z" fill="white"/>
<path d="M98.4102 55.4184C98.2895 56.3226 98.0435 57.2662 98.1866 58.174C98.2806 58.7696 99.3046 58.9598 99.5416 58.3211C99.8904 57.3954 99.8412 56.38 99.9128 55.4184C99.9709 54.6327 98.5131 54.6614 98.4102 55.4184Z" fill="white"/>
<path d="M12.0448 1.73524C11.222 1.26163 10.2829 2.3129 10.985 2.85469C13.677 4.93571 16.3154 7.16383 19.1685 9.09775C19.8885 9.58571 21.2077 8.9327 20.5771 8.23305C18.3144 5.70353 15.193 3.53999 12.0403 1.73524H12.0448Z" fill="white"/>
<path d="M14.4998 12.1188C13.4355 11.8389 12.2639 11.9789 11.1593 12.0183C10.332 12.047 10.3499 12.9871 11.1593 13.0373C12.2639 13.1019 13.4176 13.2705 14.4998 13.0194C15.0767 12.883 15.0454 12.2659 14.4998 12.1224V12.1188Z" fill="white"/>
<path d="M25.21 1.33343C25.9031 2.09767 26.4979 3.05925 26.802 3.97418C26.9988 4.56978 28.2554 4.64872 28.3806 3.97418C28.4924 3.36422 28.5773 2.70763 28.3448 2.10844C28.0675 1.39802 27.5846 0.809592 26.9585 0.264222C26.1223 -0.467723 24.4632 0.518966 25.21 1.33702V1.33343Z" fill="white"/>
<path d="M122.795 76.9605C123.788 77.1148 124.101 75.8483 123.18 75.5899C119.656 74.5889 116.105 73.4407 112.506 72.6299C111.598 72.4253 110.735 73.4587 111.669 73.8856C115.037 75.4356 118.994 76.3649 122.795 76.9605Z" fill="white"/>
<path d="M115.198 68.3279C116.311 68.2274 117.304 67.7108 118.288 67.3089C119.026 67.0075 118.525 66.1572 117.76 66.3832C116.723 66.6918 115.582 66.9214 114.733 67.5099C114.281 67.822 114.625 68.3781 115.198 68.3279Z" fill="white"/>
<path d="M111.021 81.7038C109.992 81.241 108.955 80.5629 108.208 79.8309C107.721 79.3537 106.536 79.6982 106.773 80.3583C106.987 80.9504 107.247 81.5783 107.77 82.0447C108.391 82.6008 109.134 82.9776 109.983 83.2646C111.124 83.6521 112.121 82.2026 111.021 81.7074V81.7038Z" fill="white"/>
<path d="M55.7447 57.8517L50.7437 59.7881L36.5623 49.155L36.4481 49.1993C36.736 49.7584 37.0215 50.3233 37.3047 50.8941C37.5878 51.4648 37.8709 52.0355 38.1541 52.6062C38.4335 53.1686 38.7148 53.7352 38.998 54.3059L42.7979 62.8649L39.2819 64.2263L31.2071 46.0386L36.17 44.1168L50.2779 54.618L50.3667 54.5836C50.0994 54.0262 49.8297 53.4746 49.5577 52.9288C49.2856 52.3829 49.0135 51.8371 48.7414 51.2912C48.4778 50.7421 48.2141 50.193 47.9505 49.6439L44.1285 41.0352L47.6698 39.664L55.7447 57.8517Z" fill="#520F0D"/>
<path d="M59.6843 39.7208C60.9959 39.2129 62.236 39.0243 63.4047 39.1549C64.5697 39.2773 65.6183 39.7071 66.5506 40.4444C67.4828 41.1817 68.249 42.2263 68.8492 43.5781L69.6666 45.4193L60.515 48.9629C61.0323 50.0164 61.7319 50.732 62.6136 51.1098C63.5001 51.4761 64.4892 51.4479 65.5808 51.0252C66.4862 50.6746 67.275 50.2622 67.9471 49.7882C68.6192 49.3141 69.2719 48.7406 69.9053 48.0677L71.2088 51.0036C70.6574 51.6156 70.0317 52.1495 69.3316 52.6052C68.64 53.0577 67.7484 53.4953 66.6568 53.9179C65.2352 54.4684 63.8602 54.6995 62.5319 54.6113C61.212 54.5197 60.0052 54.0686 58.9114 53.2578C57.826 52.4437 56.928 51.2363 56.2174 49.6357C55.4957 48.0101 55.1747 46.5502 55.2545 45.2557C55.3391 43.9498 55.7653 42.8323 56.5329 41.9033C57.2968 40.966 58.3473 40.2385 59.6843 39.7208ZM60.9082 42.4105C60.1551 42.7021 59.6339 43.181 59.3445 43.847C59.0636 44.5098 59.1096 45.3618 59.4827 46.4031L64.9153 44.2995C64.6564 43.7389 64.3279 43.2781 63.9296 42.9171C63.5399 42.5529 63.0891 42.3193 62.5772 42.2162C62.0738 42.1098 61.5175 42.1746 60.9082 42.4105Z" fill="#520F0D"/>
<path d="M87.147 45.6923L83.8958 41.2508C83.7077 40.9835 83.4208 40.594 83.035 40.0825C82.6456 39.5627 82.2268 39.0104 81.7789 38.4258C81.3357 37.8296 80.923 37.2799 80.5409 36.7766C80.1673 36.2701 79.8938 35.8998 79.7204 35.6656L79.6062 35.7098C79.6611 35.9899 79.7484 36.4323 79.8682 37.0371C79.988 37.6419 80.1129 38.303 80.243 39.0205C80.3816 39.7347 80.512 40.4082 80.6344 41.0412C80.7531 41.6659 80.8448 42.1406 80.9097 42.4654L81.9048 47.7221L77.7415 49.3342L67.5303 36.9889L71.3889 35.4948L75.7603 41.0187C76.0618 41.4074 76.3958 41.8806 76.7625 42.4384C77.1255 42.9879 77.4684 43.5258 77.7912 44.052C78.1189 44.5666 78.3756 44.9774 78.5616 45.2845L78.6631 45.2452C78.5732 44.9981 78.4653 44.6657 78.3394 44.2479C78.2218 43.8269 78.1031 43.3918 77.983 42.9426C77.8676 42.4819 77.7641 42.07 77.6724 41.707C77.5854 41.3325 77.5313 41.0765 77.5099 40.939L76.3011 33.5927L80.5659 31.9413L85.1891 37.9655C85.3551 38.183 85.6007 38.535 85.9257 39.0215C86.2592 39.5047 86.5874 40.0093 86.9103 40.5355C87.2294 41.0534 87.4632 41.4683 87.6116 41.7802L87.7132 41.7408C87.6218 41.4458 87.4951 41.004 87.333 40.4156C87.1709 39.8271 87.0105 39.2089 86.8517 38.5609C86.6977 37.9013 86.5842 37.3329 86.5112 36.8558L85.4781 30.0392L89.2733 28.5697L91.361 44.0605L87.147 45.6923Z" fill="#520F0D"/>
</g>
</svg>
