<svg width="24" height="24" viewBox="0 0 24 24" fill="none" xmlns="http://www.w3.org/2000/svg">
<path d="M6.99969 19H4.99969V6.12C4.99969 5.49 5.43719 5 5.99969 5C6.56219 5 6.99969 5.49 6.99969 6.12V19Z" stroke="#028577" stroke-width="1.5" stroke-miterlimit="10" stroke-linecap="round" stroke-linejoin="round"/>
<path d="M18.9997 19H16.9997V6.12C16.9997 5.49 17.4372 5 17.9997 5C18.5622 5 18.9997 5.49 18.9997 6.12V19Z" stroke="#028577" stroke-width="1.5" stroke-miterlimit="10" stroke-linecap="round" stroke-linejoin="round"/>
<path d="M14.2402 18.1591H7.24097V6.19043H14.2402C15.6401 6.19043 16.7599 7.31031 16.7599 8.71015V15.6394C16.7599 17.0392 15.6401 18.1591 14.2402 18.1591Z" stroke="#028577" stroke-width="1.5" stroke-miterlimit="10" stroke-linecap="round" stroke-linejoin="round"/>
<path d="M7.52167 10.1802H16.4107" stroke="#028577" stroke-width="1.5" stroke-miterlimit="10" stroke-linecap="round" stroke-linejoin="round"/>
<path d="M7.52167 14.1694H16.4107" stroke="#028577" stroke-width="1.5" stroke-miterlimit="10" stroke-linecap="round" stroke-linejoin="round"/>
</svg>
