<svg width="13" height="16" viewBox="0 0 13 16" fill="none" xmlns="http://www.w3.org/2000/svg">
<path d="M2.76383 12.9032C2.58984 13.2473 2.24184 15.2258 2.24184 15.2258C2.24184 15.2258 1.71762 15.6134 1.45885 16C1.54585 15.2258 1.77204 13.471 1.98084 12.6452C2.24184 11.6129 3.80782 9.03226 4.59081 8C6.192 5.88907 8.76677 4.90323 10.5937 3.09677C8.40247 4.39677 7.32184 4.55539 5.11281 6.19355C4.27762 6.8129 1.98084 9.29032 1.45885 12.129C0.414861 10.8387 -0.942325 7.89677 0.936854 5.41936C3.28583 2.32258 9.81075 1.54839 11.1157 0.774194L12.4207 0C12.4207 1.03226 12.3685 3.35484 12.1597 5.41936C11.8987 8 10.7814 11.7177 7.98377 12.9032C6.1568 13.6774 4.15582 13.2473 2.76383 12.9032Z" fill="#028577"/>
</svg>
