<svg width="20" height="22" viewBox="0 0 20 22" fill="none" xmlns="http://www.w3.org/2000/svg">
<g id="Group 1465">
<path id="Vector" d="M11.0738 3.10808C12.6713 4.70562 12.6713 7.29573 11.0738 8.89327M5.2886 8.89324C3.69106 7.29571 3.69106 4.70559 5.2886 3.10806M3.3602 10.8217C0.697642 8.15911 0.697642 3.84225 3.3602 1.17969M13.0022 1.17972C15.6647 3.84228 15.6647 8.15914 13.0022 10.8217M14.7105 13.1081C16.308 14.7056 16.308 17.2957 14.7105 18.8933M8.92531 18.8932C7.32778 17.2957 7.32778 14.7056 8.92531 13.1081M6.99692 20.8217C4.33436 18.1591 4.33436 13.8422 6.99692 11.1797M16.6389 11.1797C19.3015 13.8423 19.3015 18.1591 16.6389 20.8217M9.54477 6.00068C9.54477 6.75376 8.93427 7.36426 8.18119 7.36426C7.4281 7.36426 6.81761 6.75376 6.81761 6.00068C6.81761 5.24759 7.4281 4.63709 8.18119 4.63709C8.93427 4.63709 9.54477 5.24759 9.54477 6.00068ZM13.1815 16.0007C13.1815 16.7538 12.571 17.3643 11.8179 17.3643C11.0648 17.3643 10.4543 16.7538 10.4543 16.0007C10.4543 15.2476 11.0648 14.6371 11.8179 14.6371C12.571 14.6371 13.1815 15.2476 13.1815 16.0007Z" stroke="#308F85" stroke-linecap="round" stroke-linejoin="round"/>
</g>
</svg>
