<svg width="22" height="22" viewBox="0 0 22 22" fill="none" xmlns="http://www.w3.org/2000/svg">
<g id="Soil-Spade" clip-path="url(#clip0_41224_1744)">
<rect width="22" height="22" fill="none"/>
<path id="Vector" d="M8.79883 8.8418C8.58587 9.06557 8.36242 9.28412 8.13867 9.5C7.88931 9.74059 7.64119 9.98074 7.4082 10.2305C7.00072 10.6673 6.64329 11.1309 6.41406 11.6748L6.32422 11.9131C6.02033 12.817 6.06842 13.7807 6.36328 14.6885L6.50391 15.0605C6.53528 15.1382 6.567 15.2131 6.59375 15.2715C6.6072 15.3008 6.61941 15.3252 6.62891 15.3428C6.64034 15.3639 6.64336 15.366 6.63867 15.3613C6.63475 15.3574 6.63439 15.3572 6.64258 15.3623C6.64928 15.3664 6.6588 15.3718 6.6709 15.3779C6.69504 15.3902 6.7256 15.405 6.75781 15.418C6.79006 15.431 6.82219 15.4423 6.84863 15.4502C6.87971 15.4595 6.89028 15.4598 6.88672 15.46L6.93652 15.4492C6.9574 15.4426 6.98336 15.4335 7.01465 15.4209C7.06817 15.3993 7.13949 15.3678 7.20508 15.3555L7.5 15.3066C8.16518 15.2141 8.68786 15.2764 9.36816 15.5273L9.50293 15.584C9.54116 15.6023 9.57347 15.6197 9.60156 15.6357C9.66144 15.6699 9.68816 15.688 9.71973 15.7002C9.76631 15.7182 9.82774 15.7249 10.0664 15.6523L10.3057 15.5684C10.8546 15.3496 11.3427 14.9777 11.7861 14.5762L12.5391 13.8486C12.7019 13.6874 12.8602 13.5285 12.9785 13.4043C13.0376 13.3422 13.086 13.2895 13.1201 13.25C13.1293 13.2394 13.136 13.2288 13.1426 13.2207C13.1352 13.2099 13.1264 13.1962 13.1143 13.1807C13.072 13.1267 13.0076 13.0542 12.9268 12.9678C12.7657 12.7956 12.5449 12.5749 12.3154 12.3496C12.0853 12.1237 11.8495 11.8962 11.6562 11.707C11.5232 11.5768 11.4095 11.4613 11.334 11.3818C10.9598 11.7424 10.5987 12.1186 10.2305 12.4932C9.83926 12.8911 9.43965 13.2849 9.01172 13.6445C8.99952 13.6548 8.98526 13.6625 8.96973 13.666C8.7359 13.7189 8.52525 13.6473 8.40625 13.4902C8.28697 13.3326 8.27618 13.1104 8.39551 12.8965L8.41211 12.875L10.6191 10.6621L8.79883 8.8418ZM17.3789 1.95801C17.3547 1.9782 17.3233 2.00779 17.2861 2.04395C17.212 2.11596 17.1197 2.21164 17.0273 2.31152C16.9352 2.41124 16.8437 2.51416 16.7705 2.59961L16.6299 2.77441C15.5888 4.47158 17.5727 6.41762 19.249 5.35547L19.4219 5.22168C19.496 5.15933 19.5825 5.08273 19.6689 5.00293C19.754 4.92439 19.8368 4.84455 19.9043 4.77539C19.9735 4.70445 20.0218 4.65021 20.042 4.62012L20.0527 4.60449C20.0533 4.60365 20.0532 4.60233 20.0537 4.60156C19.9448 4.50612 19.7538 4.31708 19.5293 4.08496C19.2669 3.81359 18.9448 3.47533 18.6318 3.15039C18.3178 2.82437 18.01 2.51001 17.7695 2.28027C17.649 2.16514 17.5472 2.07296 17.4707 2.01172C17.435 1.98314 17.4069 1.96345 17.3867 1.95117C17.3842 1.95319 17.3817 1.95563 17.3789 1.95801ZM21.2529 4.7334C21.2529 4.75896 21.2432 4.78321 21.2256 4.80176C20.9186 5.12407 20.6136 5.48674 20.2773 5.79492C19.9801 6.06731 19.6502 6.30579 19.2539 6.45605L19.0801 6.51465C18.2446 6.76311 17.3362 6.63566 16.6152 6.13672L12.0371 10.6758L12.04 10.6924L14.2031 12.8525L14.2139 12.8652C14.3004 12.9868 14.356 13.0984 14.3506 13.2197C14.3465 13.3094 14.3094 13.3917 14.2539 13.4756L14.1934 13.5605C13.9852 13.8307 13.574 14.2583 13.1514 14.6689C12.8337 14.9776 12.5056 15.2798 12.2471 15.5039L12.0146 15.6992C11.5969 16.0347 11.1377 16.2708 10.668 16.4951L11.0898 17.1582C11.1253 17.1419 11.1731 17.1144 11.2246 17.0811C11.2755 17.0482 11.327 17.0123 11.374 16.9805C11.418 16.9506 11.4629 16.9201 11.4941 16.9043H11.4951L11.8232 16.7559C13.4573 16.0976 15.2295 16.5431 16.4453 17.8184C18.561 17.1163 20.7218 18.548 21.25 20.6133C21.2521 20.6214 21.2529 20.6303 21.2529 20.6387V21.1543C21.2527 21.2092 21.2082 21.2537 21.1533 21.2539H12.665C12.6511 21.2539 12.6368 21.2508 12.624 21.2451C12.4686 21.1762 12.3521 21.0412 12.3057 20.8877C12.2586 20.7316 12.2842 20.5547 12.415 20.4141V20.4131L12.4707 20.3701C12.4908 20.3566 12.5149 20.3413 12.5381 20.3271C12.5612 20.3131 12.5848 20.2994 12.6035 20.2891C12.6128 20.284 12.6219 20.2783 12.6299 20.2744C12.6337 20.2726 12.6393 20.2706 12.6445 20.2686C12.6471 20.2676 12.6508 20.2659 12.6553 20.2646C12.6583 20.2638 12.67 20.2607 12.6846 20.2607H20.0449C19.5845 19.3022 18.5238 18.5673 17.4492 18.6348H17.4482C17.2546 18.647 17.0791 18.6963 16.9053 18.7529C16.7776 18.7945 16.6467 18.8418 16.5137 18.875L16.3799 18.9033C16.263 18.9226 16.1629 18.9123 16.0752 18.877C15.9883 18.8418 15.9203 18.7846 15.8643 18.7227C15.8094 18.662 15.7611 18.591 15.7158 18.5273C15.6924 18.4945 15.6693 18.4629 15.6455 18.4326L15.5703 18.3467C14.68 17.4478 13.2686 17.2019 12.1191 17.7109L11.8926 17.8232C11.7831 17.8835 11.641 18.0017 11.4951 18.1221C11.4242 18.1806 11.3525 18.2389 11.2881 18.2871C11.2568 18.3105 11.2252 18.333 11.1943 18.3525L11.1055 18.3994C10.9671 18.4554 10.8466 18.4704 10.7422 18.4404C10.6363 18.41 10.564 18.3391 10.5127 18.2598C10.4626 18.1822 10.4273 18.0897 10.3975 18.0059L10.3086 17.7715C9.34587 15.7872 6.68142 15.7567 5.78809 17.6572L5.70801 17.8467C5.68683 17.9021 5.66939 17.9671 5.65137 18.04C5.63387 18.1108 5.6157 18.1897 5.5918 18.2646C5.55047 18.3941 5.4865 18.5336 5.36035 18.6211L5.30273 18.6553C5.17536 18.7183 5.04384 18.7096 4.93164 18.6904C4.87668 18.681 4.81872 18.6673 4.76953 18.6572L4.62695 18.6357C3.48372 18.5719 2.44459 19.2498 1.9541 20.2598H9.3125C9.32707 20.2598 9.33875 20.2638 9.3418 20.2646C9.34634 20.266 9.35003 20.2676 9.35254 20.2686C9.3578 20.2706 9.36336 20.2726 9.36719 20.2744C9.37507 20.2782 9.3844 20.283 9.39355 20.2881C9.41232 20.2984 9.43582 20.3121 9.45898 20.3262C9.48218 20.3403 9.50625 20.3556 9.52637 20.3691C9.54227 20.3798 9.56715 20.3971 9.58203 20.4131L9.62598 20.4678C9.71799 20.5981 9.73266 20.751 9.69141 20.8877C9.64496 21.0413 9.52792 21.1763 9.37207 21.2451C9.35947 21.2506 9.34578 21.2529 9.33203 21.2529H0.845703C0.790475 21.2529 0.746094 21.2085 0.746094 21.1533V20.6377C0.7461 20.6294 0.746997 20.6213 0.749023 20.6133C1.20209 18.8406 2.87234 17.5085 4.73633 17.6318C4.9427 16.9924 5.34909 16.4358 5.85938 16.0117C5.13228 14.5684 4.88264 12.8695 5.49316 11.3213L5.6123 11.0479C5.91119 10.4246 6.3493 9.89769 6.82422 9.4082C7.09549 9.12862 7.38134 8.85939 7.66016 8.5918C7.93965 8.32355 8.21322 8.05649 8.46484 7.77832L8.47559 7.76758L8.55078 7.71582C8.70625 7.62693 8.89045 7.62687 9.0459 7.71582L9.12109 7.76758L9.12891 7.77441L11.3057 9.95801L11.3223 9.96094L15.8623 5.38184C15.241 4.47996 15.195 3.30017 15.7305 2.34277L15.8604 2.14062C15.9976 1.94961 16.154 1.78638 16.2939 1.61328L16.3037 1.60352L17.1982 0.772461L17.2295 0.75293C17.2411 0.748295 17.2538 0.746094 17.2666 0.746094H17.5039L17.543 0.753906C17.5551 0.759017 17.5661 0.766185 17.5752 0.775391L21.2236 4.4248C21.2424 4.44352 21.2529 4.46865 21.2529 4.49512V4.7334Z" fill="#308F85" stroke="#308F85" stroke-width="0.2" stroke-linejoin="round"/>
<path id="Vector_2" d="M10.9658 20.2627C11.0744 20.254 11.1725 20.2778 11.2549 20.3262C11.3635 20.39 11.4376 20.4934 11.4717 20.6074C11.5401 20.8369 11.4501 21.1194 11.1582 21.2461L11.1396 21.2539H10.8623L10.8447 21.2471C10.6252 21.1617 10.5099 20.9536 10.5059 20.7549C10.5019 20.5535 10.6127 20.348 10.8535 20.2832L10.9658 20.2627Z" fill="#308F85" stroke="#308F85" stroke-width="0.2"/>
</g>
<defs>
<clipPath id="clip0_41224_1744">
<rect width="22" height="22" fill="white"/>
</clipPath>
</defs>
</svg>
