<svg width="22" height="22" viewBox="0 0 22 22" fill="none" xmlns="http://www.w3.org/2000/svg">
<path d="M11.5133 5.57366C12.1438 4.56636 12.5907 3.45528 12.8333 2.29199C13.2917 4.58366 14.6667 6.78366 16.5 8.25033C18.3333 9.71699 19.25 11.4587 19.25 13.292C19.2552 14.5591 18.8841 15.7992 18.1837 16.8552C17.4833 17.9111 16.4852 18.7353 15.3158 19.2233C14.1464 19.7113 12.8585 19.841 11.6152 19.5962C10.372 19.3513 9.22949 18.7428 8.3325 17.8478M6.41667 14.4653C8.43333 14.4653 10.0833 12.7878 10.0833 10.7528C10.0833 9.68949 9.56083 8.68116 8.51583 7.82866C7.47083 6.97616 6.6825 5.71116 6.41667 4.38199C6.15083 5.71116 5.37167 6.98533 4.3175 7.82866C3.26333 8.67199 2.75 9.69866 2.75 10.7528C2.75 12.7878 4.4 14.4653 6.41667 14.4653Z" stroke="#308F85" stroke-width="1.375" stroke-linecap="round" stroke-linejoin="round"/>
</svg>
