<svg width="48" height="48" viewBox="0 0 48 48" fill="none" xmlns="http://www.w3.org/2000/svg">
<path d="M22.7398 13.0576C22.6033 13.0576 22.4699 13.0981 22.3565 13.1739C22.243 13.2497 22.1546 13.3575 22.1023 13.4836C22.0501 13.6096 22.0364 13.7484 22.0631 13.8822C22.0897 14.0161 22.1554 14.139 22.2519 14.2355C22.3484 14.332 22.4713 14.3977 22.6052 14.4244C22.739 14.451 22.8778 14.4373 23.0039 14.3851C23.1299 14.3329 23.2377 14.2444 23.3135 14.131C23.3893 14.0175 23.4298 13.8841 23.4298 13.7476C23.4298 13.657 23.412 13.5673 23.3773 13.4836C23.3426 13.3999 23.2918 13.3238 23.2277 13.2597C23.1636 13.1956 23.0876 13.1448 23.0039 13.1101C22.9201 13.0755 22.8304 13.0576 22.7398 13.0576V13.0576Z" fill="#028577"/>
<path d="M25.2598 14.4376C25.3963 14.4376 25.5297 14.3972 25.6432 14.3213C25.7566 14.2455 25.8451 14.1378 25.8973 14.0117C25.9495 13.8856 25.9632 13.7469 25.9366 13.613C25.9099 13.4792 25.8442 13.3562 25.7477 13.2597C25.6512 13.1632 25.5283 13.0975 25.3944 13.0709C25.2606 13.0443 25.1219 13.0579 24.9958 13.1101C24.8697 13.1624 24.7619 13.2508 24.6861 13.3643C24.6103 13.4777 24.5698 13.6111 24.5698 13.7476C24.5698 13.8382 24.5877 13.928 24.6223 14.0117C24.657 14.0954 24.7078 14.1714 24.7719 14.2355C24.836 14.2996 24.9121 14.3504 24.9958 14.3851C25.0795 14.4198 25.1692 14.4376 25.2598 14.4376V14.4376Z" fill="#028577"/>
<path d="M24.0001 0.120117C19.2771 0.120117 14.6602 1.52065 10.7331 4.14462C6.80606 6.76859 3.74531 10.4981 1.93788 14.8616C0.130464 19.2251 -0.34244 24.0266 0.578975 28.6589C1.50039 33.2911 3.77474 37.5461 7.11442 40.8858C10.4541 44.2255 14.7091 46.4999 19.3414 47.4213C23.9736 48.3427 28.7751 47.8698 33.1386 46.0624C37.5021 44.2549 41.2317 41.1942 43.8556 37.2671C46.4796 33.3401 47.8801 28.7231 47.8801 24.0001C47.8742 17.6686 45.3563 11.5981 40.8793 7.12099C36.4022 2.64391 30.3317 0.126074 24.0001 0.120117V0.120117ZM24.0001 46.3801C19.5738 46.3801 15.2468 45.0676 11.5665 42.6084C7.88609 40.1493 5.01759 36.654 3.3237 32.5646C1.62981 28.4752 1.18662 23.9753 2.05015 19.634C2.91369 15.2927 5.04518 11.305 8.17508 8.17507C11.305 5.04517 15.2927 2.91368 19.634 2.05014C23.9753 1.18661 28.4752 1.6298 32.5646 3.32369C36.654 5.01758 40.1493 7.88608 42.6084 11.5665C45.0676 15.2468 46.3801 19.5738 46.3801 24.0001C46.3742 29.9338 44.0144 35.6228 39.8186 39.8186C35.6228 44.0144 29.9338 46.3742 24.0001 46.3801V46.3801Z" fill="#028577"/>
<path d="M23.9999 4.25994C19.5015 4.24087 15.1349 5.77768 11.6399 8.60994C11.5586 8.67563 11.4919 8.75761 11.4441 8.85061C11.3963 8.9436 11.3685 9.04556 11.3624 9.14994C11.3567 9.25489 11.3731 9.35986 11.4106 9.45806C11.4481 9.55625 11.5058 9.64547 11.5799 9.71994L38.2499 36.4199C38.32 36.4894 38.4031 36.5444 38.4945 36.5818C38.5859 36.6191 38.6837 36.638 38.7824 36.6374V36.6374C38.8881 36.6324 38.9915 36.6051 39.0859 36.5573C39.1802 36.5094 39.2634 36.4422 39.3299 36.3599C41.6568 33.4624 43.1186 29.9668 43.5469 26.2753C43.9753 22.5838 43.353 18.8464 41.7514 15.4929C40.1499 12.1395 37.6343 9.3062 34.494 7.31903C31.3537 5.33186 27.7162 4.2715 23.9999 4.25994V4.25994ZM20.9099 14.7599C20.8893 14.3408 20.954 13.9219 21.1002 13.5286C21.2463 13.1353 21.4709 12.7758 21.7602 12.4719C22.0495 12.1679 22.3976 11.926 22.7832 11.7607C23.1689 11.5953 23.5841 11.5101 24.0037 11.5101C24.4233 11.5101 24.8385 11.5953 25.2242 11.7607C25.6098 11.926 25.9579 12.1679 26.2472 12.4719C26.5365 12.7758 26.761 13.1353 26.9072 13.5286C27.0534 13.9219 27.1181 14.3408 27.0974 14.7599C27.0915 14.916 27.0739 15.0715 27.0449 15.2249C26.09 14.7854 25.0512 14.5578 23.9999 14.5578C22.9487 14.5578 21.9099 14.7854 20.9549 15.2249C20.9269 15.0639 20.9119 14.9009 20.9099 14.7374V14.7599ZM31.7774 27.7949L20.8949 16.9124C21.8312 16.3428 22.9041 16.037 23.9999 16.0274C28.3124 16.0274 31.8224 20.7974 31.8224 26.6624C31.8224 27.0374 31.8074 27.4199 31.7774 27.7949ZM38.7374 34.7549L33.1199 29.1374C33.2513 28.3239 33.319 27.5015 33.3224 26.6774L35.7224 27.5174L36.1574 31.0949C36.1795 31.2779 36.2682 31.4463 36.4065 31.568C36.5449 31.6897 36.7232 31.7563 36.9074 31.7549H36.9974C37.0962 31.7438 37.1918 31.7131 37.2786 31.6648C37.3654 31.6164 37.4418 31.5512 37.5032 31.473C37.5646 31.3949 37.6099 31.3053 37.6363 31.2095C37.6628 31.1137 37.67 31.0135 37.6574 30.9149L37.1624 26.8724C37.1453 26.734 37.0898 26.6032 37.0024 26.4945C36.915 26.3859 36.799 26.3038 36.6674 26.2574L33.5849 25.1774C33.4769 25.1481 33.363 25.1481 33.2549 25.1774C33.2549 24.8849 33.1949 24.5924 33.1499 24.3074L37.0799 22.1024C37.1958 22.0373 37.2923 21.9426 37.3595 21.8279C37.4267 21.7133 37.4622 21.5828 37.4624 21.4499V19.0499C37.4624 18.851 37.3834 18.6603 37.2428 18.5196C37.1021 18.379 36.9113 18.2999 36.7124 18.2999C36.5135 18.2999 36.3228 18.379 36.1821 18.5196C36.0415 18.6603 35.9624 18.851 35.9624 19.0499V20.9999L32.8199 22.7624C32.1845 20.0698 30.6303 17.6829 28.4249 16.0124C28.5408 15.6075 28.6013 15.1887 28.6049 14.7674C28.6033 13.9889 28.4043 13.2236 28.0265 12.5428C27.6488 11.8621 27.1046 11.2883 26.4449 10.8749L26.9624 9.63744C27.0043 9.54634 27.0278 9.44788 27.0316 9.34769C27.0354 9.2475 27.0195 9.14754 26.9846 9.05353C26.9498 8.95951 26.8968 8.87327 26.8287 8.79973C26.7605 8.72619 26.6785 8.6668 26.5874 8.62494C26.4963 8.58308 26.3979 8.55958 26.2977 8.55577C26.1975 8.55196 26.0975 8.56792 26.0035 8.60274C25.9095 8.63757 25.8233 8.69057 25.7497 8.75872C25.6762 8.82687 25.6168 8.90884 25.5749 8.99994L25.0499 10.2449C24.3603 10.0749 23.6396 10.0749 22.9499 10.2449L22.4249 8.99994C22.3892 8.90555 22.3347 8.81936 22.2648 8.74651C22.195 8.67367 22.1111 8.61568 22.0183 8.57602C21.9255 8.53636 21.8256 8.51584 21.7247 8.5157C21.6237 8.51555 21.5238 8.53578 21.4309 8.57518C21.3379 8.61457 21.2539 8.67232 21.1838 8.74496C21.1138 8.8176 21.0591 8.90365 21.023 8.99793C20.987 9.09221 20.9704 9.1928 20.9741 9.29367C20.9779 9.39454 21.002 9.4936 21.0449 9.58494L21.5624 10.8224C20.9036 11.2362 20.3606 11.8103 19.9841 12.4911C19.6077 13.1718 19.4101 13.937 19.4099 14.7149C19.411 14.9661 19.431 15.2168 19.4699 15.4649L13.2449 9.23994C16.3649 6.95849 20.1348 5.73867 23.9999 5.75994C28.8363 5.76589 33.4731 7.68927 36.8936 11.1084C40.3142 14.5276 42.2395 19.1635 42.2474 23.9999C42.2595 27.8683 41.0291 31.6384 38.7374 34.7549V34.7549Z" fill="#028577"/>
<path d="M9.75006 11.5799C9.67559 11.5058 9.58637 11.4481 9.48817 11.4106C9.38998 11.3731 9.285 11.3567 9.18006 11.3624C9.07439 11.3675 8.97098 11.3948 8.87662 11.4426C8.78226 11.4904 8.69909 11.5577 8.63256 11.6399C6.3045 14.5408 4.84304 18.0402 4.41645 21.7351C3.98986 25.4301 4.61548 29.1704 6.22128 32.5254C7.82709 35.8805 10.3478 38.7137 13.4931 40.6991C16.6385 42.6844 20.2806 43.7411 24.0001 43.7474C28.4976 43.7616 32.8627 42.2253 36.3601 39.3974C36.4423 39.3309 36.5096 39.2477 36.5574 39.1534C36.6052 39.059 36.6325 38.9556 36.6376 38.8499C36.6433 38.745 36.6269 38.64 36.5894 38.5418C36.5519 38.4436 36.4942 38.3544 36.4201 38.2799L9.75006 11.5799ZM16.2076 26.6624C16.1777 24.8073 16.5326 22.966 17.2501 21.2549L29.7901 33.7499C28.2901 35.9999 26.2201 37.2749 24.0001 37.2749C19.6876 37.2974 16.1776 32.5274 16.1776 26.6624H16.2076ZM24.0001 42.2474C19.1623 42.2415 14.5245 40.3171 11.1037 36.8963C7.68292 33.4755 5.75851 28.8376 5.75256 23.9999C5.74051 20.1315 6.9709 16.3615 9.26256 13.2449L16.1401 20.1299C15.7344 20.9642 15.4104 21.8358 15.1726 22.7324L12.0451 20.9999V19.0499C12.0451 18.851 11.966 18.6603 11.8254 18.5196C11.6847 18.379 11.494 18.2999 11.2951 18.2999C11.0961 18.2999 10.9054 18.379 10.7647 18.5196C10.6241 18.6603 10.5451 18.851 10.5451 19.0499V21.4199C10.5453 21.5528 10.5808 21.6833 10.648 21.7979C10.7152 21.9126 10.8117 22.0073 10.9276 22.0724L14.8576 24.2774C14.8576 24.5624 14.7826 24.8549 14.7526 25.1474C14.6439 25.1229 14.5312 25.1229 14.4226 25.1474L11.3401 26.2499C11.2085 26.2963 11.0925 26.3784 11.0051 26.487C10.9176 26.5957 10.8622 26.7265 10.8451 26.8649L10.3501 30.9074C10.3375 31.006 10.3447 31.1062 10.3712 31.202C10.3976 31.2978 10.4429 31.3874 10.5043 31.4655C10.5657 31.5437 10.6421 31.6089 10.7289 31.6573C10.8157 31.7057 10.9113 31.7363 11.0101 31.7474H11.1001C11.2843 31.7488 11.4626 31.6822 11.6009 31.5605C11.7393 31.4388 11.828 31.2704 11.8501 31.0874L12.2851 27.5099L14.6851 26.6699C14.6675 29.1041 15.2579 31.5041 16.4026 33.6524L14.4601 36.0374C14.3499 36.1704 14.289 36.3373 14.2876 36.5099V38.6774C14.2876 38.8763 14.3666 39.0671 14.5072 39.2078C14.6479 39.3484 14.8386 39.4274 15.0376 39.4274C15.2365 39.4274 15.4272 39.3484 15.5679 39.2078C15.7085 39.0671 15.7876 38.8763 15.7876 38.6774V36.7874L17.2501 34.9949C18.9451 37.3274 21.3451 38.7974 24.0001 38.7974C26.6551 38.7974 29.0101 37.4174 30.7501 35.0024L32.2501 36.7874V38.6849C32.2501 38.8839 32.3291 39.0746 32.4697 39.2153C32.6104 39.3559 32.8011 39.4349 33.0001 39.4349C33.199 39.4349 33.3897 39.3559 33.5304 39.2153C33.671 39.0746 33.7501 38.8839 33.7501 38.6849V37.7024L34.7851 38.7374C31.6602 41.0352 27.8787 42.2659 24.0001 42.2474V42.2474Z" fill="#028577"/>
</svg>
