<svg width="48" height="48" viewBox="0 0 48 48" fill="none" xmlns="http://www.w3.org/2000/svg">
<path d="M9.69 25.335C8.32944 25.335 6.99945 25.7385 5.86829 26.4946C4.73713 27.2506 3.85562 28.3252 3.3353 29.5823C2.81498 30.8394 2.67922 32.2226 2.9452 33.557C3.21118 34.8913 3.86694 36.1167 4.82953 37.0782C5.79212 38.0398 7.01827 38.6942 8.35287 38.9587C9.68747 39.2233 11.0705 39.086 12.3271 38.5643C13.5837 38.0426 14.6573 37.1599 15.4121 36.0279C16.1669 34.896 16.569 33.5655 16.5675 32.205C16.5655 30.3822 15.84 28.6348 14.5505 27.3467C13.2609 26.0585 11.5127 25.335 9.69 25.335V25.335ZM9.69 37.5825C8.62643 37.5825 7.58675 37.2671 6.70242 36.6762C5.8181 36.0853 5.12885 35.2455 4.72184 34.2628C4.31483 33.2802 4.20833 32.199 4.41583 31.1559C4.62332 30.1127 5.13548 29.1546 5.88753 28.4025C6.63959 27.6504 7.59777 27.1383 8.6409 26.9308C9.68403 26.7233 10.7653 26.8298 11.7479 27.2368C12.7305 27.6438 13.5703 28.3331 14.1612 29.2174C14.7521 30.1017 15.0675 31.1414 15.0675 32.205C15.0675 33.6312 14.5009 34.999 13.4925 36.0074C12.484 37.0159 11.1162 37.5825 9.69 37.5825V37.5825Z" fill="#028577"/>
<path d="M9.69018 27.9448C8.56096 27.9468 7.47857 28.3963 6.68009 29.1947C5.88162 29.9932 5.43216 31.0756 5.43018 32.2048C5.43018 32.4037 5.50919 32.5945 5.64985 32.7352C5.7905 32.8758 5.98126 32.9548 6.18018 32.9548C6.37909 32.9548 6.56985 32.8758 6.71051 32.7352C6.85116 32.5945 6.93018 32.4037 6.93018 32.2048C6.93018 31.4728 7.22096 30.7708 7.73856 30.2532C8.25616 29.7356 8.95818 29.4448 9.69018 29.4448C9.88909 29.4448 10.0799 29.3658 10.2205 29.2252C10.3612 29.0845 10.4402 28.8937 10.4402 28.6948C10.4402 28.4959 10.3612 28.3051 10.2205 28.1645C10.0799 28.0238 9.88909 27.9448 9.69018 27.9448Z" fill="#028577"/>
<path d="M38.3098 25.335C36.9489 25.3335 35.6182 25.7358 34.486 26.4909C33.3539 27.246 32.4712 28.3201 31.9498 29.5771C31.4283 30.8341 31.2915 32.2176 31.5566 33.5524C31.8217 34.8872 32.4769 36.1133 33.4392 37.0756C34.4015 38.0379 35.6276 38.6931 36.9624 38.9582C38.2972 39.2233 39.6807 39.0865 40.9377 38.565C42.1947 38.0435 43.2687 37.1609 44.0239 36.0287C44.779 34.8966 45.1813 33.5658 45.1798 32.205C45.1778 30.3835 44.4534 28.6373 43.1654 27.3493C41.8775 26.0614 40.1312 25.337 38.3098 25.335V25.335ZM38.3098 37.5825C37.2459 37.584 36.2055 37.2698 35.3202 36.6798C34.4349 36.0899 33.7445 35.2505 33.3363 34.2681C32.9281 33.2856 32.8206 32.2041 33.0272 31.1605C33.2339 30.1168 33.7454 29.158 34.4972 28.4052C35.2489 27.6524 36.2071 27.1394 37.2504 26.9313C38.2938 26.7232 39.3754 26.8293 40.3584 27.2361C41.3415 27.6429 42.1818 28.3321 42.773 29.2166C43.3642 30.1011 43.6798 31.1411 43.6798 32.205C43.6778 33.6293 43.1117 34.9948 42.1052 36.0026C41.0988 37.0104 39.7341 37.5785 38.3098 37.5825V37.5825Z" fill="#028577"/>
<path d="M37.8676 27.9448C36.7371 27.9448 35.6528 28.3934 34.8527 29.1921C34.0526 29.9908 33.6021 31.0743 33.6001 32.2048C33.6001 32.4037 33.6791 32.5945 33.8198 32.7352C33.9604 32.8758 34.1512 32.9548 34.3501 32.9548C34.549 32.9548 34.7398 32.8758 34.8804 32.7352C35.0211 32.5945 35.1001 32.4037 35.1001 32.2048C35.1021 31.4721 35.3945 30.7701 35.9133 30.2528C36.4321 29.7354 37.1349 29.4448 37.8676 29.4448C38.0665 29.4448 38.2573 29.3658 38.3979 29.2252C38.5386 29.0845 38.6176 28.8937 38.6176 28.6948C38.6176 28.4959 38.5386 28.3051 38.3979 28.1645C38.2573 28.0238 38.0665 27.9448 37.8676 27.9448Z" fill="#028577"/>
<path d="M46.8377 27.9826C46.8547 27.852 46.8338 27.7193 46.7777 27.6001L38.5652 10.5001C37.1552 7.30514 34.7777 5.81264 32.0477 6.39014C30.1802 6.78764 28.0352 8.02514 27.7877 11.5576C25.3727 10.5367 22.6603 10.4697 20.1977 11.3701C19.8902 7.98014 17.7902 6.78014 15.9527 6.39014C13.2227 5.79764 10.8452 7.29764 9.45024 10.5001L1.22274 27.6001C1.16665 27.7193 1.14583 27.852 1.16274 27.9826C0.503621 29.2927 0.159486 30.7386 0.157741 32.2051C0.151774 34.7333 1.15037 37.1603 2.93384 38.9522C4.71731 40.7441 7.13956 41.7542 9.66774 41.7601C12.1959 41.7661 14.6229 40.7675 16.4148 38.984C18.2067 37.2006 19.2168 34.7783 19.2227 32.2501V32.2501L19.4102 28.6201H28.5902L28.7777 32.2501C28.7837 34.7783 29.7937 37.2006 31.5857 38.984C33.3776 40.7675 35.8046 41.7661 38.3327 41.7601C40.8609 41.7542 43.2832 40.7441 45.0666 38.9522C46.8501 37.1603 47.8487 34.7333 47.8427 32.2051C47.841 30.7386 47.4969 29.2927 46.8377 27.9826V27.9826ZM32.3627 7.85264C35.0702 7.27514 36.5477 9.63764 37.2002 11.1226L43.5002 24.2176C42.4116 23.5019 41.1874 23.0177 39.9037 22.7951C38.62 22.5725 37.3043 22.6163 36.0382 22.9236C34.7722 23.231 33.5828 23.7954 32.5441 24.5819C31.5054 25.3683 30.6395 26.3599 30.0002 27.4951L29.2502 12.7501C29.1227 9.92264 30.1352 8.32514 32.3627 7.85264ZM27.7952 13.2001L28.2002 21.0751C26.8921 20.4658 25.4723 20.1326 24.0296 20.0965C22.5869 20.0604 21.1523 20.322 19.8152 20.8651L20.2502 12.9826C21.3681 12.4899 22.5761 12.2345 23.7977 12.2326C25.1871 12.2423 26.5553 12.5734 27.7952 13.2001V13.2001ZM10.8077 11.1001C11.4527 9.60014 12.9377 7.27514 15.6377 7.85264C17.8877 8.32514 18.8702 9.92264 18.7277 12.7501L18.2552 21.8551C18.2092 22.0016 18.2092 22.1587 18.2552 22.3051L18.0002 27.4951C17.361 26.3599 16.4951 25.3683 15.4563 24.5819C14.4176 23.7954 13.2283 23.231 11.9622 22.9236C10.6962 22.6163 9.38044 22.5725 8.09676 22.7951C6.81308 23.0177 5.58889 23.5019 4.50024 24.2176L10.8077 11.1001ZM9.69024 40.2376C8.10156 40.2376 6.54856 39.7665 5.22762 38.8839C3.90669 38.0013 2.87714 36.7468 2.26918 35.279C1.66122 33.8113 1.50215 32.1962 1.81208 30.6381C2.12202 29.0799 2.88704 27.6487 4.01041 26.5253C5.13377 25.4019 6.56503 24.6369 8.12318 24.327C9.68133 24.017 11.2964 24.1761 12.7641 24.7841C14.2319 25.392 15.4864 26.4216 16.369 27.7425C17.2516 29.0635 17.7227 30.6165 17.7227 32.2051C17.7208 34.3349 16.8738 36.3768 15.3679 37.8828C13.8619 39.3887 11.82 40.2356 9.69024 40.2376V40.2376ZM19.5002 27.1201L19.7327 22.5751C21.0651 21.8908 22.5488 21.5539 24.046 21.5959C25.5433 21.6378 27.0058 22.0572 28.2977 22.8151L28.5002 27.1201H19.5002ZM38.3102 40.2376C36.7216 40.2376 35.1686 39.7665 33.8476 38.8839C32.5267 38.0013 31.4971 36.7468 30.8892 35.279C30.2812 33.8113 30.1221 32.1962 30.4321 30.6381C30.742 29.0799 31.507 27.6487 32.6304 26.5253C33.7538 25.4019 35.185 24.6369 36.7432 24.327C38.3013 24.017 39.9164 24.1761 41.3841 24.7841C42.8519 25.392 44.1064 26.4216 44.989 27.7425C45.8716 29.0635 46.3427 30.6165 46.3427 32.2051C46.3408 34.3349 45.4938 36.3768 43.9879 37.8828C42.4819 39.3887 40.44 40.2356 38.3102 40.2376Z" fill="#028577"/>
</svg>
