<svg width="24" height="24" viewBox="0 0 24 24" fill="none" xmlns="http://www.w3.org/2000/svg">
<path d="M9.06897 16.0962C8.65475 16.0962 8.31897 16.4319 8.31897 16.8462C8.31897 17.2604 8.65475 17.5962 9.06897 17.5962V16.0962ZM12 17.5962C12.4142 17.5962 12.75 17.2604 12.75 16.8462C12.75 16.4319 12.4142 16.0962 12 16.0962V17.5962ZM8.37931 5.75H15.6207V4.25H8.37931V5.75ZM16.25 6.4359V17.5641H17.75V6.4359H16.25ZM15.6207 18.25H8.37931V19.75H15.6207V18.25ZM7.75 17.5641V6.4359H6.25V17.5641H7.75ZM8.37931 18.25C8.05989 18.25 7.75 17.9716 7.75 17.5641H6.25C6.25 18.7426 7.17519 19.75 8.37931 19.75V18.25ZM16.25 17.5641C16.25 17.9716 15.9401 18.25 15.6207 18.25V19.75C16.8248 19.75 17.75 18.7426 17.75 17.5641H16.25ZM15.6207 5.75C15.9401 5.75 16.25 6.02838 16.25 6.4359H17.75C17.75 5.25737 16.8248 4.25 15.6207 4.25V5.75ZM8.37931 4.25C7.17519 4.25 6.25 5.25737 6.25 6.4359H7.75C7.75 6.02838 8.05989 5.75 8.37931 5.75V4.25ZM7 9.51923H17V8.01923H7V9.51923ZM9.06897 17.5962H12V16.0962H9.06897V17.5962Z" fill="#028577"/>
<circle cx="9" cy="14" r="1" fill="#028577"/>
<circle cx="12" cy="14" r="1" fill="#028577"/>
<circle cx="15" cy="14" r="1" fill="#028577"/>
<circle cx="15" cy="17" r="1" fill="#028577"/>
<circle cx="9" cy="11" r="1" fill="#028577"/>
<circle cx="12" cy="11" r="1" fill="#028577"/>
<circle cx="15" cy="11" r="1" fill="#028577"/>
</svg>
