<svg width="48" height="48" viewBox="0 0 48 48" fill="none" xmlns="http://www.w3.org/2000/svg">
<g clip-path="url(#clip0)">
<path d="M36.3331 37.7742C36.1998 37.6237 36.0664 37.4731 35.9331 37.3978V10.6774C36.0664 10.6022 36.1998 10.4516 36.3331 10.3011L38.1998 8.19355C39.2664 6.98925 39.2664 5.10753 38.1998 3.90323C37.1331 2.69892 35.4664 2.69892 34.3998 3.90323L32.5998 6.01075C32.5331 6.08602 32.4664 6.23656 32.3331 6.31183H15.6664C15.5998 6.23656 15.5331 6.08602 15.4664 6.01075L13.5331 3.90323C12.4664 2.69892 10.7998 2.69892 9.73311 3.90323C8.66644 5.10753 8.66644 6.98925 9.73311 8.19355L11.6664 10.3011C11.7331 10.3763 11.8664 10.4516 11.9331 10.5269V12.2581C11.9331 12.2581 11.9331 12.2581 11.9331 12.3333C11.9331 12.4086 11.9331 12.3333 11.9331 12.4086V37.4731C11.8664 37.5484 11.7331 37.6237 11.6664 37.7742L9.79977 39.8817C8.73311 41.086 8.73311 42.9677 9.79977 44.172C10.2664 44.6989 10.9998 45 11.6664 45C12.3331 45 12.9998 44.6989 13.5331 44.0968L15.3998 41.9892C15.4664 41.914 15.5331 41.7634 15.6664 41.6882H32.3331C32.3998 41.8387 32.4664 41.914 32.5998 41.9892L34.4664 44.0968C35.5331 45.3011 37.1998 45.3011 38.2664 44.0968C39.3331 42.8925 39.3331 41.0108 38.2664 39.8065L36.3331 37.7742ZM37.2664 43.043C36.7331 43.6452 35.8664 43.6452 35.3998 43.043L33.5331 40.9355C33.4664 40.8602 33.3998 40.7097 33.3331 40.5591C33.1998 40.3333 32.9998 40.1828 32.7331 40.1828H15.3331C15.0664 40.1828 14.8664 40.3333 14.7331 40.5591C14.6664 40.7097 14.5998 40.8602 14.5331 40.9355L12.6664 43.043C12.1331 43.6452 11.2664 43.6452 10.7998 43.043C10.2664 42.4409 10.2664 41.5376 10.7998 40.9355L12.6664 38.828C12.7331 38.7527 12.8664 38.6774 12.9998 38.6021C13.1998 38.4516 13.3331 38.2258 13.3331 37.9247V13.086H25.3331C25.7331 13.086 25.9998 12.7849 25.9998 12.3333C25.9998 11.8817 25.7331 11.5806 25.3331 11.5806H13.3331V10.0753C13.3331 9.77419 13.1998 9.54839 12.9998 9.39785C12.7998 9.39785 12.6664 9.32258 12.5998 9.17204L10.7331 7.06452C10.1998 6.46237 10.1998 5.55914 10.7331 4.95699C11.2664 4.35484 12.0664 4.35484 12.5998 4.95699L14.4664 7.06452C14.5331 7.13979 14.5998 7.29032 14.6664 7.44086C14.7998 7.66667 14.9998 7.8172 15.2664 7.8172H32.6664C32.9331 7.8172 33.1331 7.66667 33.2664 7.44086C33.3331 7.29032 33.3998 7.13979 33.4664 7.06452L35.3331 4.95699C35.8664 4.35484 36.6664 4.35484 37.1998 4.95699C37.7331 5.55914 37.7331 6.46237 37.1998 7.06452L35.3331 9.17204C35.1998 9.32258 35.0664 9.39785 34.9331 9.47312C34.6664 9.62366 34.5331 9.84946 34.5331 10.1505V34.914H22.1998C21.7998 34.914 21.5331 35.2151 21.5331 35.6667C21.5331 36.1183 21.7998 36.4194 22.1998 36.4194H34.5998V37.8495C34.5998 38.1505 34.7331 38.4516 34.9998 38.5269C35.1331 38.6022 35.2664 38.6774 35.3998 38.828L37.2664 40.9355C37.7998 41.5376 37.7998 42.5161 37.2664 43.043Z" fill="#028577"/>
<path d="M23.5329 26.9354C23.5329 27.387 23.7995 27.6881 24.1995 27.6881C24.5995 27.6881 24.8662 27.387 24.8662 26.9354V21.8924C28.9329 21.3655 29.7995 20.0107 30.1995 14.8924C30.1995 14.6666 30.1329 14.4408 29.9995 14.2903C29.8662 14.1397 29.6662 14.0645 29.4662 14.0645H29.1995C24.9995 14.5913 23.9329 15.4193 23.3995 19.4085C22.5329 18.5053 21.1995 18.129 18.8662 17.8279H18.5995C18.3995 17.8279 18.1995 17.9032 18.0662 18.0537C17.9329 18.2042 17.8662 18.43 17.8662 18.6559C18.2662 23.9247 19.1995 25.2042 23.5995 25.7311V26.9354H23.5329ZM28.7995 15.6451C28.5329 18.8064 27.9995 19.7849 25.7995 20.2365L27.5995 18.2042C27.8662 17.9032 27.8662 17.4515 27.5995 17.1505C27.3329 16.8494 26.9329 16.8494 26.6662 17.1505L24.6662 19.4085C25.1329 16.5483 25.7995 16.0967 28.7995 15.6451ZM19.1995 19.4085C22.1995 19.8602 22.8662 20.3118 23.2662 23.0967L21.2662 20.8386C20.9995 20.5376 20.5995 20.5376 20.3329 20.8386C20.0662 21.1397 20.0662 21.5913 20.3329 21.8924L22.1329 23.9247C19.9995 23.5483 19.5329 22.5698 19.1995 19.4085Z" fill="#028577"/>
<path d="M20.5998 30.5484L21.6664 32.8065H22.6664V29.5699H21.9998V31C21.9998 31.2258 21.9998 31.4516 21.9998 31.7527L20.9331 29.4946H19.9331V32.7312H20.5998V31.3011C20.5998 31.2258 20.5998 30.9247 20.5998 30.5484Z" fill="#028577"/>
<path d="M24.2666 29.6455H23.2666V32.8821H24.0666V31.8283H24.2666C24.5999 31.8283 24.8666 31.753 25.0666 31.5272C25.2666 31.3014 25.3333 31.0756 25.3333 30.6993C25.3333 30.3982 25.2666 30.0971 25.0666 29.9466C24.8666 29.796 24.5999 29.6455 24.2666 29.6455ZM24.4666 30.9251C24.3999 31.0003 24.3333 31.0003 24.1999 31.0003H24.0666V30.2477H24.2666C24.4666 30.2477 24.5999 30.3229 24.5999 30.5487C24.5333 30.7745 24.5333 30.8498 24.4666 30.9251Z" fill="#028577"/>
<path d="M27.3996 29.6451L26.7996 30.6236C26.6662 30.7741 26.5996 30.9247 26.5329 30.9999V29.5698H25.7329V32.8064H26.5329V31.7526L26.7329 31.6021L27.2662 32.8064H28.1329L27.2662 30.9999L28.1996 29.5698H27.3996V29.6451Z" fill="#028577"/>
</g>
<defs>
<clipPath id="clip0">
<rect width="30" height="42" fill="white" transform="translate(9 3)"/>
</clipPath>
</defs>
</svg>
