<svg width="48" height="48" viewBox="0 0 48 48" fill="none" xmlns="http://www.w3.org/2000/svg">
<path d="M23.9697 31.0078C23.4966 31.0078 23.1812 31.3254 23.1812 31.8019V47.2062C23.1812 47.6826 23.4966 48.0003 23.9697 48.0003C24.4428 48.0003 24.7582 47.6826 24.7582 47.2062V31.8019C24.7582 31.4048 24.3639 31.0078 23.9697 31.0078Z" fill="#028577"/>
<path d="M17.9769 31.0871C17.5826 30.9283 17.1095 31.1665 17.0307 31.6429L12.4573 47.0473C12.2996 47.4443 12.5362 47.9207 13.0093 48.0001C13.0881 48.0001 13.167 48.0001 13.2458 48.0001C13.5612 48.0001 13.8766 47.7619 14.0343 47.4443L18.6077 32.0399C18.6077 31.6429 18.3711 31.1665 17.9769 31.0871Z" fill="#028577"/>
<path d="M11.9055 31.1665C11.5113 30.9282 11.0382 31.087 10.8016 31.4047L1.57615 46.809C1.41845 47.1266 1.4973 47.6825 1.89155 47.8413C2.04925 47.9207 2.1281 47.9207 2.2858 47.9207C2.52235 47.9207 2.83775 47.7619 2.99545 47.5237L12.2209 32.1193C12.3786 31.8811 12.2998 31.4047 11.9055 31.1665Z" fill="#028577"/>
<path d="M30.9083 31.5627C30.7506 31.1657 30.3563 30.9275 29.9621 31.0069C29.5678 31.1657 29.3313 31.5627 29.4101 31.9598L33.9834 47.3641C34.0623 47.6817 34.3777 47.9199 34.7719 47.9199C34.8508 47.9199 34.9296 47.9199 35.0085 47.9199C35.4027 47.7611 35.6393 47.3641 35.5604 46.9671L30.9083 31.5627Z" fill="#028577"/>
<path d="M46.2844 46.8083L37.059 31.4039C36.8224 31.0069 36.3493 30.9275 35.9551 31.1657C35.5608 31.4039 35.482 31.8804 35.7185 32.2774L44.8651 47.6023C45.0228 47.8406 45.2594 47.9994 45.5748 47.9994C45.7325 47.9994 45.8902 47.9994 45.969 47.92C46.3633 47.6817 46.4421 47.1259 46.2844 46.8083Z" fill="#028577"/>
<path d="M34.0623 28.9429C34.1412 28.9429 34.1412 28.9429 34.22 28.9429C34.6143 28.9429 34.9297 28.6253 35.0085 28.3077L35.4028 25.7667C35.4816 25.2903 35.3239 24.7345 35.0874 24.3375C34.772 23.9404 34.3777 23.6228 33.8258 23.5434L33.4315 23.464L35.0085 12.7445C35.0874 12.3475 34.772 11.871 34.3777 11.871C33.9835 11.7916 33.5104 12.1093 33.5104 12.5063L32.8796 16.5559C32.8007 16.3177 32.643 16 32.4065 15.8412L30.1198 13.5385C29.9621 13.3797 29.8833 13.1415 29.8833 12.9827C29.8833 12.7445 29.9621 12.5857 30.1198 12.4269L32.7219 9.80654C33.2738 9.40952 33.5892 8.77429 33.8258 8.13906C34.3777 8.45667 34.9297 8.61548 35.5605 8.61548C36.4278 8.61548 37.2163 8.29786 37.926 7.74204C38.0048 7.66263 38.1625 7.50383 38.2414 7.42442L38.8722 8.13906C39.0299 8.29786 39.2665 8.45667 39.503 8.45667C39.6607 8.45667 39.8973 8.37727 39.9761 8.29786C40.2915 7.98025 40.3704 7.50383 40.055 7.18621L39.4241 6.39217L39.8973 5.67754C40.6858 4.56588 40.4492 2.819 39.3453 1.46913C38.2414 0.119262 36.5855 -0.357161 35.3239 0.27807L34.0623 0.913301C33.8258 0.992705 33.6681 1.23092 33.6681 1.46913C33.6681 1.54853 33.6681 1.54853 33.6681 1.62794C33.5104 1.70734 33.2738 1.86615 33.1161 2.02496C32.4853 2.58078 32.0911 3.29542 31.9334 4.08946C31.5391 3.93065 31.066 3.77184 30.5929 3.77184H25.1523C23.4176 3.77184 21.8406 4.40707 20.6578 5.67754L18.1346 8.21846C16.9518 9.40952 16.2422 11.077 16.2422 12.7445V26.1637C16.2422 27.99 17.7403 29.4987 19.5539 29.4987C21.3675 29.4987 22.8656 27.99 22.8656 26.1637V12.8239L25.2311 10.4418H26.335C25.9408 11.1564 25.7042 12.0299 25.7042 12.9033C25.7042 14.2532 26.2562 15.5236 27.1235 16.3971L29.4102 18.6998C30.1987 19.4938 31.5391 19.4938 32.3276 18.6998C32.4065 18.6204 32.4065 18.541 32.4853 18.541L31.7757 23.2258L31.3814 23.1464C30.9083 23.067 30.3564 23.2258 29.9621 23.464C29.5679 23.7816 29.2525 24.1786 29.1736 24.7345L28.7794 27.2754C28.7005 27.6724 29.0159 28.1488 29.4102 28.1488L34.0623 28.9429ZM36.1124 1.70734C36.6644 1.38972 37.6106 1.78674 38.2414 2.50138C38.8722 3.21601 39.0299 4.16886 38.7145 4.72469L38.4779 5.0423L35.797 1.86615L36.1124 1.70734ZM34.1412 3.21601C34.22 3.13661 34.3777 3.05721 34.5354 2.9778L37.2163 6.15396C37.0586 6.23336 36.9798 6.31277 36.9009 6.39217C36.0336 7.10681 34.6931 7.0274 33.9835 6.15396C33.9046 6.07456 33.8258 5.91575 33.7469 5.83634C33.7469 5.75694 33.6681 5.75694 33.6681 5.67754C33.2738 4.8835 33.4315 3.85125 34.1412 3.21601ZM21.3675 26.1637C21.3675 27.1166 20.5789 27.9106 19.6327 27.9106C18.6865 27.9106 17.898 27.1166 17.898 26.1637V12.7445C17.898 11.7122 18.2134 10.7594 18.7654 9.96535L21.3675 12.5857C21.3675 12.6651 21.3675 12.6651 21.3675 12.7445V26.1637V26.1637ZM31.2237 17.5881C31.066 17.7469 30.7506 17.7469 30.5141 17.5881L28.3063 15.3648C27.6755 14.7296 27.2812 13.8561 27.2812 12.9827C27.2812 12.1093 27.5966 11.2358 28.3063 10.6006L28.5428 10.3624C28.7794 10.1242 28.8582 9.80654 28.7005 9.48892C28.5428 9.17131 28.3063 9.0125 27.9909 9.0125H25.1523C24.8369 9.0125 24.4426 9.17131 24.2061 9.40952L22.2348 11.3946L19.8693 8.77429L21.8406 6.78919C22.7868 5.83634 23.9695 5.35992 25.2311 5.35992H30.6718C31.3814 5.35992 32.0122 5.75694 32.2488 6.39217C32.2488 6.39217 32.2488 6.47158 32.3276 6.47158C32.4065 6.63038 32.4853 6.86859 32.4853 7.10681C32.4853 7.66263 32.2488 8.13906 31.8545 8.45667C31.8545 8.45667 31.7757 8.45667 31.7757 8.53608L29.0948 11.2358C28.6217 11.7122 28.3851 12.2681 28.3851 12.9827C28.3851 13.6179 28.6217 14.2532 29.0948 14.7296L31.3814 17.0323C31.4603 17.1117 31.5391 17.2705 31.5391 17.3499C31.3814 17.4293 31.3814 17.5087 31.2237 17.5881ZM30.7506 25.0521C30.7506 24.9727 30.8295 24.8933 30.9083 24.8139C30.9872 24.8139 31.066 24.7345 31.1449 24.7345L33.5892 25.1315C33.6681 25.1315 33.7469 25.2109 33.8258 25.2903C33.8258 25.3697 33.9046 25.4491 33.9046 25.5285L33.6681 27.2754L30.5929 26.799L30.7506 25.0521Z" fill="#028577"/>
</svg>
