<svg width="48" height="48" viewBox="0 0 48 48" fill="none" xmlns="http://www.w3.org/2000/svg">
<path d="M37.4321 41.9902L33.224 26.5309C33.1561 26.0521 32.9525 25.6417 32.7489 25.2997H33.8348C35.3959 25.2997 36.6176 24.0684 36.6176 22.4951C36.6176 21.6743 36.2104 20.9218 35.6674 20.3746C36.2783 19.8274 36.6176 19.0749 36.6176 18.2541C36.6176 17.4332 36.2104 16.6808 35.6674 16.1336C36.2783 15.5863 36.6176 14.8339 36.6176 14.013C36.6176 12.4397 35.3959 11.2085 33.8348 11.2085H32.138C31.9344 10.3876 31.5271 9.56677 30.8484 8.95114C29.9661 8.06189 28.7443 7.58306 27.4547 7.58306H26.0973V6.69381L30.1018 4.23127C30.509 4.09446 30.5769 3.68404 30.3733 3.34202C30.1697 3 29.7624 2.9316 29.4231 3.13681L26.1652 5.12052V3.68404C26.1652 3.27362 25.8937 3 25.4864 3C25.0792 3 24.8077 3.27362 24.8077 3.68404V5.12052L21.5498 3.13681C21.2104 2.9316 20.8032 3.0684 20.5995 3.34202C20.3959 3.68404 20.5317 4.09446 20.8032 4.29967L24.8077 6.76221V7.58306H23.9932C22.9072 7.58306 21.8891 7.85668 20.9389 8.47231L14.4909 13.1238H8.17873C7.77149 13.1238 7.5 13.3974 7.5 13.8078V26.0521C7.5 26.4625 7.77149 26.7362 8.17873 26.7362H14.8303L16.052 27.4202L13.4729 42.6743C13.405 42.9479 13.6086 43.2899 13.8801 43.3583C13.948 43.4267 14.0837 43.4267 14.1516 43.4267C14.3552 43.4267 14.5588 43.3583 14.6946 43.1531L21.957 34.4658L24.8756 44.4528C24.9434 44.7264 25.2149 44.9316 25.5543 44.9316C25.8937 44.9316 26.0973 44.7264 26.1652 44.3844L28.5407 34.9446L36.3462 42.6059C36.4819 42.7427 36.6176 42.8111 36.8213 42.8111C36.957 42.8111 37.0928 42.8111 37.1606 42.7427C37.4321 42.6059 37.5679 42.2638 37.4321 41.9902ZM29.2195 24.4104C29.0837 24.2052 28.948 24.0684 28.8122 23.9316C29.2873 24 29.7624 24.1368 30.1697 24.4104C30.509 24.6156 30.7805 24.8208 30.9842 25.0945C31.4593 25.5733 31.7308 26.1889 31.8665 26.873L31.9344 27.1466L30.1018 28.1726C30.3733 26.8046 30.0339 25.5049 29.2195 24.4104ZM25.9615 18.3909C26.233 18.1173 26.5045 17.7752 26.7081 17.4332V20.443C26.7081 21.2638 27.0475 22.0163 27.5905 22.4951C27.3869 22.4951 27.1154 22.5635 26.9118 22.6319C26.5724 22.4951 26.3009 22.4267 25.9615 22.3583V18.5277C26.0294 18.5277 25.9615 18.4593 25.9615 18.3909ZM35.3281 22.4951C35.3281 23.316 34.7172 23.9316 33.9027 23.9316H31.7986C31.5271 23.658 31.1878 23.4528 30.8484 23.2476C30.7805 23.1792 30.6448 23.1792 30.5769 23.1107C31.3914 22.7687 32.0701 22.0163 32.2738 21.127H33.9027C34.6493 21.0586 35.3281 21.6743 35.3281 22.4951ZM35.3281 18.2541C35.3281 19.0749 34.7172 19.6906 33.9027 19.6906H32.3416V16.8176H33.9027C34.6493 16.8176 35.3281 17.4332 35.3281 18.2541ZM35.3281 14.013C35.3281 14.8339 34.7172 15.4495 33.9027 15.4495H32.3416V12.5765H33.9027C34.6493 12.5765 35.3281 13.1922 35.3281 14.013ZM15.0339 25.2313H8.85747V14.4235H14.7624C14.8982 14.4235 15.0339 14.355 15.1697 14.2866L21.7534 9.49837C22.4321 9.08795 23.2466 8.88274 24.0611 8.88274H27.5905C28.4728 8.88274 29.3552 9.22476 29.9661 9.90879C30.5769 10.5244 30.9842 11.4137 30.9842 12.3029V20.443C30.9842 21.2638 30.3733 21.8795 29.5588 21.8795C28.7443 21.8795 28.1335 21.2638 28.1335 20.443V14.6287C28.1335 14.355 27.9299 14.0814 27.6584 14.013C27.5905 14.013 27.5226 13.9446 27.4547 13.9446C27.1833 13.9446 26.9118 14.0814 26.8439 14.355C25.6222 17.7068 23.7896 18.9381 19.8529 20.443C19.5136 20.5798 19.31 20.9902 19.4457 21.3322C19.5814 21.6059 19.7851 21.7427 20.0566 21.7427C20.1244 21.7427 20.1923 21.7427 20.3281 21.6743C22.0928 20.9902 23.5181 20.3062 24.7398 19.4853V22.2215C24.1968 22.2899 23.7217 22.4267 23.2466 22.6319C21.8213 22.0163 20.1923 22.0847 18.8348 22.8371C17.681 23.4528 16.8665 24.5472 16.4593 25.7785L15.4412 25.2313C15.2376 25.2997 15.1697 25.2313 15.0339 25.2313ZM17.4774 27.1466C17.4774 27.0782 17.4774 27.0098 17.4774 27.0098C17.6131 25.7785 18.2919 24.7524 19.3778 24.2052C20.0566 23.7948 20.871 23.658 21.6176 23.7264C21.3462 24 21.1425 24.2052 20.9389 24.5472C19.9887 25.9153 19.7851 27.6938 20.3281 29.1987L21.2783 32.5505L19.1063 31.456C18.767 31.3192 18.3597 31.456 18.224 31.798C18.0882 32.1401 18.224 32.5505 18.5633 32.6873L20.7353 33.7818L15.1697 40.4169L17.4774 27.1466ZM25.4864 41.7166L22.9072 32.8241V32.7557L21.7534 28.7199C21.3462 27.557 21.4819 26.3257 22.1606 25.2997C22.8394 24.2736 23.9932 23.658 25.2149 23.658C26.4367 23.658 27.5226 24.2052 28.2014 25.1629C28.8801 26.1205 29.0837 27.3518 28.7443 28.5147L28.6765 28.7883H26.0294C25.6222 28.7883 25.3507 29.0619 25.3507 29.4723C25.3507 29.8827 25.6222 30.1564 26.0294 30.1564H28.3371L27.862 31.9349H27.7941H25.1471C24.7398 31.9349 24.4683 32.2085 24.4683 32.6189C24.4683 33.0293 24.7398 33.3029 25.1471 33.3029H27.5905L25.4864 41.7166ZM28.8801 33.4397L29.8303 29.6775C29.8982 29.6775 29.9661 29.6775 30.0339 29.6775C30.1697 29.6775 30.2376 29.6775 30.3733 29.6091L32.4095 28.4463L32.8846 30.1564H32.8167L30.509 31.456C30.1697 31.6612 30.0339 32.0717 30.2376 32.4137C30.3733 32.6189 30.5769 32.7557 30.8484 32.7557C30.9842 32.7557 31.052 32.7557 31.1878 32.6873L33.2919 31.5244L35.5995 39.8697L28.8801 33.4397Z" fill="#028577"/>
</svg>
