<svg width="48" height="48" viewBox="0 0 48 48" fill="none" xmlns="http://www.w3.org/2000/svg">
<path d="M43.5002 13.9201H38.6177C38.4188 13.9201 38.228 13.9991 38.0874 14.1398C37.9467 14.2804 37.8677 14.4712 37.8677 14.6701V15.1426H32.5802V11.7376C32.5802 11.5387 32.5012 11.3479 32.3605 11.2073C32.2199 11.0666 32.0291 10.9876 31.8302 10.9876H30.2852V7.35762H35.7152C35.9141 7.35762 36.1049 7.2786 36.2455 7.13795C36.3862 6.9973 36.4652 6.80653 36.4652 6.60762V2.93262C36.4652 2.7337 36.3862 2.54294 36.2455 2.40229C36.1049 2.26163 35.9141 2.18262 35.7152 2.18262H18.4652C18.2663 2.18262 18.0755 2.26163 17.9349 2.40229C17.7942 2.54294 17.7152 2.7337 17.7152 2.93262V6.60762C17.7152 6.80653 17.7942 6.9973 17.9349 7.13795C18.0755 7.2786 18.2663 7.35762 18.4652 7.35762H23.8952V10.9876H22.3502C22.1513 10.9876 21.9605 11.0666 21.8199 11.2073C21.6792 11.3479 21.6002 11.5387 21.6002 11.7376V15.1426H16.3502C15.2514 15.1397 14.1628 15.3533 13.1466 15.7713C12.1304 16.1893 11.2065 16.8034 10.4278 17.5787C9.64907 18.3539 9.03077 19.275 8.60822 20.2893C8.18568 21.3037 7.96718 22.3913 7.96521 23.4901V30.1426H7.09521C6.8963 30.1426 6.70554 30.2216 6.56488 30.3623C6.42423 30.5029 6.34521 30.6937 6.34521 30.8926V35.9326C6.34521 36.1315 6.42423 36.3223 6.56488 36.4629C6.70554 36.6036 6.8963 36.6826 7.09521 36.6826H18.0452C18.2441 36.6826 18.4349 36.6036 18.5755 36.4629C18.7162 36.3223 18.7952 36.1315 18.7952 35.9326V30.8926C18.7952 30.6937 18.7162 30.5029 18.5755 30.3623C18.4349 30.2216 18.2441 30.1426 18.0452 30.1426H17.0702V28.1551C17.0702 27.6397 17.172 27.1294 17.3697 26.6534C17.5673 26.1775 17.8571 25.7452 18.2222 25.3815C18.5873 25.0177 19.0207 24.7297 19.4974 24.5338C19.9741 24.3379 20.4848 24.2381 21.0002 24.2401H37.8677V25.4551C37.8677 25.654 37.9467 25.8448 38.0874 25.9854C38.228 26.1261 38.4188 26.2051 38.6177 26.2051H43.5002C43.6991 26.2051 43.8899 26.1261 44.0305 25.9854C44.1712 25.8448 44.2502 25.654 44.2502 25.4551V14.6701C44.2502 14.4712 44.1712 14.2804 44.0305 14.1398C43.8899 13.9991 43.6991 13.9201 43.5002 13.9201ZM19.2077 3.68262H34.9577V5.85762H19.2077V3.68262ZM25.3877 7.38012H28.7852V10.9876H25.3877V7.38012ZM23.1002 12.4876H31.0802V15.1426H23.1002V12.4876ZM17.2952 35.1826H7.84521V31.6426H17.2952V35.1826ZM21.0002 22.7401C19.566 22.7441 18.1917 23.3161 17.1783 24.331C16.1648 25.3458 15.5947 26.7209 15.5927 28.1551V30.1426H9.46521V23.4901C9.4672 21.6734 10.1903 19.9317 11.4756 18.6477C12.761 17.3638 14.5035 16.6426 16.3202 16.6426H37.8677V22.7401H21.0002ZM42.7502 24.7051H39.3677V23.4976V15.8926V15.4276H42.7502V24.7051Z" fill="#028577"/>
<path d="M10.2227 37.7399C10.1271 37.7151 10.0276 37.7094 9.92987 37.7231C9.83213 37.7369 9.73805 37.7697 9.65305 37.8199C9.56804 37.8701 9.49377 37.9365 9.4345 38.0155C9.37523 38.0944 9.33213 38.1843 9.30765 38.2799L9.12015 39.0299C9.09411 39.1254 9.08724 39.2252 9.09995 39.3234C9.11266 39.4216 9.14469 39.5163 9.1942 39.6021C9.24371 39.6878 9.30971 39.763 9.38839 39.8231C9.46708 39.8832 9.55689 39.9271 9.65265 39.9524C9.71745 39.9598 9.78286 39.9598 9.84765 39.9524C10.018 39.9578 10.185 39.905 10.3214 39.8028C10.4577 39.7005 10.5551 39.5549 10.5977 39.3899L10.7927 38.6399C10.8148 38.5433 10.8176 38.4434 10.8008 38.3457C10.7841 38.2481 10.7482 38.1548 10.6952 38.0711C10.6422 37.9874 10.5732 37.9151 10.4921 37.8582C10.411 37.8014 10.3194 37.7611 10.2227 37.7399V37.7399Z" fill="#028577"/>
<path d="M8.7076 43.545C8.61206 43.5203 8.51256 43.5146 8.41482 43.5283C8.31707 43.542 8.223 43.5749 8.13799 43.6251C8.05299 43.6753 7.97872 43.7417 7.91945 43.8206C7.86018 43.8996 7.81707 43.9894 7.7926 44.085L7.6051 44.835C7.55477 45.027 7.58254 45.231 7.68235 45.4025C7.78215 45.574 7.94586 45.699 8.1376 45.75C8.20239 45.7574 8.26781 45.7574 8.3326 45.75C8.50292 45.7554 8.67 45.7027 8.80632 45.6004C8.94264 45.4982 9.04008 45.3526 9.0826 45.1875L9.2776 44.4375C9.32004 44.2436 9.28388 44.0408 9.17703 43.8735C9.07019 43.7062 8.90138 43.5881 8.7076 43.545Z" fill="#028577"/>
<path d="M9.46484 40.6427C9.3693 40.6179 9.26981 40.6122 9.17206 40.6259C9.07432 40.6397 8.98024 40.6726 8.89524 40.7227C8.81023 40.7729 8.73596 40.8394 8.67669 40.9183C8.61742 40.9972 8.57431 41.0871 8.54984 41.1827L8.36234 41.9327C8.3363 42.0282 8.32943 42.128 8.34214 42.2262C8.35485 42.3244 8.38688 42.4191 8.43639 42.5049C8.48589 42.5907 8.55189 42.6658 8.63058 42.7259C8.70927 42.786 8.79908 42.83 8.89484 42.8552C8.95963 42.8626 9.02505 42.8626 9.08984 42.8552C9.26016 42.8606 9.42724 42.8078 9.56356 42.7056C9.69988 42.6033 9.79733 42.4577 9.83984 42.2927L10.0348 41.5427C10.057 41.4462 10.0597 41.3462 10.043 41.2486C10.0263 41.1509 9.99039 41.0576 9.9374 40.9739C9.8844 40.8902 9.81536 40.8179 9.73425 40.761C9.65314 40.7042 9.56158 40.664 9.46484 40.6427V40.6427Z" fill="#028577"/>
<path d="M12.5698 43.7173C12.3709 43.7173 12.1801 43.7963 12.0395 43.937C11.8988 44.0776 11.8198 44.2684 11.8198 44.4673V45.2173C11.8198 45.4162 11.8988 45.607 12.0395 45.7476C12.1801 45.8883 12.3709 45.9673 12.5698 45.9673C12.7687 45.9673 12.9595 45.8883 13.1002 45.7476C13.2408 45.607 13.3198 45.4162 13.3198 45.2173V44.4673C13.3198 44.2684 13.2408 44.0776 13.1002 43.937C12.9595 43.7963 12.7687 43.7173 12.5698 43.7173Z" fill="#028577"/>
<path d="M12.5698 40.7173C12.3709 40.7173 12.1801 40.7963 12.0395 40.937C11.8988 41.0776 11.8198 41.2684 11.8198 41.4673V42.2173C11.8198 42.4162 11.8988 42.607 12.0395 42.7476C12.1801 42.8883 12.3709 42.9673 12.5698 42.9673C12.7687 42.9673 12.9595 42.8883 13.1002 42.7476C13.2408 42.607 13.3198 42.4162 13.3198 42.2173V41.4673C13.3198 41.2684 13.2408 41.0776 13.1002 40.937C12.9595 40.7963 12.7687 40.7173 12.5698 40.7173Z" fill="#028577"/>
<path d="M12.5698 37.7173C12.3709 37.7173 12.1801 37.7963 12.0395 37.937C11.8988 38.0776 11.8198 38.2684 11.8198 38.4673V39.2173C11.8198 39.4162 11.8988 39.607 12.0395 39.7476C12.1801 39.8883 12.3709 39.9673 12.5698 39.9673C12.7687 39.9673 12.9595 39.8883 13.1002 39.7476C13.2408 39.607 13.3198 39.4162 13.3198 39.2173V38.4673C13.3198 38.2684 13.2408 38.0776 13.1002 37.937C12.9595 37.7963 12.7687 37.7173 12.5698 37.7173Z" fill="#028577"/>
<path d="M17.3474 44.0848C17.3228 43.9892 17.2796 43.8995 17.2203 43.8206C17.161 43.7418 17.0867 43.6754 17.0018 43.6253C16.9168 43.5751 16.8228 43.5422 16.7251 43.5284C16.6274 43.5146 16.528 43.5201 16.4324 43.5448C16.2395 43.5945 16.0742 43.7188 15.9729 43.8904C15.9228 43.9754 15.8899 44.0694 15.8761 44.1671C15.8622 44.2648 15.8678 44.3642 15.8924 44.4598L16.0799 45.2098C16.1224 45.3748 16.2199 45.5204 16.3562 45.6226C16.4925 45.7249 16.6596 45.7777 16.8299 45.7723C16.8922 45.7796 16.9551 45.7796 17.0174 45.7723C17.1139 45.7479 17.2045 45.7045 17.284 45.6447C17.3635 45.5849 17.4303 45.5099 17.4806 45.4241C17.5309 45.3382 17.5635 45.2433 17.5767 45.1447C17.5899 45.0461 17.5833 44.9458 17.5574 44.8498L17.3474 44.0848Z" fill="#028577"/>
<path d="M16.2374 42.8248C16.3338 42.8004 16.4244 42.7571 16.504 42.6973C16.5835 42.6375 16.6503 42.5625 16.7006 42.4767C16.7508 42.3908 16.7835 42.2958 16.7967 42.1972C16.8099 42.0986 16.8033 41.9984 16.7774 41.9023L16.5899 41.1523C16.5655 41.0559 16.5221 40.9653 16.4623 40.8858C16.4026 40.8063 16.3276 40.7394 16.2417 40.6892C16.1559 40.6389 16.0609 40.6062 15.9623 40.593C15.8637 40.5799 15.7634 40.5864 15.6674 40.6123C15.4756 40.6634 15.3119 40.7883 15.2121 40.9598C15.1123 41.1313 15.0846 41.3354 15.1349 41.5273L15.3224 42.2773C15.3649 42.4424 15.4623 42.588 15.5987 42.6902C15.735 42.7925 15.9021 42.8452 16.0724 42.8398C16.1278 42.8405 16.183 42.8355 16.2374 42.8248V42.8248Z" fill="#028577"/>
<path d="M15.4801 39.9224C15.5765 39.898 15.6671 39.8546 15.7466 39.7948C15.8262 39.7351 15.893 39.6601 15.9432 39.5742C15.9935 39.4884 16.0262 39.3934 16.0394 39.2948C16.0526 39.1962 16.046 39.0959 16.0201 38.9999L15.8251 38.2499C15.8071 38.148 15.7683 38.0508 15.711 37.9647C15.6537 37.8785 15.5792 37.8051 15.4921 37.7491C15.4051 37.6931 15.3074 37.6557 15.2052 37.6393C15.103 37.623 14.9985 37.6279 14.8983 37.6539C14.7981 37.6798 14.7044 37.7262 14.623 37.7902C14.5417 37.8541 14.4744 37.9342 14.4255 38.0254C14.3766 38.1166 14.3471 38.217 14.3388 38.3201C14.3306 38.4233 14.3438 38.5271 14.3776 38.6249L14.5651 39.3749C14.6076 39.5399 14.705 39.6855 14.8414 39.7878C14.9777 39.89 15.1448 39.9428 15.3151 39.9374C15.3704 39.9381 15.4257 39.9331 15.4801 39.9224V39.9224Z" fill="#028577"/>
</svg>
