<svg width="98" height="106" viewBox="0 0 98 106" fill="none" xmlns="http://www.w3.org/2000/svg">
<g filter="url(#filter0_d_1401_26548)">
<rect x="5" y="3" width="88" height="96" rx="4" fill="white"/>
<path d="M47.25 32.3902C47.25 35.4267 44.6991 37.9301 41.5 37.9301C38.3009 37.9301 35.75 35.4267 35.75 32.3902C35.75 31.682 36.1008 30.4514 36.7131 28.9019C37.3109 27.3892 38.1125 25.6811 38.9205 24.0684C39.7274 22.458 40.5351 20.9538 41.1415 19.8515C41.2709 19.6163 41.391 19.3996 41.5 19.2041C41.609 19.3996 41.7291 19.6163 41.8585 19.8515C42.4649 20.9538 43.2726 22.458 44.0795 24.0684C44.8875 25.6811 45.689 27.3892 46.2869 28.9019C46.8992 30.4514 47.25 31.682 47.25 32.3902Z" stroke="#028577" stroke-width="1.5"/>
<path fill-rule="evenodd" clip-rule="evenodd" d="M64.3137 33.9467C64.51 33.9543 64.7026 33.9617 64.891 33.9686L67.3234 34.0582L65.2464 35.3272C64.5787 35.7352 64.1968 36.3667 63.9613 37.2509C63.7318 38.1129 63.6626 39.1279 63.5834 40.2908C63.5788 40.3584 63.5742 40.4264 63.5694 40.495C63.4042 42.9025 63.1702 45.8487 60.8859 47.9993C59.3672 49.4291 57.2462 49.8628 55.25 49.8325C53.5952 49.8075 51.9434 49.4638 50.6135 49.0215C50.2926 50.5958 50.1132 52.4751 50.0664 54.7994C50.0455 55.8391 50.0325 56.6561 50.0537 57.7194C51.3863 57.5326 52.7951 57.5048 54.2047 57.6459C57.8237 58.0081 61.5752 59.4954 64.1871 62.4349L63.0907 63.4091C60.7805 60.809 57.4066 59.4404 54.0586 59.1053C51.4193 58.8411 48.8748 59.2265 46.9554 60.0876C48.2591 60.5374 49.5919 61.1504 50.9473 61.9449L50.2057 63.2102C48.3737 62.1364 46.6078 61.4272 44.926 61.0173C39.5699 59.7119 34.9558 61.42 31.6425 64.32L30.6766 63.2164C34.2262 60.1096 39.1983 58.227 44.9503 59.5168C45.9779 58.8363 47.2241 58.325 48.5928 57.9956C48.5647 56.823 48.5764 55.9598 48.5977 54.887C48.216 53.6528 47.7809 52.751 47.1799 52.0482C46.7966 52.6216 46.2579 53.271 45.511 53.8184C44.34 54.6765 42.7069 55.2469 40.4844 54.9616C38.3454 54.6871 37.0105 53.3665 35.9001 52.2442L35.8664 52.2101C34.7209 51.0522 33.8426 50.1644 32.5219 49.9948L30.8536 49.7807L32.1458 48.7041C32.2589 48.6099 32.405 48.4683 32.586 48.2929C33.6778 47.235 36.0368 44.9493 40.0379 44.4447C43.0423 44.0659 44.9388 44.9614 46.1008 46.4101C47.1292 47.6923 47.5005 49.3159 47.7035 50.4895C48.1104 50.8549 48.4567 51.2585 48.7575 51.7041C48.8694 50.4407 49.0386 49.3117 49.2713 48.2883C48.1607 47.1866 47.0951 45.5724 46.7827 43.7126C46.4308 41.6177 47.054 39.3125 49.4038 37.2299C51.6196 35.2662 54.4112 34.4229 57.1578 34.0803C59.6656 33.7674 62.2053 33.8654 64.3137 33.9467ZM50.9673 47.593C51.7827 44.8435 53.1798 43.05 55.3553 41.1822L54.3998 40.0694C52.2049 41.954 50.6719 43.8495 49.7367 46.6219C49.0224 45.7477 48.4274 44.6503 48.2291 43.4696C47.966 41.9036 48.3816 40.0956 50.3766 38.3276C52.2846 36.6367 54.7466 35.8591 57.3394 35.5357C59.3212 35.2884 61.3307 35.3111 63.1728 35.3726C62.884 35.8336 62.6852 36.3435 62.5441 36.8735C62.2764 37.8785 62.1986 39.0302 62.1232 40.1446C62.1176 40.2282 62.1119 40.3115 62.1062 40.3946C61.9366 42.8664 61.6929 45.2251 59.8806 46.9314C58.7568 47.9894 57.0862 48.3935 55.2722 48.366C53.7389 48.3428 52.1888 48.0109 50.9673 47.593ZM45.9398 49.3273C45.7299 48.6157 45.4269 47.914 44.9567 47.3278C44.1667 46.3428 42.8099 45.5735 40.2214 45.8999C37.143 46.2881 35.2451 47.8206 34.0602 48.9222C35.1782 49.4222 36.0279 50.2845 36.7865 51.0543C36.839 51.1075 36.891 51.1604 36.9427 51.2126C38.0676 52.3496 39.0847 53.3033 40.6711 53.5069C42.5217 53.7444 43.7774 53.2705 44.6441 52.6354C45.2863 52.1647 45.7414 51.5857 46.0627 51.0755C45.0126 50.39 43.5139 49.8797 41.2223 49.4232L41.5088 47.9848C43.3266 48.3469 44.775 48.7615 45.9398 49.3273Z" fill="#028577"/>
<path d="M28.7969 81.3199V72.7535H30.2031V81.3199H28.7969ZM35.6113 74.7106C35.7207 74.7106 35.8398 74.7164 35.9688 74.7281C36.0977 74.7399 36.209 74.7555 36.3027 74.775L36.1738 76.0641C36.0918 76.0406 35.9902 76.0231 35.8691 76.0114C35.752 75.9996 35.6465 75.9938 35.5527 75.9938C35.3066 75.9938 35.0723 76.0348 34.8496 76.1168C34.627 76.1949 34.4297 76.316 34.2578 76.4801C34.0859 76.6403 33.9512 76.8414 33.8535 77.0836C33.7559 77.3258 33.707 77.6071 33.707 77.9274V81.3199H32.3242V74.8336H33.4023L33.5898 75.9762H33.6543C33.7832 75.7457 33.9434 75.5348 34.1348 75.3434C34.3262 75.152 34.5449 74.9996 34.791 74.8864C35.041 74.7692 35.3145 74.7106 35.6113 74.7106ZM40.791 74.7106C40.9004 74.7106 41.0195 74.7164 41.1484 74.7281C41.2773 74.7399 41.3887 74.7555 41.4824 74.775L41.3535 76.0641C41.2715 76.0406 41.1699 76.0231 41.0488 76.0114C40.9316 75.9996 40.8262 75.9938 40.7324 75.9938C40.4863 75.9938 40.252 76.0348 40.0293 76.1168C39.8066 76.1949 39.6094 76.316 39.4375 76.4801C39.2656 76.6403 39.1309 76.8414 39.0332 77.0836C38.9355 77.3258 38.8867 77.6071 38.8867 77.9274V81.3199H37.5039V74.8336H38.582L38.7695 75.9762H38.834C38.9629 75.7457 39.123 75.5348 39.3145 75.3434C39.5059 75.152 39.7246 74.9996 39.9707 74.8864C40.2207 74.7692 40.4941 74.7106 40.791 74.7106ZM44.0605 74.8336V81.3199H42.6836V74.8336H44.0605ZM43.3809 72.3492C43.5918 72.3492 43.7734 72.4059 43.9258 72.5192C44.082 72.6324 44.1602 72.8278 44.1602 73.1051C44.1602 73.3785 44.082 73.5739 43.9258 73.691C43.7734 73.8043 43.5918 73.861 43.3809 73.861C43.1621 73.861 42.9766 73.8043 42.8242 73.691C42.6758 73.5739 42.6016 73.3785 42.6016 73.1051C42.6016 72.8278 42.6758 72.6324 42.8242 72.5192C42.9766 72.4059 43.1621 72.3492 43.3809 72.3492ZM47.8867 84.2028C47.0078 84.2028 46.334 84.0446 45.8652 83.7281C45.3965 83.4117 45.1621 82.9684 45.1621 82.3981C45.1621 81.9996 45.2871 81.6617 45.5371 81.3844C45.7871 81.111 46.1445 80.9215 46.6094 80.816C46.4336 80.7379 46.2812 80.6168 46.1523 80.4528C46.0273 80.2848 45.9648 80.0992 45.9648 79.8961C45.9648 79.6539 46.0332 79.4469 46.1699 79.275C46.3066 79.1031 46.5117 78.9371 46.7852 78.777C46.4453 78.6324 46.1719 78.3981 45.9648 78.0739C45.7617 77.7457 45.6602 77.361 45.6602 76.9196C45.6602 76.4508 45.7598 76.0524 45.959 75.7242C46.1582 75.3922 46.4492 75.1403 46.832 74.9684C47.2148 74.7926 47.6777 74.7047 48.2207 74.7047C48.3379 74.7047 48.4648 74.7125 48.6016 74.7281C48.7422 74.7399 48.8711 74.7555 48.9883 74.775C49.1094 74.7906 49.2012 74.8082 49.2637 74.8278H51.5078V75.5953L50.4062 75.8004C50.5117 75.9489 50.5957 76.1188 50.6582 76.3102C50.7207 76.4977 50.752 76.7028 50.752 76.9254C50.752 77.5973 50.5195 78.1266 50.0547 78.5133C49.5938 78.8961 48.957 79.0875 48.1445 79.0875C47.9492 79.0797 47.7598 79.0641 47.5762 79.0406C47.4355 79.1266 47.3281 79.2223 47.2539 79.3278C47.1797 79.4293 47.1426 79.5446 47.1426 79.6735C47.1426 79.7789 47.1797 79.8649 47.2539 79.9313C47.3281 79.9938 47.4375 80.0406 47.582 80.0719C47.7305 80.1031 47.9102 80.1188 48.1211 80.1188H49.2402C49.9512 80.1188 50.4941 80.2692 50.8691 80.5699C51.2441 80.8707 51.4316 81.3121 51.4316 81.8942C51.4316 82.6324 51.127 83.2008 50.5176 83.5992C49.9082 84.0016 49.0312 84.2028 47.8867 84.2028ZM47.9395 83.236C48.4199 83.236 48.8242 83.1891 49.1523 83.0953C49.4805 83.0016 49.7285 82.8668 49.8965 82.691C50.0645 82.5192 50.1484 82.3141 50.1484 82.0758C50.1484 81.8649 50.0957 81.7028 49.9902 81.5895C49.8848 81.4762 49.7266 81.3981 49.5156 81.3551C49.3047 81.3121 49.043 81.2906 48.7305 81.2906H47.7109C47.457 81.2906 47.2324 81.3297 47.0371 81.4078C46.8418 81.4899 46.6895 81.6071 46.5801 81.7594C46.4746 81.9117 46.4219 82.0953 46.4219 82.3102C46.4219 82.6071 46.5527 82.8356 46.8145 82.9957C47.0801 83.1559 47.4551 83.236 47.9395 83.236ZM48.209 78.1852C48.6113 78.1852 48.9102 78.0758 49.1055 77.8571C49.3008 77.6344 49.3984 77.3219 49.3984 76.9196C49.3984 76.4821 49.2969 76.1539 49.0938 75.9352C48.8945 75.7164 48.5977 75.6071 48.2031 75.6071C47.8164 75.6071 47.5215 75.7184 47.3184 75.941C47.1191 76.1637 47.0195 76.4938 47.0195 76.9313C47.0195 77.3258 47.1191 77.6344 47.3184 77.8571C47.5215 78.0758 47.8184 78.1852 48.209 78.1852ZM55.2344 74.7106C56.0547 74.7106 56.6738 74.8922 57.0918 75.2555C57.5137 75.6188 57.7246 76.1852 57.7246 76.9547V81.3199H56.7461L56.4824 80.4H56.4355C56.252 80.6344 56.0625 80.8278 55.8672 80.9801C55.6719 81.1324 55.4453 81.2457 55.1875 81.3199C54.9336 81.3981 54.623 81.4371 54.2559 81.4371C53.8691 81.4371 53.5234 81.3668 53.2188 81.2262C52.9141 81.0817 52.6738 80.8629 52.498 80.5699C52.3223 80.277 52.2344 79.9059 52.2344 79.4567C52.2344 78.7887 52.4824 78.2867 52.9785 77.9508C53.4785 77.6149 54.2324 77.4293 55.2402 77.3942L56.3652 77.3531V77.0133C56.3652 76.5641 56.2598 76.2438 56.0488 76.0524C55.8418 75.861 55.5488 75.7653 55.1699 75.7653C54.8457 75.7653 54.5312 75.8121 54.2266 75.9059C53.9219 75.9996 53.625 76.1149 53.3359 76.2516L52.8906 75.2789C53.207 75.111 53.5664 74.9742 53.9688 74.8688C54.375 74.7633 54.7969 74.7106 55.2344 74.7106ZM56.3594 78.2203L55.5215 78.2496C54.834 78.2731 54.3516 78.3903 54.0742 78.6012C53.7969 78.8121 53.6582 79.1012 53.6582 79.4684C53.6582 79.7887 53.7539 80.0231 53.9453 80.1715C54.1367 80.316 54.3887 80.3883 54.7012 80.3883C55.1777 80.3883 55.5723 80.2535 55.8848 79.984C56.2012 79.7106 56.3594 79.3102 56.3594 78.7828V78.2203ZM62.0664 80.3239C62.2461 80.3239 62.4238 80.3082 62.5996 80.277C62.7754 80.2418 62.9355 80.2008 63.0801 80.1539V81.1969C62.9277 81.2633 62.7305 81.3199 62.4883 81.3668C62.2461 81.4137 61.9941 81.4371 61.7324 81.4371C61.3652 81.4371 61.0352 81.3766 60.7422 81.2555C60.4492 81.1305 60.2168 80.9176 60.0449 80.6168C59.873 80.316 59.7871 79.9 59.7871 79.3688V75.8824H58.9023V75.2672L59.8516 74.7809L60.3027 73.3922H61.1699V74.8336H63.0273V75.8824H61.1699V79.3512C61.1699 79.6793 61.252 79.9235 61.416 80.0836C61.5801 80.2438 61.7969 80.3239 62.0664 80.3239ZM66.9824 74.7106C67.5605 74.7106 68.0566 74.8297 68.4707 75.068C68.8848 75.3063 69.2031 75.6442 69.4258 76.0817C69.6484 76.5192 69.7598 77.0426 69.7598 77.652V78.3903H65.4297C65.4453 79.0192 65.6133 79.5035 65.9336 79.8434C66.2578 80.1832 66.7109 80.3531 67.293 80.3531C67.707 80.3531 68.0781 80.3141 68.4062 80.236C68.7383 80.1539 69.0801 80.0348 69.4316 79.8785V80.9977C69.1074 81.15 68.7773 81.2614 68.4414 81.3317C68.1055 81.402 67.7031 81.4371 67.2344 81.4371C66.5977 81.4371 66.0371 81.3141 65.5527 81.068C65.0723 80.818 64.6953 80.4469 64.4219 79.9547C64.1523 79.4625 64.0176 78.8512 64.0176 78.1207C64.0176 77.3942 64.1406 76.777 64.3867 76.2692C64.6328 75.7614 64.9785 75.3746 65.4238 75.109C65.8691 74.8434 66.3887 74.7106 66.9824 74.7106ZM66.9824 75.7477C66.5488 75.7477 66.1973 75.8883 65.9277 76.1696C65.6621 76.4508 65.5059 76.8629 65.459 77.4059H68.4121C68.4082 77.0817 68.3535 76.7946 68.248 76.5446C68.1465 76.2946 67.9902 76.0992 67.7793 75.9586C67.5723 75.818 67.3066 75.7477 66.9824 75.7477Z" fill="#282B36"/>
<rect x="4.5" y="2.5" width="89" height="97" rx="4.5" stroke="#D4DAE3"/>
</g>
<defs>
<filter id="filter0_d_1401_26548" x="0" y="0" width="98" height="106" filterUnits="userSpaceOnUse" color-interpolation-filters="sRGB">
<feFlood flood-opacity="0" result="BackgroundImageFix"/>
<feColorMatrix in="SourceAlpha" type="matrix" values="0 0 0 0 0 0 0 0 0 0 0 0 0 0 0 0 0 0 127 0" result="hardAlpha"/>
<feOffset dy="2"/>
<feGaussianBlur stdDeviation="2"/>
<feColorMatrix type="matrix" values="0 0 0 0 0.4 0 0 0 0 0.45098 0 0 0 0 0.541176 0 0 0 0.25 0"/>
<feBlend mode="normal" in2="BackgroundImageFix" result="effect1_dropShadow_1401_26548"/>
<feBlend mode="normal" in="SourceGraphic" in2="effect1_dropShadow_1401_26548" result="shape"/>
</filter>
</defs>
</svg>
