<?xml version="1.0" encoding="utf-8"?>
<!-- Generator: Adobe Illustrator 27.0.0, SVG Export Plug-In . SVG Version: 6.00 Build 0)  -->
<svg version="1.1" id="Capa_1" xmlns="http://www.w3.org/2000/svg" xmlns:xlink="http://www.w3.org/1999/xlink" x="0px" y="0px"
	 viewBox="0 0 98 106" style="enable-background:new 0 0 98 106;" xml:space="preserve">
<style type="text/css">
	.st0{fill:#028577;}
	.st1{fill-rule:evenodd;clip-rule:evenodd;fill:#028577;}
</style>
<g>
	<path class="st0" d="M36,49c-6.2,0-11.2-4.9-11.2-10.9c0-1.4,0.6-3.6,1.8-6.5c0.9-2.4,2.2-5.2,3.9-8.5c1.5-2.9,2.9-5.6,3.9-7.3
		l1.8-3.2l1.8,3.2c1,1.7,2.4,4.4,3.9,7.3c1.6,3.3,2.9,6.1,3.9,8.5c1.2,2.9,1.8,5.1,1.8,6.5C47.3,44.1,42.2,49,36,49z M36,18
		c-0.9,1.7-2.1,3.9-3.3,6.3c-1.6,3.2-2.9,6-3.8,8.3c-1.4,3.6-1.6,5.1-1.6,5.6c0,4.6,3.9,8.3,8.6,8.3s8.6-3.7,8.6-8.3
		c0-0.5-0.2-2-1.6-5.6c-0.9-2.3-2.2-5.1-3.8-8.3C38.1,21.9,36.9,19.7,36,18z"/>
	<path class="st1" d="M75.5,40.8c0.3,0,0.7,0,1,0l4.2,0.2l-3.6,2.2c-1.2,0.7-1.8,1.8-2.2,3.3c-0.4,1.5-0.5,3.2-0.7,5.3
		c0,0.1,0,0.2,0,0.4c-0.3,4.2-0.7,9.3-4.6,13c-2.6,2.5-6.3,3.2-9.7,3.2c-2.9,0-5.7-0.6-8-1.4c-0.6,2.7-0.9,6-0.9,10
		c0,1.8-0.1,3.2,0,5c2.3-0.3,4.7-0.4,7.2-0.1c6.3,0.6,12.7,3.2,17.3,8.3l-1.9,1.7c-4-4.5-9.8-6.9-15.6-7.4c-4.6-0.5-9,0.2-12.3,1.7
		c2.3,0.8,4.6,1.8,6.9,3.2l-1.3,2.2c-3.2-1.9-6.2-3.1-9.1-3.8c-9.3-2.3-17.2,0.7-23,5.7l-1.7-1.9c6.1-5.4,14.7-8.6,24.7-6.4
		c1.8-1.2,3.9-2.1,6.3-2.6c0-2,0-3.5,0-5.4c-0.7-2.1-1.4-3.7-2.5-4.9c-0.7,1-1.6,2.1-2.9,3.1c-2,1.5-4.8,2.5-8.7,2
		c-3.7-0.5-6-2.8-7.9-4.7l-0.1-0.1c-2-2-3.5-3.5-5.8-3.8l-2.9-0.4l2.2-1.9c0.2-0.2,0.4-0.4,0.8-0.7c1.9-1.8,6-5.8,12.9-6.7
		c5.2-0.7,8.5,0.9,10.5,3.4c1.8,2.2,2.4,5,2.8,7.1c0.7,0.6,1.3,1.3,1.8,2.1c0.2-2.2,0.5-4.1,0.9-5.9c-1.9-1.9-3.8-4.7-4.3-7.9
		c-0.6-3.6,0.5-7.6,4.5-11.2c3.8-3.4,8.7-4.9,13.4-5.4C67.4,40.5,71.8,40.7,75.5,40.8z M52.4,64.4c1.4-4.8,3.8-7.9,7.6-11.1
		l-1.7-1.9c-3.8,3.3-6.4,6.5-8.1,11.3c-1.2-1.5-2.3-3.4-2.6-5.5c-0.5-2.7,0.3-5.8,3.7-8.9c3.3-2.9,7.6-4.3,12-4.8
		c3.4-0.4,6.9-0.4,10.1-0.3c-0.5,0.8-0.8,1.7-1.1,2.6c-0.5,1.7-0.6,3.7-0.7,5.7c0,0.1,0,0.3,0,0.4c-0.3,4.3-0.7,8.4-3.8,11.3
		c-1.9,1.8-4.8,2.5-8,2.5C57.2,65.7,54.5,65.1,52.4,64.4z M43.7,67.4C43.3,66.2,42.8,65,42,64c-1.4-1.7-3.7-3-8.2-2.5
		c-5.3,0.7-8.6,3.3-10.7,5.2c1.9,0.9,3.4,2.4,4.7,3.7c0.1,0.1,0.2,0.2,0.3,0.3c1.9,2,3.7,3.6,6.4,4c3.2,0.4,5.4-0.4,6.9-1.5
		c1.1-0.8,1.9-1.8,2.5-2.7c-1.8-1.2-4.4-2.1-8.4-2.9l0.5-2.5C39.2,65.7,41.7,66.4,43.7,67.4z"/>
</g>
</svg>
