<svg width="49" height="49" viewBox="0 0 49 49" fill="none" xmlns="http://www.w3.org/2000/svg">
<g id="moving">
<path id="Icon" d="M23.4932 10.1958H24.362C30.4564 10.1958 33.5037 10.1958 34.6604 11.2904C35.6603 12.2365 36.1035 13.6304 35.8335 14.9802C35.5212 16.5418 33.0334 18.3015 28.0577 21.8209L19.9286 27.5707C14.953 31.0901 12.4651 32.8498 12.1528 34.4114C11.8829 35.7612 12.326 37.1551 13.3259 38.1012C14.4826 39.1958 17.5299 39.1958 23.6244 39.1958H25.4932M16.4932 10.1958C16.4932 13.5095 13.8069 16.1958 10.4932 16.1958C7.17946 16.1958 4.49316 13.5095 4.49316 10.1958C4.49316 6.88209 7.17946 4.1958 10.4932 4.1958C13.8069 4.1958 16.4932 6.88209 16.4932 10.1958ZM44.4932 38.1958C44.4932 41.5095 41.8069 44.1958 38.4932 44.1958C35.1795 44.1958 32.4932 41.5095 32.4932 38.1958C32.4932 34.8821 35.1795 32.1958 38.4932 32.1958C41.8069 32.1958 44.4932 34.8821 44.4932 38.1958Z" stroke="#266F68" stroke-width="1.5" stroke-linecap="round" stroke-linejoin="round"/>
</g>
</svg>
