<svg width="24" height="24" viewBox="0 0 24 24" fill="none" xmlns="http://www.w3.org/2000/svg">
<path d="M18.6201 21.2902V21.1502C18.6201 19.0302 17.45 17.7502 14.77 17.2002" stroke="#028577" stroke-width="1.5" stroke-linecap="round" stroke-linejoin="round"/>
<path d="M8.82996 17.1504C6.16996 17.7104 5 18.9804 5 21.1004V21.2604" stroke="#028577" stroke-width="1.5" stroke-linecap="round" stroke-linejoin="round"/>
<path d="M14.4001 15.9902V18.0502C14.4001 18.3899 14.3332 18.7262 14.2029 19.0399C14.0726 19.3535 13.8816 19.6384 13.641 19.8781C13.4004 20.1178 13.1147 20.3077 12.8005 20.4367C12.4864 20.5658 12.1498 20.6316 11.8102 20.6302V20.6302C11.4705 20.6316 11.134 20.5658 10.8198 20.4367C10.5056 20.3077 10.22 20.1178 9.97937 19.8781C9.73873 19.6384 9.54776 19.3535 9.41748 19.0399C9.2872 18.7262 9.22021 18.3899 9.22021 18.0502V15.9902" stroke="#028577" stroke-width="1.5" stroke-linecap="round" stroke-linejoin="round"/>
<path d="M5.16992 7.84961H18.4699" stroke="#028577" stroke-width="1.5" stroke-linecap="round" stroke-linejoin="round"/>
<path d="M15.6802 7.11H7.97021L8.97021 2H14.6702L15.6802 7.11Z" stroke="#028577" stroke-width="1.5" stroke-linecap="round" stroke-linejoin="round"/>
<path d="M7.97009 7.83984C7.36606 8.65598 7.04 9.64449 7.04004 10.6598C7.04004 11.9285 7.54332 13.1453 8.43945 14.0434C9.33559 14.9414 10.5514 15.4472 11.8201 15.4498C13.0905 15.4498 14.3089 14.9452 15.2072 14.0469C16.1055 13.1486 16.6101 11.9302 16.6101 10.6598C16.6065 9.64348 16.277 8.65507 15.67 7.83984" stroke="#028577" stroke-width="1.5" stroke-linecap="round" stroke-linejoin="round"/>
</svg>
