<svg width="48" height="48" viewBox="0 0 48 48" fill="none" xmlns="http://www.w3.org/2000/svg">
<path d="M47.9261 40.039C47.9301 39.9899 47.9301 39.9405 47.9261 39.8914V39.8914L47.7507 31.8375C47.7507 31.62 47.6628 31.4114 47.5061 31.2576C47.3495 31.1038 47.1371 31.0174 46.9156 31.0174H43.2828C43.049 30.9436 42.3642 30.5909 41.813 30.312C39.9339 29.3525 37.3701 28.0484 35.7082 28.0484C35.5913 28.0484 35.4576 28.0484 35.3324 28.0484V27.95C34.3157 26.4704 32.9798 25.2287 31.4196 24.3131C29.8594 23.3975 28.1131 22.8303 26.3046 22.6518V12.81C32.7435 12.1785 34.1214 10.6038 34.6977 3.88673C34.7079 3.76598 34.6907 3.64451 34.6474 3.53107C34.604 3.41762 34.5357 3.315 34.4471 3.2306C34.3606 3.14332 34.254 3.07767 34.1363 3.03914C34.0186 3.00061 33.8933 2.99034 33.7707 3.00916L33.3531 3.05017C26.7556 3.79651 25.528 4.89551 24.7429 11.1287C23.5905 9.37355 21.5694 8.79124 17.5942 8.34015L17.1683 8.29094C17.0453 8.27712 16.9208 8.29031 16.8036 8.32957C16.6865 8.36883 16.5797 8.43318 16.4909 8.51795C16.4022 8.60272 16.3338 8.70581 16.2906 8.81974C16.2475 8.93367 16.2306 9.0556 16.2413 9.17671C16.8176 15.8856 18.2039 17.4602 24.6344 18.0918V22.619C21.6873 22.7165 18.8725 23.8441 16.6968 25.7988C14.5212 27.7535 13.1276 30.4068 12.7672 33.281L11.9321 33.0021L10.0447 32.3706C7.24698 31.4274 4.83346 30.6155 4.24887 30.4597C2.97947 30.107 2.08588 31.1814 1.74348 31.8703C1.52949 32.2976 1.45399 32.7791 1.52716 33.2498C1.60033 33.7205 1.81864 34.1579 2.15269 34.503C2.22417 34.5984 2.31895 34.6745 2.42828 34.7245L21.1101 44.1808C22.1692 44.7168 23.3428 44.998 24.5342 45.001C25.2869 44.9971 26.035 44.8866 26.7556 44.6729L39.8838 40.6952H47.1161C47.1659 40.7028 47.2166 40.7028 47.2664 40.6952H47.425C47.4727 40.6699 47.5175 40.6396 47.5587 40.6049C47.6051 40.5777 47.6497 40.5476 47.6923 40.5147L47.7842 40.3835C47.7842 40.3835 47.8426 40.3015 47.8677 40.2523C47.8954 40.1836 47.915 40.1121 47.9261 40.039V40.039ZM32.8938 4.77249C32.3844 9.69341 31.4407 10.653 26.3714 11.1533C27.0145 5.98632 27.6325 5.3794 32.9022 4.77249H32.8938ZM17.9617 10.0379C23.223 10.6612 23.8076 11.2681 24.484 16.4433C19.4148 15.943 18.4711 15.008 17.9617 10.0379ZM25.0102 24.2429C26.6655 24.2435 28.298 24.6217 29.7791 25.3475C31.2602 26.0734 32.5494 27.1271 33.5452 28.4257C31.2598 29.1659 29.0277 30.0564 26.8642 31.0912L26.5886 31.2224H19.206C19.1559 31.2224 19.0891 31.2224 19.0975 31.2224H19.0056C18.1847 31.3161 17.4091 31.6419 16.7731 32.1602C16.1371 32.6785 15.6681 33.367 15.4229 34.1421L14.3456 33.7813C14.5933 31.1722 15.824 28.748 17.7967 26.9836C19.7695 25.2192 22.342 24.2418 25.0102 24.2429V24.2429ZM39.8087 39.0467L39.5665 39.0877H39.4496L26.2629 43.0982C24.8077 43.5435 23.2326 43.408 21.8784 42.7209L3.33022 33.3548C3.17155 33.1252 3.04628 32.8463 3.17155 32.6331C3.17155 32.6331 3.17155 32.6331 3.17155 32.5675C3.29682 32.3296 3.57241 31.9851 3.72273 32.018C4.25722 32.1656 6.77096 33.0103 9.43502 33.9043L11.3141 34.544L15.6901 36.0039H15.7402C16.6171 36.2992 17.4105 36.5452 17.9951 36.7338L18.2623 36.8158C18.4185 36.8669 18.5822 36.8919 18.7467 36.8897H28.8768C29.0983 36.8897 29.3107 36.8033 29.4674 36.6494C29.624 36.4956 29.712 36.287 29.712 36.0695C29.712 35.852 29.624 35.6434 29.4674 35.4896C29.3107 35.3358 29.0983 35.2494 28.8768 35.2494H18.8553H18.7634L18.6298 35.2001L17.0514 34.6916C17.1956 34.2139 17.4786 33.7879 17.8658 33.466C18.253 33.144 18.7275 32.94 19.2311 32.8791H26.7974C26.9179 32.876 27.0368 32.851 27.1481 32.8053L27.5991 32.6003C31.7747 30.6647 34.5474 29.6887 35.7416 29.6887C36.9358 29.6887 39.5498 30.9846 41.0697 31.7637C41.7177 32.1874 42.4396 32.4905 43.1993 32.6577H46.0972L46.2642 39.0549H39.8087V39.0467Z" fill="#028577"/>
</svg>
