<svg width="48" height="48" viewBox="0 0 48 48" fill="none" xmlns="http://www.w3.org/2000/svg">
<path d="M42.0161 40.9144C41.6961 39.4976 40.8979 38.2306 39.7528 37.3215C38.6077 36.4124 37.1837 35.9153 35.7149 35.9119C35.2986 35.9131 34.8834 35.9548 34.4754 36.0366C34.41 34.8064 33.9041 33.6393 33.0483 32.7437C32.1924 31.8481 31.0423 31.2823 29.8033 31.1474C28.5643 31.0126 27.3171 31.3174 26.2846 32.0074C25.252 32.6974 24.5012 33.7278 24.1664 34.9144C23.5413 34.8443 22.9084 34.9305 22.3258 35.1651C21.7432 35.3997 21.2295 35.7752 20.8321 36.2572C20.4346 36.7391 20.1659 37.312 20.0508 37.9232C19.9358 38.5344 19.9779 39.1645 20.1734 39.7554C19.3507 40.19 18.6616 40.8355 18.1784 41.6241C17.6952 42.4126 17.4357 43.3152 17.4272 44.2371C17.427 44.4254 17.5001 44.6067 17.6313 44.7432C17.7626 44.8798 17.942 44.9612 18.1323 44.9706H44.3021C44.3996 44.9683 44.4956 44.947 44.5848 44.908C44.6739 44.869 44.7544 44.813 44.8216 44.7432C44.8882 44.6717 44.9386 44.5869 44.9693 44.4945C45 44.4022 45.0104 44.3044 44.9998 44.2078C44.9244 43.4156 44.5939 42.6682 44.0568 42.0754C43.5198 41.4826 42.8045 41.0757 42.0161 40.9144V40.9144ZM18.9116 43.5843C19.0388 42.9506 19.3289 42.36 19.7539 41.8693C20.179 41.3785 20.7247 41.0042 21.3386 40.7823C21.4332 40.7446 21.519 40.688 21.5905 40.6161C21.662 40.5442 21.7178 40.4584 21.7542 40.3642C21.7899 40.2699 21.8037 40.169 21.7947 40.0687C21.7857 39.9684 21.7541 39.8714 21.7023 39.7848C21.5004 39.4305 21.3958 39.0302 21.3988 38.6236C21.4018 38.217 21.5123 37.8182 21.7193 37.4668C21.9264 37.1154 22.2227 36.8236 22.5791 36.6204C22.9354 36.4171 23.3393 36.3094 23.7507 36.308C24.003 36.3064 24.2538 36.346 24.4929 36.4254C24.5915 36.4604 24.6969 36.4728 24.8011 36.4617C24.9052 36.4505 25.0055 36.4161 25.0942 36.3609C25.1828 36.3058 25.2577 36.2314 25.313 36.1435C25.3682 36.0555 25.4025 35.9562 25.4133 35.8532C25.5183 34.8802 25.999 33.9848 26.7555 33.3534C27.5119 32.722 28.4857 32.4034 29.4739 32.4639C30.4621 32.5244 31.3886 32.9594 32.0604 33.6782C32.7322 34.397 33.0975 35.3443 33.0801 36.3227C33.0766 36.5019 33.0618 36.6807 33.0356 36.8581C33.0204 36.9758 33.0362 37.0954 33.0815 37.2053C33.1267 37.3152 33.1999 37.4117 33.2939 37.4854C33.388 37.5592 33.4997 37.6077 33.6182 37.6263C33.7368 37.6449 33.8582 37.633 33.9708 37.5916C34.6807 37.3359 35.4397 37.241 36.1917 37.314C36.9438 37.3869 37.6696 37.6258 38.3157 38.013C38.9619 38.4002 39.5117 38.9259 39.9248 39.5512C40.3379 40.1765 40.6037 40.8855 40.7025 41.6259C40.7233 41.7869 40.8009 41.9356 40.9218 42.0456C41.0426 42.1556 41.1989 42.22 41.363 42.2273C41.7927 42.2501 42.2079 42.3886 42.5637 42.6278C42.9195 42.867 43.2024 43.1977 43.3818 43.5843H18.9116Z" fill="#028577"/>
<path d="M25.933 38.2158C25.4951 38.2158 25.0615 38.3013 24.6571 38.4674C24.2527 38.6334 23.8855 38.8768 23.5766 39.1835C23.2676 39.4902 23.023 39.8541 22.8568 40.2545C22.6906 40.6549 22.606 41.0838 22.6079 41.5166C22.6079 41.7014 22.6822 41.8786 22.8145 42.0093C22.9467 42.14 23.126 42.2134 23.313 42.2134C23.5 42.2134 23.6794 42.14 23.8116 42.0093C23.9438 41.8786 24.0181 41.7014 24.0181 41.5166C24.0108 41.1506 24.111 40.7904 24.3067 40.4795C24.5023 40.1687 24.785 39.9207 25.1204 39.7654C25.4558 39.6101 25.8296 39.5543 26.1964 39.6048C26.5633 39.6552 26.9075 39.8097 27.1873 40.0496C27.3318 40.1625 27.5136 40.2183 27.6974 40.2061C27.8812 40.1939 28.0539 40.1146 28.1818 39.9835C28.2862 39.839 28.3339 39.6619 28.3161 39.4852C28.2984 39.3085 28.2164 39.1442 28.0853 39.0227C27.4887 38.5079 26.725 38.2216 25.933 38.2158V38.2158Z" fill="#028577"/>
<path d="M35.9599 38.582C35.2459 38.5884 34.5582 38.8488 34.0228 39.3155C33.9522 39.3752 33.8945 39.4482 33.8529 39.5302C33.8112 39.6122 33.7866 39.7016 33.7804 39.7931C33.7742 39.8846 33.7865 39.9765 33.8166 40.0632C33.8468 40.15 33.8942 40.23 33.956 40.2984C34.0157 40.3679 34.0889 40.4248 34.1712 40.4659C34.2536 40.5069 34.3434 40.5312 34.4354 40.5374C34.5274 40.5435 34.6198 40.5314 34.707 40.5017C34.7942 40.472 34.8745 40.4253 34.9431 40.3644C35.2226 40.1288 35.5777 39.9988 35.945 39.9977C36.3358 40.007 36.7079 40.1645 36.9842 40.4377C37.2606 40.7108 37.42 41.0785 37.4294 41.4647C37.4782 41.6114 37.5727 41.7392 37.6993 41.8298C37.8259 41.9204 37.9782 41.9691 38.1345 41.9691C38.2908 41.9691 38.4431 41.9204 38.5697 41.8298C38.6964 41.7392 38.7908 41.6114 38.8396 41.4647C38.8266 40.7105 38.5201 39.9902 37.9839 39.4534C37.4477 38.9166 36.7228 38.6046 35.9599 38.582Z" fill="#028577"/>
<path d="M29.1317 34.4815C28.5651 34.4799 28.017 34.6804 27.588 35.0462C27.5154 35.1056 27.4556 35.1787 27.4122 35.2613C27.3687 35.3439 27.3424 35.4342 27.3348 35.527C27.3272 35.6198 27.3385 35.7131 27.3681 35.8015C27.3976 35.8899 27.4448 35.9715 27.5067 36.0416C27.5687 36.1117 27.6443 36.1688 27.729 36.2095C27.8137 36.2503 27.9057 36.2738 27.9998 36.2788C28.0939 36.2838 28.188 36.2701 28.2766 36.2386C28.3652 36.207 28.4465 36.1583 28.5157 36.0951C28.6534 35.9758 28.8234 35.899 29.0048 35.8742C29.1862 35.8495 29.371 35.878 29.5362 35.9561C29.7014 36.0342 29.8397 36.1585 29.9341 36.3136C30.0284 36.4688 30.0746 36.6478 30.0669 36.8286C30.0568 36.9257 30.0674 37.0237 30.098 37.1164C30.1287 37.2091 30.1787 37.2944 30.2448 37.3668C30.3109 37.4393 30.3917 37.4971 30.4818 37.5368C30.572 37.5764 30.6696 37.5969 30.7683 37.5969C30.867 37.5969 30.9646 37.5764 31.0547 37.5368C31.1449 37.4971 31.2257 37.4393 31.2918 37.3668C31.3579 37.2944 31.4079 37.2091 31.4385 37.1164C31.4692 37.0237 31.4798 36.9257 31.4697 36.8286C31.4746 36.5221 31.4177 36.2178 31.3025 35.9332C31.1872 35.6486 31.0157 35.3896 30.7982 35.1711C30.5806 34.9527 30.3212 34.7792 30.0351 34.6608C29.749 34.5424 29.4419 34.4814 29.1317 34.4815V34.4815Z" fill="#028577"/>
<path d="M20.8342 29.78H5.00319C4.06947 29.7742 3.17623 29.4026 2.51947 28.7466C1.86271 28.0907 1.49608 27.204 1.50003 26.2813V11.4426C1.49804 10.5204 1.8653 9.63491 2.52164 8.97939C3.17798 8.32387 4.07009 7.9516 5.00319 7.94385H6.01999C6.21684 7.94385 6.40562 8.02113 6.5448 8.15868C6.68399 8.29624 6.76219 8.48281 6.76219 8.67734C6.76219 8.87188 6.68399 9.05845 6.5448 9.196C6.40562 9.33356 6.21684 9.41084 6.01999 9.41084H5.00319C4.46378 9.41856 3.94922 9.63626 3.57125 10.0167C3.19328 10.3971 2.98241 10.9095 2.98442 11.4426V26.3106C2.98828 26.8392 3.20198 27.3452 3.57953 27.7197C3.95708 28.0942 4.4683 28.3073 5.00319 28.313H20.8342C21.1013 28.3102 21.3651 28.2553 21.6107 28.1517C21.8564 28.048 22.0789 27.8975 22.2657 27.7089C22.4525 27.5202 22.5998 27.297 22.6993 27.0521C22.7988 26.8071 22.8485 26.5452 22.8455 26.2813V21.3668C22.8455 21.1723 22.9237 20.9857 23.0629 20.8482C23.2021 20.7106 23.3909 20.6333 23.5877 20.6333C23.7846 20.6333 23.9734 20.7106 24.1125 20.8482C24.2517 20.9857 24.3299 21.1723 24.3299 21.3668V26.2813C24.3329 26.7378 24.2448 27.1905 24.0707 27.6134C23.8966 28.0364 23.6399 28.4213 23.3153 28.7462C22.9907 29.0711 22.6045 29.3296 22.1788 29.507C21.7531 29.6844 21.2962 29.7772 20.8342 29.78V29.78Z" fill="#028577"/>
<path d="M23.5878 16.1957C23.391 16.1957 23.2022 16.1184 23.063 15.9809C22.9238 15.8433 22.8456 15.6567 22.8456 15.4622V11.4426C22.8516 10.9089 22.6432 10.3946 22.2662 10.0124C21.8892 9.6302 21.3743 9.41125 20.8343 9.40352H19.8101C19.6132 9.40352 19.4244 9.32624 19.2853 9.18868C19.1461 9.05112 19.0679 8.86456 19.0679 8.67002C19.0679 8.47548 19.1461 8.28892 19.2853 8.15136C19.4244 8.0138 19.6132 7.93652 19.8101 7.93652H20.8343C21.768 7.94428 22.6605 8.31779 23.3158 8.97511C23.9712 9.63243 24.336 10.5198 24.33 11.4426V15.4549C24.331 15.5518 24.3125 15.648 24.2757 15.7378C24.2388 15.8277 24.1843 15.9094 24.1153 15.9783C24.0463 16.0472 23.9641 16.1018 23.8736 16.1392C23.783 16.1765 23.6859 16.1957 23.5878 16.1957Z" fill="#028577"/>
<path d="M18.4369 12.0147H7.42277C6.8545 12.0128 6.31006 11.7888 5.90823 11.3917C5.5064 10.9946 5.27979 10.4565 5.27783 9.8949V7.0416C5.2798 6.48067 5.50665 5.94337 5.90869 5.54741C6.31073 5.15146 6.85518 4.92913 7.42277 4.92913H9.24857C9.4653 4.35995 9.85317 3.86999 10.36 3.52513C10.8669 3.18026 11.4684 2.99702 12.0838 3.00004H13.7537C14.3686 2.99909 14.9692 3.18315 15.4756 3.52775C15.982 3.87234 16.3704 4.36114 16.5889 4.92913H18.4369C19 4.93493 19.538 5.16005 19.934 5.55559C20.3301 5.95113 20.5522 6.48513 20.5522 7.0416V9.92424C20.5445 10.4763 20.3192 11.0036 19.9242 11.394C19.5291 11.7844 18.9955 12.0071 18.4369 12.0147V12.0147ZM7.42277 6.36679C7.24886 6.36677 7.08196 6.43454 6.9583 6.55539C6.83463 6.67623 6.76417 6.8404 6.76222 7.01226V9.8949C6.76222 10.068 6.83181 10.2341 6.95569 10.3565C7.07957 10.4789 7.24758 10.5477 7.42277 10.5477H18.4369C18.5233 10.5477 18.6089 10.5308 18.6886 10.4979C18.7683 10.465 18.8407 10.4168 18.9014 10.3561C18.9622 10.2954 19.0101 10.2233 19.0425 10.1442C19.0749 10.065 19.091 9.98028 19.0901 9.8949V7.0416C19.0941 6.9544 19.0802 6.8673 19.0491 6.78557C19.0181 6.70384 18.9706 6.62917 18.9096 6.56609C18.8485 6.50301 18.7752 6.45283 18.6939 6.41857C18.6127 6.38431 18.5253 6.36669 18.4369 6.36679H16.0174C15.8384 6.36878 15.6647 6.30679 15.5283 6.19222C15.3919 6.07764 15.302 5.91822 15.2752 5.74331C15.2217 5.38042 15.0377 5.04872 14.7569 4.80895C14.4761 4.56918 14.1173 4.43738 13.7463 4.43769H12.0838C11.7118 4.43714 11.3521 4.56868 11.0701 4.80834C10.7881 5.04799 10.6026 5.37981 10.5474 5.74331C10.5206 5.91822 10.4307 6.07764 10.2943 6.19222C10.1579 6.30679 9.98421 6.36878 9.80522 6.36679H7.42277Z" fill="#028577"/>
<path d="M16.9526 25.7018C16.8307 25.7086 16.7089 25.6856 16.5981 25.6347C16.4872 25.5839 16.3909 25.5068 16.3174 25.4102C16.244 25.3137 16.1958 25.2008 16.1772 25.0815C16.1585 24.9622 16.1699 24.8401 16.2105 24.7262L17.8359 20.1859C17.8731 20.0808 17.934 19.9855 18.014 19.9071L29.1172 8.96338C29.43 8.65655 29.8529 8.48438 30.2936 8.48438C30.7343 8.48437 31.1572 8.65655 31.47 8.96338L33.1696 10.6431C33.4801 10.9522 33.6543 11.3701 33.6543 11.8057C33.6543 12.2412 33.4801 12.6591 33.1696 12.9683L22.0886 23.912C22.0116 23.9939 21.9144 24.0545 21.8066 24.0881L17.1827 25.6651C17.1085 25.6892 17.0308 25.7016 16.9526 25.7018ZM19.1792 20.8313L18.1253 23.7653L21.1312 22.7458L32.1231 11.9267C32.1544 11.894 32.1719 11.8507 32.1719 11.8057C32.1719 11.7607 32.1544 11.7173 32.1231 11.6847L30.416 9.9756C30.383 9.94465 30.3391 9.9274 30.2936 9.9274C30.248 9.9274 30.2042 9.94465 30.1711 9.9756L19.1792 20.8313Z" fill="#028577"/>
<path d="M31.3212 14.4865C31.2236 14.4871 31.1267 14.4686 31.0363 14.4321C30.9459 14.3956 30.8636 14.3418 30.7943 14.2738L27.8255 11.3398C27.7559 11.2716 27.7007 11.1905 27.663 11.1011C27.6254 11.0117 27.606 10.9159 27.606 10.819C27.606 10.7222 27.6254 10.6263 27.663 10.537C27.7007 10.4476 27.7559 10.3664 27.8255 10.2983C27.9646 10.1616 28.1527 10.085 28.3487 10.085C28.5448 10.085 28.7329 10.1616 28.872 10.2983L31.8408 13.2322C31.9429 13.3352 32.0121 13.4656 32.0396 13.6072C32.0671 13.7488 32.0518 13.8953 31.9956 14.0284C31.9394 14.1614 31.8447 14.2751 31.7235 14.3553C31.6022 14.4355 31.4597 14.4786 31.3138 14.4792L31.3212 14.4865Z" fill="#028577"/>
<path d="M21.5688 24.1325C21.4706 24.1321 21.3735 24.1125 21.283 24.0747C21.1925 24.0369 21.1106 23.9818 21.0418 23.9125L18.0731 20.9785C18.0035 20.9103 17.9483 20.8292 17.9106 20.7398C17.8729 20.6504 17.8535 20.5545 17.8535 20.4577C17.8535 20.3609 17.8729 20.265 17.9106 20.1756C17.9483 20.0862 18.0035 20.0051 18.0731 19.9369C18.2121 19.8003 18.4002 19.7236 18.5963 19.7236C18.7924 19.7236 18.9805 19.8003 19.1195 19.9369L22.0883 22.9076C22.2266 23.045 22.3041 23.2309 22.3041 23.4247C22.3041 23.6185 22.2266 23.8044 22.0883 23.9418C21.9466 24.0693 21.7604 24.1376 21.5688 24.1325V24.1325Z" fill="#028577"/>
<path d="M16.9527 15.8439H5.7085C5.51166 15.8439 5.32288 15.7667 5.18369 15.6291C5.0445 15.4916 4.96631 15.305 4.96631 15.1104C4.96631 14.9159 5.0445 14.7293 5.18369 14.5918C5.32288 14.4542 5.51166 14.377 5.7085 14.377H16.9527C17.1496 14.377 17.3384 14.4542 17.4776 14.5918C17.6167 14.7293 17.6949 14.9159 17.6949 15.1104C17.6949 15.305 17.6167 15.4916 17.4776 15.6291C17.3384 15.7667 17.1496 15.8439 16.9527 15.8439Z" fill="#028577"/>
<path d="M13.9019 20.5744H5.51514C5.3183 20.5744 5.12952 20.4971 4.99033 20.3596C4.85114 20.222 4.77295 20.0355 4.77295 19.8409C4.77295 19.6464 4.85114 19.4598 4.99033 19.3223C5.12952 19.1847 5.3183 19.1074 5.51514 19.1074H13.9019C14.0988 19.1074 14.2876 19.1847 14.4267 19.3223C14.5659 19.4598 14.6441 19.6464 14.6441 19.8409C14.6441 20.0355 14.5659 20.222 14.4267 20.3596C14.2876 20.4971 14.0988 20.5744 13.9019 20.5744Z" fill="#028577"/>
<path d="M13.9022 25.2838H5.51545C5.40398 25.32 5.2854 25.3296 5.16946 25.3118C5.05352 25.2939 4.94352 25.2492 4.84847 25.1812C4.75342 25.1132 4.67604 25.0239 4.62268 24.9206C4.56933 24.8173 4.5415 24.703 4.5415 24.587C4.5415 24.471 4.56933 24.3567 4.62268 24.2535C4.67604 24.1502 4.75342 24.0609 4.84847 23.9929C4.94352 23.9249 5.05352 23.8801 5.16946 23.8623C5.2854 23.8444 5.40398 23.854 5.51545 23.8902H13.9022C14.0137 23.854 14.1323 23.8444 14.2482 23.8623C14.3642 23.8801 14.4742 23.9249 14.5692 23.9929C14.6643 24.0609 14.7416 24.1502 14.795 24.2535C14.8484 24.3567 14.8762 24.471 14.8762 24.587C14.8762 24.703 14.8484 24.8173 14.795 24.9206C14.7416 25.0239 14.6643 25.1132 14.5692 25.1812C14.4742 25.2492 14.3642 25.2939 14.2482 25.3118C14.1323 25.3296 14.0137 25.32 13.9022 25.2838Z" fill="#028577"/>
</svg>
