<svg width="48" height="48" viewBox="0 0 48 48" fill="none" xmlns="http://www.w3.org/2000/svg">
<path d="M27.6001 20.5048C28.4014 20.5063 29.1852 20.27 29.8522 19.8259C30.5192 19.3818 31.0395 18.7498 31.3472 18.0099C31.6549 17.2699 31.7361 16.4554 31.5807 15.6693C31.4253 14.8832 31.0402 14.1608 30.4741 13.5937C29.9079 13.0265 29.1863 12.64 28.4005 12.4832C27.6147 12.3263 26.8 12.406 26.0595 12.7124C25.319 13.0187 24.686 13.5378 24.2407 14.2039C23.7953 14.8701 23.5576 15.6534 23.5576 16.4548C23.5576 17.5276 23.9833 18.5566 24.7412 19.3159C25.4991 20.0752 26.5273 20.5028 27.6001 20.5048ZM27.6001 13.9123C28.1051 13.9108 28.5991 14.0593 29.0196 14.3389C29.4401 14.6185 29.7681 15.0167 29.9621 15.483C30.156 15.9492 30.2071 16.4626 30.109 16.9579C30.0108 17.4533 29.7678 17.9083 29.4107 18.2654C29.0537 18.6225 28.5986 18.8655 28.1032 18.9636C27.6079 19.0618 27.0946 19.0107 26.6283 18.8167C26.162 18.6228 25.7639 18.2948 25.4842 17.8743C25.2046 17.4538 25.0561 16.9598 25.0576 16.4548C25.0596 15.7811 25.3281 15.1355 25.8045 14.6591C26.2809 14.1828 26.9264 13.9143 27.6001 13.9123V13.9123Z" fill="#028577"/>
<path d="M41.3098 10.26C41.2337 10.0768 41.0881 9.93113 40.9048 9.85502L34.5448 7.26752V5.33252C34.5448 5.13361 34.4658 4.94284 34.3251 4.80219C34.1845 4.66154 33.9937 4.58252 33.7948 4.58252H21.1648C20.9659 4.58252 20.7751 4.66154 20.6345 4.80219C20.4938 4.94284 20.4148 5.13361 20.4148 5.33252V19.335L20.1523 19.4925L13.3198 24.3825H6.56982C6.37091 24.3825 6.18015 24.4615 6.03949 24.6022C5.89884 24.7428 5.81982 24.9336 5.81982 25.1325V37.965C5.81982 38.1639 5.89884 38.3547 6.03949 38.4953C6.18015 38.636 6.37091 38.715 6.56982 38.715H13.6348L17.9998 41.1075C18.9063 41.5214 19.8909 41.7362 20.8873 41.7375H23.7448H23.8198H32.5723C33.368 41.7375 34.131 41.4214 34.6936 40.8588C35.2562 40.2962 35.5723 39.5332 35.5723 38.7375C35.5719 38.1175 35.375 37.5136 35.0098 37.0125C35.5418 36.7804 35.995 36.3989 36.3145 35.9143C36.634 35.4298 36.806 34.8629 36.8098 34.2825C36.8132 33.8559 36.7237 33.4337 36.5476 33.0452C36.3715 32.6566 36.1129 32.3111 35.7898 32.0325C36.1102 31.7565 36.3673 31.4146 36.5435 31.0302C36.7198 30.6458 36.811 30.2279 36.811 29.805C36.811 29.3821 36.7198 28.9642 36.5435 28.5798C36.3673 28.1954 36.1102 27.8535 35.7898 27.5775C36.3686 27.0778 36.73 26.3722 36.7972 25.6105C36.8644 24.8488 36.6322 24.0909 36.1498 23.4975L39.8998 14.22L41.2798 10.8225C41.3625 10.646 41.3733 10.4443 41.3098 10.26ZM38.8573 12.8925C38.4394 12.5855 38.1126 12.1708 37.9118 11.6927C37.7111 11.2145 37.6438 10.6909 37.7173 10.1775L39.6448 10.9275L38.8573 12.8925ZM36.2923 9.59252C36.0927 10.4858 36.1736 11.4189 36.524 12.2645C36.8743 13.1102 37.477 13.8271 38.2498 14.3175L34.8823 22.635L34.5448 22.5V9.00002V8.86502L36.2923 9.59252ZM21.9148 19.7925V9.70502C22.8189 9.54941 23.6526 9.11759 24.3012 8.46892C24.9499 7.82025 25.3817 6.98658 25.5373 6.08252H29.4298C29.585 6.98554 30.0157 7.81844 30.6629 8.467C31.3101 9.11556 32.1421 9.548 33.0448 9.70502V22.455H21.9148V19.7925ZM33.0448 8.16752C32.5486 8.02778 32.0967 7.76252 31.7328 7.39731C31.3689 7.0321 31.1053 6.57928 30.9673 6.08252H33.0448V8.16752ZM23.9998 6.08252C23.868 6.58231 23.6064 7.03839 23.2416 7.40454C22.8768 7.77069 22.4216 8.03391 21.9223 8.16752V6.08252H23.9998ZM31.7473 26.8875C31.5484 26.8875 31.3576 26.9665 31.217 27.1072C31.0763 27.2478 30.9973 27.4386 30.9973 27.6375C30.9973 27.8364 31.0763 28.0272 31.217 28.1678C31.3576 28.3085 31.5484 28.3875 31.7473 28.3875H33.8098C34.1575 28.4484 34.4725 28.63 34.6995 28.9002C34.9265 29.1704 35.051 29.5121 35.051 29.865C35.051 30.218 34.9265 30.5596 34.6995 30.8298C34.4725 31.1001 34.1575 31.2816 33.8098 31.3425H31.8223C31.6234 31.3425 31.4326 31.4215 31.292 31.5622C31.1513 31.7028 31.0723 31.8936 31.0723 32.0925C31.0723 32.2914 31.1513 32.4822 31.292 32.6228C31.4326 32.7635 31.6234 32.8425 31.8223 32.8425H33.8098C34.1575 32.9034 34.4725 33.085 34.6995 33.3552C34.9265 33.6254 35.051 33.9671 35.051 34.32C35.051 34.673 34.9265 35.0146 34.6995 35.2848C34.4725 35.5551 34.1575 35.7366 33.8098 35.7975H31.7173C31.5184 35.7975 31.3276 35.8765 31.187 36.0172C31.0463 36.1578 30.9673 36.3486 30.9673 36.5475C30.9673 36.7464 31.0463 36.9372 31.187 37.0778C31.3276 37.2185 31.5184 37.2975 31.7173 37.2975H32.5723C32.92 37.3584 33.235 37.54 33.462 37.8102C33.689 38.0804 33.8135 38.4221 33.8135 38.775C33.8135 39.128 33.689 39.4696 33.462 39.7398C33.235 40.0101 32.92 40.1916 32.5723 40.2525H23.8048H23.7298H20.8723C20.107 40.2483 19.3519 40.0768 18.6598 39.75L14.2498 37.305C14.137 37.2441 14.0105 37.2131 13.8823 37.215H7.34232V25.8825H13.5598C13.7161 25.8815 13.8682 25.8317 13.9948 25.74L20.4148 21.1425V23.1825C20.4148 23.3814 20.4938 23.5722 20.6345 23.7128C20.7751 23.8535 20.9659 23.9325 21.1648 23.9325H33.8173C34.165 23.9934 34.48 24.175 34.707 24.4452C34.934 24.7154 35.0585 25.0571 35.0585 25.41C35.0585 25.763 34.934 26.1046 34.707 26.3748C34.48 26.6451 34.165 26.8266 33.8173 26.8875H31.7473Z" fill="#028577"/>
</svg>
