<svg width="48" height="48" viewBox="0 0 48 48" fill="none" xmlns="http://www.w3.org/2000/svg">
<g clip-path="url(#clip0)">
<path d="M37.5 18.7852V17.094C38.7955 16.0369 39.6818 14.4161 39.6818 12.5134V7.93289C39.6818 5.25503 37.5682 3 34.9091 3H33.2045C30.6136 3 28.4318 5.18456 28.4318 7.93289V12.5839C28.4318 14.4866 29.3182 16.1074 30.6818 17.1644V18.7852C27.75 19.4899 26.25 21.0403 26.25 23.7181V23.9295C25.5 23.6477 24.6136 23.4362 23.7273 23.4362C22.9091 23.4362 22.1591 23.5772 21.4091 23.8591V23.7886C21.4091 21.1812 19.9773 19.5604 16.9773 18.8557V17.094C18.4091 16.0369 19.2955 14.2752 19.2955 12.3725C19.2955 11.5268 19.0909 10.7517 18.8182 10.047H20.5909C21 10.047 21.2727 9.7651 21.2727 9.34228C21.2727 8.91946 21 8.63758 20.5909 8.63758H18.2727L17.3182 3.56376C17.25 3.21141 16.9773 3 16.6364 3H10.7727C10.4318 3 10.1591 3.21141 10.0909 3.56376L9.13636 8.63758H6.81818C6.40909 8.63758 6.13636 8.91946 6.13636 9.34228C6.13636 9.7651 6.40909 10.047 6.81818 10.047H8.59091C8.25 10.7517 8.11364 11.5973 8.11364 12.3725C8.11364 14.2752 9 15.9664 10.4318 17.094V18.7852C7.5 19.4899 6 21.0403 6 23.7181V23.8591C6 24.2819 6.27273 24.5638 6.68182 24.5638C7.09091 24.5638 7.36364 24.2819 7.36364 23.8591V23.7181C7.36364 21.8859 8.31818 20.8289 10.4318 20.2651V20.406C10.4318 22.3087 11.9318 23.9295 13.8409 23.9295C15.6818 23.9295 17.25 22.3792 17.25 20.406V20.2651C19.3636 20.8289 20.3182 21.8859 20.3182 23.7181V24.4933C18.75 25.5503 17.6591 27.3121 17.6591 29.2148V40.6309C17.6591 40.6309 17.6591 40.6309 17.6591 40.7013C16.7727 41.547 16.2955 42.6745 16.2955 44.1544V44.2953C16.2955 44.7181 16.5682 45 16.9773 45C17.3864 45 17.6591 44.7181 17.6591 44.2953V44.1544C17.6591 42.3222 18.6136 41.2651 20.7273 40.7013V40.8423C20.7273 42.745 22.2273 44.3658 24.1364 44.3658C25.9773 44.3658 27.5455 42.8154 27.5455 40.8423V40.7013C29.6591 41.2651 30.6136 42.3222 30.6136 44.1544V44.2953C30.6136 44.7181 30.8864 45 31.2955 45C31.7045 45 31.9773 44.7181 31.9773 44.2953V44.1544C31.9773 42.5336 31.4318 41.2651 30.2727 40.4195V29.2148C30.2727 27.3826 29.3182 25.6913 27.8182 24.6342V24.5638V23.7181C27.8182 21.8859 28.7727 20.8289 30.8864 20.2651V20.406C30.8864 22.3087 32.3864 23.9295 34.2955 23.9295C36.2045 23.9295 37.7045 22.3792 37.7045 20.406V20.2651C39.8182 20.8289 40.7727 21.8859 40.7727 23.7181V23.8591C40.7727 24.2819 41.0455 24.5638 41.4545 24.5638C41.8636 24.5638 42.1364 24.2819 42.1364 23.8591V23.7181C41.9318 21.0403 40.5 19.4195 37.5 18.7852ZM11.3182 4.4094H16.1591L16.9091 8.49664H10.5682L11.3182 4.4094ZM9.40909 12.3725C9.40909 11.5268 9.61364 10.7517 10.0909 10.047H17.3864C17.7955 10.7517 18.0682 11.5268 18.0682 12.3725C18.0682 14.8389 16.1591 16.8121 13.7727 16.8121C11.3864 16.8121 9.40909 14.8389 9.40909 12.3725ZM13.7045 22.4497C12.6136 22.4497 11.6591 21.5336 11.6591 20.3356V17.8691C12.2727 18.151 12.9545 18.2919 13.7045 18.2919C14.3864 18.2919 15.0682 18.151 15.6818 17.9396V20.406C15.75 21.4631 14.8636 22.4497 13.7045 22.4497ZM23.9318 29.2148C24.5455 30.1309 25.5682 30.6946 26.7273 30.6946H27.8182V33.0906C27.8182 35.6275 26.1136 37.5302 23.8636 37.5302C21.6136 37.5302 19.9091 35.6275 19.9091 33.0906V30.6946H21.2045C22.2955 30.6946 23.3182 30.0604 23.9318 29.2148ZM18.8864 39.7852V35.3456C19.2273 36.3322 19.8409 37.1779 20.5909 37.7416V37.8121V39.151C19.9773 39.3624 19.3636 39.5034 18.8864 39.7852ZM24 42.8859C22.9091 42.8859 21.9545 41.9698 21.9545 40.7718V38.5168C22.5 38.7282 23.1136 38.8691 23.7955 38.8691C24.6136 38.8691 25.2955 38.7282 25.9773 38.3758V40.7718C26.0455 41.8993 25.0909 42.8859 24 42.8859ZM27.4091 39.2215V37.4597C28.0227 36.896 28.5 36.1913 28.7727 35.3456V39.6443C28.2955 39.4329 27.8864 39.2919 27.4091 39.2215ZM28.7727 29.2148V29.3557C28.7045 29.2852 28.5682 29.2852 28.5 29.2852H26.7273C25.5682 29.2852 24.6818 28.3691 24.6818 27.1711V25.8322C24.6818 25.4094 24.4091 25.1275 24 25.1275C24 25.1275 24 25.1275 23.9318 25.1275C23.9318 25.1275 23.9318 25.1275 23.8636 25.1275C23.4545 25.1275 23.1818 25.4094 23.1818 25.8322V27.1711C23.1818 28.3691 22.2955 29.2852 21.1364 29.2852H19.1591C19.0227 29.2852 18.9545 29.2852 18.8864 29.3557V29.2148C18.8864 26.7483 21.0682 24.7752 23.7955 24.7752C26.5227 24.7752 28.7727 26.7483 28.7727 29.2148ZM33.2727 4.4094H34.9773C36.8182 4.4094 38.3864 5.95973 38.3864 7.93289V8.77852H37.7045C36.5455 8.77852 35.5909 7.79195 35.5909 6.59396C35.5909 6.17114 35.3182 5.88926 34.9091 5.88926C34.5 5.88926 34.2273 6.17114 34.2273 6.59396V8.63758C33.4773 8.3557 32.9318 7.58054 32.9318 6.7349C32.9318 6.31208 32.6591 6.0302 32.25 6.0302C31.8409 6.0302 31.5682 6.31208 31.5682 6.7349C31.5682 7.72148 30.8182 8.56711 29.9318 8.70805V7.93289C29.8636 5.95973 31.4318 4.4094 33.2727 4.4094ZM29.8636 12.5134V10.1175C30.8182 10.047 31.6364 9.55369 32.1818 8.77852C32.7955 9.62416 33.75 10.1175 34.8409 10.1175C35.25 10.1175 35.5227 9.83557 35.5227 9.41275C36.0682 9.83557 36.8182 10.1175 37.6364 10.1175H38.3182V12.5134C38.3182 13.9933 37.6364 15.2617 36.5455 16.0369C36.4773 16.1074 36.3409 16.1074 36.2727 16.1779C35.5909 16.6007 34.8409 16.8121 34.0227 16.8121C33.2045 16.8121 32.5227 16.6007 31.8409 16.1779C31.7727 16.0369 31.6364 15.9664 31.5 15.9664C30.5455 15.2617 29.8636 13.9933 29.8636 12.5134ZM34.1591 22.4497C33.0682 22.4497 32.1136 21.5336 32.1136 20.3356V17.9396C32.7273 18.2215 33.4091 18.3624 34.0909 18.3624C34.8409 18.3624 35.5227 18.2215 36.1364 17.9396V20.406C36.1364 21.4631 35.25 22.4497 34.1591 22.4497Z" fill="#028577"/>
</g>
<defs>
<clipPath id="clip0">
<rect width="36" height="42" fill="white" transform="translate(6 3)"/>
</clipPath>
</defs>
</svg>
