<svg width="48" height="48" viewBox="0 0 48 48" fill="none" xmlns="http://www.w3.org/2000/svg">
<path d="M47.9476 27C47.9625 26.9182 47.9625 26.8343 47.9476 26.7525L45.2926 16.1625C45.2883 16.048 45.2602 15.9356 45.2101 15.8325L44.3176 12.27C44.2751 12.105 44.1776 11.9594 44.0413 11.8571C43.905 11.7549 43.7379 11.7021 43.5676 11.7075H32.3176L25.6801 3.8475C25.6089 3.76421 25.5202 3.69754 25.4205 3.65219C25.3207 3.60683 25.2122 3.5839 25.1026 3.585H2.6026C2.40369 3.585 2.21292 3.66402 2.07227 3.80467C1.93162 3.94532 1.8526 4.13609 1.8526 4.335V26.25H0.787598C0.588685 26.25 0.39792 26.329 0.257268 26.4697C0.116615 26.6103 0.0375977 26.8011 0.0375977 27V35.0625C0.039285 35.2194 0.0901225 35.3718 0.182955 35.4982C0.275788 35.6247 0.405941 35.7189 0.555098 35.7675L3.8626 38.7675C3.90197 40.244 4.5085 41.6486 5.55625 42.6897C6.604 43.7307 8.01246 44.3283 9.48918 44.3582C10.9659 44.3881 12.3974 43.8481 13.4865 42.8503C14.5755 41.8526 15.2385 40.4737 15.3376 39H29.8201C29.9181 40.4732 30.5795 41.8522 31.6671 42.8507C32.7548 43.8492 34.1851 44.3907 35.6613 44.3627C37.1375 44.3347 38.5463 43.7395 39.5953 42.7004C40.6443 41.6614 41.253 40.2584 41.2951 38.7825L47.1976 35.835C47.3965 35.835 47.5873 35.756 47.7279 35.6153C47.8686 35.4747 47.9476 35.2839 47.9476 35.085V27ZM46.2826 26.25H36.5326V16.905H43.9501L46.2826 26.25ZM3.3451 5.085H24.7501L31.2001 12.75V26.25H3.3451V5.085ZM1.5376 27.75H31.9501C32.149 27.75 32.3398 27.671 32.4804 27.5303C32.6211 27.3897 32.7001 27.1989 32.7001 27V13.2H43.0051L43.5526 15.405H35.7676C35.5687 15.405 35.3779 15.484 35.2373 15.6247C35.0966 15.7653 35.0176 15.9561 35.0176 16.155V27C35.0176 27.1989 35.0966 27.3897 35.2373 27.5303C35.3779 27.671 35.5687 27.75 35.7676 27.75H46.5001V34.2825H39.5251C39.4704 34.2748 39.4148 34.2748 39.3601 34.2825C38.3215 33.3752 36.9892 32.8752 35.6101 32.8752C34.231 32.8752 32.8987 33.3752 31.8601 34.2825H13.4551H13.3651C12.3265 33.3752 10.9942 32.8752 9.6151 32.8752C8.23602 32.8752 6.9037 33.3752 5.8651 34.2825C5.82514 34.2799 5.78506 34.2799 5.7451 34.2825H1.5376V27.75ZM29.9326 37.5H15.2251C15.0996 36.9155 14.8846 36.3539 14.5876 35.835H30.5776C30.2782 36.3535 30.0607 36.9151 29.9326 37.5V37.5ZM4.1251 36.96L2.8501 35.8125H4.6276C4.42081 36.1766 4.25241 36.5611 4.1251 36.96V36.96ZM9.6076 42.915C8.78873 42.9154 7.98723 42.6789 7.29972 42.2341C6.6122 41.7892 6.06802 41.1551 5.73276 40.408C5.39751 39.6609 5.28549 38.8327 5.41021 38.0234C5.53493 37.2141 5.89108 36.4581 6.4357 35.8467C6.98033 35.2352 7.6902 34.7942 8.47974 34.577C9.26928 34.3598 10.1048 34.3756 10.8855 34.6225C11.6663 34.8694 12.359 35.3369 12.8801 35.9685C13.4012 36.6002 13.7286 37.369 13.8226 38.1825C13.8226 38.1825 13.8226 38.1825 13.8226 38.2275C13.8191 38.2649 13.8191 38.3026 13.8226 38.34C13.8226 38.445 13.8226 38.5575 13.8226 38.67C13.8207 39.7901 13.3769 40.8641 12.5877 41.659C11.7985 42.4538 10.7276 42.9051 9.6076 42.915V42.915ZM35.5576 42.915C34.718 42.915 33.8973 42.666 33.1992 42.1996C32.5011 41.7331 31.957 41.0702 31.6357 40.2945C31.3144 39.5188 31.2304 38.6653 31.3942 37.8418C31.558 37.0184 31.9623 36.262 32.5559 35.6683C33.1496 35.0747 33.906 34.6704 34.7294 34.5066C35.5529 34.3428 36.4064 34.4268 37.1821 34.7481C37.9578 35.0694 38.6207 35.6135 39.0872 36.3116C39.5536 37.0097 39.8026 37.8304 39.8026 38.67C39.8006 39.7952 39.3527 40.8738 38.5571 41.6695C37.7614 42.4651 36.6828 42.913 35.5576 42.915V42.915ZM41.1001 37.185C40.96 36.7036 40.7583 36.2423 40.5001 35.8125H43.8076L41.1001 37.185Z" fill="#028577"/>
<path d="M9.60742 35.6626C9.01408 35.6626 8.43406 35.8385 7.94071 36.1682C7.44736 36.4978 7.06285 36.9664 6.83578 37.5146C6.60872 38.0627 6.54931 38.6659 6.66507 39.2479C6.78082 39.8298 7.06655 40.3644 7.4861 40.7839C7.90566 41.2035 8.44021 41.4892 9.02215 41.605C9.60409 41.7207 10.2073 41.6613 10.7555 41.4342C11.3037 41.2072 11.7722 40.8227 12.1018 40.3293C12.4315 39.836 12.6074 39.2559 12.6074 38.6626C12.6074 38.2686 12.5298 37.8785 12.3791 37.5146C12.2283 37.1506 12.0073 36.8199 11.7287 36.5413C11.4502 36.2627 11.1195 36.0417 10.7555 35.891C10.3915 35.7402 10.0014 35.6626 9.60742 35.6626ZM9.60742 40.1626C9.31075 40.1626 9.02074 40.0746 8.77407 39.9098C8.52739 39.745 8.33514 39.5107 8.2216 39.2366C8.10807 38.9625 8.07837 38.6609 8.13625 38.37C8.19412 38.079 8.33698 37.8117 8.54676 37.6019C8.75654 37.3922 9.02382 37.2493 9.31479 37.1914C9.60576 37.1335 9.90736 37.1632 10.1814 37.2768C10.4555 37.3903 10.6898 37.5826 10.8546 37.8292C11.0195 38.0759 11.1074 38.3659 11.1074 38.6626C11.1104 38.8615 11.0738 39.0589 10.9998 39.2435C10.9257 39.4281 10.8157 39.5962 10.6761 39.7378C10.5365 39.8795 10.3702 39.992 10.1867 40.0688C10.0032 40.1456 9.80631 40.1851 9.60742 40.1851V40.1626Z" fill="#028577"/>
<path d="M35.5576 35.6626C34.9643 35.6626 34.3843 35.8385 33.8909 36.1682C33.3976 36.4978 33.013 36.9664 32.786 37.5146C32.5589 38.0627 32.4995 38.6659 32.6153 39.2479C32.731 39.8298 33.0167 40.3644 33.4363 40.7839C33.8559 41.2035 34.3904 41.4892 34.9723 41.605C35.5543 41.7207 36.1575 41.6613 36.7057 41.4342C37.2538 41.2072 37.7224 40.8227 38.052 40.3293C38.3817 39.836 38.5576 39.2559 38.5576 38.6626C38.5576 37.867 38.2415 37.1039 37.6789 36.5413C37.1163 35.9787 36.3533 35.6626 35.5576 35.6626ZM35.5576 40.1626C35.2609 40.1626 34.9709 40.0746 34.7243 39.9098C34.4776 39.745 34.2853 39.5107 34.1718 39.2366C34.0583 38.9625 34.0286 38.6609 34.0864 38.37C34.1443 38.079 34.2872 37.8117 34.497 37.6019C34.7067 37.3922 34.974 37.2493 35.265 37.1914C35.556 37.1335 35.8576 37.1632 36.1316 37.2768C36.4057 37.3903 36.64 37.5826 36.8048 37.8292C36.9696 38.0759 37.0576 38.3659 37.0576 38.6626C37.0606 38.8615 37.024 39.0589 36.95 39.2435C36.8759 39.4281 36.7659 39.5962 36.6263 39.7378C36.4867 39.8795 36.3204 39.992 36.1369 40.0688C35.9534 40.1456 35.7565 40.1851 35.5576 40.1851V40.1626Z" fill="#028577"/>
<path d="M40.9502 31.5H44.6177C44.8166 31.5 45.0074 31.421 45.148 31.2803C45.2887 31.1397 45.3677 30.9489 45.3677 30.75C45.3677 30.5511 45.2887 30.3603 45.148 30.2197C45.0074 30.079 44.8166 30 44.6177 30H40.9502C40.7513 30 40.5605 30.079 40.4199 30.2197C40.2792 30.3603 40.2002 30.5511 40.2002 30.75C40.2002 30.9489 40.2792 31.1397 40.4199 31.2803C40.5605 31.421 40.7513 31.5 40.9502 31.5Z" fill="#028577"/>
<path d="M7.97268 30.75C7.97268 30.5511 7.89366 30.3603 7.75301 30.2197C7.61235 30.079 7.42159 30 7.22268 30H3.55518C3.35626 30 3.1655 30.079 3.02485 30.2197C2.88419 30.3603 2.80518 30.5511 2.80518 30.75C2.80518 30.9489 2.88419 31.1397 3.02485 31.2803C3.1655 31.421 3.35626 31.5 3.55518 31.5H7.22268C7.42159 31.5 7.61235 31.421 7.75301 31.2803C7.89366 31.1397 7.97268 30.9489 7.97268 30.75Z" fill="#028577"/>
<path d="M15.0375 7.58984H5.72998C5.53107 7.58984 5.3403 7.66886 5.19965 7.80951C5.059 7.95017 4.97998 8.14093 4.97998 8.33984C4.97998 8.53876 5.059 8.72952 5.19965 8.87017C5.3403 9.01083 5.53107 9.08984 5.72998 9.08984H15.0375C15.2364 9.08984 15.4272 9.01083 15.5678 8.87017C15.7085 8.72952 15.7875 8.53876 15.7875 8.33984C15.7875 8.14093 15.7085 7.95017 15.5678 7.80951C15.4272 7.66886 15.2364 7.58984 15.0375 7.58984Z" fill="#028577"/>
<path d="M10.5525 10.7173H5.72998C5.53107 10.7173 5.3403 10.7963 5.19965 10.937C5.059 11.0776 4.97998 11.2684 4.97998 11.4673C4.97998 11.6662 5.059 11.857 5.19965 11.9976C5.3403 12.1383 5.53107 12.2173 5.72998 12.2173H10.5525C10.7514 12.2173 10.9422 12.1383 11.0828 11.9976C11.2235 11.857 11.3025 11.6662 11.3025 11.4673C11.3025 11.2684 11.2235 11.0776 11.0828 10.937C10.9422 10.7963 10.7514 10.7173 10.5525 10.7173Z" fill="#028577"/>
</svg>
