<svg width="48" height="48" viewBox="0 0 48 48" fill="none" xmlns="http://www.w3.org/2000/svg">
<path d="M34.3777 35.5548C34.0982 35.054 33.4692 34.1954 32.5607 34.4816C32.1414 34.6247 30.6739 35.1255 28.7171 35.841L27.4592 36.2703C26.6905 36.5566 25.8519 36.8428 25.1531 37.0574C24.7338 35.6979 23.406 35.1255 22.6373 35.054C22.6373 35.054 22.5674 35.054 22.4975 35.054H17.5358L17.396 34.9824C15.2995 33.9807 12.7138 32.8359 11.386 32.8359C10.198 32.8359 8.5208 33.7661 7.19301 34.41C6.84359 34.6247 6.42429 34.8393 6.21464 34.9109H3.8386C3.4193 34.9109 3.13977 35.1971 3.13977 35.6264V40.8496C3.06988 40.9927 3 41.1358 3 41.2789C3 41.7082 3.27953 41.9944 3.69884 41.9944H8.45092L17.3261 44.7848C17.8153 44.9279 18.3744 44.9995 18.8636 44.9995C19.7022 44.9995 20.4709 44.7848 21.2396 44.4271L33.8186 37.7729C33.8885 37.7014 33.9584 37.6298 34.0283 37.5583C34.5874 36.9143 34.7271 36.1988 34.3777 35.5548ZM33.0499 36.5566L20.6106 43.1392C19.7022 43.64 18.7238 43.7116 17.7454 43.4254L8.87022 40.6349C8.87022 40.6349 8.80033 40.6349 8.73045 40.6349H8.59068H8.5208H4.53744V36.4135H6.35441C6.63394 36.4135 6.91348 36.2703 7.82196 35.7695C8.87022 35.1971 10.5474 34.3385 11.3161 34.3385C12.0849 34.3385 13.9018 35.054 16.7671 36.3419L17.0466 36.485C17.1165 36.5565 17.2562 36.5566 17.3261 36.5566H22.3577C22.3577 36.5566 22.3577 36.5566 22.4276 36.5566C22.5674 36.5566 23.4759 36.7712 23.7554 37.6298C23.406 37.7729 23.0566 37.8445 22.8469 37.916H22.777H22.7072H15.9983C15.579 37.916 15.2995 38.2022 15.2995 38.6315C15.2995 39.0608 15.579 39.347 15.9983 39.347H22.777C22.9168 39.347 23.0566 39.347 23.1265 39.2755C23.1963 39.2755 23.2662 39.2755 23.3361 39.2039C23.7554 39.0608 24.3145 38.9177 24.8735 38.7031C25.782 38.4169 26.8303 37.9876 27.8785 37.6298L29.1364 37.2005C30.8835 36.5565 32.5607 35.9841 32.8403 35.9126C32.9101 35.9126 33.0499 36.1272 33.1198 36.1988C33.1198 36.1988 33.1198 36.1988 33.1198 36.2703C33.1897 36.3419 33.1198 36.485 33.0499 36.5566Z" fill="#028577"/>
<path d="M44.3011 3H39.7587C39.3394 3 39.0599 3.2862 39.0599 3.7155V4.1448H29.0665C17.955 4.1448 13.9717 9.72572 13.9717 14.5196V16.2368C13.9717 16.5945 14.2512 16.9523 14.6705 16.9523H15.3694V19.1704C15.3694 19.5997 15.6489 19.8859 16.0682 19.8859H23.1264C23.5457 19.8859 23.8253 19.5997 23.8253 19.1704V16.5945C23.8253 14.5196 25.4326 12.8739 27.4592 12.8739H38.99V14.0187C38.99 14.448 39.2695 14.7342 39.6888 14.7342H44.2312C44.6505 14.7342 44.9301 14.448 44.9301 14.0187V3.7155C45 3.2862 44.7204 3 44.3011 3ZM16.767 18.4549V17.0239H22.4276V18.4549H16.767ZM27.5291 11.4429C25.0832 11.4429 23.0565 13.2317 22.5674 15.6644H16.0682H15.3694V14.6627C15.3694 8.08007 22.777 5.71891 29.0665 5.71891H39.0599V11.5145H27.5291V11.4429ZM43.6023 13.3032H40.4575V12.1584V4.86031V4.43101H43.6023V13.3032Z" fill="#028577"/>
<path d="M18.5142 28.8294C18.5142 29.2587 18.7937 29.5449 19.213 29.5449C19.6323 29.5449 19.9118 29.2587 19.9118 28.8294V28.1139C19.9118 27.6846 19.6323 27.3984 19.213 27.3984C18.7937 27.3984 18.5142 27.6846 18.5142 28.1139V28.8294Z" fill="#028577"/>
<path d="M18.5142 31.6917C18.5142 32.121 18.7937 32.4072 19.213 32.4072C19.6323 32.4072 19.9118 32.121 19.9118 31.6917V30.9762C19.9118 30.5469 19.6323 30.2607 19.213 30.2607C18.7937 30.2607 18.5142 30.5469 18.5142 30.9762V31.6917Z" fill="#028577"/>
<path d="M18.5142 25.9676C18.5142 26.3969 18.7937 26.6831 19.213 26.6831C19.6323 26.6831 19.9118 26.3969 19.9118 25.9676V25.2521C19.9118 24.8228 19.6323 24.5366 19.213 24.5366C18.7937 24.5366 18.5142 24.8228 18.5142 25.2521V25.9676Z" fill="#028577"/>
<path d="M19.213 23.8213C19.6323 23.8213 19.9118 23.5351 19.9118 23.1058V22.3903C19.9118 21.961 19.6323 21.6748 19.213 21.6748C18.7937 21.6748 18.5142 21.961 18.5142 22.3903V23.1058C18.5142 23.4636 18.8636 23.8213 19.213 23.8213Z" fill="#028577"/>
<path d="M21.1699 25.9676C21.1699 26.3969 21.4495 26.6831 21.8688 26.6831C22.2881 26.6831 22.5676 26.3969 22.5676 25.9676V25.2521C22.5676 24.8228 22.2881 24.5366 21.8688 24.5366C21.4495 24.5366 21.1699 24.8228 21.1699 25.2521V25.9676Z" fill="#028577"/>
<path d="M21.8688 23.8213C22.2881 23.8213 22.5676 23.5351 22.5676 23.1058V22.3903C22.5676 21.961 22.2881 21.6748 21.8688 21.6748C21.4495 21.6748 21.1699 21.961 21.1699 22.3903V23.1058C21.1699 23.4636 21.4495 23.8213 21.8688 23.8213Z" fill="#028577"/>
<path d="M21.1699 28.8294C21.1699 29.2587 21.4495 29.5449 21.8688 29.5449C22.2881 29.5449 22.5676 29.2587 22.5676 28.8294V28.1139C22.5676 27.6846 22.2881 27.3984 21.8688 27.3984C21.4495 27.3984 21.1699 27.6846 21.1699 28.1139V28.8294Z" fill="#028577"/>
<path d="M21.1699 31.6917C21.1699 32.121 21.4495 32.4072 21.8688 32.4072C22.2881 32.4072 22.5676 32.121 22.5676 31.6917V30.9762C22.5676 30.5469 22.2881 30.2607 21.8688 30.2607C21.4495 30.2607 21.1699 30.5469 21.1699 30.9762V31.6917Z" fill="#028577"/>
<path d="M15.9282 25.9676C15.9282 26.3969 16.2078 26.6831 16.6271 26.6831C17.0464 26.6831 17.3259 26.3969 17.3259 25.9676V25.2521C17.3259 24.8228 17.0464 24.5366 16.6271 24.5366C16.2078 24.5366 15.9282 24.8228 15.9282 25.2521V25.9676Z" fill="#028577"/>
<path d="M16.6271 23.8213C17.0464 23.8213 17.3259 23.5351 17.3259 23.1058V22.3903C17.3259 21.961 17.0464 21.6748 16.6271 21.6748C16.2078 21.6748 15.9282 21.961 15.9282 22.3903V23.1058C15.9282 23.4636 16.2776 23.8213 16.6271 23.8213Z" fill="#028577"/>
<path d="M15.9282 31.6917C15.9282 32.121 16.2078 32.4072 16.6271 32.4072C17.0464 32.4072 17.3259 32.121 17.3259 31.6917V30.9762C17.3259 30.5469 17.0464 30.2607 16.6271 30.2607C16.2078 30.2607 15.9282 30.5469 15.9282 30.9762V31.6917Z" fill="#028577"/>
<path d="M15.9282 28.8294C15.9282 29.2587 16.2078 29.5449 16.6271 29.5449C17.0464 29.5449 17.3259 29.2587 17.3259 28.8294V28.1139C17.3259 27.6846 17.0464 27.3984 16.6271 27.3984C16.2078 27.3984 15.9282 27.6846 15.9282 28.1139V28.8294Z" fill="#028577"/>
</svg>
