<svg width="24" height="25" viewBox="0 0 24 25" fill="none" xmlns="http://www.w3.org/2000/svg">
<g clip-path="url(#clip0_3056_2408)">
<path d="M8.09718 6.96928L9.30311 5.16498C9.30311 5.16498 11.5769 4.31806 15.4433 5.16498L16.7136 6.96928L16.7689 7.66891L15.5813 15.8251L15.1487 18.8537C15.1487 18.8537 15.0934 19.9124 12.4975 19.9124C9.90148 19.9124 9.56087 18.7341 9.56087 18.7341L9.23867 16.5707L8.05115 8.50662L8.09718 6.96928Z" stroke="#266F68" stroke-width="1.84112" stroke-linecap="round" stroke-linejoin="round"/>
<path d="M2.29762 6.63833C2.29762 6.63833 2.21477 7.70619 2.73949 8.83848C3.26421 9.97077 3.78893 10.5323 4.42412 10.6428C5.0593 10.7532 8.36412 10.6888 8.36412 10.6888L7.88543 7.92712C7.88543 7.92712 7.27786 6.76721 6.15477 6.63833C5.03169 6.50946 2.29762 6.63833 2.29762 6.63833Z" stroke="#266F68" stroke-width="1.84112" stroke-linecap="round" stroke-linejoin="round"/>
<path d="M22.4395 6.63833C22.4395 6.63833 22.5224 7.70619 21.9977 8.83848C21.473 9.97077 20.9482 10.5323 20.3131 10.6428C19.6779 10.7532 16.373 10.6888 16.373 10.6888L16.8517 7.92712C16.8517 7.92712 17.4593 6.76721 18.5824 6.63833C19.7055 6.50946 22.4303 6.63833 22.4303 6.63833H22.4395Z" stroke="#266F68" stroke-width="1.84112" stroke-linecap="round" stroke-linejoin="round"/>
<path d="M9.22028 16.442C9.22028 16.442 10.0856 15.7056 12.341 15.7056C14.5964 15.7056 15.4893 16.442 15.4893 16.442" stroke="#266F68" stroke-width="1.84112" stroke-linecap="round" stroke-linejoin="round"/>
</g>
<defs>
<clipPath id="clip0_3056_2408">
<rect width="23" height="17" fill="white" transform="translate(0.5 3.77734)"/>
</clipPath>
</defs>
</svg>
