<svg width="24" height="19" viewBox="0 0 24 19" fill="none" xmlns="http://www.w3.org/2000/svg">
<g id="Layer_1" clip-path="url(#clip0_4392_76663)">
<path id="Vector" d="M23.655 2.8647C23.655 2.3947 23.315 2.0247 22.885 2.0247L19.305 2.0447C18.555 1.9747 17.835 2.2447 17.235 2.8047L16.185 1.1147C16.025 0.864704 15.605 0.184705 12.515 0.0947045C11.595 0.0647045 10.685 0.104705 9.94496 0.204705C8.62496 0.384705 8.24496 0.694705 8.03496 1.0047L6.77496 2.8347C6.17496 2.2647 5.45496 1.9947 4.72496 2.0647H1.11496C0.694961 2.0447 0.354961 2.4147 0.344961 2.8847C0.344961 2.9347 0.324961 4.0547 0.714961 5.2547C1.26496 6.9547 2.33496 7.9747 3.81496 8.2147C3.85496 8.2147 3.88496 8.2147 3.92496 8.2147H7.03496L7.84496 14.2547C8.04496 17.5247 9.80496 18.0047 10.835 18.0047H13.145C14.175 18.0047 15.935 17.5147 16.135 14.2647L16.945 8.1847H20.055C20.055 8.1847 20.125 8.1847 20.165 8.1847C21.645 7.9447 22.715 6.9247 23.275 5.2247C23.665 4.0347 23.645 2.9147 23.645 2.8647H23.655ZM22.055 3.7447C21.905 4.7547 21.445 6.2147 20.005 6.4747H17.295L17.335 6.1447C17.435 5.2447 17.795 4.4547 18.315 4.0447C18.585 3.8247 18.895 3.7247 19.175 3.7547H19.245H22.055V3.7447ZM11.995 13.7447C12.785 13.7447 13.535 13.8647 14.055 14.0647C14.395 14.2047 14.545 14.3347 14.595 14.3947C14.405 16.2847 13.595 16.2847 13.155 16.2847H10.845C10.405 16.2847 9.58496 16.2847 9.39496 14.3847C9.50496 14.2247 10.315 13.7347 11.995 13.7347V13.7447ZM15.995 3.8147L14.825 12.5547C13.875 12.0947 12.675 12.0247 11.995 12.0247C11.315 12.0247 10.115 12.0947 9.16496 12.5547L8.00496 3.8447L9.19496 2.1147C9.39496 2.0147 10.375 1.7847 12.095 1.7947C13.855 1.8147 14.775 2.0547 14.975 2.1647L15.995 3.8147ZM6.69496 6.4947H3.98496C2.55496 6.2347 2.08496 4.7747 1.93496 3.7647H4.73496H4.81496C5.23496 3.7247 5.63496 3.9247 5.97496 4.3447C6.34496 4.7947 6.58496 5.4347 6.66496 6.1547L6.70496 6.4847L6.69496 6.4947Z" fill="#276F68"/>
</g>
<defs>
<clipPath id="clip0_4392_76663">
<rect width="23.31" height="17.94" fill="white" transform="translate(0.344971 0.074707)"/>
</clipPath>
</defs>
</svg>
