<svg width="24" height="19" viewBox="0 0 24 19" fill="none" xmlns="http://www.w3.org/2000/svg">
<path id="Vector" d="M23.5281 3.36965L23.5281 3.36989C23.5289 3.42048 23.5458 4.52043 23.1644 5.69399L23.1644 5.69402C22.6334 7.3268 21.596 8.33321 20.1569 8.56542C20.1272 8.57026 20.0968 8.57264 20.0672 8.57264H16.8464L16.0203 14.7539C15.9291 16.2236 15.5257 17.1363 14.9779 17.6813C14.4284 18.2281 13.7515 18.3873 13.153 18.3873H10.8445C10.246 18.3873 9.56908 18.2281 9.01958 17.6813C8.4718 17.1363 8.06841 16.2236 7.97718 14.7539L7.15433 8.59233H3.93108C3.90149 8.59233 3.87098 8.58993 3.8412 8.58507M23.5281 3.36965L8.13168 1.56742L6.79212 3.52066C6.21864 2.93408 5.49353 2.61311 4.71343 2.68557L1.11338 2.67153V2.67153H1.1129H1.11131C0.744981 2.67153 0.479226 3.01033 0.471059 3.38903L0.47105 3.38957C0.470178 3.44006 0.452492 4.54006 0.833883 5.71368L0.833885 5.71368C1.36486 7.34735 2.40144 8.3528 3.8412 8.58507M23.5281 3.36965C23.5208 2.99042 23.2539 2.65185 22.8878 2.65185L22.8862 2.65184L22.8857 2.65185M23.5281 3.36965L22.8857 2.65185M3.8412 8.58507L3.86132 8.4617M3.8412 8.58507C3.84127 8.58508 3.84134 8.58509 3.84141 8.58511L3.86132 8.4617M3.86132 8.4617C2.47799 8.23862 1.4728 7.27505 0.952763 5.67505L7.26374 8.46733H3.93108C3.90809 8.46733 3.88431 8.46545 3.86132 8.4617ZM22.8857 2.65185L19.2857 2.66588C18.5048 2.59364 17.7794 2.91421 17.2051 3.50161M22.8857 2.65185L17.2051 3.50161M17.2051 3.50161L16.0775 1.67543L16.0775 1.67542C16.0442 1.62151 15.9894 1.53286 15.8761 1.43324C15.7639 1.33468 15.5991 1.22923 15.3478 1.12995C14.8474 0.932237 13.995 0.755421 12.5067 0.71071L12.5067 0.71071C11.5938 0.683371 10.6886 0.721917 9.95741 0.820504L9.95737 0.82051C8.71893 0.987941 8.33333 1.27277 8.13176 1.5673L17.2051 3.50161ZM4.78644 4.02723L4.79979 4.15152C5.25539 4.10259 5.70568 4.3323 6.06996 4.7809C6.43391 5.22911 6.70159 5.88563 6.78351 6.65282L6.83379 7.12474H3.97851C3.14463 6.9755 2.62416 6.45151 2.29575 5.8335C1.99416 5.26593 1.85867 4.62528 1.79842 4.14342L4.73759 4.15504L4.73759 4.15525L4.74479 4.15487C4.74672 4.15476 4.74953 4.15465 4.75295 4.15452C4.76503 4.15406 4.78481 4.1533 4.80112 4.15137L4.78644 4.02723ZM4.78644 4.02723C4.77557 4.02852 4.76507 4.02892 4.75393 4.02935C4.74881 4.02955 4.74357 4.02975 4.73808 4.03005L6.90781 6.63955C6.73975 5.06579 5.80749 3.91757 4.78644 4.02723ZM19.2607 4.13536L19.2602 4.13536C19.2381 4.13536 19.2183 4.13416 19.1978 4.13176M19.2607 4.13536L17.0905 6.61986L17.0388 7.10506H17.1645M19.2607 4.13536L22.2 4.12373C22.1401 4.60554 22.0046 5.24622 21.703 5.81381C21.3746 6.43184 20.8541 6.95582 20.0206 7.10506M19.2607 4.13536L20.0206 7.10506M19.1978 4.13176C19.1976 4.13173 19.1974 4.13171 19.1972 4.13168L19.2119 4.00755L19.1984 4.13182C19.1982 4.1318 19.198 4.13178 19.1978 4.13176ZM19.1978 4.13176C18.7429 4.08268 18.2929 4.3121 17.9287 4.76053C17.5646 5.20873 17.2967 5.86548 17.2148 6.63311L17.1645 7.10506M17.1645 7.10506H20.0206M17.1645 7.10506L17.1512 7.23006L20.0206 7.10506M14.1068 14.4569L14.1069 14.4569C14.3463 14.5511 14.5055 14.65 14.6038 14.7335C14.6529 14.7753 14.6852 14.8119 14.7048 14.8405C14.7176 14.8592 14.7233 14.872 14.7257 14.8788C14.6403 15.8085 14.409 16.3118 14.1318 16.5846C13.8564 16.8557 13.5143 16.9198 13.1538 16.9198H10.8453C10.4848 16.9198 10.1428 16.8557 9.86716 16.5846C9.58955 16.3115 9.35785 15.8072 9.27229 14.8752C9.27474 14.8657 9.2818 14.8481 9.30103 14.8223C9.32537 14.7896 9.36435 14.7505 9.42108 14.7072C9.53448 14.6207 9.70742 14.5262 9.94085 14.4388C10.4068 14.2643 11.0991 14.1235 11.9996 14.1235C12.8059 14.1235 13.574 14.2469 14.1068 14.4569ZM12.092 2.17167L12.092 2.17167C12.9674 2.17912 13.6703 2.24481 14.1803 2.33001C14.4354 2.37264 14.6407 2.41989 14.7944 2.46654C14.9334 2.50877 15.0199 2.54754 15.0638 2.57602L16.1236 4.293L14.9272 13.2501C14.1441 12.824 13.0435 12.6549 11.9996 12.6549C10.9555 12.6549 9.85557 12.824 9.07192 13.2502L7.87837 4.31421L9.10774 2.52217C9.15117 2.49577 9.23922 2.4592 9.38186 2.41969C9.53842 2.37632 9.74737 2.33291 10.0055 2.29476C10.5214 2.21851 11.2275 2.16422 12.092 2.17167Z" fill="#16423D" stroke="#16423D" stroke-width="0.25"/>
</svg>
