<svg width="24" height="25" viewBox="0 0 24 25" fill="none" xmlns="http://www.w3.org/2000/svg">
<path d="M11.4192 18.3067C11.1046 18.3229 10.7901 18.3469 10.4755 18.3533C9.57389 18.3723 8.76448 18.0823 8.02527 17.5665C7.06788 16.8989 6.39956 16.0104 6.06437 14.8665C5.8042 13.9802 5.83861 13.0974 6.05611 12.2075C6.1449 11.842 6.4147 11.7411 6.70378 11.6508C6.83524 11.6091 6.97702 11.6021 7.15185 11.5731C7.02383 11.4158 6.90682 11.2888 6.8084 11.1483C6.3032 10.4342 6.00931 9.64735 5.9102 8.7596C5.84068 8.1379 5.94874 7.55784 6.06093 6.96366C6.13113 6.59176 6.40438 6.47674 6.70447 6.41182C7.57032 6.22411 8.43135 6.23399 9.28137 6.51555C9.30477 6.52331 9.33368 6.51132 9.34332 6.51061C9.32129 6.03993 9.28068 5.57347 9.28206 5.10773C9.28481 4.0351 9.64754 3.09725 10.3103 2.26737C10.6972 1.78257 11.1604 1.40645 11.6814 1.09313C11.903 0.959755 12.1143 0.97528 12.3332 1.10371C13.5363 1.80727 14.3436 2.83121 14.652 4.22069C14.7993 4.88473 14.8303 5.57065 14.6658 6.2481C14.6486 6.31867 14.6637 6.397 14.6637 6.43934C15.246 6.38994 15.8269 6.30032 16.4071 6.30526C16.8091 6.30879 17.2144 6.42593 17.6088 6.53108C17.7245 6.56213 17.8594 6.70891 17.8958 6.83099C18.0906 7.48374 18.1594 8.14425 18.0837 8.83652C17.9929 9.66922 17.7231 10.4088 17.2461 11.0778C17.1298 11.2408 17.0038 11.396 16.8703 11.5696C17.0348 11.6148 17.1883 11.6677 17.3459 11.6995C17.8807 11.8067 17.9282 11.9973 18.0108 12.5131C18.0714 12.8942 18.1223 13.2823 18.1188 13.6669C18.1085 14.6929 17.7919 15.6181 17.1718 16.4317C16.595 17.1882 15.8744 17.7457 15.0023 18.0851C14.2301 18.3857 13.4262 18.414 12.5734 18.3074V18.5636C12.5734 19.3736 12.5746 20.1841 12.573 20.9944H11.473C11.473 20.9944 11.4678 19.2341 11.4653 18.354C11.4501 18.3385 11.4357 18.3229 11.4205 18.3067H11.4192ZM16.9488 7.47598C16.4759 7.47598 16.0072 7.44069 15.5454 7.48303C14.5832 7.57195 13.8804 8.14708 13.294 8.87745C12.6691 9.65581 12.5135 10.5824 12.572 11.5633C12.5872 11.8159 12.6987 11.9831 12.9533 11.9803C13.3601 11.9761 13.7841 12.0149 14.1702 11.9133C15.4896 11.5654 16.4078 10.7299 16.86 9.3926C17.0685 8.77654 17.0685 8.14637 16.9488 7.47598ZM12.0138 8.44911C12.4874 8.08709 12.9051 7.70321 13.1832 7.18594C13.559 6.48874 13.7077 5.76118 13.632 4.94824C13.5273 3.82198 13.0118 2.9787 12.1646 2.31466C12.1012 2.26526 11.9292 2.26949 11.8693 2.32242C11.5802 2.57576 11.2629 2.8178 11.0468 3.13042C10.2856 4.23127 10.1582 5.4408 10.6091 6.70185C10.8761 7.44916 11.3682 8.02005 12.0138 8.44911ZM12.6526 17.1543C15.076 17.7111 17.5118 15.4649 16.9474 12.7439C14.2156 12.1342 12.0854 14.6993 12.6526 17.1543ZM11.3799 11.9105C11.3799 11.4024 11.4322 10.8907 11.3682 10.3947C11.2588 9.54926 10.8162 8.88098 10.1885 8.31785C9.38806 7.59947 8.45475 7.36378 7.42922 7.43364C7.2957 7.44281 7.05618 7.392 7.01901 7.67568C6.95431 8.16401 6.95225 8.64176 7.07958 9.12303C7.40307 10.3431 8.12094 11.2062 9.24765 11.7206C9.92904 12.0318 10.6297 12.0403 11.3799 11.9105ZM11.4198 17.1416C11.4198 16.6787 11.4728 16.2165 11.4088 15.7726C11.2829 14.8997 10.8644 14.182 10.214 13.5836C9.39563 12.8314 8.43479 12.614 7.38448 12.6747C7.26128 12.6818 7.08302 12.7827 7.03897 12.8878C6.96808 13.0572 6.9488 13.2717 6.97565 13.4573C7.04516 13.9414 7.08715 14.4459 7.25646 14.8955C7.61712 15.8517 8.29576 16.5256 9.21323 16.9504C9.90357 17.2694 10.6118 17.2891 11.4198 17.1416Z" fill="#247360"/>
<path d="M11.473 20.9944C11.473 20.9944 11.4678 19.2341 11.4653 18.354C11.4501 18.3385 11.4357 18.3229 11.4205 18.3067H11.4192C11.1046 18.3229 10.7901 18.3469 10.4755 18.3533C9.57389 18.3723 8.76448 18.0823 8.02527 17.5665C7.06788 16.8989 6.39956 16.0104 6.06437 14.8665C5.8042 13.9802 5.83861 13.0974 6.05611 12.2075C6.1449 11.842 6.4147 11.7411 6.70378 11.6508C6.83524 11.6091 6.97702 11.6021 7.15185 11.5731C7.02383 11.4158 6.90682 11.2888 6.8084 11.1483C6.3032 10.4342 6.00931 9.64735 5.9102 8.7596C5.84068 8.1379 5.94874 7.55784 6.06093 6.96366C6.13113 6.59176 6.40438 6.47674 6.70447 6.41182C7.57032 6.22411 8.43135 6.23399 9.28137 6.51555C9.30477 6.52331 9.33368 6.51132 9.34332 6.51061C9.32129 6.03992 9.28068 5.57347 9.28206 5.10773C9.28481 4.0351 9.64754 3.09725 10.3103 2.26737C10.6972 1.78257 11.1604 1.40645 11.6814 1.09313C11.903 0.959755 12.1143 0.97528 12.3332 1.10371C13.5363 1.80727 14.3436 2.83121 14.652 4.22069C14.7993 4.88473 14.8303 5.57065 14.6658 6.2481C14.6486 6.31867 14.6637 6.397 14.6637 6.43934C15.246 6.38994 15.8269 6.30032 16.4071 6.30526C16.8091 6.30879 17.2144 6.42593 17.6088 6.53108C17.7245 6.56213 17.8594 6.70891 17.8958 6.83099C18.0906 7.48374 18.1594 8.14425 18.0837 8.83652C17.9929 9.66922 17.7231 10.4088 17.2461 11.0778C17.1298 11.2408 17.0038 11.396 16.8703 11.5696C17.0348 11.6148 17.1883 11.6677 17.3459 11.6995C17.8807 11.8067 17.9282 11.9973 18.0108 12.5131C18.0714 12.8942 18.1223 13.2823 18.1188 13.6669C18.1085 14.6929 17.7919 15.6181 17.1718 16.4317C16.595 17.1882 15.8744 17.7457 15.0023 18.0851C14.2301 18.3857 13.4262 18.414 12.5734 18.3074V18.5636C12.5734 19.3736 12.5746 20.1841 12.573 20.9944M11.473 20.9944C11.9026 20.9944 12.573 20.9944 12.573 20.9944M11.473 20.9944H12.573M16.9488 7.47598C16.4759 7.47598 16.0072 7.44069 15.5454 7.48303C14.5832 7.57195 13.8804 8.14708 13.294 8.87745C12.6691 9.65581 12.5135 10.5824 12.572 11.5633C12.5872 11.8159 12.6987 11.9831 12.9533 11.9803C13.3601 11.9761 13.7841 12.0149 14.1702 11.9133C15.4896 11.5654 16.4078 10.7299 16.86 9.3926C17.0685 8.77654 17.0685 8.14637 16.9488 7.47598ZM12.0138 8.44911C12.4874 8.08709 12.9051 7.70321 13.1832 7.18594C13.559 6.48874 13.7077 5.76118 13.632 4.94824C13.5273 3.82198 13.0118 2.9787 12.1646 2.31466C12.1012 2.26526 11.9292 2.26949 11.8693 2.32242C11.5802 2.57576 11.2629 2.8178 11.0468 3.13042C10.2856 4.23127 10.1582 5.4408 10.6091 6.70185C10.8761 7.44916 11.3682 8.02005 12.0138 8.44911ZM12.6526 17.1543C15.076 17.7111 17.5118 15.4649 16.9474 12.7439C14.2156 12.1342 12.0854 14.6993 12.6526 17.1543ZM11.3799 11.9105C11.3799 11.4024 11.4322 10.8907 11.3682 10.3947C11.2588 9.54926 10.8162 8.88098 10.1885 8.31785C9.38806 7.59947 8.45475 7.36378 7.42922 7.43364C7.2957 7.44281 7.05618 7.392 7.01901 7.67568C6.95431 8.16401 6.95225 8.64176 7.07958 9.12303C7.40307 10.3431 8.12094 11.2062 9.24765 11.7206C9.92904 12.0318 10.6297 12.0403 11.3799 11.9105ZM11.4198 17.1416C11.4198 16.6787 11.4728 16.2165 11.4088 15.7726C11.2829 14.8997 10.8644 14.182 10.214 13.5836C9.39563 12.8314 8.43479 12.614 7.38448 12.6747C7.26128 12.6818 7.08302 12.7827 7.03897 12.8878C6.96808 13.0572 6.9488 13.2717 6.97565 13.4573C7.04516 13.9414 7.08715 14.4459 7.25646 14.8955C7.61712 15.8517 8.29576 16.5256 9.21323 16.9504C9.90357 17.2694 10.6118 17.2891 11.4198 17.1416Z" stroke="#247360" stroke-width="0.75" stroke-linecap="round"/>
<path fill-rule="evenodd" clip-rule="evenodd" d="M22 22.0196C22 22.5859 21.5523 23.0449 21 23.0449L3 23.0449C2.44772 23.0449 2 22.5859 2 22.0196C2 21.4534 2.44772 20.9944 3 20.9944L21 20.9944C21.5523 20.9944 22 21.4534 22 22.0196Z" fill="#247360"/>
</svg>
