<svg width="22" height="24" viewBox="0 0 22 24" fill="none" xmlns="http://www.w3.org/2000/svg">
<path fill-rule="evenodd" clip-rule="evenodd" d="M10.88 1.9873C10.88 1.9873 6.32 4.8773 10.88 9.4373C10.88 9.4373 15.82 5.7873 10.88 1.9873Z" stroke="#266F68" stroke-width="2" stroke-linecap="round" stroke-linejoin="round"/>
<path fill-rule="evenodd" clip-rule="evenodd" d="M10.72 13.0573C10.72 13.0573 4.91002 13.8873 5.59002 7.59729C5.59002 7.59729 11.46 5.88729 10.72 13.0573Z" stroke="#266F68" stroke-width="2" stroke-linecap="round" stroke-linejoin="round"/>
<path fill-rule="evenodd" clip-rule="evenodd" d="M10.72 18.4674C10.72 18.4674 4.91002 19.2974 5.59002 13.0074C5.59002 13.0074 11.46 11.2974 10.72 18.4674Z" stroke="#266F68" stroke-width="2" stroke-linecap="round" stroke-linejoin="round"/>
<path fill-rule="evenodd" clip-rule="evenodd" d="M11.22 13.0573C11.22 13.0573 17.03 13.8873 16.35 7.59729C16.35 7.59729 10.48 5.88729 11.22 13.0573Z" stroke="#266F68" stroke-width="2" stroke-linecap="round" stroke-linejoin="round"/>
<path fill-rule="evenodd" clip-rule="evenodd" d="M11.22 18.4674C11.22 18.4674 17.03 19.2974 16.35 13.0074C16.35 13.0074 10.48 11.2974 11.22 18.4674Z" stroke="#266F68" stroke-width="2" stroke-linecap="round" stroke-linejoin="round"/>
<path d="M10.88 9.82715V22.4771" stroke="#266F68" stroke-width="2" stroke-linecap="round" stroke-linejoin="round"/>
<path d="M1.75 22.4775H20.25" stroke="#266F68" stroke-width="2" stroke-miterlimit="10" stroke-linecap="round" stroke-linejoin="round"/>
</svg>
