<svg width="24" height="24" viewBox="0 0 24 24" fill="none" xmlns="http://www.w3.org/2000/svg">
<path d="M23.5285 5.82485L23.5285 5.82509C23.5294 5.87568 23.5463 6.97563 23.1649 8.14919L23.1649 8.14922C22.6339 9.782 21.5965 10.7884 20.1574 11.0206C20.1277 11.0255 20.0972 11.0278 20.0677 11.0278H16.8468L16.0208 17.2091C15.9296 18.6788 15.5262 19.5915 14.9784 20.1365C14.4289 20.6833 13.7519 20.8425 13.1534 20.8425H10.845C10.2465 20.8425 9.56954 20.6833 9.02004 20.1365C8.47226 19.5915 8.06887 18.6788 7.97764 17.2091L7.15479 11.0475H3.93153C3.90195 11.0475 3.87143 11.0451 3.84165 11.0403M23.5285 5.82485L8.13214 4.02262L6.79258 5.97586C6.2191 5.38928 5.49399 5.06831 4.71388 5.14077L1.11384 5.12673V5.12673H1.11335H1.11177C0.745439 5.12673 0.479684 5.46553 0.471517 5.84424L0.471508 5.84477C0.470636 5.89526 0.45295 6.99526 0.834341 8.16888L0.834342 8.16888C1.36532 9.80255 2.40189 10.808 3.84165 11.0403M23.5285 5.82485C23.5212 5.44562 23.2544 5.10705 22.8883 5.10705L22.8867 5.10704L22.8862 5.10705M23.5285 5.82485L22.8862 5.10705M3.84165 11.0403L3.86177 10.9169M3.84165 11.0403C3.84173 11.0403 3.8418 11.0403 3.84187 11.0403L3.86177 10.9169M3.86177 10.9169C2.47845 10.6938 1.47326 9.73025 0.953221 8.13025L7.2642 10.9225H3.93153C3.90855 10.9225 3.88476 10.9207 3.86177 10.9169ZM22.8862 5.10705L19.2861 5.12108C18.5053 5.04884 17.7799 5.36941 17.2056 5.95681M22.8862 5.10705L17.2056 5.95681M17.2056 5.95681L16.078 4.13063L16.078 4.13062C16.0447 4.07671 15.9899 3.98806 15.8766 3.88844C15.7644 3.78988 15.5996 3.68443 15.3483 3.58515C14.8479 3.38744 13.9954 3.21062 12.5072 3.16591L12.5071 3.16591C11.5942 3.13857 10.689 3.17712 9.95787 3.2757L9.95782 3.27571C8.71939 3.44314 8.33379 3.72797 8.13222 4.0225L17.2056 5.95681ZM4.7869 6.48243L4.80025 6.60672C5.25584 6.55779 5.70614 6.7875 6.07041 7.2361C6.43436 7.68431 6.70204 8.34083 6.78397 9.10802L6.83424 9.57994H3.97897C3.14509 9.4307 2.62461 8.90671 2.29621 8.2887C1.99462 7.72113 1.85912 7.08048 1.79888 6.59862L4.73805 6.61024L4.73805 6.61045L4.74525 6.61007C4.74718 6.60996 4.74999 6.60985 4.75341 6.60972C4.76549 6.60926 4.78527 6.6085 4.80158 6.60657L4.7869 6.48243ZM4.7869 6.48243C4.77603 6.48372 4.76553 6.48412 4.75438 6.48455C4.74927 6.48475 4.74402 6.48495 4.73854 6.48525L6.90826 9.09475C6.7402 7.52099 5.80794 6.37277 4.7869 6.48243ZM19.2612 6.59056L19.2607 6.59056C19.2385 6.59056 19.2188 6.58936 19.1983 6.58696M19.2612 6.59056L17.091 9.07506L17.0393 9.56026H17.165M19.2612 6.59056L22.2005 6.57893C22.1405 7.06074 22.005 7.70142 21.7034 8.26901C21.375 8.88704 20.8545 9.41102 20.0211 9.56026M19.2612 6.59056L20.0211 9.56026M19.1983 6.58696C19.1981 6.58693 19.1979 6.58691 19.1977 6.58688L19.2123 6.46275L19.1989 6.58702C19.1987 6.587 19.1985 6.58698 19.1983 6.58696ZM19.1983 6.58696C18.7434 6.53788 18.2933 6.7673 17.9291 7.21573C17.5651 7.66393 17.2972 8.32068 17.2153 9.08831L17.165 9.56026M17.165 9.56026H20.0211M17.165 9.56026L17.1517 9.68526L20.0211 9.56026M14.1073 16.9121L14.1073 16.9121C14.3468 17.0063 14.506 17.1052 14.6042 17.1887C14.6534 17.2305 14.6856 17.2671 14.7052 17.2957C14.718 17.3144 14.7237 17.3272 14.7262 17.334C14.6407 18.2637 14.4095 18.767 14.1323 19.0398C13.8568 19.3109 13.5147 19.375 13.1542 19.375H10.8458C10.4853 19.375 10.1432 19.3109 9.86762 19.0398C9.59 18.7667 9.3583 18.2624 9.27275 17.3304C9.27519 17.3209 9.28225 17.3033 9.30149 17.2775C9.32583 17.2448 9.36481 17.2057 9.42154 17.1624C9.53493 17.0759 9.70787 16.9814 9.94131 16.894C10.4072 16.7195 11.0995 16.5787 12 16.5787C12.8064 16.5787 13.5745 16.7021 14.1073 16.9121ZM12.0925 4.62687L12.0925 4.62687C12.9679 4.63432 13.6707 4.70001 14.1807 4.78521C14.4359 4.82784 14.6412 4.87509 14.7948 4.92175C14.9339 4.96397 15.0203 5.00274 15.0642 5.03122L16.124 6.7482L14.9277 15.7053C14.1445 15.2792 13.0439 15.1101 12 15.1101C10.956 15.1101 9.85603 15.2792 9.07237 15.7054L7.87883 6.76941L9.1082 4.97737C9.15163 4.95097 9.23968 4.9144 9.38232 4.87489C9.53888 4.83152 9.74783 4.78811 10.0059 4.74996C10.5218 4.67371 11.228 4.61942 12.0925 4.62687Z" fill="#266F68" stroke="#266F68" stroke-width="0.25"/>
</svg>
