<svg width="102" height="64" viewBox="0 0 102 64" fill="none" xmlns="http://www.w3.org/2000/svg">
<rect x="30.7459" width="39.5304" height="39.7241" fill="white"/>
<rect x="30.7459" width="10.3123" height="4.6057" fill="#78C99E"/>
<rect x="30.7459" y="11.5143" width="10.3123" height="7.48426" fill="#78C99E"/>
<rect x="30.7459" y="5.75708" width="4.58323" height="4.6057" fill="#78C99E"/>
<rect x="42.2041" y="35.1184" width="5.15613" height="4.6057" fill="#78C99E"/>
<rect x="42.2041" y="29.3613" width="5.15613" height="4.6057" fill="#FFB800"/>
<rect x="48.5056" y="35.1184" width="15.4684" height="4.6057" fill="#78C99E"/>
<rect x="48.5056" y="29.3613" width="21.7703" height="4.6057" fill="#78C99E"/>
<rect x="65.1198" y="35.1184" width="5.15613" height="4.6057" fill="#028577"/>
<rect x="36.475" y="5.75708" width="4.58323" height="4.6057" fill="#028577"/>
<rect x="30.7459" y="20.1499" width="10.3123" height="19.5742" fill="#028577"/>
<rect x="42.2041" width="28.0723" height="28.2099" fill="#028577"/>
<path d="M0 64V51.3966H0.875021V63.1724H6.85433V64H0Z" fill="#028577"/>
<path d="M12.3189 64V51.3966H13.1939V64H12.3189Z" fill="#028577"/>
<path d="M23.3082 64H22.4246V52.2242H18.3497V51.3966H27.383V52.2242H23.3082V64Z" fill="#028577"/>
<path d="M39.4017 64H32.5474V51.3966H39.4017V52.2069H33.4224V56.9742H39.0671V57.7845H33.4224V63.1897H39.4017V64Z" fill="#028577"/>
<path d="M47.9546 64H45.3381V51.3966H52.527V53.5862H47.9546V56.8362H52.2096V59.0173H47.9546V64Z" fill="#028577"/>
<path d="M65.9526 64L65.0432 61H60.4708L59.5615 64H56.6962L61.1228 51.3448H64.3741L68.8178 64H65.9526ZM64.4084 58.7586C63.5677 56.0403 63.093 54.5029 62.9844 54.1466C62.8814 53.7903 62.8071 53.5086 62.7613 53.3017C62.5726 54.0374 62.0321 55.8563 61.1399 58.7586H64.4084Z" fill="#028577"/>
<path d="M76.3585 56.9914H77.2163C78.057 56.9914 78.6775 56.8506 79.0779 56.569C79.4782 56.2874 79.6784 55.8448 79.6784 55.2414C79.6784 54.6437 79.4725 54.2184 79.0607 53.9655C78.6547 53.7127 78.0227 53.5862 77.1648 53.5862H76.3585V56.9914ZM76.3585 59.1638V64H73.6991V51.3966H77.3536C79.0579 51.3966 80.3189 51.7098 81.1368 52.3362C81.9546 52.9569 82.3635 53.9023 82.3635 55.1724C82.3635 55.9138 82.1605 56.5747 81.7544 57.1552C81.3484 57.7299 80.7736 58.1811 80.0301 58.5086C81.9174 61.342 83.147 63.1724 83.7189 64H80.7679L77.7739 59.1638H76.3585Z" fill="#028577"/>
<path d="M93.9018 64L90.8821 54.1121H90.8049C90.9135 56.1236 90.9679 57.4655 90.9679 58.138V64H88.5916V51.3966H92.2118L95.18 61.0345H95.2315L98.3798 51.3966H102V64H99.5208V58.0345C99.5208 57.7529 99.5236 57.4282 99.5294 57.0604C99.5408 56.6926 99.5808 55.7155 99.6495 54.1293H99.5723L96.3381 64H93.9018Z" fill="#028577"/>
</svg>
