<svg width="24" height="24" viewBox="0 0 24 24" fill="none" xmlns="http://www.w3.org/2000/svg">
<path d="M20.5 7.27775L12 12M12 12L3.49997 7.27775M12 12L12 21.5M21 16.0586V7.94145C21 7.5988 21 7.42748 20.9495 7.27468C20.9049 7.13951 20.8318 7.01542 20.7354 6.91073C20.6263 6.7924 20.4766 6.7092 20.177 6.54279L12.777 2.43168C12.4934 2.27412 12.3516 2.19535 12.2015 2.16446C12.0685 2.13713 11.9315 2.13713 11.7986 2.16446C11.6484 2.19535 11.5066 2.27413 11.223 2.43168L3.82297 6.5428C3.52345 6.7092 3.37369 6.7924 3.26463 6.91074C3.16816 7.01543 3.09515 7.13951 3.05048 7.27468C3 7.42748 3 7.5988 3 7.94145V16.0586C3 16.4012 3 16.5725 3.05048 16.7253C3.09515 16.8605 3.16816 16.9846 3.26463 17.0893C3.37369 17.2076 3.52345 17.2908 3.82297 17.4572L11.223 21.5683C11.5066 21.7259 11.6484 21.8047 11.7986 21.8355C11.9315 21.8629 12.0685 21.8629 12.2015 21.8355C12.3516 21.8047 12.4934 21.7259 12.777 21.5683L20.177 17.4572C20.4766 17.2908 20.6263 17.2076 20.7354 17.0893C20.8318 16.9846 20.9049 16.8605 20.9495 16.7253C21 16.5725 21 16.4012 21 16.0586Z" stroke="#266F68" stroke-width="2" stroke-linecap="round" stroke-linejoin="round"/>
<path d="M16.5 9.5L7.5 4.5" stroke="#266F68" stroke-width="2" stroke-linecap="round" stroke-linejoin="round"/>
</svg>
