<svg width="34" height="34" viewBox="0 0 34 34" fill="none" xmlns="http://www.w3.org/2000/svg">
<g filter="url(#filter0_d_5979_95323)">
<g filter="url(#filter1_d_5979_95323)">
<rect x="6.96405" y="7.35791" width="26.0343" height="25.6421" rx="6" fill="white"/>
</g>
<g filter="url(#filter2_d_5979_95323)">
<rect x="3.98163" y="4.1792" width="26.0343" height="25.6421" rx="6" fill="white"/>
</g>
<g filter="url(#filter3_d_5979_95323)">
<rect x="0.999207" y="1" width="26.0343" height="25.6421" rx="6" fill="white"/>
<rect x="1.49921" y="1.5" width="25.0343" height="24.6421" rx="5.5" stroke="white"/>
</g>
<g clip-path="url(#clip0_5979_95323)">
<path d="M24.34 8.42087C24.3196 8.13536 24.0885 7.91783 23.8098 7.90424C23.701 7.90424 21.111 7.78187 19.9894 7.90424C19.4523 7.96542 19.0241 8.20334 18.691 8.47526C18.691 8.47526 18.691 8.46166 18.6842 8.46166L17.4538 6.71461C17.3722 6.59905 17.2498 6.51747 17.1139 6.49028C13.2527 5.64055 10.9414 6.47669 10.8463 6.51067C10.7375 6.55146 10.6423 6.62624 10.5743 6.72141L9.4051 8.46846C9.4051 8.46846 9.39151 8.49565 9.38471 8.50925C9.04482 8.22374 8.60975 7.96542 8.05233 7.90424C6.93068 7.77508 4.3407 7.89744 4.22513 7.90424C3.93962 7.91783 3.71529 8.14216 3.6949 8.42087C3.6949 8.46846 3.61333 9.6173 4.17755 10.8273C4.77576 12.1121 5.40796 12.7511 6.2237 12.8939C6.55 12.9482 7.44052 12.9618 8.29705 12.9618C8.80689 12.9618 9.30314 12.9618 9.65663 12.9483L10.7375 20.2627C10.7375 20.2627 10.7443 20.3103 10.7511 20.3375C10.7987 20.4939 11.2813 21.8874 14.1364 21.8874C16.9915 21.8874 17.2566 20.4939 17.2634 20.3851L18.3375 12.955C18.6978 12.955 19.2144 12.9686 19.7447 12.9686C20.6012 12.9686 21.4917 12.955 21.818 12.9007C22.6337 12.7579 23.2659 12.1257 23.8642 10.8341C24.4284 9.6241 24.3468 8.47526 24.3468 8.42767L24.34 8.42087ZM10.4248 8.9647L11.3969 7.51676C11.9407 7.36721 13.8237 6.95254 16.6584 7.54395L17.6713 8.9851L17.7053 9.44055L16.5972 17.1153C16.0466 16.9046 15.2037 16.6939 13.9801 16.6939C12.7565 16.6939 11.9407 16.8978 11.3969 17.1085L10.384 10.2427L10.418 8.9647H10.4248ZM6.41405 11.7926C6.01297 11.7246 5.6119 11.2556 5.19723 10.3651C4.9593 9.85522 4.87093 9.35898 4.83694 9.00549C5.65948 8.9783 7.189 8.93751 7.92997 9.02588C8.58256 9.10066 9.01083 9.71247 9.13999 9.90961L9.47988 11.8402C8.27666 11.8538 6.76753 11.8538 6.42084 11.7926H6.41405ZM14.1364 20.7726C12.3282 20.7726 11.8931 20.1404 11.8387 20.0452L11.5736 18.2642C11.9271 18.0874 12.6885 17.8155 13.9869 17.8155C15.2853 17.8155 16.0738 18.0942 16.4341 18.271L16.1486 20.2288C16.1486 20.2288 15.9243 20.7794 14.1296 20.7794L14.1364 20.7726ZM22.8377 10.3583C22.423 11.2488 22.0219 11.7178 21.6209 11.7926C21.281 11.8538 19.765 11.8538 18.5618 11.8402L18.9017 9.90961C19.0309 9.70567 19.4591 9.09386 20.1117 9.02588C20.8527 8.94431 22.3822 8.9783 23.2048 9.00549C23.1708 9.35898 23.0756 9.85522 22.8445 10.3583H22.8377Z" fill="#8F26F0"/>
</g>
</g>
<defs>
<filter id="filter0_d_5979_95323" x="-0.000793457" y="0" width="32.9992" height="33" filterUnits="userSpaceOnUse" color-interpolation-filters="sRGB">
<feFlood flood-opacity="0" result="BackgroundImageFix"/>
<feColorMatrix in="SourceAlpha" type="matrix" values="0 0 0 0 0 0 0 0 0 0 0 0 0 0 0 0 0 0 127 0" result="hardAlpha"/>
<feOffset dx="-1" dy="-1"/>
<feComposite in2="hardAlpha" operator="out"/>
<feColorMatrix type="matrix" values="0 0 0 0 0.956782 0 0 0 0 0.91 0 0 0 0 1 0 0 0 1 0"/>
<feBlend mode="normal" in2="BackgroundImageFix" result="effect1_dropShadow_5979_95323"/>
<feBlend mode="normal" in="SourceGraphic" in2="effect1_dropShadow_5979_95323" result="shape"/>
</filter>
<filter id="filter1_d_5979_95323" x="6.96405" y="7.35791" width="27.0343" height="26.6421" filterUnits="userSpaceOnUse" color-interpolation-filters="sRGB">
<feFlood flood-opacity="0" result="BackgroundImageFix"/>
<feColorMatrix in="SourceAlpha" type="matrix" values="0 0 0 0 0 0 0 0 0 0 0 0 0 0 0 0 0 0 127 0" result="hardAlpha"/>
<feOffset dx="1" dy="1"/>
<feComposite in2="hardAlpha" operator="out"/>
<feColorMatrix type="matrix" values="0 0 0 0 0.956782 0 0 0 0 0.91 0 0 0 0 1 0 0 0 1 0"/>
<feBlend mode="normal" in2="BackgroundImageFix" result="effect1_dropShadow_5979_95323"/>
<feBlend mode="normal" in="SourceGraphic" in2="effect1_dropShadow_5979_95323" result="shape"/>
</filter>
<filter id="filter2_d_5979_95323" x="3.98163" y="4.1792" width="27.0343" height="26.6421" filterUnits="userSpaceOnUse" color-interpolation-filters="sRGB">
<feFlood flood-opacity="0" result="BackgroundImageFix"/>
<feColorMatrix in="SourceAlpha" type="matrix" values="0 0 0 0 0 0 0 0 0 0 0 0 0 0 0 0 0 0 127 0" result="hardAlpha"/>
<feOffset dx="1" dy="1"/>
<feComposite in2="hardAlpha" operator="out"/>
<feColorMatrix type="matrix" values="0 0 0 0 0.850786 0 0 0 0 0.752941 0 0 0 0 0.941176 0 0 0 1 0"/>
<feBlend mode="normal" in2="BackgroundImageFix" result="effect1_dropShadow_5979_95323"/>
<feBlend mode="normal" in="SourceGraphic" in2="effect1_dropShadow_5979_95323" result="shape"/>
</filter>
<filter id="filter3_d_5979_95323" x="0.999207" y="1" width="27.0343" height="26.6421" filterUnits="userSpaceOnUse" color-interpolation-filters="sRGB">
<feFlood flood-opacity="0" result="BackgroundImageFix"/>
<feColorMatrix in="SourceAlpha" type="matrix" values="0 0 0 0 0 0 0 0 0 0 0 0 0 0 0 0 0 0 127 0" result="hardAlpha"/>
<feOffset dx="1" dy="1"/>
<feComposite in2="hardAlpha" operator="out"/>
<feColorMatrix type="matrix" values="0 0 0 0 0.742318 0 0 0 0 0.527059 0 0 0 0 0.941176 0 0 0 1 0"/>
<feBlend mode="normal" in2="BackgroundImageFix" result="effect1_dropShadow_5979_95323"/>
<feBlend mode="normal" in="SourceGraphic" in2="effect1_dropShadow_5979_95323" result="shape"/>
</filter>
<clipPath id="clip0_5979_95323">
<rect width="20.6602" height="20.6602" fill="white" transform="translate(3.69077 3.66895)"/>
</clipPath>
</defs>
</svg>
