<svg width="32" height="33" viewBox="0 0 32 33" fill="none" xmlns="http://www.w3.org/2000/svg">
<g filter="url(#filter0_d_7410_95208)">
<rect width="32" height="32" rx="8" fill="white" shape-rendering="crispEdges"/>
<rect x="0.5" y="0.5" width="31" height="31" rx="7.5" stroke="#C0E1DD" shape-rendering="crispEdges"/>
<path fill-rule="evenodd" clip-rule="evenodd" d="M24.2938 8.05047C24.1763 9.35988 23.7314 10.5602 22.976 11.6094H22.9928C24.8898 12.0794 26.2579 13.9932 26.0649 16.0077C25.9809 16.8386 25.5864 17.4766 24.9233 17.8459C23.8573 18.4334 22.3633 18.2236 21.4064 17.7619C21.0371 18.8028 20.7937 19.8687 20.6761 20.9263L20.6342 21.3544L20.6325 21.37C20.4233 23.3116 20.2259 25.1431 18.2336 26.3151C17.5537 26.718 16.8151 26.9194 16.0764 26.9194C15.4553 26.9194 14.8342 26.7767 14.2466 26.4913C12.8616 25.8199 11.9048 24.4769 11.6949 22.9156C11.653 22.6303 11.6194 22.3449 11.5858 22.0595C11.4095 20.599 11.2417 19.214 10.6121 17.8207C9.26076 18.5174 7.69114 18.4334 6.74266 17.6192C5.8949 16.889 5.69345 15.6971 6.20546 14.3541C6.75105 12.9104 7.77508 11.9535 9.03413 11.7101C8.23673 10.6945 7.37218 8.78072 7.85062 7.53846C7.89259 7.43773 7.95974 7.3538 8.05207 7.29504C8.42139 7.06002 8.8075 7.09359 9.15164 7.39576C9.93225 8.09244 10.822 8.62124 11.7956 8.97377C12.2564 9.13545 12.8729 9.25041 13.4801 9.36365C13.5034 9.36799 13.5267 9.37233 13.5499 9.37667C13.6646 9.39905 13.7803 9.4205 13.8959 9.44195C14.1272 9.48485 14.3585 9.52775 14.5823 9.57812C16.2527 9.94744 18.5945 9.38506 19.8452 9.01574C20.9196 8.69678 21.8764 8.1428 22.6906 7.37058C22.9928 7.0768 23.4544 7.00126 23.8238 7.17753C24.1511 7.33701 24.3274 7.66436 24.2938 8.05047ZM19.1737 21.4635C19.2912 20.2884 19.5178 19.1301 19.862 18.0137L19.8787 18.0054C20.6845 15.311 20.6929 13.4224 19.8787 12.3816C19.5682 11.9871 19.0394 11.6597 18.3175 11.4163C17.5537 11.1561 16.7731 11.0218 16.0009 11.0218C15.044 11.0218 14.0871 11.2233 13.1302 11.6178C11.7705 12.1802 11.4179 13.8169 11.527 15.0508C11.6169 16.0803 11.9056 17.0223 12.1842 17.9311C12.1918 17.9558 12.1994 17.9806 12.2069 18.0054C12.4671 18.8531 12.7106 19.6505 12.7777 20.4395L12.8029 20.7921C12.9456 22.6806 13.1134 24.8126 15.3042 25.4002C16.7479 25.7947 18.3427 24.9637 18.8631 23.5536C18.9219 23.3857 19.031 22.8821 19.1737 21.4635ZM19.6773 10.4762C20.2229 10.7197 20.7013 11.1897 21.0119 11.6094V11.601C21.8261 10.9799 22.3968 10.1573 22.6906 9.16683C21.7673 9.80474 20.7601 10.2412 19.6773 10.4762ZM23.3369 13.2294C22.8753 12.8936 22.3465 12.9272 21.7002 13.0867C21.7841 14.0687 21.7925 15.0676 21.717 16.0496C21.7002 16.2259 21.7589 16.3434 21.8932 16.4273C22.7746 16.9813 23.6223 16.9981 24.4869 16.4861C25.0157 15.0928 24.2351 13.8925 23.3369 13.2294ZM9.87349 16.612C10.1001 16.4525 10.3519 16.1504 10.2512 15.6551L10.2428 15.6467C10.0665 14.7822 10.0833 13.9344 10.2932 13.1202C10.1001 13.0699 9.89868 13.0447 9.70562 13.0447C9.29433 13.0447 8.89144 13.1622 8.53051 13.3972C7.86741 13.8337 7.41415 14.6479 7.29664 15.5796C7.2211 16.1839 7.54006 16.5113 7.81705 16.6792C8.39621 17.0233 9.3363 16.9897 9.87349 16.612ZM9.27148 9.22455C10.1837 9.85012 11.204 10.2841 12.2993 10.5266C11.7873 10.8036 11.334 11.1561 10.9479 11.5926C10.2196 11.308 9.55812 10.1301 9.27148 9.22455ZM14.532 21.7827C15.5057 21.0608 16.4793 21.0524 17.411 21.7743H17.4194C17.7887 22.0597 17.9314 22.429 17.7887 22.7899C17.7552 22.8739 17.7048 22.9494 17.6376 23.0166C17.5705 23.0753 17.4949 23.1173 17.411 23.1509C17.3439 23.176 17.2851 23.1844 17.218 23.1844H17.1424C17.0585 23.176 16.9661 23.1425 16.8906 23.0921C16.622 22.9242 16.3282 22.7815 16.0345 22.664L14.8426 23.1257C14.7418 23.1592 14.6411 23.1592 14.5488 23.1341C14.4564 23.1089 14.3725 23.0501 14.3138 22.9662C14.0116 22.5381 14.0955 22.11 14.532 21.7827Z" fill="#78BDB6"/>
</g>
<defs>
<filter id="filter0_d_7410_95208" x="0" y="0" width="32" height="33" filterUnits="userSpaceOnUse" color-interpolation-filters="sRGB">
<feFlood flood-opacity="0" result="BackgroundImageFix"/>
<feColorMatrix in="SourceAlpha" type="matrix" values="0 0 0 0 0 0 0 0 0 0 0 0 0 0 0 0 0 0 127 0" result="hardAlpha"/>
<feOffset dy="1"/>
<feComposite in2="hardAlpha" operator="out"/>
<feColorMatrix type="matrix" values="0 0 0 0 0.941176 0 0 0 0 0.945098 0 0 0 0 0.952941 0 0 0 1 0"/>
<feBlend mode="normal" in2="BackgroundImageFix" result="effect1_dropShadow_7410_95208"/>
<feBlend mode="normal" in="SourceGraphic" in2="effect1_dropShadow_7410_95208" result="shape"/>
</filter>
</defs>
</svg>
