<svg width="32" height="33" viewBox="0 0 32 33" fill="none" xmlns="http://www.w3.org/2000/svg">
<g filter="url(#filter0_d_3089_52006)">
<rect width="32" height="32" rx="8" fill="white" shape-rendering="crispEdges"/>
<rect x="0.5" y="0.5" width="31" height="31" rx="7.5" stroke="#C0E1DD" shape-rendering="crispEdges"/>
<path d="M20.1798 11.1321L20.5261 10.7611C20.93 10.3489 21.1691 9.77181 21.1691 9.16999C21.1691 7.96635 20.2623 6.99354 19.1493 6.99354C18.7453 6.99354 18.4568 7.09247 18.2507 7.23262C17.822 6.30103 17.1872 5.48486 16.1072 5.48486C14.8788 5.48486 14.2111 6.30103 13.8154 7.22438C13.5598 7.06774 13.2383 6.99354 12.859 6.99354C11.7461 6.99354 10.8392 7.96635 10.8392 9.16999C10.8392 9.79655 11.2267 10.5055 11.441 10.7199C11.4905 10.7694 11.6471 10.9425 11.8203 11.1321C9.80046 12.3357 8.57208 14.3226 8.57208 16.4825V21.0251C8.57208 22.3194 9.9571 23.2757 12.4551 23.7539V24.636C12.4551 25.6748 13.3867 26.5157 14.5408 26.5157C15.0437 26.5157 15.6043 26.359 16.0165 25.8314C16.4617 26.392 17.0388 26.5157 17.4675 26.5157C18.6134 26.5157 19.545 25.6748 19.545 24.636V23.7539C22.043 23.2757 23.428 22.3276 23.428 21.0251V16.4825C23.428 14.3226 22.1996 12.3357 20.1881 11.1321H20.1798ZM12.8425 8.23016C13.0734 8.23016 13.1558 8.27963 13.1723 8.29611C13.2877 8.43626 13.1476 9.02984 13.0981 9.25243C12.9992 9.67288 12.9003 10.1098 13.2712 10.4066L13.9308 10.926L14.2276 10.1428C14.3265 9.87074 14.4089 9.54922 14.4914 9.17824C14.8211 7.78498 15.1427 6.72973 16.0825 6.72973C16.8657 6.72973 17.3109 8.19718 17.6077 9.16999C17.7148 9.52449 17.8138 9.83777 17.9044 10.0604L18.1765 10.7116L18.7866 10.3571C19.24 10.0933 19.1163 9.5822 19.0174 9.21946C18.8773 8.69183 18.8443 8.37031 18.902 8.27963C18.902 8.27963 18.9597 8.24665 19.1328 8.24665C19.5698 8.24665 19.916 8.6671 19.916 9.18648C19.916 9.45854 19.8171 9.72235 19.6192 9.92021L18.7618 10.8518L15.9918 12.9788L13.2053 10.8518C13.0404 10.6787 12.3974 9.96967 12.3067 9.87899C12.2325 9.78006 12.0511 9.40907 12.0511 9.18648C12.0511 8.6671 12.4056 8.24665 12.8343 8.24665L12.8425 8.23016ZM12.5293 20.3573L15.9506 17.5873L19.4379 20.3573L18.3002 20.7777L15.9506 21.6516L12.9167 20.5057L12.5293 20.3573ZM18.3002 24.6277C18.3002 24.974 17.9127 25.2708 17.4593 25.2708C16.7832 25.2708 16.6266 24.2733 16.6184 23.4406H16.0001H15.3817C15.3817 25.2625 14.7882 25.2625 14.5408 25.2625C14.0792 25.2625 13.6917 24.9658 13.6917 24.6195V22.1133L15.9506 22.9707L18.3084 22.0968V24.6195L18.3002 24.6277ZM22.1832 21.0251C22.1832 21.5032 21.3587 22.1215 19.5368 22.5008V21.6434L21.9276 20.7612L15.9423 16.0126L10.0725 20.7612L12.4468 21.6599V22.5008C10.6249 22.1215 9.80046 21.5115 9.80046 21.0251V16.4825C9.80046 14.6688 10.9134 12.987 12.7271 12.0225L16.0083 14.5204L19.2647 12.0225C21.0784 12.987 22.1914 14.6688 22.1914 16.4825V21.0251H22.1832Z" fill="#78BDB6"/>
</g>
<defs>
<filter id="filter0_d_3089_52006" x="0" y="0" width="32" height="33" filterUnits="userSpaceOnUse" color-interpolation-filters="sRGB">
<feFlood flood-opacity="0" result="BackgroundImageFix"/>
<feColorMatrix in="SourceAlpha" type="matrix" values="0 0 0 0 0 0 0 0 0 0 0 0 0 0 0 0 0 0 127 0" result="hardAlpha"/>
<feOffset dy="1"/>
<feComposite in2="hardAlpha" operator="out"/>
<feColorMatrix type="matrix" values="0 0 0 0 0.941176 0 0 0 0 0.945098 0 0 0 0 0.952941 0 0 0 1 0"/>
<feBlend mode="normal" in2="BackgroundImageFix" result="effect1_dropShadow_3089_52006"/>
<feBlend mode="normal" in="SourceGraphic" in2="effect1_dropShadow_3089_52006" result="shape"/>
</filter>
</defs>
</svg>
