<svg width="32" height="33" viewBox="0 0 32 33" fill="none" xmlns="http://www.w3.org/2000/svg">
<g filter="url(#filter0_d_7410_95216)">
<rect x="-0.000854492" width="32" height="32" rx="8" fill="white"/>
<rect x="0.499146" y="0.5" width="31" height="31" rx="7.5" stroke="#C0E1DD"/>
<path d="M25.5498 9.25285C24.8066 7.50777 23.5626 6.42231 21.8425 6.02153C19.6716 5.52055 17.6092 6.59766 16.7075 8.69342C16.4403 9.30295 16.2733 9.99597 16.1731 10.856C16.1731 10.8643 16.1647 10.8894 16.1564 10.9061C16.0645 10.9144 15.9727 10.9061 15.8725 10.9061V10.7892C15.7556 9.77053 15.4884 8.91051 15.0626 8.15069C14.1274 6.50581 12.4158 5.66249 10.6039 5.94638C8.59995 6.25532 7.18052 7.44097 6.39565 9.47829C5.96146 10.6055 5.9698 11.7494 6.04495 12.7263L6.1535 14.1124L6.62944 13.3609C6.71293 13.2273 6.78807 13.1104 6.85487 12.9935C7.2473 12.3005 7.76499 11.7244 8.39122 11.2818C9.21783 10.6973 9.9693 10.3968 10.7375 10.3383C10.7542 10.3383 10.7625 10.3383 10.7709 10.3383C10.7876 10.3383 10.7959 10.3383 10.7959 10.3383C10.7959 10.3383 10.8126 10.355 10.8293 10.3968C11.1049 11.1315 11.2217 11.908 11.1716 12.7013C11.1716 12.7848 11.1549 12.8599 11.1466 12.9518C9.56851 12.5844 8.09062 12.8265 6.63778 13.6949L6.44574 13.8118L6.57098 13.9955C7.69819 15.5902 9.08423 16.5004 10.8126 16.7759C10.8544 16.7759 10.8627 16.7926 10.8627 16.7926C10.8627 16.7926 10.8794 16.8176 10.8961 16.8844L11.0798 17.5775C11.2718 18.2955 11.4639 19.0387 11.706 19.7484C11.8814 20.2577 12.0901 20.767 12.2905 21.2513C12.5827 21.961 12.8917 22.6958 13.0837 23.4556C13.209 23.9483 13.4344 24.4659 13.7684 25.0003C14.1525 25.6265 14.8622 26.0273 15.7222 26.1025C15.8141 26.1025 15.9059 26.1108 15.9978 26.1108C16.8077 26.1108 17.5925 25.8186 18.01 25.3427C18.486 24.7999 18.7364 24.157 18.9368 23.5558C19.0036 23.3554 19.0621 23.155 19.1289 22.9547C19.2875 22.4453 19.4462 21.9276 19.6549 21.435C20.2978 19.9154 20.899 18.4208 21.1662 16.7926C21.1829 16.7926 21.233 16.7759 21.258 16.7759C22.9697 16.5004 24.3558 15.5986 25.483 14.0038L25.6082 13.8285L25.4162 13.7116C24.0051 12.8599 22.4854 12.6094 20.899 12.9685C20.8155 12.1418 20.8823 11.4154 21.1161 10.7391C21.1495 10.6389 21.1746 10.5554 21.1996 10.4803C21.2163 10.4135 21.2414 10.33 21.2163 10.33C21.2581 10.33 21.3916 10.355 21.5252 10.3801L21.6505 10.4051C23.0198 10.689 24.1303 11.4405 24.9569 12.6428C25.0905 12.8349 25.2158 13.0352 25.3494 13.2523L25.9005 14.1291L25.9673 13.1772C25.984 12.9852 25.9923 12.8182 26.0007 12.6512C26.1092 11.3069 25.9589 10.2298 25.5498 9.25285ZM21.1578 14.0957C21.9761 13.8619 22.8361 13.9036 23.7713 14.2126C23.0699 14.939 22.26 15.3815 21.3081 15.5735L21.1662 14.0957H21.1578ZM10.8544 14.0873L10.7208 15.5735C9.75221 15.3732 8.94228 14.9223 8.24926 14.2126C9.12598 13.912 9.97765 13.8702 10.8544 14.0957V14.0873ZM24.7566 10.689C23.8214 9.92082 22.8862 9.45324 21.8592 9.25285C22.3018 8.67672 22.761 8.33439 23.3204 8.13399C23.3705 8.11729 23.3789 8.10895 23.4457 8.17574C24.122 8.84372 24.5562 9.67033 24.7566 10.689ZM12.3156 11.9498C12.1235 9.86237 11.2969 8.35944 9.79395 7.35748C10.6122 6.99844 11.4973 6.95669 12.2905 7.24893C13.1338 7.55787 13.8185 8.20914 14.2193 9.08586C14.4865 9.67033 14.6451 10.3049 14.7036 11.0146C13.7433 11.19 12.9668 11.4989 12.3156 11.9498ZM17.317 11.0146C17.3921 10.2715 17.5341 9.66198 17.7846 9.11925C18.1436 8.33439 18.6363 7.78331 19.2959 7.44097C20.2227 6.95669 21.1829 6.93164 22.2266 7.36582C20.7153 8.36778 19.9054 9.83733 19.7134 11.9498C19.0537 11.4906 18.2856 11.19 17.3254 11.0146H17.317ZM11.9482 14.7052C11.9649 14.5549 11.9732 14.4046 11.9816 14.2626C12.0484 13.8034 12.9668 12.8349 13.4595 12.6261C15.2379 11.8496 17.0081 11.8746 18.7114 12.7096C19.1372 12.9184 19.4712 13.2273 19.7301 13.6531C19.7301 13.6531 19.8303 13.7951 19.9889 14.3211C20.1392 14.8221 20.1642 15.5986 20.0473 16.4002C19.8052 18.0367 19.1706 19.5897 18.5945 20.9257C18.4442 21.268 18.3273 21.6187 18.2104 21.961C18.1687 22.0946 18.1186 22.2199 18.0768 22.3535C17.7846 22.0779 17.2001 21.6521 16.0479 21.6521C14.9791 21.6521 14.2861 22.0362 13.9354 22.3034C13.8185 22.0028 13.7016 21.7106 13.5931 21.41C13.2424 20.5082 12.8833 19.5814 12.5493 18.6546C12.1486 17.5524 11.9398 16.5505 11.9148 15.5902C11.9148 15.3064 11.9315 15.0141 11.9565 14.7052H11.9482ZM16.3568 22.8879C16.2649 23.0548 16.1815 23.2135 16.0729 23.3471C16.0312 23.3972 16.0061 23.4139 16.0061 23.4222C16.0061 23.4222 15.9727 23.4055 15.9393 23.3554C15.8308 23.2135 15.7473 23.0632 15.6554 22.8879C15.6554 22.8879 15.6554 22.8879 15.6554 22.8795C15.9059 22.8294 16.1313 22.8294 16.3651 22.8795L16.3568 22.8879ZM14.5282 23.3972L14.5867 23.3554C14.5867 23.3554 14.595 23.3805 14.6034 23.3888C14.6869 23.5642 14.7787 23.7312 14.8789 23.8815C15.1795 24.3407 15.5803 24.5912 16.0061 24.5912C16.4319 24.5912 16.8411 24.3407 17.1417 23.8898C17.2419 23.7395 17.3253 23.5809 17.4088 23.4055C17.4088 23.4055 17.4089 23.3972 17.4172 23.3888C17.509 23.464 17.6009 23.5391 17.6677 23.5976C17.6426 23.6727 17.6092 23.7479 17.5842 23.823L17.5341 23.9316C16.9747 25.2842 15.6638 24.9419 15.2797 24.8083C14.9457 24.6914 14.7036 24.4242 14.4948 23.9566C14.4531 23.8564 14.4113 23.7729 14.3779 23.7061C14.3445 23.6393 14.3111 23.5642 14.3028 23.5642C14.3195 23.5391 14.428 23.464 14.5282 23.3888V23.3972ZM10.1613 9.2445C9.14268 9.45324 8.19082 9.91247 7.28071 10.6556C7.47275 9.63693 7.91528 8.80197 8.61665 8.14234C8.625 8.14234 8.65839 8.13399 8.66674 8.13399C9.22617 8.30934 9.69376 8.65167 10.1613 9.25285V9.2445Z" fill="#78BDB6"/>
</g>
<defs>
<filter id="filter0_d_7410_95216" x="-0.000854492" y="0" width="32" height="33" filterUnits="userSpaceOnUse" color-interpolation-filters="sRGB">
<feFlood flood-opacity="0" result="BackgroundImageFix"/>
<feColorMatrix in="SourceAlpha" type="matrix" values="0 0 0 0 0 0 0 0 0 0 0 0 0 0 0 0 0 0 127 0" result="hardAlpha"/>
<feOffset dy="1"/>
<feComposite in2="hardAlpha" operator="out"/>
<feColorMatrix type="matrix" values="0 0 0 0 0.941176 0 0 0 0 0.945098 0 0 0 0 0.952941 0 0 0 1 0"/>
<feBlend mode="normal" in2="BackgroundImageFix" result="effect1_dropShadow_7410_95216"/>
<feBlend mode="normal" in="SourceGraphic" in2="effect1_dropShadow_7410_95216" result="shape"/>
</filter>
</defs>
</svg>
