<svg width="32" height="33" viewBox="0 0 32 33" fill="none" xmlns="http://www.w3.org/2000/svg">
<g filter="url(#filter0_d_7410_95206)">
<rect width="32" height="32" rx="8" fill="white"/>
<rect x="0.5" y="0.5" width="31" height="31" rx="7.5" stroke="#C0E1DD"/>
<path fill-rule="evenodd" clip-rule="evenodd" d="M23.8884 14.1815L24.1493 14.3446H24.133C24.6549 14.6544 25.3072 15.0458 25.136 16.0488C25.0544 16.5217 24.7772 16.7337 24.6141 16.8153C24.239 17.0028 23.8558 16.905 23.6845 16.8397L23.497 16.799V21.0717C23.497 24.0235 20.1538 26.4289 16.0442 26.4289C11.9345 26.4289 8.59135 24.0235 8.59135 21.0717V16.8316C8.35488 16.9294 7.96348 17.0436 7.57209 16.8968C7.27039 16.7826 7.03392 16.538 6.91976 16.1956C6.56358 15.1756 7.42891 14.6619 7.95207 14.3514L7.96348 14.3446C8.05318 14.2957 8.14287 14.2386 8.23257 14.1815C8.72181 13.8716 8.96643 13.3498 8.86858 12.8361C8.83597 12.6812 8.83597 12.5181 8.83597 12.355C8.83189 12.3509 8.82578 12.3468 8.81966 12.3428C8.81355 12.3387 8.80743 12.3346 8.80335 12.3305C8.71366 12.2408 6.81376 10.1126 8.20811 6.20682C8.35488 5.80727 8.74627 5.5708 9.17844 5.5708C9.61061 5.58711 9.97754 5.8725 10.0835 6.27205C10.3526 7.275 11.005 9.04444 12.3259 9.81092C12.8885 9.84353 13.443 9.63153 13.761 9.21567C14.2992 8.52258 15.1309 8.12303 16.0605 8.12303C16.99 8.12303 17.8218 8.52258 18.3599 9.21567C18.6779 9.63153 19.2243 9.84353 19.795 9.81092C21.116 9.05259 21.7683 7.275 22.0374 6.27205C22.1516 5.8725 22.5103 5.58711 22.9425 5.5708C23.3747 5.5708 23.7742 5.80727 23.9128 6.20682C25.299 10.1208 23.3991 12.2408 23.3176 12.3305C23.3135 12.3346 23.3074 12.3387 23.3013 12.3428C23.2952 12.3468 23.2891 12.3509 23.285 12.355C23.2931 12.5099 23.285 12.673 23.2524 12.8361C23.1464 13.3498 23.3991 13.8716 23.8884 14.1815ZM22.8936 10.6508C23.1545 9.96585 23.3665 8.86505 22.9833 7.35654V7.34839C22.706 8.1638 22.2902 9.03628 21.6949 9.76199C21.8743 9.81907 22.0537 9.90877 22.225 10.0229C22.5022 10.2105 22.7224 10.4306 22.8936 10.6508ZM9.15991 7.37346C9.44501 8.184 9.85124 9.04945 10.4505 9.77015C10.2711 9.82723 10.0917 9.91692 9.92046 10.0311C9.64322 10.2186 9.42306 10.4388 9.25183 10.6589C8.98326 9.97533 8.77968 8.87746 9.15991 7.37346ZM9.83892 21.0798C9.83892 23.3222 12.6928 25.214 16.0686 25.214V25.2058C19.4444 25.2058 22.2983 23.3141 22.2983 21.0717V17.0599C22.0782 17.1088 21.8499 17.1414 21.5808 17.1414C21.3525 17.1414 21.0997 17.1088 20.8388 17.0599V20.3949C20.8388 22.466 18.7024 24.1458 16.0686 24.1458C13.4349 24.1458 11.2985 22.4579 11.2985 20.3949V17.0191C10.744 17.0028 10.214 16.8642 9.83892 16.7419V21.0798ZM13.9241 15.9102C13.5898 16.2119 13.0924 16.587 12.5216 16.8153V20.4031C12.5216 21.7729 14.1443 22.9308 16.0686 22.9308C17.993 22.9308 19.6157 21.7729 19.6157 20.4031V16.644C19.1672 16.4076 18.8329 16.1466 18.6209 15.9183C17.993 16.22 16.8922 16.6848 15.9871 16.6848C15.1309 16.6848 14.3807 16.2526 13.9241 15.9102ZM22.6734 15.6085C22.8202 15.4943 23.0241 15.4372 23.2034 15.478V15.4535L23.8965 15.6085C23.8068 15.5432 23.6438 15.4454 23.5215 15.372L23.2361 15.2008C22.3065 14.6218 21.8417 13.5944 22.0456 12.5833C22.1516 12.0451 21.8743 11.6537 21.7031 11.4743C21.3199 11.083 20.7572 10.9117 20.1783 11.0014C19.1183 11.1726 18.0256 10.7568 17.3977 9.94954C17.096 9.5663 16.615 9.33798 16.0686 9.33798C15.5223 9.33798 15.0412 9.55814 14.7395 9.94954C14.1198 10.7649 13.019 11.1726 11.959 11.0014C11.38 10.9117 10.8093 11.083 10.4342 11.4743C10.2629 11.6537 9.98569 12.0451 10.0917 12.5833C10.2874 13.5944 9.82261 14.6218 8.9012 15.2008C8.82943 15.2486 8.75328 15.2921 8.67917 15.3344C8.65224 15.3497 8.62558 15.3649 8.5995 15.3801C8.56238 15.4036 8.52105 15.4289 8.47831 15.4551C8.34266 15.5382 8.19282 15.63 8.11841 15.6982C8.15103 15.69 8.1918 15.6737 8.21626 15.6574C8.27334 15.6329 8.33857 15.6085 8.39565 15.5922L9.43122 15.372C9.55353 15.3475 9.68399 15.3638 9.79815 15.4128C10.1406 15.5595 11.1762 15.9102 11.8367 15.7471C12.5053 15.584 13.2066 14.9072 13.4186 14.6626C13.5327 14.5321 13.6958 14.4506 13.867 14.4506C14.0383 14.4506 14.2013 14.5158 14.3237 14.6381L14.3239 14.6384C14.3412 14.6557 15.1279 15.4454 15.9871 15.4454C16.7943 15.4454 18.0827 14.8257 18.5067 14.5892C18.5964 14.5403 18.6942 14.5158 18.8002 14.5158C18.8589 14.5158 18.9109 14.529 18.9683 14.5435C18.9747 14.5451 18.9812 14.5468 18.9878 14.5484C19.1509 14.6055 19.2813 14.7197 19.3547 14.8746C19.3552 14.875 19.3565 14.8772 19.3588 14.8809C19.4006 14.9474 19.7593 15.5193 20.8714 15.8205C22.0129 16.1303 22.649 15.6329 22.6734 15.6085ZM14.4949 20.1506C14.7396 20.4197 14.976 20.5583 15.131 20.542H15.1147C15.2859 20.5176 15.4653 20.2648 15.4653 20.2648L15.767 19.7266C14.6173 19.5799 13.7203 18.5524 13.7203 17.2967H14.9434C14.9434 17.9817 15.4327 18.5361 16.0442 18.5361C16.6558 18.5361 17.145 17.9817 17.145 17.2967H18.3681C18.3681 18.5851 17.4223 19.6369 16.2318 19.7348L16.5335 20.2648C16.5824 20.3463 16.7373 20.5257 16.8922 20.542C17.0472 20.5665 17.2755 20.4116 17.5201 20.1506L17.936 19.7022L18.8329 20.5339L18.4171 20.9824C17.936 21.5042 17.4386 21.7652 16.9249 21.7652C16.8963 21.7652 16.8678 21.7631 16.8392 21.7611C16.8107 21.759 16.7822 21.757 16.7536 21.757C16.4519 21.7162 16.2073 21.5939 16.0116 21.4553C15.8159 21.6021 15.5713 21.7244 15.2696 21.757C14.6988 21.8141 14.1362 21.5613 13.598 20.9824L13.1821 20.5339L14.0791 19.7022L14.4949 20.1506Z" fill="#78BDB6"/>
</g>
<defs>
<filter id="filter0_d_7410_95206" x="0" y="0" width="32" height="33" filterUnits="userSpaceOnUse" color-interpolation-filters="sRGB">
<feFlood flood-opacity="0" result="BackgroundImageFix"/>
<feColorMatrix in="SourceAlpha" type="matrix" values="0 0 0 0 0 0 0 0 0 0 0 0 0 0 0 0 0 0 127 0" result="hardAlpha"/>
<feOffset dy="1"/>
<feComposite in2="hardAlpha" operator="out"/>
<feColorMatrix type="matrix" values="0 0 0 0 0.941176 0 0 0 0 0.945098 0 0 0 0 0.952941 0 0 0 1 0"/>
<feBlend mode="normal" in2="BackgroundImageFix" result="effect1_dropShadow_7410_95206"/>
<feBlend mode="normal" in="SourceGraphic" in2="effect1_dropShadow_7410_95206" result="shape"/>
</filter>
</defs>
</svg>
