<svg width="32" height="33" viewBox="0 0 32 33" fill="none" xmlns="http://www.w3.org/2000/svg">
<g filter="url(#filter0_d_7410_95204)">
<rect width="32" height="32" rx="8" fill="white" shape-rendering="crispEdges"/>
<rect x="0.5" y="0.5" width="31" height="31" rx="7.5" stroke="#C0E1DD" shape-rendering="crispEdges"/>
<path fill-rule="evenodd" clip-rule="evenodd" d="M25.1136 5.77954C25.5874 6.43948 25.9427 7.13326 26.1543 7.85243V7.83551C26.3827 8.60544 26.4842 9.39229 26.4588 10.1622C26.425 11.0421 26.2473 11.939 25.9004 12.9035C25.5874 13.7665 25.1982 14.4603 24.7159 15.0187C24.3183 15.484 23.9037 15.7971 23.4553 15.9917V16.0255C23.5314 16.237 23.6076 16.457 23.6752 16.6685C24.0221 17.7346 24.166 18.623 24.149 19.486C24.1067 21.3643 23.2861 22.8618 21.7124 23.9363C21.1878 24.2917 20.5786 24.5963 19.851 24.8586C19.2333 25.5946 18.3957 26.0938 17.3635 26.3138C16.8897 26.4153 16.4328 26.4661 15.9844 26.4661C14.893 26.4661 13.8946 26.17 12.9978 25.5693C12.8252 25.4567 12.6793 25.3176 12.5364 25.1814L12.4817 25.1293C12.414 25.0532 12.3378 24.9855 12.2617 24.9178L12.2617 24.9178C10.9418 24.4778 9.96882 23.8856 9.23273 23.0649C8.5051 22.2526 8.0736 21.2712 7.93823 20.1375C7.81132 19.0629 7.95515 17.9292 8.39511 16.5839C8.43766 16.4441 8.48893 16.3 8.53954 16.1577L8.53954 16.1577C8.55938 16.102 8.57911 16.0465 8.59817 15.9917L8.59814 15.9917L8.59813 15.9917L8.59812 15.9917C8.53891 15.9663 8.4797 15.9409 8.42049 15.9071C7.77747 15.5771 7.25291 15.0441 6.77065 14.2488C6.28838 13.445 6.01764 12.5905 5.83996 11.9305C5.61152 11.0844 5.50999 10.2976 5.54384 9.54458C5.61152 8.15702 6.05994 6.91328 6.89756 5.85569L6.96525 5.788L7.24445 5.54264L7.51519 5.91491L7.6421 6.11797C7.93823 6.56639 8.38665 6.87944 9.02121 7.06558L9.21845 7.12217L9.21846 7.12217L9.21852 7.12219C9.44588 7.18757 9.66927 7.25181 9.89267 7.31094C10.2057 7.39555 10.5103 7.48015 10.8234 7.57322C12.2871 8.01318 13.3362 8.90156 13.9369 10.2214C15.3668 9.87455 16.7459 9.86609 18.1334 10.2214L18.2181 10.0438C18.8188 8.79157 19.8341 7.9455 21.2216 7.52246C21.5506 7.42313 21.8797 7.33292 22.212 7.24179L22.212 7.24178L22.2122 7.24174L22.2124 7.24168C22.3329 7.20864 22.4538 7.17548 22.5753 7.14172L23.0238 7.01481C23.6583 6.8456 24.149 6.47332 24.5129 5.88953L24.6652 5.70339L24.919 5.53418L25.1136 5.77954ZM9.04659 19.689C9.06351 20.4674 9.33425 21.2035 9.8419 21.855L9.85882 21.8719C10.2565 22.3796 10.7726 22.8195 11.4494 23.2087L11.6017 23.3102C13.8861 24.8163 15.2483 25.1208 16.0436 25.1208C17.685 25.1124 19.4787 23.8771 19.9864 23.4964L20.2994 23.3102C20.3446 23.2831 20.3901 23.256 20.4358 23.2288C20.6041 23.1287 20.7743 23.0275 20.934 22.921C21.67 22.4219 22.2031 21.8719 22.5415 21.2374C22.9392 20.4928 23.0745 19.6298 22.9392 18.5976C22.8461 17.853 22.6177 17.1423 22.4315 16.6093C22.2792 16.1694 22.0169 15.8394 21.6362 15.6025C21.4754 15.5094 21.3316 15.3994 21.1878 15.281C20.7732 14.9425 20.2063 14.3841 20.0371 13.5465C19.9525 13.1912 19.7664 12.4043 20.2317 11.8713C20.6548 11.389 21.1624 11.0083 21.687 10.636C22.6176 9.95916 23.3368 9.13 23.8275 8.15702C23.6076 8.24162 23.3707 8.31777 23.0999 8.39392L22.7107 8.50391C22.2708 8.62236 21.8308 8.74927 21.3908 8.88464C20.824 9.06232 20.3756 9.3246 20.0202 9.67995C19.5887 10.1115 19.3095 10.6445 19.098 11.1267L19.1826 11.2367L19.0726 11.4652C18.9034 11.7105 18.6326 11.6513 17.8035 11.4483L17.6766 11.4144C16.7966 11.2029 15.849 11.1775 14.8761 11.3213C14.6451 11.3543 14.3658 11.4195 14.1167 11.4776L14.0977 11.4821C13.4123 11.6344 13.1839 11.6852 13.0231 11.4821L12.8962 11.3298L12.9808 11.1267C12.968 11.0986 12.9529 11.0657 12.9364 11.0299L12.9364 11.0298C12.8983 10.9473 12.8529 10.8488 12.8116 10.7545C12.4309 9.90839 11.8725 9.35844 11.1026 9.05386C10.7928 8.92677 10.4681 8.8295 10.1495 8.73407L10.0873 8.71543L9.15658 8.42776C8.83507 8.33469 8.51356 8.23316 8.20052 8.12317C8.58971 8.91848 9.12274 9.60381 9.79114 10.1707L9.79119 10.1707L9.7912 10.1707L9.79121 10.1707C10.0365 10.3738 10.2819 10.5768 10.5357 10.7714C10.7895 10.966 11.0349 11.169 11.2802 11.3721C11.7625 11.7782 12.0671 12.8274 12.0417 13.005C12.0925 13.5719 11.8809 14.1642 11.3987 14.7479C11.111 15.0948 10.7641 15.391 10.3411 15.6617C10.0619 15.8309 9.87575 16.034 9.76576 16.2878C9.24965 17.4554 9.01275 18.5638 9.04659 19.689ZM9.06351 11.1098C8.14129 10.2637 7.48135 9.3669 7.04139 8.377L7.03293 8.38546C6.88063 8.97771 6.81295 9.58688 6.82141 10.2214C6.83833 11.2114 7.05831 12.2013 7.47289 13.1658C7.76902 13.8596 8.12437 14.3249 8.59817 14.638C9.02121 14.9172 9.40194 14.9256 9.7996 14.6633C10.1719 14.4095 10.4849 14.0795 10.7218 13.6819C10.8487 13.4788 10.8995 13.2673 10.8826 13.0304C10.8741 12.8358 10.7726 12.6666 10.5611 12.4635C10.2734 12.2013 9.98573 11.939 9.69807 11.6852C9.59231 11.5879 9.48655 11.4927 9.3808 11.3975L9.38069 11.3974C9.27497 11.3022 9.16924 11.2071 9.06351 11.1098ZM22.4231 14.8072C22.6938 14.9679 22.973 14.9595 23.2691 14.7818C23.523 14.6295 23.7514 14.4095 23.9714 14.1219C24.699 13.1319 25.1051 11.939 25.1982 10.4668C25.2405 9.80686 25.1897 9.14692 25.029 8.50391C25.0242 8.47535 25.0168 8.44947 25.0097 8.42476L25.0097 8.42474L25.0097 8.42472C25.0041 8.40552 24.9988 8.38703 24.9951 8.36853C24.9825 8.39809 24.9698 8.42553 24.9571 8.45297L24.957 8.45314C24.9444 8.48064 24.9317 8.50814 24.919 8.53775C24.4621 9.52766 23.7683 10.4076 22.7361 11.3213L22.3977 11.6175C22.0762 11.8967 21.7631 12.1759 21.4585 12.472C21.0863 12.8274 21.0355 13.115 21.2555 13.555C21.5178 14.088 21.9154 14.5026 22.4231 14.8072ZM15.1383 21.9146C14.563 22.2107 14.0638 22.3545 13.5392 22.3461C12.9216 22.3376 12.4139 22.0753 12.1094 21.6015C11.8132 21.1277 11.7625 20.5016 11.9909 19.994C12.1601 19.6132 12.4055 19.2579 12.617 18.9618C12.6255 18.9448 13.3615 17.9719 13.7 17.6504H13.6915L13.7592 17.5573L13.9115 17.3542L14.0553 17.1681C14.1907 16.9904 14.3345 16.8127 14.4953 16.6435C14.9014 16.2205 15.5275 15.992 16.1536 16.0174C16.7797 16.0428 17.3466 16.3389 17.7527 16.8466C17.8204 16.9312 17.9304 17.0666 18.0573 17.2104L18.1097 17.2712L18.1098 17.2712L18.1099 17.2713C18.3055 17.4981 18.5049 17.7292 18.5903 17.8534C18.7335 18.0617 18.8818 18.26 19.0311 18.4599C19.0759 18.5198 19.1208 18.5798 19.1656 18.6403C19.2417 18.7459 19.3178 18.8495 19.3939 18.953L19.3939 18.9531L19.3941 18.9533C19.4702 19.0569 19.5464 19.1606 19.6225 19.2664C19.8763 19.6217 20.1386 20.0617 20.1555 20.6032C20.1725 21.2969 19.8594 22.1092 18.9372 22.3038C18.768 22.3376 18.5903 22.3545 18.4211 22.3545C18.1419 22.3545 17.8711 22.3122 17.6088 22.2192C17.3296 22.1176 17.0589 21.9907 16.7882 21.8638C16.2467 21.61 15.7052 21.6184 15.1383 21.9146ZM13.1754 19.9009C13.0231 20.1209 12.9047 20.3493 12.8454 20.5609L12.8624 20.5524C12.8116 20.7385 12.8285 20.9162 12.9131 21.06C13.0062 21.2123 13.167 21.3223 13.3615 21.3646C13.7254 21.4408 14.1061 21.3731 14.5291 21.1616C14.9268 20.9585 15.3667 20.7639 15.8659 20.7301C16.5174 20.6878 17.0589 20.9162 17.5242 21.1531C17.8627 21.3308 18.1588 21.3985 18.4718 21.3985C18.7341 21.4069 18.9118 21.3477 19.0387 21.2208C19.1741 21.0685 19.2333 20.8401 19.1995 20.5355C19.1656 20.2478 18.9964 20.0194 18.8357 19.8248C18.4042 19.3171 17.9727 18.7418 17.5073 18.0649C17.3466 17.828 17.135 17.5827 16.8558 17.2865C16.4074 16.8212 15.6713 16.8804 15.2652 17.2358C15.0622 17.405 14.8676 17.625 14.673 17.8788C14.1146 18.6064 13.6238 19.2664 13.1754 19.9009ZM14.4953 20.5607C14.5207 20.5607 14.5482 20.5628 14.5757 20.5649C14.6032 20.5671 14.6307 20.5692 14.6561 20.5692C14.9099 20.5692 15.1553 20.4676 15.3329 20.2815C15.5614 20.0446 15.6629 19.7146 15.6037 19.3762C15.5218 18.9261 14.9334 18.9905 14.6806 19.0182L14.6561 19.0209C14.6222 19.0209 14.5968 19.0209 14.5884 19.0293C14.1907 19.0378 13.8861 19.3339 13.8607 19.7316C13.8354 20.1546 14.0977 20.493 14.4953 20.5522V20.5607ZM17.3212 20.6029H17.2281L17.2197 20.5944C16.7036 20.5352 16.3313 20.0867 16.3652 19.5537C16.3821 19.3253 16.4921 19.1984 16.5851 19.1307C16.7797 18.9868 17.0928 18.9784 17.5158 19.0968L17.4735 19.2999L17.5327 19.0968C17.9219 19.2068 18.1335 19.5622 18.0573 19.9598C17.9812 20.349 17.685 20.6029 17.3212 20.6029Z" fill="#78BDB6"/>
</g>
<defs>
<filter id="filter0_d_7410_95204" x="0" y="0" width="32" height="33" filterUnits="userSpaceOnUse" color-interpolation-filters="sRGB">
<feFlood flood-opacity="0" result="BackgroundImageFix"/>
<feColorMatrix in="SourceAlpha" type="matrix" values="0 0 0 0 0 0 0 0 0 0 0 0 0 0 0 0 0 0 127 0" result="hardAlpha"/>
<feOffset dy="1"/>
<feComposite in2="hardAlpha" operator="out"/>
<feColorMatrix type="matrix" values="0 0 0 0 0.941176 0 0 0 0 0.945098 0 0 0 0 0.952941 0 0 0 1 0"/>
<feBlend mode="normal" in2="BackgroundImageFix" result="effect1_dropShadow_7410_95204"/>
<feBlend mode="normal" in="SourceGraphic" in2="effect1_dropShadow_7410_95204" result="shape"/>
</filter>
</defs>
</svg>
