<svg width="32" height="33" viewBox="0 0 32 33" fill="none" xmlns="http://www.w3.org/2000/svg">
<g filter="url(#filter0_d_7410_95210)">
<rect width="32" height="32" rx="8" fill="white"/>
<rect x="0.5" y="0.5" width="31" height="31" rx="7.5" stroke="#C0E1DD"/>
<rect width="24.0032" height="24.0032" transform="translate(4 5)" fill="white"/>
<path fill-rule="evenodd" clip-rule="evenodd" d="M21.1395 18.0112C21.1278 18.0192 21.116 18.0271 21.1042 18.0352V18.052C20.9446 18.1612 20.6674 18.3544 20.6086 18.4384V18.4804V18.5308C20.5834 18.8249 20.6842 19.5054 20.8354 19.6734C21.5411 20.4799 21.9948 21.3032 22.23 22.1853C22.5576 23.4203 22.356 24.6553 21.6671 25.655C20.9782 26.6547 19.9029 27.2764 18.6427 27.4192C18.3161 27.4547 17.7615 27.4422 17.5519 27.4375C17.5135 27.4366 17.4867 27.436 17.475 27.436C17.3686 27.436 17.1842 27.4382 16.9488 27.441C16.5334 27.446 15.9592 27.4528 15.3747 27.4528C14.3833 27.4528 13.3584 27.436 13.0391 27.3688C11.3337 27.016 10.0567 25.8062 9.72069 24.21C9.48546 23.101 9.67869 21.9837 10.3088 20.8999C10.544 20.4967 10.8128 20.1102 11.1321 19.7406C11.5269 19.2785 11.4849 18.64 11.4177 18.5056C11.3788 18.4537 11.1947 18.2917 11.0084 18.1278C10.9534 18.0793 10.8982 18.0307 10.8464 17.9847L10.8122 17.9545C10.1688 17.3864 9.30889 16.6272 8.83017 15.8761C7.67081 14.0446 7.02392 11.9779 6.91471 9.72642C6.8895 9.21395 6.90631 8.70148 6.92311 8.20581C6.92342 8.19802 6.92373 8.19024 6.92404 8.18247C6.93212 7.98081 6.93991 7.78636 6.93991 7.58412C6.93991 7.52531 6.94831 7.46651 6.96511 7.37409L7.08273 6.55078L7.79683 6.78601L8.20008 6.91203C8.25606 6.93019 8.31232 6.94807 8.36879 6.96602C8.62591 7.04777 8.88766 7.13098 9.14941 7.24808C11.0145 8.07139 12.5687 9.37357 13.77 11.1042C14.7026 12.4568 15.3159 14.221 15.5259 16.1197C15.8367 16.0861 16.1476 16.0861 16.4584 16.1197C16.6852 13.3809 17.853 11.037 19.9365 9.13834C21.3143 7.86976 22.7341 7.10526 24.2799 6.78601L24.9856 6.64319L25.0528 7.70174C25.0571 7.76174 25.0619 7.82174 25.0667 7.88161C25.0808 8.05643 25.0948 8.23006 25.0948 8.39903C25.162 10.8186 24.7167 12.9357 23.7254 14.8847C23.1709 15.9769 22.4988 16.8674 21.6755 17.6067C21.5249 17.7494 21.3368 17.8772 21.1395 18.0112ZM20.995 22.4878C20.8102 21.7989 20.449 21.1436 19.8693 20.4883L19.8777 20.5219C19.4996 20.085 19.3232 19.2365 19.3484 18.5728C19.2056 12.0283 21.4403 10.4069 21.6923 10.2473L22.3812 11.2974C22.3644 11.3058 20.8606 12.44 20.6338 16.859C20.6478 16.8481 20.6615 16.8375 20.6749 16.8271C20.7342 16.7813 20.789 16.7389 20.8438 16.691C21.5579 16.0609 22.1292 15.288 22.6165 14.3386C23.507 12.5828 23.9102 10.6589 23.843 8.45784C23.8346 8.38223 23.8346 8.30662 23.8346 8.23101C22.7761 8.57546 21.7931 9.18034 20.785 10.0961C18.7519 11.9527 17.7354 14.179 17.6766 16.901L17.6598 17.6991L16.8869 17.4975C16.2904 17.3463 15.7107 17.3463 15.1058 17.4975L14.3749 17.6823L14.3161 16.859C14.1901 14.9435 13.6272 13.1541 12.7199 11.8351C11.6614 10.2977 10.2836 9.14674 8.63694 8.41584C8.49412 8.35703 8.3345 8.29822 8.17488 8.24781V8.27302C8.17272 8.39842 8.16944 8.52216 8.1662 8.64466C8.15684 8.99813 8.14776 9.34127 8.16648 9.68441C8.26729 11.7427 8.83017 13.5573 9.88871 15.2208C10.2416 15.7752 10.9389 16.4053 11.5017 16.9094C11.3001 13.6161 9.35104 11.163 9.35104 11.163L10.3256 10.3649C10.4516 10.5077 13.2828 14.053 12.7031 18.6904C12.7367 19.2953 12.5435 20.0178 12.073 20.5639C11.8042 20.8747 11.5773 21.194 11.3841 21.53C10.9137 22.3449 10.7708 23.1346 10.9389 23.9496C11.1741 25.0669 12.0562 25.8818 13.2828 26.1339C13.6104 26.1927 15.6687 26.2011 17.4666 26.1675C17.5042 26.1675 17.5515 26.1677 17.6054 26.168C17.8646 26.1694 18.2759 26.1715 18.4915 26.1507C19.382 26.0498 20.1297 25.613 20.6086 24.9241C21.0874 24.2268 21.2219 23.3615 20.995 22.4878ZM15.9963 22.0843C16.2064 21.933 16.4752 21.807 16.8028 21.765L16.7692 21.7482C17.3909 21.6726 17.9958 21.9414 18.5755 22.5379C18.8359 22.79 18.8275 23.2016 18.5755 23.4537C18.4495 23.5797 18.2898 23.6385 18.1218 23.6385C17.9538 23.6385 17.7858 23.5713 17.6598 23.4452C17.3825 23.168 17.1305 23.0168 16.9373 23.042C16.702 23.0672 16.5256 23.336 16.5256 23.336L16.5088 23.3528V23.3696V24.3106C16.5088 24.6046 16.2736 24.8398 15.9795 24.8398C15.6855 24.8398 15.4503 24.6046 15.4503 24.3106V23.3696C15.4503 23.3654 15.4461 23.3633 15.4419 23.3612C15.4377 23.3591 15.4335 23.357 15.4335 23.3528C15.425 23.336 15.2486 23.084 15.0218 23.0588C14.8286 23.0336 14.5765 23.1848 14.2993 23.4621C14.0473 23.7141 13.6356 23.7225 13.3836 23.4705C13.1399 23.2184 13.1315 22.8068 13.3836 22.5547C13.9717 21.9582 14.5849 21.6894 15.1898 21.765C15.5175 21.807 15.7863 21.933 15.9963 22.0843Z" fill="#78BDB6"/>
</g>
<defs>
<filter id="filter0_d_7410_95210" x="0" y="0" width="32" height="33" filterUnits="userSpaceOnUse" color-interpolation-filters="sRGB">
<feFlood flood-opacity="0" result="BackgroundImageFix"/>
<feColorMatrix in="SourceAlpha" type="matrix" values="0 0 0 0 0 0 0 0 0 0 0 0 0 0 0 0 0 0 127 0" result="hardAlpha"/>
<feOffset dy="1"/>
<feComposite in2="hardAlpha" operator="out"/>
<feColorMatrix type="matrix" values="0 0 0 0 0.941176 0 0 0 0 0.945098 0 0 0 0 0.952941 0 0 0 1 0"/>
<feBlend mode="normal" in2="BackgroundImageFix" result="effect1_dropShadow_7410_95210"/>
<feBlend mode="normal" in="SourceGraphic" in2="effect1_dropShadow_7410_95210" result="shape"/>
</filter>
</defs>
</svg>
