<svg width="32" height="33" viewBox="0 0 32 33" fill="none" xmlns="http://www.w3.org/2000/svg">
<g filter="url(#filter0_d_7410_95214)">
<rect width="32" height="32" rx="8" fill="white"/>
<rect x="0.5" y="0.5" width="31" height="31" rx="7.5" stroke="#C0E1DD"/>
<path fill-rule="evenodd" clip-rule="evenodd" d="M15.9706 25.9961C19.0616 26.0131 21.9826 24.0737 23.0255 20.7132C23.0569 20.7271 23.084 20.7381 23.1086 20.7481C23.1419 20.7616 23.1706 20.7733 23.1993 20.7877C24.8019 21.5719 26.5068 20.5319 26.5153 18.7503C26.5239 17.6762 26.5239 16.5936 26.5153 15.511C26.5068 14.7097 26.2767 13.9851 25.7226 13.3714C25.6373 13.2691 25.5862 13.0815 25.6032 12.9451C25.859 10.8652 24.6144 9.24552 23.1737 8.8534C23.0459 8.8193 22.9351 8.64881 22.8583 8.52094C22.3895 7.75374 21.7331 7.31047 20.8125 7.28489C20.6164 7.27637 20.3948 7.23375 20.2328 7.13145C19.1246 6.39835 17.8886 6.09147 16.5843 6.02327C14.9135 5.93802 13.3024 6.16819 11.8618 7.09735C11.6998 7.19965 11.4867 7.27637 11.2906 7.27637C10.2677 7.26784 9.55163 7.74521 9.05721 8.61471C8.99754 8.70848 8.90377 8.8193 8.80147 8.84487C7.11363 9.30519 6.08217 11.2317 6.372 12.9622C6.38905 13.1071 6.32085 13.3117 6.22708 13.431C5.86905 13.8658 5.57922 14.3432 5.56217 14.9058L5.55295 15.2071C5.51281 16.5132 5.47267 17.8193 5.52808 19.1254C5.5707 20.1142 6.4061 20.9241 7.39494 21.0093C7.76077 21.0388 8.13886 20.9744 8.52072 20.9093L8.52074 20.9093C8.69054 20.8803 8.86109 20.8513 9.03164 20.8303C10.012 24.0184 12.8762 25.9791 15.9706 25.9961ZM16.0729 7.24227C14.7771 7.25932 13.4047 7.52358 12.4244 8.20554C12.126 8.41012 11.7083 8.50389 11.3418 8.51242C10.728 8.52947 10.37 8.81077 10.0887 9.33077C9.93523 9.60355 9.65392 9.88486 9.37262 9.98715C8.27296 10.3622 7.65067 11.1124 7.58247 12.2632C7.51428 13.5419 8.38378 14.7012 9.51753 14.7523C10.0716 14.7779 10.4211 14.9995 10.711 15.4513C11.3588 16.4572 12.4755 16.6448 13.4473 15.9628C13.9417 15.6218 14.2998 15.6218 14.7942 15.9713C15.5614 16.5084 16.286 16.5084 17.0702 15.9543C17.5476 15.6218 17.9056 15.6304 18.3915 15.9458C18.6387 16.1077 18.9115 16.2612 19.1928 16.3208C19.9941 16.4999 20.6931 16.1503 21.1961 15.3576C21.4347 14.9825 21.7246 14.7523 22.1934 14.7523C23.3698 14.7523 24.1967 13.9681 24.3757 12.732C24.5462 11.5216 23.8642 10.3281 22.7901 10.0468C22.3213 9.92748 22.0229 9.68879 21.8354 9.24552C21.6308 8.76815 21.2472 8.54651 20.7016 8.51242C20.3351 8.49537 19.9259 8.4016 19.619 8.19701C18.5194 7.48096 17.3004 7.27637 16.0814 7.24227H16.0729ZM17.2179 24.6187L17.2179 24.6187C17.6332 24.5067 18.0282 24.4003 18.4 24.2401C19.7469 23.6689 20.7357 22.6971 21.4092 21.4014C22.074 20.1272 22.0525 18.7743 22.0301 17.37V17.3699C22.0249 17.0456 22.0197 16.7185 22.0229 16.389C21.9842 16.425 21.9536 16.4538 21.9281 16.4777L21.9281 16.4777C21.875 16.5275 21.8444 16.5563 21.8098 16.5851C20.659 17.7274 19.3633 17.9064 17.9141 17.1477C17.7948 17.088 17.5817 17.1136 17.4453 17.1818C16.4224 17.7359 15.4079 17.7529 14.3935 17.1818C14.1804 17.0625 14.0355 17.0454 13.8053 17.1733C12.6716 17.8297 11.3844 17.7189 10.3529 16.909C10.2421 16.8238 10.1313 16.7385 9.97785 16.6192C9.97785 16.9064 9.9739 17.1847 9.97004 17.4572V17.4573V17.4573C9.96254 17.9854 9.95536 18.4914 9.97785 18.9975C10.1142 21.3077 11.2395 23.0126 13.2683 24.0781C13.693 24.3022 14.1625 24.4447 14.6515 24.5932L14.6516 24.5932C14.8694 24.6593 15.091 24.7265 15.3142 24.8027V22.4158C14.3424 22.0322 13.7627 21.3588 13.6945 20.2591H14.8965C15.1437 20.9752 15.4335 21.2565 15.9535 21.248C16.5928 21.2309 16.8827 20.8218 17.0105 20.2762H18.221C18.1528 21.248 17.701 21.8958 16.8656 22.3135C16.7548 22.3732 16.5928 22.4926 16.5843 22.5863C16.564 23.1352 16.5652 23.6895 16.5666 24.3049V24.305L16.5666 24.3058C16.5669 24.4642 16.5673 24.6267 16.5673 24.7942H16.5928C16.8059 24.7297 17.0143 24.6735 17.2179 24.6187ZM25.1088 14.6245C24.9113 14.7639 24.7167 14.8994 24.5244 15.0333C24.1525 15.2923 23.7891 15.5453 23.4295 15.8094C23.3528 15.869 23.2846 16.0054 23.2846 16.1077L23.2845 16.116C23.276 17.0168 23.2676 17.9091 23.2846 18.81C23.3016 19.4152 23.7364 19.8329 24.2905 19.8244C24.8531 19.8244 25.2708 19.3896 25.2793 18.7844L25.2793 18.7782V18.7782C25.2878 17.6721 25.2963 16.5745 25.2708 15.4684C25.2708 15.2499 25.2135 15.0355 25.1641 14.8507L25.1641 14.8507C25.1422 14.7687 25.1219 14.6926 25.1088 14.6245ZM6.87494 14.6671C6.86263 14.7385 6.84676 14.8142 6.83021 14.8931C6.78947 15.0874 6.74461 15.3013 6.73855 15.5195C6.7215 16.5936 6.7215 17.6762 6.73855 18.7503C6.73855 19.3811 7.16478 19.8244 7.73592 19.8244C8.29001 19.8244 8.72476 19.4067 8.73328 18.8015C8.75033 17.9149 8.74181 17.0284 8.73328 16.1418C8.73328 16.031 8.65656 15.8861 8.56279 15.8264C8.07496 15.478 7.5801 15.1436 7.03987 14.7786L6.87494 14.6671ZM11.427 11.3933L11.5324 11.5057C11.7398 11.7265 11.9337 11.933 12.109 12.152C12.1686 12.2287 12.1772 12.3651 12.1772 12.4674C12.1857 12.7999 12.3647 13.0897 12.6716 13.0641C13.0031 13.0365 13.1723 13.2047 13.347 13.3784C13.388 13.4191 13.4292 13.4601 13.4729 13.4989C13.5752 13.582 13.6918 13.6507 13.8085 13.7195C13.8474 13.7424 13.8863 13.7653 13.9247 13.7887C13.183 14.5218 12.1772 14.4877 11.4952 13.8143C10.7962 13.1323 10.745 12.1605 11.427 11.3933ZM20.2696 12.5553C20.3358 12.6266 20.4033 12.6993 20.4715 12.7748V12.7663C21.1534 11.9821 21.0767 10.9591 20.3692 10.3027C19.6787 9.68045 18.6899 9.65488 17.9994 10.3539C18.0505 10.3908 18.1026 10.4259 18.1547 10.4609C18.2589 10.531 18.3631 10.6011 18.4597 10.6863C18.4983 10.7207 18.5351 10.756 18.5713 10.7908C18.7507 10.9634 18.9177 11.1239 19.244 11.0955C19.5253 11.0699 19.7043 11.3427 19.7213 11.6581L19.7218 11.6649C19.7302 11.7911 19.7396 11.9326 19.8066 12.0247C19.9466 12.2074 20.1041 12.377 20.2696 12.5553Z" fill="#78BDB6"/>
</g>
<defs>
<filter id="filter0_d_7410_95214" x="0" y="0" width="32" height="33" filterUnits="userSpaceOnUse" color-interpolation-filters="sRGB">
<feFlood flood-opacity="0" result="BackgroundImageFix"/>
<feColorMatrix in="SourceAlpha" type="matrix" values="0 0 0 0 0 0 0 0 0 0 0 0 0 0 0 0 0 0 127 0" result="hardAlpha"/>
<feOffset dy="1"/>
<feComposite in2="hardAlpha" operator="out"/>
<feColorMatrix type="matrix" values="0 0 0 0 0.941176 0 0 0 0 0.945098 0 0 0 0 0.952941 0 0 0 1 0"/>
<feBlend mode="normal" in2="BackgroundImageFix" result="effect1_dropShadow_7410_95214"/>
<feBlend mode="normal" in="SourceGraphic" in2="effect1_dropShadow_7410_95214" result="shape"/>
</filter>
</defs>
</svg>
