<svg width="28" height="28" viewBox="0 0 28 28" fill="none" xmlns="http://www.w3.org/2000/svg">
    <circle cx="14" cy="14" r="13.5" fill="#E6F5EB" stroke="#028577"/>
    <g clip-path="url(#clip0)">
        <mask id="mask0" mask-type="alpha" maskUnits="userSpaceOnUse" x="1" y="1" width="26" height="26">
            <circle cx="14" cy="14" r="13" fill="white"/>
        </mask>
        <g mask="url(#mask0)">
            <path d="M17.8465 2.73469C20.7604 2.97461 21.9947 7.83305 22.2477 10.2323L12.6865 7.23324C13.1924 5.63376 14.9326 2.49476 17.8465 2.73469Z"
                  fill="#84BFB6"/>
            <path d="M24.9791 14.2806C24.979 9.18225 14.0482 4.84065 10.7132 4.6837C7.5261 4.5337 5.09787 12.6312 5.85671 14.2806C9.59116 22.3981 24.9791 19.8309 24.9791 14.2806Z"
                  fill="#66AFA0"/>
            <path d="M22.0958 8.5831C21.59 6.68371 20.4427 3.25402 19.3641 3.6347C17.3913 4.33095 20.5781 7.38355 22.0958 8.5831Z"
                  fill="#66AFA0"/>
            <path d="M-11.382 46.6767C-11.6252 46.6767 -11.7872 47.568 -11.8379 48.0136H-10.7741V49.0535C-8.64656 48.7564 -1.57401 43.372 1.68745 39.5464C3.96698 36.8725 3.51104 34.1986 3.96698 34.0501C4.33173 33.9312 5.23342 38.0609 5.63862 40.1406L23.1152 39.2493L23.4191 31.2276L27.0664 36.5753C24.483 39.8435 25.232 42.6764 23.2672 44.5971C22.7809 45.0724 20.8863 44.7951 20.0758 44.4485V45.4883C20.5823 45.6864 21.6259 46.2014 21.7475 46.6767C21.8994 47.2708 20.9876 48.0136 20.6836 48.4593C20.3797 48.905 20.0758 49.9448 20.2278 50.0933C20.3797 50.2419 21.4435 49.4991 21.4435 49.7962C21.4435 50.0339 20.9876 50.8361 20.9876 50.9846H21.1396L21.8994 50.8361L22.0514 51.1332C22.7099 50.6381 24.1182 49.4991 24.483 48.905C24.8476 48.3107 24.7362 47.1719 24.6349 46.6767C27.3704 43.8047 32.9932 40.2892 32.8412 35.8327C32.7654 33.6057 27.9782 26.177 24.9388 24.2459C22.8374 22.9107 19.4679 22.0176 16.5805 22.1661L16.2765 19.7894C16.5298 19.5913 17.2188 18.8981 17.9482 17.7097C18.8601 16.2242 18.7081 12.9562 18.4041 12.2134C18.1002 11.4707 17.3404 10.2823 13.997 9.98515C10.6536 9.68806 9.58988 13.2533 9.43793 16.6698C9.31632 19.4031 11.1096 20.6806 12.0214 20.9777V22.1661C11.2615 22.2156 9.31632 22.3741 7.61425 22.6118C5.48667 22.9089 4.27088 24.3944 3.51104 25.2856C2.75119 26.177 -1.50397 34.9414 -2.56772 36.5754C-3.63155 38.2094 -10.4702 45.6369 -10.7741 46.8252C-10.8784 47.2329 -11.078 46.6767 -11.382 46.6767Z"
                  fill="#4D4D4D"/>
            <path d="M18.99 21.8994C18.3911 24.6529 17.942 29.3951 13.4508 29.8541C10.3608 30.1698 7.93275 25.409 7.05087 22.7773L6.11525 23.2762C6.21505 24.092 6.17518 26.2133 6.41473 30.6189C6.65419 35.0246 5.81586 36.738 5.06738 37.0439L6.71412 45.1516L23.1817 45.7635V35.3612C21.9841 35.3612 20.5769 34.6575 19.7386 33.0665C18.9001 31.4756 19.4391 24.8569 20.0379 22.3584L18.99 21.8994Z"
                  fill="white"/>
            <path d="M20.2897 22.646C19.8686 22.5522 19.6275 22.5122 19.2136 22.4961C19.2136 23.2958 19.0617 25.495 18.9098 26.9945C18.7647 28.4269 18.0116 31.343 17.4041 32.8424C15.4168 32.9924 11.3164 32.9924 9.79775 32.9924C8.27907 30.7432 7.50676 26.5446 6.76046 22.9459C6.31513 23.0527 6.07275 23.1446 5.69738 23.3958L6.7735 35.9914C6.82407 40.3398 6.51749 46.5476 6.15299 47.3873C5.69738 48.437 5.86229 52.7855 5.71042 56.3842C5.40066 63.7251 7.0642 71.229 6.91233 78.5764H13.1519C13.6075 71.9788 14.5491 58.8133 14.6706 58.9333C14.8225 59.0833 15.7337 66.4307 16.0374 69.1297C16.2804 71.289 17.3536 75.9274 17.8598 77.9767H24.3901C24.3394 69.9295 24.1785 56.9802 24.377 51.8858C24.564 47.0874 20.4285 38.8403 19.821 32.9924C19.759 32.3957 20.0366 25.7949 20.2897 22.646Z"
                  fill="#84BFB6"/>
            <path d="M18.4479 15.9336C18.6931 15.7372 19.1246 14.8142 18.8892 12.6933C18.4357 8.6068 12.1221 6.94922 10.5039 11.5151C10.9943 11.9079 12.4458 12.7522 14.3288 12.9879C16.2118 13.2236 17.3691 12.3988 17.7124 11.9569C17.6142 12.3006 17.477 13.1057 17.7124 13.5771C18.0066 14.1662 18.4479 13.8717 18.4479 14.1662V15.9336Z"
                  fill="#FED450"/>
        </g>
        <g clip-path="url(#clip1)">
            <path d="M5.17663 16.8947L5.44083 16.965L5.79698 17.3066L4.9198 17.073L4.89355 17.1893L5.77073 17.4229L5.30958 17.5468L5.04538 17.4764L5.01913 17.5928L6.65374 18.0281C6.82557 18.0737 6.99951 18.0826 7.14378 18.0531C7.28804 18.0235 7.39299 17.9576 7.43946 17.8674L7.85629 17.9784L7.88254 17.862L7.46571 17.751C7.46293 17.6476 7.39793 17.5365 7.28258 17.4378C7.16724 17.3391 7.00925 17.2596 6.8375 17.2137L5.20288 16.7783L5.17663 16.8947ZM7.23299 17.8124C7.19449 17.8717 7.11846 17.914 7.01772 17.9321C6.91699 17.9502 6.79771 17.943 6.67999 17.9118L6.41579 17.8414L6.87695 17.7175L7.23299 17.8124ZM6.58803 17.6406L6.12688 17.7645L5.59849 17.6237L6.05965 17.4999L6.58803 17.6406ZM6.0859 17.3835L5.72974 17.042L6.25813 17.1827L6.61428 17.5242L6.0859 17.3835ZM7.25924 17.696L6.9032 17.6012L6.54705 17.2597L6.81124 17.33C6.92893 17.3615 7.03774 17.415 7.11935 17.4817C7.20095 17.5484 7.25036 17.6241 7.25924 17.696Z"
                  fill="#FED450"/>
            <path d="M7.85254 17.8701L9.17274 18.2374L9.84132 18.2912" stroke="#FED450" stroke-width="0.339716"/>
        </g>
        <circle cx="14" cy="14" r="13.5" stroke="#028577"/>
    </g>
    <defs>
        <clipPath id="clip0">
            <rect width="56" height="99" fill="white" transform="translate(-23 2)"/>
        </clipPath>
        <clipPath id="clip1">
            <rect width="5.69492" height="6.6" fill="white" transform="translate(4.52539 14.2568)"/>
        </clipPath>
    </defs>
</svg>
