<svg width="23" height="23" viewBox="0 0 23 23" fill="none" xmlns="http://www.w3.org/2000/svg">
<path d="M11.4166 1.66667C10.1143 1.66674 8.82471 1.92334 7.62152 2.4218C6.41834 2.92026 5.32511 3.65082 4.40426 4.57177C3.48341 5.49273 2.75298 6.58604 2.25466 7.78929C1.75634 8.99253 1.4999 10.2821 1.49998 11.5845C1.50006 12.8869 1.75665 14.1764 2.25511 15.3796C2.75357 16.5828 3.48413 17.676 4.40509 18.5969C5.32604 19.5177 6.41935 20.2482 7.6226 20.7465C8.82585 21.2448 10.1155 21.5012 11.4178 21.5012C14.048 21.501 16.5705 20.456 18.4302 18.5961C20.2899 16.7361 21.3346 14.2136 21.3345 11.5833C21.3343 8.95312 20.2893 6.43069 18.4294 4.57095C16.5694 2.71121 14.0469 1.66651 11.4166 1.66667ZM11.4166 0.5C14.3561 0.5 17.1752 1.6677 19.2537 3.74623C21.3323 5.82476 22.5 8.64385 22.5 11.5833C22.5 14.5228 21.3323 17.3419 19.2537 19.4204C17.1752 21.499 14.3561 22.6667 11.4166 22.6667C8.47716 22.6667 5.65807 21.499 3.57955 19.4204C1.50102 17.3419 0.333313 14.5228 0.333313 11.5833C0.333313 8.64385 1.50102 5.82476 3.57955 3.74623C5.65807 1.6677 8.47716 0.5 11.4166 0.5ZM10.8333 16.8333H12V19.1667H10.8333V16.8333ZM11.4166 4C12.4996 4 13.5382 4.43021 14.304 5.19598C15.0698 5.96175 15.5 7.00037 15.5 8.08333C15.5 9.12983 14.6845 9.8555 13.8211 10.622L12.7303 11.6755C12.0443 12.4618 11.9696 13.9563 11.9988 14.4662V14.5H10.8333C10.8286 14.4393 10.7143 12.2087 11.853 10.9078L13.0453 9.7505C13.736 9.13683 14.3333 8.606 14.3333 8.08333C14.3333 7.30979 14.026 6.56792 13.479 6.02094C12.9321 5.47396 12.1902 5.16667 11.4166 5.16667C10.6431 5.16667 9.90123 5.47396 9.35425 6.02094C8.80727 6.56792 8.49998 7.30979 8.49998 8.08333H7.33331C7.33331 7.00037 7.76352 5.96175 8.52929 5.19598C9.29507 4.43021 10.3337 4 11.4166 4Z" fill="#028577"/>
</svg>
