<svg width="24" height="24" viewBox="0 0 24 24" fill="none" xmlns="http://www.w3.org/2000/svg">
<path d="M2.59459 0H14.2703C14.9584 0 15.6183 0.252856 16.1049 0.702944C16.5915 1.15303 16.8649 1.76348 16.8649 2.4V4.8H15.5676V1.8H1.94595V22.2H14.9189V19.2H16.8649V21.6C16.8649 22.2365 16.5915 22.847 16.1049 23.2971C15.6183 23.7471 14.9584 24 14.2703 24H2.59459C1.90647 24 1.24652 23.7471 0.759939 23.2971C0.273358 22.847 0 22.2365 0 21.6V2.4C0 1.76348 0.273358 1.15303 0.759939 0.702944C1.24652 0.252856 1.90647 0 2.59459 0Z" fill="#282B36"/>
<path d="M16.2162 16.8L17.5135 18L24 12L17.5135 6L16.2162 7.2L20.7568 10.8H6.48651V12.6H20.7568L16.2162 16.8Z" fill="#282B36"/>
</svg>
