<svg width="24" height="25" viewBox="0 0 24 25" fill="none" xmlns="http://www.w3.org/2000/svg">
<g id="settings-03">
<path id="Icon" d="M15.0505 9.04492H5.5C4.11929 9.04492 3 7.92563 3 6.54492C3 5.16421 4.11929 4.04492 5.5 4.04492H15.0505M8.94949 20.0449H18.5C19.8807 20.0449 21 18.9256 21 17.5449C21 16.1642 19.8807 15.0449 18.5 15.0449H8.94949M3 17.5449C3 19.4779 4.567 21.0449 6.5 21.0449C8.433 21.0449 10 19.4779 10 17.5449C10 15.6119 8.433 14.0449 6.5 14.0449C4.567 14.0449 3 15.6119 3 17.5449ZM21 6.54492C21 8.47792 19.433 10.0449 17.5 10.0449C15.567 10.0449 14 8.47792 14 6.54492C14 4.61193 15.567 3.04492 17.5 3.04492C19.433 3.04492 21 4.61193 21 6.54492Z" stroke="#266F68" stroke-width="2" stroke-linecap="round" stroke-linejoin="round"/>
</g>
</svg>
