<svg width="40" height="40" viewBox="0 0 40 40" fill="none" xmlns="http://www.w3.org/2000/svg">
<rect x="0.5" y="0.5" width="39" height="39" stroke="black"/>
<rect width="40" height="40" fill="white"/>
<rect width="10.4348" height="4.63768" fill="#66738A"/>
<rect y="11.5938" width="10.4348" height="7.53623" fill="#66738A"/>
<rect y="5.79688" width="4.63768" height="4.63768" fill="#66738A"/>
<rect x="11.5938" y="35.3623" width="5.21739" height="4.63768" fill="#66738A"/>
<rect x="11.5938" y="29.5654" width="5.21739" height="4.63768" fill="#D4DAE3"/>
<rect x="17.9707" y="35.3623" width="15.6522" height="4.63768" fill="#66738A"/>
<rect x="17.9707" y="29.5654" width="22.029" height="4.63768" fill="#66738A"/>
<rect x="34.7822" y="35.3623" width="5.21739" height="4.63768" fill="#282B36"/>
<rect x="5.79688" y="5.79688" width="4.63768" height="4.63768" fill="#282B36"/>
<rect y="20.29" width="10.4348" height="19.7101" fill="#282B36"/>
<rect x="11.5938" width="28.4058" height="28.4058" fill="#282B36"/>
<g clip-path="url(#clip0_62306_82555)">
<path d="M27.9076 12.4641C28.8991 12.773 29.8282 13.275 30.6381 13.9496M33.1743 11.3771C31.0566 9.5104 28.3306 8.48046 25.5076 8.48046C25.0692 8.48046 24.6331 8.5053 24.2013 8.55426M22.993 16.5293C23.7287 16.0067 24.6087 15.7259 25.5111 15.7259C26.4135 15.7259 27.2936 16.0067 28.0292 16.5293M25.5077 19.3481H25.5149M17.6768 11.5226C18.6431 10.637 19.7601 9.91316 20.9848 9.39382M20.2409 14.0894C21.2536 13.1974 22.4944 12.5584 23.8646 12.2713M28.1876 16.6489C27.4491 16.0701 26.5187 15.7249 25.5076 15.7249C24.4812 15.7249 23.5379 16.0806 22.7942 16.6754M18.9859 7.3916L32.0294 20.4351" stroke="white" stroke-width="2" stroke-linecap="round" stroke-linejoin="round"/>
</g>
<defs>
<clipPath id="clip0_62306_82555">
<rect width="17.3913" height="17.3913" fill="white" transform="translate(16.8115 5.21777)"/>
</clipPath>
</defs>
</svg>
