<svg width="21" height="23" viewBox="0 0 21 23" fill="none" xmlns="http://www.w3.org/2000/svg">
<path d="M11 2.25C11 2.09529 10.9385 1.94692 10.8291 1.83752C10.7197 1.72812 10.5714 1.66667 10.4167 1.66667C10.262 1.66667 10.1136 1.72812 10.0042 1.83752C9.89479 1.94692 9.83333 2.09529 9.83333 2.25V4.0315C8.54978 4.17501 7.36416 4.78662 6.50321 5.74937C5.64227 6.71212 5.16642 7.95845 5.16667 9.25V16.1497L3.31633 18H17.517L15.6667 16.1497V9.25C15.6669 7.95845 15.1911 6.71212 14.3301 5.74937C13.4692 4.78662 12.2836 4.17501 11 4.0315V2.25ZM10.4167 0.5C10.8808 0.5 11.3259 0.684375 11.6541 1.01256C11.9823 1.34075 12.1667 1.78587 12.1667 2.25V3.07483C14.8605 3.83667 16.8333 6.31233 16.8333 9.25V15.6667L20.3333 19.1667H0.5L4 15.6667V9.25C4 7.85311 4.45568 6.49436 5.29788 5.37991C6.14008 4.26547 7.32284 3.45617 8.66667 3.07483V2.25C8.66667 1.78587 8.85104 1.34075 9.17923 1.01256C9.50742 0.684375 9.95254 0.5 10.4167 0.5ZM10.4167 22.6667C9.74429 22.6668 9.09251 22.4346 8.57164 22.0094C8.05077 21.5842 7.69281 20.9921 7.55833 20.3333H8.76583C8.88608 20.6752 9.10948 20.9712 9.40518 21.1807C9.70088 21.3901 10.0543 21.5026 10.4167 21.5026C10.779 21.5026 11.1325 21.3901 11.4282 21.1807C11.7239 20.9712 11.9473 20.6752 12.0675 20.3333H13.275C13.1405 20.9921 12.7826 21.5842 12.2617 22.0094C11.7408 22.4346 11.089 22.6668 10.4167 22.6667Z" fill="#028577"/>
</svg>
