<svg width="24" height="24" viewBox="0 0 24 24" fill="none" xmlns="http://www.w3.org/2000/svg">
<path d="M6.96774 0L0 4.79856V16.6104H4.64516L6.89032 13.842L9.29032 16.6104H13.9355V4.79856L6.96774 0ZM3.79355 15.6876V10.1508L6.11613 12.9192L3.79355 15.6876ZM4.56774 9.228H9.2129L6.89032 11.9964L4.56774 9.228ZM9.9871 15.6876L7.66452 12.9192L9.9871 10.1508V15.6876ZM9.29032 7.3824H4.49032V5.5368H9.29032V7.3824Z" fill="#282B36"/>
<path d="M17.0323 0L10.0645 4.79856V16.6104H14.7097L16.9548 13.842L19.3548 16.6104H24V4.79856L17.0323 0ZM13.8581 15.6876V10.1508L16.1806 12.9192L13.8581 15.6876ZM14.6323 9.228H19.2774L16.9548 11.9964L14.6323 9.228ZM20.0516 15.6876L17.729 12.9192L20.0516 10.1508V15.6876ZM19.3548 7.3824H14.5548V5.5368H19.3548V7.3824Z" fill="#66738A"/>
<path fill-rule="evenodd" clip-rule="evenodd" d="M16.3719 17.6688C16.4079 17.6258 16.4506 17.5917 16.4976 17.5684C16.5446 17.5452 16.5951 17.5332 16.646 17.5332C16.6969 17.5332 16.7473 17.5452 16.7943 17.5684C16.8414 17.5917 16.8841 17.6258 16.92 17.6688L19.2426 20.4372C19.2787 20.48 19.3073 20.5309 19.3268 20.587C19.3463 20.643 19.3563 20.7031 19.3563 20.7638C19.3563 20.8245 19.3463 20.8846 19.3268 20.9407C19.3073 20.9967 19.2787 21.0476 19.2426 21.0905L16.92 23.8589C16.8473 23.9455 16.7488 23.9942 16.646 23.9942C16.5432 23.9942 16.4446 23.9455 16.3719 23.8589C16.2992 23.7723 16.2584 23.6548 16.2584 23.5322C16.2584 23.4097 16.2992 23.2922 16.3719 23.2056L18.4212 20.7638L16.3719 18.3221C16.3359 18.2792 16.3073 18.2283 16.2877 18.1723C16.2682 18.1162 16.2582 18.0561 16.2582 17.9954C16.2582 17.9347 16.2682 17.8746 16.2877 17.8186C16.3073 17.7625 16.3359 17.7116 16.3719 17.6688Z" fill="#282B36"/>
<path fill-rule="evenodd" clip-rule="evenodd" d="M7.62956 23.8644C7.5936 23.9074 7.55089 23.9415 7.50386 23.9648C7.45683 23.988 7.40641 24 7.3555 24C7.30458 24 7.25416 23.988 7.20714 23.9648C7.16011 23.9415 7.11739 23.9074 7.08143 23.8644L4.75885 21.096C4.7228 21.0532 4.6942 21.0023 4.67469 20.9462C4.65517 20.8902 4.64513 20.8301 4.64513 20.7694C4.64513 20.7087 4.65517 20.6486 4.67469 20.5925C4.6942 20.5365 4.7228 20.4856 4.75885 20.4427L7.08143 17.6743C7.15412 17.5877 7.2527 17.539 7.3555 17.539C7.45829 17.539 7.55688 17.5877 7.62956 17.6743C7.70225 17.7609 7.74308 17.8785 7.74308 18.001C7.74308 18.1235 7.70225 18.241 7.62956 18.3276L5.58027 20.7694L7.62956 23.2111C7.66561 23.254 7.69421 23.3049 7.71373 23.3609C7.73324 23.417 7.74329 23.4771 7.74329 23.5378C7.74329 23.5985 7.73324 23.6586 7.71373 23.7146C7.69421 23.7707 7.66561 23.8216 7.62956 23.8644Z" fill="#282B36"/>
<path fill-rule="evenodd" clip-rule="evenodd" d="M5.41931 20.768C5.41931 20.6457 5.48315 20.5283 5.59677 20.4418C5.7104 20.3553 5.86451 20.3066 6.0252 20.3066H18.7489C18.9096 20.3066 19.0637 20.3553 19.1773 20.4418C19.291 20.5283 19.3548 20.6457 19.3548 20.768C19.3548 20.8904 19.291 21.0078 19.1773 21.0943C19.0637 21.1808 18.9096 21.2294 18.7489 21.2294H6.0252C5.86451 21.2294 5.7104 21.1808 5.59677 21.0943C5.48315 21.0078 5.41931 20.8904 5.41931 20.768Z" fill="#282B36"/>
</svg>
