<svg width="25" height="24" viewBox="0 0 25 24" fill="none" xmlns="http://www.w3.org/2000/svg">
<g id="droplets-03">
<path id="Icon" d="M13.392 6.08C14.0798 4.98112 14.5673 3.76904 14.832 2.5C15.332 5 16.832 7.4 18.832 9C20.832 10.6 21.832 12.5 21.832 14.5C21.8377 15.8823 21.4329 17.2352 20.6688 18.3871C19.9048 19.539 18.8159 20.4382 17.5402 20.9705C16.2645 21.5028 14.8595 21.6444 13.5032 21.3773C12.147 21.1101 10.9006 20.4463 9.92203 19.47M7.83203 15.78C10.032 15.78 11.832 13.95 11.832 11.73C11.832 10.57 11.262 9.47 10.122 8.54C8.98203 7.61 8.12203 6.23 7.83203 4.78C7.54203 6.23 6.69203 7.62 5.54203 8.54C4.39203 9.46 3.83203 10.58 3.83203 11.73C3.83203 13.95 5.63203 15.78 7.83203 15.78Z" stroke="#266F68" stroke-width="2" stroke-linecap="round" stroke-linejoin="round"/>
</g>
</svg>
