<svg width="32" height="32" viewBox="0 0 32 32" fill="none" xmlns="http://www.w3.org/2000/svg">
<g id="thermometer-warm">
<path id="Icon" d="M16.0003 12.0013C14.8106 11.9821 13.6487 12.3613 12.6993 13.0786C11.75 13.7959 11.0677 14.8101 10.7611 15.9597C10.4546 17.1094 10.5412 18.3286 11.0074 19.4234C11.4735 20.5181 12.2924 21.4255 13.3337 22.0013M16.0003 4.0013V6.66797M8.80033 24.5346L6.93366 26.4013M5.33366 17.3346H2.66699M8.80033 10.1346L6.93366 8.26797M26.667 19.3815V5.33464C26.667 3.86188 25.4731 2.66797 24.0003 2.66797C22.5276 2.66797 21.3337 3.86188 21.3337 5.33464V19.3815C19.7395 20.3036 18.667 22.0272 18.667 24.0013C18.667 26.9468 21.0548 29.3346 24.0003 29.3346C26.9458 29.3346 29.3337 26.9468 29.3337 24.0013C29.3337 22.0272 28.2611 20.3036 26.667 19.3815Z" stroke="#266F68" stroke-width="2" stroke-linecap="round" stroke-linejoin="round"/>
</g>
</svg>
