<svg width="24" height="24" viewBox="0 0 24 24" fill="none" xmlns="http://www.w3.org/2000/svg">
<path fill-rule="evenodd" clip-rule="evenodd" d="M11.9542 24L11.9649 24H11.9612L11.9542 24ZM12.0388 24H12.0351L12.0458 24L12.0388 24ZM11.9175 23.9998L11.9291 23.9998H11.9224L11.9175 23.9998ZM12.0776 23.9998H12.0709L12.0825 23.9998L12.0776 23.9998ZM11.8822 23.9995L11.8899 23.9995L11.8837 23.9995H11.8822ZM12.1163 23.9995L12.1101 23.9995L12.1178 23.9995H12.1163ZM12.155 23.9991L12.1523 23.9991L12.1627 23.999L12.155 23.9991ZM11.8372 23.999L11.8477 23.9991L11.845 23.9991L11.8372 23.999ZM12.1937 23.9985L12.1874 23.9986L12.2003 23.9984L12.1937 23.9985ZM11.7997 23.9984L11.8126 23.9986L11.8063 23.9985L11.7997 23.9984ZM12.2323 23.9978L12.2238 23.998L12.2357 23.9977L12.2323 23.9978ZM11.7643 23.9977L11.7762 23.998L11.7677 23.9978L11.7643 23.9977ZM11.7204 23.9969L11.7309 23.9971L11.7291 23.997L11.7204 23.9969ZM12.2709 23.997L12.2691 23.9971L12.2796 23.9969L12.2709 23.997ZM11.6819 23.9959L11.6963 23.9963L11.6905 23.9961L11.6819 23.9959ZM12.3095 23.9961L12.3037 23.9963L12.3181 23.9959L12.3095 23.9961ZM12.3481 23.9951L12.3387 23.9954L12.3535 23.9949L12.3481 23.9951ZM11.6465 23.9949L11.6613 23.9954L11.6519 23.9951L11.6465 23.9949ZM11.6128 23.9939L11.6233 23.9942L11.6134 23.9939L11.6043 23.9936L11.6128 23.9939ZM12.3866 23.9939L12.3767 23.9942L12.3872 23.9939L12.3957 23.9936L12.3866 23.9939ZM12.4251 23.9926L12.4199 23.9928L12.436 23.9923L12.4251 23.9926ZM11.564 23.9923L11.5801 23.9928L11.5749 23.9926L11.564 23.9923ZM11.5289 23.991L11.5458 23.9916L11.5364 23.9912L11.5289 23.991ZM12.4636 23.9912L12.4542 23.9916L12.4711 23.991L12.4636 23.9912ZM11.4944 23.9895L11.511 23.9902L11.498 23.9897L11.4944 23.9895ZM12.502 23.9897L12.489 23.9902L12.5056 23.9895L12.502 23.9897ZM11.4461 23.9874L11.4639 23.9882L11.4596 23.9881L11.4461 23.9874ZM12.5404 23.9881L12.5361 23.9882L12.5539 23.9874L12.5404 23.9881ZM11.4115 23.9858L11.43 23.9867L11.4212 23.9863L11.4115 23.9858ZM12.5788 23.9863L12.57 23.9867L12.5885 23.9858L12.5788 23.9863ZM11.3774 23.9841L11.396 23.985L11.3829 23.9844L11.3774 23.9841ZM12.6171 23.9844L12.604 23.985L12.6226 23.9841L12.6171 23.9844ZM12.6555 23.9824L12.6385 23.9833L12.6535 23.9825L12.6713 23.9815L12.6555 23.9824ZM11.3465 23.9825L11.3615 23.9833L11.3445 23.9824L11.3287 23.9815L11.3465 23.9825ZM12.6937 23.9803L12.6862 23.9807L12.7052 23.9796L12.6937 23.9803ZM11.2948 23.9796L11.3138 23.9807L11.3063 23.9803L11.2948 23.9796ZM11.2609 23.9776L11.2799 23.9787L11.268 23.9781L11.2609 23.9776ZM12.732 23.9781L12.7201 23.9787L12.7391 23.9776L12.732 23.9781ZM11.2286 23.9756L11.2457 23.9767L11.2298 23.9757L11.2138 23.9746L11.2286 23.9756ZM12.7702 23.9757L12.7543 23.9767L12.7714 23.9756L12.7862 23.9746L12.7702 23.9757ZM12.8084 23.9732L12.8026 23.9736L12.8208 23.9723L12.8084 23.9732ZM11.1792 23.9723L11.1974 23.9736L11.1916 23.9732L11.1792 23.9723ZM11.1454 23.97L11.1632 23.9713L11.1535 23.9706L11.1454 23.97ZM12.8465 23.9706L12.8368 23.9713L12.8546 23.97L12.8465 23.9706ZM11.1117 23.9676L11.1281 23.9688L11.1154 23.9679L11.1117 23.9676ZM12.8846 23.9679L12.8719 23.9688L12.8883 23.9676L12.8846 23.9679ZM11.0664 23.9642L11.0807 23.9653L11.0773 23.965L11.0664 23.9642ZM12.9227 23.965L12.9193 23.9653L12.9336 23.9642L12.9227 23.965ZM12.9608 23.9621L12.9539 23.9626L12.9685 23.9614L12.9608 23.9621ZM11.0315 23.9614L11.0461 23.9626L11.0392 23.9621L11.0315 23.9614ZM10.9975 23.9587L11.0099 23.9597L11.0012 23.959L10.9975 23.9587ZM12.9988 23.959L12.9901 23.9597L13.0025 23.9587L12.9988 23.959ZM10.9601 23.9555L10.9638 23.9558L10.9632 23.9558L10.9601 23.9555ZM13.0368 23.9558L13.0362 23.9558L13.0399 23.9555L13.0368 23.9558ZM13.0748 23.9525L13.0714 23.9528L13.0799 23.952L13.0748 23.9525ZM10.9201 23.952L10.9286 23.9528L10.9253 23.9525L10.9201 23.952ZM10.885 23.9488L10.8913 23.9494L10.8874 23.949L10.885 23.9488ZM13.1126 23.949L13.1087 23.9494L13.115 23.9488L13.1126 23.949ZM10.125 23.8541C4.3913 22.9529 0 17.9852 0 12C0 5.37704 5.37703 0 12 0C18.623 0 24 5.37704 24 12C24 17.9852 19.6087 22.9529 13.875 23.8541V15.4688H16.6711L17.2031 12H13.875V9.74903C13.875 8.80005 14.3399 7.87502 15.8306 7.87502H17.3438V4.92189C17.3438 4.92189 15.9705 4.68751 14.6576 4.68751C11.9165 4.68751 10.125 6.34876 10.125 9.35627V12H7.07812V15.4688H10.125V23.8541Z" fill="black"/>
</svg>
