<svg width="48" height="48" viewBox="0 0 48 48" fill="none" xmlns="http://www.w3.org/2000/svg">
    <path d="M32.7194 23.746C32.4869 23.746 32.1769 23.746 31.9444 23.746C31.5569 23.746 31.1694 23.3801 31.1694 23.0143C31.1694 18.3314 31.5569 16.4289 32.7194 15.3314C33.8044 14.307 35.4319 14.307 37.6794 14.3801C38.1444 14.3801 38.6094 14.3801 39.1519 14.3801C39.6169 14.3801 39.9269 14.6728 39.9269 15.1119C39.9269 18.3314 39.6169 20.746 37.9894 22.2094C36.9044 23.2338 35.2769 23.746 32.7194 23.746ZM36.5944 15.8436C35.2769 15.8436 34.3469 15.9167 33.8819 16.4289C33.1844 17.0875 32.8744 18.7704 32.7969 22.3558C34.8119 22.3558 36.2069 21.9899 36.9819 21.2582C37.9894 20.3801 38.3769 18.8436 38.4544 15.9167C38.2219 15.9167 37.9894 15.9167 37.6794 15.9167C37.2919 15.8436 36.9044 15.8436 36.5944 15.8436Z"
          fill="#028577"/>
    <path d="M24.3494 41.9655H20.0869C19.6219 41.9655 19.3119 41.6728 19.3119 41.2338V37.4289C19.3119 36.5509 18.5369 35.8923 17.6069 35.8923H13.1894C12.2594 35.8923 11.4844 36.624 11.4844 37.4289V41.2338C11.4844 41.6728 11.1744 41.9655 10.7094 41.9655H6.36945C5.90445 41.9655 5.59445 41.6728 5.59445 41.2338V38.8192C5.59445 36.8435 5.12945 35.0143 4.35445 33.185L3.50195 31.3557C2.72695 29.8192 2.33945 28.1362 2.33945 26.3801C2.33945 19.7948 8.07445 14.5265 15.0494 14.5265C15.8244 14.5265 16.5994 14.5996 17.2969 14.746L24.2719 15.9167C26.3644 16.2826 28.6119 15.9899 30.5494 15.0387C31.4795 14.4533 33.1069 14.4533 34.4244 14.3801C34.7345 14.3801 34.9669 14.3801 35.1995 14.3801C35.6645 14.3801 35.9744 14.6728 36.0519 15.0387C36.0519 15.4777 35.742 15.7704 35.3545 15.8435C35.122 15.8435 34.812 15.8435 34.5794 15.8435C33.572 15.8435 32.0219 15.9167 31.4019 16.2826C29.0769 17.3801 26.5194 17.6728 24.0394 17.307L17.0644 16.1362C16.4444 15.9899 15.7469 15.9899 15.0494 15.9899C8.92695 15.9899 3.88945 20.6728 3.88945 26.3801C3.88945 27.9167 4.19945 29.3801 4.89695 30.7704L5.74945 32.5996C6.67945 34.5753 7.14445 36.624 7.14445 38.8192V40.5021H9.93445V37.4289C9.93445 35.746 11.4069 34.4289 13.1894 34.4289H17.6069C19.3894 34.4289 20.8619 35.8192 20.8619 37.4289V40.5021H23.6519V37.4289C23.6519 35.746 25.1244 34.4289 26.9069 34.4289H34.347C34.812 34.4289 35.122 34.7216 35.122 35.1606C35.122 35.5996 34.812 35.8923 34.347 35.8923H26.9069C25.9769 35.8923 25.2019 36.624 25.2019 37.4289V41.2338C25.1244 41.6728 24.8144 41.9655 24.3494 41.9655ZM45.4295 31.8679C45.2745 31.8679 45.1194 31.7948 44.9645 31.7216C44.6544 31.5021 44.4995 31.0631 44.8095 30.6972C44.887 30.624 44.887 30.5509 44.887 30.4777C44.887 30.4045 44.8095 30.3314 44.8095 30.2582L41.8644 27.5509C41.7094 27.4045 41.632 27.2582 41.632 27.0387V19.7216C41.632 18.3313 40.8569 16.7948 39.8494 16.1362C39.7719 16.0631 39.3069 15.9167 39.1519 15.8435C38.7645 15.8435 38.4544 15.4777 38.4544 15.1118C38.4544 14.6728 38.7645 14.3801 39.2295 14.3801C39.6945 14.3801 40.6245 14.8192 40.702 14.8923C42.097 15.7704 43.1819 17.8192 43.1819 19.7216V26.746L45.8945 29.2338C46.2819 29.5996 46.437 30.0387 46.437 30.5509C46.437 30.9167 46.282 31.2826 46.0494 31.5753C45.8945 31.7948 45.6619 31.8679 45.4295 31.8679Z"
          fill="#028577"/>
    <path d="M3.89027 21.2597C3.65777 21.2597 3.50277 21.1866 3.34777 21.0402C1.87527 19.65 1.17777 16.7963 1.64277 14.2353C2.03027 11.8207 3.42527 9.99144 5.44027 9.04023C5.51777 9.04023 5.59527 8.96705 5.67277 8.96705C6.21527 8.16218 7.06777 7.21096 8.23027 6.18657C8.54027 5.89388 9.00527 5.96705 9.31527 6.25974C9.62527 6.55242 9.54777 6.99144 9.23777 7.28413C8.77277 7.64998 8.46277 8.01583 8.15277 8.30852C8.69527 8.30852 9.16027 8.45486 9.62527 8.67437C10.3228 9.1134 10.6328 9.8451 10.5553 10.7232C10.4778 11.6012 10.0128 12.4792 9.31527 12.7719C8.30777 13.211 6.29277 13.1378 5.44027 11.9671C5.20777 11.6012 5.05277 11.3085 5.05277 11.0158C3.81277 12.0402 3.34777 13.4305 3.11527 14.4549C2.72777 16.7963 3.42527 19.0646 4.35527 19.9427C4.66527 20.2353 4.66527 20.6744 4.35527 20.9671C4.27777 21.1866 4.04527 21.2597 3.89027 21.2597ZM6.75777 10.0646C6.52527 10.5036 6.52527 10.8695 6.68027 11.089C7.06777 11.6012 8.15277 11.6012 8.61777 11.4549C8.77277 11.3817 9.00527 11.0158 9.00527 10.5768C9.00527 10.4305 9.00527 10.0646 8.69527 9.8451C8.61777 9.77193 8.07527 9.55242 6.75777 10.0646Z"
          fill="#028577"/>
    <path d="M37.6794 24.0386C38.6094 24.0386 39.3069 24.6971 39.3069 25.5752C39.3069 26.38 38.6094 27.1118 37.6794 27.1118C36.7494 27.1118 36.0519 26.4532 36.0519 25.5752C36.0519 24.7703 36.7494 24.0386 37.6794 24.0386Z"
          fill="#028577"/>
    <path d="M34.8894 33.4777C30.4719 33.4777 28.2244 31.868 27.2169 30.4777C25.6669 28.5021 25.3569 25.5753 26.3644 22.5753C26.5194 22.2094 26.9069 21.9899 27.3719 22.0631C27.7594 22.2094 27.9919 22.5753 27.9144 23.0143C27.0619 25.5753 27.2944 27.9899 28.5344 29.6728C29.7744 31.2826 32.0219 32.0875 34.9669 32.0875C35.4319 32.0875 35.7419 32.3802 35.7419 32.8192C35.7419 33.2582 35.3544 33.4777 34.8894 33.4777Z"
          fill="#028577"/>
    <path d="M33.1844 41.9658C29.1544 41.9658 25.9769 38.8926 25.9769 35.1609C25.9769 34.7219 26.2869 34.4292 26.7519 34.4292H39.6944C40.1594 34.4292 40.4694 34.7219 40.4694 35.1609C40.3919 38.8926 37.1369 41.9658 33.1844 41.9658ZM27.5269 35.8926C27.9144 38.5268 30.3169 40.5024 33.1844 40.5024C36.0519 40.5024 38.4544 38.4536 38.8419 35.8926H27.5269Z"
          fill="#028577"/>
    <path d="M40.5469 35.8924C40.3144 35.8924 40.0044 35.7461 39.8494 35.5266C39.4619 34.9412 39.2294 34.2095 39.2294 33.551C39.2294 31.429 41.0119 29.7461 43.2594 29.7461C45.5069 29.7461 47.2894 31.429 47.2894 33.551C47.2894 34.2827 47.0569 34.9412 46.6694 35.5266C46.4369 35.8924 45.9719 35.9656 45.5844 35.7461C45.1969 35.5266 45.1194 35.0876 45.3519 34.7217C45.5844 34.3559 45.7394 33.9168 45.7394 33.4778C45.7394 32.1607 44.6544 31.1363 43.2594 31.1363C41.8644 31.1363 40.7794 32.1607 40.7794 33.4778C40.7794 33.9168 40.9344 34.3559 41.1669 34.7217C41.3994 35.0876 41.2444 35.5266 40.9344 35.7461C40.7794 35.8193 40.7019 35.8924 40.5469 35.8924Z"
          fill="#028577"/>
    <path d="M35.2769 35.8924C35.0444 35.8924 34.7344 35.7461 34.5794 35.5266C34.1919 34.9412 33.9594 34.2095 33.9594 33.551C33.9594 31.429 35.7419 29.7461 37.9894 29.7461C39.2294 29.7461 40.4694 30.3315 41.2444 31.2827C41.4769 31.5754 41.3994 32.0876 41.0894 32.3071C40.7794 32.5266 40.2369 32.4534 40.0044 32.1607C39.5394 31.5754 38.7644 31.2095 37.9894 31.2095C36.5944 31.2095 35.5094 32.2339 35.5094 33.551C35.5094 33.99 35.6644 34.429 35.8969 34.7949C36.1294 35.1607 35.9744 35.5998 35.6644 35.8193C35.5094 35.8193 35.3544 35.8924 35.2769 35.8924Z"
          fill="#028577"/>
    <path d="M47.2119 41.9658H33.1844C32.7194 41.9658 32.4094 41.6731 32.4094 41.2341C32.4094 40.7951 32.7194 40.5024 33.1844 40.5024H46.4369V35.8926H39.6169C39.1519 35.8926 38.8419 35.5999 38.8419 35.1609C38.8419 34.7219 39.1519 34.4292 39.6169 34.4292H47.2119C47.6769 34.4292 47.9869 34.7219 47.9869 35.1609V41.2341C47.9869 41.5999 47.6769 41.9658 47.2119 41.9658Z"
          fill="#028577"/>
</svg>
