<svg width="48" height="48" viewBox="0 0 48 48" fill="none" xmlns="http://www.w3.org/2000/svg">
    <path d="M45.7462 25.3752H43.3342C44.9171 23.8897 45.897 21.7787 45.897 19.5113C45.897 15.3675 42.8819 12.0055 38.9623 11.6146C38.9623 11.6146 38.9623 11.6146 38.9623 11.5364V11.2237C38.3593 5.98528 37.5302 5.04705 32.4045 4.49976H32.103C31.8769 4.49976 31.6508 4.57794 31.5 4.73431C31.3492 4.89068 31.2739 5.12524 31.2739 5.35979C31.6508 9.89454 32.4045 11.4582 35.6457 12.1619C33.5352 12.9438 31.8769 14.6638 31.1231 16.9312C30.7462 16.853 30.3693 16.7749 29.9925 16.7749C28.6357 16.7749 27.4296 17.3221 26.6005 18.2604L27.1281 16.6967C27.1281 16.6185 27.2035 16.5403 27.2035 16.4621C27.2035 14.1166 26.3744 12.0837 24.9422 10.911C24.1131 10.2855 22.7563 9.5818 20.7211 9.89454C20.5704 9.0345 20.1935 8.25265 19.5905 7.54898C18.3844 6.14165 16.5754 5.35979 14.6156 5.35979C14.5402 5.35979 14.5402 5.35979 14.4648 5.35979C14.3894 5.35979 14.3894 5.35979 14.3141 5.35979C12.4296 5.35979 10.5452 6.14165 9.3392 7.54898C8.73618 8.25265 8.3593 9.11269 8.20854 9.89454C6.17337 9.50362 4.81658 10.2073 4.06281 10.8328C2.63065 12.0055 1.80151 14.0384 1.80151 16.3839C1.80151 16.4621 1.80151 16.5403 1.87688 16.6185L4.89196 25.2971C4.89196 25.2971 4.89196 25.2971 4.89196 25.3752H2.25377C1.80151 25.3752 1.5 25.688 1.5 26.1571V44.1397C1.5 44.6088 1.80151 44.9216 2.25377 44.9216H45.7462C46.1985 44.9216 46.5 44.6088 46.5 44.1397V26.1571C46.5 25.7662 46.1985 25.3752 45.7462 25.3752ZM3.00754 32.6465H44.9925V36.6339H3.00754V32.6465ZM32.8568 6.06346C36.4749 6.53257 36.9271 7.00169 37.3794 10.7546C33.9121 10.4418 33.2337 9.73817 32.8568 6.06346ZM38.2839 13.1783C41.6759 13.1783 44.3895 15.993 44.3895 19.5113C44.3895 22.0915 42.9573 24.3588 40.696 25.3752C40.696 25.3752 40.6206 25.3752 40.6206 25.4534H32.9322C33.9874 24.5934 34.6658 23.186 34.6658 21.6223C34.6658 19.9023 33.7613 18.3386 32.4799 17.4785C33.309 14.8984 35.6457 13.1783 38.2839 13.1783ZM29.9925 18.2604C31.7261 18.2604 33.1583 19.7459 33.1583 21.5442C33.1583 23.3424 31.7261 24.8279 29.9925 24.8279C28.2588 24.8279 26.8266 23.3424 26.8266 21.5442C26.8266 19.7459 28.2588 18.2604 29.9925 18.2604ZM27.0528 25.3752H24.1131C24.1131 25.3752 24.1131 25.3752 24.1131 25.2971L25.2437 21.9351C25.3945 23.3424 26.0729 24.5934 27.0528 25.3752ZM6.24874 24.8279L3.30905 16.2276C3.30905 14.4293 3.98744 12.8656 4.96734 12.0837C5.94724 11.3019 7.22864 11.1455 8.81156 11.5364C9.03769 11.6146 9.3392 11.5364 9.48995 11.3801C9.6407 11.2237 9.79146 10.9891 9.71608 10.6764C9.6407 9.97273 9.94221 9.19088 10.5452 8.48721C11.4497 7.4708 12.8819 6.84532 14.3894 6.84532C14.4648 6.84532 14.4648 6.84532 14.5402 6.84532C14.6156 6.84532 14.6156 6.84532 14.691 6.84532C16.1985 6.84532 17.6307 7.4708 18.5352 8.48721C19.1382 9.19088 19.4397 9.97273 19.3643 10.6764C19.3643 10.911 19.4397 11.1455 19.5905 11.3801C19.7412 11.5364 20.0427 11.6146 20.2688 11.5364C21.8518 11.1455 23.1332 11.3019 24.1131 12.0837C25.1683 12.9438 25.7714 14.4293 25.7714 16.2276L22.8317 24.7498C22.7563 24.9843 22.7563 25.1407 22.8317 25.2971H20.0427L21.3241 20.0586C21.3995 19.6677 21.1734 19.1986 20.7965 19.1204C20.4196 19.0422 19.9673 19.2768 19.892 19.6677L18.6106 25.1407C18.6106 25.2189 18.6106 25.2189 18.6106 25.2971H15.3693V14.5075C15.3693 14.0384 15.0678 13.7256 14.6156 13.7256C14.1633 13.7256 13.8618 14.0384 13.8618 14.5075V25.3752H10.6206C10.6206 25.2971 10.6206 25.2971 10.6206 25.2189L9.3392 19.7459C9.03769 19.355 8.6608 19.1204 8.28392 19.1986C7.90704 19.2768 7.60553 19.7459 7.75628 20.1368L9.03769 25.3752H6.17337C6.24874 25.2189 6.32412 24.9843 6.24874 24.8279ZM44.9925 26.9389V31.0828H3.00754V26.9389H44.9925ZM3.00754 43.3579V38.1976H44.9925V43.3579H3.00754Z"
          fill="#028577"/>
</svg>
