<svg width="48" height="48" viewBox="0 0 48 48" fill="none" xmlns="http://www.w3.org/2000/svg">
    <g>
        <path d="M36.3333 37.7742C36.2 37.6237 36.0667 37.4731 35.9333 37.3979V10.6774C36.0667 10.6022 36.2 10.4516 36.3333 10.3011L38.2 8.19355C39.2667 6.98925 39.2667 5.10753 38.2 3.90323C37.1333 2.69892 35.4667 2.69892 34.4 3.90323L32.6 6.01075C32.5333 6.08602 32.4667 6.23656 32.3333 6.31183H15.6667C15.6 6.23656 15.5333 6.08602 15.4667 6.01075L13.5333 3.90323C12.4667 2.69892 10.8 2.69892 9.73335 3.90323C8.66668 5.10753 8.66668 6.98925 9.73335 8.19355L11.6667 10.3011C11.7333 10.3763 11.8667 10.4516 11.9333 10.5269V12.2581C11.9333 12.2581 11.9333 12.2581 11.9333 12.3333C11.9333 12.4086 11.9333 12.3333 11.9333 12.4086V37.4731C11.8667 37.5484 11.7333 37.6237 11.6667 37.7742L9.80002 39.8817C8.73335 41.086 8.73335 42.9677 9.80002 44.172C10.2667 44.6989 11 45 11.6667 45C12.3333 45 13 44.6989 13.5333 44.0968L15.4 41.9892C15.4667 41.914 15.5333 41.7634 15.6667 41.6882H32.3333C32.4 41.8387 32.4667 41.914 32.6 41.9892L34.4667 44.0968C35.5333 45.3011 37.2 45.3011 38.2667 44.0968C39.3333 42.8925 39.3333 41.0108 38.2667 39.8065L36.3333 37.7742ZM37.2667 43.043C36.7333 43.6452 35.8667 43.6452 35.4 43.043L33.5333 40.9355C33.4667 40.8602 33.4 40.7097 33.3333 40.5591C33.2 40.3333 33 40.1828 32.7333 40.1828H15.3333C15.0667 40.1828 14.8667 40.3333 14.7333 40.5591C14.6667 40.7097 14.6 40.8602 14.5333 40.9355L12.6667 43.043C12.1333 43.6452 11.2667 43.6452 10.8 43.043C10.2667 42.4409 10.2667 41.5376 10.8 40.9355L12.6667 38.828C12.7333 38.7527 12.8667 38.6774 13 38.6021C13.2 38.4516 13.3333 38.2258 13.3333 37.9247V13.086H25.3333C25.7333 13.086 26 12.7849 26 12.3333C26 11.8817 25.7333 11.5806 25.3333 11.5806H13.3333V10.0753C13.3333 9.77419 13.2 9.54839 13 9.39785C12.8 9.39785 12.6667 9.32258 12.6 9.17204L10.7333 7.06452C10.2 6.46237 10.2 5.55914 10.7333 4.95699C11.2667 4.35484 12.0667 4.35484 12.6 4.95699L14.4667 7.06452C14.5333 7.13978 14.6 7.29032 14.6667 7.44086C14.8 7.66667 15 7.8172 15.2667 7.8172H32.6667C32.9333 7.8172 33.1333 7.66667 33.2667 7.44086C33.3333 7.29032 33.4 7.13978 33.4667 7.06452L35.3333 4.95699C35.8667 4.35484 36.6667 4.35484 37.2 4.95699C37.7333 5.55914 37.7333 6.46237 37.2 7.06452L35.3333 9.17204C35.2 9.32258 35.0667 9.39785 34.9333 9.47312C34.6667 9.62366 34.5333 9.84946 34.5333 10.1505V34.914H22.2C21.8 34.914 21.5333 35.2151 21.5333 35.6667C21.5333 36.1183 21.8 36.4194 22.2 36.4194H34.6V37.8495C34.6 38.1505 34.7333 38.4516 35 38.5269C35.1333 38.6021 35.2667 38.6774 35.4 38.828L37.2667 40.9355C37.8 41.5376 37.8 42.5161 37.2667 43.043Z"
              fill="#028577"/>
        <path d="M23.5334 26.9354C23.5334 27.387 23.8 27.6881 24.2 27.6881C24.6 27.6881 24.8667 27.387 24.8667 26.9354V21.8924C28.9334 21.3655 29.8 20.0107 30.2 14.8924C30.2 14.6666 30.1334 14.4408 30 14.2903C29.8667 14.1397 29.6667 14.0645 29.4667 14.0645H29.2C25 14.5913 23.9334 15.4193 23.4 19.4085C22.5334 18.5053 21.2 18.129 18.8667 17.8279H18.6C18.4 17.8279 18.2 17.9032 18.0667 18.0537C17.9334 18.2042 17.8667 18.43 17.8667 18.6559C18.2667 23.9247 19.2 25.2042 23.6 25.7311V26.9354H23.5334ZM28.8 15.6451C28.5334 18.8064 28 19.7849 25.8 20.2365L27.6 18.2042C27.8667 17.9032 27.8667 17.4516 27.6 17.1505C27.3334 16.8494 26.9334 16.8494 26.6667 17.1505L24.6667 19.4085C25.1334 16.5483 25.8 16.0967 28.8 15.6451ZM19.2 19.4085C22.2 19.8602 22.8667 20.3118 23.2667 23.0967L21.2667 20.8386C21 20.5376 20.6 20.5376 20.3334 20.8386C20.0667 21.1397 20.0667 21.5913 20.3334 21.8924L22.1334 23.9247C20 23.5483 19.5334 22.5698 19.2 19.4085Z"
              fill="#028577"/>
        <path d="M20.6 30.5484L21.6667 32.8065H22.6667V29.5699H22V31C22 31.2258 22 31.4516 22 31.7527L20.9333 29.4946H19.9333V32.7312H20.6V31.3011C20.6 31.2258 20.6 30.9247 20.6 30.5484Z"
              fill="#028577"/>
        <path d="M24.2666 29.6453H23.2666V32.8818H24.0666V31.8281H24.2666C24.5999 31.8281 24.8666 31.7528 25.0666 31.527C25.2666 31.3012 25.3333 31.0754 25.3333 30.699C25.3333 30.3979 25.2666 30.0969 25.0666 29.9463C24.8666 29.7958 24.5999 29.6453 24.2666 29.6453ZM24.4666 30.9248C24.3999 31.0001 24.3333 31.0001 24.1999 31.0001H24.0666V30.2474H24.2666C24.4666 30.2474 24.5999 30.3227 24.5999 30.5485C24.5333 30.7743 24.5333 30.8496 24.4666 30.9248Z"
              fill="#028577"/>
        <path d="M27.4001 29.6453L26.8001 30.6238C26.6667 30.7744 26.6001 30.9249 26.5334 31.0002V29.5701H25.7334V32.8066H26.5334V31.7529L26.7334 31.6023L27.2667 32.8066H28.1334L27.2667 31.0002L28.2001 29.5701H27.4001V29.6453Z"
              fill="#028577"/>
    </g>
</svg>
