<svg width="48" height="48" viewBox="0 0 48 48" fill="none" xmlns="http://www.w3.org/2000/svg">
    <path d="M23.9697 31.0078C23.4966 31.0078 23.1812 31.3254 23.1812 31.8019V47.2062C23.1812 47.6826 23.4966 48.0003 23.9697 48.0003C24.4428 48.0003 24.7582 47.6826 24.7582 47.2062V31.8019C24.7582 31.4048 24.3639 31.0078 23.9697 31.0078Z"
          fill="#028577"/>
    <path d="M17.9771 31.0868C17.5829 30.928 17.1098 31.1662 17.0309 31.6427L12.4576 47.047C12.2999 47.444 12.5364 47.9205 13.0095 47.9999C13.0884 47.9999 13.1672 47.9999 13.2461 47.9999C13.5615 47.9999 13.8769 47.7617 14.0346 47.444L18.6079 32.0397C18.6079 31.6427 18.3714 31.1662 17.9771 31.0868Z"
          fill="#028577"/>
    <path d="M11.9055 31.1662C11.5113 30.928 11.0382 31.0868 10.8016 31.4044L1.57615 46.8088C1.41845 47.1264 1.4973 47.6822 1.89155 47.841C2.04925 47.9204 2.1281 47.9204 2.2858 47.9204C2.52235 47.9204 2.83775 47.7616 2.99545 47.5234L12.2209 32.1191C12.3786 31.8808 12.2998 31.4044 11.9055 31.1662Z"
          fill="#028577"/>
    <path d="M30.9085 31.5627C30.7508 31.1657 30.3566 30.9275 29.9623 31.0069C29.5681 31.1657 29.3315 31.5627 29.4104 31.9598L33.9837 47.3641C34.0625 47.6817 34.3779 47.9199 34.7722 47.9199C34.851 47.9199 34.9299 47.9199 35.0087 47.9199C35.403 47.7611 35.6395 47.3641 35.5607 46.9671L30.9085 31.5627Z"
          fill="#028577"/>
    <path d="M46.2842 46.8086L37.0587 31.4042C36.8222 31.0072 36.3491 30.9278 35.9548 31.166C35.5606 31.4042 35.4817 31.8806 35.7183 32.2776L44.8649 47.6026C45.0226 47.8408 45.2591 47.9996 45.5745 47.9996C45.7322 47.9996 45.8899 47.9996 45.9688 47.9202C46.363 47.682 46.4419 47.1262 46.2842 46.8086Z"
          fill="#028577"/>
    <path d="M34.0626 28.9429C34.1414 28.9429 34.1414 28.9429 34.2203 28.9429C34.6145 28.9429 34.9299 28.6253 35.0088 28.3077L35.403 25.7667C35.4819 25.2903 35.3242 24.7345 35.0876 24.3375C34.7722 23.9404 34.378 23.6228 33.826 23.5434L33.4318 23.464L35.0088 12.7445C35.0876 12.3475 34.7722 11.871 34.378 11.871C33.9837 11.7916 33.5106 12.1093 33.5106 12.5063L32.8798 16.5559C32.801 16.3177 32.6433 16 32.4067 15.8412L30.1201 13.5385C29.9624 13.3797 29.8835 13.1415 29.8835 12.9827C29.8835 12.7445 29.9624 12.5857 30.1201 12.4269L32.7221 9.80654C33.2741 9.40952 33.5895 8.77429 33.826 8.13906C34.378 8.45667 34.9299 8.61548 35.5607 8.61548C36.4281 8.61548 37.2166 8.29786 37.9262 7.74204C38.0051 7.66263 38.1628 7.50383 38.2416 7.42442L38.8724 8.13906C39.0301 8.29786 39.2667 8.45667 39.5032 8.45667C39.6609 8.45667 39.8975 8.37727 39.9763 8.29786C40.2917 7.98025 40.3706 7.50383 40.0552 7.18621L39.4244 6.39217L39.8975 5.67754C40.686 4.56588 40.4494 2.819 39.3455 1.46913C38.2416 0.119262 36.5858 -0.357161 35.3242 0.27807L34.0626 0.913301C33.826 0.992705 33.6683 1.23092 33.6683 1.46913C33.6683 1.54853 33.6683 1.54853 33.6683 1.62794C33.5106 1.70734 33.2741 1.86615 33.1164 2.02496C32.4856 2.58078 32.0913 3.29542 31.9336 4.08946C31.5394 3.93065 31.0663 3.77184 30.5932 3.77184H25.1525C23.4178 3.77184 21.8408 4.40707 20.658 5.67754L18.1348 8.21846C16.9521 9.40952 16.2424 11.077 16.2424 12.7445V26.1637C16.2424 27.99 17.7406 29.4987 19.5541 29.4987C21.3677 29.4987 22.8658 27.99 22.8658 26.1637V12.8239L25.2314 10.4418H26.3353C25.941 11.1564 25.7045 12.0299 25.7045 12.9033C25.7045 14.2532 26.2564 15.5236 27.1238 16.3971L29.4104 18.6998C30.1989 19.4938 31.5394 19.4938 32.3279 18.6998C32.4067 18.6204 32.4067 18.541 32.4856 18.541L31.7759 23.2258L31.3817 23.1464C30.9086 23.067 30.3566 23.2258 29.9624 23.464C29.5681 23.7816 29.2527 24.1786 29.1739 24.7345L28.7796 27.2754C28.7008 27.6724 29.0162 28.1488 29.4104 28.1488L34.0626 28.9429ZM36.1127 1.70734C36.6646 1.38972 37.6108 1.78674 38.2416 2.50138C38.8724 3.21601 39.0301 4.16886 38.7147 4.72469L38.4782 5.0423L35.7973 1.86615L36.1127 1.70734ZM34.1414 3.21601C34.2203 3.13661 34.378 3.05721 34.5357 2.9778L37.2166 6.15396C37.0589 6.23336 36.98 6.31277 36.9012 6.39217C36.0338 7.10681 34.6934 7.0274 33.9837 6.15396C33.9049 6.07456 33.826 5.91575 33.7472 5.83634C33.7472 5.75694 33.6683 5.75694 33.6683 5.67754C33.2741 4.8835 33.4318 3.85125 34.1414 3.21601ZM21.3677 26.1637C21.3677 27.1166 20.5792 27.9106 19.633 27.9106C18.6868 27.9106 17.8983 27.1166 17.8983 26.1637V12.7445C17.8983 11.7122 18.2137 10.7594 18.7656 9.96535L21.3677 12.5857C21.3677 12.6651 21.3677 12.6651 21.3677 12.7445V26.1637ZM31.224 17.5881C31.0663 17.7469 30.7509 17.7469 30.5143 17.5881L28.3065 15.3648C27.6757 14.7296 27.2815 13.8561 27.2815 12.9827C27.2815 12.1093 27.5969 11.2358 28.3065 10.6006L28.5431 10.3624C28.7796 10.1242 28.8585 9.80654 28.7008 9.48892C28.5431 9.17131 28.3065 9.0125 27.9911 9.0125H25.1525C24.8371 9.0125 24.4429 9.17131 24.2063 9.40952L22.235 11.3946L19.8695 8.77429L21.8408 6.78919C22.787 5.83634 23.9698 5.35992 25.2314 5.35992H30.672C31.3817 5.35992 32.0125 5.75694 32.249 6.39217C32.249 6.39217 32.249 6.47158 32.3279 6.47158C32.4067 6.63038 32.4856 6.86859 32.4856 7.10681C32.4856 7.66263 32.249 8.13906 31.8548 8.45667C31.8548 8.45667 31.7759 8.45667 31.7759 8.53608L29.095 11.2358C28.6219 11.7122 28.3854 12.2681 28.3854 12.9827C28.3854 13.6179 28.6219 14.2532 29.095 14.7296L31.3817 17.0323C31.4605 17.1117 31.5394 17.2705 31.5394 17.3499C31.3817 17.4293 31.3817 17.5087 31.224 17.5881ZM30.7509 25.0521C30.7509 24.9727 30.8297 24.8933 30.9086 24.8139C30.9874 24.8139 31.0663 24.7345 31.1451 24.7345L33.5895 25.1315C33.6683 25.1315 33.7472 25.2109 33.826 25.2903C33.826 25.3697 33.9049 25.4491 33.9049 25.5285L33.6683 27.2754L30.5932 26.799L30.7509 25.0521Z"
          fill="#028577"/>
</svg>
