<svg width="48" height="48" viewBox="0 0 48 48" fill="none" xmlns="http://www.w3.org/2000/svg">
    <path d="M42.7574 15.4488H32.0644C32.4356 15.3012 32.7327 15.0797 32.9554 14.8583C33.9208 13.8986 34.4406 12.5699 34.4406 11.2411C34.4406 9.9124 33.9208 8.58366 32.9554 7.62402C31.9901 6.66437 30.6535 6.14764 29.3168 6.14764C27.9802 6.14764 26.6436 6.66437 25.6782 7.62402C25.3069 7.99311 25.0099 8.58366 24.7871 9.17421C24.4901 8.43602 24.2673 7.91929 23.8218 7.47638C22.8564 6.51673 21.5198 6 20.1832 6C18.8465 6 17.5099 6.51673 16.5446 7.47638C15.5792 8.43602 15.0594 9.76476 15.0594 11.0935C15.0594 12.4222 15.5792 13.751 16.5446 14.7106C16.7673 14.9321 17.0644 15.1535 17.4356 15.3012H6.74257C6.29703 15.3012 6 15.5965 6 16.0394V24.3071C6 24.75 6.29703 25.0453 6.74257 25.0453H8.00495V42.6142C8.00495 43.0571 8.30198 43.3524 8.74752 43.3524H40.6782C41.1238 43.3524 41.4208 43.0571 41.4208 42.6142V25.1191H42.6832C43.1287 25.1191 43.4257 24.8238 43.4257 24.3809V16.187C43.5 15.7441 43.1287 15.4488 42.7574 15.4488ZM27.0149 25.1191V41.9498H22.4851V25.1191H27.0149ZM22.4851 23.6427V16.8514H27.0149V23.6427H22.4851ZM26.7178 8.58366C28.1287 7.1811 30.5049 7.1811 31.9901 8.58366C33.4752 9.98622 33.401 12.3484 31.9901 13.8248C31.0248 14.7844 27.8317 15.0059 25.6782 14.9321C25.5297 12.7175 25.7525 9.54331 26.7178 8.58366ZM16.4703 11.1673C16.4703 10.2077 16.8416 9.24803 17.5842 8.58366C18.3267 7.84547 19.2921 7.47638 20.1832 7.47638C21.0743 7.47638 22.1139 7.84547 22.7822 8.58366C23.7475 9.54331 23.9703 12.7175 23.896 14.8583C21.7426 14.9321 18.5495 14.7106 17.5842 13.751C16.8416 13.0866 16.4703 12.127 16.4703 11.1673ZM7.48515 16.9252H21V23.7165H7.48515V16.9252ZM9.4901 25.1191H20.9257V41.9498H9.4901V25.1191ZM39.9356 42.0236H28.5V25.1191H39.9356V42.0236ZM42.0149 23.6427H28.5V16.8514H42.0149V23.6427Z"
          fill="#028577"/>
</svg>
