<svg width="48" height="48" viewBox="0 0 48 48" fill="none" xmlns="http://www.w3.org/2000/svg">
    <path d="M9.69 25.335C8.32944 25.335 6.99945 25.7385 5.86829 26.4946C4.73713 27.2506 3.85562 28.3252 3.3353 29.5823C2.81498 30.8394 2.67922 32.2226 2.9452 33.557C3.21118 34.8913 3.86694 36.1167 4.82953 37.0782C5.79212 38.0398 7.01827 38.6942 8.35287 38.9587C9.68747 39.2233 11.0705 39.086 12.3271 38.5643C13.5837 38.0426 14.6573 37.1599 15.4121 36.0279C16.1669 34.896 16.569 33.5655 16.5675 32.205C16.5655 30.3822 15.84 28.6348 14.5505 27.3467C13.2609 26.0585 11.5127 25.335 9.69 25.335ZM9.69 37.5825C8.62643 37.5825 7.58675 37.2671 6.70242 36.6762C5.81809 36.0853 5.12885 35.2455 4.72184 34.2628C4.31483 33.2802 4.20833 32.199 4.41583 31.1559C4.62332 30.1127 5.13548 29.1546 5.88753 28.4025C6.63959 27.6504 7.59777 27.1383 8.6409 26.9308C9.68403 26.7233 10.7653 26.8298 11.7479 27.2368C12.7305 27.6438 13.5703 28.3331 14.1612 29.2174C14.7521 30.1017 15.0675 31.1414 15.0675 32.205C15.0675 33.6312 14.5009 34.999 13.4925 36.0074C12.484 37.0159 11.1162 37.5825 9.69 37.5825Z"
          fill="#028577"/>
    <path d="M9.68993 27.9451C8.56072 27.9471 7.47832 28.3965 6.67985 29.195C5.88137 29.9935 5.43191 31.0759 5.42993 32.2051C5.42993 32.404 5.50895 32.5947 5.6496 32.7354C5.79025 32.8761 5.98102 32.9551 6.17993 32.9551C6.37884 32.9551 6.56961 32.8761 6.71026 32.7354C6.85091 32.5947 6.92993 32.404 6.92993 32.2051C6.92993 31.4731 7.22072 30.7711 7.73832 30.2535C8.25592 29.7359 8.95793 29.4451 9.68993 29.4451C9.88884 29.4451 10.0796 29.3661 10.2203 29.2254C10.3609 29.0847 10.4399 28.894 10.4399 28.6951C10.4399 28.4962 10.3609 28.3054 10.2203 28.1647C10.0796 28.0241 9.88884 27.9451 9.68993 27.9451Z"
          fill="#028577"/>
    <path d="M38.31 25.335C36.9492 25.3335 35.6184 25.7358 34.4863 26.4909C33.3541 27.246 32.4715 28.3201 31.95 29.5771C31.4285 30.8341 31.2917 32.2176 31.5568 33.5524C31.822 34.8872 32.4771 36.1133 33.4394 37.0756C34.4017 38.0379 35.6279 38.6931 36.9627 38.9582C38.2975 39.2233 39.6809 39.0865 40.9379 38.565C42.1949 38.0435 43.269 37.1609 44.0241 36.0287C44.7792 34.8966 45.1815 33.5658 45.18 32.205C45.1781 30.3835 44.4536 28.6373 43.1657 27.3493C41.8777 26.0614 40.1315 25.337 38.31 25.335ZM38.31 37.5825C37.2462 37.584 36.2057 37.2698 35.3204 36.6798C34.4351 36.0899 33.7447 35.2505 33.3365 34.2681C32.9284 33.2856 32.8208 32.2041 33.0275 31.1605C33.2341 30.1168 33.7457 29.158 34.4974 28.4052C35.2492 27.6524 36.2073 27.1394 37.2507 26.9313C38.294 26.7232 39.3756 26.8293 40.3587 27.2361C41.3417 27.6429 42.182 28.3321 42.7733 29.2166C43.3645 30.1011 43.68 31.1411 43.68 32.205C43.6781 33.6293 43.1119 34.9948 42.1055 36.0026C41.0991 37.0104 39.7343 37.5785 38.31 37.5825Z"
          fill="#028577"/>
    <path d="M37.8676 27.9451C36.7371 27.9451 35.6528 28.3936 34.8527 29.1923C34.0526 29.991 33.6021 31.0746 33.6001 32.2051C33.6001 32.404 33.6791 32.5947 33.8198 32.7354C33.9604 32.8761 34.1512 32.9551 34.3501 32.9551C34.549 32.9551 34.7398 32.8761 34.8804 32.7354C35.0211 32.5947 35.1001 32.404 35.1001 32.2051C35.1021 31.4724 35.3945 30.7704 35.9133 30.253C36.4321 29.7356 37.1349 29.4451 37.8676 29.4451C38.0665 29.4451 38.2573 29.3661 38.3979 29.2254C38.5386 29.0847 38.6176 28.894 38.6176 28.6951C38.6176 28.4962 38.5386 28.3054 38.3979 28.1647C38.2573 28.0241 38.0665 27.9451 37.8676 27.9451Z"
          fill="#028577"/>
    <path d="M46.8375 27.9824C46.8544 27.8518 46.8336 27.7191 46.7775 27.5999L38.565 10.4999C37.155 7.30489 34.7775 5.8124 32.0475 6.3899C30.18 6.7874 28.035 8.02489 27.7875 11.5574C25.3724 10.5364 22.66 10.4694 20.1975 11.3699C19.89 7.97989 17.79 6.7799 15.9525 6.3899C13.2225 5.7974 10.845 7.29739 9.45 10.4999L1.2225 27.5999C1.1664 27.7191 1.14558 27.8518 1.1625 27.9824C0.503377 29.2925 0.159242 30.7383 0.157497 32.2049C0.15153 34.7331 1.15012 37.1601 2.93359 38.952C4.71706 40.7439 7.13932 41.7539 9.6675 41.7599C12.1957 41.7659 14.6227 40.7673 16.4146 38.9838C18.2065 37.2003 19.2165 34.7781 19.2225 32.2499L19.41 28.6199H28.59L28.7775 32.2499C28.7835 34.7781 29.7935 37.2003 31.5854 38.9838C33.3773 40.7673 35.8043 41.7659 38.3325 41.7599C40.8607 41.7539 43.2829 40.7439 45.0664 38.952C46.8499 37.1601 47.8485 34.7331 47.8425 32.2049C47.8407 30.7383 47.4966 29.2925 46.8375 27.9824ZM32.3625 7.85239C35.07 7.2749 36.5475 9.63739 37.2 11.1224L43.5 24.2174C42.4113 23.5017 41.1872 23.0175 39.9035 22.7949C38.6198 22.5723 37.3041 22.616 36.038 22.9234C34.7719 23.2308 33.5826 23.7952 32.5439 24.5816C31.5052 25.3681 30.6393 26.3597 30 27.4949L29.25 12.7499C29.1225 9.92239 30.135 8.32489 32.3625 7.85239ZM27.795 13.1999L28.2 21.0749C26.8918 20.4655 25.4721 20.1324 24.0294 20.0963C22.5867 20.0601 21.152 20.3218 19.815 20.8649L20.25 12.9824C21.3679 12.4896 22.5758 12.2342 23.7975 12.2324C25.1868 12.242 26.555 12.5732 27.795 13.1999ZM10.8075 11.0999C11.4525 9.59989 12.9375 7.2749 15.6375 7.85239C17.8875 8.32489 18.87 9.92239 18.7275 12.7499L18.255 21.8549C18.2089 22.0014 18.2089 22.1584 18.255 22.3049L18 27.4949C17.3607 26.3597 16.4948 25.3681 15.4561 24.5816C14.4174 23.7952 13.2281 23.2308 11.962 22.9234C10.6959 22.616 9.3802 22.5723 8.09652 22.7949C6.81284 23.0175 5.58864 23.5017 4.5 24.2174L10.8075 11.0999ZM9.69 40.2374C8.10132 40.2374 6.54832 39.7663 5.22738 38.8837C3.90644 38.001 2.8769 36.7465 2.26893 35.2788C1.66097 33.811 1.5019 32.196 1.81184 30.6378C2.12178 29.0797 2.8868 27.6484 4.01016 26.5251C5.13353 25.4017 6.56478 24.6367 8.12293 24.3267C9.68109 24.0168 11.2962 24.1759 12.7639 24.7838C14.2316 25.3918 15.4862 26.4213 16.3688 27.7423C17.2514 29.0632 17.7225 30.6162 17.7225 32.2049C17.7205 34.3346 16.8736 36.3766 15.3676 37.8825C13.8617 39.3885 11.8197 40.2354 9.69 40.2374ZM19.5 27.1199L19.7325 22.5749C21.0649 21.8905 22.5485 21.5537 24.0458 21.5956C25.5431 21.6376 27.0055 22.057 28.2975 22.8149L28.5 27.1199H19.5ZM38.31 40.2374C36.7213 40.2374 35.1683 39.7663 33.8474 38.8837C32.5264 38.001 31.4969 36.7465 30.8889 35.2788C30.281 33.811 30.1219 32.196 30.4318 30.6378C30.7418 29.0797 31.5068 27.6484 32.6302 26.5251C33.7535 25.4017 35.1848 24.6367 36.7429 24.3267C38.3011 24.0168 39.9161 24.1759 41.3839 24.7838C42.8516 25.3918 44.1062 26.4213 44.9888 27.7423C45.8714 29.0632 46.3425 30.6162 46.3425 32.2049C46.3405 34.3346 45.4936 36.3766 43.9876 37.8825C42.4817 39.3885 40.4397 40.2354 38.31 40.2374Z"
          fill="#028577"/>
</svg>
