<svg width="49" height="48" viewBox="0 0 49 48" fill="none" xmlns="http://www.w3.org/2000/svg">
    <path d="M48 34.5268L40.918 12.9962C40.7607 12.6104 40.3672 12.3789 39.8951 12.5332L36.3541 13.6908C36.2754 13.4593 36.1967 13.3049 35.9607 13.2277L12.7475 0.108775C12.3541 -0.122736 11.882 0.0316044 11.6459 0.417456L0.0786885 20.0187C0 20.1731 0 20.4046 0 20.6361C0.0786885 20.8676 0.157377 21.022 0.393443 21.0991L23.6066 34.0638C23.7639 34.1409 23.8426 34.1409 24 34.1409C24.2361 34.1409 24.5508 33.9866 24.7082 33.7551L25.259 32.9062C25.3377 32.7519 25.4164 32.5204 25.3377 32.2888L24.4721 29.5107L27.3836 28.8162C27.6197 28.739 27.7771 28.6618 27.8557 28.4303C27.9344 28.276 28.0131 28.0445 27.9344 27.813L27.0689 25.0348L29.9803 24.3403C30.2164 24.2631 30.3738 24.1088 30.4525 23.9544C30.5311 23.8001 30.6098 23.5686 30.5311 23.3371L29.6656 20.5589L32.577 19.8644C32.8131 19.7872 32.9705 19.7101 33.0492 19.4786C33.1279 19.3242 33.2066 19.0927 33.1279 18.8612L32.2623 16.0831L35.1738 15.3885C35.3312 15.3113 35.5672 15.2342 35.6459 15.0798L35.7246 15.3113L34.0721 18.321C33.9934 18.4753 33.9148 18.7068 33.9934 18.9384C34.0721 19.1699 34.2295 19.3242 34.3869 19.4014L37.0623 20.6361L35.7246 23.1827C35.6459 23.3371 35.5672 23.5686 35.6459 23.8001C35.7246 24.0316 35.882 24.1859 36.0393 24.2631L38.7148 25.4978L37.2984 28.0445C37.2197 28.1988 37.141 28.4303 37.2197 28.6618C37.2984 28.8933 37.4557 29.0477 37.6131 29.1249L40.2885 30.4368L38.8721 32.9834C38.7934 33.1377 38.7148 33.3692 38.7934 33.6007C38.8721 33.8322 39.0295 33.9866 39.1869 34.0638L42.3344 35.53L42.5705 36.1474C42.6492 36.3789 42.8066 36.5332 42.9639 36.6104C43.0426 36.6876 43.2 36.6876 43.3574 36.6876C43.4361 36.6876 43.5148 36.6876 43.5934 36.6876L47.4492 35.4528C47.9213 35.3757 48.1574 34.9126 48 34.5268ZM31.2393 14.7712C31.0033 14.8483 30.8459 14.9255 30.7672 15.157C30.6885 15.3113 30.6098 15.5429 30.6885 15.7744L31.4754 18.5525L28.5639 19.247C28.3279 19.3242 28.1705 19.4014 28.0918 19.6329C28.0131 19.7872 27.9344 20.0187 28.0131 20.2503L28.8787 23.0284L25.9672 23.7229C25.7311 23.8001 25.5738 23.8773 25.4951 24.1088C25.4164 24.3403 25.3377 24.4946 25.4164 24.7261L26.282 27.5043L23.3705 28.1988C23.1344 28.276 22.9771 28.3531 22.8984 28.5847C22.8197 28.739 22.741 28.9705 22.8197 29.202L23.7639 32.366L1.88852 20.0959L12.6689 1.88369L34.4656 14.0766L31.2393 14.7712ZM43.9082 34.9898L43.8295 34.7583C43.7508 34.5268 43.5934 34.3724 43.4361 34.2953L40.7607 33.0605L42.177 30.5139C42.2557 30.3596 42.3344 30.1281 42.2557 29.8966C42.1771 29.665 42.0197 29.5107 41.8623 29.4335L39.1869 28.1216L40.6033 25.575C40.682 25.4207 40.682 25.1892 40.682 24.9576C40.6033 24.7261 40.4459 24.5718 40.2885 24.4946L37.6131 23.2599L39.0295 20.7133C39.1082 20.5589 39.1869 20.2503 39.1082 20.0959C39.0295 19.8644 38.8721 19.7101 38.7148 19.6329L36.0393 18.3982L37.4557 15.8515C37.5344 15.6972 37.6131 15.4657 37.5344 15.2342L37.4557 15.0027L39.8164 14.231L46.4262 34.2953L43.9082 34.9898Z"
          fill="#028577"/>
    <path d="M11.882 11.4543C10.859 13.152 11.8033 15.4671 11.8033 15.5443C11.9607 15.853 12.1967 16.0073 12.5115 16.0073H12.5902C12.6689 16.0073 14.4 15.7758 15.5803 14.6954L17.3902 15.6986C15.7377 19.48 16.2099 20.8691 19.9869 23.4157C20.1443 23.4929 20.3017 23.57 20.459 23.57C20.5377 23.57 20.6164 23.57 20.6951 23.57C20.9312 23.4929 21.0885 23.3385 21.1672 23.107L21.2459 22.8755C23.0558 18.7083 22.741 17.6279 19.1213 14.9269L18.8853 14.7726C18.8066 14.7726 18.8066 14.6954 18.7279 14.6954L16.5246 13.3835C17.0754 11.763 16.3672 9.91086 16.2885 9.83369C16.1312 9.52501 15.8164 9.2935 15.423 9.37067C15.3443 9.44784 12.8263 9.75652 11.882 11.4543ZM20.1443 21.6408C17.7836 19.943 17.6263 19.1713 18.8066 16.6247C21.1672 18.3996 21.3246 18.9398 20.1443 21.6408ZM13.2197 12.226C13.6131 11.6086 14.4 11.2228 15.0295 11.0684C15.1869 11.6858 15.2656 12.5347 14.8722 13.152C14.4787 13.7694 13.6918 14.1552 13.0623 14.3096C12.9049 13.7694 12.8262 12.9205 13.2197 12.226Z"
          fill="#028577"/>
    <path d="M31.7115 29.8206C31.4755 29.7434 31.2394 29.6662 31.0033 29.7434L30.846 29.8206C27.9345 30.9009 27.541 31.6726 27.9345 34.6823V34.8366C27.9345 35.0681 28.0919 35.2997 28.3279 35.3768C28.4853 35.454 28.564 35.454 28.7214 35.454C28.8001 35.454 28.8787 35.454 28.9574 35.3768C32.0263 34.2964 32.5771 33.3704 32.0263 30.2836C32.105 30.1292 31.9476 29.8977 31.7115 29.8206ZM29.5083 33.6791C29.3509 32.3672 29.5083 32.0585 30.7673 31.5183C30.9246 32.8302 30.6886 33.2161 29.5083 33.6791Z"
          fill="#028577"/>
    <path d="M34.1507 37.2297C33.9147 37.2297 33.6786 37.3069 33.5212 37.4612C33.3638 37.6156 33.2852 37.8471 33.2852 38.0786V38.233C33.5212 41.2426 34.072 41.86 37.1409 42.4002H37.2983C37.377 42.4002 37.377 42.4002 37.4556 42.4002C37.613 42.4002 37.8491 42.323 38.0065 42.2458C38.1638 42.0915 38.2425 41.86 38.2425 41.6285C38.0852 38.3873 37.377 37.6156 34.1507 37.2297ZM34.8589 38.8503C36.1179 39.0818 36.4327 39.3905 36.5114 40.7024C35.2524 40.4709 35.0163 40.2394 34.8589 38.8503Z"
          fill="#028577"/>
    <path d="M30.6097 42.5541C30.3737 42.3998 30.1376 42.3998 29.9802 42.477L29.8229 42.5541C26.9114 43.5573 26.4393 44.2519 26.6753 47.1072V47.2615C26.6753 47.493 26.8327 47.7246 26.9901 47.8017C27.1475 47.8789 27.3048 47.9561 27.4622 47.9561C27.5409 47.9561 27.6196 47.9561 27.6983 47.9561C30.8458 47.03 31.3966 46.1811 31.0032 43.0943C30.9245 42.94 30.8458 42.7085 30.6097 42.5541ZM28.1704 46.1811C28.0917 45.0236 28.2491 44.7149 29.5081 44.2519C29.5868 45.4094 29.3507 45.7953 28.1704 46.1811Z"
          fill="#028577"/>
</svg>
