<svg width="48" height="48" viewBox="0 0 48 48" fill="none" xmlns="http://www.w3.org/2000/svg">
    <path d="M23.324 38.6318C23.1113 38.5602 22.8986 38.5602 22.6859 38.6318L22.5441 38.7033C19.7791 39.9911 19.3537 40.7781 19.9918 43.783L20.0627 43.9261C20.1336 44.1407 20.2045 44.2838 20.4172 44.4269C20.4881 44.4985 20.6299 44.4985 20.7717 44.4985C20.8426 44.4985 20.9844 44.4985 21.0553 44.4269C24.033 43.1391 24.5293 42.209 23.7494 39.0611C23.6076 38.918 23.4658 38.7033 23.324 38.6318ZM21.1971 42.8529C20.9135 41.3505 21.0553 40.9928 22.4732 40.3489C22.7568 41.7798 22.5441 42.209 21.1971 42.8529Z"
          fill="#028577"/>
    <path d="M27.0108 41.279C26.869 41.4221 26.7272 41.5652 26.7272 41.7798C26.7272 41.9944 26.7981 42.2091 26.9399 42.3522L27.0817 42.4953C28.2869 43.64 29.0668 44.2123 29.9885 44.2123C30.7684 44.2123 31.5483 43.7831 32.7536 43.0676L32.8954 42.9961C33.1081 42.853 33.179 42.7099 33.2499 42.4953C33.3208 42.2806 33.179 42.066 33.0372 41.9229C30.6975 39.4904 29.634 39.4188 27.0108 41.279ZM28.4996 41.9229C29.7758 41.1359 30.2012 41.2075 31.2647 42.2091C29.9885 43.0676 29.634 42.9961 28.4996 41.9229Z"
          fill="#028577"/>
    <path d="M11.7675 38.7747C11.5548 38.7747 11.3421 38.8462 11.2004 38.9893C11.0586 39.1324 10.9877 39.347 10.9877 39.5617V39.7763C11.413 42.8527 11.9802 43.4251 15.0289 43.7828H15.2416H15.3125C15.5252 43.7828 15.667 43.7113 15.8088 43.5682C15.9506 43.4251 16.0215 43.2104 16.0215 42.9958C15.7379 39.7763 14.958 38.9893 11.7675 38.7747ZM12.4765 40.2771C13.9654 40.4202 14.3199 40.7779 14.4617 42.2804C12.9728 42.0657 12.7601 41.7795 12.4765 40.2771Z"
          fill="#028577"/>
    <path d="M36.5112 39.9917C36.2985 39.9917 36.0858 40.0632 35.944 40.2063C35.8022 40.3494 35.7313 40.5641 35.7313 40.7787V40.9933C36.1567 44.0698 36.7239 44.6421 39.7725 44.9998H39.9852H40.0561C40.2688 44.9998 40.4106 44.9283 40.5524 44.7852C40.6942 44.6421 40.7651 44.4275 40.7651 44.2129C40.4815 40.9933 39.7725 40.2063 36.5112 39.9917ZM37.2911 41.4941C38.7799 41.6372 39.1344 41.995 39.2762 43.4974C37.7874 43.2828 37.5038 43.0681 37.2911 41.4941Z"
          fill="#028577"/>
    <path d="M36.0858 37.2012C36.5112 37.2012 36.7948 36.915 36.7948 36.4857V2.21569C36.7948 1.78642 36.5112 1.50024 36.0858 1.50024H7.86809C7.4427 1.50024 7.1591 1.78642 7.1591 2.21569V36.4857C7.1591 36.915 7.4427 37.2012 7.86809 37.2012H24.6002C24.6002 37.7736 24.6711 38.4175 24.8838 39.2045V39.4191C24.9547 39.6337 25.0256 39.7768 25.2383 39.9199C25.3092 39.9914 25.451 39.9914 25.5928 39.9914C25.6637 39.9914 25.8055 39.9914 25.8764 39.9199C27.7906 39.1329 28.6414 38.4175 28.8541 37.2012H31.4065H31.4774C32.0446 37.702 32.9663 37.9166 34.3842 38.0597H34.5969H34.6678C34.8805 38.0597 35.0223 37.9882 35.1641 37.8451C35.3059 37.702 35.3768 37.4874 35.3768 37.2727C35.3768 37.2727 35.3768 37.2727 35.3768 37.2012H36.0858ZM26.16 38.2744C25.8764 36.7719 26.0182 36.4142 27.4362 35.7703C27.7197 37.2012 27.4362 37.6305 26.16 38.2744ZM27.4362 34.1248C26.2309 34.6971 25.451 35.1979 25.0256 35.7703H8.57708V2.93114H35.3768V35.7703H35.0932C34.6678 33.767 33.6752 33.1947 30.9811 33.0516C30.7684 33.0516 30.5557 33.1231 30.4139 33.2662C30.2721 33.4093 30.2012 33.6239 30.2012 33.8386V34.0532C30.2721 34.7687 30.4139 35.341 30.5557 35.7703H28.7832C28.7123 35.4126 28.6414 34.9833 28.5705 34.554C28.4996 34.3394 28.3578 34.1963 28.216 34.0532C28.0033 33.9817 27.7906 33.9817 27.578 34.0532L27.4362 34.1248ZM31.761 34.554C33.2499 34.6971 33.6043 35.0548 33.7461 36.5573C32.2573 36.3427 32.0446 36.128 31.761 34.554Z"
          fill="#028577"/>
    <path d="M27.8615 10.4435C27.8615 10.2289 27.7906 10.0142 27.6488 9.87113C27.507 9.72804 27.2944 9.65649 27.0817 9.65649H26.7981C23.8912 10.0142 22.615 10.4435 21.906 12.089C21.1971 10.515 19.9209 10.0142 17.014 9.65649H16.7304C16.5177 9.65649 16.305 9.72804 16.1632 9.87113C16.0214 10.0142 15.9505 10.2289 15.9505 10.4435C16.305 14.8077 17.1558 15.8809 21.1262 16.3102V18.9573C20.3463 18.1703 19.0701 17.8842 17.014 17.598H16.7304C16.5177 17.598 16.305 17.6695 16.1632 17.8126C16.0214 17.9557 15.9505 18.1703 15.9505 18.385C16.305 22.7492 17.1558 23.8224 21.1262 24.2517V29.7606C21.1262 30.1899 21.4098 30.4761 21.8351 30.4761C22.2605 30.4761 22.5441 30.1899 22.5441 29.7606V24.2517C26.5145 23.8224 27.3652 22.7492 27.7197 18.385C27.7197 18.1703 27.6488 17.9557 27.507 17.8126C27.3653 17.6695 27.1526 17.598 26.9399 17.598H26.6563C24.5293 17.8126 23.324 18.1703 22.4732 18.9573V16.3102C26.6563 15.8809 27.507 14.8077 27.8615 10.4435ZM17.5812 19.1004C20.4172 19.4582 20.8426 19.8874 21.1971 22.7492C18.432 22.3915 17.8648 21.8191 17.5812 19.1004ZM26.3727 19.1004C26.0891 21.8907 25.5219 22.463 22.7568 22.7492C23.1113 19.8159 23.5367 19.4582 26.3727 19.1004ZM26.3727 11.1589C26.0891 13.9492 25.5219 14.5216 22.7568 14.8077C23.1113 11.9459 23.5367 11.5882 26.3727 11.1589ZM17.5812 11.1589C20.4172 11.5167 20.8426 11.9459 21.1971 14.8077C18.432 14.5216 17.8648 13.9492 17.5812 11.1589Z"
          fill="#028577"/>
</svg>
