<svg width="24" height="24" viewBox="0 0 24 24" fill="none" xmlns="http://www.w3.org/2000/svg">
<path d="M21.8548 6.0963C21.8332 5.79412 21.5886 5.56389 21.2936 5.5495C21.1785 5.5495 18.4373 5.42 17.2502 5.5495C16.6818 5.61425 16.2285 5.86607 15.876 6.15386C15.876 6.15386 15.876 6.13947 15.8688 6.13947L14.5665 4.29042C14.4802 4.16811 14.3507 4.08177 14.2068 4.05299C10.1202 3.15365 7.67396 4.0386 7.57323 4.07458C7.45812 4.11774 7.35739 4.19689 7.28544 4.29761L6.04794 6.14667C6.04794 6.14667 6.03355 6.17544 6.02636 6.18983C5.66662 5.88765 5.20616 5.61425 4.61619 5.5495C3.42905 5.4128 0.687846 5.54231 0.565535 5.5495C0.263355 5.56389 0.0259279 5.80132 0.00434362 6.0963C0.00434362 6.14667 -0.0819934 7.36258 0.515172 8.64325C1.14831 10.0031 1.81742 10.6794 2.68079 10.8305C3.02614 10.888 3.96866 10.9024 4.8752 10.9024C5.4148 10.9024 5.94002 10.9024 6.31415 10.888L7.45812 18.6296C7.45812 18.6296 7.46531 18.6799 7.47251 18.7087C7.52287 18.8742 8.0337 20.3491 11.0555 20.3491C14.0773 20.3491 14.3579 18.8742 14.3651 18.7591L15.5019 10.8952C15.8832 10.8952 16.43 10.9096 16.9912 10.9096C17.8977 10.9096 18.8402 10.8952 19.1856 10.8376C20.0489 10.6866 20.7181 10.0174 21.3512 8.65044C21.9484 7.36978 21.862 6.15386 21.862 6.1035L21.8548 6.0963ZM7.12716 6.67188L8.15601 5.1394C8.73159 4.98111 10.7245 4.54223 13.7248 5.16818L14.7968 6.69347L14.8327 7.17552L13.66 15.2984C13.0772 15.0754 12.1851 14.8523 10.89 14.8523C9.59496 14.8523 8.73159 15.0682 8.15601 15.2912L7.08399 8.0245L7.11996 6.67188H7.12716ZM2.88225 9.6649C2.45776 9.59296 2.03327 9.09652 1.59439 8.154C1.34257 7.6144 1.24904 7.08918 1.21306 6.71505C2.08363 6.68627 3.70245 6.6431 4.48668 6.73664C5.17738 6.81578 5.63065 7.46331 5.76735 7.67196L6.12709 9.71527C4.85361 9.72966 3.25638 9.72966 2.88944 9.6649H2.88225ZM11.0555 19.1692C9.14169 19.1692 8.68122 18.5001 8.62367 18.3993L8.34307 16.5143C8.7172 16.3273 9.52301 16.0395 10.8972 16.0395C12.2714 16.0395 13.106 16.3344 13.4873 16.5215L13.1851 18.5936C13.1851 18.5936 12.9477 19.1764 11.0483 19.1764L11.0555 19.1692ZM20.2648 8.14681C19.8259 9.08932 19.4014 9.58576 18.9769 9.6649C18.6172 9.72966 17.0128 9.72966 15.7393 9.71527L16.099 7.67196C16.2357 7.45611 16.689 6.80858 17.3797 6.73664C18.1639 6.6503 19.7827 6.68627 20.6533 6.71505C20.6173 7.08918 20.5166 7.6144 20.272 8.14681H20.2648Z" fill="#FFCF54"/>
<path fill-rule="evenodd" clip-rule="evenodd" d="M20.7908 12.0752H18.7908V15.0752H15.7908V17.0752H18.7908V20.0752H20.7908V17.0752H23.7908V15.0752H20.7908V12.0752Z" fill="#FFCF54"/>
</svg>
