<svg width="19" height="22" viewBox="0 0 19 22" fill="none" xmlns="http://www.w3.org/2000/svg">
<path id="Union" fill-rule="evenodd" clip-rule="evenodd" d="M17.4819 8.92248L17.7428 9.08556H17.7265C18.2484 9.39542 18.9007 9.78681 18.7295 10.7898C18.6479 11.2627 18.3707 11.4747 18.2076 11.5562C17.8325 11.7438 17.4493 11.6459 17.278 11.5807L17.0905 11.5399V15.8127C17.0905 18.7644 13.7473 21.1699 9.63768 21.1699C5.52802 21.1699 2.18485 18.7644 2.18485 15.8127V11.5726C1.94838 11.6704 1.55699 11.7846 1.16559 11.6378C0.863893 11.5236 0.627425 11.279 0.513268 10.9365C0.15709 9.91658 1.02242 9.4029 1.54558 9.09234L1.55699 9.08556C1.64668 9.03664 1.73638 8.97956 1.82607 8.92248C2.31532 8.61263 2.55994 8.09077 2.46209 7.57706C2.42947 7.42213 2.42947 7.25905 2.42947 7.09597C2.4254 7.09189 2.41928 7.08782 2.41317 7.08374C2.40705 7.07966 2.40094 7.07559 2.39686 7.07151C2.30716 6.98181 0.407265 4.8536 1.80161 0.9478C1.94838 0.548251 2.33978 0.311783 2.77195 0.311783C3.20411 0.328091 3.57104 0.613484 3.67705 1.01303C3.94613 2.01598 4.59846 3.78542 5.91942 4.5519C6.48205 4.58452 7.03653 4.37251 7.35453 3.95665C7.8927 3.26356 8.72442 2.86401 9.65398 2.86401C10.5835 2.86401 11.4153 3.26356 11.9534 3.95665C12.2714 4.37251 12.8178 4.58452 13.3885 4.5519C14.7095 3.79357 15.3618 2.01598 15.6309 1.01303C15.7451 0.613484 16.1039 0.328091 16.536 0.311783C16.9682 0.311783 17.3677 0.548251 17.5064 0.9478C18.8925 4.86176 16.9926 6.98181 16.9111 7.07151C16.907 7.07559 16.9009 7.07966 16.8948 7.08374C16.8887 7.08782 16.8826 7.09189 16.8785 7.09597C16.8866 7.2509 16.8785 7.41398 16.8459 7.57706C16.7399 8.09077 16.9926 8.61263 17.4819 8.92248ZM16.4871 5.39177C16.748 4.70683 16.96 3.60603 16.5768 2.09752V2.08937C16.2996 2.90478 15.8837 3.77726 15.2884 4.50298C15.4678 4.56005 15.6472 4.64975 15.8185 4.76391C16.0957 4.95145 16.3159 5.17161 16.4871 5.39177ZM2.75342 2.11444C3.03852 2.92498 3.44475 3.79043 4.04398 4.51113C3.86459 4.56821 3.6852 4.6579 3.51397 4.77206C3.23673 4.9596 3.01657 5.17976 2.84533 5.39992C2.57677 4.71631 2.37319 3.61844 2.75342 2.11444ZM3.43243 15.8208C3.43243 18.0632 6.28635 19.9549 9.66214 19.9549V19.9468C13.0379 19.9468 15.8918 18.055 15.8918 15.8127V11.8009C15.6717 11.8498 15.4434 11.8824 15.1743 11.8824C14.946 11.8824 14.6932 11.8498 14.4323 11.8009V15.1359C14.4323 17.207 12.2959 18.8868 9.66214 18.8868C7.02837 18.8868 4.892 17.1989 4.892 15.1359V11.7601C4.33753 11.7438 3.80751 11.6052 3.43243 11.4829V15.8208ZM7.51762 10.6511C7.1833 10.9528 6.6859 11.3279 6.11511 11.5562V15.144C6.11511 16.5139 7.73778 17.6718 9.66214 17.6718C11.5865 17.6718 13.2092 16.5139 13.2092 15.144V11.385C12.7607 11.1485 12.4264 10.8876 12.2144 10.6593C11.5865 10.961 10.4857 11.4258 9.5806 11.4258C8.72442 11.4258 7.97424 10.9936 7.51762 10.6511ZM16.2669 10.3494C16.4137 10.2353 16.6176 10.1782 16.7969 10.219V10.1945L17.49 10.3494C17.4004 10.2842 17.2373 10.1864 17.115 10.113L16.8296 9.94174C15.9 9.3628 15.4352 8.33539 15.6391 7.32429C15.7451 6.78612 15.4678 6.39472 15.2966 6.21533C14.9134 5.82394 14.3507 5.6527 13.7718 5.7424C12.7118 5.91363 11.6191 5.49777 10.9913 4.69052C10.6896 4.30728 10.2085 4.07896 9.66214 4.07896C9.11581 4.07896 8.63472 4.29912 8.33302 4.69052C7.71331 5.50593 6.61251 5.91363 5.55248 5.7424C4.97355 5.6527 4.40276 5.82394 4.02767 6.21533C3.85644 6.39472 3.5792 6.78612 3.6852 7.32429C3.8809 8.33539 3.41612 9.3628 2.49471 9.94174C2.42294 9.98959 2.34679 10.033 2.27268 10.0753C2.24575 10.0907 2.21909 10.1059 2.19301 10.1211C2.15589 10.1446 2.11456 10.1699 2.07182 10.1961C1.93617 10.2792 1.78632 10.3709 1.71192 10.4391C1.74453 10.431 1.7853 10.4147 1.80976 10.3984C1.86684 10.3739 1.93208 10.3494 1.98915 10.3331L3.02472 10.113C3.14703 10.0885 3.2775 10.1048 3.39165 10.1537C3.73413 10.3005 4.76969 10.6511 5.43017 10.4881C6.09881 10.325 6.80006 9.6482 7.01206 9.40357C7.12622 9.27311 7.2893 9.19157 7.46054 9.19157C7.63177 9.19157 7.79485 9.2568 7.91716 9.37911L7.91739 9.37934C7.93469 9.3967 8.72138 10.1864 9.5806 10.1864C10.3878 10.1864 11.6762 9.56666 12.1002 9.33019C12.1899 9.28126 12.2877 9.2568 12.3938 9.2568C12.4524 9.2568 12.5044 9.26998 12.5618 9.28449C12.5682 9.28612 12.5747 9.28777 12.5813 9.28942C12.7444 9.34649 12.8748 9.46065 12.9482 9.61558C12.9487 9.61601 12.95 9.61815 12.9523 9.62187C12.9941 9.68843 13.3528 10.2603 14.4649 10.5615C15.6065 10.8713 16.2425 10.3739 16.2669 10.3494ZM8.08845 14.8916C8.33307 15.1607 8.56954 15.2993 8.72446 15.283H8.70816C8.87939 15.2586 9.05878 15.0058 9.05878 15.0058L9.36048 14.4676C8.21076 14.3208 7.31381 13.2934 7.31381 12.0377H8.53692C8.53692 12.7226 9.02617 13.2771 9.63772 13.2771C10.2493 13.2771 10.7385 12.7226 10.7385 12.0377H11.9616C11.9616 13.326 11.0158 14.3779 9.82526 14.4758L10.127 15.0058C10.1759 15.0873 10.3308 15.2667 10.4857 15.283C10.6407 15.3075 10.869 15.1526 11.1136 14.8916L11.5295 14.4432L12.4264 15.2749L12.0106 15.7233C11.5295 16.2452 11.0321 16.5061 10.5184 16.5061C10.4898 16.5061 10.4613 16.5041 10.4327 16.5021C10.4042 16.5 10.3757 16.498 10.3471 16.498C10.0454 16.4572 9.8008 16.3349 9.6051 16.1963C9.40941 16.3431 9.16478 16.4654 8.86308 16.498C8.2923 16.5551 7.72967 16.3023 7.1915 15.7233L6.77564 15.2749L7.67259 14.4432L8.08845 14.8916Z" fill="#FFF8E6"/>
</svg>
