<svg width="25" height="25" viewBox="0 0 25 25" fill="none" xmlns="http://www.w3.org/2000/svg">
<g id="Livestock-icon-btn-list">
<rect x="0.591797" y="0.740952" width="24" height="24" rx="4" fill="white" fill-opacity="0.2"/>
<path id="Vector" d="M9.10575 8.56024H9.60575C9.60575 8.37736 9.5059 8.20906 9.3454 8.12141L9.10575 8.56024ZM6.82146 5.10982L7.30348 4.97693L7.30327 4.97618L6.82146 5.10982ZM6.20563 5.09562L5.7355 4.9254L5.73493 4.92699L6.20563 5.09562ZM6.6138 9.88787L6.247 10.2277C6.3712 10.3617 6.55867 10.4174 6.73591 10.3727C6.91314 10.3281 7.0519 10.1903 7.09778 10.0134L6.6138 9.88787ZM9.10575 8.56734L8.94673 9.04138C9.09927 9.09255 9.26711 9.06719 9.39772 8.97324C9.52833 8.87929 9.60575 8.72823 9.60575 8.56734H9.10575ZM16.0732 8.56024L15.8336 8.12141C15.673 8.20906 15.5732 8.37736 15.5732 8.56024H16.0732ZM18.3575 5.10982L17.8757 4.97618L17.8755 4.97693L18.3575 5.10982ZM18.9733 5.09562L19.444 4.92698L19.4434 4.9254L18.9733 5.09562ZM18.5652 9.88787L18.0812 10.0134C18.1271 10.1903 18.2658 10.3281 18.443 10.3727C18.6203 10.4174 18.8077 10.3617 18.932 10.2277L18.5652 9.88787ZM16.0732 8.56734H15.5732C15.5732 8.72823 15.6506 8.87929 15.7812 8.97324C15.9118 9.06719 16.0797 9.09255 16.2322 9.04138L16.0732 8.56734ZM19.9973 13.7785H19.4973C19.4973 14.0486 19.7118 14.2698 19.9818 14.2782C20.2517 14.2866 20.4796 14.0791 20.4963 13.8095L19.9973 13.7785ZM19.1667 12.3088L18.9046 12.7347L18.9065 12.7358L19.1667 12.3088ZM18.3646 10.5836L18.8546 10.6835L18.855 10.6814L18.3646 10.5836ZM16.1162 8.57444L16.0368 8.08078L16.0362 8.08088L16.1162 8.57444ZM14.1827 7.85738L14.5778 7.55087L14.5763 7.54896L14.1827 7.85738ZM10.9962 7.85738L10.6026 7.54896L10.6012 7.55088L10.9962 7.85738ZM9.06279 8.57444L9.14278 8.08088L9.14174 8.08071L9.06279 8.57444ZM6.8143 10.5836L7.30422 10.4838L7.30408 10.4831L6.8143 10.5836ZM6.01229 12.3088L5.75024 11.883L5.74942 11.8835L6.01229 12.3088ZM5.18164 13.7785H4.68164C4.68164 13.9291 4.74956 14.0717 4.86652 14.1667C4.98347 14.2616 5.137 14.2988 5.28442 14.2678L5.18164 13.7785ZM6.87159 13.4235L6.99188 12.9382C6.91877 12.92 6.84251 12.9187 6.7688 12.9342L6.87159 13.4235ZM10.674 12.6283L10.9241 12.1954C10.7515 12.0957 10.5362 12.108 10.3761 12.2267L10.674 12.6283ZM14.9919 12.678L15.3228 12.3032C15.1737 12.1715 14.9607 12.1408 14.7804 12.225L14.9919 12.678ZM18.7442 13.4945L18.852 13.0063C18.7288 12.979 18.5997 12.9994 18.4909 13.0634L18.7442 13.4945ZM19.9973 13.7714H20.4973C20.4973 13.5368 20.3342 13.3337 20.1052 13.2831L19.9973 13.7714ZM9.3454 8.12141C8.78434 7.81502 8.34483 7.30177 8.00498 6.71088C7.66625 6.12193 7.44369 5.48553 7.30348 4.97693L6.33944 5.24271C6.49282 5.79906 6.74288 6.52224 7.13813 7.20944C7.53225 7.8947 8.0881 8.5742 8.86611 8.99907L9.3454 8.12141ZM7.30327 4.97618C7.19099 4.57139 6.82765 4.39848 6.53172 4.3925C6.23746 4.38654 5.87467 4.54101 5.7355 4.9254L6.67577 5.26584C6.63684 5.37334 6.54259 5.39292 6.51149 5.39229C6.49121 5.39188 6.46031 5.38626 6.42585 5.36293C6.38681 5.33651 6.3535 5.29341 6.33965 5.24346L7.30327 4.97618ZM5.73493 4.92699C5.13635 6.59777 5.23627 7.90548 5.50935 8.81263C5.6448 9.26261 5.8207 9.60707 5.96655 9.84315C6.03949 9.96121 6.10505 10.0524 6.15457 10.1165C6.17934 10.1485 6.20014 10.1738 6.21589 10.1923C6.22376 10.2016 6.23038 10.2092 6.23561 10.2151C6.23822 10.218 6.24049 10.2205 6.24239 10.2226C6.24335 10.2237 6.24421 10.2246 6.24497 10.2255C6.24536 10.2259 6.24572 10.2263 6.24606 10.2266C6.24623 10.2268 6.24646 10.2271 6.24655 10.2272C6.24677 10.2274 6.247 10.2277 6.6138 9.88787C6.9806 9.54808 6.98081 9.54831 6.98102 9.54853C6.98108 9.54859 6.98128 9.54881 6.9814 9.54894C6.98164 9.54921 6.98186 9.54945 6.98206 9.54967C6.98246 9.5501 6.98277 9.55044 6.98299 9.55068C6.98343 9.55117 6.98351 9.55127 6.98326 9.55098C6.98276 9.55042 6.98091 9.54832 6.97784 9.54471C6.97169 9.53747 6.96066 9.52417 6.94572 9.50485C6.91583 9.46618 6.87046 9.40363 6.8173 9.31758C6.71095 9.14544 6.57402 8.88021 6.4669 8.52438C6.25484 7.81992 6.15067 6.73151 6.67634 5.26426L5.73493 4.92699ZM6.6138 9.88787C7.09778 10.0134 7.09774 10.0136 7.0977 10.0137C7.09769 10.0138 7.09765 10.0139 7.09762 10.014C7.09757 10.0142 7.09752 10.0144 7.09747 10.0146C7.09738 10.0149 7.0973 10.0153 7.09723 10.0155C7.09708 10.0161 7.09698 10.0164 7.09693 10.0166C7.09682 10.017 7.09689 10.0168 7.09714 10.0159C7.09765 10.0141 7.09889 10.0098 7.10093 10.0033C7.10501 9.9901 7.11223 9.96804 7.12306 9.93897C7.14484 9.88051 7.18047 9.79574 7.23331 9.69911C7.34046 9.50314 7.50808 9.27696 7.75698 9.11158L7.20353 8.27869C6.77931 8.56058 6.5137 8.93077 6.35591 9.21935C6.27627 9.36499 6.22149 9.49455 6.18599 9.58983C6.16818 9.63764 6.15503 9.67731 6.14592 9.70668C6.14135 9.72137 6.13778 9.73353 6.13513 9.74289C6.1338 9.74757 6.1327 9.75155 6.13182 9.7548C6.13138 9.75643 6.13099 9.75787 6.13065 9.75913C6.13049 9.75976 6.13033 9.76034 6.13019 9.76088C6.13012 9.76114 6.13006 9.7614 6.12999 9.76164C6.12996 9.76177 6.12992 9.76194 6.1299 9.762C6.12985 9.76217 6.12981 9.76234 6.6138 9.88787ZM7.75698 9.11158C7.96003 8.97665 8.23516 8.94182 8.50834 8.96213C8.63856 8.97181 8.753 8.99297 8.83431 9.01168C8.87459 9.02094 8.90572 9.02937 8.9254 9.03503C8.93522 9.03785 8.94211 9.03996 8.94578 9.04111C8.94761 9.04168 8.94863 9.04201 8.94881 9.04207C8.94889 9.04209 8.94877 9.04205 8.94842 9.04194C8.94825 9.04188 8.94802 9.04181 8.94774 9.04171C8.9476 9.04167 8.94745 9.04162 8.94728 9.04156C8.9472 9.04153 8.94706 9.04149 8.94702 9.04147C8.94688 9.04143 8.94673 9.04138 9.10575 8.56734C9.26477 8.0933 9.26462 8.09325 9.26447 8.0932C9.26441 8.09318 9.26425 8.09313 9.26414 8.09309C9.26391 8.09301 9.26367 8.09293 9.26341 8.09285C9.2629 8.09268 9.26233 8.09249 9.2617 8.09228C9.26043 8.09186 9.25893 8.09137 9.25719 8.0908C9.25372 8.08968 9.24931 8.08827 9.244 8.08661C9.23339 8.0833 9.21916 8.07898 9.20162 8.07394C9.1666 8.06387 9.11806 8.05083 9.05854 8.03714C8.94025 8.00992 8.77452 7.97916 8.5825 7.96488C8.21121 7.93727 7.67359 7.96634 7.20353 8.27869L7.75698 9.11158ZM9.60575 8.56734V8.56024H8.60575V8.56734H9.60575ZM16.3128 8.99907C17.0909 8.5742 17.6467 7.8947 18.0408 7.20944C18.4361 6.52224 18.6861 5.79906 18.8395 5.24271L17.8755 4.97693C17.7353 5.48553 17.5127 6.12193 17.174 6.71088C16.8341 7.30177 16.3946 7.81502 15.8336 8.12141L16.3128 8.99907ZM18.8393 5.24346C18.8254 5.29341 18.7921 5.33651 18.7531 5.36293C18.7186 5.38626 18.6877 5.39188 18.6675 5.39229C18.6364 5.39292 18.5421 5.37334 18.5032 5.26584L19.4434 4.9254C19.3043 4.54101 18.9415 4.38654 18.6472 4.3925C18.3513 4.39848 17.988 4.57139 17.8757 4.97618L18.8393 5.24346ZM18.5026 5.26426C19.0283 6.73151 18.9241 7.81992 18.712 8.52438C18.6049 8.88021 18.468 9.14544 18.3617 9.31758C18.3085 9.40363 18.2631 9.46618 18.2332 9.50485C18.2183 9.52417 18.2073 9.53747 18.2011 9.54471C18.198 9.54832 18.1962 9.55042 18.1957 9.55098C18.1954 9.55127 18.1955 9.55117 18.196 9.55068C18.1962 9.55044 18.1965 9.5501 18.1969 9.54967C18.1971 9.54945 18.1973 9.54921 18.1976 9.54894C18.1977 9.54881 18.1979 9.54859 18.1979 9.54853C18.1981 9.54831 18.1984 9.54808 18.5652 9.88787C18.932 10.2277 18.9322 10.2274 18.9324 10.2272C18.9325 10.2271 18.9327 10.2268 18.9329 10.2266C18.9332 10.2263 18.9336 10.2259 18.934 10.2255C18.9347 10.2246 18.9356 10.2237 18.9366 10.2226C18.9385 10.2205 18.9407 10.218 18.9433 10.2151C18.9486 10.2092 18.9552 10.2016 18.9631 10.1923C18.9788 10.1738 18.9996 10.1485 19.0244 10.1165C19.0739 10.0524 19.1395 9.96121 19.2124 9.84315C19.3582 9.60707 19.5341 9.26261 19.6696 8.81263C19.9427 7.90548 20.0426 6.59777 19.444 4.92699L18.5026 5.26426ZM18.5652 9.88787C19.0491 9.76234 19.0491 9.76217 19.0491 9.762C19.049 9.76194 19.049 9.76177 19.049 9.76164C19.0489 9.7614 19.0488 9.76114 19.0488 9.76088C19.0486 9.76034 19.0485 9.75976 19.0483 9.75913C19.048 9.75787 19.0476 9.75643 19.0471 9.7548C19.0463 9.75155 19.0452 9.74757 19.0438 9.74289C19.0412 9.73353 19.0376 9.72137 19.033 9.70668C19.0239 9.67731 19.0108 9.63764 18.993 9.58983C18.9575 9.49455 18.9027 9.36499 18.823 9.21935C18.6652 8.93076 18.3996 8.56058 17.9754 8.27869L17.422 9.11158C17.6709 9.27696 17.8385 9.50314 17.9456 9.69911C17.9985 9.79574 18.0341 9.88051 18.0559 9.93897C18.0667 9.96804 18.0739 9.9901 18.078 10.0033C18.0801 10.0098 18.0813 10.0141 18.0818 10.0159C18.0821 10.0168 18.0821 10.017 18.082 10.0166C18.082 10.0164 18.0819 10.0161 18.0817 10.0155C18.0817 10.0153 18.0816 10.0149 18.0815 10.0146C18.0814 10.0144 18.0814 10.0142 18.0813 10.014C18.0813 10.0139 18.0813 10.0138 18.0812 10.0137C18.0812 10.0136 18.0812 10.0134 18.5652 9.88787ZM17.9754 8.27869C17.5054 7.96634 16.9677 7.93727 16.5965 7.96488C16.4044 7.97916 16.2387 8.00992 16.1204 8.03714C16.0609 8.05083 16.0124 8.06387 15.9773 8.07394C15.9598 8.07898 15.9456 8.0833 15.9349 8.08661C15.9296 8.08827 15.9252 8.08968 15.9218 8.0908C15.92 8.09137 15.9185 8.09186 15.9173 8.09228C15.9166 8.09249 15.916 8.09268 15.9155 8.09285C15.9153 8.09293 15.915 8.09301 15.9148 8.09309C15.9147 8.09313 15.9145 8.09318 15.9145 8.0932C15.9143 8.09325 15.9142 8.0933 16.0732 8.56734C16.2322 9.04138 16.2321 9.04143 16.2319 9.04147C16.2319 9.04149 16.2318 9.04153 16.2317 9.04156C16.2315 9.04162 16.2313 9.04167 16.2312 9.04171C16.2309 9.04181 16.2307 9.04188 16.2305 9.04194C16.2302 9.04205 16.2301 9.04209 16.2301 9.04207C16.2303 9.04201 16.2313 9.04168 16.2332 9.04111C16.2368 9.03996 16.2437 9.03785 16.2535 9.03503C16.2732 9.02937 16.3044 9.02094 16.3446 9.01168C16.426 8.99297 16.5404 8.97181 16.6706 8.96213C16.9438 8.94182 17.2189 8.97665 17.422 9.11158L17.9754 8.27869ZM16.5732 8.56734V8.56024H15.5732V8.56734H16.5732ZM15.7451 13.317V17.2715H16.7451V13.317H15.7451ZM15.7451 17.2715C15.7451 17.8294 15.4406 18.3767 14.8716 18.8021C14.303 19.2272 13.4972 19.5048 12.5931 19.5048V20.5048C13.694 20.5048 14.7142 20.1683 15.4703 19.603C16.2261 19.038 16.7451 18.2187 16.7451 17.2715H15.7451ZM12.5931 19.5048C11.6851 19.5048 10.8795 19.2271 10.3121 18.8023C9.74451 18.3774 9.44105 17.8302 9.44105 17.2715H8.44105C8.44105 18.2179 8.9575 19.0374 9.71284 19.6028C10.4684 20.1685 11.4889 20.5048 12.5931 20.5048V19.5048ZM9.44105 17.2715V13.5016H8.44105V17.2715H9.44105ZM13.5968 14.5736C13.5968 15.2187 13.115 15.6852 12.5931 15.6852V16.6852C13.7324 16.6852 14.5968 15.7035 14.5968 14.5736H13.5968ZM12.5931 15.6852C12.0698 15.6852 11.5893 15.2243 11.5893 14.5736H10.5893C10.5893 15.712 11.4551 16.6852 12.5931 16.6852V15.6852ZM12.0931 16.1852L12.0931 17.5981H13.0931L13.0931 16.1852H12.0931ZM12.5931 17.5981C12.1592 17.3495 12.1593 17.3493 12.1595 17.3491C12.1595 17.349 12.1596 17.3488 12.1597 17.3486C12.1599 17.3483 12.16 17.3481 12.1602 17.3478C12.1605 17.3473 12.1607 17.3469 12.161 17.3465C12.1614 17.3457 12.1617 17.3452 12.1619 17.3449C12.1622 17.3443 12.162 17.3447 12.1613 17.3458C12.1598 17.3482 12.1563 17.3538 12.1508 17.3618C12.1396 17.378 12.1213 17.4029 12.0968 17.431C12.0447 17.4907 11.9807 17.5464 11.9131 17.579C11.8547 17.6071 11.7928 17.6197 11.7104 17.5987C11.619 17.5755 11.4572 17.4987 11.2339 17.258L10.5007 17.9381C10.8109 18.2724 11.1315 18.4833 11.4637 18.5678C11.8049 18.6547 12.1078 18.5954 12.3475 18.4797C12.578 18.3685 12.7453 18.2086 12.8501 18.0886C12.904 18.0269 12.9456 17.9708 12.9745 17.9287C12.9891 17.9075 13.0008 17.8895 13.0095 17.8756C13.0138 17.8686 13.0175 17.8626 13.0204 17.8577C13.0218 17.8553 13.0231 17.8532 13.0242 17.8513C13.0247 17.8504 13.0252 17.8495 13.0257 17.8487C13.0259 17.8483 13.0261 17.8479 13.0263 17.8476C13.0264 17.8474 13.0266 17.8472 13.0266 17.8471C13.0268 17.8468 13.0269 17.8466 12.5931 17.5981ZM12.5931 17.5981C12.1592 17.8466 12.1593 17.8468 12.1595 17.8471C12.1595 17.8472 12.1597 17.8474 12.1598 17.8476C12.16 17.8479 12.1602 17.8483 12.1604 17.8487C12.1609 17.8495 12.1614 17.8504 12.1619 17.8513C12.163 17.8532 12.1643 17.8553 12.1657 17.8577C12.1686 17.8626 12.1723 17.8686 12.1766 17.8756C12.1853 17.8895 12.197 17.9075 12.2116 17.9287C12.2406 17.9708 12.2821 18.0269 12.336 18.0886C12.4408 18.2086 12.6081 18.3685 12.8386 18.4797C13.0783 18.5954 13.3812 18.6547 13.7224 18.5678C14.0546 18.4833 14.3752 18.2724 14.6854 17.9381L13.9522 17.258C13.7289 17.4987 13.5671 17.5755 13.4757 17.5987C13.3933 17.6197 13.3314 17.6071 13.273 17.579C13.2054 17.5464 13.1414 17.4907 13.0893 17.431C13.0648 17.4029 13.0465 17.378 13.0353 17.3618C13.0298 17.3538 13.0263 17.3482 13.0248 17.3458C13.0241 17.3447 13.0239 17.3443 13.0242 17.3449C13.0244 17.3452 13.0247 17.3457 13.0252 17.3465C13.0254 17.3469 13.0256 17.3473 13.0259 17.3478C13.0261 17.3481 13.0262 17.3483 13.0264 17.3486C13.0265 17.3488 13.0266 17.349 13.0267 17.3491C13.0268 17.3493 13.0269 17.3495 12.5931 17.5981ZM18.101 13.5868V17.8607H19.101V13.5868H18.101ZM18.101 17.8607C18.101 18.7832 17.5513 19.6794 16.5516 20.3667C15.555 21.0519 14.1545 21.4927 12.5931 21.4927V22.4927C14.3327 22.4927 15.9361 22.0035 17.1182 21.1907C18.2972 20.38 19.101 19.2102 19.101 17.8607H18.101ZM12.5931 21.4927C11.0279 21.4927 9.62744 21.0518 8.63195 20.3668C7.63357 19.6798 7.08516 18.7837 7.08516 17.8607H6.08516C6.08516 19.2097 6.88655 20.3796 8.06505 21.1906C9.24644 22.0036 10.85 22.4927 12.5931 22.4927V21.4927ZM7.08516 17.8607V13.5016H6.08516V17.8607H7.08516ZM20.4963 13.8095C20.5448 13.0319 20.1642 12.3311 19.4268 11.8818L18.9065 12.7358C19.3578 13.0108 19.5215 13.3748 19.4983 13.7474L20.4963 13.8095ZM19.4287 11.883C18.9657 11.5981 18.7647 11.1243 18.8546 10.6835L17.8747 10.4838C17.6925 11.3777 18.1217 12.2529 18.9046 12.7347L19.4287 11.883ZM18.855 10.6814C19.1761 9.0705 17.6172 7.82668 16.0368 8.08078L16.1955 9.0681C17.2646 8.89622 18.0258 9.72548 17.8743 10.4859L18.855 10.6814ZM16.0362 8.08088C15.4572 8.17471 14.8863 7.9485 14.5778 7.55088L13.7877 8.16387C14.3385 8.87379 15.2857 9.21555 16.1962 9.068L16.0362 8.08088ZM14.5763 7.54896C13.6027 6.30667 11.5762 6.30667 10.6027 7.54896L11.3897 8.16579C11.9629 7.43439 13.216 7.43439 13.7892 8.16579L14.5763 7.54896ZM10.6012 7.55088C10.2927 7.9485 9.72177 8.17471 9.14278 8.08088L8.9828 9.068C9.89325 9.21555 10.8404 8.87379 11.3912 8.16387L10.6012 7.55088ZM9.14174 8.08071C7.55742 7.82736 5.99282 9.0689 6.32452 10.6842L7.30408 10.4831C7.14884 9.72709 7.90434 8.89554 8.98383 9.06816L9.14174 8.08071ZM6.32438 10.6835C6.41425 11.1243 6.21327 11.5981 5.75024 11.883L6.27434 12.7347C7.05729 12.2529 7.48646 11.3777 7.30422 10.4838L6.32438 10.6835ZM5.74942 11.8835C5.04064 12.3216 4.68164 13.0848 4.68164 13.7785H5.68164C5.68164 13.4072 5.88118 12.9777 6.27516 12.7342L5.74942 11.8835ZM5.28442 14.2678L6.97437 13.9128L6.7688 12.9342L5.07886 13.2891L5.28442 14.2678ZM6.87159 13.4235C6.75129 13.9088 6.75138 13.9088 6.75148 13.9088C6.75151 13.9089 6.75161 13.9089 6.75169 13.9089C6.75183 13.9089 6.752 13.909 6.75218 13.909C6.75255 13.9091 6.75299 13.9092 6.75349 13.9093C6.75451 13.9096 6.7558 13.9099 6.75737 13.9103C6.7605 13.911 6.76473 13.9121 6.77002 13.9133C6.78059 13.9158 6.79538 13.9192 6.81406 13.9234C6.85139 13.9317 6.90436 13.9429 6.97017 13.9556C7.10146 13.9808 7.28563 14.0118 7.49996 14.0358C7.91842 14.0825 8.49444 14.1072 9.02188 13.9807L8.78862 13.0083C8.42812 13.0947 7.98731 13.084 7.61092 13.0419C7.42783 13.0215 7.27007 12.9949 7.15879 12.9735C7.10332 12.9628 7.05984 12.9536 7.03104 12.9472C7.01666 12.944 7.00597 12.9415 6.99932 12.9399C6.996 12.9392 6.99369 12.9386 6.99243 12.9383C6.99181 12.9381 6.99144 12.9381 6.99135 12.938C6.9913 12.938 6.99132 12.938 6.99141 12.9381C6.99145 12.9381 6.99151 12.9381 6.99159 12.9381C6.99163 12.9381 6.9917 12.9381 6.99172 12.9381C6.9918 12.9381 6.99188 12.9382 6.87159 13.4235ZM9.02188 13.9807C9.53282 13.8581 10.0226 13.6153 10.3713 13.4153C10.5488 13.3135 10.6965 13.2189 10.8006 13.1492C10.8528 13.1143 10.8942 13.0855 10.9233 13.0649C10.9378 13.0546 10.9493 13.0464 10.9574 13.0405C10.9615 13.0375 10.9647 13.0351 10.9672 13.0334C10.9684 13.0325 10.9693 13.0318 10.9701 13.0312C10.9705 13.0309 10.9708 13.0306 10.9711 13.0304C10.9713 13.0303 10.9714 13.0302 10.9715 13.0302C10.9716 13.0301 10.9716 13.0301 10.9717 13.03C10.9717 13.03 10.9718 13.0299 10.674 12.6283C10.3761 12.2267 10.3762 12.2267 10.3763 12.2266C10.3763 12.2266 10.3763 12.2266 10.3763 12.2265C10.3764 12.2265 10.3765 12.2265 10.3765 12.2264C10.3766 12.2264 10.3766 12.2264 10.3765 12.2264C10.3764 12.2265 10.3762 12.2267 10.3757 12.227C10.3747 12.2278 10.3729 12.2291 10.3703 12.231C10.3651 12.2347 10.3568 12.2407 10.3455 12.2487C10.3229 12.2647 10.2886 12.2886 10.2443 12.3182C10.1555 12.3777 10.0276 12.4596 9.87386 12.5478C9.56023 12.7276 9.16561 12.9178 8.78862 13.0083L9.02188 13.9807ZM10.674 12.6283C10.4238 13.0613 10.4239 13.0613 10.424 13.0614C10.424 13.0614 10.4241 13.0614 10.4242 13.0615C10.4244 13.0616 10.4245 13.0617 10.4247 13.0618C10.4251 13.062 10.4255 13.0622 10.426 13.0625C10.427 13.0631 10.4282 13.0638 10.4297 13.0646C10.4328 13.0664 10.4368 13.0687 10.4419 13.0715C10.452 13.0772 10.4662 13.085 10.4842 13.0948C10.52 13.1142 10.571 13.1411 10.6348 13.1731C10.7621 13.2368 10.9422 13.3212 11.1563 13.4058C11.5754 13.5712 12.1646 13.7531 12.7578 13.7531V12.7531C12.3484 12.7531 11.8957 12.6226 11.5235 12.4756C11.342 12.404 11.1891 12.3322 11.0824 12.2788C11.0291 12.2522 10.9878 12.2303 10.9606 12.2156C10.947 12.2082 10.937 12.2026 10.9308 12.1992C10.9277 12.1974 10.9256 12.1962 10.9245 12.1956C10.9239 12.1953 10.9236 12.1951 10.9235 12.1951C10.9235 12.195 10.9235 12.1951 10.9236 12.1951C10.9237 12.1951 10.9237 12.1952 10.9238 12.1952C10.9239 12.1953 10.9239 12.1953 10.924 12.1953C10.924 12.1953 10.9241 12.1954 10.674 12.6283ZM12.7578 13.7531C13.3396 13.7531 13.9587 13.5893 14.4083 13.4401C14.6381 13.3638 14.8345 13.2876 14.9739 13.2303C15.0438 13.2016 15.0997 13.1775 15.1389 13.1602C15.1585 13.1515 15.1739 13.1446 15.1848 13.1397C15.1902 13.1372 15.1945 13.1352 15.1976 13.1338C15.1992 13.133 15.2005 13.1325 15.2014 13.132C15.2019 13.1318 15.2023 13.1316 15.2027 13.1314C15.2028 13.1314 15.203 13.1313 15.2031 13.1312C15.2032 13.1312 15.2033 13.1312 15.2033 13.1311C15.2034 13.1311 15.2035 13.1311 14.9919 12.678C14.7804 12.225 14.7805 12.2249 14.7805 12.2249C14.7805 12.2249 14.7806 12.2249 14.7806 12.2249C14.7807 12.2248 14.7807 12.2248 14.7807 12.2248C14.7808 12.2248 14.7807 12.2248 14.7806 12.2249C14.7804 12.225 14.7799 12.2252 14.7791 12.2256C14.7775 12.2263 14.7748 12.2276 14.7709 12.2293C14.7633 12.2328 14.7512 12.2382 14.7352 12.2453C14.7031 12.2595 14.655 12.2802 14.5937 12.3054C14.4708 12.3559 14.2966 12.4235 14.0933 12.491C13.6764 12.6294 13.1784 12.7531 12.7578 12.7531V13.7531ZM14.9919 12.678C14.661 13.0529 14.6612 13.053 14.6613 13.0531C14.6614 13.0532 14.6616 13.0533 14.6617 13.0534C14.6619 13.0537 14.6622 13.0539 14.6624 13.0541C14.6629 13.0545 14.6634 13.055 14.664 13.0555C14.6651 13.0565 14.6664 13.0575 14.6678 13.0587C14.6706 13.0611 14.6739 13.064 14.6778 13.0672C14.6855 13.0736 14.6954 13.0817 14.7076 13.0913C14.7319 13.1105 14.7652 13.1356 14.8079 13.1654C14.8935 13.2252 15.017 13.3041 15.1826 13.3929C15.5141 13.5707 16.0128 13.7873 16.7124 13.971L16.9664 13.0038C16.3413 12.8396 15.9162 12.6515 15.6551 12.5116C15.5245 12.4415 15.4345 12.3833 15.3807 12.3457C15.3537 12.3269 15.3358 12.3132 15.3264 12.3058C15.3216 12.302 15.319 12.2999 15.3185 12.2994C15.3182 12.2992 15.3184 12.2993 15.3191 12.3C15.3195 12.3003 15.32 12.3007 15.3206 12.3012C15.3209 12.3015 15.3213 12.3018 15.3216 12.3021C15.3218 12.3023 15.322 12.3025 15.3222 12.3026C15.3223 12.3027 15.3225 12.3029 15.3225 12.3029C15.3227 12.303 15.3228 12.3032 14.9919 12.678ZM16.7124 13.971C17.432 14.16 17.9741 14.1681 18.3551 14.1169C18.545 14.0914 18.6924 14.0515 18.7993 14.0138C18.8527 13.9949 18.8957 13.9767 18.9287 13.9613C18.9452 13.9535 18.9591 13.9465 18.9706 13.9405C18.9763 13.9375 18.9814 13.9347 18.9859 13.9322C18.9881 13.9309 18.9902 13.9298 18.9921 13.9287C18.9931 13.9281 18.994 13.9276 18.9949 13.9271C18.9954 13.9268 18.9958 13.9266 18.9962 13.9263C18.9964 13.9262 18.9967 13.926 18.9968 13.9259C18.9972 13.9258 18.9975 13.9256 18.7442 13.4945C18.4909 13.0634 18.4912 13.0632 18.4915 13.063C18.4916 13.063 18.4919 13.0628 18.4921 13.0627C18.4925 13.0625 18.4928 13.0622 18.4932 13.062C18.494 13.0616 18.4947 13.0612 18.4954 13.0608C18.4967 13.06 18.498 13.0593 18.4991 13.0587C18.5013 13.0575 18.5029 13.0566 18.5041 13.056C18.5064 13.0547 18.5066 13.0547 18.5046 13.0556C18.5007 13.0575 18.4881 13.0632 18.4663 13.0708C18.4231 13.0861 18.3427 13.1096 18.222 13.1258C17.9819 13.1581 17.5715 13.1627 16.9664 13.0038L16.7124 13.971ZM18.6363 13.9827L19.8894 14.2596L20.1052 13.2831L18.852 13.0063L18.6363 13.9827ZM19.4973 13.7714V13.7785H20.4973V13.7714H19.4973Z" fill="#325442"/>
</g>
</svg>
