<svg width="50" height="49" viewBox="0 0 50 49" fill="none" xmlns="http://www.w3.org/2000/svg">
<g id="Layer_1">
<path id="Vector" d="M27.6252 28.3884H25.3846C23.8125 28.3884 22.2224 28.3884 20.6503 28.3884C18.4277 28.3884 16.2232 28.3884 14.0006 28.4245C12.9525 28.4245 12.3743 28.1535 11.9226 27.4307C10.9287 25.8948 9.48313 25.0093 7.65807 24.7744C7.49545 24.7564 7.35089 24.7383 7.20633 24.7383C6.82686 24.7383 6.57388 24.8286 6.39319 25.0274C6.19442 25.2623 6.12214 25.6056 6.15828 26.0935C6.24863 26.9067 6.37512 27.8644 6.863 28.7317C7.24247 29.4184 7.29668 30.2134 6.98949 30.9362C6.6823 31.659 6.086 32.1831 5.32706 32.3818C4.06218 32.7252 3.33938 33.5202 3.2671 34.6948C3.19482 35.8874 3.79113 36.7728 4.98374 37.2607C5.3632 37.4052 5.74267 37.5679 6.10407 37.7486C6.62809 37.9835 7.18826 38.2184 7.74842 38.4352C8.20017 38.5978 8.32666 38.7966 8.30859 39.2484C8.25438 40.6759 8.27245 42.0853 8.30859 43.5309C8.32666 45.1391 9.24822 46.1872 10.6396 46.1872C11.0191 46.1872 11.4347 46.0968 11.8503 45.9523C11.9948 45.8981 12.1033 45.88 12.1936 45.88C12.284 45.88 12.3743 45.8981 12.5008 45.9523C12.9525 46.1149 13.3862 46.2053 13.7657 46.2053C15.139 46.2053 16.0063 45.1753 16.0606 43.4767C16.0606 43.1876 16.0606 42.8985 16.0606 42.6094C16.0244 41.995 16.0063 41.4167 16.187 40.8566C17.723 41.5794 19.2951 41.9408 20.831 41.9408C22.1682 41.9408 23.5415 41.6697 24.9328 41.1276C24.9328 41.3445 24.9328 41.5432 24.9328 41.7601C24.9328 42.4648 24.9328 43.1334 24.9328 43.7839C24.9871 45.2476 25.9628 46.2595 27.3 46.2595C27.6433 46.2595 27.9866 46.1872 28.33 46.0607L28.4565 46.0065C28.601 45.9523 28.7094 45.8981 28.8359 45.8981C28.9082 45.8981 28.9805 45.8981 29.0708 45.9523C29.5407 46.133 29.9924 46.2233 30.408 46.2233C31.7994 46.2233 32.6487 45.1753 32.6487 43.4225C32.6487 40.1157 32.6487 36.8089 32.6487 33.5022C32.6487 30.2496 30.8417 28.4607 27.6072 28.4607L27.6252 28.3884ZM27.7517 30.0689C27.5349 30.0689 27.3181 30.0689 27.1012 30.0689C25.0774 30.0689 23.0355 30.0689 21.0117 30.0508C23.2523 30.0508 25.5111 30.0689 27.7517 30.0689ZM20.6684 28.6414C20.6684 28.6414 20.7406 28.6414 20.7948 28.6414C18.5361 28.6414 16.2774 28.6414 14.0367 28.6775C16.2593 28.6594 18.4638 28.6414 20.6864 28.6414H20.6684ZM14.5969 30.1231C14.4885 30.1231 14.3801 30.1231 14.2897 30.1231C14.2174 30.1231 14.1632 30.1231 14.0909 30.1231C14.2536 30.1231 14.4162 30.1231 14.5969 30.1231ZM6.64616 27.3765C6.75458 27.7921 6.89914 28.2077 7.11598 28.6052C6.89914 28.2077 6.75458 27.8102 6.64616 27.3765ZM7.15212 25.0093C7.15212 25.0093 7.18826 25.0093 7.20633 25.0093C7.33282 25.0093 7.47738 25.0093 7.62193 25.0455C7.44124 25.0274 7.29668 25.0093 7.15212 25.0274V25.0093ZM10.6577 45.9161H10.6215C10.7299 45.9161 10.8564 45.9161 10.9829 45.8981C10.8745 45.8981 10.7661 45.9342 10.6757 45.9342L10.6577 45.9161ZM11.9587 37.2968C11.9587 37.2968 12.1033 37.2426 12.2297 37.2426C12.2297 37.2426 12.2659 37.2426 12.284 37.2426C12.1394 37.2426 12.0671 37.2788 11.9768 37.2968H11.9587ZM13.8018 45.9161C13.6934 45.9161 13.585 45.8981 13.4766 45.88C13.6031 45.88 13.7295 45.9161 13.856 45.9161C13.856 45.9161 13.838 45.9161 13.8199 45.9161H13.8018ZM15.2655 39.0857C15.663 38.4172 15.7895 37.7124 15.8076 36.9896C15.7895 37.7305 15.6449 38.4352 15.2655 39.0857ZM15.8256 43.4406C15.8256 43.1876 15.8256 42.9527 15.8256 42.6997C15.8256 42.9527 15.8437 43.1876 15.8256 43.4406ZM16.4942 35.1284C16.4942 35.1284 16.4942 35.1284 16.5123 35.1284C16.6026 35.1284 16.6749 35.1465 16.7472 35.1646C16.6569 35.1646 16.6026 35.1284 16.4942 35.1284ZM20.8491 41.6336C20.8491 41.6336 20.7587 41.6336 20.7045 41.6336C20.9213 41.6336 21.1201 41.6336 21.3369 41.6155C21.1743 41.6155 21.0117 41.6336 20.8491 41.6336ZM24.4992 39.3749C24.6979 39.2845 24.8786 39.1761 24.9871 39.0496C24.8606 39.1761 24.6979 39.2845 24.4992 39.3749ZM24.8786 37.6944C24.445 37.2245 24.0836 36.7547 23.9209 36.1584C24.0836 36.7547 24.463 37.2426 24.8786 37.6944ZM24.6437 35.0742C24.6437 35.0742 24.6618 35.0742 24.6799 35.0742C24.6799 35.0742 24.6979 35.0742 24.716 35.0742C24.6979 35.0742 24.6799 35.0742 24.6437 35.0742ZM25.4749 36.1946C25.3846 36.05 25.3304 35.8874 25.2942 35.6886C25.3304 35.8693 25.3846 36.0319 25.4749 36.1946C25.6556 36.4837 25.9086 36.7186 26.2158 36.9174C25.9267 36.7367 25.6556 36.5017 25.4749 36.1946ZM27.3181 45.9523C27.3181 45.9523 27.2819 45.9523 27.2458 45.9523C27.3 45.9523 27.3542 45.9523 27.4084 45.9523C27.3723 45.9523 27.3542 45.9703 27.3181 45.9703V45.9523ZM27.824 43.7116C27.824 44.0369 27.6795 44.2176 27.4084 44.2176V44.4886H27.3903V44.2176C27.2639 44.2176 26.9205 44.2176 26.9025 43.6755C26.9025 42.5913 26.9025 41.5071 26.9025 40.3506V39.3929C27.553 39.7724 27.824 40.2783 27.8421 41.0553C27.8421 41.9408 27.8421 42.8081 27.8421 43.6935L27.824 43.7116ZM28.0951 43.7297C28.0951 43.8381 28.0951 43.9465 28.0409 44.0369C28.077 43.9465 28.077 43.8381 28.0951 43.7297ZM29.1973 45.6451C29.0889 45.6089 28.9805 45.5909 28.8901 45.5909C28.9805 45.5909 29.0889 45.5909 29.1973 45.6451C29.4322 45.7354 29.6491 45.7896 29.8659 45.8439C29.6491 45.8077 29.4322 45.7354 29.1973 45.6451ZM29.8298 43.4586C29.8298 43.3683 29.8298 43.2779 29.8298 43.1876V43.0972C29.8298 42.9527 29.8117 42.8081 29.8298 42.6636C30.1731 40.0073 29.1612 38.0738 26.794 36.9174C26.0351 36.5379 25.6556 36.1584 25.5653 35.6525C25.4388 34.9477 25.0232 34.8032 24.6979 34.8032C24.5172 34.8032 24.3185 34.8574 24.1739 34.8935C24.1197 34.8935 24.0655 34.9297 24.0113 34.9297C23.7944 34.9658 23.6318 35.0742 23.5415 35.2369C23.3969 35.5079 23.5053 35.797 23.5957 36.05C23.6137 36.1042 23.6499 36.1765 23.6499 36.2307C23.8306 36.8993 24.2462 37.4233 24.6799 37.8931C24.8425 38.0738 25.0232 38.3268 24.969 38.5798C24.9148 38.8508 24.6257 39.0315 24.3907 39.1399C23.2343 39.664 22.0597 39.935 20.8852 39.935C19.8371 39.935 18.753 39.7182 17.6688 39.3206C17.2893 39.1761 17.2351 39.1219 17.3616 38.7605C17.5965 38.1461 17.5784 37.4956 17.5603 36.8812C17.5603 36.6102 17.5603 36.321 17.5603 36.05C17.5784 35.7247 17.5603 35.3814 17.3435 35.1465C17.1628 34.9658 16.9098 34.8755 16.5123 34.8755C16.1328 34.8755 15.8799 34.9658 15.7172 35.1284C15.4823 35.3814 15.5004 35.7428 15.5185 36.0139C15.6088 37.4775 15.4823 38.5798 14.5788 39.5736C14.0006 40.2061 14.0367 41.0734 14.0729 41.8143C14.0729 42.0131 14.0909 42.2299 14.0729 42.4287C14.0729 42.8262 14.0729 43.2057 14.0729 43.6032C14.0729 43.8562 14.0367 44.0369 13.9464 44.1272C13.8741 44.1995 13.7838 44.2356 13.6392 44.2356C13.3862 44.2356 13.1874 44.1634 13.1874 43.6032C13.1874 41.8324 13.1874 40.0615 13.1874 38.2907C13.1874 38.2365 13.1874 38.1642 13.1874 38.0919C13.1874 37.8208 13.2236 37.5137 12.9887 37.2788C12.826 37.1161 12.5731 37.0258 12.2297 37.0077C11.8322 37.0077 11.5792 37.0981 11.4166 37.2607C11.1817 37.4956 11.1817 37.8389 11.1998 38.1461V38.3087V39.4652C11.1998 40.6217 11.1998 41.7601 11.1998 42.9165C11.1998 43.043 11.1998 43.1695 11.1998 43.296C11.2178 43.6032 11.2359 43.9285 11.1094 44.073C11.0371 44.1453 10.9287 44.1814 10.748 44.1814L10.7119 44.4525V44.1814C10.5492 44.1814 10.4228 44.1453 10.3686 44.073C10.2421 43.9285 10.2601 43.5851 10.2601 43.296C10.2601 43.1695 10.2601 43.0611 10.2601 42.9527V42.1395C10.224 41.0011 10.1879 39.8447 10.2782 38.7063C10.3686 37.4595 9.69997 37.0438 8.9591 36.7728C8.29052 36.5198 7.60386 36.2307 6.95335 35.9416C6.53774 35.7609 6.10407 35.5621 5.67039 35.3995C5.25479 35.2369 5.20058 35.02 5.21865 34.8032C5.23672 34.4237 5.5439 34.3334 5.7246 34.3153C7.74842 34.1346 8.43508 32.6167 8.76033 31.4783C8.88682 31.0627 9.03138 30.6833 9.21208 30.358C9.51927 29.7617 9.77225 28.9847 8.88682 28.2258C8.56157 27.9547 8.34473 27.521 8.21824 26.9428C8.97717 27.1416 9.55541 27.5572 9.9168 28.1896C10.8384 29.7256 12.1575 30.3941 14.2174 30.3941C14.3258 30.3941 14.4343 30.3941 14.5427 30.3941C16.1509 30.3399 17.8856 30.3219 20.0359 30.3219C21.2105 30.3219 22.3669 30.3219 23.5415 30.3219C24.716 30.3219 25.8725 30.3219 27.047 30.3219H27.6975C28.3119 30.3219 28.7998 30.3761 29.2696 30.6471C28.2035 31.4061 27.7156 32.436 27.7517 33.7732C27.7698 34.3876 28.0589 34.6767 28.6552 34.6767H28.7275C29.0889 34.6767 29.4142 34.6586 29.631 34.4056C29.7756 34.243 29.8117 34.0262 29.7756 33.719C29.7575 33.5564 29.7756 33.3757 29.7756 33.195C29.8298 32.7432 30.1008 32.2553 30.5164 32.2553C30.5706 32.2553 30.6068 32.2553 30.6068 32.2734C30.6791 32.3638 30.661 32.6709 30.6429 32.8516C30.6429 32.9601 30.6429 33.0504 30.6429 33.1408C30.6429 35.797 30.6429 38.4714 30.6429 41.1276V43.1876V43.3502C30.6429 43.9646 30.6068 44.1272 30.2273 44.1453C30.0285 44.1453 29.9382 44.1092 29.884 44.0549C29.7756 43.9465 29.7756 43.6574 29.7756 43.4225L29.8298 43.4586ZM28.7817 34.4418C28.7817 34.4418 28.7456 34.4418 28.7094 34.4418C28.6552 34.4418 28.6191 34.4418 28.583 34.4418C28.6372 34.4418 28.7094 34.4418 28.7817 34.4418ZM30.4441 45.8981C30.3357 45.8981 30.2092 45.88 30.0827 45.8619C30.2092 45.8619 30.3538 45.8981 30.4803 45.8981C30.4803 45.8981 30.4622 45.8981 30.4441 45.8981ZM30.9862 43.2418C30.9862 43.3683 30.9862 43.5128 30.9862 43.6574C30.9862 43.5128 30.9862 43.3864 30.9862 43.2418Z" fill="#78BDB6"/>
<path id="Vector_2" d="M47.1588 34.2418V33.8262C47.1588 33.2841 47.1588 32.724 47.1588 32.1819C47.1588 31.8928 47.1588 31.6036 46.9601 31.4049C46.8336 31.2784 46.6709 31.2242 46.4722 31.2242C46.436 31.2242 46.3999 31.2242 46.3457 31.2242C46.3095 31.2242 46.2915 31.2242 46.2553 31.2242C46.2011 31.2242 46.165 31.2242 46.1108 31.2242C46.0566 31.2242 46.0024 31.2242 45.9481 31.2242C45.6771 31.2242 45.2976 31.2965 45.0989 31.8566C44.4122 33.7359 43.7978 34.1696 41.8463 34.1696H41.5572C41.1596 34.1696 40.9247 34.0973 40.7982 33.9527C40.6898 33.8262 40.6356 33.6094 40.6537 33.3022C40.6898 32.4891 40.6898 31.7482 40.6537 31.0796C40.5633 29.7244 39.696 28.6763 38.4672 28.4414C38.2504 28.4053 38.0336 28.3691 37.8167 28.3691C36.7145 28.3691 35.811 28.9835 35.3231 30.0316C35.1243 30.4472 34.9798 30.5375 34.781 30.5375C34.7268 30.5375 34.6726 30.5375 34.6184 30.5375C34.528 30.5375 34.4557 30.5195 34.3834 30.5195C33.6245 30.5195 33.6064 31.2603 33.6064 31.5314C33.6064 31.7663 33.6064 32.1096 33.8414 32.3264C33.9678 32.471 34.1666 32.5252 34.4015 32.5252C34.4738 32.5252 34.5641 32.5252 34.6545 32.5071C34.7268 32.5071 34.781 32.5071 34.8352 32.5071C35.1243 32.5071 35.2327 32.6698 35.4496 33.1576C35.8832 34.0973 35.8471 35.0008 35.811 35.9765C35.811 36.3379 35.7748 36.6993 35.7929 37.0607C35.829 38.9761 36.6422 40.4037 38.1962 41.2891C38.5756 41.5059 38.6841 41.7047 38.6841 42.1384C38.666 42.7166 38.6841 43.2768 38.6841 43.855C38.6841 44.3609 38.6841 44.8669 38.6841 45.3729C38.6841 45.68 38.7383 45.8969 38.9009 46.0595C39.0997 46.2583 39.3888 46.2944 39.6237 46.2944C39.967 46.2944 40.3104 46.2944 40.5272 46.0414C40.6718 45.8788 40.744 45.662 40.726 45.3548C40.6898 44.5959 40.6898 43.7646 40.726 42.7166C40.726 42.6082 40.726 42.4998 40.726 42.3913C40.726 42.2287 40.6898 42.048 40.744 41.9938C40.7621 41.9577 40.8525 41.9035 41.1416 41.9035C41.4488 41.9035 41.5391 41.9577 41.5752 41.9938C41.6475 42.0661 41.6295 42.2468 41.6295 42.4455C41.6295 42.5178 41.6295 42.5901 41.6295 42.6805V43.3852C41.6295 44.0176 41.6475 44.6862 41.6295 45.3367C41.6295 45.5536 41.6295 45.8788 41.8282 46.0957C42.027 46.3125 42.3342 46.3486 42.6233 46.3486C42.8763 46.3486 43.2015 46.3125 43.4003 46.1137C43.5991 45.8969 43.6171 45.5897 43.6171 45.3548C43.6171 44.885 43.6171 44.4332 43.6171 43.9634C43.6171 43.4575 43.6171 42.9696 43.6171 42.4636C43.5991 41.8854 43.7256 41.6685 44.2315 41.4336C45.8939 40.6747 46.9058 39.3014 47.1588 37.5125C47.2492 36.8439 47.2672 36.1572 47.2853 35.5067C47.2853 35.2176 47.2853 34.9104 47.3215 34.6213V34.3503H47.2853L47.1588 34.2418ZM34.3654 30.7724C34.3654 30.7724 34.4919 30.7724 34.5641 30.7724C34.4557 30.7544 34.3654 30.7724 34.275 30.7724C34.3112 30.7724 34.3292 30.7724 34.3654 30.7724ZM34.3654 32.2542C34.3654 32.2542 34.3654 32.2542 34.3292 32.2542C34.4015 32.2542 34.4738 32.2542 34.5641 32.2542C34.4919 32.2542 34.4196 32.2722 34.3654 32.2722V32.2542ZM42.1715 35.8501C42.0812 35.8501 41.9728 35.8501 41.8824 35.8501C41.7379 35.8501 41.5933 35.8501 41.4307 35.8501C41.6837 35.8501 41.9186 35.8501 42.1715 35.8501ZM40.3826 33.3022C40.3826 33.519 40.3826 33.6997 40.4368 33.8443C40.4007 33.6997 40.3826 33.519 40.3826 33.3022C40.4188 32.5794 40.4188 31.8386 40.3826 31.1158C40.4368 31.8386 40.4368 32.5794 40.3826 33.3022ZM38.9009 33.3926C38.9009 33.8082 38.9732 34.1515 39.0816 34.4587C38.9732 34.1515 38.919 33.8082 38.9009 33.3926C38.8828 32.6698 38.9009 31.9289 38.9009 31.2061C38.919 31.9289 38.9009 32.6698 38.9009 33.3926ZM37.7986 28.6402C37.9974 28.6402 38.1962 28.6583 38.395 28.6944C38.142 28.6402 37.889 28.6402 37.636 28.6583C37.6902 28.6583 37.7444 28.6402 37.7986 28.6402ZM39.5514 45.9872C39.5514 45.9872 39.4611 45.9872 39.4069 45.9872C39.4611 45.9872 39.5153 45.9872 39.5876 45.9872C39.5876 45.9872 39.5695 45.9872 39.5514 45.9872ZM40.0032 40.1507C39.7863 40.1145 39.6418 40.0242 39.443 39.9519C39.6237 40.0242 39.7863 40.1145 40.0032 40.1507C40.3826 40.223 40.726 40.241 41.0874 40.2591C40.744 40.2591 40.3826 40.223 40.0032 40.1507ZM41.8102 45.2825C41.8282 44.8488 41.8102 44.3971 41.8102 43.9634C41.8102 44.3971 41.8102 44.8488 41.8102 45.2825C41.8102 45.5536 41.8463 45.7343 41.9547 45.8427C41.8463 45.7343 41.7921 45.5536 41.8102 45.2825ZM42.551 46.0053C42.551 46.0053 42.6775 46.0053 42.7317 45.9872C42.6775 45.9872 42.6233 46.0053 42.551 46.0053ZM44.9362 37.7112C44.4483 39.1207 43.0208 40.0061 41.1958 40.0061C40.8163 40.0061 40.4368 39.97 40.0393 39.8977C38.4853 39.6086 37.7264 38.5244 37.7083 36.5909C37.7083 36.3199 37.7083 36.0488 37.7083 35.7778C37.7264 34.5129 37.7625 33.2119 37.0939 31.965C37.0216 31.8205 37.0036 31.5856 37.0036 31.3687V31.2965C37.0036 31.0796 37.0216 30.7724 37.2204 30.5737C37.3469 30.4291 37.5457 30.3749 37.8167 30.3568C38.3227 30.3568 38.5937 30.6459 38.5937 31.2061C38.5937 31.5675 38.5937 31.9289 38.5937 32.2903C38.5937 32.6517 38.5937 33.0312 38.5937 33.3926C38.6479 35.1634 39.5514 36.0488 41.3765 36.1211C41.521 36.1211 41.6837 36.1211 41.8282 36.1211C43.1292 36.1211 44.1592 35.8681 45.0808 35.308C45.135 36.2295 45.1531 36.9704 44.9001 37.6932L44.9362 37.7112ZM45.8397 31.5133C45.8397 31.5133 45.912 31.5133 45.9481 31.5133C45.9843 31.5133 46.0385 31.5133 46.0746 31.5133C46.0024 31.5133 45.912 31.5133 45.8397 31.5133ZM46.3638 31.5133C46.3638 31.5133 46.436 31.5133 46.4541 31.5133C46.5083 31.5133 46.5264 31.5314 46.5806 31.5494C46.5264 31.5494 46.4541 31.5133 46.3638 31.5314V31.5133Z" fill="#78BDB6"/>
<path id="Vector_3" d="M44.2314 14.0589C44.2314 13.0289 44.2314 11.9808 44.2314 10.9509C44.2314 8.22231 42.6955 6.72251 39.9308 6.72251H32.1969H26.9386H21.6802H20.9032C21.5357 5.60218 21.8248 4.60834 21.8609 3.54222C21.8609 3.21696 21.8609 2.8375 21.608 2.60259C21.4453 2.43996 21.2104 2.34961 20.9032 2.34961C20.831 2.34961 20.7587 2.34961 20.6683 2.34961C18.9336 2.51224 17.5603 3.10854 16.4761 4.19273C16.2954 4.37343 16.1147 4.55413 16.0244 4.55413C16.0063 4.55413 15.916 4.49992 15.8075 4.24694C15.2112 2.98205 14.109 2.34961 12.4646 2.34961H12.3381C11.8683 2.34961 11.2178 2.36768 11.2178 3.34345C11.2178 4.06624 11.525 4.37343 12.2116 4.37343H12.302H12.4827C12.5911 4.37343 12.6995 4.37343 12.7899 4.37343C13.1151 4.37343 13.3681 4.40957 13.5488 4.60834C12.6995 4.73483 12.0129 5.06009 11.4708 5.60218L11.0913 5.98165C9.84449 7.2104 8.56154 8.49336 7.31472 9.75824C6.37508 10.7159 6.14018 11.8724 6.62806 13.1373C7.13402 14.4203 8.12786 15.125 9.53731 15.1611C9.98905 15.1611 10.4227 15.1611 10.8745 15.1611H11.6334H12.3923C14.9944 15.1611 15.5365 15.7032 15.5365 18.1969C15.5365 18.8654 15.5365 19.5521 15.5365 20.2207C15.5365 21.7205 15.5365 23.2564 15.5365 24.7743C15.5726 26.3644 16.5123 27.4305 17.8856 27.4305C18.247 27.4305 18.6264 27.3583 19.024 27.2137C19.2047 27.1414 19.3312 27.1053 19.4577 27.1053C19.548 27.1053 19.6564 27.1234 19.7829 27.1776C20.2166 27.3402 20.6322 27.4305 21.0117 27.4305C22.403 27.4305 23.2885 26.4006 23.3246 24.7562C23.3607 23.5094 23.3607 22.4071 23.3246 21.3952C23.3246 21.1422 23.3607 21.0519 23.3969 21.0158C23.433 20.9796 23.5053 20.9615 23.5956 20.9615C23.6679 20.9615 23.7583 20.9615 23.8486 20.9977C24.4269 21.1061 25.5833 22.3891 25.6375 22.9854C25.6375 23.0396 25.6375 23.0757 25.6375 23.1299C25.6375 23.3106 25.6375 23.5455 25.8002 23.7262C25.9086 23.8347 26.0351 23.8708 26.2158 23.8708C26.2519 23.8708 26.288 23.8708 26.3423 23.8708C26.3423 23.8708 26.3603 23.8708 26.3784 23.8708C26.4687 23.8708 26.523 23.8708 26.5952 23.8889C26.6856 23.8889 26.7759 23.9069 26.8844 23.9069C27.2277 23.9069 27.4807 23.7262 27.6433 23.3648C27.6975 23.2383 27.9685 23.0938 28.4022 23.0938C28.8359 23.0938 29.2334 23.2383 29.3238 23.4371C29.4683 23.7443 29.7032 23.9069 30.0104 23.9069C30.1008 23.9069 30.1911 23.9069 30.2634 23.8889C30.3176 23.8889 30.3899 23.8708 30.4441 23.8708C30.5525 23.8889 30.6248 23.9069 30.679 23.9069C30.8778 23.9069 31.0404 23.8347 31.1488 23.7082C31.2211 23.6178 31.2934 23.4552 31.2573 23.2203C31.1127 22.4975 31.4741 22.1903 32.0704 21.7385C32.3053 21.5578 32.5583 21.3772 32.7571 21.1242C32.8835 20.9796 33.0642 20.9435 33.2088 20.9435C33.3172 20.9435 33.4437 20.9615 33.5521 20.9977C33.6605 21.0338 33.6786 21.0519 33.6425 21.3952C33.6425 21.4856 33.6244 21.5759 33.6244 21.6663C33.6244 22.1361 33.6244 22.6059 33.6244 23.0576C33.6244 23.6901 33.6244 24.3587 33.6244 25.0092C33.6786 26.4728 34.6363 27.4486 35.9735 27.4486C36.3168 27.4486 36.6782 27.3763 37.0577 27.2499C37.1119 27.2318 37.1842 27.1956 37.2384 27.1776C37.3468 27.1234 37.4552 27.0872 37.5456 27.0872C37.5998 27.0872 37.654 27.0872 37.7082 27.1234C38.2503 27.3041 38.7382 27.3944 39.1718 27.3944C40.1838 27.3944 41.3764 26.8885 41.3764 24.449C41.3764 21.8831 41.3764 19.3172 41.3764 16.7513V14.4022C41.3764 14.1673 41.3764 13.9504 41.3764 13.7155C41.3944 12.017 41.4125 10.2642 40.2018 8.7644C41.6293 8.83668 42.2437 9.50527 42.2618 10.9147C42.2618 12.2338 42.2618 13.5529 42.2618 14.872C42.2618 15.7755 42.2618 16.6971 42.2618 17.6006C42.2618 17.6728 42.2618 17.727 42.2618 17.7993C42.2618 18.0704 42.2257 18.3595 42.4425 18.5944C42.6051 18.757 42.84 18.8474 43.2014 18.8474C44.2495 18.8474 44.2495 18.1969 44.2495 17.6909C44.2495 16.4441 44.2495 15.2515 44.2495 14.0589H44.2314ZM12.302 4.12045C12.302 4.12045 12.2478 4.12045 12.2116 4.12045C12.1574 4.12045 12.1213 4.12045 12.0671 4.12045C12.1394 4.12045 12.2116 4.12045 12.302 4.12045ZM12.3381 2.62066C12.3381 2.62066 12.4285 2.62066 12.4646 2.62066C12.6272 2.62066 12.7899 2.6568 12.9525 2.6568C12.7537 2.6568 12.555 2.60259 12.3381 2.62066ZM32.1969 6.99356C34.7809 6.99356 37.3468 6.99356 39.9308 6.99356C33.8412 6.99356 27.7698 6.99356 21.6802 6.99356C25.1858 6.99356 28.6913 6.99356 32.1969 6.99356ZM34.6182 9.07159C34.6363 8.81861 34.6002 8.65598 34.4737 8.56564C34.5821 8.65598 34.6363 8.81861 34.6182 9.07159ZM26.6314 11.8724C26.1616 11.8724 25.8002 11.7821 25.493 11.5652C24.6256 10.9689 23.8486 10.3184 24.0293 9.1258C24.1016 8.69212 24.1558 8.67405 24.4991 8.67405C25.3303 8.67405 26.1254 8.67405 26.9024 8.67405H28.3661H29.8297H30.0285C29.2334 9.4872 28.4926 10.2461 28.4926 11.4387C28.4926 11.5472 28.3842 11.6556 28.3119 11.6736C28.1131 11.6917 27.9324 11.7279 27.7336 11.7459C27.3722 11.8001 26.9928 11.8543 26.6314 11.8543V11.8724ZM27.4626 13.5168C27.318 13.5168 27.1735 13.5529 27.0289 13.5529C26.9386 13.5529 26.8482 13.5529 26.7398 13.5348C26.9747 13.5348 27.2096 13.5348 27.4445 13.5348L27.4626 13.5168ZM24.5353 8.40301C26.3061 8.42108 28.0589 8.40301 29.8297 8.40301C28.854 8.40301 27.8782 8.40301 26.9024 8.40301C26.1074 8.40301 25.3123 8.40301 24.5353 8.40301ZM30.2815 11.3303C30.1911 11.8001 30.0466 12.2519 29.8117 12.5952C30.0466 12.2519 30.1911 11.8182 30.2815 11.3303ZM21.9513 8.42108C21.9513 8.42108 21.9332 8.42108 21.9151 8.42108C21.8429 8.42108 21.7706 8.42108 21.6983 8.42108C21.7887 8.42108 21.8609 8.42108 21.9513 8.42108ZM20.4334 6.99356C20.7948 6.41532 21.0659 5.85516 21.2646 5.29499C21.0659 5.85516 20.7767 6.41532 20.4334 6.99356ZM20.7045 2.63873C20.7045 2.63873 20.849 2.63873 20.9213 2.63873C20.9755 2.63873 21.0117 2.63873 21.0478 2.6568C20.9394 2.6568 20.849 2.63873 20.7045 2.6568C19.9275 2.72908 19.2047 2.8917 18.5361 3.18082C19.2047 2.8917 19.9455 2.72908 20.7045 2.6568V2.63873ZM15.0667 7.96933C15.0667 7.96933 14.9583 8.02354 14.9221 8.02354C14.9221 8.02354 14.9221 8.02354 14.904 8.02354C14.9583 8.02354 15.0125 8.00547 15.0847 7.9874L15.0667 7.96933ZM12.3923 14.8901C11.8864 14.8901 11.3804 14.8901 10.8925 14.8901C10.4408 14.8901 10.0071 14.8901 9.55538 14.8901C10.5131 14.9081 11.4708 14.8901 12.4466 14.8901H12.3923ZM10.9287 13.4806C11.3082 13.4806 11.7057 13.4806 12.1032 13.4806C12.3381 13.4806 12.573 13.4806 12.7899 13.4806C12.1574 13.4806 11.5069 13.4806 10.9287 13.4806ZM10.2962 11.8363C10.5311 11.8363 10.7661 11.9989 11.0552 12.2157C11.1997 12.3422 11.272 12.4507 11.272 12.5591C11.272 12.4507 11.2178 12.3422 11.0552 12.2157C10.7841 11.9808 10.5311 11.8363 10.2962 11.8363ZM17.8856 27.1595C17.8856 27.1595 17.8494 27.1595 17.8314 27.1595C17.9398 27.1595 18.0482 27.1595 18.1566 27.1595C18.0663 27.1595 17.9759 27.1956 17.8856 27.1956V27.1595ZM19.4034 14.8901C19.4034 14.8901 19.4396 14.8901 19.4577 14.8901C19.5119 14.8901 19.5661 14.8901 19.6022 14.8901C19.548 14.8901 19.4757 14.8901 19.4034 14.8901ZM20.1262 16.0465C20.1262 16.0465 20.1262 15.9743 20.1262 15.9381C20.1262 15.9743 20.1262 16.0104 20.1262 16.0465C20.1443 18.1607 20.1262 20.2749 20.1262 22.3891C20.1262 20.2749 20.1262 18.1607 20.1262 16.0465ZM21.0117 27.1414C20.9032 27.1414 20.7948 27.1234 20.6864 27.1053C20.8129 27.1053 20.9394 27.1414 21.0478 27.1234C21.0478 27.1234 21.0297 27.1234 21.0117 27.1234V27.1414ZM23.5595 14.9081C23.5595 14.9081 23.6679 14.8901 23.7402 14.8901C23.7402 14.8901 23.7402 14.8901 23.7583 14.8901C23.686 14.8901 23.6137 14.8901 23.5595 14.9081ZM26.2338 23.5997C26.2338 23.5997 26.1616 23.5817 26.1435 23.5636C26.1977 23.5636 26.2519 23.5997 26.3423 23.5817C26.3061 23.5817 26.27 23.5817 26.2519 23.5817L26.2338 23.5997ZM26.8663 23.6359C26.7579 23.6359 26.6675 23.6359 26.5591 23.5997C26.6675 23.5997 26.7579 23.6359 26.8663 23.6359ZM29.9924 23.6178C29.9924 23.6178 29.902 23.5997 29.8659 23.5817C29.9201 23.5817 29.9743 23.6178 30.0285 23.6178C30.0285 23.6178 30.0285 23.6178 30.0104 23.6178H29.9924ZM30.679 23.5997C30.679 23.5997 30.5887 23.5997 30.5525 23.5997C30.6067 23.5997 30.6429 23.5997 30.6971 23.5997H30.679ZM32.7932 19.2811C32.7932 19.2811 32.9558 19.2449 33.0462 19.2449C33.0823 19.2449 33.1004 19.2449 33.1365 19.2449C33.01 19.2449 32.9016 19.2449 32.7932 19.2811ZM35.9735 27.1776C35.9735 27.1776 35.9373 27.1776 35.9193 27.1776C35.9735 27.1776 36.0277 27.1776 36.0638 27.1776C36.0277 27.1776 36.0096 27.1776 35.9735 27.1776ZM36.4794 24.8466C36.4794 25.3887 36.2626 25.4429 36.0458 25.4429L36.0096 25.7139V25.4429C35.8109 25.4429 35.6121 25.4067 35.6121 24.9008V21.7385V20.6363V20.3652C36.2265 20.9977 36.4975 21.6843 36.4975 22.5517C36.4975 23.3287 36.4975 24.0876 36.4975 24.8646L36.4794 24.8466ZM36.9493 26.9788C37.0035 26.9607 37.0577 26.9427 37.0938 26.9065C37.0396 26.9246 37.0035 26.9427 36.9493 26.9788ZM38.178 24.5936C38.178 23.9431 38.178 23.2926 38.178 22.624C38.178 23.2745 38.178 23.925 38.178 24.5936ZM39.1718 27.1053C39.0454 27.1053 38.9008 27.0872 38.7743 27.0692C38.9189 27.0872 39.0634 27.1053 39.208 27.1053C39.208 27.1053 39.208 27.1053 39.1899 27.1053H39.1718ZM39.3706 21.4133C39.3706 22.4613 39.3706 23.5094 39.3706 24.5755V24.6478C39.3706 24.8827 39.3706 25.1176 39.2983 25.2622C39.2622 25.3344 39.2261 25.4429 38.9369 25.4429C38.5213 25.4429 38.4491 25.2441 38.4491 24.5936V23.9973C38.4491 23.5455 38.4491 23.0938 38.4491 22.624C38.4852 20.5821 37.5998 19.0281 35.8109 18.0342C34.7447 17.4379 34.2207 16.6429 34.1846 15.6129C34.1484 14.619 33.4437 14.619 33.1546 14.619H32.9378C32.6125 14.619 32.3957 14.7094 32.2692 14.8901C32.0704 15.125 32.1246 15.4502 32.1607 15.7032V15.8478C32.3053 16.932 32.7028 17.8535 33.3534 18.6125C33.5341 18.8112 33.5883 18.9197 33.5883 18.9739C33.5521 18.9739 33.4618 18.9919 33.2811 18.9919H33.1727H33.0642C32.1969 18.9919 31.5825 19.4618 31.1308 19.8774C30.1911 20.7628 29.3057 21.1784 28.4384 21.1784C27.571 21.1784 26.7217 20.7628 25.8363 19.9135C25.3484 19.4437 24.8063 19.1546 24.1558 18.9919C24.6256 17.9981 24.8244 16.9139 24.7883 15.6129C24.7883 14.9262 24.4811 14.6371 23.7763 14.6371C23.5234 14.6371 23.18 14.6732 22.9632 14.8901C22.7464 15.125 22.7464 15.4322 22.7644 15.649C22.8548 16.7513 22.5837 17.8174 21.9151 18.8654C21.3008 19.8231 21.2646 20.9435 21.2827 21.9192C21.2827 22.5878 21.2827 23.2383 21.2827 23.9069V24.8104C21.2827 25.3344 21.1562 25.4429 20.9032 25.4609C20.7225 25.4609 20.6141 25.4248 20.5599 25.3706C20.4696 25.2802 20.4154 25.0995 20.4154 24.8466V23.2564V22.4252V20.7266C20.4154 19.1726 20.4154 17.6186 20.4154 16.0827C20.4154 15.9923 20.4154 15.902 20.4154 15.8116C20.4515 15.5225 20.4876 15.1792 20.2527 14.9262C20.0901 14.7455 19.819 14.6552 19.4396 14.6552C19.0059 14.6552 18.7529 14.7636 18.5903 14.9443C18.3735 15.1973 18.4096 15.5225 18.4457 15.7936C18.4457 15.8839 18.4638 15.9562 18.4638 16.0465C18.4638 18.0523 18.4638 20.0761 18.4638 22.0819V24.1238V24.3045V24.8104C18.4638 25.4248 18.247 25.479 17.994 25.479C17.6687 25.479 17.5603 25.3706 17.5603 24.7562V21.8831C17.5603 20.564 17.5603 19.263 17.5603 17.9439C17.5603 14.7817 16.0063 13.2457 12.8079 13.2277H12.1213H11.5069H11.2178C11.2178 13.2277 11.272 13.1554 11.3082 13.1012C11.4527 12.9024 11.7599 12.4868 11.2178 12.035C10.9287 11.8001 10.6215 11.5833 10.2962 11.5833C9.95291 11.5833 9.64573 11.8182 9.39275 12.288C9.35661 12.3603 9.32047 12.4507 9.28433 12.541C9.21205 12.7036 9.1217 12.9566 9.01328 12.9566C8.99521 12.9566 8.941 12.9566 8.86872 12.9024C8.3447 12.6133 8.32663 12.0531 8.48926 11.6194C8.56154 11.4207 8.68802 11.2219 8.86872 11.0593C10.1336 9.77631 11.4888 8.42108 12.8802 7.06584C13.2236 6.72251 13.603 6.55988 14.0367 6.55988C14.0728 6.55988 14.109 6.55988 14.1451 6.55988C13.9825 6.72251 13.7837 6.92128 13.7837 7.2104C13.7837 7.42724 13.9102 7.64407 14.1632 7.84284C14.4342 8.07775 14.6691 8.25845 14.9583 8.25845C15.2654 8.25845 15.5184 8.02354 15.6991 7.82477C16.6207 6.83093 17.5784 5.92744 18.4096 5.18657C18.7349 4.87939 19.1505 4.66255 19.7287 4.51799C19.5119 5.49376 18.8613 6.16235 18.1928 6.849L17.994 7.06584C17.994 7.06584 17.8856 7.15619 17.8314 7.19233C17.6507 7.31882 17.3977 7.49951 17.3796 7.8067C17.3796 8.00547 17.47 8.22231 17.6868 8.42108C17.7229 8.45722 17.7772 8.51143 17.8133 8.54757C17.994 8.74633 18.2108 8.96317 18.5722 8.96317C18.7529 8.96317 18.9698 8.90896 19.2047 8.78247C19.4757 8.63791 19.819 8.56564 20.2527 8.56564C20.5238 8.56564 20.8129 8.5837 21.102 8.61984C21.4092 8.63791 21.6983 8.67405 21.9874 8.67405C22.0778 8.67405 22.1139 8.67405 22.1139 8.67405C22.1139 8.71019 22.1139 8.85475 22.1139 8.92703C22.1139 8.98124 22.1139 9.03545 22.1139 9.08966C22.1501 12.5591 24.8244 13.7878 27.1012 13.7878C27.6975 13.7878 28.3119 13.7155 28.9082 13.5529C29.8297 13.318 30.408 12.5771 30.6248 11.3484C30.8236 10.1739 32.8835 8.63791 33.9497 8.63791C34.2568 8.63791 34.3472 8.69212 34.3653 8.72826C34.4014 8.7644 34.4195 8.87282 34.4014 8.99931C34.3111 10.1196 34.9616 10.8786 35.5398 11.4207C36.118 11.9628 36.5517 12.4326 36.6782 13.2457C36.8228 14.348 37.7082 15.0888 38.9008 15.1069C39.3706 15.1069 39.461 15.2153 39.4429 15.7394C39.4429 17.6186 39.4429 19.4798 39.4429 21.3591L39.3706 21.4133ZM32.4499 15.8116C32.4137 15.4322 32.215 14.9262 32.9378 14.9081C33.01 14.9081 33.0823 14.9081 33.1546 14.9081C33.1727 14.9081 33.1907 14.9081 33.2269 14.9081C33.1365 14.9081 33.0462 14.9081 32.9558 14.9081C32.233 14.9262 32.4137 15.4502 32.4679 15.8116H32.4499ZM18.1566 7.28268C18.1566 7.28268 18.0121 7.40916 17.9217 7.46337C18.0121 7.40916 18.0843 7.33689 18.1566 7.28268C18.3735 7.06584 18.5722 6.849 18.7891 6.63216C18.5903 6.849 18.3735 7.06584 18.1566 7.28268ZM18.5361 8.71019C18.5361 8.71019 18.518 8.71019 18.4999 8.71019C18.4819 8.71019 18.4638 8.69212 18.4277 8.69212C18.4638 8.69212 18.4819 8.69212 18.518 8.69212L18.5361 8.71019ZM39.3887 13.1373C39.3887 13.1373 39.3345 13.1734 39.2261 13.1915C39.1718 13.1915 39.1176 13.1915 39.0634 13.1915C38.6659 13.1915 38.4671 12.9747 38.4671 12.541C38.431 11.6014 37.8708 10.987 37.3649 10.4991L37.2926 10.4268C37.0035 10.1377 36.6963 9.84859 36.4433 9.52334C36.2445 9.27036 36.2626 8.92703 36.371 8.71019C36.4072 8.65598 36.4072 8.65598 36.4252 8.65598C36.4975 8.65598 36.6059 8.71019 36.7143 8.74633C36.8047 8.78247 36.895 8.81861 36.9854 8.85475C38.5394 9.27036 39.3706 10.4991 39.4068 12.4507C39.3525 12.5952 39.3887 12.7578 39.4068 12.9024C39.4068 12.9747 39.4429 13.1192 39.4068 13.1373H39.3887ZM39.5875 8.47529C39.8043 8.69212 40.0031 8.90896 40.1657 9.14387C40.0031 8.90896 39.8224 8.69212 39.5875 8.47529ZM43.2195 18.5763C43.2195 18.5763 43.2195 18.5763 43.2014 18.5763C43.0749 18.5763 43.0207 18.5402 42.9484 18.5221C43.0388 18.5402 43.1111 18.5763 43.2376 18.5763H43.2195Z" fill="#78BDB6"/>
<path id="Vector_4" d="M13.8563 8.43854C13.6756 8.18556 13.3323 8.13135 12.989 8.11328C12.9348 8.11328 12.8986 8.11328 12.8625 8.11328C12.5553 8.11328 12.3385 8.18556 12.1939 8.34819C11.9771 8.56503 11.9409 8.89028 11.9409 9.19747C11.9409 9.88413 12.23 10.1732 12.9348 10.1913C13.2419 10.1913 13.5672 10.1552 13.784 9.90219C13.9828 9.64922 13.9647 9.32396 13.9286 9.07098C14.0009 8.818 13.9647 8.60117 13.8563 8.43854ZM12.6999 8.4024C12.6999 8.4024 12.7902 8.38433 12.8444 8.38433C12.8805 8.38433 12.9167 8.38433 12.9528 8.38433C12.8444 8.38433 12.7721 8.38433 12.6818 8.4024H12.6999ZM12.989 9.92027C12.989 9.92027 12.9528 9.92027 12.9348 9.92027C13.0251 9.92027 13.0974 9.92026 13.1697 9.90219C13.1155 9.90219 13.0612 9.92027 12.989 9.92027Z" fill="#78BDB6"/>
<path id="Vector_5" d="M11.0374 31.207C11.0374 31.207 10.8928 31.207 10.8025 31.2251C10.7121 31.2251 10.6218 31.207 10.5495 31.207C9.73633 31.207 9.73633 32.0021 9.71826 32.2551C9.71826 32.6165 9.79054 32.8695 9.95317 33.0502C10.17 33.267 10.4953 33.3031 10.7844 33.3031C11.0554 33.3031 11.3626 33.267 11.5795 33.0502C11.7963 32.8333 11.8144 32.5081 11.8144 32.2912C11.8144 31.966 11.8144 31.207 11.0193 31.207H11.0374ZM10.8025 33.014C10.8025 33.014 10.676 33.014 10.6218 33.014C10.694 33.014 10.7482 33.014 10.8386 33.014C10.8386 33.014 10.8386 33.014 10.8205 33.014H10.8025ZM10.7844 31.4961C10.6579 31.4781 10.5495 31.4781 10.4591 31.4961C10.4772 31.4961 10.4953 31.4961 10.5314 31.4961C10.6037 31.4961 10.694 31.4961 10.7844 31.5142C10.8747 31.5142 10.947 31.4961 11.0193 31.4961C11.0554 31.4961 11.0735 31.4961 11.1096 31.5142C11.0193 31.5142 10.9289 31.4961 10.7844 31.5142V31.4961Z" fill="#78BDB6"/>
</g>
</svg>
