<svg width="32" height="32" viewBox="0 0 32 32" fill="none" xmlns="http:<!-- www.w3.org/2000/svg">
<rect x="8" y="8" width="24" height="24" rx="4" fill="#C0E1DD"/>
<rect x="7" y="7" width="24" height="24" rx="4" fill="white"/>
<rect x="5" y="5" width="24" height="24" rx="4" fill="#A2D2CD"/>
<rect x="4" y="4" width="24" height="24" rx="4" fill="white"/>
<rect x="2" y="2" width="24" height="24" rx="4" fill="#A2D2CD"/>
<rect width="24" height="24" rx="4" fill="#EBF5F4"/>
<rect x="1" y="1" width="24" height="24" rx="4" fill="white"/>
<g clip-path="url(#clip0_7302_93813)">
<path d="M23.3191 7.42185C23.2987 7.13634 23.0676 6.91881 22.7889 6.90521C22.6801 6.90521 20.0901 6.78285 18.9685 6.90521C18.4315 6.96639 18.0032 7.20432 17.6701 7.47623C17.6701 7.47623 17.6701 7.46264 17.6633 7.46264L16.4329 5.71559C16.3513 5.60002 16.229 5.51845 16.093 5.49126C12.2318 4.64152 9.92055 5.47766 9.82538 5.51165C9.71661 5.55244 9.62144 5.62721 9.55346 5.72238L8.38423 7.46944C8.38423 7.46944 8.37064 7.49663 8.36384 7.51022C8.02394 7.22471 7.58888 6.96639 7.03146 6.90521C5.90981 6.77605 3.31982 6.89842 3.20426 6.90521C2.91875 6.91881 2.69442 7.14314 2.67403 7.42185C2.67403 7.46944 2.59245 8.61827 3.15667 9.82829C3.75489 11.1131 4.38709 11.7521 5.20283 11.8948C5.52913 11.9492 6.41965 11.9628 7.27618 11.9628C7.78602 11.9628 8.28226 11.9628 8.63575 11.9492L9.71661 19.2637C9.71661 19.2637 9.72341 19.3113 9.73021 19.3385C9.77779 19.4949 10.2604 20.8884 13.1155 20.8884C15.9706 20.8884 16.2358 19.4949 16.2426 19.3861L17.3166 11.956C17.6769 11.956 18.1935 11.9696 18.7238 11.9696C19.5803 11.9696 20.4708 11.956 20.7971 11.9016C21.6129 11.7589 22.2451 11.1267 22.8433 9.83509C23.4075 8.62507 23.3259 7.47623 23.3259 7.42865L23.3191 7.42185ZM9.40391 7.96568L10.376 6.51773C10.9198 6.36818 12.8028 5.95351 15.6375 6.54493L16.6504 7.98607L16.6844 8.44153L15.5764 16.1163C15.0257 15.9056 14.1828 15.6948 12.9592 15.6948C11.7356 15.6948 10.9198 15.8988 10.376 16.1095L9.36312 9.24368L9.39711 7.96568H9.40391ZM5.39317 10.7936C4.9921 10.7256 4.59102 10.2566 4.17635 9.36604C3.93843 8.8562 3.85006 8.35996 3.81607 8.00647C4.63861 7.97928 6.16813 7.93849 6.90909 8.02686C7.56169 8.10164 7.98995 8.71344 8.11911 8.91058L8.45901 10.8412C7.25579 10.8548 5.74666 10.8548 5.39997 10.7936H5.39317ZM13.1155 19.7736C11.3073 19.7736 10.8722 19.1414 10.8179 19.0462L10.5527 17.2652C10.9062 17.0884 11.6676 16.8165 12.966 16.8165C14.2644 16.8165 15.0529 17.0952 15.4132 17.272L15.1277 19.2297C15.1277 19.2297 14.9034 19.7804 13.1087 19.7804L13.1155 19.7736ZM21.8168 9.35924C21.4021 10.2498 21.0011 10.7188 20.6 10.7936C20.2601 10.8548 18.7442 10.8548 17.541 10.8412L17.8808 8.91058C18.01 8.70665 18.4383 8.09484 19.0909 8.02686C19.8318 7.94529 21.3613 7.97928 22.1839 8.00647C22.1499 8.35996 22.0547 8.8562 21.8236 9.35924H21.8168Z" fill="#A2D2CD"/>
</g>
<defs>
<clipPath id="clip0_7302_93813">
<rect width="20.6602" height="20.6602" fill="white" transform="translate(2.66992 2.66992)"/>
</clipPath>
</defs>
</svg>
