<svg width="25" height="25" viewBox="0 0 25 25" fill="none" xmlns="http://www.w3.org/2000/svg">
<g id="Livestock-icon-btn-list">
<rect x="0.701172" y="0.0786133" width="24" height="24" rx="4" fill="white" fill-opacity="0.2"/>
<g id="Group 1308">
<g id="Clip path group">
<mask id="mask0_4943_5714" style="mask-type:luminance" maskUnits="userSpaceOnUse" x="4" y="4" width="17" height="18">
<g id="h">
<path id="Vector" d="M4.70117 5.18465H20.7012V21.1847H4.70117V5.18465Z" fill="white" stroke="white" stroke-width="0.5"/>
</g>
</mask>
<g mask="url(#mask0_4943_5714)">
<g id="Group">
<g id="Clip path group_2">
<mask id="mask1_4943_5714" style="mask-type:luminance" maskUnits="userSpaceOnUse" x="-5" y="-4" width="34" height="35">
<g id="g">
<path id="Vector_2" d="M-3.07583 -3.4445L28.4779 -2.1599L27.2158 29.9573L-4.33789 28.6727L-3.07583 -3.4445Z" fill="white" stroke="white" stroke-width="0.5"/>
</g>
</mask>
<g mask="url(#mask1_4943_5714)">
<g id="Group_2">
<g id="Clip path group_3">
<mask id="mask2_4943_5714" style="mask-type:luminance" maskUnits="userSpaceOnUse" x="-5" y="-4" width="34" height="35">
<g id="f">
<path id="Vector_3" d="M-3.20097 -3.64445L28.5633 -2.35315L27.2936 29.9783L-4.4707 28.6859L-3.20097 -3.64445Z" fill="white" stroke="white" stroke-width="0.5"/>
</g>
</mask>
<g mask="url(#mask2_4943_5714)">
<g id="Group_3">
<g id="Clip path group_4">
<mask id="mask3_4943_5714" style="mask-type:luminance" maskUnits="userSpaceOnUse" x="-141" y="-61" width="204" height="170">
<g id="e">
<path id="Vector_4" d="M-133.657 -60.6637L61.9765 -52.705L55.6366 108.738L-139.996 100.779L-133.657 -60.6637Z" fill="white" stroke="white" stroke-width="0.5"/>
</g>
</mask>
<g mask="url(#mask3_4943_5714)">
<g id="Group_4">
<path id="Vector_5" d="M17.9749 8.97691C19.5221 9.25816 20.5879 10.8062 20.4431 12.3608C20.271 14.1923 18.1866 14.2169 16.9771 13.6053C16.9431 13.5874 16.9081 13.5863 16.8719 13.6008C16.8357 13.6153 16.8116 13.641 16.7995 13.6789C16.4958 14.5461 16.2962 15.42 16.1997 16.2995C16.0166 17.9858 15.9673 19.5216 14.3576 20.487C12.2567 21.7492 9.771 20.2481 9.46069 17.882C9.27209 16.439 9.19644 15.0472 8.5517 13.6466C8.53196 13.603 8.50126 13.593 8.46069 13.6164C6.57363 14.6823 4.19973 13.612 5.13394 11.0986C5.49578 10.122 6.22494 9.25816 7.29622 9.07736C7.34556 9.06955 7.37845 9.04164 7.396 8.99365C7.41464 8.94566 7.40696 8.90214 7.37516 8.86307C6.79731 8.14097 6.06815 6.59522 6.42889 5.63763C6.44644 5.58964 6.47604 5.55281 6.5188 5.52602C6.75126 5.37535 6.97056 5.39767 7.18547 5.58964C7.82253 6.16553 8.53525 6.59633 9.32582 6.88539C9.92999 7.10749 10.7984 7.20906 11.5451 7.3787C12.8127 7.66664 14.5396 7.29946 15.7765 6.92781C16.6526 6.66553 17.4234 6.2124 18.0879 5.56955C18.4464 5.22133 19.1164 5.39097 19.0638 5.97356C18.9651 7.06508 18.5923 8.03941 17.9442 8.89656C17.9333 8.91106 17.93 8.92781 17.9377 8.94566C17.9442 8.96352 17.9563 8.97356 17.9749 8.97691ZM15.1679 7.98361C15.7107 8.06285 16.2524 8.56062 16.5616 9.01932C16.5736 9.0383 16.5901 9.04946 16.612 9.05281C16.6328 9.05615 16.6526 9.05057 16.6712 9.0383C17.4344 8.4691 17.9344 7.7191 18.1723 6.78718C18.2293 6.56843 18.1679 6.5249 17.9881 6.65883C17.1098 7.30727 16.1317 7.70571 15.055 7.85414C15.0353 7.85526 15.0243 7.86642 15.0188 7.88539C15.0144 7.90548 15.021 7.91999 15.0374 7.93115C15.078 7.95906 15.1208 7.97691 15.1679 7.98361ZM7.14161 6.67557C7.29841 7.40325 7.91683 8.73807 8.68437 9.01039C8.73591 9.02937 8.78087 9.01709 8.81595 8.97468C9.16354 8.57066 9.57582 8.25593 10.0528 8.03048C10.0956 8.01151 10.1131 7.97914 10.1076 7.93227C10.1021 7.88651 10.0758 7.85861 10.0309 7.85191C9.00345 7.65883 8.07363 7.24477 7.24249 6.60861C7.21946 6.59187 7.19424 6.59075 7.17012 6.60749C7.1449 6.62312 7.13613 6.64656 7.14161 6.67557ZM9.97933 15.949C10.1076 17.555 10.1427 19.5461 12.0967 20.0762C13.339 20.4144 14.6712 19.6934 15.1076 18.4847C15.1855 18.2693 15.271 17.6957 15.3653 16.7637C15.4574 15.8352 15.6361 14.9233 15.9026 14.0316C16.2874 12.7336 16.7809 10.5483 15.8763 9.36531C15.6109 9.01821 15.1756 8.73919 14.5692 8.53048C13.1734 8.04499 11.771 8.1008 10.3642 8.69789C9.26222 9.1633 8.8949 10.4702 8.99468 11.6276C9.13613 13.2649 9.87516 14.6577 9.97933 15.949ZM17.2556 12.8541C18.0013 13.3307 18.7414 13.3474 19.4749 12.9044C19.5166 12.8798 19.5451 12.8452 19.5616 12.7995C19.9673 11.6957 19.4519 10.651 18.5835 10.0015C18.1197 9.6566 17.5988 9.73696 17.0813 9.87647C17.0331 9.88874 17.0111 9.91999 17.0155 9.9691C17.0868 10.7771 17.0934 11.5852 17.0353 12.3932C17.021 12.5974 17.0945 12.7504 17.2556 12.8541ZM5.6767 12.0059C5.46288 13.7626 8.65587 13.6242 8.33788 12.0506C8.19973 11.3675 8.21617 10.7057 8.38613 10.0651C8.3949 10.0338 8.39161 10.0048 8.37626 9.97691C8.36091 9.94901 8.33788 9.93004 8.30828 9.92111C6.85762 9.48919 5.83569 10.6756 5.6767 12.0059Z" fill="#325442" stroke="#325442" stroke-width="0.5"/>
</g>
</g>
</g>
</g>
</g>
</g>
</g>
</g>
</g>
</g>
</g>
</g>
<g id="Clip path group_5">
<mask id="mask4_4943_5714" style="mask-type:luminance" maskUnits="userSpaceOnUse" x="10" y="15" width="5" height="3">
<g id="d">
<path id="Vector_6" d="M11.0388 15.4023H10.9138V15.5273V16.9253V17.0503H11.0388H14.3636H14.4886V16.9253V15.5273V15.4023H14.3636H11.0388Z" fill="white" stroke="white" stroke-width="0.25"/>
</g>
</mask>
<g mask="url(#mask4_4943_5714)">
<g id="Group_5">
<g id="Clip path group_6">
<mask id="mask5_4943_5714" style="mask-type:luminance" maskUnits="userSpaceOnUse" x="-6" y="-2" width="36" height="29">
<g id="c">
<path id="Vector_7" d="M-4.28393 -0.954805L-4.40628 -0.958577L-4.41262 -0.836342L-5.77156 25.3547L-5.77818 25.4821L-5.65058 25.4861L28.3253 26.5337L28.4477 26.5374L28.454 26.4152L29.813 0.22418L29.8196 0.0966964L29.692 0.0927624L-4.28393 -0.954805Z" fill="white" stroke="white" stroke-width="0.25"/>
</g>
</mask>
<g mask="url(#mask5_4943_5714)">
<g id="Group_6">
<g id="Clip path group_7">
<mask id="mask6_4943_5714" style="mask-type:luminance" maskUnits="userSpaceOnUse" x="-7" y="-2" width="38" height="29">
<g id="b">
<path id="Vector_8" d="M-4.41825 -1.11765L-4.54059 -1.12141L-4.54693 -0.99918L-5.91414 25.3657L-5.92075 25.4931L-5.79316 25.4971L28.4095 26.551L28.5318 26.5548L28.5381 26.4326L29.9053 0.0667955L29.912 -0.0606901L29.7844 -0.0646185L-4.41825 -1.11765Z" fill="white" stroke="white" stroke-width="0.25"/>
</g>
</mask>
<g mask="url(#mask6_4943_5714)">
<g id="Group_7">
<g id="Clip path group_8">
<mask id="mask7_4943_5714" style="mask-type:luminance" maskUnits="userSpaceOnUse" x="-152" y="-48" width="219" height="139">
<g id="a">
<path id="Vector_9" d="M-144.892 -47.6157L-145.014 -47.6195L-145.02 -47.4972L-151.846 84.1568L-151.852 84.2843L-151.725 84.2882L58.9255 90.7784L59.0478 90.7822L59.0542 90.6599L65.8807 -40.9941L65.8873 -41.1216L65.7598 -41.1255L-144.892 -47.6157Z" fill="white" stroke="white" stroke-width="0.25"/>
</g>
</mask>
<g mask="url(#mask7_4943_5714)">
<g id="Group_8">
<path id="Vector_10" d="M11.356 16.7435L11.356 16.7435L11.3565 16.744C11.4017 16.7931 11.4592 16.8234 11.5225 16.8383L11.5225 16.8383L11.5233 16.8385C11.5869 16.8531 11.6506 16.8519 11.7134 16.8344L11.7134 16.8344L11.7158 16.8337L12.7603 16.5203C13.0307 16.5992 13.2872 16.6973 13.5297 16.8136C13.5864 16.8415 13.6472 16.858 13.711 16.8639C13.7743 16.8697 13.8369 16.8651 13.898 16.8497L13.898 16.8498L13.9002 16.8492C13.9605 16.8329 14.0159 16.8077 14.0659 16.7716C14.1176 16.7343 14.1586 16.6873 14.186 16.6325C14.257 16.4914 14.2412 16.3529 14.1721 16.2354C14.1072 16.125 13.9978 16.0362 13.8818 15.9675C13.1198 15.5147 12.3315 15.5185 11.533 15.9737L11.533 15.9737C11.3756 16.0635 11.2529 16.176 11.2159 16.322C11.1769 16.476 11.2437 16.62 11.356 16.7435Z" fill="#325442" stroke="#325442" stroke-width="0.25"/>
</g>
</g>
</g>
</g>
</g>
</g>
</g>
</g>
</g>
</g>
</g>
</g>
</g>
</g>
</svg>
