<svg width="24" height="24" viewBox="0 0 24 24" fill="none" xmlns="http://www.w3.org/2000/svg">
<g id="Livestock-icon-btn-list">
<rect width="24" height="24" rx="4" fill="white" fill-opacity="0.2"/>
<g id="Group 1308">
<g id="Clip path group">
<mask id="mask0_2959_49605" style="mask-type:luminance" maskUnits="userSpaceOnUse" x="3" y="4" width="18" height="18">
<g id="h">
<path id="Vector" d="M4 5.10604H20V21.106H4V5.10604Z" fill="white" stroke="white" stroke-width="0.5"/>
</g>
</mask>
<g mask="url(#mask0_2959_49605)">
<g id="Group">
<g id="Clip path group_2">
<mask id="mask1_2959_49605" style="mask-type:luminance" maskUnits="userSpaceOnUse" x="-6" y="-4" width="35" height="35">
<g id="g">
<path id="Vector_2" d="M-3.777 -3.52311L27.7767 -2.23851L26.5147 29.8787L-5.03906 28.5941L-3.777 -3.52311Z" fill="white" stroke="white" stroke-width="0.5"/>
</g>
</mask>
<g mask="url(#mask1_2959_49605)">
<g id="Group_2">
<g id="Clip path group_3">
<mask id="mask2_2959_49605" style="mask-type:luminance" maskUnits="userSpaceOnUse" x="-6" y="-4" width="35" height="35">
<g id="f">
<path id="Vector_3" d="M-3.90214 -3.72306L27.8621 -2.43177L26.5924 29.8997L-5.17188 28.6073L-3.90214 -3.72306Z" fill="white" stroke="white" stroke-width="0.5"/>
</g>
</mask>
<g mask="url(#mask2_2959_49605)">
<g id="Group_3">
<g id="Clip path group_4">
<mask id="mask3_2959_49605" style="mask-type:luminance" maskUnits="userSpaceOnUse" x="-141" y="-62" width="203" height="171">
<g id="e">
<path id="Vector_4" d="M-134.358 -60.7423L61.2753 -52.7836L54.9354 108.659L-140.697 100.701L-134.358 -60.7423Z" fill="white" stroke="white" stroke-width="0.5"/>
</g>
</mask>
<g mask="url(#mask3_2959_49605)">
<g id="Group_4">
<path id="Vector_5" d="M17.2738 8.8983C18.8209 9.17955 19.8867 10.7275 19.742 12.2822C19.5698 14.1137 17.4854 14.1383 16.276 13.5266C16.242 13.5088 16.2069 13.5077 16.1707 13.5222C16.1345 13.5367 16.1104 13.5624 16.0983 13.6003C15.7946 14.4675 15.595 15.3414 15.4986 16.2208C15.3154 17.9072 15.2661 19.4429 13.6564 20.4083C11.5556 21.6706 9.06982 20.1695 8.75952 17.8034C8.57092 16.3604 8.49526 14.9686 7.85053 13.5679C7.83079 13.5244 7.80009 13.5144 7.75952 13.5378C5.87246 14.6037 3.49855 13.5333 4.43276 11.02C4.79461 10.0434 5.52377 9.17955 6.59504 8.99875C6.64439 8.99093 6.67728 8.96303 6.69482 8.91504C6.71347 8.86705 6.70579 8.82352 6.67399 8.78446C6.09614 8.06236 5.36697 6.5166 5.72772 5.55901C5.74526 5.51102 5.77487 5.47419 5.81763 5.44741C6.05009 5.29674 6.26939 5.31906 6.4843 5.51102C7.12136 6.08692 7.83408 6.51772 8.62465 6.80678C9.22882 7.02888 10.0972 7.13044 10.8439 7.30008C12.1115 7.58803 13.8385 7.22084 15.0753 6.84919C15.9514 6.58692 16.7222 6.13379 17.3867 5.49093C17.7453 5.14272 18.4152 5.31236 18.3626 5.89495C18.2639 6.98647 17.8911 7.9608 17.2431 8.81794C17.2321 8.83245 17.2288 8.84919 17.2365 8.86705C17.2431 8.88491 17.2551 8.89495 17.2738 8.8983ZM14.4668 7.905C15.0095 7.98424 15.5512 8.482 15.8604 8.94071C15.8725 8.95968 15.8889 8.97084 15.9108 8.97419C15.9317 8.97754 15.9514 8.97196 15.97 8.95968C16.7332 8.39049 17.2332 7.64049 17.4711 6.70857C17.5282 6.48982 17.4668 6.44629 17.2869 6.58022C16.4086 7.22866 15.4306 7.62709 14.3538 7.77553C14.3341 7.77665 14.3231 7.78781 14.3176 7.80678C14.3132 7.82687 14.3198 7.84138 14.3363 7.85254C14.3768 7.88044 14.4196 7.8983 14.4668 7.905ZM6.44044 6.59696C6.59724 7.32464 7.21566 8.65946 7.9832 8.93178C8.03474 8.95075 8.07969 8.93848 8.11478 8.89607C8.46237 8.49205 8.87465 8.17732 9.35162 7.95187C9.39439 7.9329 9.41193 7.90053 9.40645 7.85366C9.40096 7.8079 9.37465 7.78 9.32969 7.7733C8.30228 7.58022 7.37246 7.16616 6.54132 6.53C6.51829 6.51325 6.49307 6.51214 6.46895 6.52888C6.44373 6.5445 6.43496 6.56794 6.44044 6.59696ZM9.27816 15.8704C9.40645 17.4764 9.44154 19.4675 11.3955 19.9976C12.6378 20.3358 13.97 19.6148 14.4064 18.4061C14.4843 18.1907 14.5698 17.617 14.6641 16.6851C14.7562 15.7566 14.935 14.8447 15.2014 13.953C15.5863 12.655 16.0797 10.4697 15.1751 9.28669C14.9097 8.93959 14.4744 8.66058 13.8681 8.45187C12.4722 7.96638 11.0698 8.02218 9.66303 8.61928C8.56105 9.08468 8.19373 10.3916 8.29351 11.549C8.43496 13.1862 9.17399 14.5791 9.27816 15.8704ZM16.5545 12.7755C17.3001 13.2521 18.0402 13.2688 18.7738 12.8258C18.8154 12.8012 18.8439 12.7666 18.8604 12.7208C19.2661 11.617 18.7507 10.5724 17.8823 9.92285C17.4185 9.57799 16.8977 9.65834 16.3801 9.79785C16.3319 9.81013 16.31 9.84138 16.3143 9.89049C16.3856 10.6985 16.3922 11.5066 16.3341 12.3146C16.3198 12.5188 16.3933 12.6717 16.5545 12.7755ZM4.97553 11.9273C4.76171 13.684 7.95469 13.5456 7.63671 11.972C7.49855 11.2889 7.515 10.6271 7.68496 9.98647C7.69373 9.95522 7.69044 9.9262 7.67509 9.8983C7.65974 9.8704 7.63671 9.85142 7.60711 9.8425C6.15645 9.41058 5.13452 10.597 4.97553 11.9273Z" fill="#325442" stroke="#325442" stroke-width="0.5"/>
</g>
</g>
</g>
</g>
</g>
</g>
</g>
</g>
</g>
</g>
</g>
</g>
<g id="Clip path group_5">
<mask id="mask4_2959_49605" style="mask-type:luminance" maskUnits="userSpaceOnUse" x="10" y="15" width="4" height="3">
<g id="d">
<path id="Vector_6" d="M10.3376 15.3237H10.2126V15.4487V16.8467V16.9717H10.3376H13.6624H13.7874V16.8467V15.4487V15.3237H13.6624H10.3376Z" fill="white" stroke="white" stroke-width="0.25"/>
</g>
</mask>
<g mask="url(#mask4_2959_49605)">
<g id="Group_5">
<g id="Clip path group_6">
<mask id="mask5_2959_49605" style="mask-type:luminance" maskUnits="userSpaceOnUse" x="-7" y="-2" width="37" height="29">
<g id="c">
<path id="Vector_7" d="M-4.98511 -1.03342L-5.10745 -1.03719L-5.11379 -0.914955L-6.47273 25.2761L-6.47935 25.4035L-6.35175 25.4075L27.6242 26.455L27.7465 26.4588L27.7529 26.3366L29.1118 0.145567L29.1184 0.0180832L28.9908 0.0141491L-4.98511 -1.03342Z" fill="white" stroke="white" stroke-width="0.25"/>
</g>
</mask>
<g mask="url(#mask5_2959_49605)">
<g id="Group_6">
<g id="Clip path group_7">
<mask id="mask6_2959_49605" style="mask-type:luminance" maskUnits="userSpaceOnUse" x="-7" y="-2" width="37" height="29">
<g id="b">
<path id="Vector_8" d="M-5.11942 -1.19626L-5.24176 -1.20003L-5.2481 -1.07779L-6.61531 25.2871L-6.62192 25.4145L-6.49433 25.4185L27.7083 26.4724L27.8306 26.4762L27.837 26.3539L29.2042 -0.0118178L29.2108 -0.139303L29.0832 -0.143232L-5.11942 -1.19626Z" fill="white" stroke="white" stroke-width="0.25"/>
</g>
</mask>
<g mask="url(#mask6_2959_49605)">
<g id="Group_7">
<g id="Clip path group_8">
<mask id="mask7_2959_49605" style="mask-type:luminance" maskUnits="userSpaceOnUse" x="-153" y="-48" width="219" height="139">
<g id="a">
<path id="Vector_9" d="M-145.593 -47.6943L-145.715 -47.6981L-145.722 -47.5758L-152.547 84.0782L-152.554 84.2057L-152.426 84.2096L58.2243 90.6998L58.3466 90.7036L58.353 90.5813L65.1796 -41.0727L65.1862 -41.2002L65.0586 -41.2041L-145.593 -47.6943Z" fill="white" stroke="white" stroke-width="0.25"/>
</g>
</mask>
<g mask="url(#mask7_2959_49605)">
<g id="Group_8">
<path id="Vector_10" d="M10.6549 16.6649L10.6549 16.6649L10.6554 16.6654C10.7005 16.7144 10.758 16.7448 10.8214 16.7597L10.8214 16.7597L10.8221 16.7599C10.8858 16.7745 10.9494 16.7732 11.0122 16.7557L11.0123 16.7558L11.0146 16.755L12.0591 16.4417C12.3296 16.5206 12.586 16.6186 12.8285 16.735C12.8853 16.7629 12.946 16.7794 13.0098 16.7853C13.0731 16.7911 13.1357 16.7865 13.1969 16.7711L13.1969 16.7712L13.1991 16.7706C13.2593 16.7543 13.3147 16.7291 13.3648 16.693C13.4165 16.6557 13.4575 16.6087 13.4848 16.5539C13.5558 16.4128 13.5401 16.2743 13.471 16.1568C13.406 16.0464 13.2966 15.9576 13.1807 15.8889C12.4187 15.4361 11.6303 15.4399 10.8318 15.8951L10.8318 15.8951C10.6745 15.9849 10.5517 16.0974 10.5147 16.2434C10.4757 16.3974 10.5425 16.5414 10.6549 16.6649Z" fill="#325442" stroke="#325442" stroke-width="0.25"/>
</g>
</g>
</g>
</g>
</g>
</g>
</g>
</g>
</g>
</g>
</g>
</g>
</g>
</g>
</svg>
