<svg width="21" height="20" viewBox="0 0 21 20" fill="none" xmlns="http://www.w3.org/2000/svg">
<path id="Union" fill-rule="evenodd" clip-rule="evenodd" d="M18.9916 1.049C18.8741 2.35842 18.4292 3.55871 17.6738 4.60792H17.6906C19.5876 5.07796 20.9557 6.99172 20.7627 9.0062C20.6787 9.83717 20.2842 10.4751 19.6211 10.8444C18.5552 11.432 17.0611 11.2221 16.1042 10.7605C15.7349 11.8013 15.4915 12.8673 15.374 13.9249L15.332 14.353L15.3303 14.3686C15.1211 16.3101 14.9237 18.1416 12.9314 19.3136C12.2515 19.7165 11.5129 19.918 10.7742 19.918C10.1531 19.918 9.53196 19.7753 8.94441 19.4899C7.55945 18.8184 6.60258 17.4754 6.39274 15.9142C6.35077 15.6288 6.31719 15.3434 6.28362 15.058C6.10735 13.5975 5.93948 12.2126 5.30995 10.8192C3.95857 11.5159 2.38896 11.432 1.44047 10.6178C0.592714 9.88753 0.391266 8.69563 0.903279 7.35265C1.44887 5.90894 2.47289 4.95206 3.73194 4.70864C2.93455 3.69301 2.07 1.77925 2.54844 0.536991C2.59041 0.436267 2.65755 0.352331 2.74988 0.293575C3.11921 0.0585524 3.50531 0.0921271 3.84945 0.394299C4.63007 1.09097 5.51979 1.61977 6.49346 1.97231C6.95424 2.13398 7.57072 2.24895 8.17795 2.36219C8.20123 2.36653 8.22449 2.37087 8.24773 2.3752C8.36245 2.39759 8.4781 2.41904 8.59374 2.44049C8.82504 2.48339 9.05632 2.52629 9.28015 2.57665C10.9505 2.94597 13.2923 2.3836 14.543 2.01428C15.6174 1.69532 16.5742 1.14134 17.3884 0.369118C17.6906 0.0753398 18.1523 -0.000203155 18.5216 0.176064C18.8489 0.335543 19.0252 0.662896 18.9916 1.049ZM13.8715 14.4621C13.989 13.287 14.2156 12.1286 14.5598 11.0123L14.5766 11.0039C15.3823 8.30952 15.3907 6.42095 14.5766 5.38013C14.266 4.98563 13.7372 4.65828 13.0153 4.41486C12.2515 4.15466 11.4709 4.02036 10.6987 4.02036C9.74181 4.02036 8.78493 4.22181 7.82805 4.61631C6.46828 5.17869 6.11574 6.81545 6.22486 8.04932C6.31474 9.07883 6.60346 10.0209 6.88198 10.9296C6.88958 10.9544 6.89717 10.9791 6.90475 11.0039C7.16495 11.8516 7.40837 12.649 7.47552 13.4381L7.5007 13.7906C7.64339 15.6792 7.81126 17.8111 10.002 18.3987C11.4457 18.7932 13.0405 17.9622 13.5609 16.5521C13.6197 16.3842 13.7288 15.8806 13.8715 14.4621ZM14.3751 3.47477C14.9207 3.71819 15.3991 4.18823 15.7097 4.60792V4.59952C16.5239 3.97839 17.0947 3.15581 17.3884 2.16536C16.4651 2.80328 15.4579 3.23975 14.3751 3.47477ZM18.0347 6.22789C17.5731 5.89215 17.0443 5.92572 16.398 6.0852C16.4819 7.06726 16.4903 8.06611 16.4148 9.04817C16.398 9.22443 16.4567 9.34194 16.591 9.42588C17.4724 9.97986 18.3201 9.99665 19.1847 9.48464C19.7135 8.09129 18.9329 6.89099 18.0347 6.22789ZM4.57131 9.61054C4.79794 9.45106 5.04975 9.14889 4.94902 8.65366L4.94063 8.64527C4.76436 7.78072 4.78115 6.93296 4.99099 6.11878C4.79794 6.06841 4.59649 6.04323 4.40344 6.04323C3.99215 6.04323 3.58925 6.16075 3.22832 6.39577C2.56522 6.83224 2.11197 7.64642 1.99446 8.57812C1.91891 9.18246 2.23787 9.50982 2.51486 9.67769C3.09403 10.0218 4.03412 9.98826 4.57131 9.61054ZM3.96929 2.22309C4.88148 2.84865 5.9018 3.28267 6.99708 3.52514C6.48506 3.80213 6.03181 4.15466 5.6457 4.59113C4.91743 4.30652 4.25594 3.12864 3.96929 2.22309ZM9.2298 14.7812C10.2035 14.0594 11.1771 14.051 12.1088 14.7728H12.1172C12.4865 15.0582 12.6292 15.4275 12.4865 15.7885C12.453 15.8724 12.4026 15.9479 12.3355 16.0151C12.2683 16.0738 12.1928 16.1158 12.1088 16.1494C12.0417 16.1746 11.9829 16.183 11.9158 16.183H11.8402C11.7563 16.1746 11.664 16.141 11.5884 16.0906C11.3198 15.9228 11.026 15.7801 10.7323 15.6626L9.54037 16.1242C9.43964 16.1578 9.33892 16.1578 9.24659 16.1326C9.15426 16.1074 9.07032 16.0487 9.01157 15.9647C8.70939 15.5367 8.79333 15.1086 9.2298 14.7812Z" fill="#FFF8E6"/>
</svg>
