<svg width="16" height="22" viewBox="0 0 16 22" fill="none" xmlns="http://www.w3.org/2000/svg">
<path d="M12.1815 6.13196L12.5277 5.76097C12.9317 5.34877 13.1708 4.77168 13.1708 4.16985C13.1708 2.96621 12.2639 1.9934 11.151 1.9934C10.747 1.9934 10.4584 2.09233 10.2523 2.23248C9.82365 1.3009 9.18885 0.484726 8.10887 0.484726C6.88049 0.484726 6.21272 1.3009 5.817 2.22424C5.56143 2.0676 5.23991 1.9934 4.86068 1.9934C3.74772 1.9934 2.84087 2.96621 2.84087 4.16985C2.84087 4.79641 3.22834 5.5054 3.44269 5.71975C3.49216 5.76922 3.64879 5.94234 3.82192 6.13196C1.80211 7.3356 0.57373 9.32244 0.57373 11.4824V16.0249C0.57373 17.3193 1.95874 18.2756 4.45672 18.7537V19.6359C4.45672 20.6746 5.3883 21.5155 6.54248 21.5155C7.04537 21.5155 7.60598 21.3589 8.01818 20.8313C8.46337 21.3919 9.04046 21.5155 9.46915 21.5155C10.6151 21.5155 11.5467 20.6746 11.5467 19.6359V18.7537C14.0446 18.2756 15.4297 17.3275 15.4297 16.0249V11.4824C15.4297 9.32244 14.2013 7.3356 12.1897 6.13196H12.1815ZM4.84419 3.23002C5.07503 3.23002 5.15747 3.27949 5.17396 3.29598C5.28938 3.43613 5.14922 4.0297 5.09976 4.2523C5.00083 4.67275 4.9019 5.10969 5.27289 5.40648L5.93242 5.92586L6.22921 5.14266C6.32814 4.87061 6.41058 4.54909 6.49302 4.1781C6.82279 2.78484 7.14431 1.72959 8.08414 1.72959C8.86733 1.72959 9.31251 3.19705 9.6093 4.16985C9.71648 4.52435 9.81541 4.83763 9.90609 5.06022L10.1781 5.71151L10.7882 5.35701C11.2416 5.0932 11.118 4.58206 11.019 4.21932C10.8789 3.69169 10.8459 3.37017 10.9036 3.27949C10.9036 3.27949 10.9613 3.24651 11.1345 3.24651C11.5714 3.24651 11.9177 3.66696 11.9177 4.18634C11.9177 4.4584 11.8187 4.72221 11.6209 4.92007L10.7635 5.85166L7.99345 7.97865L5.20694 5.85166C5.04205 5.67853 4.39901 4.96954 4.30832 4.87885C4.23413 4.77992 4.05276 4.40893 4.05276 4.18634C4.05276 3.66696 4.40725 3.24651 4.83595 3.24651L4.84419 3.23002ZM4.53092 15.3571L7.95223 12.5871L11.4395 15.3571L10.3018 15.7776L7.95223 16.6515L4.91839 15.5055L4.53092 15.3571ZM10.3018 19.6276C10.3018 19.9739 9.91434 20.2707 9.46091 20.2707C8.78489 20.2707 8.62825 19.2731 8.62001 18.4405H8.0017H7.38339C7.38339 20.2624 6.78981 20.2624 6.54248 20.2624C6.08081 20.2624 5.69334 19.9656 5.69334 19.6194V17.1131L7.95223 17.9705L10.3101 17.0967V19.6194L10.3018 19.6276ZM14.1848 16.0249C14.1848 16.5031 13.3604 17.1214 11.5384 17.5006V16.6432L13.9292 15.7611L7.94399 11.0125L2.07416 15.7611L4.44847 16.6597V17.5006C2.62652 17.1214 1.8021 16.5113 1.8021 16.0249V11.4824C1.8021 9.66869 2.91507 7.98689 4.72878 7.02233L8.00994 9.5203L11.2664 7.02233C13.0801 7.98689 14.193 9.66869 14.193 11.4824V16.0249H14.1848Z" fill="#FFF8E6"/>
</svg>
