<svg width="25" height="25" viewBox="0 0 25 25" fill="none" xmlns="http://www.w3.org/2000/svg">
<g id="Livestock-icon-btn-list">
<rect x="0.701172" y="0.0786133" width="24" height="24" rx="4" fill="white" fill-opacity="0.2"/>
<path id="Vector" d="M15.384 7.86078L15.0146 7.52372L15.0107 7.5281L15.384 7.86078ZM12.7195 10.8503L12.3475 11.1844C12.4425 11.2903 12.5782 11.3506 12.7204 11.3503C12.8627 11.35 12.9981 11.2892 13.0927 11.183L12.7195 10.8503ZM10.0343 7.86078L10.4062 7.52666L10.405 7.52533L10.0343 7.86078ZM10.2552 17.8859L10.1806 18.3803C10.3246 18.402 10.4709 18.3599 10.5813 18.2649C10.6917 18.1699 10.7552 18.0315 10.7552 17.8859H10.2552ZM10.2552 16.1966H10.7552C10.7552 15.9889 10.6268 15.8028 10.4326 15.7291L10.2552 16.1966ZM8.77794 15.6358L8.47592 15.2373C8.33101 15.3471 8.25714 15.527 8.28303 15.707C8.30892 15.887 8.43048 16.0387 8.60048 16.1032L8.77794 15.6358ZM12.6642 12.6902L12.9625 12.289C12.7841 12.1563 12.5395 12.1574 12.3622 12.2918L12.6642 12.6902ZM16.6265 15.6358L16.8001 16.1047C16.9721 16.041 17.0954 15.8883 17.1214 15.7067C17.1474 15.5252 17.072 15.3439 16.9248 15.2345L16.6265 15.6358ZM15.1493 16.1827L14.9757 15.7138C14.7795 15.7865 14.6493 15.9735 14.6493 16.1827H15.1493ZM15.1493 17.879H14.6493C14.6493 18.0249 14.713 18.1636 14.8238 18.2586C14.9347 18.3536 15.0814 18.3954 15.2257 18.3731L15.1493 17.879ZM16.1295 7.04381L15.7703 6.69595C15.7669 6.69951 15.7635 6.70312 15.7601 6.70678L16.1295 7.04381ZM14.3585 6.72318L13.8975 6.91688C13.9965 7.15232 14.257 7.27536 14.5016 7.20225C14.7463 7.12913 14.8966 6.88336 14.8502 6.63224L14.3585 6.72318ZM11.0627 6.72318L10.5777 6.60171C10.5133 6.85899 10.661 7.12182 10.9142 7.20061C11.1675 7.27939 11.4382 7.14671 11.5311 6.89828L11.0627 6.72318ZM15.1562 16.1896H15.6562C15.6562 16.0184 15.5686 15.8591 15.424 15.7674C15.2794 15.6757 15.0979 15.6644 14.9431 15.7373L15.1562 16.1896ZM12.7057 17.3443L12.4942 17.7974C12.6288 17.8602 12.7844 17.8599 12.9188 17.7966L12.7057 17.3443ZM10.2621 16.2035L10.4736 15.7504C10.3187 15.6781 10.1377 15.6899 9.9935 15.7817C9.84934 15.8735 9.76205 16.0326 9.76205 16.2035H10.2621ZM9.75849 17.8859V19.0559H10.7585V17.8859H9.75849ZM9.75849 19.0559C9.75849 19.9786 10.6043 20.6152 11.4803 20.6152V19.6152C11.0171 19.6152 10.7585 19.2965 10.7585 19.0559H9.75849ZM11.4803 20.6152C11.8821 20.6152 12.221 20.4916 12.4871 20.2691C12.7445 20.0538 12.9019 19.7728 13.0005 19.5046C13.1933 18.9804 13.2021 18.3866 13.2021 18.0659H12.2021C12.2021 18.3891 12.1868 18.82 12.062 19.1595C12.0018 19.3231 11.9272 19.4337 11.8455 19.5021C11.7724 19.5631 11.6652 19.6152 11.4803 19.6152V20.6152ZM15.0107 7.5281L12.3462 10.5176L13.0927 11.183L15.7572 8.19346L15.0107 7.5281ZM13.0914 10.5162L10.4062 7.52666L9.66228 8.19489L12.3475 11.1844L13.0914 10.5162ZM9.82488 7.40673C7.88166 8.30283 6.50391 10.1079 6.50391 12.2156H7.50391C7.50391 10.5708 8.58357 9.08035 10.2436 8.31483L9.82488 7.40673ZM6.50391 12.2156V16.0304H7.50391V12.2156H6.50391ZM6.50391 16.0304C6.50391 16.7917 7.07081 17.3165 7.70642 17.6542C8.36041 18.0015 9.23582 18.2378 10.1806 18.3803L10.3297 17.3915C9.43833 17.257 8.68811 17.0433 8.17552 16.771C7.64454 16.489 7.50391 16.2245 7.50391 16.0304H6.50391ZM10.7552 17.8859V16.1966H9.75515V17.8859H10.7552ZM10.4326 15.7291L8.9554 15.1683L8.60048 16.1032L10.0777 16.664L10.4326 15.7291ZM9.07996 16.0343L12.9663 13.0887L12.3622 12.2918L8.47592 15.2373L9.07996 16.0343ZM12.3659 13.0915L16.3282 16.037L16.9248 15.2345L12.9625 12.289L12.3659 13.0915ZM16.4529 15.1669L14.9757 15.7138L15.3229 16.6516L16.8001 16.1047L16.4529 15.1669ZM14.6493 16.1827V17.879H15.6493V16.1827H14.6493ZM15.2257 18.3731C16.1692 18.2272 17.044 17.9911 17.6975 17.6449C18.3326 17.3085 18.9005 16.7855 18.9005 16.0235H17.9005C17.9005 16.2169 17.7609 16.4797 17.2294 16.7612C16.7163 17.033 15.9655 17.2468 15.0729 17.3848L15.2257 18.3731ZM18.9005 16.0235V12.2087H17.9005V16.0235H18.9005ZM18.9005 12.2087C18.9005 10.1007 17.5295 8.31045 15.5955 7.4077L15.1725 8.31385C16.8279 9.08657 17.9005 10.5642 17.9005 12.2087H18.9005ZM15.7533 8.19781L16.4988 7.38085L15.7601 6.70678L15.0146 7.52375L15.7533 8.19781ZM16.4886 7.39167C16.8108 7.05902 17.016 6.59612 17.016 6.07454H16.016C16.016 6.32837 15.9175 6.54396 15.7703 6.69595L16.4886 7.39167ZM17.016 6.07454C17.016 5.13188 16.3182 4.26601 15.3426 4.26601V5.26601C15.6646 5.26601 16.016 5.57712 16.016 6.07454H17.016ZM15.3426 4.26601C14.8674 4.26601 14.495 4.4468 14.2393 4.74873C14.001 5.03016 13.898 5.37645 13.852 5.66612C13.805 5.96165 13.8098 6.24745 13.8242 6.45245C13.8315 6.55662 13.8416 6.64395 13.8501 6.70638C13.8544 6.73767 13.8582 6.76293 13.8612 6.78117C13.8627 6.7903 13.8639 6.79768 13.8649 6.80321C13.8654 6.80597 13.8658 6.80827 13.8661 6.8101C13.8663 6.81101 13.8664 6.8118 13.8665 6.81247C13.8666 6.8128 13.8667 6.81311 13.8667 6.81338C13.8667 6.81352 13.8668 6.8137 13.8668 6.81377C13.8668 6.81395 13.8668 6.81411 14.3585 6.72318C14.8502 6.63224 14.8502 6.63239 14.8502 6.63253C14.8502 6.63257 14.8502 6.63271 14.8503 6.63279C14.8503 6.63294 14.8503 6.63307 14.8503 6.63317C14.8504 6.63336 14.8504 6.63345 14.8504 6.63342C14.8504 6.63336 14.8503 6.63285 14.8501 6.63191C14.8498 6.63003 14.8492 6.62643 14.8483 6.62122C14.8466 6.61079 14.844 6.594 14.841 6.57178C14.835 6.52718 14.8273 6.4616 14.8217 6.38229C14.8103 6.22032 14.8088 6.01682 14.8396 5.82307C14.8713 5.62344 14.9301 5.48044 15.0025 5.3949C15.0576 5.32986 15.1447 5.26601 15.3426 5.26601V4.26601ZM14.8194 6.52947C14.7572 6.38136 14.7056 6.13416 14.6424 5.77851C14.5836 5.44805 14.5179 5.04555 14.4196 4.67026C14.3225 4.29948 14.1801 3.89751 13.9374 3.58085C13.6781 3.24248 13.2993 2.99902 12.7885 2.99902V3.99902C12.9369 3.99902 13.04 4.05387 13.1437 4.18913C13.264 4.34611 13.3656 4.5931 13.4522 4.92363C13.5376 5.24967 13.5951 5.60085 13.6578 5.95346C13.716 6.28087 13.7838 6.64612 13.8975 6.91688L14.8194 6.52947ZM12.7885 2.99902C12.2463 2.99902 11.8233 3.20401 11.5165 3.54232C11.2277 3.86081 11.0671 4.26931 10.9642 4.64763C10.8606 5.02892 10.802 5.43525 10.7515 5.77123C10.6972 6.13272 10.6549 6.38622 10.5944 6.54807L11.5311 6.89828C11.6362 6.61703 11.6914 6.24597 11.7404 5.91984C11.7933 5.56821 11.8439 5.22389 11.9292 4.90992C12.0154 4.59297 12.1235 4.36161 12.2573 4.21403C12.3732 4.08628 12.5265 3.99902 12.7885 3.99902V2.99902ZM11.0627 6.72318C11.5478 6.84464 11.5478 6.84447 11.5478 6.84428C11.5479 6.84421 11.5479 6.84402 11.5479 6.84388C11.548 6.84359 11.5481 6.84328 11.5482 6.84293C11.5484 6.84224 11.5486 6.84142 11.5488 6.84049C11.5492 6.83862 11.5498 6.83627 11.5505 6.83345C11.5518 6.82782 11.5536 6.82032 11.5557 6.81108C11.5598 6.79261 11.5653 6.76709 11.5715 6.7355C11.5839 6.67249 11.5993 6.58438 11.6124 6.47921C11.6381 6.27271 11.6574 5.98278 11.6192 5.68163C11.5816 5.38532 11.4821 5.02912 11.2281 4.74114C10.9583 4.43512 10.5674 4.26601 10.0757 4.26601V5.26601C10.3226 5.26601 10.4243 5.34154 10.4781 5.40249C10.5477 5.48148 10.6026 5.61458 10.6271 5.80756C10.651 5.99569 10.6401 6.19505 10.6201 6.35552C10.6103 6.43384 10.5989 6.49863 10.5903 6.54266C10.586 6.56458 10.5824 6.58111 10.5801 6.59131C10.579 6.5964 10.5781 6.59989 10.5777 6.60167C10.5775 6.60256 10.5774 6.60302 10.5774 6.60303C10.5774 6.60303 10.5774 6.60293 10.5775 6.60271C10.5775 6.6026 10.5775 6.60246 10.5776 6.60229C10.5776 6.60221 10.5776 6.60206 10.5776 6.60202C10.5777 6.60187 10.5777 6.60171 11.0627 6.72318ZM10.0757 4.26601C9.10002 4.26601 8.40219 5.13188 8.40219 6.07454H9.40219C9.40219 5.57712 9.7536 5.26601 10.0757 5.26601V4.26601ZM8.40219 6.07454C8.40219 6.35538 8.49295 6.63521 8.57995 6.83781C8.62566 6.94426 8.67616 7.04282 8.72551 7.12602C8.76932 7.19989 8.82956 7.29142 8.90016 7.36222L9.60832 6.65617C9.62714 6.67505 9.61749 6.66965 9.58559 6.61587C9.55922 6.57142 9.52818 6.51161 9.49882 6.44324C9.43568 6.29621 9.40219 6.16063 9.40219 6.07454H8.40219ZM8.90016 7.36222C8.94159 7.40378 9.12575 7.60454 9.3134 7.8106C9.40412 7.9102 9.49166 8.00663 9.55655 8.07819C9.58899 8.11396 9.61574 8.1435 9.63438 8.16408C9.6437 8.17437 9.65099 8.18242 9.65594 8.18789C9.65841 8.19062 9.66031 8.19271 9.66158 8.19412C9.66221 8.19482 9.66269 8.19535 9.66301 8.1957C9.66317 8.19588 9.66329 8.19601 9.66337 8.1961C9.66341 8.19614 9.66344 8.19617 9.66346 8.1962C9.66347 8.19621 9.66347 8.19621 9.66348 8.19622C9.66348 8.19622 9.66348 8.19622 10.0343 7.86078C10.405 7.52533 10.405 7.52533 10.405 7.52532C10.405 7.52531 10.405 7.5253 10.405 7.52529C10.405 7.52527 10.4049 7.52523 10.4049 7.52518C10.4048 7.52509 10.4047 7.52495 10.4045 7.52477C10.4042 7.5244 10.4037 7.52386 10.4031 7.52314C10.4018 7.52171 10.3998 7.51959 10.3973 7.51682C10.3923 7.51129 10.385 7.50317 10.3756 7.49281C10.3568 7.4721 10.3299 7.4424 10.2973 7.40645C10.2321 7.33457 10.1441 7.23757 10.0527 7.13727C9.87628 6.9435 9.67043 6.71847 9.60832 6.65617L8.90016 7.36222ZM12.2057 18.0713C12.2093 18.4042 12.238 18.9921 12.4385 19.5119C12.5403 19.7761 12.6977 20.0526 12.9466 20.2655C13.205 20.4866 13.5349 20.6152 13.9275 20.6152V19.6152C13.7678 19.6152 13.6698 19.5682 13.5966 19.5056C13.514 19.4349 13.4362 19.3198 13.3715 19.1521C13.2389 18.8082 13.209 18.3715 13.2056 18.0605L12.2057 18.0713ZM13.9275 20.6152C14.8123 20.6152 15.6493 19.9769 15.6493 19.0559H14.6493C14.6493 19.2981 14.3956 19.6152 13.9275 19.6152V20.6152ZM15.6493 19.0559V17.8859H14.6493V19.0559H15.6493ZM15.6562 17.8859V16.1896H14.6562V17.8859H15.6562ZM14.9431 15.7373L12.4925 16.892L12.9188 17.7966L15.3693 16.642L14.9431 15.7373ZM12.9172 16.8912L10.4736 15.7504L10.0505 16.6566L12.4942 17.7974L12.9172 16.8912ZM9.76205 16.2035V17.8928H10.7621V16.2035H9.76205Z" fill="#325442"/>
</g>
</svg>
