<svg width="25" height="20" viewBox="0 0 25 20" fill="none" xmlns="http://www.w3.org/2000/svg">
<path id="Vector" d="M24.01 3.51997C23.9863 3.18831 23.7178 2.93561 23.394 2.91981C23.2677 2.91981 20.259 2.77767 18.9561 2.91981C18.3322 2.99089 17.8347 3.26727 17.4478 3.58314C17.4478 3.58314 17.4478 3.56735 17.4399 3.56735L16.0106 1.53788C15.9158 1.40363 15.7736 1.30887 15.6157 1.27728C11.1303 0.290188 8.44544 1.26149 8.33488 1.30098C8.20854 1.34836 8.09798 1.43522 8.01901 1.54578L6.66077 3.57525C6.66077 3.57525 6.64497 3.60683 6.63708 3.62263C6.24224 3.29096 5.73684 2.99089 5.08931 2.91981C3.78634 2.76978 0.777667 2.91192 0.643421 2.91981C0.311757 2.93561 0.0511629 3.1962 0.0274725 3.51997C0.0274725 3.57525 -0.0672888 4.9098 0.588144 6.31543C1.28306 7.80792 2.01746 8.55022 2.96507 8.71605C3.34412 8.77922 4.3786 8.79502 5.37359 8.79502C5.96585 8.79502 6.54232 8.79502 6.95295 8.77922L8.20854 17.2762C8.20854 17.2762 8.21643 17.3314 8.22433 17.363C8.27961 17.5446 8.84028 19.1635 12.1569 19.1635C15.4736 19.1635 15.7815 17.5446 15.7894 17.4183L17.0371 8.78712C17.4557 8.78712 18.0558 8.80292 18.6718 8.80292C19.6668 8.80292 20.7012 8.78712 21.0803 8.72395C22.0279 8.55811 22.7623 7.82371 23.4572 6.32333C24.1126 4.9177 24.0179 3.58314 24.0179 3.52787L24.01 3.51997ZM7.84528 4.15171L8.97452 2.4697C9.60627 2.29597 11.7937 1.81427 15.0866 2.50129L16.2633 4.1754L16.3027 4.70449L15.0156 13.62C14.3759 13.3752 13.3967 13.1303 11.9753 13.1303C10.5539 13.1303 9.60627 13.3673 8.97452 13.6121L7.7979 5.63631L7.83739 4.15171H7.84528ZM3.18618 7.43677C2.72027 7.3578 2.25436 6.81293 1.77266 5.77845C1.49627 5.18619 1.39362 4.60973 1.35413 4.19909C2.30964 4.16751 4.08642 4.12013 4.94717 4.22278C5.70526 4.30965 6.20275 5.02036 6.35279 5.24936L6.74763 7.49205C5.3499 7.50784 3.59682 7.50784 3.19408 7.43677H3.18618ZM12.1569 17.8684C10.0564 17.8684 9.55099 17.134 9.48781 17.0235L9.17984 14.9545C9.59047 14.7492 10.4749 14.4333 11.9832 14.4333C13.4915 14.4333 14.4075 14.7571 14.826 14.9624L14.4944 17.2367C14.4944 17.2367 14.2338 17.8763 12.149 17.8763L12.1569 17.8684ZM22.2648 5.77055C21.7831 6.80503 21.3172 7.34991 20.8513 7.43677C20.4564 7.50784 18.6955 7.50784 17.2977 7.49205L17.6926 5.24936C17.8426 5.01246 18.3401 4.30175 19.0982 4.22278C19.9589 4.12802 21.7357 4.16751 22.6912 4.19909C22.6517 4.60973 22.5412 5.18619 22.2727 5.77055H22.2648Z" fill="#266F68"/>
</svg>
