<svg width="25" height="25" viewBox="0 0 25 25" fill="none" xmlns="http://www.w3.org/2000/svg">
<g id="Livestock-icon-btn-list">
<rect x="0.701172" y="0.0786133" width="24" height="24" rx="4" fill="white" fill-opacity="0.2"/>
<path id="Vector" d="M5.56734 10.538C6.73775 9.84652 7.49213 9.53847 8.83633 9.89315C8.85103 9.75327 8.86824 9.62589 8.87663 9.49809C8.92197 8.8312 8.82752 8.18513 8.58949 7.5582C8.54121 7.43165 8.48034 7.39252 8.34433 7.40376C7.59414 7.46579 6.94849 7.78092 6.34482 8.20012C5.62777 8.69757 4.73614 10.1163 4.73614 10.1163C4.73614 10.1163 4.56835 7.95452 4.96787 6.93086C5.56021 5.41267 6.62188 4.42524 8.27758 4.17089C9.70364 3.95193 11.0373 4.62506 11.7565 5.87891C12.1259 6.5229 12.3123 7.22226 12.3912 7.95367C12.3988 8.02195 12.4042 8.09063 12.4139 8.19179C12.5679 8.19179 12.7207 8.20594 12.8681 8.18305C12.9134 8.17597 12.968 8.07065 12.976 8.00529C13.0469 7.4175 13.1666 6.84344 13.4042 6.29644C14.1099 4.67168 15.6938 3.83454 17.4162 4.22626C18.8288 4.54763 19.7747 5.44015 20.3343 6.7477C20.7984 7.8326 20.7206 8.9763 20.6403 10.1209C19.8289 8.84421 18.9045 7.76986 17.3318 7.4508C16.75 7.33258 16.8696 7.32051 16.6971 7.82254C16.4838 8.44239 16.4431 9.0843 16.5141 9.73371C16.5191 9.77992 16.5334 9.82529 16.5468 9.8869C17.8755 9.54638 18.6537 9.93519 19.8224 10.6337C18.9908 11.8006 18.383 12.3867 16.9414 12.614C16.8306 12.6315 16.7513 12.6494 16.7282 12.7876C16.512 14.0843 16.0204 15.2907 15.5061 16.4929C15.2668 17.052 15.1052 17.6435 14.9134 18.2222C14.7467 18.7255 14.5502 19.2059 14.1901 19.6155C13.5373 20.3573 11.6759 20.473 10.9895 19.3615C10.759 18.9881 10.5592 18.5744 10.4509 18.1522C10.1822 17.1028 9.6646 16.1516 9.31616 15.1367C9.05547 14.3778 8.86488 13.5952 8.65162 12.8209C8.61888 12.7014 8.58613 12.6356 8.44634 12.6136C7.00642 12.3896 6.40569 11.719 5.56734 10.538ZM11.7959 8.2484C11.7581 7.61857 11.6284 7.0341 11.3753 6.47878C10.6654 4.92437 8.96059 4.30827 7.41992 5.04884C7.36829 5.0734 7.32085 5.10629 7.27048 5.13626C8.83423 6.04709 9.42867 7.46496 9.52187 9.18879C10.1906 8.64388 10.9572 8.38619 11.7959 8.2484ZM18.119 5.12793C17.1727 4.65961 16.2336 4.5801 15.2941 5.06507C14.6854 5.37937 14.2677 5.88557 13.9848 6.50417C13.7337 7.05325 13.6229 7.63189 13.5759 8.24757C14.4146 8.38078 15.1892 8.64346 15.8529 9.18421C15.9507 7.45164 16.5439 6.03543 18.119 5.12793ZM14.447 17.6027C14.4705 17.5286 14.4885 17.4629 14.5116 17.3992C14.6573 17.0025 14.7849 16.5978 14.9541 16.2111C15.478 15.0126 15.9616 13.8021 16.153 12.4991C16.2378 11.9209 16.2509 11.2307 16.101 10.7411C15.9511 10.2516 15.8583 10.1454 15.8583 10.1454C15.6396 9.77867 15.3374 9.51016 14.9684 9.33116C13.5033 8.62056 12.018 8.6164 10.5319 9.26039C10.11 9.44314 9.29391 10.2628 9.22633 10.7186C9.20114 11.117 9.1516 11.4725 9.16084 11.8264C9.18393 12.7002 9.38879 13.5448 9.68769 14.3615C10.0777 15.4281 10.5029 16.4817 10.9135 17.5407C10.9156 17.5457 11.4769 16.8959 12.7124 16.8959C13.9478 16.8959 14.2996 17.502 14.447 17.6027ZM5.31672 8.23259C6.13827 7.49035 7.05932 6.96042 8.19824 6.79432C7.80908 6.24399 7.36787 5.80773 6.73019 5.6129C6.671 5.595 6.57151 5.61374 6.52743 5.65495C5.78228 6.35098 5.41538 7.22643 5.31672 8.23259ZM17.1795 6.7964C18.3242 6.96167 19.2394 7.50117 20.0782 8.27005C19.9615 7.24183 19.6013 6.38511 18.8889 5.68742C18.8053 5.60583 18.7327 5.57377 18.6131 5.61499C17.9976 5.82687 17.5594 6.24483 17.1795 6.7964ZM16.8654 11.9995C17.8406 11.8501 18.189 11.5978 18.864 10.8319C17.9808 10.4972 17.5753 10.2124 16.7177 10.4888C16.7689 11.013 16.8167 11.4996 16.8654 11.9995ZM8.65078 10.4826C7.78347 10.2353 7.3981 10.391 6.52743 10.7411C7.20163 11.5079 7.53999 11.8447 8.51015 12.007C8.55675 11.5013 8.60208 11.0088 8.65078 10.4826ZM11.5835 17.8767C11.5495 17.8962 11.5239 17.9083 11.5016 17.9245C11.0109 18.2871 11.0764 18.1685 11.2959 18.6734C11.4458 19.0173 11.6578 19.3253 12.034 19.456C12.7241 19.6958 13.6716 19.6613 14.091 18.6497C14.1309 18.5535 14.1791 18.4603 14.2077 18.3608C14.2203 18.3179 14.2102 18.2459 14.1804 18.218C14.057 18.101 13.9222 17.9961 13.787 17.8829C13.6729 18.0952 13.5889 18.2863 13.4739 18.4574C13.0276 19.1222 12.3387 19.1209 11.8971 18.4553C11.7791 18.2775 11.6922 18.0802 11.5827 17.8762L11.5835 17.8767ZM12.1397 17.6315C12.2674 17.8446 12.3673 18.0469 12.5016 18.2238C12.6242 18.3854 12.7569 18.3824 12.879 18.218C13.0087 18.0436 13.1053 17.8446 13.227 17.6381C12.8551 17.5153 12.5247 17.5191 12.1397 17.6315Z" fill="#325442" stroke="#325442" stroke-width="0.5"/>
</g>
</svg>
