<svg width="21" height="22" viewBox="0 0 21 22" fill="none" xmlns="http://www.w3.org/2000/svg">
<path id="Vector" d="M20.2323 4.25142C19.4891 2.50634 18.2451 1.42088 16.525 1.02009C14.3541 0.519115 12.2917 1.59622 11.39 3.69199C11.1228 4.30151 10.9558 4.99454 10.8556 5.85455C10.8556 5.8629 10.8472 5.88795 10.8389 5.90465C10.747 5.913 10.6552 5.90465 10.555 5.90465V5.78775C10.4381 4.76909 10.1709 3.90908 9.74509 3.14926C8.80992 1.50437 7.09825 0.661059 5.28637 0.944948C3.28245 1.25389 1.86301 2.43954 1.07814 4.47686C0.643959 5.60406 0.652298 6.74797 0.727445 7.72488L0.835994 9.11092L1.31193 8.35945C1.39543 8.22586 1.47057 8.10896 1.53736 7.99207C1.9298 7.29904 2.44749 6.72292 3.07371 6.28038C3.90033 5.69591 4.6518 5.39532 5.41997 5.33687C5.43666 5.33687 5.44501 5.33687 5.45336 5.33687C5.47006 5.33687 5.47841 5.33687 5.47841 5.33687C5.47841 5.33687 5.49511 5.35357 5.51181 5.39532C5.78735 6.13009 5.90424 6.90661 5.85414 7.69983C5.85414 7.78332 5.83744 7.85847 5.82909 7.95032C4.251 7.58293 2.77312 7.82507 1.32028 8.69344L1.12824 8.81033L1.25348 8.99403C2.38068 10.5888 3.76673 11.4989 5.49511 11.7745C5.53686 11.7745 5.54521 11.7912 5.54521 11.7912C5.54521 11.7912 5.56191 11.8162 5.57861 11.883L5.76229 12.576C5.95433 13.2941 6.14638 14.0372 6.38852 14.7469C6.56386 15.2563 6.77261 15.7656 6.973 16.2499C7.26524 16.9596 7.57418 17.6944 7.76622 18.4542C7.89146 18.9468 8.1169 19.4645 8.45088 19.9989C8.83497 20.6251 9.5447 21.0259 10.4047 21.101C10.4966 21.101 10.5884 21.1094 10.6803 21.1094C11.4902 21.1094 12.275 20.8172 12.6925 20.3412C13.1684 19.7985 13.4189 19.1556 13.6193 18.5544C13.6861 18.354 13.7446 18.1536 13.8114 17.9532C13.97 17.4439 14.1287 16.9262 14.3374 16.4336C14.9803 14.9139 15.5815 13.4193 15.8487 11.7912C15.8654 11.7912 15.9155 11.7745 15.9405 11.7745C17.6522 11.4989 19.0383 10.5972 20.1655 9.00238L20.2907 8.82703L20.0987 8.71014C18.6876 7.85847 17.1679 7.60798 15.5815 7.96702C15.498 7.1404 15.5648 6.41398 15.7986 5.73766C15.832 5.63746 15.857 5.55396 15.8821 5.47882C15.8988 5.41202 15.9238 5.32852 15.8988 5.32852C15.9405 5.32852 16.0741 5.35357 16.2077 5.37862L16.333 5.40367C17.7023 5.68756 18.8128 6.43903 19.6394 7.64138C19.773 7.83342 19.8983 8.03381 20.0319 8.25091L20.5829 9.12762L20.6497 8.17576C20.6664 7.98372 20.6748 7.81672 20.6832 7.64973C20.7917 6.30543 20.6414 5.22833 20.2323 4.25142ZM15.8403 9.09422C16.6586 8.86043 17.5186 8.90218 18.4538 9.21112C17.7524 9.93754 16.9425 10.3801 15.9906 10.5721L15.8487 9.09422H15.8403ZM5.53686 9.08587L5.40326 10.5721C4.4347 10.3717 3.62478 9.92084 2.93176 9.21112C3.80847 8.91053 4.66015 8.86878 5.53686 9.09422V9.08587ZM19.439 5.68756C18.5039 4.91939 17.5687 4.45181 16.5417 4.25142C16.9842 3.67529 17.4435 3.33295 18.0029 3.13256C18.053 3.11586 18.0614 3.10751 18.1282 3.17431C18.8045 3.84228 19.2387 4.6689 19.439 5.68756ZM6.99805 6.94836C6.80601 4.86094 5.97939 3.358 4.47645 2.35604C5.29472 1.99701 6.17979 1.95526 6.973 2.2475C7.81632 2.55643 8.50099 3.20771 8.90177 4.08442C9.16896 4.6689 9.32761 5.30347 9.38606 6.01319C8.42584 6.18854 7.64933 6.49748 6.99805 6.94836ZM11.9995 6.01319C12.0746 5.27007 12.2166 4.66055 12.4671 4.11782C12.8261 3.33295 13.3187 2.78187 13.9784 2.43954C14.9052 1.95526 15.8654 1.93021 16.9091 2.36439C15.3978 3.36635 14.5879 4.83589 14.3959 6.94836C13.7362 6.48913 12.9681 6.18854 12.0079 6.01319H11.9995ZM6.63066 9.70375C6.64736 9.55345 6.65571 9.40316 6.66406 9.26122C6.73085 8.80198 7.64932 7.83342 8.14195 7.62468C9.92043 6.84816 11.6906 6.87321 13.3939 7.70818C13.8197 7.91692 14.1537 8.22586 14.4125 8.65169C14.4125 8.65169 14.5128 8.79363 14.6714 9.31966C14.8217 9.82064 14.8467 10.5972 14.7298 11.3987C14.4877 13.0353 13.8531 14.5883 13.277 15.9242C13.1267 16.2666 13.0098 16.6173 12.8929 16.9596C12.8512 17.0932 12.8011 17.2184 12.7593 17.352C12.4671 17.0765 11.8826 16.6507 10.7304 16.6507C9.6616 16.6507 8.96857 17.0348 8.61789 17.3019C8.50099 17.0014 8.38409 16.7091 8.27555 16.4085C7.92486 15.5068 7.56583 14.58 7.23184 13.6531C6.83106 12.551 6.62231 11.549 6.59726 10.5888C6.59726 10.3049 6.61396 10.0127 6.63901 9.70375H6.63066ZM11.0393 17.8864C10.9474 18.0534 10.8639 18.2121 10.7554 18.3457C10.7137 18.3958 10.6886 18.4124 10.6886 18.4208C10.6886 18.4208 10.6552 18.4041 10.6218 18.354C10.5133 18.2121 10.4298 18.0618 10.3379 17.8864C10.3379 17.8864 10.3379 17.8864 10.3379 17.8781C10.5884 17.828 10.8138 17.828 11.0476 17.8781L11.0393 17.8864ZM9.21071 18.3958L9.26916 18.354C9.26916 18.354 9.2775 18.379 9.28585 18.3874C9.36935 18.5627 9.4612 18.7297 9.56139 18.88C9.86198 19.3393 10.2628 19.5898 10.6886 19.5898C11.1144 19.5898 11.5236 19.3393 11.8242 18.8884C11.9244 18.7381 12.0078 18.5794 12.0913 18.4041C12.0913 18.4041 12.0913 18.3958 12.0997 18.3874C12.1915 18.4625 12.2834 18.5377 12.3502 18.5961C12.3251 18.6713 12.2917 18.7464 12.2667 18.8216L12.2166 18.9301C11.6572 20.2828 10.3463 19.9404 9.96218 19.8068C9.6282 19.6899 9.38606 19.4228 9.17731 18.9552C9.13557 18.855 9.09382 18.7715 9.06042 18.7047C9.02702 18.6379 8.99361 18.5627 8.98526 18.5627C9.00196 18.5377 9.11051 18.4625 9.21071 18.3874V18.3958ZM4.84384 4.24307C3.82518 4.45181 2.87332 4.91104 1.9632 5.65416C2.15525 4.6355 2.59777 3.80053 3.29914 3.14091C3.30749 3.14091 3.34089 3.13256 3.34924 3.13256C3.90867 3.3079 4.37626 3.65024 4.84384 4.25142V4.24307Z" fill="#FFF8E6"/>
</svg>
