<svg width="24" height="24" viewBox="0 0 24 24" fill="none" xmlns="http://www.w3.org/2000/svg">
<g id="Livestock-icon-btn-list">
<rect width="24" height="24" rx="4" fill="white" fill-opacity="0.2"/>
<g id="Vector">
<mask id="path-2-outside-1_5335_4115" maskUnits="userSpaceOnUse" x="2.98047" y="3.69629" width="18" height="18" fill="black">
<rect fill="white" x="2.98047" y="3.69629" width="18" height="18"/>
<path d="M17.5662 12.5261C17.654 12.7807 17.7458 13.0307 17.8265 13.2842C18.0498 13.9835 18.2026 14.6968 18.1864 15.4356C18.1552 16.8605 17.5383 17.9665 16.3711 18.7671C15.9326 19.0681 15.4547 19.2899 14.9575 19.4722C14.9187 19.4863 14.8741 19.505 14.8495 19.5354C14.3748 20.1217 13.7504 20.4625 13.0288 20.6178C11.8736 20.8664 10.7719 20.7326 9.7719 20.0613C9.56673 19.9237 9.39982 19.7287 9.21296 19.5626C9.17376 19.5276 9.12892 19.4915 9.08033 19.4762C8.2228 19.2066 7.45095 18.7945 6.84155 18.1145C6.28449 17.4931 5.97791 16.7597 5.88073 15.9315C5.7711 14.9971 5.94599 14.1011 6.23097 13.2191C6.30562 12.988 6.38919 12.7597 6.46994 12.5263C6.35515 12.4777 6.23754 12.4361 6.12768 12.3795C5.59434 12.1043 5.22508 11.6624 4.92202 11.1573C4.59032 10.6046 4.38163 10.0006 4.21168 9.38193C4.04829 8.78808 3.95721 8.18361 3.98562 7.56545C4.03303 6.53023 4.36145 5.59768 5.00113 4.78032C5.01029 4.76875 5.02273 4.75954 5.04221 4.74137C5.09221 4.82162 5.13752 4.89786 5.18635 4.97197C5.48189 5.42113 5.9143 5.67439 6.41384 5.8238C6.88521 5.96471 7.36222 6.08744 7.83335 6.2293C8.95169 6.56587 9.76039 7.25555 10.2041 8.35497C10.2097 8.3689 10.2193 8.38093 10.2245 8.38943C11.4203 8.05781 12.6093 8.04011 13.8156 8.38589C13.8638 8.28558 13.9192 8.17063 13.9743 8.05545C14.4349 7.09599 15.1915 6.48798 16.1948 6.18162C16.6655 6.03811 17.1413 5.91207 17.6155 5.78037C18.1892 5.62105 18.6244 5.27857 18.9388 4.77489C18.9533 4.75176 18.9695 4.72957 18.9855 4.70715C18.9876 4.70408 18.9916 4.70243 18.9998 4.69629C19.3456 5.17755 19.6146 5.69705 19.7841 6.26659C19.9557 6.84321 20.0369 7.43304 20.0144 8.03468C19.9869 8.75905 19.8273 9.45746 19.585 10.1382C19.378 10.7195 19.1047 11.2638 18.7 11.7344C18.4038 12.0793 18.061 12.3571 17.6216 12.497C17.6038 12.5027 17.5876 12.5145 17.5667 12.5254L17.5662 12.5261ZM12.0297 20.1491C13.5891 20.1411 15.2826 18.816 15.311 18.7988C15.5521 18.6534 15.799 18.5165 16.0317 18.3583C16.5854 17.9819 17.0631 17.5285 17.3838 16.9282C17.7617 16.2209 17.8258 15.4634 17.7254 14.6827C17.6535 14.123 17.4962 13.5844 17.312 13.0531C17.1746 12.6575 16.9352 12.3431 16.5767 12.1218C16.4638 12.0519 16.3542 11.9745 16.2526 11.889C15.8587 11.5576 15.5345 11.176 15.4288 10.6511C15.403 10.5229 15.2086 9.90025 15.5253 9.53818C15.8481 9.16903 16.2385 8.87895 16.6321 8.59501C17.5188 7.95561 18.1796 7.13895 18.5873 6.11883C18.6179 6.04212 18.6439 5.96376 18.6721 5.88611C18.3155 6.12096 17.9324 6.26187 17.5357 6.37327C17.0807 6.50097 16.6239 6.62276 16.1739 6.76579C15.73 6.9067 15.3237 7.12219 14.9899 7.45901C14.6185 7.83335 14.3797 8.29124 14.1739 8.7692C14.1607 8.79965 14.1795 8.85771 14.2027 8.88769C14.2943 9.00499 13.7485 8.86314 13.3776 8.77392C12.6149 8.59029 11.8435 8.5766 11.0712 8.6932C10.5628 8.76991 9.78199 9.01373 9.83997 8.89264C9.86063 8.84945 9.8726 8.78808 9.85852 8.74489C9.81838 8.62239 9.76485 8.5039 9.7125 8.38565C9.4078 7.69975 8.92986 7.18191 8.22773 6.90623C7.84697 6.75658 7.44978 6.64919 7.05963 6.52386C6.64013 6.38909 6.21759 6.26328 5.80209 6.11718C5.65255 6.06455 5.51922 5.96494 5.36734 5.88045C5.3786 5.92128 5.38471 5.95149 5.39527 5.98005C5.72016 6.85973 6.22886 7.61337 6.94202 8.21996C7.32677 8.5471 7.73312 8.84874 8.11834 9.17517C8.45849 9.4636 8.64323 10.242 8.63196 10.247C8.66835 10.7339 8.4775 11.1356 8.17937 11.4998C7.95824 11.7701 7.69579 11.9905 7.40236 12.1756C7.16127 12.3276 6.96643 12.5247 6.85094 12.7869C6.4568 13.6817 6.23285 14.6156 6.26031 15.5989C6.2798 16.2959 6.51877 16.9188 6.9439 17.4692C7.30658 17.9389 7.76246 18.2986 8.26998 18.5956C8.44581 18.6985 10.4675 20.1571 12.0297 20.1491ZM19.139 5.85212C19.0212 6.14173 18.9306 6.39286 18.8188 6.63432C18.4315 7.4727 17.8406 8.15222 17.1589 8.75976C16.8169 9.06447 16.4659 9.36045 16.1401 9.68192C15.7723 10.0447 15.7084 10.3912 15.9291 10.8368C16.158 11.299 16.5021 11.6705 16.9458 11.9339C17.25 12.1147 17.566 12.0958 17.8697 11.9131C18.1216 11.7616 18.3254 11.556 18.4993 11.3216C19.1667 10.4219 19.4498 9.38948 19.5198 8.28723C19.5547 7.7354 19.5083 7.18757 19.3766 6.65013C19.3127 6.39003 19.2245 6.13606 19.139 5.85212ZM4.9131 5.87549C4.89596 5.90735 4.88258 5.92694 4.87437 5.94819C4.61145 6.63102 4.49666 7.34028 4.50793 8.07079C4.52107 8.91814 4.70793 9.72701 5.04057 10.505C5.25935 11.0167 5.54997 11.4684 6.0204 11.7828C6.42511 12.0533 6.83732 12.0767 7.24836 11.8024C7.58194 11.5798 7.85049 11.2907 8.05566 10.9451C8.17655 10.7419 8.23148 10.5205 8.21646 10.2807C8.20026 10.0209 8.05613 9.82944 7.88101 9.6654C7.4925 9.30121 7.08944 8.9526 6.69694 8.59242C6.02557 7.97614 5.47438 7.27018 5.12015 6.42072C5.04691 6.24511 4.9847 6.06478 4.9131 5.87549Z"/>
<path d="M9.78764 13.4319C9.8586 13.332 9.92493 13.2284 10.0011 13.1329C10.1964 12.8875 10.3803 12.6304 10.5969 12.4052C11.2959 11.679 12.7641 11.4876 13.6495 12.6012C13.8343 12.8335 14.3625 13.4266 14.5112 13.6419C14.8564 14.1416 15.234 14.6187 15.5866 15.1137C15.8578 15.4943 16.0867 15.8985 16.099 16.3858C16.116 17.0502 15.8223 17.7698 15.014 17.9379C14.5871 18.0267 14.1626 18.0006 13.7535 17.8576C13.4687 17.7583 13.1929 17.6302 12.9199 17.5003C12.2717 17.1913 11.634 17.2292 11.0093 17.5558C10.5191 17.812 10.0132 17.9851 9.45199 17.9792C8.09827 17.9649 7.66266 16.6742 8.03934 15.838C8.2047 15.4707 8.43515 15.1283 8.669 14.7986C9.04137 14.274 9.78209 13.4272 9.78764 13.4319ZM14.5544 17.4314C15.2655 17.4649 15.6107 17.0046 15.5369 16.289C15.5021 15.9509 15.3188 15.677 15.1094 15.4285C14.6207 14.8491 14.1743 14.2396 13.747 13.6133C13.5422 13.3131 13.2978 13.0364 13.0461 12.7734C12.4864 12.1893 11.5807 12.2814 11.0942 12.7048C10.8557 12.9123 10.6413 13.1549 10.4491 13.4071C9.91937 14.1034 9.39862 14.8072 8.89359 15.5219C8.73317 15.749 8.59311 16.0083 8.51598 16.2741C8.36327 16.8002 8.66808 17.2794 9.19963 17.3936C9.6772 17.4959 10.1273 17.3818 10.5549 17.1653C10.9695 16.9553 11.3925 16.7744 11.8636 16.7397C12.4451 16.6972 12.9631 16.8973 13.4678 17.1538C13.8062 17.3259 14.1616 17.4376 14.5544 17.4314Z"/>
<path d="M11.4595 15.1124C11.5467 15.615 11.1556 16.0376 10.6748 15.9602C10.4151 15.9184 10.2488 15.698 10.2643 15.4156C10.2786 15.1569 10.4731 14.9649 10.7354 14.9595C10.8368 14.9573 11.4091 14.8219 11.4595 15.1124Z"/>
<path d="M13.3389 15.0088C13.5937 15.0801 13.7295 15.3085 13.678 15.5677C13.6208 15.8548 13.4062 16.0225 13.1361 15.9912C12.764 15.9481 12.5072 15.6333 12.5314 15.2495C12.5568 14.7709 13.2372 14.9805 13.3389 15.0088Z"/>
</mask>
<path d="M17.5662 12.5261C17.654 12.7807 17.7458 13.0307 17.8265 13.2842C18.0498 13.9835 18.2026 14.6968 18.1864 15.4356C18.1552 16.8605 17.5383 17.9665 16.3711 18.7671C15.9326 19.0681 15.4547 19.2899 14.9575 19.4722C14.9187 19.4863 14.8741 19.505 14.8495 19.5354C14.3748 20.1217 13.7504 20.4625 13.0288 20.6178C11.8736 20.8664 10.7719 20.7326 9.7719 20.0613C9.56673 19.9237 9.39982 19.7287 9.21296 19.5626C9.17376 19.5276 9.12892 19.4915 9.08033 19.4762C8.2228 19.2066 7.45095 18.7945 6.84155 18.1145C6.28449 17.4931 5.97791 16.7597 5.88073 15.9315C5.7711 14.9971 5.94599 14.1011 6.23097 13.2191C6.30562 12.988 6.38919 12.7597 6.46994 12.5263C6.35515 12.4777 6.23754 12.4361 6.12768 12.3795C5.59434 12.1043 5.22508 11.6624 4.92202 11.1573C4.59032 10.6046 4.38163 10.0006 4.21168 9.38193C4.04829 8.78808 3.95721 8.18361 3.98562 7.56545C4.03303 6.53023 4.36145 5.59768 5.00113 4.78032C5.01029 4.76875 5.02273 4.75954 5.04221 4.74137C5.09221 4.82162 5.13752 4.89786 5.18635 4.97197C5.48189 5.42113 5.9143 5.67439 6.41384 5.8238C6.88521 5.96471 7.36222 6.08744 7.83335 6.2293C8.95169 6.56587 9.76039 7.25555 10.2041 8.35497C10.2097 8.3689 10.2193 8.38093 10.2245 8.38943C11.4203 8.05781 12.6093 8.04011 13.8156 8.38589C13.8638 8.28558 13.9192 8.17063 13.9743 8.05545C14.4349 7.09599 15.1915 6.48798 16.1948 6.18162C16.6655 6.03811 17.1413 5.91207 17.6155 5.78037C18.1892 5.62105 18.6244 5.27857 18.9388 4.77489C18.9533 4.75176 18.9695 4.72957 18.9855 4.70715C18.9876 4.70408 18.9916 4.70243 18.9998 4.69629C19.3456 5.17755 19.6146 5.69705 19.7841 6.26659C19.9557 6.84321 20.0369 7.43304 20.0144 8.03468C19.9869 8.75905 19.8273 9.45746 19.585 10.1382C19.378 10.7195 19.1047 11.2638 18.7 11.7344C18.4038 12.0793 18.061 12.3571 17.6216 12.497C17.6038 12.5027 17.5876 12.5145 17.5667 12.5254L17.5662 12.5261ZM12.0297 20.1491C13.5891 20.1411 15.2826 18.816 15.311 18.7988C15.5521 18.6534 15.799 18.5165 16.0317 18.3583C16.5854 17.9819 17.0631 17.5285 17.3838 16.9282C17.7617 16.2209 17.8258 15.4634 17.7254 14.6827C17.6535 14.123 17.4962 13.5844 17.312 13.0531C17.1746 12.6575 16.9352 12.3431 16.5767 12.1218C16.4638 12.0519 16.3542 11.9745 16.2526 11.889C15.8587 11.5576 15.5345 11.176 15.4288 10.6511C15.403 10.5229 15.2086 9.90025 15.5253 9.53818C15.8481 9.16903 16.2385 8.87895 16.6321 8.59501C17.5188 7.95561 18.1796 7.13895 18.5873 6.11883C18.6179 6.04212 18.6439 5.96376 18.6721 5.88611C18.3155 6.12096 17.9324 6.26187 17.5357 6.37327C17.0807 6.50097 16.6239 6.62276 16.1739 6.76579C15.73 6.9067 15.3237 7.12219 14.9899 7.45901C14.6185 7.83335 14.3797 8.29124 14.1739 8.7692C14.1607 8.79965 14.1795 8.85771 14.2027 8.88769C14.2943 9.00499 13.7485 8.86314 13.3776 8.77392C12.6149 8.59029 11.8435 8.5766 11.0712 8.6932C10.5628 8.76991 9.78199 9.01373 9.83997 8.89264C9.86063 8.84945 9.8726 8.78808 9.85852 8.74489C9.81838 8.62239 9.76485 8.5039 9.7125 8.38565C9.4078 7.69975 8.92986 7.18191 8.22773 6.90623C7.84697 6.75658 7.44978 6.64919 7.05963 6.52386C6.64013 6.38909 6.21759 6.26328 5.80209 6.11718C5.65255 6.06455 5.51922 5.96494 5.36734 5.88045C5.3786 5.92128 5.38471 5.95149 5.39527 5.98005C5.72016 6.85973 6.22886 7.61337 6.94202 8.21996C7.32677 8.5471 7.73312 8.84874 8.11834 9.17517C8.45849 9.4636 8.64323 10.242 8.63196 10.247C8.66835 10.7339 8.4775 11.1356 8.17937 11.4998C7.95824 11.7701 7.69579 11.9905 7.40236 12.1756C7.16127 12.3276 6.96643 12.5247 6.85094 12.7869C6.4568 13.6817 6.23285 14.6156 6.26031 15.5989C6.2798 16.2959 6.51877 16.9188 6.9439 17.4692C7.30658 17.9389 7.76246 18.2986 8.26998 18.5956C8.44581 18.6985 10.4675 20.1571 12.0297 20.1491ZM19.139 5.85212C19.0212 6.14173 18.9306 6.39286 18.8188 6.63432C18.4315 7.4727 17.8406 8.15222 17.1589 8.75976C16.8169 9.06447 16.4659 9.36045 16.1401 9.68192C15.7723 10.0447 15.7084 10.3912 15.9291 10.8368C16.158 11.299 16.5021 11.6705 16.9458 11.9339C17.25 12.1147 17.566 12.0958 17.8697 11.9131C18.1216 11.7616 18.3254 11.556 18.4993 11.3216C19.1667 10.4219 19.4498 9.38948 19.5198 8.28723C19.5547 7.7354 19.5083 7.18757 19.3766 6.65013C19.3127 6.39003 19.2245 6.13606 19.139 5.85212ZM4.9131 5.87549C4.89596 5.90735 4.88258 5.92694 4.87437 5.94819C4.61145 6.63102 4.49666 7.34028 4.50793 8.07079C4.52107 8.91814 4.70793 9.72701 5.04057 10.505C5.25935 11.0167 5.54997 11.4684 6.0204 11.7828C6.42511 12.0533 6.83732 12.0767 7.24836 11.8024C7.58194 11.5798 7.85049 11.2907 8.05566 10.9451C8.17655 10.7419 8.23148 10.5205 8.21646 10.2807C8.20026 10.0209 8.05613 9.82944 7.88101 9.6654C7.4925 9.30121 7.08944 8.9526 6.69694 8.59242C6.02557 7.97614 5.47438 7.27018 5.12015 6.42072C5.04691 6.24511 4.9847 6.06478 4.9131 5.87549Z" fill="#325442"/>
<path d="M9.78764 13.4319C9.8586 13.332 9.92493 13.2284 10.0011 13.1329C10.1964 12.8875 10.3803 12.6304 10.5969 12.4052C11.2959 11.679 12.7641 11.4876 13.6495 12.6012C13.8343 12.8335 14.3625 13.4266 14.5112 13.6419C14.8564 14.1416 15.234 14.6187 15.5866 15.1137C15.8578 15.4943 16.0867 15.8985 16.099 16.3858C16.116 17.0502 15.8223 17.7698 15.014 17.9379C14.5871 18.0267 14.1626 18.0006 13.7535 17.8576C13.4687 17.7583 13.1929 17.6302 12.9199 17.5003C12.2717 17.1913 11.634 17.2292 11.0093 17.5558C10.5191 17.812 10.0132 17.9851 9.45199 17.9792C8.09827 17.9649 7.66266 16.6742 8.03934 15.838C8.2047 15.4707 8.43515 15.1283 8.669 14.7986C9.04137 14.274 9.78209 13.4272 9.78764 13.4319ZM14.5544 17.4314C15.2655 17.4649 15.6107 17.0046 15.5369 16.289C15.5021 15.9509 15.3188 15.677 15.1094 15.4285C14.6207 14.8491 14.1743 14.2396 13.747 13.6133C13.5422 13.3131 13.2978 13.0364 13.0461 12.7734C12.4864 12.1893 11.5807 12.2814 11.0942 12.7048C10.8557 12.9123 10.6413 13.1549 10.4491 13.4071C9.91937 14.1034 9.39862 14.8072 8.89359 15.5219C8.73317 15.749 8.59311 16.0083 8.51598 16.2741C8.36327 16.8002 8.66808 17.2794 9.19963 17.3936C9.6772 17.4959 10.1273 17.3818 10.5549 17.1653C10.9695 16.9553 11.3925 16.7744 11.8636 16.7397C12.4451 16.6972 12.9631 16.8973 13.4678 17.1538C13.8062 17.3259 14.1616 17.4376 14.5544 17.4314Z" fill="#325442"/>
<path d="M11.4595 15.1124C11.5467 15.615 11.1556 16.0376 10.6748 15.9602C10.4151 15.9184 10.2488 15.698 10.2643 15.4156C10.2786 15.1569 10.4731 14.9649 10.7354 14.9595C10.8368 14.9573 11.4091 14.8219 11.4595 15.1124Z" fill="#325442"/>
<path d="M13.3389 15.0088C13.5937 15.0801 13.7295 15.3085 13.678 15.5677C13.6208 15.8548 13.4062 16.0225 13.1361 15.9912C12.764 15.9481 12.5072 15.6333 12.5314 15.2495C12.5568 14.7709 13.2372 14.9805 13.3389 15.0088Z" fill="#325442"/>
<path d="M17.5662 12.5261C17.654 12.7807 17.7458 13.0307 17.8265 13.2842C18.0498 13.9835 18.2026 14.6968 18.1864 15.4356C18.1552 16.8605 17.5383 17.9665 16.3711 18.7671C15.9326 19.0681 15.4547 19.2899 14.9575 19.4722C14.9187 19.4863 14.8741 19.505 14.8495 19.5354C14.3748 20.1217 13.7504 20.4625 13.0288 20.6178C11.8736 20.8664 10.7719 20.7326 9.7719 20.0613C9.56673 19.9237 9.39982 19.7287 9.21296 19.5626C9.17376 19.5276 9.12892 19.4915 9.08033 19.4762C8.2228 19.2066 7.45095 18.7945 6.84155 18.1145C6.28449 17.4931 5.97791 16.7597 5.88073 15.9315C5.7711 14.9971 5.94599 14.1011 6.23097 13.2191C6.30562 12.988 6.38919 12.7597 6.46994 12.5263C6.35515 12.4777 6.23754 12.4361 6.12768 12.3795C5.59434 12.1043 5.22508 11.6624 4.92202 11.1573C4.59032 10.6046 4.38163 10.0006 4.21168 9.38193C4.04829 8.78808 3.95721 8.18361 3.98562 7.56545C4.03303 6.53023 4.36145 5.59768 5.00113 4.78032C5.01029 4.76875 5.02273 4.75954 5.04221 4.74137C5.09221 4.82162 5.13752 4.89786 5.18635 4.97197C5.48189 5.42113 5.9143 5.67439 6.41384 5.8238C6.88521 5.96471 7.36222 6.08744 7.83335 6.2293C8.95169 6.56587 9.76039 7.25555 10.2041 8.35497C10.2097 8.3689 10.2193 8.38093 10.2245 8.38943C11.4203 8.05781 12.6093 8.04011 13.8156 8.38589C13.8638 8.28558 13.9192 8.17063 13.9743 8.05545C14.4349 7.09599 15.1915 6.48798 16.1948 6.18162C16.6655 6.03811 17.1413 5.91207 17.6155 5.78037C18.1892 5.62105 18.6244 5.27857 18.9388 4.77489C18.9533 4.75176 18.9695 4.72957 18.9855 4.70715C18.9876 4.70408 18.9916 4.70243 18.9998 4.69629C19.3456 5.17755 19.6146 5.69705 19.7841 6.26659C19.9557 6.84321 20.0369 7.43304 20.0144 8.03468C19.9869 8.75905 19.8273 9.45746 19.585 10.1382C19.378 10.7195 19.1047 11.2638 18.7 11.7344C18.4038 12.0793 18.061 12.3571 17.6216 12.497C17.6038 12.5027 17.5876 12.5145 17.5667 12.5254L17.5662 12.5261ZM12.0297 20.1491C13.5891 20.1411 15.2826 18.816 15.311 18.7988C15.5521 18.6534 15.799 18.5165 16.0317 18.3583C16.5854 17.9819 17.0631 17.5285 17.3838 16.9282C17.7617 16.2209 17.8258 15.4634 17.7254 14.6827C17.6535 14.123 17.4962 13.5844 17.312 13.0531C17.1746 12.6575 16.9352 12.3431 16.5767 12.1218C16.4638 12.0519 16.3542 11.9745 16.2526 11.889C15.8587 11.5576 15.5345 11.176 15.4288 10.6511C15.403 10.5229 15.2086 9.90025 15.5253 9.53818C15.8481 9.16903 16.2385 8.87895 16.6321 8.59501C17.5188 7.95561 18.1796 7.13895 18.5873 6.11883C18.6179 6.04212 18.6439 5.96376 18.6721 5.88611C18.3155 6.12096 17.9324 6.26187 17.5357 6.37327C17.0807 6.50097 16.6239 6.62276 16.1739 6.76579C15.73 6.9067 15.3237 7.12219 14.9899 7.45901C14.6185 7.83335 14.3797 8.29124 14.1739 8.7692C14.1607 8.79965 14.1795 8.85771 14.2027 8.88769C14.2943 9.00499 13.7485 8.86314 13.3776 8.77392C12.6149 8.59029 11.8435 8.5766 11.0712 8.6932C10.5628 8.76991 9.78199 9.01373 9.83997 8.89264C9.86063 8.84945 9.8726 8.78808 9.85852 8.74489C9.81838 8.62239 9.76485 8.5039 9.7125 8.38565C9.4078 7.69975 8.92986 7.18191 8.22773 6.90623C7.84697 6.75658 7.44978 6.64919 7.05963 6.52386C6.64013 6.38909 6.21759 6.26328 5.80209 6.11718C5.65255 6.06455 5.51922 5.96494 5.36734 5.88045C5.3786 5.92128 5.38471 5.95149 5.39527 5.98005C5.72016 6.85973 6.22886 7.61337 6.94202 8.21996C7.32677 8.5471 7.73312 8.84874 8.11834 9.17517C8.45849 9.4636 8.64323 10.242 8.63196 10.247C8.66835 10.7339 8.4775 11.1356 8.17937 11.4998C7.95824 11.7701 7.69579 11.9905 7.40236 12.1756C7.16127 12.3276 6.96643 12.5247 6.85094 12.7869C6.4568 13.6817 6.23285 14.6156 6.26031 15.5989C6.2798 16.2959 6.51877 16.9188 6.9439 17.4692C7.30658 17.9389 7.76246 18.2986 8.26998 18.5956C8.44581 18.6985 10.4675 20.1571 12.0297 20.1491ZM19.139 5.85212C19.0212 6.14173 18.9306 6.39286 18.8188 6.63432C18.4315 7.4727 17.8406 8.15222 17.1589 8.75976C16.8169 9.06447 16.4659 9.36045 16.1401 9.68192C15.7723 10.0447 15.7084 10.3912 15.9291 10.8368C16.158 11.299 16.5021 11.6705 16.9458 11.9339C17.25 12.1147 17.566 12.0958 17.8697 11.9131C18.1216 11.7616 18.3254 11.556 18.4993 11.3216C19.1667 10.4219 19.4498 9.38948 19.5198 8.28723C19.5547 7.7354 19.5083 7.18757 19.3766 6.65013C19.3127 6.39003 19.2245 6.13606 19.139 5.85212ZM4.9131 5.87549C4.89596 5.90735 4.88258 5.92694 4.87437 5.94819C4.61145 6.63102 4.49666 7.34028 4.50793 8.07079C4.52107 8.91814 4.70793 9.72701 5.04057 10.505C5.25935 11.0167 5.54997 11.4684 6.0204 11.7828C6.42511 12.0533 6.83732 12.0767 7.24836 11.8024C7.58194 11.5798 7.85049 11.2907 8.05566 10.9451C8.17655 10.7419 8.23148 10.5205 8.21646 10.2807C8.20026 10.0209 8.05613 9.82944 7.88101 9.6654C7.4925 9.30121 7.08944 8.9526 6.69694 8.59242C6.02557 7.97614 5.47438 7.27018 5.12015 6.42072C5.04691 6.24511 4.9847 6.06478 4.9131 5.87549Z" stroke="#325442" stroke-width="0.6" mask="url(#path-2-outside-1_5335_4115)"/>
<path d="M9.78764 13.4319C9.8586 13.332 9.92493 13.2284 10.0011 13.1329C10.1964 12.8875 10.3803 12.6304 10.5969 12.4052C11.2959 11.679 12.7641 11.4876 13.6495 12.6012C13.8343 12.8335 14.3625 13.4266 14.5112 13.6419C14.8564 14.1416 15.234 14.6187 15.5866 15.1137C15.8578 15.4943 16.0867 15.8985 16.099 16.3858C16.116 17.0502 15.8223 17.7698 15.014 17.9379C14.5871 18.0267 14.1626 18.0006 13.7535 17.8576C13.4687 17.7583 13.1929 17.6302 12.9199 17.5003C12.2717 17.1913 11.634 17.2292 11.0093 17.5558C10.5191 17.812 10.0132 17.9851 9.45199 17.9792C8.09827 17.9649 7.66266 16.6742 8.03934 15.838C8.2047 15.4707 8.43515 15.1283 8.669 14.7986C9.04137 14.274 9.78209 13.4272 9.78764 13.4319ZM14.5544 17.4314C15.2655 17.4649 15.6107 17.0046 15.5369 16.289C15.5021 15.9509 15.3188 15.677 15.1094 15.4285C14.6207 14.8491 14.1743 14.2396 13.747 13.6133C13.5422 13.3131 13.2978 13.0364 13.0461 12.7734C12.4864 12.1893 11.5807 12.2814 11.0942 12.7048C10.8557 12.9123 10.6413 13.1549 10.4491 13.4071C9.91937 14.1034 9.39862 14.8072 8.89359 15.5219C8.73317 15.749 8.59311 16.0083 8.51598 16.2741C8.36327 16.8002 8.66808 17.2794 9.19963 17.3936C9.6772 17.4959 10.1273 17.3818 10.5549 17.1653C10.9695 16.9553 11.3925 16.7744 11.8636 16.7397C12.4451 16.6972 12.9631 16.8973 13.4678 17.1538C13.8062 17.3259 14.1616 17.4376 14.5544 17.4314Z" stroke="#325442" stroke-width="0.6" mask="url(#path-2-outside-1_5335_4115)"/>
<path d="M11.4595 15.1124C11.5467 15.615 11.1556 16.0376 10.6748 15.9602C10.4151 15.9184 10.2488 15.698 10.2643 15.4156C10.2786 15.1569 10.4731 14.9649 10.7354 14.9595C10.8368 14.9573 11.4091 14.8219 11.4595 15.1124Z" stroke="#325442" stroke-width="0.6" mask="url(#path-2-outside-1_5335_4115)"/>
<path d="M13.3389 15.0088C13.5937 15.0801 13.7295 15.3085 13.678 15.5677C13.6208 15.8548 13.4062 16.0225 13.1361 15.9912C12.764 15.9481 12.5072 15.6333 12.5314 15.2495C12.5568 14.7709 13.2372 14.9805 13.3389 15.0088Z" stroke="#325442" stroke-width="0.6" mask="url(#path-2-outside-1_5335_4115)"/>
</g>
</g>
</svg>
