<svg width="22" height="22" viewBox="0 0 22 22" fill="none" xmlns="http://www.w3.org/2000/svg">
<path id="Union" fill-rule="evenodd" clip-rule="evenodd" d="M19.8163 0.779359C20.2901 1.4393 20.6455 2.13308 20.857 2.85225V2.83532C21.0855 3.60525 21.187 4.3921 21.1616 5.16203C21.1278 6.04195 20.9501 6.93879 20.6032 7.90332C20.2901 8.76632 19.9009 9.4601 19.4187 10.0185C19.021 10.4839 18.6064 10.7969 18.158 10.9915V11.0253C18.2342 11.2369 18.3103 11.4568 18.378 11.6684C18.7249 12.7344 18.8687 13.6228 18.8518 14.4858C18.8095 16.3641 17.9888 17.8616 16.4151 18.9362C15.8905 19.2915 15.2814 19.5961 14.5537 19.8584C13.9361 20.5945 13.0985 21.0936 12.0663 21.3136C11.5925 21.4152 11.1356 21.4659 10.6872 21.4659C9.59574 21.4659 8.59737 21.1698 7.70053 20.5691C7.528 20.4566 7.38208 20.3175 7.23918 20.1812L7.18442 20.1291C7.11674 20.053 7.0406 19.9853 6.96446 19.9176L6.96444 19.9176C5.64456 19.4776 4.67158 18.8854 3.93549 18.0647C3.20786 17.2525 2.77636 16.271 2.64099 15.1373C2.51408 14.0628 2.65791 12.929 3.09787 11.5838C3.14041 11.444 3.19169 11.2998 3.2423 11.1576L3.2423 11.1575C3.26214 11.1018 3.28187 11.0463 3.30093 10.9915L3.3009 10.9915L3.30089 10.9915L3.30088 10.9915C3.24167 10.9661 3.18246 10.9407 3.12325 10.9069C2.48023 10.5769 1.95567 10.0439 1.4734 9.24858C0.991141 8.44481 0.720398 7.59027 0.542722 6.93033C0.314281 6.08426 0.212754 5.2974 0.246597 4.5444C0.314283 3.15683 0.762702 1.9131 1.60032 0.855505L1.668 0.787819L1.9472 0.542457L2.21795 0.914731L2.34486 1.11779C2.64099 1.56621 3.08941 1.87926 3.72397 2.06539L3.92121 2.12199L3.92122 2.12199L3.92128 2.12201C4.14864 2.18739 4.37203 2.25162 4.59543 2.31076C4.90848 2.39536 5.21306 2.47997 5.52611 2.57304C6.98982 3.013 8.03896 3.90138 8.63967 5.22126C10.0695 4.87437 11.4486 4.86591 12.8362 5.22126L12.9208 5.04358C13.5215 3.79139 14.5368 2.94531 15.9244 2.52228C16.2534 2.42295 16.5824 2.33274 16.9148 2.2416L16.9148 2.2416L16.9149 2.24156L16.9152 2.24149C17.0357 2.20846 17.1566 2.1753 17.2781 2.14154L17.7265 2.01463C18.3611 1.84541 18.8518 1.47314 19.2156 0.889349L19.3679 0.703212L19.6217 0.533997L19.8163 0.779359ZM3.74935 14.6888C3.76627 15.4672 4.03701 16.2033 4.54466 16.8548L4.56158 16.8717C4.95924 17.3794 5.47534 17.8193 6.1522 18.2085L6.3045 18.3101C8.5889 19.8161 9.95109 20.1207 10.7464 20.1207C12.3878 20.1122 14.1815 18.8769 14.6891 18.4962L15.0022 18.3101C15.0473 18.2829 15.0929 18.2558 15.1386 18.2287C15.3069 18.1285 15.477 18.0273 15.6367 17.9209C16.3728 17.4217 16.9058 16.8717 17.2443 16.2372C17.6419 15.4926 17.7773 14.6296 17.6419 13.5974C17.5489 12.8529 17.3204 12.1422 17.1343 11.6091C16.982 11.1692 16.7197 10.8392 16.339 10.6023C16.1782 10.5092 16.0344 10.3992 15.8905 10.2808C15.476 9.94236 14.9091 9.38395 14.7399 8.54634C14.6553 8.19099 14.4691 7.40414 14.9345 6.87111C15.3575 6.38884 15.8652 6.00811 16.3897 5.63584C17.3204 4.95897 18.0396 4.12982 18.5303 3.15683C18.3103 3.24144 18.0734 3.31759 17.8027 3.39373L17.4135 3.50372C16.9735 3.62217 16.5336 3.74909 16.0936 3.88446C15.5267 4.06213 15.0783 4.32442 14.723 4.67977C14.2915 5.11127 14.0123 5.6443 13.8007 6.12656L13.8853 6.23655L13.7754 6.46499C13.6061 6.71035 13.3354 6.65113 12.5062 6.44807L12.3793 6.41423C11.4994 6.20271 10.5518 6.17732 9.57882 6.32116C9.34783 6.35416 9.06858 6.41933 8.8195 6.47746L8.80043 6.48191C8.11511 6.63421 7.88666 6.68497 7.72591 6.48191L7.59899 6.32962L7.68361 6.12656C7.6708 6.09838 7.65566 6.06554 7.63913 6.0297L7.63912 6.02966C7.60107 5.94713 7.55567 5.84865 7.51439 5.75429C7.13365 4.90821 6.57525 4.35826 5.80532 4.05367C5.49553 3.92658 5.17083 3.82932 4.85222 3.73388L4.79002 3.71524L3.85934 3.42758C3.53783 3.33451 3.21632 3.23298 2.90328 3.12299C3.29247 3.9183 3.8255 4.60362 4.4939 5.17049L4.49395 5.17054L4.49396 5.17055L4.49397 5.17055C4.73931 5.37359 4.98464 5.57663 5.23844 5.77121C5.49226 5.96581 5.73763 6.16886 5.98299 6.37192C6.46526 6.77804 6.76984 7.82717 6.74446 8.00485C6.79523 8.57172 6.58371 9.16397 6.10144 9.74777C5.81378 10.0947 5.46688 10.3908 5.04385 10.6615C4.76464 10.8307 4.5785 11.0338 4.46851 11.2876C3.95241 12.4552 3.71551 13.5636 3.74935 14.6888ZM3.76627 6.10964C2.84405 5.26356 2.18411 4.36672 1.74415 3.37681L1.73569 3.38527C1.58339 3.97753 1.51571 4.5867 1.52417 5.22126C1.54109 6.21117 1.76107 7.20108 2.17565 8.1656C2.47178 8.85939 2.82713 9.32473 3.30093 9.63778C3.72397 9.91698 4.1047 9.92544 4.50236 9.66316C4.87463 9.40934 5.18768 9.07937 5.42458 8.68171C5.55149 8.47865 5.60226 8.26713 5.58533 8.03023C5.57687 7.83563 5.47535 7.66642 5.26383 7.46336C4.97616 7.20108 4.68849 6.93879 4.40083 6.68497C4.29507 6.58767 4.18931 6.49249 4.08356 6.39731L4.08345 6.39722C3.97773 6.30206 3.872 6.20691 3.76627 6.10964ZM17.1258 9.80699C17.3966 9.96775 17.6758 9.95928 17.9719 9.78161C18.2257 9.62932 18.4542 9.40934 18.6741 9.12167C19.4018 8.13176 19.8079 6.93879 19.9009 5.46662C19.9432 4.80668 19.8925 4.14674 19.7317 3.50372C19.727 3.47517 19.7195 3.44929 19.7124 3.42458L19.7124 3.42456L19.7124 3.42454C19.7069 3.40534 19.7016 3.38685 19.6979 3.36835C19.6852 3.3979 19.6726 3.42535 19.6599 3.45279L19.6598 3.45296C19.6471 3.48046 19.6344 3.50795 19.6217 3.53757C19.1649 4.52748 18.4711 5.4074 17.4389 6.32116L17.1004 6.61728C16.7789 6.89649 16.4659 7.17569 16.1613 7.47182C15.789 7.82717 15.7382 8.11484 15.9582 8.5548C16.2205 9.08783 16.6182 9.5024 17.1258 9.80699ZM9.84107 16.9144C9.26573 17.2105 8.76655 17.3544 8.24198 17.3459C7.62435 17.3374 7.1167 17.0751 6.81211 16.6013C6.51598 16.1275 6.46522 15.5014 6.69366 14.9938C6.86288 14.6131 7.10824 14.2577 7.31976 13.9616C7.32822 13.9447 8.06431 12.9717 8.40274 12.6502H8.39428L8.46196 12.5571L8.61426 12.354L8.75809 12.1679C8.89346 11.9902 9.03729 11.8126 9.19805 11.6433C9.60416 11.2203 10.2303 10.9919 10.8564 11.0172C11.4825 11.0426 12.0493 11.3387 12.4554 11.8464C12.5231 11.931 12.6331 12.0664 12.76 12.2102L12.8125 12.271L12.8125 12.2711L12.8126 12.2712C13.0083 12.498 13.2077 12.729 13.2931 12.8532C13.4363 13.0616 13.5845 13.2599 13.7339 13.4597C13.7787 13.5196 13.8235 13.5796 13.8684 13.6401C13.9445 13.7457 14.0206 13.8493 14.0966 13.9529L14.0967 13.9529L14.0968 13.9531C14.173 14.0568 14.2491 14.1604 14.3253 14.2662C14.5791 14.6215 14.8414 15.0615 14.8583 15.603C14.8752 16.2968 14.5622 17.109 13.6399 17.3036C13.4707 17.3374 13.2931 17.3544 13.1238 17.3544C12.8446 17.3544 12.5739 17.312 12.3116 17.219C12.0324 17.1175 11.7617 16.9905 11.4909 16.8636C10.9494 16.6098 10.4079 16.6183 9.84107 16.9144ZM7.87817 14.9007C7.72587 15.1207 7.60742 15.3492 7.5482 15.5607L7.56512 15.5522C7.51435 15.7383 7.53128 15.916 7.61589 16.0599C7.70896 16.2121 7.86971 16.3221 8.06431 16.3644C8.42812 16.4406 8.80885 16.3729 9.23189 16.1614C9.62955 15.9583 10.0695 15.7637 10.5687 15.7299C11.2202 15.6876 11.7617 15.916 12.227 16.1529C12.5654 16.3306 12.8616 16.3983 13.1746 16.3983C13.4369 16.4067 13.6146 16.3475 13.7415 16.2206C13.8768 16.0683 13.9361 15.8399 13.9022 15.5353C13.8684 15.2476 13.6992 15.0192 13.5384 14.8246C13.1069 14.3169 12.6754 13.7416 12.2101 13.0647C12.0493 12.8278 11.8378 12.5825 11.5586 12.2864C11.1102 11.821 10.3741 11.8802 9.96798 12.2356C9.76492 12.4048 9.57032 12.6248 9.37573 12.8786C8.81732 13.6062 8.32659 14.2662 7.87817 14.9007ZM9.19807 15.5605C9.22345 15.5605 9.25095 15.5626 9.27844 15.5648C9.30594 15.5669 9.33344 15.569 9.35882 15.569C9.61265 15.569 9.85801 15.4675 10.0357 15.2813C10.2641 15.0444 10.3657 14.7144 10.3064 14.376C10.2246 13.9259 9.63619 13.9903 9.38334 14.018L9.35882 14.0207C9.32498 14.0207 9.29959 14.0207 9.29113 14.0291C8.89348 14.0376 8.58889 14.3337 8.56351 14.7314C8.53813 15.1544 8.80041 15.4928 9.19807 15.5521V15.5605ZM12.024 15.6027H11.9309L11.9224 15.5942C11.4063 15.535 11.0341 15.0866 11.0679 14.5535C11.0848 14.3251 11.1948 14.1982 11.2879 14.1305C11.4825 13.9867 11.7955 13.9782 12.2186 14.0967L12.1763 14.2997L12.2355 14.0967C12.6247 14.2066 12.8362 14.562 12.7601 14.9597C12.6839 15.3488 12.3878 15.6027 12.024 15.6027Z" fill="#FFF8E6"/>
</svg>
