<svg width="19" height="21" viewBox="0 0 19 21" fill="none" xmlns="http://www.w3.org/2000/svg">
<path id="Union" fill-rule="evenodd" clip-rule="evenodd" d="M14.7313 11.4867C14.7196 11.4947 14.7078 11.5027 14.696 11.5107V11.5275C14.5364 11.6367 14.2592 11.8299 14.2004 11.9139V11.9559V12.0063C14.1752 12.3004 14.276 12.9809 14.4272 13.1489C15.1329 13.9554 15.5866 14.7787 15.8218 15.6608C16.1494 16.8958 15.9478 18.1308 15.2589 19.1305C14.57 20.1303 13.4947 20.7519 12.2345 20.8948C11.9079 20.9303 11.3533 20.9178 11.1437 20.913C11.1053 20.9122 11.0785 20.9116 11.0667 20.9116C10.9604 20.9116 10.776 20.9138 10.5406 20.9166C10.1252 20.9215 9.55097 20.9284 8.96646 20.9284C7.97513 20.9284 6.95019 20.9116 6.63094 20.8444C4.92551 20.4915 3.64853 19.2817 3.31249 17.6855C3.07726 16.5766 3.27048 15.4592 3.90057 14.3755C4.1358 13.9722 4.40464 13.5858 4.72388 13.2161C5.11874 12.754 5.07673 12.1156 5.00952 11.9811C4.97061 11.9293 4.78652 11.7672 4.60024 11.6033C4.54521 11.5549 4.48998 11.5063 4.43824 11.4603L4.40401 11.43C3.76055 10.8619 2.90069 10.1027 2.42197 9.35158C1.26261 7.52013 0.61572 5.45345 0.506505 3.20194C0.481301 2.68947 0.498103 2.177 0.514906 1.68133C0.515217 1.67354 0.515529 1.66577 0.51584 1.658C0.523919 1.45634 0.531708 1.26189 0.531708 1.05965C0.531708 1.00084 0.540109 0.942031 0.556912 0.849619L0.674528 0.0263062L1.38863 0.261538L1.79188 0.387556C1.84786 0.405712 1.90411 0.423595 1.96059 0.441549C2.21771 0.52329 2.47946 0.606503 2.74121 0.723602C4.60627 1.54691 6.16048 2.84909 7.36184 4.57973C8.29437 5.93231 8.90765 7.69656 9.11768 9.59522C9.42853 9.56161 9.73937 9.56161 10.0502 9.59522C10.277 6.85644 11.4448 4.51252 13.5283 2.61386C14.9061 1.34529 16.3259 0.580782 17.8717 0.261538L18.5774 0.118719L18.6446 1.17726C18.6489 1.23727 18.6537 1.29727 18.6585 1.35713C18.6726 1.53196 18.6866 1.70559 18.6866 1.87456C18.7538 4.29409 18.3085 6.41118 17.3172 8.36025C16.7627 9.4524 16.0906 10.3429 15.2673 11.0822C15.1167 11.225 14.9286 11.3527 14.7313 11.4867ZM14.5868 15.9633C14.402 15.2744 14.0408 14.6191 13.4611 13.9638L13.4695 13.9974C13.0914 13.5606 12.915 12.712 12.9402 12.0484C12.7974 5.50386 15.0321 3.88243 15.2841 3.72281L15.973 4.77296C15.9562 4.78136 14.4524 5.91551 14.2256 10.3345C14.2396 10.3236 14.2532 10.3131 14.2667 10.3027C14.326 10.2568 14.3808 10.2144 14.4356 10.1665C15.1497 9.53641 15.721 8.7635 16.2083 7.81417C17.0988 6.05833 17.502 4.13447 17.4348 1.93337C17.4264 1.85776 17.4264 1.78215 17.4264 1.70654C16.3679 2.05098 15.3849 2.65587 14.3768 3.57159C12.3437 5.42825 11.3272 7.65455 11.2684 10.3765L11.2516 11.1746L10.4787 10.973C9.88219 10.8218 9.30251 10.8218 8.69763 10.973L7.96673 11.1578L7.90792 10.3345C7.7819 8.41905 7.21902 6.62961 6.3117 5.31063C5.25315 3.77322 3.87537 2.62226 2.22874 1.89136C2.08592 1.83255 1.9263 1.77375 1.76668 1.72334V1.74854C1.76451 1.87395 1.76124 1.99769 1.758 2.12019C1.74864 2.47365 1.73956 2.81679 1.75828 3.15993C1.85909 5.21822 2.42197 7.03286 3.48051 8.69629C3.83336 9.25077 4.53066 9.88085 5.09353 10.3849C4.8919 7.09167 2.94284 4.63854 2.94284 4.63854L3.91737 3.84043C4.04339 3.98325 6.87458 7.52853 6.2949 12.166C6.3285 12.7709 6.13527 13.4933 5.66481 14.0394C5.39597 14.3503 5.16914 14.6695 4.97592 15.0056C4.50545 15.8205 4.36263 16.6102 4.53066 17.4251C4.76589 18.5424 5.64801 19.3574 6.87458 19.6094C7.20222 19.6682 9.2605 19.6766 11.0583 19.643C11.096 19.643 11.1433 19.6432 11.1972 19.6435C11.4564 19.6449 11.8677 19.6471 12.0833 19.6262C12.9738 19.5254 13.7215 19.0885 14.2004 18.3996C14.6792 17.7023 14.8137 16.837 14.5868 15.9633ZM9.58813 15.5598C9.79815 15.4086 10.067 15.2826 10.3946 15.2405L10.361 15.2237C10.9827 15.1481 11.5876 15.417 12.1673 16.0135C12.4277 16.2655 12.4193 16.6771 12.1673 16.9292C12.0413 17.0552 11.8816 17.114 11.7136 17.114C11.5456 17.114 11.3776 17.0468 11.2516 16.9208C10.9743 16.6435 10.7223 16.4923 10.5291 16.5175C10.2938 16.5427 10.1174 16.8116 10.1174 16.8116L10.1006 16.8284V16.8452V17.7861C10.1006 18.0801 9.86536 18.3154 9.57132 18.3154C9.27728 18.3154 9.04205 18.0801 9.04205 17.7861V16.8452C9.04205 16.841 9.03785 16.8389 9.03365 16.8368C9.02945 16.8347 9.02525 16.8326 9.02525 16.8284C9.01685 16.8116 8.84042 16.5595 8.61359 16.5343C8.42037 16.5091 8.16833 16.6603 7.89109 16.9376C7.63906 17.1896 7.2274 17.198 6.97537 16.946C6.73173 16.6939 6.72333 16.2823 6.97537 16.0303C7.56345 15.4338 8.17673 15.1649 8.78161 15.2405C9.10926 15.2826 9.3781 15.4086 9.58813 15.5598Z" fill="#FFF8E6"/>
</svg>
