<svg width="25" height="25" viewBox="0 0 25 25" fill="none" xmlns="http://www.w3.org/2000/svg">
<g id="Livestock-icon-btn-list">
<rect x="0.591797" y="0.477295" width="24" height="24" rx="4" fill="white" fill-opacity="0.2"/>
<path id="Vector" d="M12.8136 17.3758L12.3847 17.6327L12.8136 18.3491L13.2426 17.6327L12.8136 17.3758ZM14.2513 17.7261C14.4448 17.9231 14.7613 17.9261 14.9584 17.7327C15.1555 17.5392 15.1584 17.2227 14.965 17.0256L14.2513 17.7261ZM10.6623 17.0256C10.4688 17.2227 10.4718 17.5392 10.6689 17.7327C10.866 17.9261 11.1825 17.9231 11.376 17.7261L10.6623 17.0256ZM11.9234 11.6286H12.4234V11.6108L12.4221 11.593L11.9234 11.6286ZM10.5144 7.74427L10.9267 7.46138L10.9264 7.461L10.5144 7.74427ZM6.89031 4.709L6.68551 5.16514L6.68844 5.16643L6.89031 4.709ZM5.80378 4.34448L5.96457 3.87104L5.40022 3.67938L5.30959 4.26845L5.80378 4.34448ZM5.77574 4.51973L5.28254 4.43753L5.27674 4.47237L5.27589 4.50768L5.77574 4.51973ZM5.75471 6.27219L6.25414 6.24822L6.25413 6.24813L5.75471 6.27219ZM7.26884 11.144L7.6919 10.8776L7.69116 10.8764L7.26884 11.144ZM9.13347 14.9855L8.75688 14.6565L8.75658 14.6569L9.13347 14.9855ZM8.50258 15.8687L8.07209 15.6143L8.06921 15.6193L8.50258 15.8687ZM8.06797 18.2591L7.57814 18.3594L7.57869 18.3621L8.06797 18.2591ZM10.4303 20.4882L10.3294 20.9779L10.3322 20.9785L10.4303 20.4882ZM14.0334 20.5303L14.0508 20.0306L14.0376 20.0301L14.0244 20.0303L14.0334 20.5303ZM14.9376 20.5162L14.8834 20.0192L14.8799 20.0196L14.9376 20.5162ZM17.4752 16.808L16.9915 16.9348L16.9921 16.9367L17.4752 16.808ZM16.4237 14.9224L16.8003 14.5935L16.7995 14.5926L16.4237 14.9224ZM17.1878 12.4759L17.5205 12.8492L17.5212 12.8485L17.1878 12.4759ZM18.779 10.3589L18.3338 10.1315L18.3334 10.1322L18.779 10.3589ZM19.8656 5.19969L19.3657 5.2125L19.3658 5.21325L19.8656 5.19969ZM19.8095 4.3585L20.3082 4.32288L20.2676 3.75405L19.709 3.86871L19.8095 4.3585ZM16.4307 6.19509L16.7679 6.56433L16.4307 6.19509ZM13.6688 12.2516L13.5422 12.7353L14.1541 12.8956L14.1687 12.2632L13.6688 12.2516ZM11.9234 12.2516H11.4234V12.8994L12.0501 12.7353L11.9234 12.2516ZM13.3136 17.2496C13.3136 16.9735 13.0898 16.7496 12.8136 16.7496C12.5375 16.7496 12.3136 16.9735 12.3136 17.2496H13.3136ZM12.3136 18.4694C12.3136 18.7455 12.5375 18.9694 12.8136 18.9694C13.0898 18.9694 13.3136 18.7455 13.3136 18.4694H12.3136ZM12.8136 17.3758C13.2426 17.6327 13.2425 17.6329 13.2423 17.6332C13.2423 17.6332 13.2422 17.6335 13.2421 17.6336C13.2419 17.6339 13.2417 17.6342 13.2416 17.6344C13.2412 17.635 13.241 17.6354 13.2407 17.6358C13.2402 17.6366 13.2399 17.6372 13.2397 17.6375C13.2393 17.6381 13.2394 17.6379 13.2401 17.6368C13.2416 17.6346 13.2451 17.6293 13.2507 17.6215C13.2621 17.6057 13.2809 17.5813 13.3062 17.5536C13.3595 17.4953 13.4272 17.4385 13.5015 17.4044C13.5676 17.374 13.6424 17.3592 13.7402 17.3828C13.8452 17.4081 14.018 17.4883 14.2513 17.7261L14.965 17.0256C14.641 16.6955 14.3108 16.4918 13.9749 16.4107C13.6317 16.3278 13.3276 16.3839 13.0844 16.4955C12.8494 16.6034 12.6774 16.7595 12.5684 16.8786C12.5126 16.9397 12.4695 16.9951 12.4393 17.037C12.4242 17.0581 12.412 17.076 12.403 17.0899C12.3984 17.0968 12.3946 17.1028 12.3916 17.1077C12.39 17.1101 12.3887 17.1123 12.3876 17.1142C12.387 17.1151 12.3865 17.116 12.386 17.1168C12.3857 17.1172 12.3855 17.1176 12.3853 17.1179C12.3852 17.1181 12.385 17.1184 12.385 17.1185C12.3848 17.1187 12.3847 17.119 12.8136 17.3758ZM12.8136 17.3758C13.2426 17.119 13.2425 17.1187 13.2423 17.1185C13.2423 17.1184 13.2421 17.1181 13.242 17.1179C13.2418 17.1176 13.2416 17.1172 13.2413 17.1168C13.2408 17.116 13.2403 17.1151 13.2397 17.1142C13.2386 17.1123 13.2372 17.1101 13.2357 17.1077C13.2327 17.1028 13.2289 17.0968 13.2243 17.0899C13.2153 17.076 13.2031 17.0581 13.188 17.037C13.1578 16.9951 13.1147 16.9397 13.0589 16.8786C12.9499 16.7595 12.7779 16.6034 12.5429 16.4955C12.2997 16.3839 11.9956 16.3278 11.6524 16.4107C11.3164 16.4918 10.9862 16.6955 10.6623 17.0256L11.376 17.7261C11.6093 17.4883 11.782 17.4081 11.8871 17.3828C11.9848 17.3592 12.0597 17.374 12.1258 17.4044C12.2001 17.4385 12.2677 17.4953 12.3211 17.5536C12.3464 17.5813 12.3652 17.6057 12.3765 17.6215C12.3822 17.6293 12.3857 17.6346 12.3871 17.6368C12.3878 17.6379 12.388 17.6381 12.3876 17.6375C12.3874 17.6372 12.387 17.6366 12.3866 17.6358C12.3863 17.6354 12.386 17.635 12.3857 17.6344C12.3856 17.6342 12.3854 17.6339 12.3852 17.6336C12.3851 17.6335 12.385 17.6332 12.3849 17.6332C12.3848 17.6329 12.3847 17.6327 12.8136 17.3758ZM12.4221 11.593C12.399 11.2697 12.3204 9.49257 10.9267 7.46139L10.1021 8.02715C11.3442 9.83737 11.4057 11.3988 11.4247 11.6643L12.4221 11.593ZM10.9264 7.461C9.95163 6.04312 8.67492 4.95004 7.09218 4.25156L6.68844 5.16643C8.0919 5.7858 9.22658 6.75363 10.1024 8.02753L10.9264 7.461ZM7.0951 4.25286C6.89461 4.16284 6.6922 4.09606 6.5046 4.03833C6.30769 3.97774 6.14156 3.93115 5.96457 3.87104L5.64299 4.81792C5.83752 4.88399 6.04292 4.94255 6.21052 4.99411C6.38743 5.04855 6.54253 5.10093 6.68551 5.16513L7.0951 4.25286ZM5.30959 4.26845C5.29599 4.35691 5.28933 4.3968 5.28254 4.43753L6.26894 4.60193C6.27617 4.55854 6.28353 4.51431 6.29797 4.42051L5.30959 4.26845ZM5.27589 4.50768C5.26244 5.06561 5.22609 5.69038 5.25529 6.29626L6.25413 6.24813C6.22725 5.69037 6.261 5.13749 6.2756 4.53177L5.27589 4.50768ZM5.25529 6.29617C5.34328 8.12946 5.85084 9.84076 6.84652 11.4117L7.69116 10.8764C6.79418 9.46114 6.33437 7.91986 6.25414 6.24822L5.25529 6.29617ZM6.84578 11.4105C7.16759 11.9214 7.70771 12.4378 8.14982 12.8354C8.36216 13.0264 8.60408 13.2355 8.7506 13.3663C8.83234 13.4393 8.89729 13.4991 8.94567 13.5469C9.00097 13.6015 9.0107 13.6174 9.00328 13.6061L9.83846 13.0561C9.78372 12.973 9.70824 12.8945 9.64845 12.8354C9.58175 12.7696 9.50173 12.6964 9.41666 12.6204C9.22955 12.4533 9.05044 12.3005 8.81854 12.0919C8.37215 11.6904 7.93088 11.2569 7.6919 10.8776L6.84578 11.4105ZM9.00328 13.6061C8.99775 13.5977 9.01664 13.6264 9.0299 13.7107C9.04209 13.7881 9.04559 13.8887 9.03272 14.0019C9.00668 14.2311 8.91887 14.4711 8.75688 14.6565L9.51005 15.3144C9.83174 14.9461 9.98227 14.5025 10.0263 14.1149C10.0676 13.7513 10.0248 13.3391 9.83846 13.0561L9.00328 13.6061ZM8.75658 14.6569C8.49482 14.9571 8.26711 15.2843 8.07211 15.6143L8.93304 16.1231C9.10256 15.8362 9.29544 15.5605 9.51035 15.314L8.75658 14.6569ZM8.06921 15.6193C7.59237 16.4479 7.37409 17.3636 7.57814 18.3594L8.55779 18.1587C8.41135 17.4441 8.55758 16.7756 8.93594 16.1181L8.06921 15.6193ZM7.57869 18.3621C7.87906 19.7888 9.01362 20.7068 10.3294 20.9779L10.5312 19.9985C9.53371 19.7929 8.76158 19.1267 8.55724 18.1561L7.57869 18.3621ZM10.3322 20.9785C10.507 21.0134 10.8429 21.0278 11.1884 21.036C11.5555 21.0447 11.9955 21.0469 12.4169 21.046C12.8389 21.0451 13.2451 21.0412 13.5456 21.0374C13.6959 21.0356 13.8199 21.0338 13.9065 21.0324C13.9497 21.0317 13.9836 21.0312 14.0067 21.0308C14.0183 21.0306 14.0271 21.0304 14.0331 21.0303C14.0361 21.0303 14.0384 21.0302 14.04 21.0302C14.0407 21.0302 14.0413 21.0302 14.0417 21.0302C14.0419 21.0302 14.0421 21.0302 14.0422 21.0302C14.0422 21.0302 14.0423 21.0302 14.0423 21.0302C14.0423 21.0302 14.0424 21.0302 14.0334 20.5303C14.0244 20.0303 14.0243 20.0303 14.0243 20.0303C14.0243 20.0303 14.0243 20.0303 14.0242 20.0303C14.0242 20.0303 14.024 20.0303 14.0239 20.0303C14.0235 20.0304 14.023 20.0304 14.0222 20.0304C14.0208 20.0304 14.0186 20.0304 14.0157 20.0305C14.0099 20.0306 14.0012 20.0307 13.9898 20.0309C13.9671 20.0313 13.9337 20.0319 13.8909 20.0325C13.8053 20.0339 13.6823 20.0357 13.5332 20.0375C13.2348 20.0412 12.8322 20.0452 12.4148 20.046C11.9967 20.0469 11.5666 20.0447 11.2121 20.0363C10.8361 20.0274 10.5989 20.012 10.5283 19.9979L10.3322 20.9785ZM14.0334 20.5303C14.0159 21.03 14.0159 21.03 14.016 21.03C14.016 21.03 14.016 21.03 14.016 21.03C14.0161 21.03 14.0161 21.03 14.0162 21.03C14.0163 21.03 14.0165 21.03 14.0167 21.03C14.0171 21.03 14.0176 21.03 14.0183 21.03C14.0196 21.0301 14.0215 21.0301 14.024 21.0302C14.0289 21.0304 14.036 21.0306 14.045 21.0309C14.063 21.0314 14.0888 21.0321 14.1206 21.0329C14.1841 21.0343 14.2721 21.0359 14.3701 21.0364C14.5578 21.0373 14.8113 21.0343 14.9954 21.0129L14.8799 20.0196C14.7625 20.0332 14.5639 20.0373 14.3748 20.0364C14.2844 20.036 14.2029 20.0345 14.1439 20.0331C14.1145 20.0324 14.0908 20.0318 14.0747 20.0313C14.0666 20.0311 14.0605 20.0309 14.0564 20.0307C14.0544 20.0307 14.0529 20.0306 14.0519 20.0306C14.0515 20.0306 14.0511 20.0306 14.0509 20.0306C14.0508 20.0306 14.0508 20.0306 14.0508 20.0306C14.0507 20.0306 14.0507 20.0306 14.0507 20.0306C14.0507 20.0306 14.0508 20.0306 14.0508 20.0306C14.0508 20.0306 14.0508 20.0306 14.0334 20.5303ZM14.9918 21.0133C17.1616 20.7767 18.5207 18.7901 17.9584 16.6793L16.9921 16.9367C17.3971 18.4571 16.4429 19.8492 14.8834 20.0192L14.9918 21.0133ZM17.9589 16.6812C17.7446 15.864 17.3188 15.1871 16.8003 14.5935L16.0471 15.2513C16.496 15.7652 16.8272 16.308 16.9915 16.9348L17.9589 16.6812ZM16.7995 14.5926C16.7863 14.5774 16.7502 14.522 16.7113 14.4064C16.6748 14.2981 16.6458 14.1667 16.6276 14.0296C16.6095 13.8925 16.6038 13.7623 16.6087 13.6584C16.6144 13.5378 16.6318 13.5067 16.6208 13.5293L15.722 13.0909C15.6408 13.2572 15.6171 13.4565 15.6098 13.6115C15.6018 13.7832 15.6115 13.9737 15.6363 14.1608C15.661 14.3479 15.7025 14.5442 15.7635 14.7255C15.8221 14.8995 15.9105 15.0956 16.0479 15.2522L16.7995 14.5926ZM16.6208 13.5293C16.6153 13.5405 16.6228 13.5208 16.6791 13.47C16.7318 13.4224 16.8035 13.3685 16.897 13.3033C17.0602 13.1896 17.3294 13.0195 17.5205 12.8492L16.8551 12.1027C16.7237 12.2198 16.5548 12.323 16.3255 12.4827C16.2227 12.5543 16.1095 12.637 16.0089 12.7278C15.9118 12.8155 15.7975 12.936 15.722 13.0909L16.6208 13.5293ZM17.5212 12.8485C18.2413 12.2043 18.7954 11.4295 19.2247 10.5857L18.3334 10.1322C17.9495 10.8867 17.4662 11.5559 16.8544 12.1033L17.5212 12.8485ZM19.2243 10.5864C20.0964 8.87925 20.4163 7.0619 20.3654 5.18612L19.3658 5.21325C19.413 6.95456 19.116 8.60008 18.3338 10.1315L19.2243 10.5864ZM20.3654 5.18687C20.358 4.8985 20.3278 4.59652 20.3082 4.32288L19.3108 4.39413C19.3333 4.70931 19.3591 4.9541 19.3657 5.2125L20.3654 5.18687ZM19.709 3.86871C18.2621 4.16569 17.104 4.90326 16.0936 5.82584L16.7679 6.56433C17.6921 5.72043 18.6931 5.09808 19.91 4.84829L19.709 3.86871ZM16.0936 5.82584C14.2206 7.53597 13.2283 9.67646 13.169 12.2401L14.1687 12.2632C14.2216 9.97593 15.0939 8.09276 16.7679 6.56433L16.0936 5.82584ZM13.7955 11.7679C13.1236 11.592 12.4686 11.592 11.7967 11.7679L12.0501 12.7353C12.5558 12.6028 13.0364 12.6028 13.5422 12.7353L13.7955 11.7679ZM12.4234 12.2516V11.6286H11.4234V12.2516H12.4234ZM7.67541 7.14142C7.28802 7.45753 7.28791 7.4574 7.28782 7.45728C7.2878 7.45726 7.28771 7.45715 7.28767 7.4571C7.28759 7.457 7.28755 7.45695 7.28754 7.45694C7.28752 7.45692 7.28764 7.45707 7.28791 7.45739C7.28843 7.45804 7.2895 7.45938 7.29111 7.46139C7.29432 7.46543 7.29967 7.47219 7.30699 7.48161C7.32163 7.50045 7.34414 7.52991 7.37328 7.56949C7.43157 7.64869 7.51622 7.76818 7.61722 7.92395C7.81948 8.23589 8.08581 8.69099 8.33744 9.25727C8.84217 10.3931 9.27719 11.9518 9.04445 13.6925L10.0356 13.825C10.3006 11.8434 9.80329 10.0935 9.25128 8.8512C8.97455 8.22843 8.6814 7.72712 8.45628 7.37991C8.34359 7.20611 8.24757 7.07035 8.17862 6.97668C8.14413 6.92983 8.11638 6.89346 8.09666 6.86807C8.08679 6.85538 8.07893 6.84543 8.07324 6.83828C8.07039 6.83471 8.06809 6.83183 8.06634 6.82967C8.06547 6.82859 8.06474 6.82768 8.06415 6.82696C8.06385 6.82659 8.06359 6.82627 8.06337 6.826C8.06326 6.82586 8.06312 6.82569 8.06306 6.82562C8.06293 6.82546 8.06281 6.82531 7.67541 7.14142ZM17.8397 7.14142C17.5702 6.72025 17.5698 6.72053 17.5694 6.72082C17.5692 6.72092 17.5687 6.72121 17.5684 6.72141C17.5678 6.72182 17.5671 6.72225 17.5665 6.72269C17.5651 6.72358 17.5636 6.72456 17.562 6.72561C17.5588 6.72772 17.5552 6.73015 17.5512 6.73291C17.5432 6.73845 17.5335 6.74532 17.5222 6.75363C17.4997 6.77026 17.471 6.79261 17.4372 6.82143C17.3694 6.87911 17.2813 6.96244 17.1803 7.07723C16.9779 7.30726 16.7268 7.66066 16.4859 8.18209C16.0042 9.22463 15.5686 10.9267 15.6294 13.6437L16.6292 13.6214C16.5709 11.0179 16.9904 9.47442 17.3937 8.60152C17.5953 8.16522 17.7941 7.89343 17.9311 7.7377C17.9998 7.65961 18.0536 7.60992 18.0855 7.58279C18.1014 7.56921 18.112 7.56121 18.1162 7.55809C18.1183 7.55653 18.1189 7.55619 18.1177 7.55696C18.1172 7.55735 18.1162 7.55802 18.1148 7.55896C18.114 7.55943 18.1132 7.55997 18.1123 7.56058C18.1118 7.56088 18.1114 7.5612 18.1108 7.56153C18.1106 7.5617 18.1102 7.56196 18.11 7.56204C18.1096 7.56231 18.1092 7.56258 17.8397 7.14142ZM12.3136 17.2496V18.4694H13.3136V17.2496H12.3136Z" fill="#325442"/>
</g>
</svg>
