<svg width="382" height="278" viewBox="0 0 382 278" fill="none" xmlns="http://www.w3.org/2000/svg">
<g transform="translate(-0.0106 -1.0106) scale(1.005305)">
<path d="M305.437 218.645C308.318 217.947 310.661 217.936 313.577 217.689L324.889 216.718C358.296 214 380.85 193.175 377.913 158.304C377.35 151.683 375.979 145.155 373.831 138.866C369.404 125.914 362.503 114.221 354.941 102.896C340.872 81.5321 323.851 62.2658 304.384 45.6706C268.722 15.5275 228.868 -1.43603 181.588 2.57686C166.685 3.84174 151.908 8.43878 137.661 12.8166C99.5141 24.5393 49.0049 43.3622 22.8636 74.4026C5.4975 95.0233 0.266754 115.067 2.53168 141.633C4.20291 156.375 8.54565 171.14 15.0785 185.003C35.9567 229.292 89.6662 229.077 131.542 229.962C134.725 229.946 137.975 229.567 141.147 229.54C157.129 229.403 173.161 228.626 189.121 227.754C193.833 227.497 199.606 227.298 204.28 226.765C204.717 226.714 205.153 226.651 205.586 226.574C208.427 225.73 208.231 221.804 209.869 219.308C213.848 220.29 214.974 221.393 218.281 223.718C218.911 224.161 220.054 225.049 220.733 225.303L221.478 225.524C223.18 225.518 231.318 224.674 232.996 224.444C234.496 224.907 235.756 225.294 237.214 225.885C234.5 228.828 232.582 234.983 232.774 238.985C233.045 244.645 236.16 249.223 240.814 252.282L241.934 252.865L242.104 252.945C245.32 253.247 249.172 253.155 252.454 253.155L267.88 253.15L286.357 253.172C288.5 253.175 297.377 253.461 298.666 252.603C299.771 251.044 300.785 249.422 301.704 247.746C306.871 238.265 308.476 229.028 305.437 218.645Z" fill="#DBEFE2"/>
<path d="M202.394 131.998C181.991 130.083 163.068 127.396 142.265 128.725C136.178 129.947 131.531 129.497 125.513 130.259C107.654 132.52 90.0256 136.072 72.8491 141.494C69.9506 142.408 65.6926 143.714 63.1883 145.271C60.412 144.05 60.0753 144.978 58.4414 147.232C57.092 146.745 56.6255 146.621 55.271 147.026C53.7719 144.437 52.2628 144.339 49.9605 145.964C47.9649 144.383 47.2266 144.947 44.6673 144.641C43.5798 145.385 42.4548 146.17 41.3049 146.814C37.5707 148.909 32.8139 146.809 31.0105 143.065C29.0499 142.419 27.0943 143.075 25.7223 142.42C25.428 142.444 21.1077 144.877 20.4142 145.243C17.1042 144.619 15.817 143.87 13.2104 141.831C10.8232 141.952 5.32559 141.669 2.53186 141.633C4.20309 156.375 8.54585 171.14 15.0787 185.003C35.9568 229.292 89.6664 229.077 131.542 229.962C134.725 229.946 137.975 229.567 141.148 229.54C157.129 229.403 173.161 228.626 189.121 227.754C193.833 227.497 199.606 227.298 204.28 226.765C204.717 226.714 205.153 226.651 205.586 226.574C208.427 225.73 208.231 221.804 209.869 219.308C210.515 218.338 212.8 210.009 213.466 208.102C209.15 204.971 203.946 202.066 199.383 199.235C197.692 198.186 194.426 197.019 192.989 195.959C195.454 193.822 194.976 191.146 191.425 191.632C190.122 191.81 189.589 192.99 188.959 194.061C187.866 192.821 186.739 192.081 185.091 192.485C184.713 192.046 184.114 191.559 183.668 191.167C183.401 190.916 183.222 190.302 182.788 190.052C180.858 188.936 176.813 187.452 175.288 186.003C176.901 183.372 173.615 180.966 170.839 184.046C169.432 183.505 167.573 182.514 166.178 181.815C162.944 180.316 159.709 178.132 156.203 177.441C156.564 176.917 157.075 176.442 157.527 175.984C158.896 175.9 169.249 171.807 171.72 170.932C178.795 168.453 185.907 166.08 193.053 163.812C213.545 157.349 234.389 152.058 255.482 147.965C257.281 147.951 260.949 146.805 263.194 146.399C263.182 146.071 263.161 146.153 262.971 145.826C260.996 145.555 257.673 144.313 255.652 143.686C251.86 142.547 248.051 141.466 244.227 140.444C231.043 137.108 217.707 134.41 204.263 132.359C203.559 132.314 202.986 132.352 202.394 131.998Z" fill="#D0EAD9"/>
<path d="M183.667 191.167C182.628 191.434 181.114 191.826 180.676 192.88C179.445 195.842 186.811 199.023 188.891 198.105C189.885 197.667 191.961 196.515 192.989 195.959C195.453 193.822 194.976 191.146 191.425 191.632C190.122 191.81 189.589 192.99 188.959 194.061C187.866 192.821 186.739 192.081 185.091 192.485C184.713 192.046 184.114 191.559 183.667 191.167Z" fill="#7BCDA2"/>
<path d="M188.96 194.061C187.866 192.821 186.739 192.081 185.091 192.485C185.626 193.495 186.911 196.844 187.277 197.101C187.926 196.701 188.566 194.893 188.96 194.061Z" fill="#D0EAD9"/>
<path d="M63.1881 145.271C60.4118 144.05 60.0751 144.978 58.4412 147.232C57.0918 146.745 56.6253 146.621 55.2708 147.026C53.7717 144.437 52.2626 144.339 49.9603 145.964C48.975 149.461 53.9987 150.684 56.528 151.653C59.005 151.285 65.7872 148.653 63.1881 145.271Z" fill="#7BCDA2"/>
<path d="M58.4414 147.232C57.092 146.745 56.6255 146.621 55.271 147.026C55.8398 148.484 56.4584 150.179 56.9149 151.667C57.299 150.381 57.8228 148.355 58.4414 147.232Z" fill="#D0EAD9"/>
<path d="M147.075 174.017C144.515 172.011 137.768 176.28 150.404 180.62C152.564 179.61 154.234 178.806 156.203 177.441C156.564 176.917 157.075 176.442 157.527 175.984C156.493 172.836 153.988 172.511 152.095 175.434C151.014 177.294 150.767 178.281 150.105 180.354C149.231 177.345 148.924 176.525 147.075 174.017Z" fill="#7BCDA2"/>
<path d="M175.288 186.003C176.901 183.372 173.615 180.966 170.839 184.046C170.159 185.367 169.666 187.178 168.708 188.185L168.36 188.116C167.617 185.686 166.738 183.087 164.04 182.315C158.749 185.196 164.037 187.876 167.265 188.964C170.705 190.123 172.711 187.551 175.288 186.003Z" fill="#7BCDA2"/>
<path d="M101.659 154.821C98.7582 151.776 97.5035 152.357 95.3583 155.696C94.847 157.097 94.6125 158.166 94.2757 159.61C93.6097 157.68 93.2331 156.901 92.2603 155.097C91.5045 154.12 90.8784 153.197 89.6387 152.912C89.0076 153.006 87.9824 153.402 87.693 153.918C85.6726 157.518 92.8764 160.195 95.4531 159.371C98.424 158.423 99.9954 157.044 101.659 154.821Z" fill="#7BCDA2"/>
<path d="M112.725 165.839C114.905 164.975 117.197 164.186 118.769 162.359C120.854 159.932 118.582 157.879 116.092 159.12C115.361 159.484 114.673 160.663 114.254 161.363C113.825 162.059 113.009 164.734 112.737 165.61C112.231 163.81 111.218 161.848 110.901 160.43C109.467 159.094 107.868 158.151 106.127 159.72C104.718 163.188 110.298 164.897 112.725 165.839Z" fill="#7BCDA2"/>
<path d="M75.7226 155.614C77.9626 154.714 83.5551 152.39 82.1757 149.651C80.674 146.67 77.5885 150.302 76.8227 151.399C76.4759 152.299 76.1193 153.571 75.3959 154.134C74.9693 153.849 73.7047 151.027 73.1135 150.05C69.0576 146.21 63.9016 152.179 75.7226 155.614Z" fill="#7BCDA2"/>
<path d="M102.575 197.551C101.462 197.473 99.876 197.519 98.7285 197.518C98.9056 201.98 99.6839 206.779 99.841 211.518C100.869 211.57 101.368 211.636 102.36 211.397C103.326 210.072 103.655 201.346 103.525 199.21C103.503 198.865 102.814 197.88 102.575 197.551Z" fill="#7BCDA2"/>
<path d="M129.03 166.881L128.878 166.722C127.536 165.32 126.229 165.316 124.737 166.567C121.802 169.142 130.961 172.882 132.163 172.454C133.223 172.077 139.404 169.266 138.325 167.291C136.557 164.058 134.298 166.058 133.006 168.144C132.617 168.752 131.6 171.218 131.279 171.98C130.58 169.598 130.255 169.086 129.03 166.881Z" fill="#7BCDA2"/>
<path d="M20.6437 172.846C19.399 172.91 18.1568 172.967 16.9121 173.016C17.3836 175.964 17.5781 185.202 18.501 186.956C19.2544 187.157 19.7582 187.391 20.4641 187.125C21.2549 185.645 21.7288 177.797 22.0157 175.48C21.5392 174.634 21.0877 173.714 20.6437 172.846Z" fill="#7BCDA2"/>
<path d="M143.52 213.471C142.462 213.407 140.738 213.483 139.632 213.497C139.802 217.529 140.493 223.25 140.846 227.422C141.76 227.53 142.419 227.697 143.248 227.312C144 226.451 144.332 217.799 144.592 215.749C144.268 214.973 143.89 214.226 143.52 213.471Z" fill="#7BCDA2"/>
<path d="M129.355 207.829L126.177 208.03C126.142 211.842 127.093 217.69 127.339 221.698C127.519 221.918 127.671 222.104 127.793 222.257C128.918 222.123 129.22 222.155 129.851 221.399C130.291 219.201 130.987 211.865 131.053 209.206C131.066 208.685 129.92 208.096 129.355 207.829Z" fill="#7BCDA2"/>
<path d="M48.0846 179.628C46.9122 179.551 45.5603 179.549 44.3704 179.519C44.2407 184.373 45.5627 189.178 45.3831 193.596C46.2886 193.628 46.8873 193.723 47.7054 193.33C48.7556 192.144 48.8379 184.3 49.0899 182.362C49.2545 181.113 48.9028 180.491 48.0846 179.628Z" fill="#7BCDA2"/>
<path d="M60.2521 182.964C59.4489 182.923 58.5834 182.751 57.9722 183.172C57.8051 183.832 58.1119 185.607 58.2915 186.335C59.0997 189.618 57.1965 196.226 61.1127 197.317C62.2277 196.578 62.749 187.402 62.7315 185.613C62.7141 183.582 61.9932 183.218 60.2521 182.964Z" fill="#7BCDA2"/>
<path d="M33.9537 176.658C32.8461 176.593 31.4343 176.603 30.3043 176.58C31.1051 179.481 31.7237 187.405 32.013 190.667C32.5817 190.628 34.0235 190.585 34.1757 190.214C35.131 187.879 35.5501 179.955 35.6075 177.812C35.0537 177.009 34.9539 177.148 33.9537 176.658Z" fill="#7BCDA2"/>
<path d="M75.0544 187.865L71.1481 188.09C72.3778 192.283 71.879 198.271 73.0463 201.993C73.872 202.278 74.5031 202.246 75.1591 201.699C75.8526 198.51 76.0521 194.752 76.324 191.483C76.4712 189.726 75.7478 189.593 75.1342 188.066L75.0544 187.865Z" fill="#7BCDA2"/>
<path d="M115.898 202.553L112.109 202.622C113.288 207.163 112.772 212.391 113.9 216.512C114.847 216.582 115.411 216.643 116.08 216.133C116.87 213.139 117.452 207.346 116.958 204.168C116.903 203.811 116.164 202.88 115.898 202.553Z" fill="#7BCDA2"/>
<path d="M88.122 192.85L85.2634 193.059C85.2061 197.037 86.0118 201.339 86.3136 205.33C86.3909 206.346 86.4233 206.302 87.1766 206.913C89.3642 206.253 89.5588 204.789 89.3892 202.557C89.1273 199.101 92.1131 194.1 88.122 192.85Z" fill="#7BCDA2"/>
<path d="M149.196 206.418C151.741 203.21 152.672 200.188 147.93 198.88L147.693 199.397C147.113 200.233 147.032 200.398 145.908 200.209L145.36 200.369C142.293 203.25 146.834 205.473 149.196 206.418Z" fill="#FED265"/>
<path d="M28.431 165.011C29.8553 162.579 32.452 157.596 27.1913 157.606C26.6825 158.182 26.5827 158.301 25.9316 158.704C25.55 158.688 25.0362 158.649 24.667 158.669C24.2729 158.877 24.0035 159.409 23.784 159.792C22.3123 162.355 26.9169 164.282 28.431 165.011Z" fill="#FED265"/>
<path d="M109.175 188.933C111.45 185.79 112.834 182.581 107.808 181.465C107.267 182.423 107.219 182.648 106.227 183.064L105.311 182.539C105.044 182.961 104.815 183.406 104.628 183.869C103.458 186.76 107.092 188.132 109.175 188.933Z" fill="#FED265"/>
<path d="M167.808 208.108L167.679 208.451C167.148 209.421 166.998 209.435 165.795 209.322C165.217 209.567 164.977 209.917 164.678 210.448C163.259 212.973 167.619 214.82 169.114 215.546C170.188 214.085 171.036 212.265 171.855 210.632C171.757 210.508 171.656 210.386 171.554 210.266C170.417 208.938 169.543 208.235 167.808 208.108Z" fill="#FED265"/>
<path d="M85.7726 175.296L85.0018 175.566C83.8444 177.121 84.3233 178 85.2662 179.453C88.05 183.737 92.7494 178.5 90.477 175.516C89.806 174.632 88.7734 174.153 87.6783 174.063L87.5486 174.356C86.915 175.15 86.9025 175.445 85.7726 175.296Z" fill="#FED265"/>
<path d="M125.825 190.912C123.261 192.39 125.159 195.442 127.412 196.301C130.24 197.38 131.986 193.406 131.03 191.286C130.597 190.326 128.958 189.713 127.895 189.479C127.534 189.993 127.272 190.434 126.785 190.833L125.825 190.912Z" fill="#FED265"/>
<path d="M48.5087 170.145C50.5616 167.632 52.3276 162.741 47.2291 163.045C46.9447 163.403 46.568 163.953 46.1939 164.172L45.2585 164.162C40.9207 166.462 46.4433 169.251 48.5087 170.145Z" fill="#FED265"/>
<path d="M65.386 169.296C63.6923 170.734 63.8121 172.29 65.2862 173.834C69.8884 178.652 74.1987 168.06 67.3691 168.678C66.7854 169.278 66.7081 169.347 65.8874 169.502L65.386 169.296Z" fill="#FED265"/>
<path d="M166.447 207.771L166.276 207.648C164.668 206.484 164.227 204.6 161.509 205.946L161.448 206.34C162.657 207.763 164.646 207.726 165.795 209.322C166.999 209.435 167.148 209.421 167.679 208.451L166.447 207.771Z" fill="#7BCDA2"/>
<path d="M85.7175 173.633C84.2258 171.97 83.9614 170.969 81.2276 171.883L81.1278 172.282C82.2228 173.706 84.0113 173.839 85.7724 175.296C86.9023 175.445 86.9148 175.15 87.5484 174.356C86.7851 173.972 86.5606 173.851 85.7175 173.633Z" fill="#7BCDA2"/>
<path d="M45.6175 162.552C44.3179 161.037 42.5942 159.284 40.5388 160.796C40.3692 162.222 43.8215 162.721 45.2582 164.162L46.1936 164.172C46.2635 163.576 45.9143 163.111 45.6175 162.552Z" fill="#7BCDA2"/>
<path d="M126.19 189.225C125.079 187.791 122.944 186.027 121.108 187.402C120.809 188.941 124.316 189.282 125.825 190.911L126.786 190.833C126.214 190.392 126.272 189.907 126.19 189.225Z" fill="#7BCDA2"/>
<path d="M107.808 181.465C108.09 180.085 108.564 178.757 107.993 177.518L107.536 177.358C105.975 178.363 106.229 179.218 105.666 180.885C106.239 181.712 106.317 181.936 106.227 183.064C107.22 182.648 107.267 182.423 107.808 181.465Z" fill="#7FBEB6"/>
<path d="M25.2856 156.969C24.1382 155.606 23.5994 154.957 21.751 154.638C20.8007 154.913 21.1299 154.694 20.5113 155.464L20.4839 155.898C21.7012 157.271 23.8613 157.239 24.667 158.669C25.0362 158.649 25.55 158.688 25.9317 158.704C25.333 158.189 25.4403 157.9 25.2856 156.969Z" fill="#7BCDA2"/>
<path d="M146.407 198.772C144.989 197.724 144.181 196.6 142.219 196.445C141.451 196.795 141.703 196.556 141.31 197.403C141.65 198.26 144.462 198.982 145.908 200.209C147.032 200.398 147.113 200.233 147.693 199.397C147.317 199.273 146.773 198.963 146.407 198.772Z" fill="#7BCDA2"/>
<path d="M65.7524 167.856C64.6698 166.765 62.4199 164.594 60.8584 166.214C60.8534 168.221 64.0736 167.873 65.3857 169.296L65.8871 169.503C66.124 168.971 66.139 168.907 66.2388 168.331L65.7524 167.856Z" fill="#7BCDA2"/>
<path d="M105.666 180.885C104.521 179.518 102.775 178.272 101.071 179.583C101.138 181.453 104.047 180.733 105.311 182.54L106.227 183.064C106.317 181.936 106.239 181.712 105.666 180.885Z" fill="#7BCDA2"/>
<path d="M27.1914 157.606C27.0143 155.86 27.9023 154.778 27.6628 153.43L27.2762 153.193C25.2233 153.413 25.3979 155.264 25.2857 156.969C25.4403 157.9 25.3331 158.189 25.9317 158.704C26.5828 158.301 26.6825 158.182 27.1914 157.606Z" fill="#7FBEB6"/>
<path d="M127.895 189.479C127.935 188.232 128.956 186.276 128.26 184.973C125.935 184.7 126.414 188.615 126.189 189.225C126.272 189.907 126.214 190.392 126.785 190.833C127.272 190.434 127.534 189.993 127.895 189.479Z" fill="#7FBEB6"/>
<path d="M67.3687 168.678C67.2041 166.421 69.0799 164.998 67.6681 163.696C65.7798 163.765 65.9145 166.322 65.7524 167.856L66.2388 168.331C66.139 168.907 66.124 168.971 65.8871 169.503C66.7077 169.347 66.785 169.279 67.3687 168.678Z" fill="#7FBEB6"/>
<path d="M47.2291 163.045C47.249 161.587 48.2293 159.731 47.6057 158.683C46.9971 158.552 46.9123 158.589 46.3261 158.812C45.498 159.855 45.6052 161.257 45.6177 162.552C45.9145 163.111 46.2637 163.576 46.1939 164.172C46.5681 163.953 46.9447 163.403 47.2291 163.045Z" fill="#7FBEB6"/>
<path d="M87.6782 174.063C87.8553 172.684 88.7258 170.804 87.7256 169.6L87.289 169.699C85.6702 171.497 86.219 171.381 85.755 173.47L85.7176 173.633C86.5607 173.851 86.7852 173.972 87.5485 174.356L87.6782 174.063Z" fill="#7FBEB6"/>
<path d="M147.93 198.88C147.763 197.292 149.042 196.488 148.417 194.604L147.776 194.312C146.226 195.429 146.176 197.068 146.407 198.772C146.773 198.963 147.317 199.274 147.693 199.397L147.93 198.88Z" fill="#7FBEB6"/>
<path d="M167.808 208.108C167.72 206.581 169.019 204.79 168.334 203.566L167.827 203.461C166.13 204.484 166.125 206.047 166.447 207.771L167.679 208.451L167.808 208.108Z" fill="#7FBEB6"/>
<path d="M300.107 208.516C297.903 209.325 295.846 209.854 293.545 210.325C292.647 210.278 290.98 210.18 290.162 210.462C289.817 212.076 285.907 216.141 284.637 217.383C283.477 220.503 274.244 227.896 270.713 228.708C270.017 229.125 268.935 229.761 268.332 230.286C264.013 229.831 263.171 227.942 261.919 224.207C260.579 223.831 258.86 223.069 257.25 222.598C255.709 223.077 253.401 223.233 251.702 223.475C248.948 223.854 246.206 224.318 243.481 224.868C242.099 225.141 238.261 226.09 237.214 225.885C234.5 228.828 232.582 234.983 232.774 238.985C233.045 244.645 236.16 249.223 240.814 252.282L241.934 252.865L242.104 252.945C245.32 253.247 249.172 253.155 252.454 253.155L267.88 253.15L286.357 253.172C288.5 253.175 297.377 253.461 298.666 252.603C299.771 251.044 300.785 249.422 301.704 247.746C306.871 238.265 308.476 229.028 305.437 218.645C303.741 214.354 302.744 212.21 300.107 208.516Z" fill="#FED265"/>
<path d="M293.545 210.325C292.648 210.278 290.98 210.18 290.162 210.462C289.818 212.076 285.907 216.141 284.637 217.383C283.477 220.503 274.244 227.896 270.714 228.708C270.017 229.125 268.935 229.761 268.333 230.286C269.09 230.221 269.846 230.149 270.602 230.071C279.443 229.113 288.169 217.05 293.545 210.325Z" fill="#7FBEB6"/>
<path d="M300.107 208.516C300.798 204.709 301.041 200.113 300.721 196.229C300.632 195.139 299.318 186.62 298.823 186.134L298.073 186.207C296.173 186.884 288.775 188.079 286.053 188.754C281.311 190.333 281.307 190.336 280.192 195.182C279.313 195.762 274.759 198.897 274.117 199.022C273.022 199.455 269.913 202.048 269.729 203.09C269.618 207.063 260.815 211.641 262.307 217.109C262.407 217.718 261.876 222.457 261.919 224.207C263.172 227.942 264.013 229.831 268.333 230.286C268.935 229.761 270.017 229.125 270.714 228.708C274.244 227.896 283.477 220.503 284.637 217.383C285.907 216.141 289.818 212.076 290.162 210.462C290.98 210.18 292.648 210.278 293.545 210.325C295.846 209.854 297.903 209.325 300.107 208.516Z" fill="#4D4D4D"/>
<path d="M274.117 199.022C273.022 199.455 269.913 202.048 269.729 203.09C269.618 207.063 260.815 211.641 262.306 217.109C262.407 217.718 261.876 222.457 261.919 224.207C263.172 227.942 264.013 229.831 268.333 230.286C268.935 229.761 270.017 229.125 270.714 228.708C274.244 227.896 283.477 220.503 284.637 217.383C285.907 216.141 289.818 212.076 290.162 210.462C286.595 210.572 283.222 209.888 279.443 210.009C275.669 212.208 272.437 213.974 268.334 215.627C268.485 214.82 270.348 209.96 270.714 208.974C271.95 205.692 273.085 202.374 274.117 199.022Z" fill="#F0F8F3"/>
<path d="M274.117 199.022C273.022 199.455 269.913 202.048 269.729 203.09C269.618 207.063 260.815 211.641 262.306 217.109C262.407 217.718 261.876 222.457 261.919 224.207C263.172 227.942 264.013 229.831 268.333 230.286C268.935 229.761 270.017 229.125 270.714 228.708C267.32 229.545 264.171 228.562 263.807 224.682C264.039 221.608 263.411 220.023 264.532 216.77C265.914 216.426 266.994 216.076 268.334 215.627C268.485 214.82 270.348 209.96 270.714 208.974C271.951 205.692 273.086 202.374 274.117 199.022Z" fill="#D0EAD9"/>
<path d="M284.637 217.383C283.34 218.078 282.184 218.843 280.916 219.569C275.599 222.615 269.581 223.277 263.807 224.682C264.171 228.562 267.32 229.545 270.713 228.708C274.244 227.896 283.477 220.503 284.637 217.383Z" fill="#FED265"/>
<path d="M232.314 202.533C227.951 200.824 225.093 200.842 220.49 201.222C217.102 201.501 215.72 201.178 214.472 204.914C214.124 205.972 213.788 207.036 213.466 208.102C212.8 210.009 210.515 218.338 209.87 219.308C213.848 220.29 214.974 221.393 218.281 223.718C218.912 224.161 220.054 225.049 220.733 225.303L221.478 225.524C223.18 225.518 231.318 224.675 232.996 224.444C234.496 224.907 235.757 225.294 237.215 225.885C238.261 226.09 242.1 225.141 243.481 224.868C246.206 224.318 248.948 223.854 251.702 223.475C253.402 223.233 255.709 223.077 257.25 222.598C250.208 219.038 241.216 216.677 233.7 212.618C233.647 212.486 233.597 212.352 233.549 212.218C233.056 210.849 232.334 207.564 232.955 206.261C232.616 204.807 232.442 204.042 232.314 202.533Z" fill="#7FBEB6"/>
<path d="M223.132 218.12C222.914 219.621 221.576 224.163 220.733 225.303L221.477 225.524C223.18 225.518 231.318 224.674 232.996 224.444C232.294 223.191 224.979 219.362 223.132 218.12Z" fill="#D0EAD9"/>
<path d="M305.129 178.303C305.954 174.87 306.502 172.425 306.978 168.897L307.178 168.876C308.81 168.681 313.831 167.547 313.964 165.403C313.997 164.875 312.317 162.97 311.93 162.384C309.169 158.194 306.066 160.027 303.891 163.516C300.937 160.624 292.541 159.858 288.537 160.331C287.621 160.439 286.946 162.811 286.686 163.61C287.032 164.921 287.287 165.936 288.13 166.995C287.235 168.36 285.027 172.234 284.987 173.822C283.769 175.617 282.994 179.027 282.63 181.178C284.143 182.682 285.123 183.123 287.073 183.875C286.476 184.845 286.078 187.627 286.053 188.754C288.775 188.079 296.173 186.884 298.072 186.207C297.212 183.325 299.393 182.551 299.515 180.076L302.428 180.815C303.18 180.218 304.392 179 305.129 178.303Z" fill="#FED265"/>
<path d="M291.2 165.918L288.13 166.995C287.235 168.36 285.027 172.234 284.988 173.822C286.609 175.469 287.506 179.541 289.747 179.28C292.481 178.961 296.662 173.891 298.682 171.895C296.853 168.175 294.948 167.391 291.2 165.918Z" fill="#F0F8F3"/>
<path d="M299.515 180.077C299.138 177.672 302.872 177.308 300.631 175.101C298.211 174.41 295.619 176.922 294.91 179.116C295.113 180.214 295.483 180.458 296.454 181.161C293.88 185.439 291.789 185.175 287.073 183.875C286.476 184.845 286.079 187.627 286.053 188.754C288.775 188.079 296.173 186.884 298.072 186.207C297.212 183.325 299.393 182.551 299.515 180.077Z" fill="#F0F8F3"/>
<path d="M232.954 206.261C232.333 207.564 233.056 210.849 233.549 212.218C233.597 212.352 233.647 212.486 233.699 212.618C241.216 216.677 250.208 219.038 257.25 222.598C258.86 223.069 260.579 223.831 261.918 224.207C261.876 222.457 262.407 217.718 262.306 217.109C256.523 215.185 247.662 214.233 242.238 212.109C240.807 210.613 240.749 208.466 238.947 208.857C237.319 207.868 234.779 206.851 232.954 206.261Z" fill="#F0F8F3"/>
<path d="M269.729 203.09C268.346 204.852 259.936 211.2 258.543 211.37C258.256 211.593 257.957 211.8 257.647 211.99C254.47 213.956 251.325 211.742 248.293 210.392C245.032 208.941 242.478 207.744 238.938 206.916C238.966 207.402 239.096 208.507 238.948 208.857C240.75 208.466 240.808 210.613 242.238 212.109C247.662 214.233 256.524 215.185 262.306 217.109C260.815 211.641 269.618 207.063 269.729 203.09Z" fill="#7FBEB6"/>
<path d="M255.482 147.964C256.867 148.908 273.649 145.488 277.057 144.968C287.172 143.362 297.343 142.129 307.549 141.272C312.488 140.81 317.141 140.14 322.168 140.246C322.619 140.255 325.134 139.514 325.84 139.439C330.939 138.898 368.584 140.996 370.948 139.639L370.883 139.264C370.002 138.976 368.953 138.903 368.023 138.897C354.748 138.804 341.475 138.7 328.203 139.014C325.696 139.073 323.007 139.542 320.478 139.711C305.731 140.599 291.036 142.202 276.444 144.513C272.25 145.193 267.53 145.988 263.318 146.388L263.194 146.399C260.949 146.805 257.281 147.951 255.482 147.964Z" fill="#F0F8F3"/>
<path d="M44.6671 144.641C45.0488 144.067 45.151 143.947 45.3057 143.281C45.1461 142.53 44.7794 141.641 44.1757 141.162C42.0555 139.477 40.2171 142.968 39.3366 144.166C38.4835 144.171 38.0744 144.141 37.2413 144.357C35.2982 141.345 33.8189 139.443 31.0102 143.065C32.8137 146.809 37.5705 148.909 41.3047 146.814C42.4546 146.17 43.5796 145.385 44.6671 144.641Z" fill="#7BCDA2"/>
<path d="M39.3369 144.166C38.4839 144.171 38.0748 144.141 37.2417 144.357L38.404 147.818C38.6959 146.489 38.9478 145.48 39.3369 144.166Z" fill="#D0EAD9"/>
<path d="M25.7225 142.419C26.7228 141.052 26.8525 139.535 25.4132 138.435C22.0732 137.247 20.3446 142.513 19.4566 144.721C19.1048 142.561 18.0173 139.673 15.8896 138.674C14.5999 138.071 13.001 138.545 12.587 140.005C12.365 140.799 12.8115 141.189 13.2106 141.831C15.8172 143.87 17.1043 144.619 20.4144 145.243C21.1078 144.876 25.4282 142.444 25.7225 142.419Z" fill="#7BCDA2"/>
<path d="M239.617 204.375C239.49 205.231 239.41 206.209 238.938 206.916C242.478 207.744 245.032 208.941 248.293 210.392C251.325 211.742 254.47 213.956 257.647 211.99C257.957 211.8 258.256 211.593 258.543 211.37C253.227 208.795 247.078 206.704 241.434 204.869C240.737 204.642 240.362 204.742 239.617 204.375Z" fill="#6EB2A9"/>
<path d="M239.984 200.679C238.286 200.852 233.148 200.569 232.07 200.877L232.314 202.533C232.441 204.042 232.616 204.807 232.954 206.261C234.779 206.851 237.319 207.868 238.947 208.857C239.096 208.507 238.965 207.402 238.937 206.916C239.409 206.209 239.49 205.231 239.617 204.375C240.019 203.005 239.969 202.086 239.984 200.679Z" fill="#4D4D4D"/>
<path d="M262.97 145.826L263.471 145.493L263.268 145.126C258.224 143.579 253.071 141.917 246.964 140.372C233.832 137.051 218.636 133.852 205.043 132.025C204.728 132.16 204.468 132.271 204.263 132.359C217.706 134.41 231.043 137.108 244.226 140.445C248.051 141.466 251.86 142.547 255.652 143.686C257.672 144.313 260.996 145.555 262.97 145.826Z" fill="#F0F8F3"/>
<path d="M202.394 131.998C202.355 131.961 202.318 131.923 202.277 131.888C200.682 130.535 168.818 128.113 164.29 127.964C157.017 127.725 149.499 127.707 142.24 128.194L142.124 128.661L141.99 128.646L141.853 128.229L141.723 128.616L141.589 128.601L141.488 128.274L141.444 128.583L141.15 128.339L141.083 128.538L140.796 128.543L141.59 128.721L141.684 128.427L141.944 128.777L142.265 128.725C163.069 127.396 181.991 130.083 202.394 131.998Z" fill="#F0F8F3"/>
<path d="M262.734 95.2828C258.356 95.0658 256.476 95.9356 253.137 98.5739C246.698 103.662 250.956 107.163 257.139 108.393C260.216 109.006 263.779 108.779 266.967 108.779L280.495 108.766L290.455 108.731C288.906 105.935 286.383 102.734 283.716 100.904C283.031 101.505 282.314 102.21 281.646 102.84C277.444 97.9376 274.467 93.2361 267.643 97.9598C265.892 96.6487 264.875 95.9478 262.734 95.2828Z" fill="#F0F8F3"/>
<path d="M59.5239 79.8326C59.3069 79.8174 59.0898 79.804 58.8728 79.7917C56.6004 79.667 54.0162 80.3545 52.305 81.7885C38.5235 93.3403 69.6711 91.0862 73.7095 91.0767C76.8974 91.0637 79.5764 91.1919 82.7617 91.3892C81.8837 90.0502 78.5387 84.2989 76.6928 84.8185C76.421 84.9118 75.1463 85.7825 74.8844 85.5201C70.7736 81.3787 69.4167 78.325 63.4351 81.8885C62.1355 80.8808 61.023 80.4101 59.5239 79.8326Z" fill="#F0F8F3"/>
<path d="M236.47 186.881C236.317 186.87 236.165 186.861 236.012 186.854C234.145 186.768 231.642 187.247 231.584 189.556C231.544 191.122 232.76 192.197 233.738 193.259C234.11 195.728 234.028 196.163 234.885 198.454C235.16 198.643 235.391 198.644 235.738 198.714C236.721 198.122 236.736 197.345 236.855 196.24C237.246 192.6 237.553 190.837 239.994 188.025C238.706 187.528 237.783 187.251 236.47 186.881Z" fill="#F0F8F3"/>
<path d="M241.165 193.422C239.009 194.025 237.842 195.7 238.001 197.958C240.441 197.728 241.092 195.596 241.165 193.422Z" fill="#F0F8F3"/>
<path d="M74.1139 17.8164C72.7719 17.7736 71.4274 17.7662 70.0854 17.7944C62.4825 18.0164 55.7177 19.529 48.2519 20.3322C31.5269 22.1324 19.0898 32.9317 18.9127 50.4351C18.8728 54.4372 20.3096 58.1691 25.0265 57.9553C29.5214 55.421 32.4798 51.4813 36.2039 48.0493C43.8418 41.0095 52.3727 36.8075 61.9312 33.0649C68.0849 30.655 78.0675 27.5455 80.4721 20.8077C81.5198 17.8674 75.6056 17.8874 74.1139 17.8164Z" fill="#F0F8F3"/>
<path d="M220.733 225.303C220.054 225.049 218.911 224.161 218.281 223.718C214.974 221.393 213.848 220.29 209.869 219.308C208.231 221.804 208.427 225.73 205.586 226.574L206.159 226.781C206.316 228.04 200.801 238.408 199.636 239.77C196.522 240.765 192.255 240.594 189.765 242.034C188.399 244.029 191.217 249.887 192.498 251.496C194.492 252.521 206.146 251.843 208.933 251.755C211.99 251.661 211.429 245.355 212.347 243.218C214.615 237.941 218.002 230.254 221.361 225.681L221.478 225.524L220.733 225.303Z" fill="#4D4D4D"/>
<path d="M311.326 252.736C307.207 252.608 302.739 252.875 298.666 252.603C297.378 253.461 288.5 253.175 286.358 253.172L267.88 253.15L252.455 253.155C249.173 253.155 245.32 253.247 242.105 252.945C243.841 253.958 258.949 253.556 261.936 253.551L292.714 253.561C294.542 253.559 298.509 253.212 300.001 253.367C302.159 252.86 309.405 253.546 311.428 253.057L311.326 252.736Z" fill="black" fill-opacity="0.913725"/>
<path d="M241.935 252.865L240.814 252.282C239.117 252.683 233.621 252.524 232.689 253.15C235.639 253.534 239.04 253.606 241.935 252.865Z" fill="black" fill-opacity="0.945098"/>
<path d="M300 253.367C304.022 253.551 309.66 253.424 313.73 253.339L313.905 253.142C312.922 252.631 312.449 252.711 311.326 252.736L311.428 253.057C309.405 253.546 302.159 252.86 300 253.367Z" fill="black" fill-opacity="0.721569"/>
</g>
</svg>
