<svg width="32" height="32" viewBox="0 0 32 32" fill="none" xmlns="http://www.w3.org/2000/svg">
<rect width="32" height="32" rx="8" fill="#D0D4DB"/>
<g clip-path="url(#clip0_24040_22458)">
<path d="M12.4883 19.3047L11.9883 18.8047L12.0783 19.5147L12.3183 19.4847L12.4883 19.3047Z" fill="#2B303A"/>
<path d="M27.7281 11.1144C27.7281 10.7044 27.4281 10.3044 26.9881 10.3044H23.4981V10.3244C22.7581 10.2644 22.0781 10.5544 21.5181 11.0744L20.5081 9.43438L20.3481 9.52437L20.3181 9.54437L20.4981 9.43438C20.4981 9.43438 20.4181 9.30438 20.3181 9.20438C20.2181 9.11437 20.0881 9.01438 19.8881 8.92438C19.5081 8.74438 18.8781 8.57438 17.8281 8.48438H17.7181L17.6381 8.55437L16.5081 9.68438L16.1081 10.0844H16.6781V9.85438V10.0944C17.4781 10.1044 18.1081 10.1744 18.5681 10.2544C18.7981 10.2944 18.9781 10.3344 19.1181 10.3844C19.2281 10.4244 19.2881 10.4444 19.3181 10.4644L20.3081 12.0644L19.1781 20.5444C18.4081 20.1744 17.3981 20.0144 16.4481 20.0144C15.9881 20.0144 15.5181 20.0444 15.0681 20.1244H14.9881L14.9381 20.1944L14.1381 20.9944L13.8181 20.6744L13.7181 20.5744L13.6581 20.5144L12.4881 19.3444L12.3181 19.5144L12.0781 19.5444L12.4281 22.1844C12.5181 23.6144 12.9181 24.5344 13.4681 25.0844C14.0281 25.6444 14.7181 25.8044 15.3181 25.8044H17.5481C18.1481 25.8044 18.8381 25.6444 19.3981 25.0844C19.9581 24.5344 20.3481 23.6144 20.4381 22.1844L21.2281 16.3044H24.2381C24.2381 16.3044 24.3081 16.3044 24.3481 16.3044C25.7981 16.0744 26.8281 15.0544 27.3581 13.4444C27.7381 12.2844 27.7181 11.2044 27.7181 11.1544L27.7281 11.1144ZM18.5281 21.7344L18.4381 21.9644C18.6581 22.0544 18.7981 22.1444 18.8881 22.2144C18.9281 22.2444 18.9481 22.2744 18.9581 22.2844C18.8781 23.1444 18.6581 23.5944 18.4281 23.8244C18.1981 24.0544 17.8981 24.1144 17.5681 24.1144H15.3381C14.9981 24.1144 14.7081 24.0544 14.4781 23.8244C14.2381 23.5944 14.0281 23.1444 13.9381 22.2744C13.9581 22.2544 13.9781 22.2244 14.0281 22.1844C14.1281 22.1144 14.2781 22.0244 14.4981 21.9444C14.9381 21.7844 15.5881 21.6444 16.4481 21.6444C17.2181 21.6444 17.9481 21.7644 18.4481 21.9544L18.5281 21.7544V21.7344ZM24.1881 14.6044H21.5781L21.6081 14.2844C21.6881 13.5644 21.9381 12.9444 22.2681 12.5344C22.6081 12.1244 22.9981 11.9244 23.3881 11.9744C23.3881 11.9744 23.4381 11.9744 23.4581 11.9744H26.1581C26.0981 12.4044 25.9681 12.9344 25.7081 13.4244C25.3981 13.9944 24.9281 14.4744 24.1681 14.6144L24.1881 14.6044Z" fill="#2B303A"/>
<path d="M16.2695 15.8246L12.6695 12.2246L16.2695 8.62461L13.8695 6.22461L10.2695 9.82461L6.66953 6.22461L4.26953 8.62461L7.86953 12.2246L4.26953 15.8246L6.66953 18.2246L10.2695 14.6246L13.8695 18.2246L16.2695 15.8246Z" fill="#2B303A"/>
</g>
<defs>
<clipPath id="clip0_24040_22458">
<rect width="23.46" height="19.55" fill="white" transform="translate(4.26953 6.22461)"/>
</clipPath>
</defs>
</svg>
