<svg width="24" height="24" viewBox="0 0 24 24" fill="none" xmlns="http://www.w3.org/2000/svg">
<g clip-path="url(#clip0_6451_34274)">
<path d="M8.48999 15.305L7.98999 14.805L8.07999 15.515L8.31999 15.485L8.48999 15.305Z" fill="#FFCF54"/>
<path d="M23.7301 7.11499C23.7301 6.70499 23.4301 6.30499 22.9901 6.30499H19.5001V6.32499C18.7601 6.26499 18.0801 6.55499 17.5201 7.07499L16.5101 5.43499L16.3501 5.52499L16.3201 5.54499L16.5001 5.43499C16.5001 5.43499 16.4201 5.30499 16.3201 5.20499C16.2201 5.11499 16.0901 5.01499 15.8901 4.92499C15.5101 4.74499 14.8801 4.57499 13.8301 4.48499H13.7201L13.6401 4.55499L12.5101 5.68499L12.1101 6.08499H12.6801V5.85499V6.09499C13.4801 6.10499 14.1101 6.17499 14.5701 6.25499C14.8001 6.29499 14.9801 6.33499 15.1201 6.38499C15.2301 6.42499 15.2901 6.44499 15.3201 6.46499L16.3101 8.06499L15.1801 16.545C14.4101 16.175 13.4001 16.015 12.4501 16.015C11.9901 16.015 11.5201 16.045 11.0701 16.125H10.9901L10.9401 16.195L10.1401 16.995L9.82008 16.675L9.72008 16.575L9.66008 16.515L8.49008 15.345L8.32008 15.515L8.08008 15.545L8.43008 18.185C8.52008 19.615 8.92008 20.535 9.47008 21.085C10.0301 21.645 10.7201 21.805 11.3201 21.805H13.5501C14.1501 21.805 14.8401 21.645 15.4001 21.085C15.9601 20.535 16.3501 19.615 16.4401 18.185L17.2301 12.305H20.2401C20.2401 12.305 20.3101 12.305 20.3501 12.305C21.8001 12.075 22.8301 11.055 23.3601 9.44499C23.7401 8.28499 23.7201 7.20499 23.7201 7.15499L23.7301 7.11499ZM14.5301 17.735L14.4401 17.965C14.6601 18.055 14.8001 18.145 14.8901 18.215C14.9301 18.245 14.9501 18.275 14.9601 18.285C14.8801 19.145 14.6601 19.595 14.4301 19.825C14.2001 20.055 13.9001 20.115 13.5701 20.115H11.3401C11.0001 20.115 10.7101 20.055 10.4801 19.825C10.2401 19.595 10.0301 19.145 9.94008 18.275C9.96008 18.255 9.98008 18.225 10.0301 18.185C10.1301 18.115 10.2801 18.025 10.5001 17.945C10.9401 17.785 11.5901 17.645 12.4501 17.645C13.2201 17.645 13.9501 17.765 14.4501 17.955L14.5301 17.755V17.735ZM20.1901 10.605H17.5801L17.6101 10.285C17.6901 9.56499 17.9401 8.94499 18.2701 8.53499C18.6101 8.12499 19.0001 7.92499 19.3901 7.97499C19.3901 7.97499 19.4401 7.97499 19.4601 7.97499H22.1601C22.1001 8.40499 21.9701 8.93499 21.7101 9.42498C21.4001 9.99499 20.9301 10.475 20.1701 10.615L20.1901 10.605Z" fill="#FFCF54"/>
<path d="M12.27 11.825L8.67002 8.22498L12.27 4.62498L9.87002 2.22498L6.27002 5.82498L2.67002 2.22498L0.27002 4.62498L3.87002 8.22498L0.27002 11.825L2.67002 14.225L6.27002 10.625L9.87002 14.225L12.27 11.825Z" fill="#FFCF54"/>
</g>
<defs>
<clipPath id="clip0_6451_34274">
<rect width="23.46" height="19.55" fill="white" transform="translate(0.27002 2.22498)"/>
</clipPath>
</defs>
</svg>
