<svg width="22" height="20" viewBox="0 0 22 20" fill="none" xmlns="http://www.w3.org/2000/svg">
<path id="Union" fill-rule="evenodd" clip-rule="evenodd" d="M10.9609 19.9946C14.0519 20.0116 16.9729 18.0722 18.0158 14.7117C18.0472 14.7256 18.0743 14.7366 18.0989 14.7466C18.1322 14.7601 18.1609 14.7718 18.1896 14.7861C19.7922 15.5704 21.4971 14.5304 21.5056 12.7488C21.5142 11.6747 21.5142 10.5921 21.5056 9.50948C21.4971 8.70818 21.267 7.9836 20.7129 7.36984C20.6276 7.26754 20.5765 7.08 20.5935 6.94361C20.8493 4.86364 19.6047 3.24399 18.164 2.85186C18.0362 2.81776 17.9254 2.64727 17.8486 2.51941C17.3798 1.7522 16.7234 1.30893 15.8028 1.28336C15.6067 1.27483 15.3851 1.23221 15.2231 1.12992C14.1149 0.396813 12.8789 0.0899315 11.5746 0.0217357C9.90382 -0.0635091 8.29269 0.166652 6.85206 1.09582C6.69009 1.19811 6.47698 1.27483 6.28092 1.27483C5.25798 1.26631 4.54192 1.74368 4.0475 2.61318C3.98783 2.70695 3.89406 2.81776 3.79177 2.84334C2.10392 3.30366 1.07246 5.23019 1.3623 6.96066C1.37934 7.10558 1.31115 7.31016 1.21738 7.42951C0.85935 7.86425 0.569519 8.34163 0.55247 8.90424L0.54325 9.20562C0.503107 10.5117 0.462963 11.8178 0.518373 13.1239C0.560995 14.1127 1.39639 14.9225 2.38523 15.0078C2.75107 15.0373 3.12916 14.9728 3.51102 14.9078L3.51103 14.9077C3.68083 14.8788 3.85138 14.8497 4.02193 14.8288C5.00225 18.0169 7.86647 19.9775 10.9609 19.9946ZM11.0632 1.24074C9.76743 1.25778 8.39499 1.52204 7.41467 2.204C7.11632 2.40859 6.69862 2.50236 6.33206 2.51088C5.7183 2.52793 5.36028 2.80924 5.07897 3.32923C4.92553 3.60202 4.64422 3.88332 4.36291 3.98562C3.26325 4.36069 2.64097 5.11085 2.57277 6.26165C2.50457 7.54032 3.37407 8.69965 4.50783 8.7508C5.06192 8.77637 5.41142 8.99801 5.70125 9.44981C6.34911 10.4557 7.46582 10.6432 8.43761 9.96128C8.93203 9.6203 9.29006 9.6203 9.78448 9.9698C10.5517 10.5068 11.2763 10.5068 12.0605 9.95275C12.5379 9.6203 12.8959 9.62882 13.3818 9.94423C13.629 10.1062 13.9018 10.2596 14.1831 10.3193C14.9844 10.4983 15.6834 10.1488 16.1864 9.35604C16.425 8.98096 16.7149 8.7508 17.1837 8.7508C18.3601 8.7508 19.187 7.96655 19.366 6.7305C19.5365 5.52002 18.8545 4.3266 17.7804 4.04529C17.3116 3.92595 17.0132 3.68726 16.8257 3.24399C16.6211 2.76662 16.2375 2.54498 15.6919 2.51088C15.3254 2.49383 14.9162 2.40006 14.6093 2.19548C13.5097 1.47942 12.2907 1.27483 11.0717 1.24074H11.0632ZM12.2081 18.6171L12.2082 18.6171C12.6235 18.5052 13.0185 18.3987 13.3903 18.2385C14.7372 17.6674 15.726 16.6956 16.3995 15.3999C17.0643 14.1257 17.0427 12.7727 17.0204 11.3684V11.3684C17.0152 11.0441 17.01 10.717 17.0132 10.3875C16.9745 10.4234 16.9439 10.4522 16.9184 10.4761L16.9184 10.4762C16.8653 10.526 16.8347 10.5548 16.8001 10.5836C15.6493 11.7258 14.3536 11.9049 12.9044 11.1462C12.7851 11.0865 12.572 11.1121 12.4356 11.1803C11.4127 11.7344 10.3982 11.7514 9.38383 11.1803C9.17072 11.0609 9.0258 11.0439 8.79564 11.1718C7.66188 11.8281 6.37469 11.7173 5.34322 10.9075C5.23241 10.8222 5.12159 10.737 4.96815 10.6177C4.96815 10.9049 4.9642 11.1832 4.96033 11.4557V11.4557V11.4557C4.95284 11.9838 4.94566 12.4899 4.96815 12.996C5.10454 15.3061 6.22977 17.011 8.2586 18.0766C8.68325 18.3007 9.1528 18.4432 9.64182 18.5916L9.64191 18.5917C9.85965 18.6577 10.0813 18.725 10.3045 18.8012V16.4143C9.33268 16.0307 8.75302 15.3573 8.68482 14.2576H9.88677C10.134 14.9737 10.4238 15.255 10.9438 15.2465C11.5831 15.2294 11.873 14.8202 12.0008 14.2747H13.2113C13.1431 15.2465 12.6913 15.8943 11.8559 16.312C11.7451 16.3717 11.5831 16.491 11.5746 16.5848C11.5543 17.1337 11.5555 17.688 11.5569 18.3034V18.3035L11.5569 18.3042C11.5572 18.4627 11.5576 18.6252 11.5576 18.7926H11.5831C11.7962 18.7282 12.0046 18.672 12.2081 18.6171ZM20.0991 8.62293C19.9016 8.76238 19.707 8.89786 19.5147 9.03174C19.1428 9.29072 18.7794 9.54372 18.4198 9.80784C18.3431 9.86751 18.2749 10.0039 18.2749 10.1062L18.2748 10.1145C18.2663 11.0152 18.2579 11.9076 18.2749 12.8085C18.2919 13.4137 18.7267 13.8314 19.2807 13.8229C19.8434 13.8229 20.2611 13.3881 20.2696 12.7829L20.2696 12.7767V12.7767C20.2781 11.6706 20.2866 10.573 20.2611 9.46686C20.2611 9.24837 20.2038 9.03398 20.1544 8.84917L20.1544 8.84913C20.1325 8.76717 20.1122 8.69103 20.0991 8.62293ZM1.86524 8.66556C1.85293 8.73698 1.83705 8.81267 1.8205 8.8916C1.77977 9.08587 1.73491 9.29978 1.72885 9.518C1.7118 10.5921 1.7118 11.6747 1.72885 12.7488C1.72885 13.3796 2.15507 13.8229 2.72621 13.8229C3.2803 13.8229 3.71505 13.4052 3.72358 12.7999C3.74062 11.9134 3.7321 11.0268 3.72358 10.1403C3.72358 10.0295 3.64686 9.88456 3.55309 9.82488C3.06526 9.47644 2.5704 9.14206 2.03017 8.77702L1.86524 8.66556ZM6.41729 5.39181L6.52268 5.50417C6.73006 5.72495 6.92404 5.93147 7.09925 6.15049C7.15892 6.22721 7.16745 6.3636 7.16745 6.4659C7.17597 6.79835 7.35499 7.08818 7.66187 7.06261C7.99338 7.03498 8.16262 7.20321 8.33733 7.37687C8.37825 7.41755 8.41948 7.45853 8.46317 7.49736C8.56546 7.58047 8.68214 7.6492 8.79882 7.71793C8.83771 7.74084 8.87661 7.76375 8.91497 7.78719C8.17334 8.5203 7.16745 8.4862 6.48549 7.81277C5.78648 7.13081 5.73534 6.15902 6.41729 5.39181ZM15.2599 6.55379C15.3261 6.62511 15.3936 6.69781 15.4618 6.7733V6.76478C16.1437 5.98053 16.067 4.95759 15.3595 4.3012C14.669 3.67892 13.6802 3.65334 12.9897 4.35235C13.0408 4.38929 13.0929 4.42434 13.145 4.45938C13.2492 4.52947 13.3534 4.59956 13.45 4.68481C13.4886 4.71915 13.5254 4.75445 13.5616 4.78927C13.741 4.96184 13.9079 5.12235 14.2343 5.09398C14.5156 5.06841 14.6946 5.34119 14.7116 5.6566L14.7121 5.6634C14.7205 5.78957 14.7299 5.93104 14.7969 6.02315C14.9369 6.20583 15.0944 6.37546 15.2599 6.55379Z" fill="#FFF8E6"/>
</svg>
