<svg width="25" height="25" viewBox="0 0 25 25" fill="none" xmlns="http://www.w3.org/2000/svg">
<g id="Livestock-icon-btn-list">
<rect x="0.701172" y="0.0786133" width="24" height="24" rx="4" fill="white" fill-opacity="0.2"/>
<g id="Vector">
<path d="M18.5507 16.8679C17.7289 19.6657 15.4186 21.2807 12.9737 21.2665C10.5287 21.2523 8.26552 19.6232 7.49093 16.9742C7.05312 17.0308 6.61532 17.1583 6.19771 17.1229C5.41639 17.0521 4.75631 16.3792 4.72263 15.5576C4.67548 14.3889 4.7159 13.2201 4.74958 12.0514C4.76305 11.584 4.99205 11.1873 5.27495 10.8261C5.34904 10.7269 5.40292 10.5569 5.38945 10.4365C5.16044 8.99864 5.97544 7.39786 7.30907 7.01538C7.3899 6.99413 7.46399 6.90205 7.51114 6.82413C7.9018 6.10166 8.46759 5.70501 9.27585 5.71209C9.43077 5.71209 9.59915 5.64834 9.72713 5.56335C10.8722 4.79129 12.1384 4.60005 13.4586 4.67088C14.4891 4.72755 15.4658 4.98254 16.3414 5.59168C16.4694 5.67668 16.6445 5.71209 16.7994 5.71918C17.5269 5.74042 18.0455 6.10874 18.416 6.74622C18.4766 6.85247 18.5641 6.99413 18.6652 7.02246C19.8035 7.34828 20.7869 8.69406 20.5848 10.4223C20.5713 10.5357 20.6117 10.6915 20.6791 10.7765C21.1169 11.2865 21.2988 11.8885 21.3055 12.5543C21.3122 13.4539 21.3122 14.3534 21.3055 15.2459C21.2988 16.7263 19.9517 17.5904 18.6854 16.9388C18.645 16.9175 18.6045 16.9033 18.5439 16.875L18.5507 16.8679ZM13.0477 5.68376C12.0239 5.69793 10.9395 5.9175 10.1649 6.48415C9.92919 6.65414 9.59915 6.73205 9.30953 6.73914C8.82457 6.7533 8.54168 6.98704 8.3194 7.41911C8.19816 7.64577 7.97589 7.87951 7.75362 7.96451C6.88474 8.27616 6.39304 8.89947 6.33916 9.85569C6.28528 10.9181 6.9723 11.8814 7.86812 11.9239C8.30593 11.9452 8.58209 12.1294 8.8111 12.5048C9.323 13.3406 10.2054 13.4964 10.9732 12.9297C11.3639 12.6464 11.6468 12.6464 12.0374 12.9368C12.6436 13.3831 13.2161 13.3831 13.8358 12.9227C14.213 12.6464 14.4959 12.6535 14.8798 12.9156C15.0751 13.0502 15.2907 13.1776 15.5129 13.2272C16.1461 13.376 16.6984 13.0856 17.0958 12.4268C17.2844 12.1152 17.5134 11.9239 17.8838 11.9239C18.8134 11.9239 19.4667 11.2723 19.6081 10.2453C19.7429 9.23946 19.204 8.24783 18.3553 8.01409C17.9849 7.91493 17.7491 7.7166 17.601 7.34828C17.4393 6.95163 17.1362 6.76747 16.7051 6.73914C16.4155 6.72497 16.0922 6.64706 15.8497 6.47706C14.9808 5.88209 14.0177 5.71209 13.0545 5.68376H13.0477ZM13.4653 20.2678C13.9772 20.1049 14.4555 20.0057 14.8933 19.8074C15.9575 19.3328 16.7388 18.5254 17.2709 17.4487C17.9175 16.1455 17.7424 14.743 17.7559 13.2839C17.6616 13.376 17.6279 13.4114 17.5875 13.4468C16.6782 14.3959 15.6544 14.5447 14.5094 13.9143C14.4151 13.8647 14.2467 13.886 14.1389 13.9426C13.3306 14.403 12.5291 14.4172 11.7276 13.9426C11.5592 13.8435 11.4447 13.8293 11.2628 13.9355C10.367 14.4809 9.34994 14.3889 8.53494 13.716C8.44738 13.6451 8.35982 13.5743 8.23858 13.4751C8.23858 14.1764 8.21164 14.8138 8.23858 15.4513C8.34635 17.3708 9.23543 18.7874 10.8385 19.6728C11.3234 19.942 11.8825 20.0695 12.455 20.2749V18.2916C11.6872 17.9729 11.2291 17.4133 11.1753 16.4996H12.125C12.3203 17.0946 12.5493 17.3283 12.9602 17.3212C13.4653 17.3071 13.6944 16.9671 13.7954 16.5138H14.7518C14.6979 17.3212 14.341 17.8596 13.6809 18.2066C13.5933 18.2562 13.4653 18.3554 13.4586 18.4333C13.4384 19.007 13.4451 19.5878 13.4451 20.2678H13.4653ZM20.1941 11.8106C19.7361 12.1506 19.2983 12.4623 18.8672 12.7952C18.8066 12.8447 18.7527 12.9581 18.7527 13.0431C18.746 13.7939 18.7393 14.5376 18.7527 15.2884C18.7662 15.7913 19.1097 16.1384 19.5475 16.1313C19.9921 16.1313 20.3221 15.77 20.3288 15.2671C20.3356 14.3464 20.3423 13.4326 20.3221 12.5118C20.3221 12.2498 20.2278 11.9948 20.1941 11.8106ZM5.78685 11.846C5.75317 12.0514 5.68581 12.2993 5.67908 12.5543C5.66561 13.4468 5.66561 14.3464 5.67908 15.2388C5.67908 15.763 6.01585 16.1313 6.46713 16.1313C6.90494 16.1313 7.24846 15.7842 7.25519 15.2813C7.26866 14.5447 7.26193 13.808 7.25519 13.0714C7.25519 12.9793 7.19457 12.8589 7.12048 12.8093C6.69614 12.4906 6.26507 12.186 5.78685 11.846Z" fill="#325442"/>
<path d="M9.37556 9.12844C9.57089 9.3481 9.75274 9.54651 9.91439 9.75908C9.96154 9.82286 9.96827 9.93623 9.96827 10.0213C9.97501 10.2976 10.1165 10.5385 10.3589 10.5173C10.6822 10.4889 10.8102 10.7086 10.992 10.8787C11.0998 10.9708 11.2278 11.0416 11.349 11.1196C10.763 11.729 9.96827 11.7006 9.42945 11.1408C8.87715 10.574 8.83674 9.76617 9.37556 9.12844Z" fill="#325442"/>
<path d="M16.5216 10.2764C16.3331 10.0567 16.1512 9.86537 15.9963 9.65279C15.9424 9.57485 15.9357 9.45439 15.9289 9.3481C15.9155 9.08592 15.774 8.85917 15.5518 8.88043C15.2419 8.90877 15.114 8.71037 14.9321 8.5403C14.8176 8.43402 14.6896 8.35607 14.5684 8.26395C15.114 7.68291 15.8953 7.70417 16.4408 8.22144C16.9999 8.76705 17.0605 9.61736 16.5216 10.2693V10.2764Z" fill="#325442"/>
</g>
</g>
</svg>
