<?xml version="1.0" encoding="UTF-8"?>
<svg width="44px" height="44px" viewBox="0 0 44 44" version="1.1" xmlns="http://www.w3.org/2000/svg" xmlns:xlink="http://www.w3.org/1999/xlink">
    <!-- Generator: Sketch 52.6 (67491) - http://www.bohemiancoding.com/sketch -->
    <title>Group 21</title>
    <desc>Created with Sketch.</desc>
    <defs>
        <polygon id="path-1" points="0 43.5319149 44 43.5319149 44 0.468085106 0 0.468085106"></polygon>
    </defs>
    <g id="Page-1" stroke="none" stroke-width="1" fill="none" fill-rule="evenodd">
        <g id="Insights" transform="translate(-24.000000, -555.000000)">
            <g id="Menu" transform="translate(0.000000, 130.000000)">
                <g id="Labour" transform="translate(0.000000, 405.000000)">
                    <g id="Group-9" transform="translate(24.000000, 17.000000)">
                        <g id="Group-21" transform="translate(0.000000, 3.000000)">
                            <path d="M36.595251,6.93927027 L36.595251,2.67929541 C36.595251,2.67929541 34.4695869,1.86582956 31.8235333,1.40425532 C29.1777267,1.86582956 27.0520626,2.67929541 27.0520626,2.67929541 L27.0520626,6.92863187 L27.0852247,6.92863187 C27.0633361,6.93539426 27.0520626,6.93927027 27.0520626,6.93927027 L24.3404255,10.7659574 C25.6952978,10.624607 27.1006125,10.5501383 28.5413112,10.5501383 C29.6624854,10.5501383 30.761771,10.5952484 31.8328319,10.6815925 C32.9038927,10.5949185 34.0035075,10.5501383 35.1243526,10.5501383 C36.5630763,10.5501383 37.9661693,10.624607 39.3191489,10.7653802 L36.595251,6.93927027 Z" id="Fill-1" fill="#BCE8CA"></path>
                            <path d="M37.16751,13.5357903 L37.16751,12.824755 L30.7653829,11.7021277 L24.3742889,12.824755 L24.3404255,19.6565833 C24.4438828,21.0596696 25.1046002,22.3086837 26.1051395,22.9930003 L30.7531615,25.7446809 L35.3871799,22.9930003 C36.3877191,22.3086837 37.0637133,21.0596696 37.1671705,19.6565833 L37.1671705,17.9928132 C38.3556981,17.9928132 39.3191489,16.9950785 39.3191489,15.7642578 C39.3194035,14.5337887 38.3556981,13.5357903 37.16751,13.5357903" id="Fill-3" fill="#BCE8CA"></path>
                            <path d="M40.9214842,30.9585623 L33.7233833,28.8228352 C33.5384008,28.7584815 33.3747524,28.6659405 33.2372947,28.5531915 C33.0997503,28.6659405 32.9361019,28.7584815 32.7511194,28.8228352 L25.5466009,30.9585623 C24.2491216,31.4098187 23.4042553,32.6362682 23.4042553,33.8091185 L23.4042553,41.6595745 L43.0638298,41.6595745 L43.0638298,33.8091185 C43.0638298,32.6362682 42.2186166,31.4098187 40.9214842,30.9585623" id="Fill-5" fill="#BCE8CA"></path>
                            <mask id="mask-2" fill="white">
                                <use xlink:href="#path-1"></use>
                            </mask>
                            <g id="Clip-8"></g>
                            <polygon id="Fill-7" fill="#BCE8CA" mask="url(#mask-2)" points="20.5957447 42.5957447 21.5319149 42.5957447 21.5319149 29.4893617 20.5957447 29.4893617"></polygon>
                            <polygon id="Fill-9" fill="#BCE8CA" mask="url(#mask-2)" points="36.5106383 42.5957447 39.3191489 42.5957447 39.3191489 29.4893617 36.5106383 29.4893617"></polygon>
                            <polygon id="Fill-10" fill="#BCE8CA" mask="url(#mask-2)" points="38.3829787 42.5957447 39.3191489 42.5957447 39.3191489 29.4893617 38.3829787 29.4893617"></polygon>
                            <polygon id="Fill-11" fill="#BCE8CA" mask="url(#mask-2)" points="28.595834 24.8085106 25.2765957 24.8085106 25.2765957 27.7449726 29.2359626 31.3617021 30.893617 29.8439359 28.595834 27.7449726"></polygon>
                            <polygon id="Fill-12" fill="#BCE8CA" mask="url(#mask-2)" points="33.7021277 25.7446809 29.0212766 25.7446809 29.0212766 28.4743566 31.3645253 30.4255319 33.7021277 28.4743566"></polygon>
                            <path d="M37.1517897,7.00707153 C37.1517897,7.00707153 34.2291868,6.09409205 28.9612974,6.08510638 C27.8027904,6.20636842 27.226463,6.36277243 27.226463,6.36277243 L23.4042553,11.3313132 C25.1606031,11.059252 27.016852,10.9104992 28.936487,10.9032039 C30.8677442,10.7405722 32.9100301,10.7325652 35.0173507,10.9046274 C36.8388156,11.0530243 38.5942566,11.3250855 40.2553191,11.7021277 L37.1517897,7.00707153 Z" id="Fill-13" fill="#BCE8CA" mask="url(#mask-2)"></path>
                            <path d="M0.94253935,40.7234043 L0.929801075,40.7234043 C0.416271941,40.7234043 0,41.1425277 0,41.6595745 C0,42.1766213 0.416271941,42.5957447 0.929801075,42.5957447 L0.94253935,42.5957447 C1.45606848,42.5957447 1.87234043,42.1766213 1.87234043,41.6595745 C1.87234043,41.1425277 1.45606848,40.7234043 0.94253935,40.7234043" id="Fill-14" fill="#82CF9C" mask="url(#mask-2)"></path>
                            <path d="M6.359375,41.7670038 L7.046875,41.7670038 L7.046875,33.1189397 L6.359375,33.1189397 L6.359375,41.7670038 Z M15.984375,34.0658144 C15.984375,33.2078912 16.6403359,32.3254356 17.5127734,32.0051925 L18.3009922,31.7652529 L18.3009922,41.7670038 L15.984375,41.7670038 L15.984375,34.0658144 Z M24.6311484,29.838676 C24.6442969,29.8348814 24.6566719,29.8303809 24.6693906,29.8259686 C24.7805078,29.7862581 24.8862969,29.7393997 24.9873594,29.6866289 L28.5437109,33.3133446 C28.7112031,33.4843645 28.9304297,33.5694332 29.1492266,33.5694332 C29.3684531,33.5694332 29.5880234,33.4840115 29.7555156,33.3122857 L33.2967422,29.6925413 C33.3944531,29.7428413 33.4961172,29.788023 33.6029375,29.8259686 C33.6153125,29.8303809 33.6277734,29.8345284 33.6404922,29.838676 L38.2421875,31.2406331 L38.2421875,41.7670038 L37.2371484,41.7670038 L37.2371484,35.558488 C37.2371484,35.0710195 36.8524063,34.6760324 36.3777734,34.6760324 C35.9033984,34.6760324 35.5183984,35.0710195 35.5183984,35.558488 L35.5183984,41.7670038 L22.7435313,41.7670038 L22.7435313,35.558488 C22.7435313,35.0710195 22.358875,34.6760324 21.8841563,34.6760324 C21.4095234,34.6760324 21.0247813,35.0710195 21.0247813,35.558488 L21.0247813,41.7670038 L20.0197422,41.7670038 L20.0197422,31.2423097 L24.6311484,29.838676 Z M26.9863516,27.0444688 C27.6507344,27.4884322 28.3933203,27.710105 29.1361641,27.710105 C29.8790937,27.710105 30.6219375,27.4880792 31.2863203,27.0441158 L32.0906094,26.5708549 L32.0906094,27.5091699 C32.0892344,27.5305253 32.0876016,27.5518807 32.0876016,27.5739421 L32.0876016,27.7866139 C32.0876016,27.8128228 32.0895781,27.8386788 32.0906094,27.8648877 L32.0906094,28.4353952 L29.148625,31.4429801 L26.1984766,28.4346892 L26.1984766,26.5822386 L26.9863516,27.0444688 Z M21.2406563,19.8145106 L21.2406563,18.1792323 C21.2406563,17.6918521 20.8556562,17.2967768 20.3812812,17.2967768 C19.6534766,17.2967768 19.0617109,16.6890296 19.0617109,15.9417663 C19.0617109,15.1947677 19.6534766,14.5866676 20.3812812,14.5866676 C20.8395,14.5866676 21.2171953,14.2175364 21.239625,13.7476289 L21.2688438,13.1365284 C23.7382578,12.6201155 26.3988828,12.3522902 29.1455313,12.3522902 C31.8955313,12.3522902 34.5593359,12.6208214 37.0316719,13.1382051 L37.0316719,13.7042121 C37.0316719,14.1916805 37.4164141,14.5866676 37.8910469,14.5866676 C38.6185078,14.5866676 39.2103594,15.1947677 39.2103594,15.9417663 C39.2103594,16.6890296 38.6185078,17.2967768 37.8910469,17.2967768 C37.4164141,17.2967768 37.0316719,17.6918521 37.0316719,18.1792323 L37.0316719,19.8145106 C36.9404063,20.9248162 36.4210859,21.9055773 35.635875,22.4488169 L30.4094141,25.5263805 C30.3936875,25.5353816 30.3782188,25.5453533 30.3630938,25.5553251 C29.5947266,26.0765033 28.6772578,26.0765033 27.9092344,25.5553251 C27.8937656,25.5450003 27.8779531,25.5350286 27.8618828,25.5256746 L22.6203828,22.4488169 C21.8455703,21.9121074 21.3320078,20.9314346 21.2406563,19.8145106 Z M21.2416875,8.36915068 C22.0197656,8.15789083 24.5691016,7.57361702 28.9350703,7.57361702 C33.3484766,7.57361702 36.179,8.17059819 37.03975,8.38124032 L39.5016875,11.9244758 C36.3411641,11.0458148 32.8113672,10.5870262 29.1455313,10.5870262 C25.4764297,10.5870262 21.943625,11.0468737 18.7810391,11.9269466 L21.2416875,8.36915068 Z M29.1361641,2.23299616 C32.1855703,2.23299616 35.4294531,3.23573038 36.6972891,3.6728106 L36.6972891,6.49737426 C35.321,6.21613568 32.6824609,5.80870596 28.9350703,5.80870596 C25.3089375,5.80870596 22.8761328,6.1919564 21.5746953,6.47460691 L21.5746953,3.67219288 C22.8415859,3.23502442 26.0800547,2.23299616 29.1361641,2.23299616 Z M42.28125,34.0658144 L42.28125,41.7670038 L39.9609375,41.7670038 L39.9609375,31.7639292 L40.7528516,32.0051925 C41.6252891,32.3254356 42.28125,33.2078912 42.28125,34.0658144 Z M44,34.0658144 C44,32.4353896 42.8895156,30.8997405 41.3000156,30.3319686 C41.2872969,30.3274681 41.2748359,30.3233205 41.2621172,30.319526 L34.1517344,28.1533624 C33.9604375,28.0802951 33.8257734,27.9448382 33.8097031,27.8124698 L33.8097031,25.6473652 C33.8097031,25.6184206 33.8079844,25.5894761 33.8053203,25.5611493 L36.5160469,23.9652285 C36.5318594,23.9558744 36.5468984,23.9462557 36.5620234,23.9359309 C37.8061406,23.0923917 38.6232344,21.5898347 38.7481016,19.9169637 C38.7497344,19.8945494 38.7504219,19.872135 38.7504219,19.8497206 L38.7504219,18.934526 C40.0086328,18.5529522 40.9294531,17.3557248 40.9294531,15.9417663 C40.9294531,15.2057984 40.6792891,14.5287785 40.26275,13.9944517 C40.6480937,14.1199369 41.0284531,14.2506285 41.3993594,14.38988 C41.4960391,14.4260607 41.5954687,14.4432686 41.694125,14.4432686 C41.9572656,14.4432686 42.2120703,14.3191953 42.3782734,14.0954928 C42.6061797,13.7876924 42.6125391,13.3633195 42.394,13.0482829 L38.4163828,7.32335263 L38.4163828,3.04750262 C38.4163828,2.68181304 38.1965547,2.35362783 37.8635469,2.2233774 C37.6805859,2.15163376 33.3386797,0.468085106 29.1361641,0.468085106 C24.9336484,0.468085106 20.5913984,2.15163376 20.4084375,2.2233774 C20.0757734,2.35362783 19.8559453,2.68181304 19.8559453,3.04750262 L19.8559453,7.32467632 L15.8961172,13.0499595 C15.6781797,13.3649962 15.6853125,13.789016 15.9135625,14.0961988 C16.1418125,14.4036463 16.5382422,14.5226013 16.8917891,14.38988 C17.2546172,14.2540701 17.6262109,14.1261141 18.002875,14.0030998 C17.5902891,14.5360146 17.3429609,15.209593 17.3429609,15.9417663 C17.3429609,17.3557248 18.2636953,18.553217 19.5215625,18.934879 L19.5215625,19.8497206 C19.5215625,19.872135 19.5225937,19.8945494 19.5242266,19.9169637 C19.6491797,21.5970708 20.4605156,23.0996278 21.6941484,23.9361957 C21.7096172,23.9466087 21.7254297,23.9565804 21.7415,23.9658462 L24.4834219,25.5753568 C24.4814453,25.5990949 24.4797266,25.6232742 24.4797266,25.6477182 L24.4797266,27.4184534 C24.4710469,27.4691946 24.4656328,27.5209065 24.4656328,27.5739421 L24.4656328,27.7866139 C24.4656328,27.9265713 24.3243516,28.0758828 24.12025,28.1533624 L17.0035078,30.319526 C16.9907891,30.3233205 16.9779844,30.3274681 16.9656094,30.3323216 C15.3761094,30.8997405 14.265625,32.4353896 14.265625,34.0658144 L14.265625,41.7670038 L8.765625,41.7670038 L8.765625,33.1189397 L10.3984375,33.1189397 C12.0571172,33.1189397 13.40625,31.7335727 13.40625,30.0303453 L13.40625,17.93691 C13.40625,17.4495298 13.0215078,17.0544545 12.546875,17.0544545 C12.0722422,17.0544545 11.6875,17.4495298 11.6875,17.93691 L11.6875,30.0303453 C11.6875,30.760136 11.1091406,31.3540286 10.3984375,31.3540286 L9.51457031,31.3540286 L9.51457031,17.8551946 C9.51457031,17.3678144 9.12948437,16.9727391 8.65519531,16.9727391 C8.18047656,16.9727391 7.79582031,17.3678144 7.79582031,17.8551946 L7.79582031,31.3540286 L5.62254687,31.3540286 L5.62254687,17.8551946 C5.62254687,17.3678144 5.23746094,16.9727391 4.76317187,16.9727391 C4.28845312,16.9727391 3.90379687,17.3678144 3.90379687,17.8551946 L3.90379687,31.3540286 L3.0078125,31.3540286 C2.29710937,31.3540286 1.71875,30.760136 1.71875,30.0303453 L1.71875,17.93691 C1.71875,17.4495298 1.33400781,17.0544545 0.859375,17.0544545 C0.384742187,17.0544545 0,17.4495298 0,17.93691 L0,30.0303453 C0,31.7335727 1.34913281,33.1189397 3.0078125,33.1189397 L4.640625,33.1189397 L4.640625,41.7670038 L3.436125,41.7670038 C2.96183594,41.7670038 2.57675,42.1620792 2.57675,42.6494594 C2.57675,43.1368396 2.96183594,43.5319149 3.436125,43.5319149 L43.140625,43.5319149 C43.6152578,43.5319149 44,43.1368396 44,42.6494594 L44,34.0658144 Z" id="Fill-15" fill="#82CF9C" mask="url(#mask-2)"></path>
                            <path d="M32.7661226,16.3829787 C33.2820322,16.3829787 33.7021277,15.9628833 33.7021277,15.4469737 C33.7021277,14.9307337 33.2820322,14.5106383 32.7661226,14.5106383 C32.2498827,14.5106383 31.8297872,14.9307337 31.8297872,15.4469737 C31.8297872,15.9628833 32.2498827,16.3829787 32.7661226,16.3829787" id="Fill-16" fill="#82CF9C" mask="url(#mask-2)"></path>
                            <path d="M25.2765957,14.5106383 C24.7602647,14.5106383 24.3404255,14.9307337 24.3404255,15.4469737 C24.3404255,15.9628833 24.7602647,16.3829787 25.2765957,16.3829787 C25.7929268,16.3829787 26.212766,15.9628833 26.212766,15.4469737 C26.212766,14.9307337 25.7929268,14.5106383 25.2765957,14.5106383" id="Fill-17" fill="#82CF9C" mask="url(#mask-2)"></path>
                            <path d="M21.5319149,33.2340426 C22.0489617,33.2340426 22.4680851,32.8176571 22.4680851,32.3046107 L22.4680851,32.291134 C22.4680851,31.7781805 22.0489617,31.3617021 21.5319149,31.3617021 C21.0148681,31.3617021 20.5957447,31.7781805 20.5957447,32.291134 L20.5957447,32.3046107 C20.5957447,32.8176571 21.0148681,33.2340426 21.5319149,33.2340426" id="Fill-18" fill="#82CF9C" mask="url(#mask-2)"></path>
                            <path d="M36.5106383,33.2340426 C37.0276851,33.2340426 37.4468085,32.8176571 37.4468085,32.3046107 L37.4468085,32.291134 C37.4468085,31.7781805 37.0276851,31.3617021 36.5106383,31.3617021 C35.9938723,31.3617021 35.5744681,31.7781805 35.5744681,32.291134 L35.5744681,32.3046107 C35.5744681,32.8176571 35.9935915,33.2340426 36.5106383,33.2340426" id="Fill-19" fill="#82CF9C" mask="url(#mask-2)"></path>
                            <path d="M30.5629182,20.6524227 C30.9578544,20.3557053 31.0059189,19.8325109 30.6700306,19.4836317 C30.3498197,19.1510065 29.7961392,19.0968543 29.4030804,19.3498684 C29.3718197,19.3624735 29.249781,19.4052645 29.0168747,19.4052645 C28.7939192,19.4052645 28.6773252,19.3660395 28.6454074,19.3537661 C28.2567609,19.0997568 27.7066476,19.1471088 27.3821184,19.4735974 C27.0400343,19.8179156 27.078899,20.3421051 27.468672,20.643964 C27.5955923,20.7424828 28.082527,21.0638298 29.0168747,21.0638298 C29.9435244,21.0634981 30.4345897,20.7489512 30.5629182,20.6524227" id="Fill-20" fill="#82CF9C" mask="url(#mask-2)"></path>
                        </g>
                    </g>
                </g>
            </g>
        </g>
    </g>
</svg>