<?xml version="1.0" encoding="UTF-8"?>
<svg width="42px" height="44px" viewBox="0 0 42 44" version="1.1" xmlns="http://www.w3.org/2000/svg" xmlns:xlink="http://www.w3.org/1999/xlink">
    <!-- Generator: Sketch 52.6 (67491) - http://www.bohemiancoding.com/sketch -->
    <title>Group 16</title>
    <desc>Created with Sketch.</desc>
    <defs>
        <polygon id="path-1" points="0 0.0530831618 41.9047374 0.0530831618 41.9047374 42.952381 0 42.952381"></polygon>
    </defs>
    <g id="Page-1" stroke="none" stroke-width="1" fill="none" fill-rule="evenodd">
        <g id="Insights" transform="translate(-25.000000, -314.000000)">
            <g id="Menu" transform="translate(0.000000, 130.000000)">
                <g id="sm" transform="translate(0.000000, 162.000000)">
                    <g id="Group-16" transform="translate(25.000000, 22.000000)">
                        <polygon id="Fill-1" fill="#A7DBD8" points="26.1904762 21.4488822 27.3977388 19.1190476 31.4285714 20.9796893 30.2213883 23.3095238"></polygon>
                        <polyline id="Fill-2" fill="#BCE8CA" points="33.3463916 5.5 27.2380952 18.9699672 29.510426 20.1666667 35.6190476 6.69669947"></polyline>
                        <g id="Group-15" transform="translate(0.000000, 0.261905)">
                            <path d="M1.51797545,36.6971327 C1.0684814,37.7373273 0.818444196,38.8902507 0.818444196,40.1035282 L41.0284368,40.1035282 C41.0655126,39.7583812 41.0863013,39.408141 41.0863013,39.0527228 C41.0863013,38.2393439 40.986532,37.449818 40.7988609,36.6971327" id="Fill-4" fill="#BCE8CA"></path>
                            <path d="M19.0405253,38.6971327 L40.7989182,38.6971327 C39.790503,34.6501017 36.2449673,31.6604971 32.0257634,31.6604971 C30.9288735,31.6604971 29.8776533,31.8627807 28.9045134,32.2328843 C26.891939,29.35864 23.6267232,27.487495 19.9386131,27.487495 C15.5969687,27.487495 11.8410089,30.0788988 10.0263363,33.849965 C9.64690179,33.7930064 9.25969196,33.7621079 8.86519792,33.7621079 C5.59171577,33.7621079 2.77476637,35.7884246 1.51795089,38.6971327 L8.43068155,38.6971327" id="Fill-6" fill="#BCE8CA"></path>
                            <g id="Group-10">
                                <mask id="mask-2" fill="white">
                                    <use xlink:href="#path-1"></use>
                                </mask>
                                <g id="Clip-9"></g>
                                <path d="M40.2652954,41.2546584 L1.68230432,41.2546584 C1.74557068,40.6697081 1.87480432,40.0984244 2.06853199,39.5459855 L8.43068973,39.5459855 C8.88247545,39.5459855 9.24914211,39.1660352 9.24914211,38.6971242 C9.24914211,38.2282981 8.88247545,37.8482629 8.43068973,37.8482629 L2.91448437,37.8482629 C4.44007961,35.5610062 7.1189561,34.2717557 9.9093058,34.6902443 C10.258785,34.7422795 10.6008981,34.5566335 10.7584501,34.2289731 C12.5078921,30.5944886 16.0253549,28.3363478 19.9386213,28.3363478 C23.2111213,28.3363478 26.3151838,29.9797433 28.2420662,32.7319213 C28.4572374,33.0389545 28.8424829,33.1605963 29.186151,33.0299565 C29.3671109,32.9613685 29.5492984,32.8993168 29.7337775,32.843971 C29.7398341,32.8422733 29.7462999,32.8403209 29.7523564,32.8386232 C30.4879814,32.6201263 31.2502061,32.5094348 32.0257716,32.5094348 C35.4216942,32.5094348 38.4276243,34.6564596 39.6697076,37.8486025 L19.0405335,37.8486025 C18.5884204,37.8486025 18.2220811,38.2286377 18.2220811,38.6974638 C18.2220811,39.1660352 18.5884204,39.5463251 19.0405335,39.5463251 L40.1399903,39.5463251 C40.2250275,40.041381 40.2678326,40.5456894 40.2678326,41.0527143 C40.2678326,41.1193499 40.2669323,41.1866646 40.2652954,41.2546584 Z M31.8099457,25.2280725 L29.0598638,31.0606832 C26.8647746,28.3446667 23.6206749,26.718588 20.1943876,26.6413416 L22.9719695,20.7503292 L31.8099457,25.2280725 Z M27.2934799,19.674058 L29.9742388,21.032236 L29.4501838,22.1433106 L26.7697522,20.7851325 L27.2934799,19.674058 Z M34.3692463,7.11150518 C34.6278772,7.27703313 34.9015677,7.41590683 35.1860618,7.52600414 L29.7616049,19.0350352 L28.9441347,18.6208758 L34.3692463,7.11150518 Z M38.8438891,4.87662319 C38.5180632,5.56734161 37.8572448,6.04253416 37.1190826,6.11680952 C35.971285,6.23250932 34.8740677,5.67642029 34.2563817,4.66678468 C33.8592686,4.01749068 33.8148266,3.18518219 34.1406525,2.49454865 L34.2273266,2.31085507 L38.9302359,4.6936087 L38.8438891,4.87662319 Z M32.0257716,30.8117122 C31.6722001,30.8117122 31.3205112,30.8308965 30.9723415,30.8693499 L33.2806228,25.9732029 C33.3998713,26.0338116 33.5219844,26.0613996 33.6428698,26.0613996 C33.9456153,26.0613996 34.2369025,25.8862795 34.3788222,25.5848489 C34.5770513,25.1637288 34.408532,24.6554306 34.0024978,24.4498364 L30.9211882,22.888441 L31.8042165,21.0152588 C31.8998118,20.81306 31.9135618,20.5796232 31.8432567,20.3667288 C31.7725424,20.1538344 31.6235841,19.9783747 31.4282195,19.8795673 L31.232282,19.7804203 L36.8651987,7.82972671 C37.0017165,7.82811387 37.1392165,7.82081366 37.2769621,7.80689234 C38.57691,7.67625259 39.7409948,6.83927536 40.3145662,5.62268737 L40.4139263,5.41149068 C40.4641793,5.42142236 40.5146778,5.4260911 40.5645216,5.4260911 C40.8675945,5.4260911 41.1588817,5.25097101 41.300474,4.94962526 C41.4990305,4.52850518 41.330593,4.02012215 40.9245588,3.81427329 L34.2106302,0.412801242 L33.6710246,0.139298137 C33.2646629,-0.0662960663 32.7745737,0.108399586 32.5763445,0.529519669 C32.4110171,0.880354037 32.5002284,1.29154244 32.7697448,1.53822153 L32.6703028,1.74882402 C32.096404,2.96575155 32.1747299,4.43198965 32.8739338,5.576 C32.9475126,5.69602899 33.0251838,5.81172878 33.107029,5.92343892 L27.4734576,17.8758302 L27.2768653,17.7760041 C26.8708311,17.5704099 26.38066,17.7448509 26.1825126,18.165971 L25.2988296,20.0397474 L22.2165379,18.478352 C21.8105037,18.2727578 21.3203326,18.4474534 21.1218579,18.8685735 C20.9236287,19.2896936 21.0920662,19.7979917 21.4981004,20.0039255 L18.3195588,26.7523727 C16.6440231,26.9897992 15.0351912,27.5949524 13.5978251,28.5366791 C11.9174606,29.6375673 10.5321481,31.15253 9.56375521,32.9424389 C9.32943229,32.9229151 9.09600967,32.9132381 8.8652061,32.9132381 C5.3752433,32.9132381 2.19801116,35.0473602 0.770793899,38.34994 C0.259261161,39.5340166 -2.45535714e-05,40.7970373 -2.45535714e-05,42.1035197 C-2.45535714e-05,42.3286377 0.0863221726,42.5445031 0.239781994,42.7036646 C0.393241815,42.8628261 0.601374256,42.952381 0.818427827,42.952381 L41.0284204,42.952381 C41.44534,42.952381 41.7957195,42.6274369 41.8417984,42.1976584 C41.8836213,41.8087101 41.9047374,41.4237516 41.9047374,41.0527143 C41.9047374,40.1833106 41.7992388,39.3195093 41.5914338,38.4849089 C40.4657344,33.9670145 36.5320885,30.8117122 32.0257716,30.8117122 Z" id="Fill-8" fill="#82CF9C" mask="url(#mask-2)"></path>
                            </g>
                            <path d="M37.2721877,35.0609959 C37.050375,35.0609959 36.8322138,34.9635935 36.6920952,34.7800276 C35.5364925,33.2660685 33.6762871,32.3622703 31.7159868,32.3622703 C31.3205473,32.3622703 31,32.0573261 31,31.6811351 C31,31.3048761 31.3205473,31 31.7159868,31 C34.1335879,31 36.4266789,32.1137241 37.8508482,33.9794214 C38.0832576,34.2840931 38.0122317,34.7098026 37.6922572,34.930899 C37.5650263,35.0186974 37.417891,35.0609959 37.2721877,35.0609959" id="Fill-11" fill="#FFFFFF"></path>
                            <path d="M1.68230432,41.2546584 C1.74557068,40.6697081 1.87480432,40.0984244 2.06853199,39.5459855 L2.91448438,37.8482629 C4.44007961,35.5610062 7.1189561,34.2717557 9.9093058,34.6902443 C10.258785,34.7422795 10.6008981,34.5566335 10.7584501,34.2289731 C12.5078921,30.5944886 16.0253549,28.3363478 19.9386213,28.3363478 C23.2111213,28.3363478 26.3151838,29.9797433 28.2420662,32.7319213 C28.3318317,32.86001 23.3050878,30.1413211 16.9533567,32.7319213 C15.3925911,33.368491 13.3946478,35.5612718 12.546875,35.8858408 C11.7584501,36.1876884 8.43068973,35.5612718 6.0212766,37.0609959 C4.71753845,37.8724995 3.27121436,39.270387 1.68230432,41.2546584 Z" id="Path" fill="#FFFFFF"></path>
                            <path d="M16.2667411,37.5463251 C16.2137054,37.5463251 16.1596057,37.540383 16.1072247,37.5290932 C16.0547619,37.5181429 16.0032812,37.5019296 15.9540923,37.4807081 C15.9041667,37.4594865 15.8565327,37.4332567 15.8124182,37.4027826 C15.7673214,37.3722236 15.7258259,37.3364017 15.6880952,37.2976087 C15.5358631,37.1394658 15.4482887,36.9206294 15.4482887,36.6974638 C15.4482887,36.642118 15.4540179,36.5860083 15.4645759,36.5310021 C15.4751339,36.4772692 15.4908482,36.4238758 15.5113095,36.3721801 C15.5317708,36.3210787 15.5569792,36.2720145 15.586689,36.2262609 C15.6161533,36.1794886 15.6503646,36.1361118 15.6880952,36.0969793 C15.7258259,36.0581863 15.7673214,36.0223644 15.8124182,35.9908716 C15.8565327,35.9603126 15.9041667,35.9341677 15.9540923,35.9129462 C16.0032812,35.8924037 16.0547619,35.8754265 16.1072247,35.8645611 C16.3732217,35.80947 16.655506,35.9002981 16.8453869,36.0969793 C16.8831176,36.1361118 16.9173289,36.1794886 16.9467932,36.2262609 C16.976503,36.2720145 17.0017113,36.3210787 17.0221726,36.3721801 C17.0426339,36.4238758 17.059003,36.4772692 17.069561,36.5310021 C17.0803646,36.5860083 17.0851935,36.642118 17.0851935,36.6974638 C17.0851935,36.9206294 16.997619,37.1394658 16.8453869,37.2976087 C16.6932366,37.4554969 16.4819122,37.5463251 16.2667411,37.5463251" id="Fill-13" fill="#82CF9C"></path>
                        </g>
                    </g>
                </g>
            </g>
        </g>
    </g>
</svg>