<svg width="45" height="46" viewBox="0 0 45 46" fill="none" xmlns="http://www.w3.org/2000/svg">
<g clip-path="url(#clip0_62124_478540)">
<path d="M36.7193 8.09863H22.2655C18.2444 8.09863 14.9848 11.36 14.9848 15.3831V37.7155C14.9848 41.7386 18.2444 45 22.2655 45H36.7193C40.7403 45 44 41.7386 44 37.7155V15.3831C44 11.36 40.7403 8.09863 36.7193 8.09863Z" fill="#BCE8CA"/>
<path d="M33.5627 16.5662H11.6523C11.1441 16.5662 10.7043 17.0062 10.7043 17.5147V40.3947C10.7043 40.9031 11.1441 41.3431 11.6523 41.3431H33.5725C34.0807 41.3431 34.5205 40.9031 34.5205 40.3947V17.4462C34.5205 16.9378 34.0807 16.5662 33.5725 16.5662H33.5627ZM32.6832 39.368H12.6002V18.3947H32.693V39.368H32.6832Z" fill="white"/>
<path d="M15.962 22.9315H18.1511V24.6817H15.962V22.9315Z" fill="white"/>
<path d="M21.9527 26.5102H27.2886C27.7968 26.5102 28.2366 26.0702 28.2366 25.5618C28.2366 25.0533 27.7968 24.6133 27.2886 24.6133H21.9527C21.4445 24.6133 21.0048 25.0533 21.0048 25.5618C21.0048 26.0702 21.4445 26.5102 21.9527 26.5102Z" fill="white"/>
<path d="M15.0043 35.7209H19.0209C19.5291 35.7209 19.9689 35.2809 19.9689 34.7724V31.1937C19.9689 30.6853 19.5291 30.2453 19.0209 30.2453H15.0043C14.4961 30.2453 14.0564 30.6853 14.0564 31.1937V34.7724C14.1345 35.2809 14.4961 35.7209 15.0043 35.7209ZM15.962 32.1324H18.1511V33.8826H15.962V32.1324Z" fill="white"/>
<path d="M21.9527 32.1324H29.9175C30.4257 32.1324 30.8654 31.6924 30.8654 31.184C30.8654 30.6755 30.4257 30.2355 29.9175 30.2355H21.9527C21.4445 30.2355 21.0048 30.6755 21.0048 31.184C21.0048 31.6924 21.4445 32.1324 21.9527 32.1324Z" fill="white"/>
<path d="M38.1657 43.0249V9.26221C38.1657 8.75377 37.7259 8.31377 37.2177 8.31377H33.5627V6.48532C33.5627 5.97688 33.1229 5.53688 32.6148 5.53688H27.1323C26.9173 3.05332 24.7966 1.00977 22.1677 1.00977C19.5389 1.00977 17.4182 3.05332 17.2032 5.6151H12.6002C12.092 5.6151 11.6523 6.0551 11.6523 6.56354V8.31377H7.78226C7.27408 8.31377 6.83431 8.75377 6.83431 9.26221V43.1031H1.4984C0.990218 43.1031 0.550446 43.5431 0.550446 44.0515C0.550446 44.56 0.990218 45 1.4984 45H43.5016M13.47 7.43377H18.0729C18.5811 7.43377 19.0209 6.99377 18.9525 6.4071C18.7375 4.51021 20.2718 2.82843 22.0895 2.82843C23.9073 2.82843 25.4514 4.43199 25.2266 6.4071C25.1582 6.91554 25.5882 7.43377 26.1061 7.43377H31.5886V12.9191H13.3234C13.47 12.0391 13.47 8.82221 13.47 7.43377ZM8.73022 43.0249V10.1324H11.6523V13.7893C11.6523 14.2978 12.092 14.7378 12.6002 14.7378H32.6929C33.2011 14.7378 33.6409 14.2978 33.6409 13.7893V10.1324H36.4164V43.0249H8.73022Z" fill="white"/>
<path d="M32.5855 17.544H10.675C10.1668 17.544 9.72705 17.984 9.72705 18.4925V41.3725C9.72705 41.8809 10.1668 42.3209 10.675 42.3209H32.5952C33.1034 42.3209 33.5432 41.8809 33.5432 41.3725V18.424C33.5432 17.9156 33.1034 17.544 32.5952 17.544H32.5855ZM31.7059 40.3458H11.623V19.3725H31.7157V40.3458H31.7059Z" fill="#82CF9C"/>
<path d="M14.0271 27.488H18.0436C18.5518 27.488 18.9916 27.048 18.9916 26.5396V22.9609C18.9916 22.4525 18.5518 22.0125 18.0436 22.0125H14.0271C13.5189 22.0125 13.0791 22.4525 13.0791 22.9609V26.5396C13.1573 27.048 13.5189 27.488 14.0271 27.488ZM14.9848 23.9093H17.1739V25.6596H14.9848V23.9093Z" fill="#82CF9C"/>
<path d="M20.9755 23.9093H28.9402C29.4484 23.9093 29.8882 23.4693 29.8882 22.9609C29.8882 22.4525 29.4484 22.0125 28.9402 22.0125H20.9755C20.4673 22.0125 20.0275 22.4525 20.0275 22.9609C20.1057 23.4693 20.4673 23.9093 20.9755 23.9093Z" fill="#82CF9C"/>
<path d="M20.9755 27.488H26.3114C26.8195 27.488 27.2593 27.048 27.2593 26.5396C27.2593 26.0311 26.8195 25.5911 26.3114 25.5911H20.9755C20.4673 25.5911 20.0275 26.0311 20.0275 26.5396C20.0275 27.048 20.4673 27.488 20.9755 27.488Z" fill="#82CF9C"/>
<path d="M14.0271 36.6986H18.0436C18.5518 36.6986 18.9916 36.2586 18.9916 35.7502V32.1715C18.9916 31.6631 18.5518 31.2231 18.0436 31.2231H14.0271C13.5189 31.2231 13.0791 31.6631 13.0791 32.1715V35.7502C13.1573 36.2586 13.5189 36.6986 14.0271 36.6986ZM14.9848 33.1102H17.1739V34.8604H14.9848V33.1102Z" fill="#82CF9C"/>
<path d="M20.9755 33.1102H28.9402C29.4484 33.1102 29.8882 32.6702 29.8882 32.1618C29.8882 31.6533 29.4484 31.2133 28.9402 31.2133H20.9755C20.4673 31.2133 20.0275 31.6533 20.0275 32.1618C20.0275 32.6702 20.4673 33.1102 20.9755 33.1102Z" fill="#82CF9C"/>
<path d="M20.9755 36.6986H26.3114C26.8195 36.6986 27.2593 36.2586 27.2593 35.7502C27.2593 35.2418 26.8195 34.8018 26.3114 34.8018H20.9755C20.4673 34.8018 20.0275 35.2418 20.0275 35.7502C20.1057 36.2586 20.4673 36.6986 20.9755 36.6986Z" fill="#82CF9C"/>
<path d="M21.1905 10.24C22.4316 10.24 23.4577 9.21331 23.4577 7.97153C23.4577 6.72976 22.4316 5.63464 21.1905 5.63464C19.9493 5.63464 18.9232 6.66131 18.9232 7.90309C18.9232 9.14487 19.9493 10.24 21.1905 10.24ZM21.1905 7.46309C21.4055 7.46309 21.6302 7.6782 21.6302 7.90309C21.6302 8.12798 21.4152 8.34309 21.1905 8.34309C20.9657 8.34309 20.7507 8.12798 20.7507 7.90309C20.7507 7.6782 20.8973 7.46309 21.1905 7.46309Z" fill="#82CF9C"/>
<path d="M42.6709 44.0027H37.1884V10.24C37.1884 9.73155 36.7486 9.29155 36.2405 9.29155H32.5855V7.4631C32.5855 6.95466 32.1457 6.51466 31.6375 6.51466H26.155C25.94 4.0311 23.8193 1.98755 21.1905 1.98755C18.5616 1.98755 16.4409 4.0311 16.2259 6.59288H11.623C11.1148 6.59288 10.675 7.03288 10.675 7.54133V9.29155H6.805C6.29682 9.29155 5.85704 9.73155 5.85704 10.24V44.0809H0.521136C0.0129539 44.0809 -0.426819 44.5209 -0.426819 45.0293C-0.426819 45.5378 0.0129539 45.9778 0.521136 45.9778H42.5243C43.0325 45.9778 43.4723 45.5378 43.4723 45.0293C43.5407 44.4427 43.1107 44.0027 42.6709 44.0027ZM12.4927 8.41155H17.0957C17.6039 8.41155 18.0436 7.97155 17.9752 7.38488C17.7602 5.48799 19.2945 3.80622 21.1123 3.80622C22.93 3.80622 24.4741 5.40977 24.2493 7.38488C24.1809 7.89333 24.6109 8.41155 25.1289 8.41155H30.6114V13.8969H12.3461C12.4927 13.0169 12.4927 9.79999 12.4927 8.41155ZM7.75295 44.0027V11.1102H10.675V14.7671C10.675 15.2755 11.1148 15.7155 11.623 15.7155H31.7157C32.2239 15.7155 32.6636 15.2755 32.6636 14.7671V11.1102H35.4391V44.0027H7.75295Z" fill="#82CF9C"/>
</g>
<defs>
<clipPath id="clip0_62124_478540">
<rect width="45" height="46" fill="white"/>
</clipPath>
</defs>
</svg>
