<svg width="25" height="24" viewBox="0 0 25 24" fill="none" xmlns="http://www.w3.org/2000/svg">
<path d="M21.5 10H3.5M16.5 2V6M8.5 2V6M11 14L12.5 13V18M11.25 18H13.75M8.3 22H16.7C18.3802 22 19.2202 22 19.862 21.673C20.4265 21.3854 20.8854 20.9265 21.173 20.362C21.5 19.7202 21.5 18.8802 21.5 17.2V8.8C21.5 7.11984 21.5 6.27976 21.173 5.63803C20.8854 5.07354 20.4265 4.6146 19.862 4.32698C19.2202 4 18.3802 4 16.7 4H8.3C6.61984 4 5.77976 4 5.13803 4.32698C4.57354 4.6146 4.1146 5.07354 3.82698 5.63803C3.5 6.27976 3.5 7.11984 3.5 8.8V17.2C3.5 18.8802 3.5 19.7202 3.82698 20.362C4.1146 20.9265 4.57354 21.3854 5.13803 21.673C5.77976 22 6.61984 22 8.3 22Z" stroke="#9FAABE" stroke-width="2" stroke-linecap="round" stroke-linejoin="round"/>
</svg>
