<svg width="24" height="24" viewBox="0 0 24 24" fill="none" xmlns="http://www.w3.org/2000/svg">
<path fill-rule="evenodd" clip-rule="evenodd" d="M12 22.5C14.7848 22.5 17.4555 21.3938 19.4246 19.4246C21.3938 17.4555 22.5 14.7848 22.5 12C22.5 9.21523 21.3938 6.54451 19.4246 4.57538C17.4555 2.60625 14.7848 1.5 12 1.5C9.21523 1.5 6.54451 2.60625 4.57538 4.57538C2.60625 6.54451 1.5 9.21523 1.5 12C1.5 14.7848 2.60625 17.4555 4.57538 19.4246C6.54451 21.3938 9.21523 22.5 12 22.5ZM12 24C15.1826 24 18.2348 22.7357 20.4853 20.4853C22.7357 18.2348 24 15.1826 24 12C24 8.8174 22.7357 5.76516 20.4853 3.51472C18.2348 1.26428 15.1826 0 12 0C8.8174 0 5.76516 1.26428 3.51472 3.51472C1.26428 5.76516 0 8.8174 0 12C0 15.1826 1.26428 18.2348 3.51472 20.4853C5.76516 22.7357 8.8174 24 12 24Z" fill="#282B36"/>
<path d="M10.5029 16.5002C10.5029 16.3032 10.5417 16.1081 10.6171 15.9262C10.6925 15.7442 10.803 15.5788 10.9423 15.4395C11.0816 15.3002 11.2469 15.1897 11.4289 15.1144C11.6109 15.039 11.8059 15.0002 12.0029 15.0002C12.1999 15.0002 12.395 15.039 12.577 15.1144C12.7589 15.1897 12.9243 15.3002 13.0636 15.4395C13.2029 15.5788 13.3134 15.7442 13.3887 15.9262C13.4641 16.1081 13.5029 16.3032 13.5029 16.5002C13.5029 16.898 13.3449 17.2795 13.0636 17.5608C12.7823 17.8421 12.4008 18.0002 12.0029 18.0002C11.6051 18.0002 11.2236 17.8421 10.9423 17.5608C10.661 17.2795 10.5029 16.898 10.5029 16.5002ZM10.6499 7.49268C10.63 7.30344 10.65 7.11211 10.7087 6.93112C10.7675 6.75012 10.8636 6.5835 10.9909 6.44206C11.1182 6.30062 11.2738 6.18752 11.4476 6.1101C11.6215 6.03268 11.8096 5.99268 11.9999 5.99268C12.1902 5.99268 12.3784 6.03268 12.5522 6.1101C12.726 6.18752 12.8817 6.30062 13.009 6.44206C13.1362 6.5835 13.2324 6.75012 13.2911 6.93112C13.3499 7.11211 13.3699 7.30344 13.3499 7.49268L12.8249 12.7532C12.8073 12.9598 12.7127 13.1523 12.56 13.2926C12.4072 13.4329 12.2073 13.5108 11.9999 13.5108C11.7925 13.5108 11.5927 13.4329 11.4399 13.2926C11.2871 13.1523 11.1926 12.9598 11.1749 12.7532L10.6499 7.49268Z" fill="#282B36"/>
</svg>
