<svg width="24" height="24" viewBox="0 0 24 24" fill="none" xmlns="http://www.w3.org/2000/svg">
<path fill-rule="evenodd" clip-rule="evenodd" d="M21.8929 21C21.8929 21 23.2857 21 23.2857 19.5C23.2857 18 21.8929 13.5 16.3214 13.5C10.75 13.5 9.35714 18 9.35714 19.5C9.35714 21 10.75 21 10.75 21H21.8929ZM10.757 19.584V19.581V19.584ZM10.7806 19.5H21.8622C21.8687 19.4992 21.8752 19.4982 21.8817 19.497L21.8929 19.494C21.8901 19.098 21.6602 17.949 20.8343 16.914C20.0654 15.9435 18.7144 15 16.3214 15C13.9299 15 12.5788 15.945 11.8086 16.914C10.9826 17.949 10.7514 19.0995 10.75 19.494C10.7602 19.4961 10.7704 19.4981 10.7806 19.5ZM21.8859 19.584V19.581V19.584ZM16.3214 10.5C17.0602 10.5 17.7688 10.1839 18.2912 9.62132C18.8136 9.05871 19.1071 8.29565 19.1071 7.5C19.1071 6.70435 18.8136 5.94129 18.2912 5.37868C17.7688 4.81607 17.0602 4.5 16.3214 4.5C15.5826 4.5 14.8741 4.81607 14.3516 5.37868C13.8292 5.94129 13.5357 6.70435 13.5357 7.5C13.5357 8.29565 13.8292 9.05871 14.3516 9.62132C14.8741 10.1839 15.5826 10.5 16.3214 10.5ZM20.5 7.5C20.5 8.09095 20.3919 8.67611 20.1819 9.22208C19.9719 9.76804 19.6641 10.2641 19.2761 10.682C18.8881 11.0998 18.4275 11.4313 17.9205 11.6575C17.4135 11.8836 16.8702 12 16.3214 12C15.7727 12 15.2293 11.8836 14.7224 11.6575C14.2154 11.4313 13.7547 11.0998 13.3667 10.682C12.9787 10.2641 12.6709 9.76804 12.4609 9.22208C12.2509 8.67611 12.1429 8.09095 12.1429 7.5C12.1429 6.30653 12.5831 5.16193 13.3667 4.31802C14.1504 3.47411 15.2132 3 16.3214 3C17.4297 3 18.4925 3.47411 19.2761 4.31802C20.0598 5.16193 20.5 6.30653 20.5 7.5ZM10.6609 13.92C10.1037 13.7311 9.52935 13.6069 8.94764 13.5495C8.62078 13.516 8.29262 13.4995 7.96429 13.5C2.39286 13.5 1 18 1 19.5C1 20.5005 1.46382 21 2.39286 21H8.26514C8.05866 20.5317 7.95568 20.0183 7.96429 19.5C7.96429 17.985 8.48939 16.437 9.4825 15.144C9.82096 14.703 10.2151 14.2905 10.6609 13.92ZM7.85286 15C5.52957 15.03 4.21054 15.96 3.45143 16.914C2.61989 17.955 2.39286 19.1085 2.39286 19.5H6.57143C6.57143 17.9325 7.02132 16.371 7.85286 15ZM3.08929 8.25C3.08929 7.05653 3.52953 5.91193 4.31316 5.06802C5.0968 4.22411 6.15963 3.75 7.26786 3.75C8.37608 3.75 9.43892 4.22411 10.2226 5.06802C11.0062 5.91193 11.4464 7.05653 11.4464 8.25C11.4464 9.44347 11.0062 10.5881 10.2226 11.432C9.43892 12.2759 8.37608 12.75 7.26786 12.75C6.15963 12.75 5.0968 12.2759 4.31316 11.432C3.52953 10.5881 3.08929 9.44347 3.08929 8.25ZM7.26786 5.25C6.52904 5.25 5.82048 5.56607 5.29806 6.12868C4.77564 6.69129 4.48214 7.45435 4.48214 8.25C4.48214 9.04565 4.77564 9.80871 5.29806 10.3713C5.82048 10.9339 6.52904 11.25 7.26786 11.25C8.00667 11.25 8.71523 10.9339 9.23765 10.3713C9.76008 9.80871 10.0536 9.04565 10.0536 8.25C10.0536 7.45435 9.76008 6.69129 9.23765 6.12868C8.71523 5.56607 8.00667 5.25 7.26786 5.25Z" fill="#282B36"/>
</svg>
