<svg width="25" height="24" viewBox="0 0 25 24" fill="none" xmlns="http://www.w3.org/2000/svg">
<path d="M2.72852 8.37722C2.72852 8.0269 2.72852 7.85174 2.74313 7.70421C2.88412 6.28127 4.00978 5.1556 5.43273 5.01462C5.58026 5 5.76487 5 6.1341 5C6.27637 5 6.3475 5 6.4079 4.99634C7.17913 4.94963 7.85447 4.46288 8.14266 3.746C8.16523 3.68986 8.18632 3.62657 8.22852 3.5C8.27071 3.37343 8.2918 3.31014 8.31437 3.254C8.60256 2.53712 9.2779 2.05037 10.0491 2.00366C10.1095 2 10.1762 2 10.3097 2H15.1474C15.2808 2 15.3475 2 15.4079 2.00366C16.1791 2.05037 16.8545 2.53712 17.1427 3.254C17.1652 3.31014 17.1863 3.37343 17.2285 3.5C17.2707 3.62657 17.2918 3.68986 17.3144 3.746C17.6026 4.46288 18.2779 4.94963 19.0491 4.99634C19.1095 5 19.1807 5 19.3229 5C19.6922 5 19.8768 5 20.0243 5.01462C21.4472 5.1556 22.5729 6.28127 22.7139 7.70421C22.7285 7.85174 22.7285 8.0269 22.7285 8.37722V16.2C22.7285 17.8802 22.7285 18.7202 22.4015 19.362C22.1139 19.9265 21.655 20.3854 21.0905 20.673C20.4488 21 19.6087 21 17.9285 21H7.52852C5.84836 21 5.00828 21 4.36654 20.673C3.80206 20.3854 3.34312 19.9265 3.0555 19.362C2.72852 18.7202 2.72852 17.8802 2.72852 16.2V8.37722Z" stroke="#634D00" stroke-width="2" stroke-linecap="round" stroke-linejoin="round"/>
<path d="M12.7285 16.5C14.9377 16.5 16.7285 14.7091 16.7285 12.5C16.7285 10.2909 14.9377 8.5 12.7285 8.5C10.5194 8.5 8.72852 10.2909 8.72852 12.5C8.72852 14.7091 10.5194 16.5 12.7285 16.5Z" stroke="#634D00" stroke-width="2" stroke-linecap="round" stroke-linejoin="round"/>
</svg>
