<svg width="25" height="25" viewBox="0 0 25 25" fill="none" xmlns="http://www.w3.org/2000/svg">
<path d="M11.6289 4.58031H7.42891C5.74875 4.58031 4.90867 4.58031 4.26693 4.90729C3.70245 5.19491 3.24351 5.65385 2.95589 6.21833C2.62891 6.86007 2.62891 7.70015 2.62891 9.38031V17.7803C2.62891 19.4605 2.62891 20.3005 2.95589 20.9423C3.24351 21.5068 3.70245 21.9657 4.26693 22.2533C4.90867 22.5803 5.74875 22.5803 7.42891 22.5803H15.8289C17.5091 22.5803 18.3491 22.5803 18.9909 22.2533C19.5554 21.9657 20.0143 21.5068 20.3019 20.9423C20.6289 20.3005 20.6289 19.4605 20.6289 17.7803V13.5803M8.62888 16.5803H10.3034C10.7926 16.5803 11.0372 16.5803 11.2674 16.525C11.4714 16.4761 11.6665 16.3952 11.8455 16.2856C12.0473 16.1619 12.2203 15.989 12.5662 15.643L22.1289 6.08031C22.9573 5.25188 22.9573 3.90873 22.1289 3.08031C21.3005 2.25188 19.9573 2.25188 19.1289 3.0803L9.56614 12.643C9.22024 12.989 9.04728 13.1619 8.9236 13.3637C8.81394 13.5427 8.73313 13.7378 8.68414 13.9418C8.62888 14.172 8.62888 14.4166 8.62888 14.9058V16.5803Z" stroke="#266F68" stroke-width="2" stroke-linecap="round" stroke-linejoin="round"/>
</svg>
