<svg width="16" height="16" viewBox="0 0 16 16" fill="none" xmlns="http://www.w3.org/2000/svg">
<path d="M15.7143 1.87309L10.8571 0.0245172H10.8171H10.7629H10.66H10.6086H10.5657L5.28286 1.82452L0.571429 0.0245172C0.507109 0.00177344 0.43829 -0.00528665 0.370692 0.00392383C0.303095 0.0131343 0.238672 0.0383492 0.182783 0.077472C0.126893 0.116595 0.0811505 0.168495 0.0493589 0.228857C0.0175674 0.289219 0.000645374 0.356298 0 0.424517V12.8759C0.000834652 12.9639 0.0286977 13.0494 0.0798092 13.121C0.130921 13.1925 0.202806 13.2466 0.285714 13.2759L5.14286 15.1245C5.2349 15.1594 5.33653 15.1594 5.42857 15.1245L10.7114 13.3245L15.4286 15.1274C15.4929 15.1501 15.5617 15.1572 15.6293 15.148C15.6969 15.1388 15.7613 15.1135 15.8172 15.0744C15.8731 15.0353 15.9188 14.9834 15.9506 14.923C15.9824 14.8627 15.9994 14.7956 16 14.7274V2.27309C15.9992 2.18516 15.9713 2.09961 15.9202 2.02805C15.8691 1.9565 15.7972 1.9024 15.7143 1.87309ZM0.857143 1.04452L4.85714 2.56737V14.1045L0.857143 12.5817V1.04452ZM5.71429 2.5788L10.2857 1.02166V12.5702L5.71429 14.1274V2.5788ZM15.1429 14.1045L11.1429 12.5817V1.04737L15.1429 2.57023V14.1045Z" fill="#282B36"/>
</svg>
