<svg width="24" height="24" viewBox="0 0 24 24" fill="none" xmlns="http://www.w3.org/2000/svg">
<path d="M8 0C10.1217 0 12.1566 0.842855 13.6569 2.34315C15.1571 3.84344 16 5.87827 16 8C16 10.1217 15.1571 12.1566 13.6569 13.6569C12.1566 15.1571 10.1217 16 8 16C5.87827 16 3.84344 15.1571 2.34315 13.6569C0.842855 12.1566 0 10.1217 0 8C0 5.87827 0.842855 3.84344 2.34315 2.34315C3.84344 0.842855 5.87827 0 8 0ZM8 0.842105C6.10161 0.842105 4.28097 1.59624 2.9386 2.9386C1.59624 4.28097 0.842105 6.10161 0.842105 8C0.842105 9.89839 1.59624 11.719 2.9386 13.0614C4.28097 14.4038 6.10161 15.1579 8 15.1579C9.89839 15.1579 11.719 14.4038 13.0614 13.0614C14.4038 11.719 15.1579 9.89839 15.1579 8C15.1579 6.10161 14.4038 4.28097 13.0614 2.9386C11.719 1.59624 9.89839 0.842105 8 0.842105ZM7.57895 3.36842V5.05263H8.42105V3.36842H7.57895ZM7.57895 6.73684V12.6316H8.42105V6.73684H7.57895Z" fill="#282B36"/>
</svg>
