<svg width="24" height="24" viewBox="0 0 24 24" fill="none" xmlns="http://www.w3.org/2000/svg">
<path d="M6.92466 8.7C7.03454 10.2251 8.16591 11.4 9.39966 11.4C10.6334 11.4 11.7667 10.2255 11.8747 8.7C11.9872 7.11337 10.8858 6 9.39966 6C7.91354 6 6.81216 7.14225 6.92466 8.7Z" stroke="#282B36" stroke-linecap="round" stroke-linejoin="round"/>
<path d="M9.39983 13.8C11.8437 13.8 14.1938 15.0139 14.7826 17.3779C14.8606 17.6907 14.6645 18 14.3431 18H4.45621C4.13483 18 3.93983 17.6907 4.01671 17.3779C4.60546 14.976 6.95558 13.8 9.39983 13.8Z" stroke="#282B36" stroke-miterlimit="10"/>
<path d="M14.4997 9.3727C14.5875 10.5907 15.5017 11.55 16.4872 11.55C17.4727 11.55 18.3885 10.5911 18.4747 9.3727C18.5644 8.10558 17.6745 7.19995 16.4872 7.19995C15.3 7.19995 14.4101 8.12883 14.4997 9.3727Z" stroke="#282B36" stroke-linecap="round" stroke-linejoin="round"/>
<path d="M14.2747 13.8752C14.9516 13.5651 15.6971 13.4458 16.4872 13.4458C18.4372 13.4458 20.3159 14.4152 20.7866 16.3033C20.8484 16.5531 20.6917 16.8002 20.4352 16.8002H16.2247" stroke="#282B36" stroke-miterlimit="10" stroke-linecap="round"/>
</svg>