<svg width="24" height="24" viewBox="0 0 24 24" fill="none" xmlns="http://www.w3.org/2000/svg">
<path fill-rule="evenodd" clip-rule="evenodd" d="M22.5 24C22.5 24 24 24 24 22C24 20 22.5 14 16.5 14C10.5 14 9 20 9 22C9 24 10.5 24 10.5 24H22.5ZM10.5075 22.112V22.108V22.112ZM10.533 22H22.467C22.474 21.9989 22.481 21.9976 22.488 21.996L22.5 21.992C22.497 21.464 22.2495 19.932 21.36 18.552C20.532 17.258 19.077 16 16.5 16C13.9245 16 12.4695 17.26 11.64 18.552C10.7505 19.932 10.5015 21.466 10.5 21.992C10.511 21.9948 10.522 21.9975 10.533 22ZM22.4925 22.112V22.108V22.112ZM16.5 10C17.2956 10 18.0587 9.57857 18.6213 8.82843C19.1839 8.07828 19.5 7.06087 19.5 6C19.5 4.93913 19.1839 3.92172 18.6213 3.17157C18.0587 2.42143 17.2956 2 16.5 2C15.7044 2 14.9413 2.42143 14.3787 3.17157C13.8161 3.92172 13.5 4.93913 13.5 6C13.5 7.06087 13.8161 8.07828 14.3787 8.82843C14.9413 9.57857 15.7044 10 16.5 10ZM21 6C21 6.78793 20.8836 7.56815 20.6575 8.2961C20.4313 9.02405 20.0998 9.68549 19.682 10.2426C19.2641 10.7998 18.768 11.2417 18.2221 11.5433C17.6761 11.8448 17.0909 12 16.5 12C15.9091 12 15.3239 11.8448 14.7779 11.5433C14.232 11.2417 13.7359 10.7998 13.318 10.2426C12.9002 9.68549 12.5687 9.02405 12.3425 8.2961C12.1164 7.56815 12 6.78793 12 6C12 4.4087 12.4741 2.88258 13.318 1.75736C14.1619 0.632141 15.3065 0 16.5 0C17.6935 0 18.8381 0.632141 19.682 1.75736C20.5259 2.88258 21 4.4087 21 6ZM10.404 14.56C9.80397 14.3081 9.18545 14.1425 8.559 14.066C8.207 14.0214 7.85359 13.9993 7.5 14C1.5 14 0 20 0 22C0 23.334 0.4995 24 1.5 24H7.824C7.60163 23.3756 7.49074 22.6911 7.5 22C7.5 19.98 8.0655 17.916 9.135 16.192C9.4995 15.604 9.924 15.054 10.404 14.56ZM7.38 16C4.878 16.04 3.4575 17.28 2.64 18.552C1.7445 19.94 1.5 21.478 1.5 22H6C6 19.91 6.4845 17.828 7.38 16ZM2.25 7C2.25 5.4087 2.72411 3.88258 3.56802 2.75736C4.41193 1.63214 5.55653 1 6.75 1C7.94347 1 9.08807 1.63214 9.93198 2.75736C10.7759 3.88258 11.25 5.4087 11.25 7C11.25 8.5913 10.7759 10.1174 9.93198 11.2426C9.08807 12.3679 7.94347 13 6.75 13C5.55653 13 4.41193 12.3679 3.56802 11.2426C2.72411 10.1174 2.25 8.5913 2.25 7ZM6.75 3C5.95435 3 5.19129 3.42143 4.62868 4.17157C4.06607 4.92172 3.75 5.93913 3.75 7C3.75 8.06087 4.06607 9.07828 4.62868 9.82843C5.19129 10.5786 5.95435 11 6.75 11C7.54565 11 8.30871 10.5786 8.87132 9.82843C9.43393 9.07828 9.75 8.06087 9.75 7C9.75 5.93913 9.43393 4.92172 8.87132 4.17157C8.30871 3.42143 7.54565 3 6.75 3Z" fill="#282B36"/>
</svg>
