<svg width="16" height="16" viewBox="0 0 16 16" fill="none" xmlns="http://www.w3.org/2000/svg">
<path d="M15.2889 6.04444H14.0978C13.9911 5.70667 13.8489 5.38667 13.6889 5.06667L14.5422 4.21333C14.8267 3.92889 14.8267 3.48444 14.5422 3.2L12.7822 1.44C12.4978 1.15556 12.0533 1.15556 11.7689 1.44L10.9333 2.31111C10.6133 2.15111 10.2933 2.00889 9.95556 1.90222V0.711111C9.95556 0.32 9.63556 0 9.24444 0H6.75556C6.36444 0 6.04444 0.32 6.04444 0.711111V1.90222C5.70667 2.00889 5.38667 2.15111 5.06667 2.31111L4.21333 1.45778C3.92889 1.17333 3.48444 1.17333 3.2 1.45778L1.44 3.21778C1.15556 3.50222 1.15556 3.94667 1.44 4.23111L2.29333 5.08444C2.13333 5.40444 1.99111 5.72444 1.88444 6.06222H0.711111C0.32 6.06222 0 6.38222 0 6.77333V9.26222C0 9.65333 0.32 9.97333 0.711111 9.97333H1.90222C2.00889 10.3111 2.15111 10.6311 2.31111 10.9511L1.45778 11.8044C1.17333 12.0889 1.17333 12.5333 1.45778 12.8178L3.21778 14.5778C3.48444 14.8444 3.94667 14.8444 4.23111 14.5778L5.08444 13.7244C5.40444 13.8844 5.72444 14.0267 6.06222 14.1333V15.2889C6.06222 15.68 6.38222 16 6.77333 16H9.26222C9.65333 16 9.97333 15.68 9.97333 15.2889V14.0978C10.3111 13.9911 10.6311 13.8489 10.9511 13.6889L11.8044 14.5422C12.0889 14.8267 12.5333 14.8267 12.8178 14.5422L14.5778 12.7822C14.8622 12.4978 14.8622 12.0533 14.5778 11.7689L13.6889 10.9333C13.8489 10.6133 13.9911 10.2933 14.0978 9.95556H15.2889C15.68 9.95556 16 9.63556 16 9.24444V6.75556C16 6.36444 15.68 6.04444 15.2889 6.04444ZM15.2889 9.24444H13.8311C13.6711 9.24444 13.5289 9.35111 13.4933 9.51111C13.3689 9.97333 13.1911 10.4 12.9422 10.8267C12.8711 10.9689 12.8889 11.1467 12.9956 11.2533L14.0267 12.2844L12.2667 14.0267L11.2356 12.9956C11.1289 12.8889 10.9511 12.8533 10.8089 12.9422C10.4 13.1733 9.95556 13.3511 9.49333 13.4933C9.33333 13.5289 9.22667 13.6711 9.22667 13.8311V15.2889H6.75556V13.8311C6.75556 13.6711 6.64889 13.5289 6.48889 13.4933C6.02667 13.3689 5.6 13.1911 5.17333 12.9422C5.12 12.9067 5.04889 12.8889 4.99556 12.8889C4.90667 12.8889 4.81778 12.9244 4.74667 12.9956L3.73333 14.0267L1.97333 12.2667L3.00444 11.2356C3.11111 11.1289 3.14667 10.9511 3.05778 10.8089C2.82667 10.4 2.64889 9.95556 2.52444 9.49333C2.48889 9.33333 2.34667 9.22667 2.18667 9.22667H0.711111V6.75556H2.16889C2.32889 6.75556 2.47111 6.64889 2.50667 6.48889C2.63111 6.02667 2.80889 5.6 3.04 5.17333C3.11111 5.03111 3.09333 4.85333 2.98667 4.74667L1.97333 3.73333L3.73333 1.97333L4.76444 3.00444C4.87111 3.11111 5.04889 3.14667 5.19111 3.05778C5.6 2.82667 6.04444 2.64889 6.50667 2.52444C6.66667 2.48889 6.77333 2.34667 6.77333 2.18667V0.711111H9.26222V2.16889C9.26222 2.32889 9.36889 2.47111 9.52889 2.50667C9.99111 2.63111 10.4178 2.80889 10.8444 3.04C10.9867 3.11111 11.1644 3.09333 11.2711 2.98667L12.3022 1.95556L14.0622 3.71556L13.0311 4.74667C12.9244 4.85333 12.8889 5.03111 12.9778 5.17333C13.2089 5.58222 13.3867 6.02667 13.5289 6.48889C13.5644 6.64889 13.7067 6.75556 13.8667 6.75556H15.2889V9.24444ZM8 4.8C6.24 4.8 4.8 6.24 4.8 8C4.8 9.76 6.24 11.2 8 11.2C9.76 11.2 11.2 9.76 11.2 8C11.2 6.24 9.76 4.8 8 4.8ZM8 10.4889C6.63111 10.4889 5.51111 9.36889 5.51111 8C5.51111 6.63111 6.63111 5.51111 8 5.51111C9.36889 5.51111 10.4889 6.63111 10.4889 8C10.4889 9.36889 9.36889 10.4889 8 10.4889Z" fill="#282B36"/>
</svg>
