<svg width="24" height="25" viewBox="0 0 24 25" fill="none" xmlns="http://www.w3.org/2000/svg">
<path d="M12.6984 18.6253C13.5124 18.7132 14.2927 18.673 15.0477 18.3791C15.9424 18.0309 16.6813 17.4587 17.2712 16.685L17.2712 16.685C17.9077 15.8498 18.2332 14.8985 18.2438 13.8456L18.2438 13.8455C18.2474 13.45 18.195 13.0534 18.1342 12.671L18.1342 12.6708C18.0943 12.4216 18.0592 12.2123 17.9499 12.0582C17.8328 11.8932 17.6478 11.81 17.3705 11.7544M12.6984 18.6253L18.0837 9.01401L18.208 9.02757C18.115 9.88009 17.8381 10.6403 17.3479 11.3278L17.3479 11.3279C17.2649 11.4441 17.1762 11.5577 17.0854 11.674C17.0843 11.6754 17.0832 11.6768 17.082 11.6783M12.6984 18.6253V18.7411C12.6984 18.9857 12.6985 19.2304 12.6986 19.4752C12.6989 20.0407 12.6991 20.6065 12.698 21.1721L12.6978 21.2968H12.573H11.473H11.3484L11.348 21.1722V21.1721L11.348 21.1719L11.348 21.1709L11.348 21.1671L11.3479 21.1522L11.3478 21.0949L11.3472 20.8834L11.3451 20.1821L11.3405 18.6136C11.2744 18.6173 11.2078 18.6212 11.141 18.6252C10.9214 18.6381 10.699 18.6513 10.4781 18.6557M12.6984 18.6253L5.78597 8.95098C5.88733 9.85887 6.18846 10.6658 6.70616 11.3977C6.76798 11.4859 6.83871 11.5714 6.91196 11.6584C6.90593 11.6592 6.89988 11.6601 6.89379 11.6609C6.81829 11.6718 6.74202 11.6851 6.6665 11.7089C6.52294 11.7538 6.36502 11.8065 6.23201 11.9018C6.09349 12.0011 5.98628 12.1431 5.93468 12.3554C5.71327 13.2612 5.67667 14.167 5.94443 15.0792C6.28806 16.2519 6.97432 17.1635 7.95373 17.8465C8.7109 18.3748 9.54577 18.6754 10.4781 18.6557M17.3705 11.7544C17.3705 11.7544 17.3706 11.7544 17.3706 11.7544L17.3459 11.8769L17.3705 11.7544ZM17.3705 11.7544C17.2733 11.7348 17.1814 11.7078 17.082 11.6783M17.082 11.6783C17.079 11.6774 17.0759 11.6764 17.0728 11.6755C17.0342 11.6641 16.9946 11.6523 16.953 11.6404L16.9995 11.7842C17.0272 11.7486 17.0547 11.7133 17.082 11.6783ZM10.4781 18.6557L10.4755 18.5308M10.4781 18.6557C10.4781 18.6557 10.4781 18.6557 10.4782 18.6557L10.4755 18.5308M10.4755 18.5308C10.694 18.5264 10.9124 18.5134 11.1308 18.5005C11.2269 18.4948 11.323 18.4892 11.4192 18.4842L10.4755 18.5308ZM7.39169 12.977L7.39163 12.977C7.35601 12.979 7.30023 12.9969 7.24632 13.0292C7.19 13.0629 7.16121 13.0971 7.15427 13.1136C7.0935 13.2588 7.07521 13.4499 7.09936 13.6169L7.09938 13.617C7.11261 13.7092 7.12476 13.8009 7.13682 13.892C7.1896 14.2905 7.24074 14.6766 7.37342 15.0288C7.72132 15.9512 8.37478 16.6019 9.26566 17.0144L7.39169 12.977ZM7.39169 12.977C8.4186 12.9176 9.34267 13.13 10.1294 13.8531C10.7615 14.4347 11.1638 15.1272 11.2851 15.968C11.3156 16.1796 11.3186 16.3979 11.3134 16.6246M7.39169 12.977L11.3134 16.6246M5.9381 7.11795C5.82634 7.70986 5.71406 8.30785 5.78597 8.95096L5.9381 7.11795ZM5.9381 7.11795L6.06093 7.14115L6.70447 6.58931L6.67803 6.46713C6.67802 6.46714 6.678 6.46714 6.67798 6.46714C6.52316 6.50064 6.35905 6.55004 6.22296 6.64903C6.08198 6.75157 5.97896 6.90148 5.9381 7.11795ZM11.617 1.1635C11.0859 1.48286 10.6105 1.86826 10.2126 2.3669C9.53387 3.21678 9.1599 4.18151 9.15706 5.28485L11.617 1.1635ZM11.617 1.1635C11.7455 1.08614 11.8772 1.04871 12.0121 1.05279C12.146 1.05684 12.2738 1.10145 12.3963 1.1733L11.617 1.1635ZM11.3134 16.6246C11.3115 16.7067 11.3085 16.7911 11.3054 16.8767M11.3134 16.6246L11.3054 16.8767M11.3054 16.8767C11.3014 16.9881 11.2974 17.1014 11.2957 17.2139M11.3054 16.8767L11.2957 17.2139M11.2957 17.2139C10.5462 17.3384 9.8965 17.3059 9.26575 17.0145L11.2957 17.2139ZM14.7834 6.48059C14.7841 6.47118 14.7854 6.46273 14.7872 6.4552L14.7872 6.45508C14.9572 5.75492 14.9244 5.04913 14.774 4.37111L14.774 4.3711C14.4575 2.94478 13.6268 1.89291 12.3964 1.17335L14.7834 6.48059ZM12.952 12.0328L12.9519 12.0328C12.8548 12.0339 12.8017 12.0039 12.7684 11.9645C12.731 11.9201 12.7035 11.8457 12.6968 11.7333C12.6393 10.7697 12.7931 9.8785 13.3915 9.1332L13.294 9.05494L13.3915 9.1332C13.9686 8.41438 14.6436 7.86939 15.5569 7.78499C15.8666 7.7566 16.1749 7.76387 16.4936 7.77139C16.6086 7.7741 16.7249 7.77684 16.8431 7.77795C16.9424 8.39578 16.9309 8.97073 16.7416 9.53001L16.7416 9.53005C16.3029 10.8272 15.4176 11.6326 14.1384 11.9699C13.9594 12.017 13.7683 12.0324 13.5674 12.0358C13.467 12.0375 13.3656 12.0363 13.2625 12.0348L13.2428 12.0346C13.1466 12.0332 13.0489 12.0318 12.952 12.0328ZM13.0732 7.30413L13.0731 7.30425C12.8212 7.77278 12.4474 8.13066 12.0092 8.47229C11.4193 8.06219 10.9733 7.52718 10.7268 6.83728L10.7268 6.83726C10.2887 5.61178 10.4127 4.44473 11.1496 3.379L11.1496 3.37899C11.3158 3.1386 11.5441 2.94349 11.784 2.73845C11.8389 2.69149 11.8945 2.64402 11.95 2.59535C11.9511 2.5948 11.9557 2.59251 11.9651 2.58989C11.9793 2.58596 11.9982 2.58315 12.0188 2.58261C12.0395 2.58208 12.0586 2.58392 12.0732 2.58715C12.0836 2.58943 12.0884 2.59166 12.0895 2.5921C12.9112 3.23686 13.4065 4.04949 13.5075 5.13729L13.5075 5.13732C13.581 5.92606 13.4371 6.62891 13.0732 7.30413ZM10.105 8.58837L10.105 8.58839C10.7175 9.13779 11.1397 9.78061 11.2443 10.5881C11.2871 10.92 11.2764 11.2527 11.2653 11.5979C11.2613 11.724 11.2572 11.8518 11.2556 11.9818C10.5592 12.0906 9.91921 12.0674 9.29958 11.7844L9.29956 11.7844C8.20787 11.286 7.5146 10.4535 7.20042 9.26855C7.07858 8.80803 7.07957 8.34778 7.14293 7.86959L7.14295 7.86941C7.14992 7.81618 7.16472 7.7904 7.17553 7.77759C7.18602 7.76516 7.20037 7.75586 7.22327 7.74912C7.24795 7.74186 7.27849 7.73877 7.31689 7.73789C7.32682 7.73766 7.33973 7.73763 7.35384 7.7376C7.38163 7.73753 7.41409 7.73746 7.43772 7.73584C8.43658 7.66779 9.33448 7.89684 10.105 8.58837ZM9.19476 6.26365C9.20021 6.35586 9.20566 6.44783 9.21061 6.53941L9.19476 6.26365ZM16.8407 13.0265C17.3182 15.5949 15.0415 17.6935 12.7575 17.2267C12.2749 14.8978 14.2763 12.5117 16.8407 13.0265Z" fill="#266F68" stroke="#266F68" stroke-width="0.25" stroke-linecap="round"/>
<path fill-rule="evenodd" clip-rule="evenodd" d="M18.1191 22.1971C18.1191 22.7634 17.8452 23.2224 17.5072 23.2224L6.49277 23.2224C6.15482 23.2224 5.88086 22.7634 5.88086 22.1971C5.88086 21.6309 6.15482 21.1719 6.49277 21.1719L17.5072 21.1718C17.8452 21.1718 18.1191 21.6309 18.1191 22.1971Z" fill="#266F68"/>
</svg>
