<svg width="32" height="33" viewBox="0 0 32 33" fill="none" xmlns="http://www.w3.org/2000/svg">
<g clip-path="url(#clip0_52_1026)">
<path d="M18.8946 29.2392H2.54871C2.2204 29.2392 1.94296 28.9552 1.94296 28.6239V17.974C1.94296 17.6426 2.22503 17.3586 2.54871 17.3586C2.87239 17.3586 3.15446 17.6426 3.15446 17.974V28.0559H18.9409C19.2692 28.0559 19.5466 28.3399 19.5466 28.6712C19.4541 28.9552 19.1721 29.2392 18.8946 29.2392Z" fill="#266F68"/>
<path d="M26.4598 29.2396C26.1315 29.2396 25.8541 28.9556 25.8541 28.6242V23.3229H22.3537V28.6716C22.3537 29.0029 22.0716 29.2869 21.7479 29.2869C21.4242 29.2869 21.1422 29.0029 21.1422 28.6716V22.7076C21.1422 22.3763 21.4242 22.0923 21.7479 22.0923H26.4182C26.7465 22.0923 27.0239 22.3763 27.0239 22.7076V28.6242C27.0702 28.9556 26.7927 29.2396 26.4644 29.2396H26.4598Z" fill="#266F68"/>
<path d="M26.462 29.2408C26.277 29.2408 26.1337 29.1461 25.9949 29.0041L21.3247 23.0875C21.1397 22.8508 21.1859 22.4721 21.4172 22.2355C21.6484 22.0461 22.0229 22.0935 22.2587 22.3301L26.929 28.2468C27.1139 28.4834 27.0677 28.8621 26.8365 29.0988C26.744 29.1934 26.6053 29.2408 26.462 29.2408Z" fill="#266F68"/>
<path d="M21.7898 29.2408C21.651 29.2408 21.5586 29.1934 21.4152 29.0988C21.184 28.9094 21.1331 28.5308 21.3227 28.2468L25.993 22.3301C26.178 22.0935 26.5525 22.0461 26.8346 22.2355C27.0658 22.4248 27.1166 22.8035 26.927 23.0875L22.2568 29.0041C22.1181 29.1461 21.9747 29.2408 21.7898 29.2408Z" fill="#266F68"/>
<path d="M14.7839 26.2578H2.54871C2.2204 26.2578 1.94296 25.9738 1.94296 25.6424C1.94296 25.3111 2.22503 25.0271 2.54871 25.0271H14.8301C15.1584 25.0271 15.4359 25.3111 15.4359 25.6424C15.3896 25.9738 15.1076 26.2578 14.7839 26.2578Z" fill="#266F68"/>
<path d="M18.8946 21.5241H7.77845C7.45014 21.5241 7.1727 21.2401 7.1727 20.9088C7.1727 20.5775 7.45476 20.2935 7.77845 20.2935H18.8946C19.2229 20.2935 19.5003 20.5775 19.5003 20.9088C19.5003 21.2401 19.172 21.5241 18.8946 21.5241Z" fill="#266F68"/>
<path d="M28.233 16.9809C27.9047 16.9809 27.6272 16.6969 27.6272 16.3656V6.89895L25.8979 4.72163L24.1222 6.94628V10.8749C24.1222 11.2063 23.8402 11.4903 23.5165 11.4903C23.1928 11.4903 22.9107 11.2063 22.9107 10.8749V6.70961C22.9107 6.56762 22.957 6.42562 23.0495 6.33095L25.3846 3.34897C25.4771 3.20697 25.6667 3.1123 25.8516 3.1123C26.0366 3.1123 26.1799 3.20697 26.3186 3.34897L28.6538 6.33095C28.7463 6.42562 28.7925 6.56762 28.7925 6.70961V16.3656C28.7925 16.7442 28.5104 16.9809 28.233 16.9809Z" fill="#266F68"/>
<path d="M21.7918 11.4903C21.4635 11.4903 21.1861 11.2063 21.1861 10.8749V6.94628L19.4567 4.72163L17.6811 6.94628V10.8749C17.6811 11.2063 17.399 11.4903 17.0753 11.4903C16.7516 11.4903 16.4696 11.2063 16.4696 10.8749V6.70962C16.4696 6.56762 16.5158 6.42562 16.6083 6.33095L18.9434 3.34897C19.0359 3.20697 19.2255 3.1123 19.4105 3.1123C19.5954 3.1123 19.7388 3.20697 19.8775 3.34897L22.2126 6.33095C22.3051 6.42562 22.3513 6.56762 22.3513 6.70962V10.8749C22.3976 11.2063 22.1201 11.4903 21.7918 11.4903Z" fill="#266F68"/>
<path d="M10.7247 11.4904C10.3964 11.4904 10.1189 11.2064 10.1189 10.8751V6.70981C10.1189 6.37848 10.401 6.09448 10.7247 6.09448C11.0484 6.09448 11.3304 6.37848 11.3304 6.70981V10.8751C11.2842 11.2064 11.0021 11.4904 10.7247 11.4904Z" fill="#266F68"/>
<path d="M15.3956 11.4903C15.0673 11.4903 14.7899 11.2063 14.7899 10.875V6.94631L13.0605 4.72166L12.3623 5.62099C12.1773 5.85765 11.8027 5.90498 11.5207 5.71565C11.2895 5.52632 11.2386 5.14766 11.4282 4.86366L12.5981 3.39633C12.6906 3.25433 12.8801 3.15967 13.0651 3.15967C13.2501 3.15967 13.3934 3.25433 13.5321 3.39633L15.8673 6.37831C15.9597 6.47298 16.006 6.61498 16.006 6.75698V10.875C15.9597 11.2063 15.6777 11.4903 15.4002 11.4903H15.3956Z" fill="#266F68"/>
<path d="M18.894 18.5909H2.54805C2.36309 18.5909 2.12726 18.4962 2.03478 18.3069C1.9423 18.1176 1.9423 17.8809 2.03478 17.6916L6.14554 10.5916C6.23802 10.4023 6.42761 10.3076 6.65881 10.3076H24.17C24.4983 10.3076 24.7757 10.5916 24.7757 10.9229C24.7757 11.2543 24.4937 11.5383 24.17 11.5383H6.94087L3.53297 17.4549H18.8524C19.1807 17.4549 19.4581 17.7389 19.4581 18.0702C19.4581 18.4016 19.176 18.5909 18.8986 18.5909H18.894Z" fill="#266F68"/>
<path d="M29.3992 29.2408H18.8934C18.5651 29.2408 18.2877 28.9568 18.2877 28.6255V17.9755C18.2877 17.8335 18.3339 17.7389 18.4264 17.5969L23.7024 10.4969C23.7949 10.3549 23.9845 10.2603 24.1694 10.2603C24.3544 10.2603 24.544 10.3549 24.6365 10.4969L29.9125 17.5969C30.005 17.6915 30.0512 17.8335 30.0512 17.9282V28.5781C29.9587 28.9568 29.6767 29.2408 29.3992 29.2408ZM19.4529 28.0575H28.7935V18.1649L24.1232 11.8696L19.4529 18.1649V28.0575Z" fill="#266F68"/>
<path d="M28.2344 9.12372H25.8993C25.571 9.12372 25.2935 8.83973 25.2935 8.5084C25.2935 8.17706 25.5756 7.89307 25.8993 7.89307H28.2344C28.5627 7.89307 28.8402 8.17706 28.8402 8.5084C28.7939 8.83973 28.5119 9.12372 28.2344 9.12372Z" fill="#266F68"/>
<path d="M18.8964 8.50849H17.1208C16.7925 8.50849 16.515 8.22449 16.515 7.89316C16.515 7.56183 16.7971 7.27783 17.1208 7.27783H18.8964C19.2247 7.27783 19.5021 7.56183 19.5021 7.89316C19.5021 8.22449 19.1738 8.50849 18.8964 8.50849Z" fill="#266F68"/>
<path d="M21.7892 9.69208H20.0136C19.6852 9.69208 19.4078 9.40809 19.4078 9.07676C19.4078 8.74542 19.6899 8.46143 20.0136 8.46143H21.7892C22.1175 8.46143 22.3949 8.74542 22.3949 9.07676C22.3949 9.40809 22.1129 9.69208 21.7892 9.69208Z" fill="#266F68"/>
<path d="M13.6163 8.50849H10.6754C10.3471 8.50849 10.0697 8.22449 10.0697 7.89316C10.0697 7.56183 10.3517 7.27783 10.6754 7.27783H13.6163C13.9446 7.27783 14.222 7.56183 14.222 7.89316C14.222 8.22449 13.94 8.50849 13.6163 8.50849Z" fill="#266F68"/>
<path d="M28.2351 11.4907H27.0652C26.7369 11.4907 26.4595 11.2067 26.4595 10.8753C26.4595 10.544 26.7415 10.26 27.0652 10.26H28.2351C28.5634 10.26 28.8408 10.544 28.8408 10.8753C28.7946 11.2067 28.5125 11.4907 28.2351 11.4907Z" fill="#266F68"/>
<path d="M29.3997 21.5241H26.4589C26.1306 21.5241 25.8531 21.2401 25.8531 20.9088C25.8531 20.5775 26.1352 20.2935 26.4589 20.2935H29.3997C29.7281 20.2935 30.0055 20.5775 30.0055 20.9088C30.0055 21.2401 29.6772 21.5241 29.3997 21.5241Z" fill="#266F68"/>
<path d="M21.7885 20.3408H18.8476C18.5193 20.3408 18.2419 20.0568 18.2419 19.7254C18.2419 19.3941 18.5239 19.1101 18.8476 19.1101H21.7885C22.1168 19.1101 22.3942 19.3941 22.3942 19.7254C22.3942 20.0568 22.1122 20.3408 21.7885 20.3408Z" fill="#266F68"/>
<path d="M24.1229 17.9757C23.1426 17.9757 22.3473 17.1711 22.3473 16.1771C22.3473 15.1831 23.1426 14.3784 24.1229 14.3784C25.1032 14.3784 25.8985 15.1831 25.8985 16.1771C25.8985 17.1711 25.1032 17.9757 24.1229 17.9757ZM24.1229 15.6091C23.7946 15.6091 23.5171 15.8931 23.5171 16.2244C23.5171 16.5557 23.7992 16.8397 24.1229 16.8397C24.4466 16.8397 24.7286 16.5557 24.7286 16.2244C24.7286 15.8931 24.4466 15.6091 24.1229 15.6091Z" fill="#266F68"/>
</g>
<defs>
<clipPath id="clip0_52_1026">
<rect width="28.1141" height="26.1752" fill="white" transform="translate(1.94296 3.1123)"/>
</clipPath>
</defs>
</svg>
