<svg width="32" height="33" viewBox="0 0 32 33" fill="none" xmlns="http://www.w3.org/2000/svg">
<path d="M23.4624 24.3059C22.9915 24.8041 21.9456 25.8006 21.5292 25.8006C21.0087 25.8006 20.4138 25.4269 19.9677 25.6511C19.7298 25.7707 19.125 26.3985 18.7037 26.7722" stroke="#266F68"/>
<rect x="12.9575" y="20.3005" width="10.2708" height="3.63097" rx="1" transform="rotate(45.8598 12.9575 20.3005)"/>
<rect x="12.9575" y="20.3005" width="10.2708" height="3.63097" rx="1" transform="rotate(45.8598 12.9575 20.3005)" stroke="#266F68" stroke-width="1" />
<path d="M12.0845 10.937L15.7551 14.9726" stroke="#266F68" stroke-width="1.25" stroke-linecap="round" stroke-linejoin="round"/>
<path d="M19.687 18.9026L26.0731 25.2887" stroke="#266F68" stroke-width="4" stroke-linecap="round" stroke-linejoin="round"/>
<path d="M7.14854 11.2922C7.0748 11.2184 7.0351 11.1173 7.03897 11.0131L7.21378 6.30129C7.22106 6.1051 7.37843 5.94773 7.57462 5.94045L7.55145 5.31588L7.57462 5.94045L12.2864 5.76564C12.3907 5.76177 12.4918 5.80147 12.5655 5.87521L17.0938 10.4035C17.2193 10.529 17.2396 10.7254 17.1424 10.874L15.2095 13.8277C15.1812 13.8709 15.1443 13.9079 15.101 13.9362L12.1473 15.8691C11.9987 15.9663 11.8023 15.946 11.6768 15.8204L7.14854 11.2922Z" stroke="#266F68" stroke-width="1.25"/>
<path d="M28.3019 17.8189C27.8772 17.2877 26.975 17.393 26.7247 17.5934L23.7203 20.5996C23.6202 20.9253 23.465 21.5466 23.9457 22.0276C24.5465 22.6288 25.2976 22.4033 26.7997 21.0506C28.2651 19.7309 28.9028 18.5704 28.3019 17.8189Z" stroke="#266F68" stroke-width="1.25" stroke-linecap="round"/>
<path d="M19.2698 13.833C19.7655 13.0109 20.9799 11.5311 21.8722 12.1888C22.7645 12.8465 22.0457 14.3063 21.5748 14.954C22.0953 14.1568 23.3593 12.7418 24.2516 13.4593C25.1329 14.1568 23.8615 16.2004 23.3703 16.9373C23.8615 16.4461 25.7054 15.112 26.3335 15.7013C27.0935 16.4143 26.3335 17.7807 25.1438 19.0644C24.1301 20.1583 22.9744 20.9196 22.3927 20.3349C21.5748 19.5128 21.7731 18.8651 21.8722 18.616" stroke="#266F68" stroke-width="1.25"/>
<path d="M18.4 19.6782C18.2453 19.067 18.5715 17.3525 19.1905 17.4289C19.8095 17.5053 22.3461 19.7546 23.5068 18.5323C24.6674 17.31 19.9475 12.5736 16.9299 14.407C14.5158 15.8738 14.7892 18.3286 15.2276 19.3726L13.3706 21.3588" stroke="#266F68" stroke-width="1.25"/>
</svg>
