<svg width="32" height="33" viewBox="0 0 32 33" fill="none" xmlns="http://www.w3.org/2000/svg">
<path d="M16 2.92627C13.3747 2.92627 10.8084 3.70476 8.6255 5.16331C6.44263 6.62185 4.7413 8.69493 3.73664 11.1204C2.73198 13.5459 2.46911 16.2148 2.98128 18.7896C3.49346 21.3645 4.75766 23.7297 6.61403 25.586C8.47041 27.4424 10.8356 28.7066 13.4104 29.2188C15.9853 29.731 18.6542 29.4681 21.0797 28.4634C23.5051 27.4588 25.5782 25.7574 27.0368 23.5746C28.4953 21.3917 29.2738 18.8254 29.2738 16.2001C29.2705 12.6806 27.8709 9.30633 25.3823 6.81773C22.8937 4.32913 19.5194 2.92958 16 2.92627ZM16 28.6401C13.5396 28.6401 11.1345 27.9105 9.08872 26.5435C7.04297 25.1766 5.44851 23.2337 4.50695 20.9606C3.5654 18.6875 3.31904 16.1863 3.79904 13.7731C4.27904 11.36 5.46384 9.14341 7.20361 7.40364C8.94337 5.66388 11.16 4.47908 13.5731 3.99908C15.9862 3.51908 18.4875 3.76543 20.7606 4.70699C23.0337 5.64854 24.9766 7.24301 26.3435 9.28876C27.7104 11.3345 28.44 13.7397 28.44 16.2001C28.4367 19.4983 27.125 22.6606 24.7928 24.9928C22.4605 27.325 19.2983 28.6367 16 28.6401Z" fill="#266F68" stroke="#266F68" stroke-width="0.25"/>
<path d="M15.1565 8.86816C15.065 8.86816 14.9756 8.89528 14.8996 8.94608C14.8236 8.99688 14.7643 9.06908 14.7293 9.15356C14.6944 9.23803 14.6852 9.33099 14.703 9.42067C14.7209 9.51035 14.7649 9.59272 14.8296 9.65738C14.8942 9.72203 14.9766 9.76607 15.0663 9.7839C15.156 9.80174 15.2489 9.79259 15.3334 9.7576C15.4179 9.72261 15.4901 9.66335 15.5409 9.58732C15.5917 9.5113 15.6188 9.42191 15.6188 9.33048C15.6188 9.26976 15.6068 9.20965 15.5836 9.15356C15.5604 9.09747 15.5263 9.0465 15.4834 9.00357C15.4404 8.96064 15.3895 8.92659 15.3334 8.90336C15.2773 8.88012 15.2172 8.86816 15.1565 8.86816Z" fill="#266F68"/>
<path d="M16.8421 9.79279C16.9335 9.79279 17.0229 9.76567 17.0989 9.71487C17.175 9.66407 17.2342 9.59187 17.2692 9.50739C17.3042 9.42292 17.3134 9.32996 17.2955 9.24028C17.2777 9.1506 17.2337 9.06823 17.169 9.00357C17.1044 8.93892 17.022 8.89489 16.9323 8.87705C16.8426 8.85921 16.7497 8.86836 16.6652 8.90336C16.5807 8.93835 16.5085 8.9976 16.4577 9.07363C16.4069 9.14966 16.3798 9.23904 16.3798 9.33048C16.3798 9.39119 16.3918 9.4513 16.415 9.50739C16.4382 9.56348 16.4723 9.61445 16.5152 9.65738C16.5581 9.70031 16.6091 9.73436 16.6652 9.7576C16.7213 9.78083 16.7814 9.79279 16.8421 9.79279Z" fill="#266F68"/>
<path d="M15.9971 2.97399C12.9831 2.96122 10.0574 3.99091 7.71572 5.88857C7.66123 5.93258 7.61653 5.98751 7.58451 6.04982C7.55249 6.11212 7.53385 6.18044 7.52979 6.25038C7.52597 6.32069 7.53697 6.39103 7.56207 6.45682C7.58718 6.52261 7.62583 6.58239 7.67552 6.63228L25.5449 24.5217C25.5918 24.5683 25.6475 24.6051 25.7087 24.6302C25.77 24.6552 25.8355 24.6678 25.9016 24.6675C25.9724 24.6641 26.0417 24.6458 26.105 24.6137C26.1682 24.5817 26.2239 24.5366 26.2685 24.4815C27.8276 22.5401 28.8069 20.198 29.0939 17.7246C29.381 15.2513 28.964 12.7472 27.8909 10.5003C26.8179 8.25341 25.1324 6.35507 23.0283 5.02363C20.9242 3.69219 18.4871 2.98174 15.9971 2.97399ZM13.9268 10.0092C13.9129 9.72837 13.9563 9.44769 14.0542 9.18416C14.1522 8.92063 14.3026 8.67974 14.4965 8.47611C14.6903 8.27249 14.9235 8.11037 15.1819 7.9996C15.4403 7.88882 15.7185 7.8317 15.9996 7.8317C16.2808 7.8317 16.559 7.88882 16.8174 7.9996C17.0758 8.11037 17.309 8.27249 17.5028 8.47611C17.6967 8.67974 17.8471 8.92063 17.945 9.18416C18.043 9.44769 18.0863 9.72837 18.0725 10.0092C18.0685 10.1137 18.0568 10.2179 18.0373 10.3207C17.3975 10.0262 16.7015 9.87372 15.9971 9.87372C15.2928 9.87372 14.5968 10.0262 13.9569 10.3207C13.9381 10.2128 13.9281 10.1036 13.9268 9.99409V10.0092ZM21.2082 18.7428L13.9167 11.4514C14.544 11.0697 15.2629 10.8648 15.9971 10.8584C18.8866 10.8584 21.2383 14.0544 21.2383 17.984C21.2383 18.2353 21.2283 18.4916 21.2082 18.7428ZM25.8715 23.4061L22.1077 19.6423C22.1957 19.0973 22.241 18.5462 22.2434 17.9941L23.8514 18.5569L24.1429 20.9539C24.1577 21.0765 24.2171 21.1893 24.3098 21.2708C24.4024 21.3524 24.5219 21.397 24.6454 21.3961H24.7057C24.7719 21.3886 24.8359 21.3681 24.8941 21.3357C24.9522 21.3032 25.0034 21.2596 25.0445 21.2072C25.0857 21.1548 25.116 21.0948 25.1337 21.0306C25.1515 20.9664 25.1563 20.8994 25.1479 20.8333L24.8162 18.1247C24.8047 18.032 24.7676 17.9443 24.709 17.8715C24.6504 17.7988 24.5727 17.7437 24.4846 17.7127L22.4192 16.9891C22.3468 16.9694 22.2705 16.9694 22.1981 16.9891C22.1981 16.7931 22.1579 16.5971 22.1278 16.4062L24.7609 14.9288C24.8386 14.8851 24.9032 14.8217 24.9482 14.7448C24.9933 14.668 25.0171 14.5806 25.0172 14.4916V12.8835C25.0172 12.7503 24.9643 12.6224 24.87 12.5282C24.7758 12.434 24.648 12.381 24.5147 12.381C24.3814 12.381 24.2536 12.434 24.1594 12.5282C24.0651 12.6224 24.0122 12.7503 24.0122 12.8835V14.1901L21.9067 15.371C21.4809 13.5669 20.4396 11.9676 18.962 10.8484C19.0396 10.577 19.0801 10.2964 19.0826 10.0142C19.0814 9.49258 18.9481 8.97977 18.695 8.52368C18.4419 8.06758 18.0773 7.6831 17.6353 7.40615L17.9821 6.57701C18.0101 6.51597 18.0258 6.45 18.0284 6.38287C18.031 6.31574 18.0203 6.24877 17.9969 6.18578C17.9736 6.12278 17.9381 6.065 17.8924 6.01573C17.8468 5.96646 17.7918 5.92666 17.7308 5.89862C17.6698 5.87057 17.6038 5.85482 17.5367 5.85227C17.4695 5.84972 17.4026 5.86041 17.3396 5.88374C17.2766 5.90708 17.2188 5.94259 17.1695 5.98825C17.1202 6.03391 17.0805 6.08883 17.0524 6.14987L16.7006 6.98404C16.2386 6.87015 15.7557 6.87015 15.2936 6.98404L14.9419 6.14987C14.9179 6.08663 14.8814 6.02888 14.8346 5.98007C14.7878 5.93127 14.7316 5.89241 14.6694 5.86584C14.6072 5.83927 14.5403 5.82552 14.4727 5.82542C14.405 5.82532 14.3381 5.83888 14.2758 5.86528C14.2136 5.89167 14.1573 5.93036 14.1103 5.97903C14.0633 6.0277 14.0267 6.08535 14.0026 6.14853C13.9784 6.2117 13.9673 6.27909 13.9698 6.34668C13.9723 6.41426 13.9884 6.48064 14.0172 6.54183L14.364 7.37098C13.9226 7.64817 13.5587 8.03284 13.3065 8.48898C13.0542 8.94511 12.9219 9.45779 12.9218 9.97902C12.9224 10.1473 12.9359 10.3153 12.962 10.4815L8.7911 6.31068C10.8816 4.78207 13.4074 3.96477 15.9971 3.97902C19.2376 3.98301 22.3443 5.2717 24.6361 7.5626C26.928 9.85349 28.2179 12.9596 28.2233 16.2001C28.2313 18.792 27.4069 21.318 25.8715 23.4061Z" fill="#266F68" stroke="#266F68" stroke-width="0.25"/>
<path d="M6.44998 7.87792C6.40009 7.82822 6.34031 7.78957 6.27452 7.76446C6.20872 7.73936 6.13839 7.72836 6.06807 7.73219C5.99727 7.73555 5.92799 7.75386 5.86477 7.78591C5.80154 7.81795 5.74581 7.86301 5.70124 7.91812C4.1414 9.86173 3.1622 12.2064 2.87638 14.6821C2.59055 17.1577 3.00973 19.6638 4.08565 21.9117C5.16156 24.1597 6.85046 26.058 8.95789 27.3882C11.0653 28.7185 13.5056 29.4264 15.9977 29.4307C19.0112 29.4402 21.9358 28.4108 24.2791 26.5161C24.3342 26.4715 24.3793 26.4158 24.4113 26.3526C24.4434 26.2894 24.4617 26.2201 24.4651 26.1493C24.4689 26.079 24.4579 26.0086 24.4328 25.9428C24.4077 25.877 24.369 25.8173 24.3193 25.7674L6.44998 7.87792ZM10.7766 17.9834C10.7566 16.7404 10.9944 15.5068 11.4751 14.3603L19.8771 22.7322C18.8721 24.2397 17.4852 25.094 15.9977 25.094C13.1083 25.1091 10.7565 21.9131 10.7565 17.9834H10.7766ZM15.9977 28.4257C12.7564 28.4217 9.64893 27.1323 7.35695 24.8403C5.06497 22.5483 3.77558 19.4409 3.77159 16.1995C3.76352 13.6076 4.5879 11.0816 6.12335 8.99349L10.7314 13.6066C10.4596 14.1655 10.2425 14.7495 10.0831 15.3503L7.98767 14.1895V12.8829C7.98767 12.7497 7.93473 12.6219 7.84049 12.5276C7.74625 12.4334 7.61843 12.3804 7.48516 12.3804C7.35188 12.3804 7.22407 12.4334 7.12983 12.5276C7.03559 12.6219 6.98265 12.7497 6.98265 12.8829V14.4709C6.9828 14.5599 7.00661 14.6473 7.05164 14.7241C7.09667 14.801 7.16131 14.8644 7.23893 14.9081L9.87209 16.3855C9.87209 16.5764 9.82184 16.7724 9.80174 16.9684C9.72895 16.952 9.65342 16.952 9.58064 16.9684L7.51531 17.7071C7.42718 17.7381 7.34946 17.7931 7.29088 17.8659C7.23229 17.9387 7.19516 18.0264 7.18365 18.1191L6.85199 20.8277C6.84358 20.8937 6.84839 20.9608 6.86613 21.025C6.88387 21.0892 6.9142 21.1492 6.95535 21.2016C6.99649 21.254 7.04764 21.2976 7.10581 21.3301C7.16399 21.3625 7.22802 21.383 7.2942 21.3905H7.35451C7.47796 21.3914 7.59743 21.3468 7.69011 21.2652C7.78279 21.1837 7.84221 21.0708 7.85702 20.9483L8.14848 18.5513L9.75652 17.9885C9.74478 19.6194 10.1403 21.2275 10.9073 22.6669L9.60576 24.2649C9.53194 24.3539 9.49112 24.4657 9.49018 24.5814V26.0337C9.49018 26.167 9.54313 26.2948 9.63737 26.389C9.73161 26.4833 9.85942 26.5362 9.9927 26.5362C10.126 26.5362 10.2538 26.4833 10.348 26.389C10.4423 26.2948 10.4952 26.167 10.4952 26.0337V24.7674L11.4751 23.5664C12.6108 25.1292 14.2188 26.1141 15.9977 26.1141C17.7766 26.1141 19.3545 25.1895 20.5203 23.5714L21.5254 24.7674V26.0387C21.5254 26.172 21.5783 26.2998 21.6725 26.394C21.7668 26.4883 21.8946 26.5412 22.0279 26.5412C22.1611 26.5412 22.289 26.4883 22.3832 26.394C22.4774 26.2998 22.5304 26.172 22.5304 26.0387V25.3804L23.2239 26.0739C21.1302 27.6134 18.5965 28.438 15.9977 28.4257Z" fill="#266F68" stroke="#266F68" stroke-width="0.25"/>
</svg>
