<svg width="32" height="33" viewBox="0 0 32 33" fill="none" xmlns="http://www.w3.org/2000/svg">
<path d="M21.6291 9.52665C20.6458 6.31101 18.7453 4.13208 16.562 4.13208C14.2926 4.13208 12.3287 6.48631 11.3829 9.91198" stroke="#266F68" stroke-width="1.5"/>
<path d="M15.1568 14.5896C12.3129 19.0865 11.9369 23.9521 14.317 25.4572C16.697 26.9623 20.9317 24.5371 23.7756 20.0402C26.6194 15.5434 25.6735 9.84178 24.6154 9.17266C23.494 8.46349 18.0006 10.0928 15.1568 14.5896Z" stroke="#266F68" stroke-width="1.5"/>
<path d="M17.8847 25.4496C15.4232 27.0063 11.1103 24.6036 8.2515 20.0831C5.39271 15.5625 6.4378 9.77142 7.53206 9.07941C8.55802 8.43058 13.0703 9.59181 16.0769 12.9979" stroke="#266F68" stroke-width="1.5"/>
</svg>
