<svg width="32" height="33" viewBox="0 0 32 33" fill="none" xmlns="http://www.w3.org/2000/svg">
<path d="M9.3554 24.3945C10.169 23.7948 10.9738 23.9409 11.8128 24.2309C14.1366 25.0328 16.4712 25.7937 18.8018 26.5706C19.1949 26.7016 19.5619 26.6501 19.9176 26.401C22.9797 24.2551 26.0444 22.1153 29.1091 19.974C29.7277 19.5417 29.9186 19.0503 29.6663 18.5346C29.3907 17.9728 28.6592 17.7676 28.1093 18.1333C27.554 18.5028 27.0181 18.9109 26.4742 19.3032C25.4143 20.0672 24.3545 20.8304 23.2967 21.5974C23.0911 21.7466 22.8622 21.8147 22.6827 21.6217C22.5639 21.4937 22.4811 21.2612 22.4811 21.075C22.4811 20.9364 22.6126 20.7517 22.7301 20.6653C24.3465 19.4856 25.9603 18.3006 27.5961 17.1573C28.5304 16.5046 29.7658 16.784 30.3925 17.7169C31.0839 18.7466 30.8229 20.1096 29.7858 20.8372C28.142 21.9912 26.4942 23.1375 24.8491 24.2877C23.4215 25.2864 21.9879 26.2746 20.5697 27.2899C19.8729 27.7889 19.1635 27.8889 18.3766 27.6208C15.9433 26.7932 13.5039 25.9883 11.0659 25.1766C10.6275 25.0305 10.2157 25.0661 9.83592 25.4273C9.94938 25.6764 10.0595 25.9073 10.1596 26.1428C10.3131 26.5055 10.2477 26.7932 9.93737 26.9727C8.62126 27.7329 7.30181 28.4855 5.97836 29.2298C5.64533 29.4169 5.4064 29.2874 5.20618 28.8444C4.33856 26.928 3.47361 25.0101 2.60733 23.0936C2.19688 22.1858 1.78643 21.2771 1.37398 20.3708C1.10902 19.7885 1.17643 19.5402 1.69099 19.2698C2.90966 18.6293 4.12966 17.991 5.35034 17.3542C5.84354 17.0967 6.03909 17.174 6.28736 17.7146C6.36412 17.8812 6.44153 18.047 6.5303 18.2393C7.31583 17.7312 8.086 17.2345 8.85418 16.7355C9.68242 16.1979 10.5053 15.6513 11.3376 15.1212C11.993 14.704 12.667 14.6624 13.3885 14.9418C15.9179 15.9208 18.4574 16.8688 20.9908 17.8327C22.084 18.2484 22.6526 19.2547 22.4531 20.3996C22.2642 21.4854 21.2278 22.3152 20.1586 22.1782C19.7114 22.1214 19.2716 21.9586 18.8358 21.8147C17.8554 21.4907 16.879 21.1492 15.9019 20.8122C15.5041 20.6752 15.35 20.4071 15.4527 20.0429C15.5442 19.7189 15.8151 19.6038 16.1962 19.7325C17.4089 20.1421 18.6156 20.576 19.8369 20.9493C20.1486 21.0447 20.5216 21.0212 20.8373 20.9258C21.2244 20.8092 21.4673 20.4624 21.4767 19.9718C21.4847 19.5341 21.2444 19.1464 20.828 18.9745C20.2861 18.7512 19.7354 18.5535 19.1888 18.3453C17.1386 17.5647 15.087 16.7893 13.0394 15.9996C12.5716 15.8194 12.1585 15.8928 11.7373 16.1699C10.171 17.1997 8.59656 18.2128 6.99414 19.2524C7.77366 20.9493 8.55185 22.6423 9.35673 24.3929L9.3554 24.3945ZM9.05573 26.2056C7.86977 23.6267 6.70115 21.0856 5.52052 18.5187C4.4687 19.0692 3.44692 19.6038 2.40244 20.1504C3.59241 22.7801 4.76503 25.372 5.94632 27.9828C6.99014 27.3861 7.99991 26.8091 9.05507 26.2056H9.05573Z" fill="#266F68" stroke="#266F68" stroke-width="0.5"/>
<path d="M22.8426 15.6246C19.9007 15.6454 17.3586 13.4041 17.109 10.5471C16.8126 7.15 19.4742 4.35422 22.9701 4.40498C23.9785 4.41995 24.9202 4.69718 25.7865 5.20415C26.1369 5.40914 26.2383 5.71371 26.0615 5.98965C25.8926 6.25256 25.5936 6.29161 25.2412 6.09833C22.3193 4.48958 18.8842 6.00917 18.2162 9.20649C17.6389 11.9678 20.0569 14.6777 22.9407 14.5748C25.2853 14.4915 27.3402 12.7084 27.4877 10.305C27.5097 9.95099 27.475 9.59046 27.4296 9.23773C27.3769 8.82968 27.505 8.55831 27.8274 8.50039C28.1698 8.43856 28.3933 8.62013 28.4761 9.02687C29.0748 11.9788 26.9311 15.02 23.8991 15.5126C23.55 15.5692 23.195 15.5881 22.8426 15.6246Z" fill="#266F68" stroke="#266F68" stroke-width="0.5"/>
<path d="M22.9981 10.9612C23.8724 9.93555 24.704 8.96132 25.5342 7.98644C26.8403 6.45188 28.1451 4.91537 29.4525 3.38147C29.7248 3.06193 30.0298 3.00206 30.2861 3.20445C30.5477 3.41075 30.5397 3.73224 30.2607 4.06089C28.033 6.68161 25.8052 9.30234 23.5754 11.9218C23.2063 12.3552 22.9354 12.3656 22.5323 11.9576C21.6833 11.0992 20.8317 10.2427 20.0002 9.36872C19.864 9.22554 19.7492 8.98996 19.7646 8.80774C19.7766 8.66391 19.9868 8.45761 20.141 8.42572C20.3085 8.39058 20.5668 8.47193 20.6929 8.59428C21.4037 9.28086 22.0864 9.99477 22.7779 10.7002C22.8466 10.7705 22.9047 10.8499 22.9981 10.9612Z" fill="#266F68" stroke="#266F68" stroke-width="0.5"/>
<path d="M6.669 24.6356C6.31995 24.6238 6.055 24.3557 6.07368 24.0323C6.09237 23.7082 6.38069 23.4544 6.71706 23.4667C7.05676 23.4791 7.32105 23.7531 7.3077 24.0778C7.29436 24.411 7.02339 24.6473 6.669 24.6356Z" fill="#266F68" stroke="#266F68" stroke-width="0.5"/>
</svg>
