<svg width="32" height="33" viewBox="0 0 32 33" fill="none" xmlns="http://www.w3.org/2000/svg">
<path d="M25.222 25.7582C25.068 25.0247 24.7665 24.3289 24.3353 23.7116C23.9042 23.0943 23.3519 22.5679 22.7111 22.1634C22.0703 21.7588 21.3537 21.4842 20.6035 21.3557C19.8533 21.2272 19.0845 21.2474 18.3423 21.415C18.3254 20.3113 17.9003 19.2514 17.1466 18.4335C16.3928 17.6155 15.362 17.0955 14.2468 16.9706C13.1316 16.8457 12.0083 17.1245 11.0869 17.7548C10.1655 18.3851 9.50897 19.3239 9.2401 20.3956C9.08053 20.3717 8.91941 20.359 8.75799 20.3577C7.89275 20.359 7.06331 20.6975 6.4515 21.2993C5.83968 21.901 5.49539 22.7167 5.49412 23.5676C5.4939 23.9459 5.56079 24.3214 5.69178 24.6771C4.93942 25.0501 4.30582 25.6193 3.86027 26.3226C3.41472 27.0259 3.17438 27.8361 3.16554 28.6646C3.16517 28.727 3.17733 28.7889 3.20132 28.8467C3.22531 28.9044 3.26066 28.957 3.30535 29.0013C3.35 29.0461 3.40324 29.0817 3.462 29.1061C3.52076 29.1305 3.58386 29.1433 3.64764 29.1435H27.4301C27.4972 29.1438 27.5636 29.1303 27.6252 29.1038C27.6867 29.0774 27.7419 29.0386 27.7873 28.9899C27.8327 28.9413 27.8672 28.8838 27.8887 28.8213C27.9102 28.7587 27.9182 28.6925 27.9122 28.6267C27.8457 27.9246 27.5464 27.2634 27.0603 26.7451C26.5742 26.2267 25.9282 25.8799 25.222 25.7582ZM4.15386 28.1952C4.246 27.5576 4.51205 26.9563 4.92375 26.4554C5.33544 25.9545 5.87741 25.5727 6.49208 25.3504C6.55767 25.3262 6.61709 25.2881 6.66621 25.239C6.71534 25.1899 6.75298 25.1308 6.77653 25.0659C6.79999 25.0018 6.80912 24.9334 6.8033 24.8655C6.79748 24.7976 6.77683 24.7317 6.74278 24.6724C6.54802 24.3273 6.44825 23.9383 6.45333 23.5437C6.45841 23.1491 6.56817 22.7626 6.77175 22.4225C6.97532 22.0825 7.26566 21.8006 7.61403 21.6047C7.9624 21.4089 8.35673 21.3059 8.75799 21.306C9.00408 21.3056 9.2485 21.3456 9.48116 21.4245C9.54906 21.4468 9.62116 21.454 9.69223 21.4455C9.7633 21.437 9.83155 21.413 9.89203 21.3753C9.95251 21.3377 10.0037 21.2872 10.0419 21.2276C10.08 21.1681 10.1042 21.1009 10.1127 21.031C10.2293 20.125 10.6921 19.2967 11.4072 18.7142C12.1223 18.1318 13.0361 17.8388 13.9628 17.895C14.8896 17.9511 15.7599 18.3521 16.3969 19.0165C17.0339 19.6808 17.3899 20.5588 17.3926 21.4719C17.3901 21.6416 17.3773 21.8111 17.354 21.9793C17.342 22.0605 17.3518 22.1434 17.3822 22.2199C17.4126 22.2964 17.4627 22.3638 17.5275 22.4155C17.5938 22.4692 17.6734 22.5045 17.7581 22.5179C17.8429 22.5312 17.9297 22.522 18.0097 22.4913C18.5349 22.3021 19.0895 22.2043 19.6488 22.2021C20.7978 22.2054 21.9069 22.617 22.7716 23.3611C23.6363 24.1053 24.1984 25.1317 24.3542 26.2513C24.3698 26.3604 24.4235 26.4609 24.5062 26.5353C24.5889 26.6097 24.6954 26.6535 24.8074 26.659C25.2623 26.6889 25.6979 26.8508 26.0592 27.1243C26.4205 27.3977 26.6912 27.7704 26.8371 28.1952H4.15386Z" fill="#266F68" stroke="#266F68" stroke-width="0.25"/>
<path d="M10.7225 23.335C9.9653 23.3436 9.24178 23.6439 8.70725 24.1714C8.17273 24.6989 7.86981 25.4114 7.86356 26.1561C7.86356 26.2818 7.91435 26.4024 8.00476 26.4914C8.09517 26.5803 8.2178 26.6302 8.34566 26.6302C8.47353 26.6302 8.59615 26.5803 8.68657 26.4914C8.77698 26.4024 8.82777 26.2818 8.82777 26.1561C8.82777 25.6615 9.02723 25.187 9.38242 24.8368C9.7376 24.4866 10.2195 24.2892 10.7225 24.288C11.1829 24.2943 11.6258 24.4625 11.9711 24.7621C12.0202 24.8038 12.0771 24.8356 12.1387 24.8557C12.2003 24.8758 12.2652 24.8838 12.3299 24.8791C12.3946 24.8745 12.4577 24.8574 12.5157 24.8288C12.5737 24.8002 12.6253 24.7606 12.6678 24.7123C12.7102 24.6641 12.7425 24.6081 12.7629 24.5475C12.7834 24.487 12.7914 24.4231 12.7867 24.3595C12.782 24.2958 12.7646 24.2338 12.7355 24.1767C12.7064 24.1197 12.6662 24.0689 12.6171 24.0272C12.0908 23.5799 11.4181 23.3341 10.7225 23.335Z" fill="#266F68" stroke="#266F68" stroke-width="0.25"/>
<path d="M19.8472 23.687C19.2424 23.6861 18.658 23.9018 18.2032 24.2939C18.1489 24.3325 18.1033 24.3819 18.0694 24.4388C18.0356 24.4957 18.0142 24.559 18.0066 24.6245C17.999 24.69 18.0053 24.7564 18.0253 24.8193C18.0452 24.8823 18.0783 24.9404 18.1224 24.9901C18.1665 25.0398 18.2207 25.0799 18.2814 25.1078C18.3422 25.1357 18.4082 25.1508 18.4752 25.1523C18.5423 25.1537 18.6089 25.1413 18.6708 25.116C18.7327 25.0906 18.7885 25.0529 18.8348 25.0051C19.0592 24.8157 19.3342 24.6936 19.6271 24.6531C19.92 24.6127 20.2185 24.6556 20.4874 24.7768C20.7562 24.898 20.9841 25.0925 21.1441 25.3371C21.304 25.5818 21.3894 25.8664 21.3899 26.1573C21.3899 26.283 21.4407 26.4036 21.5311 26.4926C21.6216 26.5815 21.7442 26.6314 21.872 26.6314C21.9999 26.6314 22.1225 26.5815 22.213 26.4926C22.3034 26.4036 22.3542 26.283 22.3542 26.1573C22.3542 25.5029 22.0902 24.8753 21.6202 24.4122C21.1502 23.9491 20.5125 23.6883 19.8472 23.687Z" fill="#266F68" stroke="#266F68" stroke-width="0.25"/>
<path d="M13.6349 19.9566C13.1585 19.9549 12.6977 20.1234 12.338 20.4307C12.2837 20.4693 12.2381 20.5187 12.2043 20.5756C12.1704 20.6325 12.149 20.6957 12.1414 20.7613C12.1338 20.8268 12.1402 20.8931 12.1601 20.9561C12.1801 21.0191 12.2132 21.0772 12.2573 21.1269C12.3014 21.1766 12.3555 21.2166 12.4163 21.2446C12.477 21.2725 12.543 21.2876 12.6101 21.289C12.6771 21.2905 12.7437 21.2781 12.8056 21.2528C12.8675 21.2274 12.9234 21.1897 12.9696 21.1419C13.1161 21.0179 13.2957 20.9377 13.4871 20.9108C13.6785 20.884 13.8737 20.9116 14.0496 20.9903C14.2256 21.0691 14.3749 21.1958 14.48 21.3554C14.5851 21.5151 14.6414 21.7009 14.6425 21.891C14.6425 22.0168 14.6933 22.1374 14.7837 22.2263C14.8741 22.3152 14.9968 22.3652 15.1246 22.3652C15.2525 22.3652 15.3751 22.3152 15.4655 22.2263C15.5559 22.1374 15.6067 22.0168 15.6067 21.891C15.6042 21.3779 15.3955 20.8866 15.0261 20.5242C14.6567 20.1619 14.1566 19.9578 13.6349 19.9566Z" fill="#266F68" stroke="#266F68" stroke-width="0.25"/>
<path d="M28.6867 11.9334L21.3539 4.82125C21.2953 4.76757 21.2242 4.72906 21.1467 4.7092C21.0693 4.68933 20.9881 4.68874 20.9103 4.70746V3.73073C20.9103 3.60498 20.8595 3.48438 20.7691 3.39546C20.6787 3.30655 20.5561 3.25659 20.4282 3.25659H11.543C11.4151 3.25659 11.2925 3.30655 11.2021 3.39546C11.1116 3.48438 11.0609 3.60498 11.0609 3.73073V5.24798C11.0609 5.37373 11.1116 5.49433 11.2021 5.58325C11.2925 5.67217 11.4151 5.72212 11.543 5.72212H11.7358L12.6181 6.61825C12.6634 6.66505 12.7181 6.70224 12.7786 6.72752C12.8391 6.75279 12.9042 6.76563 12.97 6.76523C13.0349 6.76499 13.0992 6.75184 13.1588 6.72658C13.2185 6.70132 13.2723 6.66448 13.3171 6.61825L13.9776 5.93548L14.6429 6.61825C14.6881 6.66362 14.7422 6.69959 14.8018 6.72402C14.8614 6.74846 14.9254 6.76086 14.99 6.76049C15.0554 6.7615 15.1204 6.74941 15.1809 6.72496C15.2414 6.7005 15.2962 6.6642 15.342 6.61825L15.9928 5.93074L16.6581 6.61825C16.7029 6.66448 16.7568 6.70132 16.8164 6.72658C16.8761 6.75184 16.9403 6.76499 17.0052 6.76523C17.0702 6.76499 17.1344 6.75184 17.1941 6.72658C17.2537 6.70132 17.3076 6.66448 17.3524 6.61825L18.2105 5.72212H20.004C20.004 5.72212 20.004 5.75531 20.004 5.76953L20.0763 6.71782L19.1121 6.74626C18.9866 6.74928 18.8672 6.80031 18.7794 6.88851C18.7305 6.93666 18.6927 6.99462 18.6685 7.05844C18.6444 7.12225 18.6345 7.19043 18.6396 7.25834L18.7119 8.20662L17.7477 8.23032C17.6151 8.23765 17.4906 8.29547 17.4006 8.39153C17.357 8.43964 17.3238 8.49598 17.3031 8.55712C17.2823 8.61826 17.2745 8.68292 17.28 8.74714L17.3475 9.69542L16.3833 9.72386C16.3166 9.72365 16.2506 9.73705 16.1895 9.76322C16.1283 9.78938 16.0733 9.82774 16.028 9.87587C15.9827 9.92399 15.9481 9.98084 15.9262 10.0428C15.9044 10.1048 15.8959 10.1706 15.9012 10.2359L15.9735 11.1842L15.0093 11.2079C14.9437 11.2094 14.879 11.224 14.8193 11.2509C14.7596 11.2778 14.7062 11.3164 14.6622 11.3644L14.397 11.6584C14.311 11.7509 14.2657 11.8732 14.2711 11.9985C14.2766 12.1238 14.3322 12.2419 14.426 12.3269L22.0674 19.1118C22.1563 19.1937 22.2734 19.2394 22.3952 19.2399C22.5219 19.2298 22.6404 19.1741 22.7279 19.0834L28.706 12.5972C28.7918 12.5061 28.8379 12.3855 28.8343 12.2614C28.8307 12.1373 28.7777 12.0195 28.6867 11.9334ZM19.9461 4.77384H18.0177C17.9519 4.77344 17.8868 4.78627 17.8263 4.81155C17.7657 4.83683 17.7111 4.87402 17.6657 4.92082L16.9956 5.60359L16.3351 4.92082C16.2401 4.83211 16.1142 4.78265 15.9832 4.78265C15.8522 4.78265 15.7262 4.83211 15.6312 4.92082L14.9708 5.60359L14.3103 4.92082C14.2153 4.83211 14.0893 4.78265 13.9583 4.78265C13.8273 4.78265 13.7014 4.83211 13.6064 4.92082L12.9507 5.60359L12.2902 4.92082C12.218 4.84971 12.1255 4.80178 12.0251 4.78332V4.20487H19.9461V4.77384ZM22.3567 18.0924L15.6891 12.0946L16.5328 12.0709C16.5984 12.0694 16.6631 12.0548 16.7228 12.0279C16.7825 12.001 16.8359 11.9623 16.8799 11.9144C16.9235 11.8663 16.9567 11.8099 16.9774 11.7488C16.9981 11.6877 17.006 11.623 17.0004 11.5588L16.9281 10.6105L17.8923 10.5821C17.958 10.5806 18.0226 10.566 18.0823 10.5391C18.142 10.5122 18.1955 10.4735 18.2394 10.4256C18.2824 10.3781 18.3153 10.3225 18.336 10.2622C18.3567 10.2019 18.3648 10.1382 18.36 10.0747L18.2925 9.12645L19.2567 9.10274C19.3215 9.10065 19.3852 9.08571 19.4441 9.05882C19.5029 9.03194 19.5556 8.99366 19.599 8.94627C19.6429 8.89912 19.6766 8.84373 19.6981 8.78343C19.7196 8.72314 19.7286 8.65918 19.7243 8.59541L19.652 7.64713L20.6162 7.61868C20.6822 7.61901 20.7474 7.60518 20.8074 7.57816C20.8673 7.55113 20.9206 7.51156 20.9634 7.46221C21.0064 7.41468 21.0392 7.35911 21.0599 7.29884C21.0806 7.23856 21.0888 7.1748 21.0839 7.11135L20.9923 5.88333L21.0357 5.83117L27.6984 12.2795L22.3567 18.0924Z" fill="#266F68" stroke="#266F68" stroke-width="0.25"/>
<path d="M8.85234 14.4761C8.99728 14.4761 9.13896 14.4338 9.25947 14.3546C9.37998 14.2754 9.4739 14.1628 9.52937 14.0312C9.58483 13.8995 9.59934 13.7546 9.57107 13.6148C9.54279 13.475 9.473 13.3465 9.37051 13.2458C9.26803 13.145 9.13746 13.0763 8.99531 13.0485C8.85316 13.0207 8.70581 13.035 8.57191 13.0895C8.43801 13.1441 8.32356 13.2364 8.24304 13.355C8.16252 13.4735 8.11954 13.6128 8.11954 13.7554C8.11954 13.9465 8.19674 14.1298 8.33417 14.265C8.4716 14.4001 8.65799 14.4761 8.85234 14.4761Z" fill="#266F68" stroke="#266F68" stroke-width="0.25"/>
<path d="M11.7681 12.5556C11.9132 12.5566 12.0553 12.5151 12.1765 12.4365C12.2976 12.3579 12.3923 12.2456 12.4485 12.114C12.5047 11.9824 12.5199 11.8374 12.4922 11.6973C12.4645 11.5572 12.395 11.4283 12.2928 11.327C12.1905 11.2258 12.0599 11.1567 11.9176 11.1285C11.7753 11.1003 11.6278 11.1143 11.4936 11.1687C11.3594 11.2231 11.2446 11.3154 11.1639 11.4341C11.0832 11.5527 11.0401 11.6922 11.0401 11.8349C11.0401 12.0253 11.1166 12.2079 11.253 12.3429C11.3894 12.4779 11.5745 12.5544 11.7681 12.5556Z" fill="#266F68" stroke="#266F68" stroke-width="0.25"/>
<path d="M11.7681 16.3906C11.912 16.3906 12.0528 16.3487 12.1725 16.27C12.2922 16.1913 12.3855 16.0795 12.4406 15.9487C12.4957 15.8179 12.5101 15.6739 12.482 15.535C12.454 15.3961 12.3846 15.2686 12.2828 15.1684C12.181 15.0683 12.0513 15.0001 11.9101 14.9725C11.7689 14.9449 11.6225 14.9591 11.4895 15.0132C11.3564 15.0674 11.2427 15.1592 11.1628 15.2769C11.0828 15.3947 11.0401 15.5331 11.0401 15.6747C11.0401 15.8646 11.1168 16.0467 11.2533 16.1809C11.3898 16.3152 11.575 16.3906 11.7681 16.3906Z" fill="#266F68" stroke="#266F68" stroke-width="0.25"/>
<path d="M8.85236 10.6347C8.9975 10.6347 9.13937 10.5924 9.25998 10.513C9.38059 10.4335 9.47451 10.3207 9.52983 10.1887C9.58515 10.0568 9.59938 9.91163 9.57071 9.7717C9.54204 9.63177 9.47177 9.50337 9.3688 9.40277C9.26583 9.30217 9.13481 9.2339 8.99234 9.20663C8.84988 9.17936 8.70238 9.19431 8.56857 9.24959C8.43475 9.30487 8.32064 9.39798 8.2407 9.51712C8.16076 9.63625 8.1186 9.77606 8.11955 9.91879C8.12083 10.1091 8.19859 10.2912 8.33588 10.4253C8.47317 10.5595 8.65884 10.6348 8.85236 10.6347Z" fill="#266F68" stroke="#266F68" stroke-width="0.25"/>
<path d="M11.7681 8.71389C12.1701 8.71389 12.496 8.39334 12.496 7.99793C12.496 7.60252 12.1701 7.28198 11.7681 7.28198C11.366 7.28198 11.0401 7.60252 11.0401 7.99793C11.0401 8.39334 11.366 8.71389 11.7681 8.71389Z" fill="#266F68" stroke="#266F68" stroke-width="0.25"/>
</svg>
