<svg width="32" height="33" viewBox="0 0 32 33" fill="none" xmlns="http://www.w3.org/2000/svg">
<path d="M18.8 9.2H22.0722C22.4146 9.2 22.5858 9.2 22.7469 9.23868C22.8898 9.27298 23.0263 9.32954 23.1516 9.4063C23.2929 9.49288 23.4139 9.61395 23.6561 9.85608L29.3439 15.5439C29.5861 15.7861 29.7071 15.9071 29.7937 16.0484C29.8705 16.1737 29.927 16.3102 29.9613 16.4531C30 16.6142 30 16.7854 30 17.1278V21.1C30 21.7523 30 22.0785 29.8934 22.3358C29.7513 22.6788 29.4788 22.9513 29.1358 23.0934C28.8785 23.2 28.5523 23.2 27.9 23.2M20.9 23.2H18.8M18.8 23.2V9.48C18.8 7.91185 18.8 7.12778 18.4948 6.52883C18.2264 6.00197 17.798 5.57363 17.2712 5.30518C16.6722 5 15.8881 5 14.32 5H6.48C4.91185 5 4.12778 5 3.52883 5.30518C3.00197 5.57363 2.57363 6.00197 2.30518 6.52883C2 7.12778 2 7.91185 2 9.48V20.4C2 21.9464 3.2536 23.2 4.8 23.2M18.8 23.2H13.2M13.2 23.2C13.2 25.5196 11.3196 27.4 9 27.4C6.6804 27.4 4.8 25.5196 4.8 23.2M13.2 23.2C13.2 20.8804 11.3196 19 9 19C6.6804 19 4.8 20.8804 4.8 23.2M27.9 23.9C27.9 25.833 26.333 27.4 24.4 27.4C22.467 27.4 20.9 25.833 20.9 23.9C20.9 21.967 22.467 20.4 24.4 20.4C26.333 20.4 27.9 21.967 27.9 23.9Z" stroke="#266F68" stroke-width="1.5" stroke-linecap="round" stroke-linejoin="round"/>
</svg>
