<svg width="80" height="80" viewBox="0 0 80 80" fill="none" xmlns="http://www.w3.org/2000/svg">
<circle cx="40" cy="40" r="40" fill="#78C99E"/>
<path d="M20.3945 29.3307L18.6398 27.5936C17.9427 26.9111 17.5667 26.0038 17.5667 25.0344C17.5667 23.8091 18.1855 22.7233 19.1333 22.0719C19.1333 22.1184 19.1333 22.1572 19.1333 22.2037C19.1333 23.4833 20.1908 24.5303 21.4833 24.5303C22.7758 24.5303 23.8333 23.4833 23.8333 22.2037C23.8333 21.0249 22.9403 20.0478 21.7888 19.8927L23.6062 18.0935L22.4938 17L20.4728 19.0086C20.136 19.3343 19.8618 19.7066 19.6503 20.1098C17.5353 20.7768 16 22.7311 16 25.0344C16 26.4148 16.5405 27.7099 17.5275 28.6871L19.2822 30.4242C19.6347 30.0365 20.0028 29.672 20.3945 29.3307ZM20.794 21.4515C20.935 21.436 21.076 21.4282 21.217 21.4282H21.4833C21.9142 21.4282 22.2667 21.7772 22.2667 22.2037C22.2667 22.6303 21.9142 22.9792 21.4833 22.9792C21.0525 22.9792 20.7 22.6303 20.7 22.2037C20.7 21.9478 20.7313 21.6919 20.794 21.4515Z" fill="black"/>
<path d="M45.7666 28.4079V32.0683L47.4978 31.6418C49.2446 31.2075 50.4666 29.6642 50.4666 27.8805V26.4381C49.7068 26.2054 48.9156 26.0813 48.1166 26.0813C46.8241 26.0813 45.7666 27.1205 45.7666 28.4079Z" fill="black"/>
<path d="M55.95 44.6938C54.6575 44.6938 53.6 45.7407 53.6 47.0203C53.6 47.2918 53.6626 47.5477 53.7488 47.7959H58.1433C58.2295 47.5477 58.2921 47.2918 58.2921 47.0203C58.3 45.733 57.2425 44.6938 55.95 44.6938Z" fill="black"/>
<path d="M60.6499 44.6938C60.1721 44.6938 59.7177 44.8411 59.3339 45.1048C59.6629 45.6709 59.8666 46.3146 59.8666 47.0203C59.8666 47.284 59.8352 47.5399 59.7804 47.7959H62.8511C62.9372 47.5477 62.9999 47.2918 62.9999 47.0203C62.9999 45.733 61.9424 44.6938 60.6499 44.6938Z" fill="black"/>
<path d="M51.4615 54H63V49.3469H53.6C53.6 51.2004 52.7697 52.86 51.4615 54Z" fill="black"/>
<path d="M42.6334 49.3469C42.6334 51.9139 44.7406 54 47.3334 54C49.9262 54 52.0334 51.9139 52.0334 49.3469H42.6334Z" fill="black"/>
<path d="M47.3334 47.0203C47.3334 46.7566 47.3569 46.493 47.4117 46.2448H47.02C42.8762 46.2448 39.5 42.9023 39.5 38.7998C39.5 38.001 39.6332 37.21 39.8839 36.4422L40.3225 35.1394L41.8109 35.628L41.3722 36.9231C41.1685 37.5357 41.0667 38.1561 41.0667 38.7921C41.0667 42.0415 43.7379 44.686 47.02 44.686H48.1324C48.8452 43.7476 49.9732 43.135 51.2422 43.135C52.1039 43.135 52.9264 43.4142 53.6 43.9182C54.258 43.4297 55.057 43.135 55.9422 43.135C56.7255 43.135 57.454 43.3676 58.065 43.7631C58.1982 43.577 58.2922 43.3676 58.2922 43.135C58.2922 42.8403 58.1747 42.5688 57.971 42.3595L55.1667 39.5831V32.1381C55.1667 30.494 54.4304 28.943 53.1535 27.8883C52.801 27.5936 52.425 27.3377 52.0334 27.1128V27.8728C52.0334 30.3699 50.3257 32.5336 47.8817 33.1385L44.2 34.0536V28.4079C44.2 28.2993 44.2235 28.1985 44.2314 28.0977H44.2235C42.2339 29.0826 39.9152 29.416 37.7219 29.0205L31.04 27.8185C30.3664 27.6944 29.677 27.6324 28.9955 27.6324C22.6975 27.6324 17.5667 32.7042 17.5667 38.9472C17.5667 40.5913 17.9114 42.1888 18.585 43.6856L19.4154 45.5468C20.2692 47.4391 20.7 49.4555 20.7 51.5338V54H23.8334V50.1224C23.8334 48.8428 24.8909 47.7958 26.1834 47.7958H32.45C33.7425 47.7958 34.8 48.8428 34.8 50.1224V54H37.9334V50.1224C37.9334 48.8428 38.9909 47.7958 40.2834 47.7958H47.4195C47.3647 47.5399 47.3334 47.284 47.3334 47.0203ZM51.25 34.612C52.1117 34.612 52.8167 35.31 52.8167 36.1631C52.8167 37.0161 52.1117 37.7141 51.25 37.7141C50.3884 37.7141 49.6834 37.0161 49.6834 36.1631C49.6834 35.31 50.3884 34.612 51.25 34.612Z" fill="black"/>
<path d="M51.25 44.6938C49.9575 44.6938 48.9 45.7407 48.9 47.0203C48.9 47.2918 48.9627 47.5477 49.0489 47.7959H52.1195C52.0647 47.5399 52.0334 47.284 52.0334 47.0203C52.0334 46.3224 52.237 45.6709 52.566 45.1048C52.1822 44.8411 51.7279 44.6938 51.25 44.6938Z" fill="black"/>
</svg>
