<svg width="40" height="40" viewBox="-1 1 40 40" fill="none" xmlns="http://www.w3.org/2000/svg">
<g clip-path="url(#clip0)">
<path d="M37.4748 11.1925H35.109C34.7777 11.1925 34.5412 11.4777 34.5412 11.7629V12.2858C34.0207 11.7154 33.2636 11.3827 32.4119 11.3827C32.0807 11.3827 31.7022 11.4302 31.4183 11.5728C31.2763 10.6222 30.6612 9.76657 29.8095 9.33879C29.8568 9.14866 29.8568 9.00606 29.8568 8.81594C29.8568 7.19985 28.5319 5.86895 26.9232 5.86895C25.3144 5.86895 23.9895 7.19985 23.9895 8.81594C23.9895 8.911 23.9895 9.00606 23.9895 9.05359C23.753 9.10113 23.5164 9.19619 23.2798 9.29125C22.9013 9.10113 22.4754 9.00606 22.0022 9.00606C21.671 9.00606 21.2925 9.0536 21.0086 9.19619C20.8666 8.24555 20.2515 7.38998 19.3998 6.96219C19.4471 6.77206 19.4471 6.62946 19.4471 6.43934C19.4471 4.82325 18.1223 3.49235 16.5135 3.49235C15.5199 3.49235 14.5735 4.0152 14.053 4.82325C13.4379 4.49052 12.6809 4.3004 11.9711 4.3004C11.5453 4.3004 11.1667 4.34793 10.7882 4.49052C10.5989 2.39912 10.9775 0.878094 10.9775 0.830562C10.9775 0.450306 10.7882 0.117582 10.457 0.0225181C10.1258 -0.0725459 9.84186 0.117582 9.74723 0.450306C9.69991 0.592902 9.22675 2.49418 9.55796 4.91831C9.27406 5.10844 9.03748 5.29857 8.84821 5.4887C8.04383 6.29674 7.57066 7.43751 7.57066 8.57827C7.57066 9.10113 7.6653 9.62398 7.85456 10.0993C7.57066 10.4796 7.3814 10.9073 7.28676 11.3351C5.678 11.1925 4.2585 12.3808 4.11655 13.9494H14.6208C12.6335 13.1413 10.9775 12.0481 9.69991 10.8123C9.60528 10.7172 9.55796 10.6697 9.46333 10.5746C9.46333 10.5746 9.46333 10.5271 9.41601 10.5271C9.3687 10.432 9.32138 10.3845 9.22675 10.2894C9.22675 10.2894 9.22675 10.2894 9.22675 10.2419C9.17943 10.1468 9.13211 10.0518 9.0848 9.9567C9.03748 9.86164 8.99016 9.76657 8.94285 9.67151C8.8009 9.33879 8.75358 8.95853 8.75358 8.57827C8.75358 7.7227 9.0848 6.91466 9.69991 6.34427C9.74723 6.29674 9.79455 6.24921 9.84186 6.20168C10.2677 7.96036 11.1667 9.90917 12.8701 11.6203C12.9648 11.7154 13.154 11.8105 13.296 11.8105C13.4379 11.8105 13.5799 11.7629 13.7218 11.6203C13.9584 11.3827 13.9584 11.0024 13.7218 10.7647C12.0657 9.10113 11.3087 7.24738 10.9301 5.53623C11.2614 5.44116 11.5926 5.3461 11.9711 5.3461C12.4443 5.3461 12.8701 5.44116 13.296 5.63129C13.4852 5.72636 13.6272 5.82142 13.7691 5.91648C13.9111 6.01155 14.053 6.15414 14.195 6.24921C14.9047 6.96219 15.236 8.00789 15.094 9.05359C15.094 9.10113 15.094 9.10113 15.094 9.14866C14.9047 11.0975 15.6618 12.7136 16.5135 13.9019H34.5885V15.2328H3.50143V11.8105C3.50143 11.4777 3.21753 11.2401 2.93363 11.2401H0.5678C0.236583 11.2401 0 11.5253 0 11.8105V38.4284C0 38.7611 0.2839 38.9987 0.5678 38.9987H2.93363C3.26485 38.9987 3.50143 38.7136 3.50143 38.4284H34.4938C34.4938 38.7611 34.7777 38.9987 35.0616 38.9987H37.4275C37.7587 38.9987 37.9953 38.7136 37.9953 38.4284V11.8105C38.0426 11.4777 37.806 11.1925 37.4748 11.1925ZM34.5412 23.5508V24.7391H3.50143V23.5508H34.5412ZM34.5412 33.0572V34.2455H3.50143V33.0572H34.5412Z" fill="black"/>
</g>
<defs>
<clipPath id="clip0">
<rect width="38" height="39" fill="white"/>
</clipPath>
</defs>
</svg>
