<svg width="80" height="80" viewBox="0 0 80 80" fill="none" xmlns="http://www.w3.org/2000/svg">
<circle cx="40" cy="40" r="40" fill="#78C99E"/>
<path d="M58.4748 31.193H56.109C55.7777 31.193 55.5412 31.4782 55.5412 31.7634V32.2863C55.0207 31.7159 54.2636 31.3832 53.4119 31.3832C53.0807 31.3832 52.7022 31.4307 52.4183 31.5733C52.2763 30.6226 51.6612 29.7671 50.8095 29.3393C50.8568 29.1491 50.8568 29.0066 50.8568 28.8164C50.8568 27.2003 49.5319 25.8694 47.9232 25.8694C46.3144 25.8694 44.9895 27.2003 44.9895 28.8164C44.9895 28.9115 44.9895 29.0066 44.9895 29.0541C44.753 29.1016 44.5164 29.1967 44.2798 29.2917C43.9013 29.1016 43.4754 29.0066 43.0022 29.0066C42.671 29.0066 42.2925 29.0541 42.0086 29.1967C41.8666 28.246 41.2515 27.3905 40.3998 26.9627C40.4471 26.7725 40.4471 26.63 40.4471 26.4398C40.4471 24.8237 39.1223 23.4928 37.5135 23.4928C36.5199 23.4928 35.5735 24.0157 35.053 24.8237C34.4379 24.491 33.6809 24.3009 32.9711 24.3009C32.5453 24.3009 32.1667 24.3484 31.7882 24.491C31.5989 22.3996 31.9775 20.8786 31.9775 20.8311C31.9775 20.4508 31.7882 20.1181 31.457 20.023C31.1258 19.9279 30.8419 20.1181 30.7472 20.4508C30.6999 20.5934 30.2267 22.4947 30.558 24.9188C30.2741 25.1089 30.0375 25.2991 29.8482 25.4892C29.0438 26.2972 28.5707 27.438 28.5707 28.5788C28.5707 29.1016 28.6653 29.6245 28.8546 30.0998C28.5707 30.48 28.3814 30.9078 28.2868 31.3356C26.678 31.193 25.2585 32.3813 25.1165 33.9499H35.6208C33.6335 33.1418 31.9775 32.0486 30.6999 30.8128C30.6053 30.7177 30.558 30.6702 30.4633 30.5751C30.4633 30.5751 30.4633 30.5276 30.416 30.5276C30.3687 30.4325 30.3214 30.385 30.2267 30.2899C30.2267 30.2899 30.2267 30.2899 30.2267 30.2424C30.1794 30.1473 30.1321 30.0523 30.0848 29.9572C30.0375 29.8621 29.9902 29.7671 29.9428 29.672C29.8009 29.3393 29.7536 28.959 29.7536 28.5788C29.7536 27.7232 30.0848 26.9151 30.6999 26.3448C30.7472 26.2972 30.7945 26.2497 30.8419 26.2022C31.2677 27.9608 32.1667 29.9097 33.8701 31.6208C33.9648 31.7159 34.154 31.8109 34.296 31.8109C34.4379 31.8109 34.5799 31.7634 34.7218 31.6208C34.9584 31.3832 34.9584 31.0029 34.7218 30.7652C33.0657 29.1016 32.3087 27.2479 31.9301 25.5367C32.2614 25.4417 32.5926 25.3466 32.9711 25.3466C33.4443 25.3466 33.8701 25.4417 34.296 25.6318C34.4852 25.7268 34.6272 25.8219 34.7691 25.917C34.9111 26.012 35.053 26.1546 35.195 26.2497C35.9047 26.9627 36.236 28.0084 36.094 29.0541C36.094 29.1016 36.094 29.1016 36.094 29.1491C35.9047 31.098 36.6618 32.714 37.5135 33.9023H55.5885V35.2332H24.5014V31.8109C24.5014 31.4782 24.2175 31.2406 23.9336 31.2406H21.5678C21.2366 31.2406 21 31.5257 21 31.8109V58.4288C21 58.7616 21.2839 58.9992 21.5678 58.9992H23.9336C24.2648 58.9992 24.5014 58.714 24.5014 58.4288H55.4938C55.4938 58.7616 55.7777 58.9992 56.0616 58.9992H58.4275C58.7587 58.9992 58.9953 58.714 58.9953 58.4288V31.8109C59.0426 31.4782 58.806 31.193 58.4748 31.193ZM55.5412 43.5513V44.7396H24.5014V43.5513H55.5412ZM55.5412 53.0577V54.246H24.5014V53.0577H55.5412Z" fill="black"/>
</svg>
