<svg width="68" height="42" viewBox="2 -2 68 42" fill="none" xmlns="http://www.w3.org/2000/svg">
<path d="M71.849 23.3487L62.3828 2.89993C62.3004 2.7104 62.1804 2.53951 62.0301 2.39757C61.8799 2.25563 61.7025 2.14557 61.5085 2.07401C61.3146 2.00245 61.1082 1.97088 60.9018 1.98121C60.6954 1.99153 60.4931 2.04352 60.3073 2.13406L50.397 7.11222L39.2306 3.88025C39.0516 3.82901 38.8647 3.81084 38.6792 3.82663L30.2546 4.53889C29.8882 4.57123 29.5457 4.73434 29.2896 4.99842L20.865 4.60016L10.2577 0.119827C10.069 0.0404342 9.86626 -0.000311248 9.6615 1.79014e-06C9.45674 0.000314829 9.25412 0.041679 9.06562 0.121648C8.87712 0.201618 8.70657 0.318569 8.56405 0.465588C8.42153 0.612606 8.30993 0.786708 8.23585 0.9776L0.102318 22.0467C0.0173098 22.2674 -0.0154122 22.5049 0.00671716 22.7404C0.0288465 22.9759 0.105226 23.2031 0.229867 23.4042C0.354508 23.6052 0.524025 23.7747 0.725126 23.8993C0.926228 24.0238 1.15345 24.1001 1.38898 24.1222L15.9405 25.5084C18.3836 27.4078 31.5106 38.2142 33.701 39.8991C34.7792 40.6785 36.0859 41.0772 37.4155 41.0326C38.6495 41.0117 39.8723 40.7945 41.0381 40.3892C41.4687 40.604 41.943 40.7167 42.4243 40.7186C42.6667 40.7179 42.9082 40.6896 43.1442 40.6343C44.6759 40.282 45.7788 38.8728 46.4374 37.7853C47.0477 37.9452 47.6753 38.0301 48.3062 38.038C48.796 38.0777 49.2887 38.0113 49.7506 37.8431C50.2124 37.675 50.6326 37.4092 50.9823 37.0639C51.332 36.7185 51.6031 36.3017 51.777 35.842C51.9509 35.3823 52.0235 34.8905 51.99 34.4001H52.0819C52.6114 34.4222 53.1401 34.3388 53.6371 34.1548C54.134 33.9707 54.5895 33.6896 54.9769 33.3279C56.3554 31.9953 56.3325 29.9122 56.1716 28.7327L57.9255 27.1091L70.6542 25.5773C70.8942 25.548 71.1238 25.4622 71.3243 25.3271C71.5247 25.192 71.6904 25.0114 71.8077 24.8C71.925 24.5886 71.9905 24.3524 71.999 24.1108C72.0076 23.8692 71.9588 23.629 71.8566 23.4099L71.849 23.3487ZM48.9342 9.87701C49.0431 10.0161 49.1752 10.1353 49.3248 10.2293L55.4517 25.2097L54.6246 25.9756C52.595 23.7699 47.9998 18.807 44.4845 15.2534C42.1869 12.9558 40.2339 12.121 38.5337 12.121C35.9527 12.121 33.9997 13.9897 32.6058 15.3223C30.3082 17.5204 29.4504 16.7851 28.9909 16.3869C28.5314 15.9886 28.1714 13.9897 28.225 12.3431L31.2656 7.49515L38.6409 6.87479L48.9342 9.87701ZM10.5258 3.55092L18.7895 7.02797L15.3661 22.3454L3.69425 21.2348L10.5258 3.55092ZM52.8478 31.1299C52.572 31.3979 51.8751 31.4133 50.9407 31.1758L42.2941 22.8891C42.1482 22.7498 41.9764 22.6406 41.7884 22.5677C41.6003 22.4949 41.3998 22.4597 41.1981 22.4643C40.9965 22.469 40.7978 22.5133 40.6133 22.5947C40.4288 22.6761 40.2621 22.7931 40.1228 22.9389C39.9835 23.0847 39.8743 23.2566 39.8014 23.4446C39.7286 23.6327 39.6934 23.8332 39.698 24.0348C39.7027 24.2365 39.747 24.4352 39.8284 24.6197C39.9098 24.8042 40.0268 24.9709 40.1726 25.1102L48.804 33.3892C48.9848 33.8813 49.0009 34.4189 48.8499 34.9209C48.8499 34.9209 48.3598 35.2579 46.491 34.6376L38.4647 27.3005C38.3139 27.1653 38.1378 27.061 37.9467 26.9938C37.7555 26.9265 37.553 26.8976 37.3507 26.9086C37.1484 26.9197 36.9502 26.9704 36.7675 27.058C36.5848 27.1456 36.4211 27.2684 36.2858 27.4192C36.1506 27.5701 36.0463 27.7461 35.9791 27.9373C35.9118 28.1284 35.8829 28.331 35.8939 28.5333C35.9049 28.7356 35.9557 28.9338 36.0433 29.1165C36.1309 29.2992 36.2537 29.4629 36.4045 29.5981L43.7799 36.3072C43.3433 36.9964 42.8225 37.6015 42.4702 37.6781C42.4166 37.6781 42.2711 37.5785 42.2251 37.5479C39.9275 35.5796 35.6923 31.4209 35.654 31.4209C35.5282 31.2343 35.3629 31.0777 35.1697 30.9622C34.9765 30.8468 34.7603 30.7753 34.5364 30.7528C34.3124 30.7304 34.0863 30.7576 33.8741 30.8325C33.6619 30.9074 33.4688 31.0281 33.3085 31.1861C33.1482 31.3441 33.0247 31.5354 32.9468 31.7466C32.8689 31.9577 32.8384 32.1834 32.8576 32.4076C32.8768 32.6318 32.9452 32.8491 33.0579 33.0439C33.1705 33.2387 33.3248 33.4063 33.5096 33.5347C33.6397 33.6649 35.9297 35.9089 38.1048 37.8925C37.2428 38.0547 36.3513 37.8939 35.6004 37.4407C33.5632 35.9089 21.4088 25.9526 18.2841 23.3793L21.7994 7.67896L27.352 7.94701L25.3837 11.0105C25.2352 11.2394 25.1506 11.5038 25.1386 11.7764C25.1003 12.6265 25.0007 16.9613 26.9843 18.6692C28.5161 20.0171 31.1507 20.9132 34.7349 17.4897C37.1245 15.1921 38.7021 13.6604 42.2941 17.3672C46.3455 21.5029 51.8368 27.4767 53.1235 28.8553C53.223 29.6211 53.2307 30.747 52.8478 31.1299ZM58.2088 23.9537L52.3576 9.55534L60.2614 5.60345L68.1651 22.7283L58.2088 23.9537Z" fill="black"/>
</svg>
