<svg width="80" height="80" viewBox="0 0 80 80" fill="none" xmlns="http://www.w3.org/2000/svg">
<circle cx="40" cy="40" r="40" fill="#78C99E"/>
<path d="M74.849 44.3487L65.3828 23.8999C65.3004 23.7104 65.1804 23.5395 65.0301 23.3976C64.8799 23.2556 64.7025 23.1456 64.5085 23.074C64.3146 23.0025 64.1082 22.9709 63.9018 22.9812C63.6954 22.9915 63.4931 23.0435 63.3073 23.1341L53.397 28.1122L42.2306 24.8802C42.0516 24.829 41.8647 24.8108 41.6792 24.8266L33.2546 25.5389C32.8882 25.5712 32.5457 25.7343 32.2896 25.9984L23.865 25.6002L13.2577 21.1198C13.069 21.0404 12.8663 20.9997 12.6615 21C12.4567 21.0003 12.2541 21.0417 12.0656 21.1216C11.8771 21.2016 11.7066 21.3186 11.564 21.4656C11.4215 21.6126 11.3099 21.7867 11.2359 21.9776L3.10232 43.0467C3.01731 43.2674 2.98459 43.5049 3.00672 43.7404C3.02885 43.9759 3.10523 44.2031 3.22987 44.4042C3.35451 44.6052 3.52402 44.7747 3.72513 44.8993C3.92623 45.0238 4.15345 45.1001 4.38898 45.1222L18.9405 46.5084C21.3836 48.4078 34.5106 59.2142 36.701 60.8991C37.7792 61.6785 39.0859 62.0772 40.4155 62.0326C41.6495 62.0117 42.8723 61.7945 44.0381 61.3892C44.4687 61.604 44.943 61.7167 45.4243 61.7186C45.6667 61.7179 45.9082 61.6896 46.1442 61.6343C47.6759 61.282 48.7788 59.8728 49.4374 58.7853C50.0477 58.9452 50.6753 59.0301 51.3062 59.038C51.796 59.0777 52.2887 59.0113 52.7506 58.8431C53.2124 58.675 53.6326 58.4092 53.9823 58.0639C54.332 57.7185 54.6031 57.3017 54.777 56.842C54.9509 56.3823 55.0235 55.8905 54.99 55.4001H55.0819C55.6114 55.4222 56.1401 55.3388 56.6371 55.1548C57.134 54.9707 57.5895 54.6896 57.9769 54.3279C59.3554 52.9953 59.3325 50.9122 59.1716 49.7327L60.9255 48.1091L73.6542 46.5773C73.8942 46.548 74.1238 46.4622 74.3243 46.3271C74.5247 46.192 74.6904 46.0114 74.8077 45.8C74.925 45.5886 74.9905 45.3524 74.999 45.1108C75.0076 44.8692 74.9588 44.629 74.8566 44.4099L74.849 44.3487ZM51.9342 30.877C52.0431 31.0161 52.1752 31.1353 52.3248 31.2293L58.4517 46.2097L57.6246 46.9756C55.595 44.7699 50.9998 39.807 47.4845 36.2534C45.1869 33.9558 43.2339 33.121 41.5337 33.121C38.9527 33.121 36.9997 34.9897 35.6058 36.3223C33.3082 38.5204 32.4504 37.7851 31.9909 37.3869C31.5314 36.9886 31.1714 34.9897 31.225 33.3431L34.2656 28.4952L41.6409 27.8748L51.9342 30.877ZM13.5258 24.5509L21.7895 28.028L18.3661 43.3454L6.69425 42.2349L13.5258 24.5509ZM55.8478 52.1299C55.572 52.3979 54.8751 52.4133 53.9407 52.1758L45.2941 43.8891C45.1482 43.7498 44.9764 43.6406 44.7884 43.5677C44.6003 43.4949 44.3998 43.4597 44.1981 43.4643C43.9965 43.469 43.7978 43.5133 43.6133 43.5947C43.4288 43.6761 43.2621 43.7931 43.1228 43.9389C42.9835 44.0847 42.8743 44.2566 42.8014 44.4446C42.7286 44.6327 42.6934 44.8332 42.698 45.0348C42.7027 45.2365 42.747 45.4352 42.8284 45.6197C42.9098 45.8042 43.0268 45.9709 43.1726 46.1102L51.804 54.3892C51.9848 54.8813 52.0009 55.4189 51.8499 55.9209C51.8499 55.9209 51.3598 56.2579 49.491 55.6376L41.4647 48.3005C41.3139 48.1653 41.1378 48.061 40.9467 47.9938C40.7555 47.9265 40.553 47.8976 40.3507 47.9086C40.1484 47.9197 39.9502 47.9704 39.7675 48.058C39.5848 48.1456 39.4211 48.2684 39.2858 48.4192C39.1506 48.5701 39.0463 48.7461 38.9791 48.9373C38.9118 49.1284 38.8829 49.331 38.8939 49.5333C38.9049 49.7356 38.9557 49.9338 39.0433 50.1165C39.1309 50.2992 39.2537 50.4629 39.4045 50.5981L46.7799 57.3072C46.3433 57.9964 45.8225 58.6015 45.4702 58.6781C45.4166 58.6781 45.2711 58.5785 45.2251 58.5479C42.9275 56.5796 38.6923 52.4209 38.654 52.4209C38.5282 52.2343 38.3629 52.0777 38.1697 51.9622C37.9765 51.8468 37.7603 51.7753 37.5364 51.7528C37.3124 51.7304 37.0863 51.7576 36.8741 51.8325C36.6619 51.9074 36.4688 52.0281 36.3085 52.1861C36.1482 52.3441 36.0247 52.5354 35.9468 52.7466C35.8689 52.9577 35.8384 53.1834 35.8576 53.4076C35.8768 53.6318 35.9452 53.8491 36.0579 54.0439C36.1705 54.2387 36.3248 54.4063 36.5096 54.5347C36.6397 54.6649 38.9297 56.9089 41.1048 58.8925C40.2428 59.0547 39.3513 58.8939 38.6004 58.4407C36.5632 56.9089 24.4088 46.9526 21.2841 44.3793L24.7994 28.679L30.352 28.947L28.3837 32.0105C28.2352 32.2394 28.1506 32.5038 28.1386 32.7764C28.1003 33.6265 28.0007 37.9613 29.9843 39.6692C31.5161 41.0171 34.1507 41.9132 37.7349 38.4897C40.1245 36.1921 41.7021 34.6604 45.2941 38.3672C49.3455 42.5029 54.8368 48.4767 56.1235 49.8553C56.223 50.6211 56.2307 51.747 55.8478 52.1299ZM61.2088 44.9537L55.3576 30.5553L63.2614 26.6035L71.1651 43.7283L61.2088 44.9537Z" fill="black"/>
</svg>
