<svg width="50" height="50" viewBox="-2 0 50 50" fill="none" xmlns="http://www.w3.org/2000/svg">
<path d="M43.2 11.925H34.8975C35.6625 10.7212 36.1125 9.2925 36.1125 7.7625C36.1125 3.48187 32.6306 0 28.35 0C26.0212 0 23.9231 1.035 22.5 2.66625C21.0769 1.035 18.9788 0 16.65 0C12.3694 0 8.8875 3.48187 8.8875 7.7625C8.8875 9.2925 9.33187 10.7212 10.1025 11.925H1.8C0.804375 11.925 0 12.7294 0 13.725V24.975C0 25.2225 0.2025 25.425 0.45 25.425H2.7V44.775C2.7 45.7706 3.50437 46.575 4.5 46.575H40.5C41.4956 46.575 42.3 45.7706 42.3 44.775V25.425H44.55C44.7975 25.425 45 25.2225 45 24.975V13.725C45 12.7294 44.1956 11.925 43.2 11.925ZM24.4125 7.7625C24.4125 5.59125 26.1787 3.825 28.35 3.825C30.5212 3.825 32.2875 5.59125 32.2875 7.7625C32.2875 9.93375 30.5212 11.7 28.35 11.7H24.4125V7.7625ZM16.65 3.825C18.8212 3.825 20.5875 5.59125 20.5875 7.7625V11.7H16.65C14.4787 11.7 12.7125 9.93375 12.7125 7.7625C12.7125 5.59125 14.4787 3.825 16.65 3.825ZM3.825 21.6V15.75H20.5875V21.6H3.825ZM6.525 25.425H20.5875V42.75H6.525V25.425ZM38.475 42.75H24.4125V25.425H38.475V42.75ZM41.175 21.6H24.4125V15.75H41.175V21.6Z" fill="black"/>
</svg>
