<svg width="80" height="80" viewBox="0 0 80 80" fill="none" xmlns="http://www.w3.org/2000/svg">
<circle cx="40" cy="40" r="40" fill="#78C99E"/>
<path d="M63.2 26.925H54.8975C55.6625 25.7212 56.1125 24.2925 56.1125 22.7625C56.1125 18.4819 52.6306 15 48.35 15C46.0212 15 43.9231 16.035 42.5 17.6662C41.0769 16.035 38.9787 15 36.65 15C32.3694 15 28.8875 18.4819 28.8875 22.7625C28.8875 24.2925 29.3319 25.7212 30.1025 26.925H21.8C20.8044 26.925 20 27.7294 20 28.725V39.975C20 40.2225 20.2025 40.425 20.45 40.425H22.7V59.775C22.7 60.7706 23.5044 61.575 24.5 61.575H60.5C61.4956 61.575 62.3 60.7706 62.3 59.775V40.425H64.55C64.7975 40.425 65 40.2225 65 39.975V28.725C65 27.7294 64.1956 26.925 63.2 26.925ZM44.4125 22.7625C44.4125 20.5912 46.1787 18.825 48.35 18.825C50.5212 18.825 52.2875 20.5912 52.2875 22.7625C52.2875 24.9337 50.5212 26.7 48.35 26.7H44.4125V22.7625ZM36.65 18.825C38.8212 18.825 40.5875 20.5912 40.5875 22.7625V26.7H36.65C34.4787 26.7 32.7125 24.9337 32.7125 22.7625C32.7125 20.5912 34.4787 18.825 36.65 18.825ZM23.825 36.6V30.75H40.5875V36.6H23.825ZM26.525 40.425H40.5875V57.75H26.525V40.425ZM58.475 57.75H44.4125V40.425H58.475V57.75ZM61.175 36.6H44.4125V30.75H61.175V36.6Z" fill="black"/>
</svg>
