<svg width="58" height="45" viewBox="0 0 58 45" fill="none" xmlns="http://www.w3.org/2000/svg">
<path d="M28.888 13.8133C32.7159 13.8133 35.819 10.7211 35.819 6.90665C35.819 3.09221 32.7159 0 28.888 0C25.0601 0 21.957 3.09221 21.957 6.90665C21.957 10.7211 25.0601 13.8133 28.888 13.8133Z" fill="black"/>
<path fill-rule="evenodd" clip-rule="evenodd" d="M26.2053 16.0407H31.7947C33.3598 16.0407 34.4777 13.8128 36.9371 16.0407L44.3152 22.9474L52.364 14.9267C55.4942 12.0304 59.9657 16.4863 57.0592 19.6054L46.7746 29.6312C45.4331 30.968 43.6445 30.968 42.303 29.854L37.6078 25.3981V44.1129H20.3922V25.3981L15.697 29.854C14.3555 30.968 12.5669 30.968 11.2254 29.6312L0.940786 19.6054C-1.96575 16.4863 2.50584 12.0304 5.63595 14.9267L13.6848 22.9474L21.0629 16.0407C23.5223 13.8128 24.4166 16.0407 26.2053 16.0407ZM27.7703 31.1908C27.7703 28.9628 28.8882 28.2944 30.4533 26.9577C31.5712 25.6209 30.9004 23.6157 29.1118 23.6157C27.9939 23.6157 27.0996 24.2841 27.0996 25.6209H24.4166C24.6402 22.9474 26.4288 21.3878 29.1118 21.3878C32.6891 21.3878 35.1484 24.9525 32.9126 27.6261C32.0183 28.74 30.2297 29.6312 30.2297 31.1908H27.7703ZM28.8882 34.9783C27.9939 34.9783 27.3232 34.3099 27.3232 33.4187C27.3232 32.3048 27.9939 31.6364 28.8882 31.6364C29.7825 31.6364 30.6768 32.3048 30.6768 33.1959C30.6768 34.3099 30.0061 34.9783 28.8882 34.9783Z" fill="black"/>
</svg>
