<svg width="80" height="80" viewBox="0 0 80 80" fill="none" xmlns="http://www.w3.org/2000/svg">
<circle cx="40" cy="40" r="40" fill="#78C99E"/>
<path d="M39.8879 31.8133C43.7158 31.8133 46.8189 28.7211 46.8189 24.9066C46.8189 21.0922 43.7158 18 39.8879 18C36.0601 18 32.957 21.0922 32.957 24.9066C32.957 28.7211 36.0601 31.8133 39.8879 31.8133Z" fill="black"/>
<path fill-rule="evenodd" clip-rule="evenodd" d="M37.2053 34.0412H42.7947C44.3598 34.0412 45.4777 31.8133 47.9371 34.0412L55.3152 40.9479L63.364 32.9272C66.4942 30.0309 70.9657 34.4868 68.0592 37.6059L57.7746 47.6317C56.4331 48.9685 54.6445 48.9685 53.303 47.8545L48.6078 43.3986V62.1134H31.3922V43.3986L26.697 47.8545C25.3555 48.9685 23.5669 48.9685 22.2254 47.6317L11.9408 37.6059C9.03425 34.4868 13.5058 30.0309 16.636 32.9272L24.6848 40.9479L32.0629 34.0412C34.5223 31.8133 35.4166 34.0412 37.2053 34.0412ZM38.7703 49.1913C38.7703 46.9633 39.8882 46.2949 41.4533 44.9582C42.5712 43.6214 41.9004 41.6162 40.1118 41.6162C38.9939 41.6162 38.0996 42.2846 38.0996 43.6214H35.4166C35.6402 40.9479 37.4288 39.3883 40.1118 39.3883C43.6891 39.3883 46.1484 42.953 43.9126 45.6265C43.0183 46.7405 41.2297 47.6317 41.2297 49.1913H38.7703ZM39.8882 52.9788C38.9939 52.9788 38.3232 52.3104 38.3232 51.4192C38.3232 50.3052 38.9939 49.6369 39.8882 49.6369C40.7825 49.6369 41.6768 50.3052 41.6768 51.1964C41.6768 52.3104 41.0061 52.9788 39.8882 52.9788Z" fill="black"/>
</svg>
