<svg width="58" height="47" viewBox="0 -12 58 47" fill="none" xmlns="http://www.w3.org/2000/svg">
<path d="M6.93096 13.8133C10.7588 13.8133 13.8619 10.7211 13.8619 6.90665C13.8619 3.09221 10.7588 0 6.93096 0C3.1031 0 0 3.09221 0 6.90665C0 10.7211 3.1031 13.8133 6.93096 13.8133Z" fill="black"/>
<path d="M28.931 13.8133C32.7588 13.8133 35.8619 10.7211 35.8619 6.90665C35.8619 3.09221 32.7588 0 28.931 0C25.1031 0 22 3.09221 22 6.90665C22 10.7211 25.1031 13.8133 28.931 13.8133Z" fill="black"/>
<path d="M50.931 13.8133C54.7588 13.8133 57.8619 10.7211 57.8619 6.90665C57.8619 3.09221 54.7588 0 50.931 0C47.1031 0 44 3.09221 44 6.90665C44 10.7211 47.1031 13.8133 50.931 13.8133Z" fill="black"/>
</svg>
