<svg width="80" height="80" viewBox="0 0 80 80" fill="none" xmlns="http://www.w3.org/2000/svg">
<circle cx="40" cy="40" r="40" fill="#78C99E"/>
<path d="M17.931 46.8133C21.7588 46.8133 24.8619 43.7211 24.8619 39.9066C24.8619 36.0922 21.7588 33 17.931 33C14.1031 33 11 36.0922 11 39.9066C11 43.7211 14.1031 46.8133 17.931 46.8133Z" fill="black"/>
<path d="M39.931 46.8133C43.7588 46.8133 46.8619 43.7211 46.8619 39.9066C46.8619 36.0922 43.7588 33 39.931 33C36.1031 33 33 36.0922 33 39.9066C33 43.7211 36.1031 46.8133 39.931 46.8133Z" fill="black"/>
<path d="M61.931 46.8133C65.7588 46.8133 68.8619 43.7211 68.8619 39.9066C68.8619 36.0922 65.7588 33 61.931 33C58.1031 33 55 36.0922 55 39.9066C55 43.7211 58.1031 46.8133 61.931 46.8133Z" fill="black"/>
</svg>
