<svg width="54" height="33" viewBox="0 0 54 33" fill="none" xmlns="http://www.w3.org/2000/svg">
<g clip-path="url(#clip0)">
<path d="M54.0003 22.8955C54.0003 24.4943 50.7488 25.7734 46.796 25.7734C42.8433 25.7734 39.5918 24.4943 39.5918 22.8955V24.3664C39.5918 25.9653 42.8433 27.2443 46.796 27.2443C50.7488 27.2443 54.0003 25.9653 54.0003 24.3664V22.8955Z" fill="black"/>
<path d="M54.0003 25.7734C54.0003 27.3723 50.7488 28.6513 46.796 28.6513C42.8433 28.6513 39.5918 27.3723 39.5918 25.7734V27.2444C39.5918 28.8432 42.8433 30.1223 46.796 30.1223C50.7488 30.1223 54.0003 28.8432 54.0003 27.2444V25.7734Z" fill="black"/>
<path d="M54.0003 28.6514C54.0003 30.2502 50.7488 31.5293 46.796 31.5293C42.8433 31.5293 39.5918 30.2502 39.5918 28.6514V30.1223C39.5918 31.7211 42.8433 33.0002 46.796 33.0002C50.7488 33.0002 54.0003 31.7211 54.0003 30.1223V28.6514Z" fill="black"/>
<path d="M54.0003 20.1455C54.0003 18.4827 50.7488 17.2036 46.796 17.2036C42.8433 17.2036 39.5918 18.4827 39.5918 20.0815V21.5525C39.5918 23.1513 42.8433 24.4304 46.796 24.4304C50.7488 24.4304 54.0003 23.1513 54.0003 21.5525V20.1455Z" fill="black"/>
<path d="M38.2527 28.6514C38.2527 30.2502 35.0013 31.5293 31.0485 31.5293C27.0957 31.5293 23.8442 30.2502 23.8442 28.6514V30.1223C23.8442 31.7211 27.0957 33.0002 31.0485 33.0002C35.0013 33.0002 38.2527 31.7211 38.2527 30.1223V28.6514Z" fill="black"/>
<path d="M38.2527 25.9013C38.2527 24.2385 35.0013 22.9595 31.0485 22.9595C27.0957 22.9595 23.8442 24.2385 23.8442 25.8374V27.3083C23.8442 28.9071 27.0957 30.1862 31.0485 30.1862C35.0013 30.1862 38.2527 28.9071 38.2527 27.3083V25.9013Z" fill="black"/>
<path d="M43.2893 0L0 11.6395L5.7379 33L23.5891 28.2035C23.4616 27.9477 23.3341 27.6279 23.3341 27.3081V25.8372C23.3341 25.3256 23.5254 24.8779 23.9079 24.4942C20.6564 24.1744 17.8512 21.936 16.9587 18.6105C15.8111 14.2616 18.3613 9.91279 22.6328 8.76163C26.9044 7.61047 31.3034 10.1686 32.451 14.4535C33.2798 17.4593 32.196 20.5291 30.0283 22.5116C30.3471 22.5116 30.7296 22.4477 31.0484 22.4477C33.7899 22.4477 36.7226 23.0872 37.9976 24.3023L39.0177 24.0465V22.8953C39.0177 22.7035 39.1452 22.5756 39.2727 22.4477C39.1452 22.1919 39.0177 21.8721 39.0177 21.5523V20.0814C39.0177 17.907 42.9705 16.6919 46.732 16.6919C47.0508 16.6919 47.3695 16.6919 47.6883 16.6919L43.2893 0Z" fill="black"/>
</g>
<defs>
<clipPath id="clip0">
<rect width="54" height="33" fill="white"/>
</clipPath>
</defs>
</svg>
