<svg width="50" height="50" viewBox="0 -5 50 50" fill="none" xmlns="http://www.w3.org/2000/svg">
<g clip-path="url(#clip0)">
<path d="M54.0001 22.8955C54.0001 24.4943 50.7486 25.7734 46.7958 25.7734C42.843 25.7734 39.5916 24.4943 39.5916 22.8955V24.3664C39.5916 25.9653 42.843 27.2443 46.7958 27.2443C50.7486 27.2443 54.0001 25.9653 54.0001 24.3664V22.8955Z" fill="black"/>
<path d="M54.0001 25.7734C54.0001 27.3723 50.7486 28.6513 46.7958 28.6513C42.843 28.6513 39.5916 27.3723 39.5916 25.7734V27.2444C39.5916 28.8432 42.843 30.1223 46.7958 30.1223C50.7486 30.1223 54.0001 28.8432 54.0001 27.2444V25.7734Z" fill="black"/>
<path d="M54.0001 28.6514C54.0001 30.2502 50.7486 31.5293 46.7958 31.5293C42.843 31.5293 39.5916 30.2502 39.5916 28.6514V30.1223C39.5916 31.7211 42.843 33.0002 46.7958 33.0002C50.7486 33.0002 54.0001 31.7211 54.0001 30.1223V28.6514Z" fill="black"/>
<path d="M54.0001 20.145C54.0001 18.4822 50.7486 17.2031 46.7958 17.2031C42.843 17.2031 39.5916 18.4822 39.5916 20.081V21.552C39.5916 23.1508 42.843 24.4299 46.7958 24.4299C50.7486 24.4299 54.0001 23.1508 54.0001 21.552V20.145Z" fill="black"/>
<path d="M38.2525 28.6514C38.2525 30.2502 35.001 31.5293 31.0482 31.5293C27.0955 31.5293 23.844 30.2502 23.844 28.6514V30.1223C23.844 31.7211 27.0955 33.0002 31.0482 33.0002C35.001 33.0002 38.2525 31.7211 38.2525 30.1223V28.6514Z" fill="black"/>
<path d="M38.2525 25.9008C38.2525 24.2381 35.001 22.959 31.0482 22.959C27.0955 22.959 23.844 24.2381 23.844 25.8369V27.3078C23.844 28.9067 27.0955 30.1857 31.0482 30.1857C35.001 30.1857 38.2525 28.9067 38.2525 27.3078V25.9008Z" fill="black"/>
<path d="M43.2893 0L0 11.6395L5.7379 33L23.5891 28.2035C23.4616 27.9477 23.3341 27.6279 23.3341 27.3081V25.8372C23.3341 25.3256 23.5254 24.8779 23.9079 24.4942C20.6564 24.1744 17.8512 21.936 16.9587 18.6105C15.8111 14.2616 18.3613 9.91279 22.6328 8.76163C26.9044 7.61047 31.3034 10.1686 32.451 14.4535C33.2798 17.4593 32.196 20.5291 30.0283 22.5116C30.3471 22.5116 30.7296 22.4477 31.0484 22.4477C33.7899 22.4477 36.7226 23.0872 37.9976 24.3023L39.0177 24.0465V22.8953C39.0177 22.7035 39.1452 22.5756 39.2727 22.4477C39.1452 22.1919 39.0177 21.8721 39.0177 21.5523V20.0814C39.0177 17.907 42.9705 16.6919 46.732 16.6919C47.0508 16.6919 47.3695 16.6919 47.6883 16.6919L43.2893 0Z" fill="black"/>
</g>
<defs>
<clipPath id="clip0">
<rect width="54" height="33" fill="white"/>
</clipPath>
</defs>
</svg>
