<svg width="80" height="80" viewBox="0 0 80 80" fill="none" xmlns="http://www.w3.org/2000/svg">
<circle cx="40" cy="40" r="40" fill="#78C99E"/>
<path d="M67.0002 43.8955C67.0002 45.4943 63.7487 46.7734 59.7959 46.7734C55.8432 46.7734 52.5917 45.4943 52.5917 43.8955V45.3664C52.5917 46.9653 55.8432 48.2443 59.7959 48.2443C63.7487 48.2443 67.0002 46.9653 67.0002 45.3664V43.8955Z" fill="black"/>
<path d="M67.0002 46.7734C67.0002 48.3723 63.7487 49.6513 59.7959 49.6513C55.8432 49.6513 52.5917 48.3723 52.5917 46.7734V48.2444C52.5917 49.8432 55.8432 51.1223 59.7959 51.1223C63.7487 51.1223 67.0002 49.8432 67.0002 48.2444V46.7734Z" fill="black"/>
<path d="M67.0002 49.6514C67.0002 51.2502 63.7487 52.5293 59.7959 52.5293C55.8432 52.5293 52.5917 51.2502 52.5917 49.6514V51.1223C52.5917 52.7211 55.8432 54.0002 59.7959 54.0002C63.7487 54.0002 67.0002 52.7211 67.0002 51.1223V49.6514Z" fill="black"/>
<path d="M67.0002 41.1455C67.0002 39.4827 63.7487 38.2036 59.7959 38.2036C55.8432 38.2036 52.5917 39.4827 52.5917 41.0815V42.5525C52.5917 44.1513 55.8432 45.4304 59.7959 45.4304C63.7487 45.4304 67.0002 44.1513 67.0002 42.5525V41.1455Z" fill="black"/>
<path d="M51.2525 49.6514C51.2525 51.2502 48.001 52.5293 44.0482 52.5293C40.0955 52.5293 36.844 51.2502 36.844 49.6514V51.1223C36.844 52.7211 40.0955 54.0002 44.0482 54.0002C48.001 54.0002 51.2525 52.7211 51.2525 51.1223V49.6514Z" fill="black"/>
<path d="M51.2525 46.9013C51.2525 45.2385 48.001 43.9595 44.0482 43.9595C40.0955 43.9595 36.844 45.2385 36.844 46.8374V48.3083C36.844 49.9071 40.0955 51.1862 44.0482 51.1862C48.001 51.1862 51.2525 49.9071 51.2525 48.3083V46.9013Z" fill="black"/>
<path d="M56.2893 21L13 32.6395L18.7379 54L36.5891 49.2035C36.4616 48.9477 36.3341 48.6279 36.3341 48.3081V46.8372C36.3341 46.3256 36.5254 45.8779 36.9079 45.4942C33.6564 45.1744 30.8512 42.936 29.9587 39.6105C28.8111 35.2616 31.3613 30.9128 35.6328 29.7616C39.9044 28.6105 44.3034 31.1686 45.451 35.4535C46.2798 38.4593 45.196 41.5291 43.0283 43.5116C43.3471 43.5116 43.7296 43.4477 44.0484 43.4477C46.7899 43.4477 49.7226 44.0872 50.9976 45.3023L52.0177 45.0465V43.8953C52.0177 43.7035 52.1452 43.5756 52.2727 43.4477C52.1452 43.1919 52.0177 42.8721 52.0177 42.5523V41.0814C52.0177 38.907 55.9705 37.6919 59.732 37.6919C60.0508 37.6919 60.3695 37.6919 60.6883 37.6919L56.2893 21Z" fill="black"/>
</svg>
