<svg width="80" height="80" viewBox="0 0 80 80" fill="none" xmlns="http://www.w3.org/2000/svg">
<circle cx="40" cy="40" r="40" fill="#78C99E"/>
<g clip-path="url(#clip0)">
<path d="M40.4562 37.2101L43.1428 34.5682C43.498 34.2189 44.0717 34.2189 44.4269 34.5682C44.7821 34.9174 44.7821 35.4816 44.4269 35.8309L41.9498 38.2669C44.9642 37.7295 45.6382 36.5922 46.0389 32.8218C41.9225 33.3323 41.0118 33.8696 40.4562 37.2101Z" fill="black"/>
<path d="M35.8572 39.046L38.5438 41.688C37.9882 38.3385 37.0775 37.8101 32.9611 37.3086C33.3618 41.079 34.0449 42.2163 37.0502 42.7537L34.5731 40.3177C34.2179 39.9685 34.2179 39.4042 34.5731 39.055C34.9282 38.7057 35.502 38.6967 35.8572 39.046Z" fill="black"/>
<path d="M56.3572 56.3487C56.1932 56.1786 56.002 56.0353 55.8016 55.9009V54.7725H37.3052C36.6313 54.7725 36.094 54.3695 36.094 53.8769C36.094 53.3844 36.6404 52.9814 37.3052 52.9814H55.8107V24.0901C56.0111 23.9558 56.2024 23.8125 56.3663 23.6423L58.9436 21.1078C60.3643 19.7107 60.3643 17.436 58.9436 16.0389C57.5684 14.6865 55.1733 14.6865 53.789 16.0389L51.2117 18.5823C51.0933 18.6987 50.9931 18.8152 50.8929 18.9584H28.1253C28.016 18.8152 27.9067 18.6898 27.7974 18.5823L25.2201 16.0478C23.7994 14.6507 21.4862 14.6507 20.0655 16.0478C18.6448 17.4449 18.6448 19.7197 20.0655 21.1168L22.6428 23.6513C22.7521 23.7677 22.8796 23.8662 23.0253 23.9647V26.1141H40.948C41.6037 26.1141 42.141 26.5171 42.141 27.0097C42.141 27.5022 41.6128 27.9052 40.948 27.9052H23.0162V56.0263C22.8796 56.1338 22.7521 56.2323 22.6428 56.3487L20.0655 58.8832C18.6448 60.2803 18.6448 62.5551 20.0655 63.9522C21.4862 65.3493 23.7994 65.3493 25.2201 63.9522L27.7974 61.4177C27.9067 61.3102 28.016 61.1848 28.1162 61.0505H50.8929C50.9931 61.1848 51.1024 61.3102 51.2117 61.4177L53.789 63.9522C54.4811 64.6328 55.3918 65 56.3663 65C57.3407 65 58.2514 64.6239 58.9436 63.9522C60.3643 62.5551 60.3643 60.2803 58.9436 58.8832L56.3572 56.3487ZM31.0395 36.3684C31.0122 36.0998 31.1124 35.84 31.3128 35.652C31.504 35.4639 31.7863 35.3744 32.0504 35.4102L32.442 35.455C35.5931 35.8132 37.4418 36.252 38.5984 37.3625C39.3634 32.5712 40.7932 31.6308 46.5489 30.9771L46.9405 30.9323C47.2137 30.8965 47.4869 30.995 47.6781 31.1831C47.8694 31.3711 47.9787 31.6308 47.9514 31.8995C47.4323 38.0253 46.2028 39.6283 40.6657 40.2642V48.9155C40.6657 49.408 40.2559 49.811 39.755 49.811C39.2541 49.811 38.8443 49.408 38.8443 48.9155V44.7958C32.8792 44.1868 31.586 42.6733 31.0395 36.3684Z" fill="black"/>
</g>
<defs>
<clipPath id="clip0">
<rect width="41" height="50" fill="white" transform="translate(19 15)"/>
</clipPath>
</defs>
</svg>
