<svg width="41" height="50" viewBox="0 0 41 50" fill="none" xmlns="http://www.w3.org/2000/svg">
<path d="M37.3572 41.3487C37.1932 41.1786 37.002 41.0353 36.8016 40.9009V39.7725H18.3052C17.6313 39.7725 17.094 39.3695 17.094 38.8769C17.094 38.3844 17.6404 37.9814 18.3052 37.9814H36.8107V9.09009C37.0111 8.95576 37.2024 8.81247 37.3663 8.64231L39.9436 6.10783C41.3643 4.71073 41.3643 2.43597 39.9436 1.03887C38.5684 -0.313452 36.1733 -0.313452 34.789 1.03887L32.2117 3.5823C32.0933 3.69873 31.9931 3.81515 31.8929 3.95845H9.12528C9.01599 3.81515 8.90671 3.68977 8.79742 3.5823L6.22012 1.04782C4.79942 -0.349275 2.48623 -0.349275 1.06553 1.04782C-0.355175 2.44492 -0.355175 4.71968 1.06553 6.11678L3.64283 8.65126C3.75211 8.76769 3.87961 8.8662 4.02532 8.96471V11.1141H21.948C22.6037 11.1141 23.141 11.5171 23.141 12.0097C23.141 12.5022 22.6128 12.9052 21.948 12.9052H4.01621V41.0263C3.87961 41.1338 3.75211 41.2323 3.64283 41.3487L1.06553 43.8832C-0.355175 45.2803 -0.355175 47.5551 1.06553 48.9522C2.48623 50.3493 4.79942 50.3493 6.22012 48.9522L8.79742 46.4177C8.90671 46.3102 9.01599 46.1848 9.11617 46.0505H31.8929C31.9931 46.1848 32.1024 46.3102 32.2117 46.4177L34.789 48.9522C35.4811 49.6328 36.3918 50 37.3663 50C38.3407 50 39.2514 49.6239 39.9436 48.9522C41.3643 47.5551 41.3643 45.2803 39.9436 43.8832L37.3572 41.3487ZM12.0395 21.3684C12.0122 21.0998 12.1124 20.84 12.3127 20.652C12.504 20.4639 12.7863 20.3744 13.0504 20.4102L13.442 20.455C16.5931 20.8132 18.4418 21.252 19.5984 22.3625C20.3634 17.5712 21.7932 16.6308 27.5489 15.9771L27.9405 15.9323C28.2137 15.8965 28.4869 15.995 28.6781 16.1831C28.8694 16.3711 28.9787 16.6308 28.9514 16.8995C28.4323 23.0253 27.2028 24.6283 21.6657 25.2642V33.9155C21.6657 34.408 21.2559 34.811 20.755 34.811C20.2541 34.811 19.8443 34.408 19.8443 33.9155V29.7958C13.8792 29.1868 12.586 27.6733 12.0395 21.3684Z" fill="black"/>
</svg>
