<svg width="45" height="49" viewBox="-4 -1 45 49" fill="none" xmlns="http://www.w3.org/2000/svg">
    <g clip-path="url(#clip0)">
        <path d="M9.50456 30.1021L14.4595 27.1275L1.65771 4.04443C1.79285 8.64229 3.00907 18.0914 9.50456 30.1021Z"
              fill="black"/>
        <path d="M39.9096 7.5446L39.8556 7.64781L33.0988 19.8368C32.3511 21.1786 31.1529 22.0794 29.8105 22.4454C28.9006 22.6987 27.9367 22.6894 27.0087 22.4266C26.5763 22.3046 26.1529 22.1264 25.7475 21.8824L25.6123 21.8073L25.5763 21.7792L24.0087 24.6036L24.6394 24.9789L19.9367 33.4521L26.9277 46.0446C27.4502 46.9829 27.1349 48.184 26.243 48.7188C25.3421 49.2631 24.1889 48.9441 23.6754 48.0057L17.7835 37.3744L12.0177 47.7805C11.5222 48.6719 10.4231 48.9722 9.56729 48.4655C8.71144 47.9588 8.41414 46.814 8.90963 45.9132L15.7114 33.6398L15.1979 32.7108L15.8646 32.3073L14.1889 29.2859L13.5222 29.6894L8.89162 32.4762L8.46819 31.7349C-0.739016 15.1264 -0.117393 2.85291 0.0898139 0.629048C0.0988229 0.591514 0.116841 0.553981 0.12585 0.516447C0.197922 0.366313 0.315039 0.225563 0.468192 0.131729C0.882607 -0.112239 1.38711 0.000361583 1.60333 0.38508L16.7745 27.7376L16.1168 28.1317L17.4412 30.5245L21.5493 23.121L22.1799 23.4963L23.7475 20.6719L23.7114 20.6532L23.5763 20.5781C23.1709 20.3341 22.8105 20.0433 22.4952 19.7148C21.8105 19.0111 21.324 18.1384 21.0808 17.2001C20.7204 15.8113 20.8646 14.2725 21.6033 12.9307L28.3601 0.741648L28.4141 0.647815C28.6213 0.272479 29.0988 0.159879 29.4772 0.38508C29.8556 0.619664 29.9997 1.1076 29.7925 1.47355L29.7385 1.57677L22.9817 13.7658C22.1799 15.2202 22.3691 16.9843 23.324 18.2135L31.9006 2.74031C32.1078 2.36497 32.5673 2.24299 32.9277 2.44942C33.288 2.66524 33.4141 3.14379 33.2069 3.51913L24.5042 19.2269L26.4231 20.3811L35.1259 4.67328C35.3331 4.29795 35.7925 4.17596 36.1529 4.3824C36.5132 4.59822 36.6394 5.07677 36.4322 5.4521L27.8466 20.9253C29.3511 21.1693 30.9096 20.4561 31.7204 19.0111L38.4772 6.82208L38.5313 6.71886C38.7385 6.34352 39.2159 6.23092 39.5943 6.45612C39.9727 6.68133 40.1168 7.16926 39.9096 7.5446Z"
              fill="black"/>
    </g>
    <defs>
        <clipPath id="clip0">
            <rect width="40" height="49" fill="white"/>
        </clipPath>
    </defs>
</svg>
