<svg width="80" height="80" viewBox="0 0 80 80" fill="none" xmlns="http://www.w3.org/2000/svg">
<circle cx="40" cy="40" r="40" fill="#78C99E"/>
<path d="M32.5046 45.1021L37.4596 42.1275L24.6578 19.0444C24.7929 23.6423 26.0091 33.0914 32.5046 45.1021Z" fill="black"/>
<path d="M62.9096 22.5446L62.8556 22.6478L56.0988 34.8368C55.3511 36.1786 54.1529 37.0794 52.8105 37.4454C51.9006 37.6987 50.9367 37.6894 50.0087 37.4266C49.5763 37.3046 49.1529 37.1264 48.7475 36.8824L48.6123 36.8073L48.5763 36.7792L47.0087 39.6036L47.6394 39.9789L42.9367 48.4521L49.9277 61.0446C50.4502 61.9829 50.1349 63.184 49.243 63.7189C48.3421 64.2631 47.1889 63.9441 46.6754 63.0057L40.7835 52.3744L35.0177 62.7805C34.5222 63.6719 33.4231 63.9722 32.5673 63.4655C31.7114 62.9588 31.4141 61.814 31.9096 60.9132L38.7114 48.6398L38.1979 47.7108L38.8646 47.3073L37.1889 44.2859L36.5222 44.6894L31.8916 47.4762L31.4682 46.7349C22.261 30.1264 22.8826 17.8529 23.0898 15.629C23.0988 15.5915 23.1168 15.554 23.1258 15.5164C23.1979 15.3663 23.315 15.2256 23.4682 15.1317C23.8826 14.8878 24.3871 15.0004 24.6033 15.3851L39.7745 42.7376L39.1168 43.1317L40.4412 45.5245L44.5493 38.121L45.1799 38.4963L46.7475 35.6719L46.7114 35.6532L46.5763 35.5781C46.1709 35.3341 45.8105 35.0433 45.4952 34.7148C44.8105 34.0111 44.324 33.1384 44.0808 32.2001C43.7204 30.8114 43.8646 29.2725 44.6033 27.9307L51.3601 15.7416L51.4141 15.6478C51.6213 15.2725 52.0988 15.1599 52.4772 15.3851C52.8556 15.6197 52.9997 16.1076 52.7925 16.4736L52.7385 16.5768L45.9817 28.7658C45.1799 30.2202 45.3691 31.9843 46.324 33.2135L54.9006 17.7403C55.1078 17.365 55.5673 17.243 55.9277 17.4494C56.288 17.6652 56.4141 18.1438 56.2069 18.5191L47.5042 34.2269L49.4231 35.3811L58.1259 19.6733C58.3331 19.2979 58.7925 19.176 59.1529 19.3824C59.5132 19.5982 59.6394 20.0768 59.4322 20.4521L50.8466 35.9253C52.3511 36.1693 53.9096 35.4561 54.7204 34.0111L61.4772 21.8221L61.5313 21.7189C61.7385 21.3435 62.2159 21.2309 62.5943 21.4561C62.9727 21.6813 63.1168 22.1693 62.9096 22.5446Z" fill="black"/>
</svg>
