<svg width="80" height="80" viewBox="0 0 80 80" fill="none" xmlns="http://www.w3.org/2000/svg">
<circle cx="40" cy="40" r="40" fill="#78C99E"/>
<path d="M20.3945 29.3307L18.6398 27.5936C17.9427 26.9111 17.5667 26.0038 17.5667 25.0344C17.5667 23.8091 18.1855 22.7233 19.1333 22.0719C19.1333 22.1184 19.1333 22.1572 19.1333 22.2037C19.1333 23.4833 20.1908 24.5303 21.4833 24.5303C22.7758 24.5303 23.8333 23.4833 23.8333 22.2037C23.8333 21.0249 22.9403 20.0478 21.7888 19.8927L23.6062 18.0935L22.4938 17L20.4728 19.0086C20.136 19.3343 19.8618 19.7066 19.6503 20.1098C17.5353 20.7768 16 22.7311 16 25.0344C16 26.4148 16.5405 27.7099 17.5275 28.6871L19.2822 30.4242C19.6347 30.0365 20.0028 29.672 20.3945 29.3307ZM20.794 21.4515C20.935 21.436 21.076 21.4282 21.217 21.4282H21.4833C21.9142 21.4282 22.2667 21.7772 22.2667 22.2037C22.2667 22.6303 21.9142 22.9792 21.4833 22.9792C21.0525 22.9792 20.7 22.6303 20.7 22.2037C20.7 21.9478 20.7313 21.6919 20.794 21.4515Z" fill="black"/>
<path d="M45.7666 28.4081V32.0685L47.4978 31.642C49.2446 31.2077 50.4666 29.6644 50.4666 27.8807V26.4383C49.7068 26.2056 48.9156 26.0815 48.1166 26.0815C46.8241 26.0815 45.7666 27.1207 45.7666 28.4081Z" fill="black"/>
<path d="M55.95 44.6938C54.6575 44.6938 53.6 45.7408 53.6 47.0204C53.6 47.2918 53.6626 47.5478 53.7488 47.7959H58.1433C58.2295 47.5478 58.2921 47.2918 58.2921 47.0204C58.3 45.733 57.2425 44.6938 55.95 44.6938Z" fill="black"/>
<path d="M60.6499 44.6938C60.172 44.6938 59.7177 44.8412 59.3339 45.1049C59.6629 45.671 59.8665 46.3147 59.8665 47.0204C59.8665 47.2841 59.8352 47.54 59.7804 47.7959H62.851C62.9372 47.5478 62.9999 47.2918 62.9999 47.0204C62.9999 45.733 61.9424 44.6938 60.6499 44.6938Z" fill="black"/>
<path d="M51.4615 53.9998H63V49.3467H53.6C53.6 51.2002 52.7697 52.8598 51.4615 53.9998Z" fill="black"/>
<path d="M42.6334 49.3467C42.6334 51.9136 44.7406 53.9998 47.3334 53.9998C49.9263 53.9998 52.0334 51.9136 52.0334 49.3467H42.6334Z" fill="black"/>
<path d="M47.3333 47.0204C47.3333 46.7567 47.3568 46.493 47.4116 46.2448H47.02C42.8762 46.2448 39.5 42.9024 39.5 38.7999C39.5 38.0011 39.6332 37.21 39.8838 36.4423L40.3225 35.1394L41.8108 35.628L41.3722 36.9231C41.1685 37.5358 41.0667 38.1562 41.0667 38.7921C41.0667 42.0415 43.7378 44.686 47.02 44.686H48.1323C48.8452 43.7477 49.9732 43.135 51.2422 43.135C52.1038 43.135 52.9263 43.4142 53.6 43.9183C54.258 43.4297 55.057 43.135 55.9422 43.135C56.7255 43.135 57.454 43.3677 58.065 43.7632C58.1982 43.5771 58.2922 43.3677 58.2922 43.135C58.2922 42.8403 58.1747 42.5689 57.971 42.3595L55.1667 39.5831V32.1382C55.1667 30.4941 54.4303 28.943 53.1535 27.8883C52.801 27.5936 52.425 27.3377 52.0333 27.1128V27.8728C52.0333 30.37 50.3257 32.5337 47.8817 33.1386L44.2 34.0537V28.4079C44.2 28.2993 44.2235 28.1985 44.2313 28.0977H44.2235C42.2338 29.0826 39.9152 29.4161 37.7218 29.0206L31.04 27.8185C30.3663 27.6944 29.677 27.6324 28.9955 27.6324C22.6975 27.6324 17.5667 32.7043 17.5667 38.9472C17.5667 40.5913 17.9113 42.1889 18.585 43.6856L19.4153 45.5469C20.2692 47.4391 20.7 49.4555 20.7 51.5339V54H23.8333V50.1224C23.8333 48.8428 24.8908 47.7959 26.1833 47.7959H32.45C33.7425 47.7959 34.8 48.8428 34.8 50.1224V54H37.9333V50.1224C37.9333 48.8428 38.9908 47.7959 40.2833 47.7959H41.0667H41.85H47.4195C47.3647 47.54 47.3333 47.284 47.3333 47.0204ZM51.25 34.6121C52.1117 34.6121 52.8167 35.31 52.8167 36.1631C52.8167 37.0162 52.1117 37.7141 51.25 37.7141C50.3883 37.7141 49.6833 37.0162 49.6833 36.1631C49.6833 35.31 50.3883 34.6121 51.25 34.6121Z" fill="black"/>
<path d="M51.25 44.6938C49.9575 44.6938 48.9 45.7408 48.9 47.0204C48.9 47.2918 48.9627 47.5478 49.0489 47.7959H52.1195C52.0647 47.54 52.0334 47.2841 52.0334 47.0204C52.0334 46.3224 52.237 45.671 52.566 45.1049C52.1822 44.8412 51.7279 44.6938 51.25 44.6938Z" fill="black"/>
</svg>
