<svg width="56" height="48" viewBox="0 0 56 48" fill="none" xmlns="http://www.w3.org/2000/svg">
<path d="M36.6896 9.88304V14.1042C36.6896 14.1042 34.1278 14.1183 34.1149 14.1042V9.88304H30.2528C30.2528 9.88304 30.2657 7.07363 30.2528 7.05951H34.1149V2.82422H36.6896V7.05951H40.5517V9.88304H36.6896ZM32.8276 15.5301V11.2948H28.9655V7.05951H18.6666C17.2505 7.05951 16.0919 8.3301 16.0919 9.88304V26.8242C16.0919 28.3772 17.2505 29.6477 18.6666 29.6477H34.1149C35.531 29.6477 36.6896 28.3772 36.6896 26.8242V15.5301H32.8276ZM18.6666 26.8242L22.5287 21.1772L25.1034 25.4125L28.9655 19.7654L34.1149 26.8242H18.6666Z" fill="#66738A"/>
<path d="M13.2168 42.8584H9.73633L8.54102 45.8818H7.87891L11.3242 37.2803H11.7051L15.0801 45.8818H14.4062L13.2168 42.8584ZM9.95312 42.3193H13.0176L11.8516 39.2314C11.7539 38.9893 11.6367 38.6533 11.5 38.2236C11.3945 38.5986 11.2793 38.9385 11.1543 39.2432L9.95312 42.3193ZM18.4844 39.3896C18.9453 39.3896 19.3438 39.4736 19.6797 39.6416C20.0156 39.8096 20.3164 40.0967 20.582 40.5029H20.6172C20.5938 40.0107 20.582 39.5283 20.582 39.0557V36.7646H21.1562V45.8818H20.7754L20.6289 44.9092H20.582C20.0977 45.6357 19.4023 45.999 18.4961 45.999C17.6172 45.999 16.9453 45.7256 16.4805 45.1787C16.0156 44.6318 15.7832 43.835 15.7832 42.7881C15.7832 41.6865 16.0137 40.8447 16.4746 40.2627C16.9355 39.6807 17.6055 39.3896 18.4844 39.3896ZM18.4844 39.917C17.7891 39.917 17.2656 40.1611 16.9141 40.6494C16.5664 41.1377 16.3926 41.8467 16.3926 42.7764C16.3926 44.5811 17.0938 45.4834 18.4961 45.4834C19.2148 45.4834 19.7422 45.2744 20.0781 44.8564C20.4141 44.4385 20.582 43.749 20.582 42.7881V42.6885C20.582 41.7041 20.416 40.9971 20.084 40.5674C19.7559 40.1338 19.2227 39.917 18.4844 39.917ZM25.6328 39.3896C26.0938 39.3896 26.4922 39.4736 26.8281 39.6416C27.1641 39.8096 27.4648 40.0967 27.7305 40.5029H27.7656C27.7422 40.0107 27.7305 39.5283 27.7305 39.0557V36.7646H28.3047V45.8818H27.9238L27.7773 44.9092H27.7305C27.2461 45.6357 26.5508 45.999 25.6445 45.999C24.7656 45.999 24.0938 45.7256 23.6289 45.1787C23.1641 44.6318 22.9316 43.835 22.9316 42.7881C22.9316 41.6865 23.1621 40.8447 23.623 40.2627C24.084 39.6807 24.7539 39.3896 25.6328 39.3896ZM25.6328 39.917C24.9375 39.917 24.4141 40.1611 24.0625 40.6494C23.7148 41.1377 23.541 41.8467 23.541 42.7764C23.541 44.5811 24.2422 45.4834 25.6445 45.4834C26.3633 45.4834 26.8906 45.2744 27.2266 44.8564C27.5625 44.4385 27.7305 43.749 27.7305 42.7881V42.6885C27.7305 41.7041 27.5645 40.9971 27.2324 40.5674C26.9043 40.1338 26.3711 39.917 25.6328 39.917ZM35.9336 40.0166H34.4336V45.8818H33.8535V40.0166H32.6699V39.6768L33.8535 39.46V38.9678C33.8535 38.1865 33.9961 37.6143 34.2812 37.251C34.5703 36.8838 35.041 36.7002 35.6934 36.7002C36.0449 36.7002 36.3965 36.7529 36.748 36.8584L36.6133 37.3623C36.3008 37.2646 35.9902 37.2158 35.6816 37.2158C35.2285 37.2158 34.9062 37.3506 34.7148 37.6201C34.5273 37.8857 34.4336 38.3193 34.4336 38.9209V39.5127H35.9336V40.0166ZM37.7441 45.8818H37.1641V39.5127H37.7441V45.8818ZM37.082 37.7432C37.082 37.3682 37.2051 37.1807 37.4512 37.1807C37.5723 37.1807 37.666 37.2295 37.7324 37.3271C37.8027 37.4248 37.8379 37.5635 37.8379 37.7432C37.8379 37.9189 37.8027 38.0576 37.7324 38.1592C37.666 38.2607 37.5723 38.3115 37.4512 38.3115C37.2051 38.3115 37.082 38.1221 37.082 37.7432ZM40.4629 45.8818H39.8828V36.7646H40.4629V45.8818ZM45.1738 45.999C44.248 45.999 43.5254 45.7139 43.0059 45.1436C42.4902 44.5732 42.2324 43.7744 42.2324 42.7471C42.2324 41.7314 42.4824 40.9189 42.9824 40.3096C43.4824 39.6963 44.1562 39.3896 45.0039 39.3896C45.7539 39.3896 46.3457 39.6514 46.7793 40.1748C47.2129 40.6982 47.4297 41.4092 47.4297 42.3076V42.7764H42.8418C42.8496 43.6514 43.0527 44.3193 43.4512 44.7803C43.8535 45.2412 44.4277 45.4717 45.1738 45.4717C45.5371 45.4717 45.8555 45.4463 46.1289 45.3955C46.4062 45.3447 46.7559 45.2354 47.1777 45.0674V45.5947C46.8184 45.751 46.4863 45.8564 46.1816 45.9111C45.877 45.9697 45.541 45.999 45.1738 45.999ZM45.0039 39.9053C44.3906 39.9053 43.8984 40.1084 43.5273 40.5146C43.1562 40.917 42.9395 41.499 42.877 42.2607H46.8145C46.8145 41.5225 46.6543 40.9463 46.334 40.5322C46.0137 40.1143 45.5703 39.9053 45.0039 39.9053Z" fill="#66738A"/>
</svg>
