<svg width="44" height="40" viewBox="0 0 44 40" fill="none" xmlns="http://www.w3.org/2000/svg">
<path d="M29.3302 0.019533C29.1976 0.0193156 29.0675 0.0554902 28.9538 0.124178C28.8401 0.192866 28.7471 0.291476 28.6847 0.409435C28.6223 0.527393 28.593 0.66025 28.5998 0.793761C28.6066 0.927271 28.6493 1.0564 28.7233 1.1673C29.4247 2.0666 29.8025 3.17947 29.7948 4.32365C29.6812 5.12799 29.3895 5.89621 28.9414 6.57136C28.3938 7.38709 28.0014 8.2985 27.7845 9.25904C27.61 10.5854 27.9497 11.9285 28.7328 13.0084C28.8346 13.1746 28.9977 13.2931 29.1863 13.3379C29.3748 13.3828 29.5732 13.3503 29.7379 13.2475C29.9027 13.1448 30.0202 12.9802 30.0646 12.7901C30.1091 12.6 30.0769 12.3998 29.975 12.2337C29.3902 11.4552 29.1315 10.4765 29.2543 9.50772C29.44 8.72399 29.761 7.97934 30.2026 7.30784C30.7675 6.44654 31.1247 5.46388 31.2457 4.43843C31.2869 2.96007 30.825 1.51205 29.9371 0.335168C29.8716 0.234131 29.7813 0.151943 29.6749 0.0966234C29.5685 0.0413038 29.4498 0.0147429 29.3302 0.019533V0.019533ZM33.8535 1.1673C34.5596 2.06398 34.938 3.1786 34.925 4.32365C34.8156 5.12908 34.5235 5.89823 34.0716 6.57136C33.5279 7.38929 33.1359 8.29993 32.9147 9.25904C32.7441 10.5851 33.0834 11.9268 33.8629 13.0084C33.9648 13.1746 34.1279 13.2931 34.3164 13.3379C34.5049 13.3828 34.7034 13.3503 34.8681 13.2475C35.0328 13.1448 35.1504 12.9802 35.1948 12.7901C35.2393 12.6 35.207 12.3998 35.1052 12.2337C34.5294 11.4508 34.2717 10.4758 34.3845 9.50772C34.5744 8.72541 34.895 7.98146 35.3328 7.30784C35.8976 6.44654 36.2549 5.46388 36.3759 4.43843C36.4213 2.961 35.9627 1.51259 35.0767 0.335168C35.0136 0.230588 34.9242 0.144604 34.8177 0.0858457C34.7112 0.0270873 34.5912 -0.00237906 34.4698 0.00040357C34.3334 -0.00415301 34.1985 0.0299517 34.0803 0.0988477C33.9621 0.167744 33.8654 0.268672 33.8012 0.390179C33.7371 0.511686 33.7079 0.648907 33.7172 0.786268C33.7264 0.92363 33.7736 1.05563 33.8535 1.1673V1.1673ZM23.5931 1.1673C24.2884 2.0693 24.6625 3.1811 24.6552 4.32365C24.5466 5.12778 24.258 5.89644 23.8112 6.57136C23.2604 7.38648 22.8649 8.2979 22.6448 9.25904C22.4852 10.5874 22.8234 11.9281 23.5931 13.018C23.6442 13.1002 23.7108 13.1716 23.7892 13.2279C23.8676 13.2842 23.9562 13.3243 24.0499 13.3461C24.1437 13.3679 24.2408 13.3708 24.3357 13.3547C24.4306 13.3386 24.5215 13.3038 24.603 13.2523C24.6846 13.2008 24.7553 13.1336 24.8111 13.0545C24.8669 12.9755 24.9068 12.8861 24.9283 12.7915C24.9499 12.6969 24.9528 12.599 24.9369 12.5033C24.9209 12.4075 24.8864 12.3159 24.8353 12.2337C24.2596 11.4508 24.0018 10.4758 24.1147 9.50772C24.3052 8.72564 24.6259 7.98181 25.0629 7.30784C25.6278 6.44654 25.985 5.46388 26.106 4.43843C26.1499 2.96122 25.6915 1.51331 24.8069 0.335168C24.7403 0.235898 24.6495 0.155594 24.5432 0.101988C24.4369 0.0483825 24.3187 0.0232798 24.2 0.0290974C24.0677 0.0267395 23.9372 0.0611849 23.823 0.128656C23.7088 0.196127 23.6153 0.294017 23.5526 0.411591C23.4899 0.529165 23.4605 0.661882 23.4676 0.795187C23.4748 0.928491 23.5182 1.05723 23.5931 1.1673V1.1673ZM14.0535 8.88601C13.8543 9.20165 13.6741 9.50772 13.5224 9.84249C13.1783 9.75444 12.8248 9.70947 12.4698 9.70858C11.4075 9.70382 10.379 10.0852 9.57277 10.783C8.76651 11.4807 8.23645 12.4481 8.07966 13.5079C7.92287 14.5677 8.14985 15.649 8.71903 16.5537C9.28821 17.4585 10.1615 18.1261 11.1789 18.4344C12.1964 18.7427 13.2898 18.6709 14.2591 18.2323C15.2284 17.7937 16.0085 17.0175 16.4567 16.046C16.9049 15.0745 16.9911 13.9727 16.6995 12.9423C16.4079 11.9119 15.7581 11.022 14.869 10.4355C14.9923 10.2059 15.125 9.97639 15.2767 9.74684C15.8161 8.82777 16.5851 8.06758 17.507 7.54223C18.4289 7.01687 19.4714 6.74476 20.5302 6.75309C20.6337 6.76497 20.7385 6.75465 20.8378 6.72282C20.9371 6.69099 21.0286 6.63836 21.1064 6.56838C21.1841 6.49839 21.2463 6.41264 21.2889 6.31672C21.3314 6.22081 21.3535 6.11691 21.3535 6.01182C21.3535 5.90673 21.3314 5.80283 21.2889 5.70692C21.2463 5.611 21.1841 5.52525 21.1064 5.45527C21.0286 5.38528 20.9371 5.33265 20.8378 5.30082C20.7385 5.26899 20.6337 5.25868 20.5302 5.27056C19.2359 5.27319 17.9633 5.60607 16.8309 6.23822C15.6985 6.87037 14.743 7.78123 14.0535 8.88601V8.88601ZM19.8 16.3274V28.9049C19.8025 30.0812 20.2669 31.2086 21.0915 32.0403C21.9161 32.872 23.0338 33.3404 24.2 33.343H33.6828C34.8489 33.3404 35.9666 32.872 36.7913 32.0403C37.6159 31.2086 38.0803 30.0812 38.0828 28.9049V28.1589H39.2397C39.7713 28.1527 40.2966 28.0404 40.785 27.8285C41.2735 27.6167 41.7156 27.3094 42.0858 26.9244C42.456 26.5395 42.7471 26.0844 42.9421 25.5855C43.1372 25.0865 43.2325 24.5536 43.2224 24.0174V21.9514C43.2325 21.4152 43.1372 20.8822 42.9421 20.3833C42.7471 19.8844 42.456 19.4293 42.0858 19.0444C41.7156 18.6594 41.2735 18.3521 40.785 18.1402C40.2966 17.9284 39.7713 17.8161 39.2397 17.8099H38.1302V16.3274C38.1302 16.2306 38.1113 16.1349 38.0746 16.0455C38.0379 15.9562 37.9841 15.875 37.9163 15.8066C37.8485 15.7382 37.768 15.6839 37.6794 15.6469C37.5908 15.6099 37.4959 15.5909 37.4 15.5909H20.4543C20.2741 15.6099 20.1073 15.6958 19.9864 15.8319C19.8655 15.968 19.799 16.1446 19.8 16.3274V16.3274ZM2.93019 17.0638C2.545 17.0636 2.17469 17.2139 1.89707 17.4832C1.61945 17.7525 1.45612 18.1199 1.4414 18.5081V21.4636C1.44388 21.856 1.59954 22.2317 1.87465 22.5091C2.14975 22.7866 2.52217 22.9436 2.91122 22.9461H18.3302V17.0638H17.5621C17.0488 17.9617 16.3101 18.7074 15.4203 19.2258C14.5305 19.7443 13.5211 20.0172 12.4935 20.0172C11.466 20.0172 10.4565 19.7443 9.56678 19.2258C8.67702 18.7074 7.93833 17.9617 7.42501 17.0638H2.93019ZM34.4509 20.7558C34.5488 20.7545 34.646 20.7729 34.7368 20.8098C34.8277 20.8468 34.9103 20.9015 34.98 20.9709C35.0497 21.0403 35.105 21.123 35.1428 21.2141C35.1806 21.3053 35.2 21.4031 35.2 21.5019V24.4574C35.2118 24.5618 35.2016 24.6675 35.17 24.7677C35.1384 24.8678 35.0863 24.9601 35.0169 25.0385C34.9475 25.1169 34.8625 25.1796 34.7674 25.2226C34.6723 25.2655 34.5693 25.2877 34.4651 25.2877C34.3609 25.2877 34.2579 25.2655 34.1628 25.2226C34.0677 25.1796 33.9827 25.1169 33.9133 25.0385C33.8439 24.9601 33.7917 24.8678 33.7602 24.7677C33.7286 24.6675 33.7184 24.5618 33.7302 24.4574V21.5019C33.7276 21.4048 33.7444 21.3082 33.7795 21.2178C33.8146 21.1274 33.8673 21.045 33.9344 20.9754C34.0016 20.9059 34.0819 20.8506 34.1706 20.8129C34.2593 20.7752 34.3546 20.7558 34.4509 20.7558V20.7558ZM38.1302 20.7558H39.0784C39.2572 20.7715 39.4311 20.8225 39.5902 20.9059C39.7494 20.9894 39.8907 21.1037 40.0061 21.2422C40.1214 21.3808 40.2086 21.5409 40.2626 21.7135C40.3166 21.8861 40.3363 22.0677 40.3207 22.2479V23.7209C40.3497 24.0818 40.2366 24.4398 40.0059 24.7173C39.7752 24.9947 39.4454 25.1694 39.0879 25.2034H38.1397L38.1302 20.7558ZM1.69743 25.4043C1.62707 25.4702 1.57028 25.5495 1.53029 25.6376C1.49031 25.7256 1.46792 25.8208 1.46439 25.9176C1.46087 26.0144 1.47629 26.111 1.50977 26.2018C1.54324 26.2926 1.59412 26.3758 1.6595 26.4468C1.72488 26.5178 1.80347 26.5751 1.8908 26.6154C1.97813 26.6557 2.07247 26.6783 2.16845 26.6819C2.26443 26.6854 2.36017 26.6699 2.45019 26.6361C2.54021 26.6023 2.62276 26.551 2.69312 26.4851C2.95619 26.2405 3.23496 26.0136 3.5276 25.806C3.90064 25.5343 4.31781 25.3304 4.76036 25.2034C4.89312 25.2034 5.14915 25.3756 5.54743 25.7486C5.76626 26.02 6.03674 26.2444 6.34292 26.4087C6.6491 26.5729 6.98478 26.6737 7.33019 26.7051C7.67559 26.6737 8.01127 26.5729 8.31745 26.4087C8.62363 26.2444 8.89411 26.02 9.11294 25.7486C9.51122 25.3756 9.76725 25.2034 9.90001 25.2034C10.0328 25.2034 10.2888 25.3756 10.6871 25.7486C10.9052 26.0208 11.1755 26.2458 11.4818 26.4101C11.7881 26.5744 12.1242 26.6748 12.4698 26.7051C12.8139 26.6735 13.1481 26.5726 13.4527 26.4083C13.7573 26.244 14.0261 26.0197 14.2431 25.7486C14.6414 25.3756 14.8974 25.2034 15.0302 25.2034C15.1629 25.2034 15.419 25.3756 15.8173 25.7486C16.0361 26.02 16.3066 26.2444 16.6127 26.4087C16.9189 26.5729 17.2546 26.6737 17.6 26.7051C17.8521 26.7041 18.1011 26.6487 18.3302 26.5425V24.6965C17.9698 25.0312 17.7233 25.2034 17.6 25.2034C17.4767 25.2034 17.2112 25.0312 16.8129 24.6582C16.593 24.388 16.3223 24.1644 16.0163 24.0003C15.7104 23.8361 15.3752 23.7347 15.0302 23.7017C14.6852 23.7347 14.35 23.8361 14.044 24.0003C13.7381 24.1644 13.4673 24.388 13.2474 24.6582C12.8586 25.0312 12.5931 25.2034 12.4698 25.2034C12.3466 25.2034 12.0716 25.0312 11.6828 24.6582C11.4629 24.388 11.1921 24.1644 10.8862 24.0003C10.5802 23.8361 10.245 23.7347 9.90001 23.7017C9.55499 23.7347 9.21984 23.8361 8.91387 24.0003C8.6079 24.1644 8.33716 24.388 8.11726 24.6582C7.71898 25.0312 7.46294 25.2034 7.33019 25.2034C7.19743 25.2034 6.94139 25.0312 6.54312 24.6582C6.32428 24.3869 6.05381 24.1624 5.74763 23.9982C5.44145 23.8339 5.10576 23.7331 4.76036 23.7017C3.99315 23.7657 3.26593 24.0738 2.68364 24.5817C2.33899 24.8359 2.00967 25.1105 1.69743 25.4043V25.4043ZM35.2 28.1589C35.1795 28.341 35.0932 28.5091 34.9577 28.6311C34.8221 28.7532 34.6468 28.8206 34.4651 28.8206C34.2834 28.8206 34.1081 28.7532 33.9725 28.6311C33.837 28.5091 33.7507 28.341 33.7302 28.1589V27.4224C33.7244 27.2389 33.7877 27.06 33.9073 26.9216C34.0269 26.7832 34.194 26.6956 34.375 26.6764H34.4509C34.6496 26.6764 34.8401 26.756 34.9806 26.8977C35.1211 27.0394 35.2 27.2316 35.2 27.432V28.1589ZM2.95864 27.4224C2.762 27.4173 2.56633 27.4518 2.38307 27.5239C2.19982 27.596 2.03266 27.7043 1.89138 27.8423C1.7501 27.9804 1.63754 28.1455 1.56027 28.3279C1.483 28.5104 1.44259 28.7065 1.4414 28.9049V31.8987C1.44388 32.2911 1.59954 32.6667 1.87465 32.9442C2.14975 33.2217 2.52217 33.3787 2.91122 33.3812H20.3405C19.7125 32.8276 19.2085 32.1456 18.8618 31.3804C18.5152 30.6152 18.334 29.7844 18.3302 28.9432V27.4224H2.95864ZM1.65026e-05 35.562C0.00252174 36.7382 0.466897 37.8656 1.29151 38.6973C2.11613 39.5291 3.23383 39.9975 4.40001 40H39.6C40.7654 39.995 41.8817 39.5258 42.7058 38.6946C43.5298 37.8634 43.995 36.7375 44 35.562C44 35.3641 43.9221 35.1744 43.7834 35.0344C43.6446 34.8945 43.4565 34.8159 43.2603 34.8159H0.654327C0.4733 34.8371 0.306406 34.925 0.185656 35.0627C0.0649059 35.2004 -0.00120025 35.3782 1.65026e-05 35.562Z" fill="black"/>
</svg>
