<svg xmlns="http://www.w3.org/2000/svg" xmlns:xlink="http://www.w3.org/1999/xlink" version="1.1" enable-background="new 0 0 100 100" xml:space="preserve" width="100" height="100.71428461139703" style=""><rect id="backgroundrect" width="100%" height="100%" x="0" y="0" fill="none" stroke="none" class="" style=""/><g class="currentLayer" style=""><title>Layer 1</title><g id="svg_1" class="selected" fill="#ffffff" fill-opacity="1"><path fill="#ffffff" d="M93,91.125H80v-2.311c0.163,0.004,0.316,0.02,0.482,0.02c2.341,0,4.941-0.462,6.966-2.487l0.211-0.211   c2.525-2.525,2.619-5.945,2.419-8.642l-0.096-1.289l-1.289-0.096c-2.702-0.2-6.117-0.106-8.642,2.419L80,78.581v-2.867   c0.163,0.004,0.315,0.02,0.481,0.02c2.341,0,4.941-0.462,6.967-2.487l0.211-0.211c2.525-2.525,2.619-5.944,2.419-8.641   l-0.096-1.289l-1.289-0.096c-2.695-0.198-6.115-0.107-8.642,2.419L80,65.479v-2.655c0.163,0.004,0.316,0.02,0.482,0.02   c2.341,0,4.941-0.462,6.966-2.487l0.211-0.211c2.525-2.525,2.619-5.945,2.419-8.642l-0.096-1.289l-1.289-0.096   c-2.702-0.201-6.117-0.106-8.642,2.419L80,52.59v-2.48c0.163,0.004,0.315,0.02,0.482,0.02c2.341,0,4.942-0.462,6.968-2.488   l0.209-0.21c2.525-2.525,2.619-5.944,2.419-8.641l-0.096-1.289l-1.289-0.096c-2.695-0.2-6.115-0.107-8.642,2.419L80,39.876v-1.732   c1.968-1.745,4.086-4.148,4.086-7.539v-0.298c0-3.571-2.352-6.056-4.4-7.821l-0.979-0.844l-0.979,0.844   c-2.049,1.765-4.4,4.249-4.4,7.821v0.298c0,3.154,1.833,5.458,3.672,7.169v1.718c-2.485-2.196-5.711-2.277-8.28-2.086l-1.289,0.096   l-0.096,1.289c-0.2,2.696-0.106,6.114,2.418,8.64l0.212,0.212c2.025,2.025,4.625,2.487,6.966,2.487   c0.024,0,0.045-0.003,0.068-0.003v2.079c-2.483-2.194-5.707-2.274-8.28-2.086l-1.289,0.096l-0.096,1.289   c-0.2,2.697-0.106,6.116,2.419,8.642l0.211,0.211c2.025,2.025,4.625,2.487,6.966,2.487c0.024,0,0.045-0.003,0.068-0.003v2.253   c-2.485-2.196-5.711-2.275-8.28-2.086l-1.289,0.096l-0.096,1.289c-0.2,2.696-0.106,6.116,2.419,8.641l0.211,0.211   c2.025,2.025,4.625,2.487,6.966,2.487c0.023,0,0.044-0.003,0.068-0.003v2.465c-2.483-2.195-5.707-2.276-8.28-2.086l-1.289,0.096   l-0.096,1.289c-0.2,2.697-0.106,6.116,2.419,8.642l0.211,0.211c2.025,2.025,4.625,2.487,6.966,2.487   c0.024,0,0.045-0.003,0.068-0.003v2.294H51v-2.322c0.26,0.01,0.508,0.031,0.775,0.031c2.341,0,4.941-0.462,6.966-2.487l0.211-0.211   c2.526-2.526,2.62-5.945,2.419-8.642l-0.096-1.289l-1.289-0.096c-2.697-0.198-6.116-0.106-8.64,2.417l-0.211,0.211l-0.001,0.001   c-0.047,0.047-0.088,0.097-0.134,0.145v-3.183c0.259,0.01,0.507,0.031,0.774,0.031c2.341,0,4.941-0.462,6.967-2.487l0.211-0.211   c2.526-2.526,2.62-5.945,2.419-8.641l-0.096-1.289l-1.289-0.096c-2.696-0.201-6.116-0.107-8.64,2.417l-0.211,0.211l-0.001,0.001   c-0.047,0.047-0.088,0.097-0.134,0.145v-2.971c0.26,0.01,0.508,0.031,0.775,0.031c2.341,0,4.941-0.462,6.966-2.487l0.211-0.211   c2.526-2.526,2.62-5.945,2.419-8.642l-0.096-1.289l-1.289-0.096c-2.697-0.199-6.116-0.106-8.64,2.417l-0.211,0.211l-0.001,0.001   c-0.047,0.047-0.088,0.097-0.134,0.145v-1.52c0-0.024-0.006-0.047-0.007-0.071c2.046-1.764,4.387-4.244,4.387-7.808v-0.298   c0-3.572-2.352-6.056-4.4-7.821L50,34.533l-0.979,0.844c-2.049,1.765-4.4,4.249-4.4,7.821v0.298c0,3.113,1.786,5.399,3.602,7.103   C48.084,50.826,48,51.09,48,51.375v0.584c-2.441-1.954-5.516-2.023-7.986-1.839l-1.289,0.096l-0.096,1.289   c-0.201,2.696-0.107,6.116,2.419,8.642l0.211,0.211c1.961,1.961,4.459,2.451,6.741,2.481v2.01   c-2.441-1.954-5.516-2.021-7.986-1.839l-1.289,0.096l-0.096,1.289c-0.201,2.696-0.107,6.115,2.419,8.641l0.211,0.211   c1.961,1.961,4.459,2.452,6.741,2.481v2.222c-2.441-1.954-5.516-2.022-7.986-1.839l-1.289,0.096l-0.096,1.289   c-0.201,2.696-0.107,6.116,2.419,8.642l0.211,0.211c1.961,1.961,4.459,2.451,6.741,2.481v2.297H22v-2.334   c0.353,0.019,0.7,0.043,1.068,0.043c2.341,0,4.941-0.462,6.966-2.487l0.211-0.211c2.526-2.525,2.62-5.945,2.419-8.642l-0.096-1.289   L31.28,76.11c-2.7-0.2-6.117-0.106-8.642,2.419l-0.211,0.211c-0.151,0.151-0.293,0.306-0.427,0.464V75.69   c0.353,0.019,0.699,0.043,1.068,0.043c2.341,0,4.941-0.462,6.966-2.487l0.211-0.211c2.526-2.525,2.62-5.945,2.419-8.641   l-0.096-1.289l-1.289-0.096c-2.695-0.198-6.115-0.107-8.642,2.419l-0.211,0.211c-0.151,0.151-0.293,0.306-0.427,0.464v-1.84   l0.272-0.234c2.049-1.765,4.4-4.249,4.4-7.82V55.91c0-3.572-2.352-6.056-4.4-7.821l-0.979-0.844l-0.979,0.844   c-2.049,1.765-4.4,4.25-4.4,7.821v0.298c0,2.815,1.464,4.947,3.086,6.592v1.82c-2.391-1.734-5.323-1.786-7.693-1.611l-1.289,0.096   l-0.096,1.289c-0.2,2.697-0.106,6.116,2.419,8.641l0.211,0.211c1.878,1.878,4.247,2.406,6.448,2.473v2.002   c-2.389-1.734-5.32-1.786-7.693-1.611l-1.289,0.096l-0.096,1.289c-0.2,2.697-0.106,6.116,2.419,8.642l0.211,0.211   c1.877,1.878,4.246,2.405,6.448,2.473v2.305H7c-0.829,0-1.5,0.671-1.5,1.5s0.671,1.5,1.5,1.5h86c0.829,0,1.5-0.671,1.5-1.5   S93.829,91.125,93,91.125z M81.962,80.861l0.211-0.211c1.116-1.116,2.628-1.609,4.97-1.604c0.014,2.329-0.489,3.854-1.604,4.97   l-0.211,0.211c-1.116,1.116-2.65,1.59-4.97,1.604C80.344,83.502,80.846,81.977,81.962,80.861z M81.962,67.76l0.211-0.211   c1.117-1.116,2.674-1.629,4.97-1.604c0.014,2.328-0.489,3.853-1.604,4.969l-0.211,0.211c-1.116,1.116-2.633,1.594-4.97,1.605   C80.344,70.401,80.846,68.876,81.962,67.76z M81.962,54.871l0.211-0.211c1.116-1.116,2.628-1.62,4.97-1.604   c0.014,2.329-0.489,3.854-1.604,4.97l-0.211,0.211c-1.116,1.116-2.65,1.579-4.97,1.604C80.344,57.512,80.846,55.987,81.962,54.871z    M81.962,42.156l0.211-0.211c1.117-1.116,2.674-1.611,4.97-1.604c0.014,2.328-0.489,3.854-1.606,4.97l-0.209,0.21   c-1.116,1.116-2.65,1.586-4.97,1.604C80.344,44.797,80.846,43.272,81.962,42.156z M76.328,30.306c0-1.579,0.723-3.012,2.379-4.649   c1.656,1.637,2.379,3.071,2.379,4.649v0.298c0,1.579-0.723,3.012-2.379,4.648c-1.656-1.636-2.379-3.07-2.379-4.648V30.306z    M72.088,45.522l-0.211-0.211l-0.001-0.001c-1.116-1.116-1.619-2.641-1.605-4.969c2.328-0.012,3.854,0.488,4.97,1.604l0.211,0.211   c0.901,0.902,1.396,2.078,1.548,3.72v1.248C74.678,47.113,73.193,46.628,72.088,45.522z M72.087,58.236l-0.211-0.211   c-1.116-1.116-1.619-2.641-1.605-4.97c2.35-0.001,3.854,0.489,4.97,1.604l0.211,0.211c0.901,0.902,1.396,2.078,1.548,3.721v1.247   C74.678,59.819,73.193,59.342,72.087,58.236z M72.087,71.125l-0.211-0.211c-1.116-1.116-1.619-2.641-1.605-4.969   c2.328-0.029,3.854,0.488,4.97,1.604l0.211,0.211c0.901,0.902,1.396,2.078,1.548,3.72v1.248   C74.713,72.706,73.194,72.231,72.087,71.125z M72.087,84.226l-0.211-0.211c-1.116-1.116-1.619-2.641-1.605-4.97   c2.35,0.01,3.854,0.488,4.97,1.604l0.211,0.211c0.901,0.902,1.396,2.078,1.548,3.721v1.247   C74.678,85.814,73.193,85.333,72.087,84.226z M53.254,80.862l0.212-0.212c1.116-1.116,2.664-1.604,4.969-1.604   c0.014,2.329-0.488,3.853-1.604,4.97l-0.211,0.211c-1.116,1.116-2.618,1.59-4.97,1.604C51.637,83.502,52.139,81.978,53.254,80.862z    M53.254,67.761l0.212-0.212c1.116-1.116,2.671-1.629,4.969-1.604c0.014,2.328-0.488,3.853-1.604,4.969l-0.211,0.211   c-1.116,1.116-2.606,1.594-4.97,1.605C51.637,70.401,52.139,68.876,53.254,67.761z M53.254,54.872l0.212-0.212   c1.116-1.116,2.664-1.611,4.969-1.604c0.014,2.329-0.488,3.853-1.604,4.97l-0.211,0.211c-1.116,1.116-2.618,1.579-4.97,1.604   C51.637,57.512,52.139,55.987,53.254,54.872z M47.621,43.197c0-1.579,0.723-3.012,2.379-4.649c1.656,1.637,2.379,3.07,2.379,4.649   v0.298c0,1.579-0.723,3.012-2.379,4.649c-1.656-1.637-2.379-3.07-2.379-4.649V43.197z M43.38,58.236l-0.211-0.211   c-1.116-1.117-1.619-2.641-1.604-4.97c2.346-0.001,3.854,0.489,4.97,1.606l0.21,0.209c0.582,0.582,0.993,1.279,1.255,2.139v2.82   C45.852,59.773,44.438,59.294,43.38,58.236z M43.38,71.125l-0.211-0.211c-1.116-1.117-1.619-2.641-1.604-4.969   c2.326-0.029,3.853,0.488,4.97,1.606l0.21,0.209c0.582,0.582,0.993,1.279,1.255,2.139v2.82   C45.852,72.663,44.438,72.183,43.38,71.125z M43.38,84.226l-0.211-0.211c-1.116-1.117-1.619-2.641-1.604-4.97   c2.346,0.01,3.854,0.489,4.97,1.606l0.21,0.209C47.327,81.443,47.738,82.14,48,83v2.821C45.852,85.772,44.438,85.284,43.38,84.226z    M24.548,80.861l0.211-0.211c1.116-1.116,2.62-1.609,4.97-1.604c0.014,2.329-0.489,3.854-1.605,4.97l-0.211,0.211   c-1.116,1.116-2.622,1.59-4.969,1.604C22.93,83.502,23.432,81.978,24.548,80.861z M24.548,67.76l0.211-0.211   c1.117-1.116,2.67-1.629,4.97-1.604c0.014,2.328-0.489,3.853-1.605,4.969l-0.211,0.211c-1.117,1.116-2.658,1.581-4.969,1.605   C22.93,70.401,23.432,68.876,24.548,67.76z M18.914,55.91c0-1.578,0.723-3.012,2.379-4.649c1.657,1.637,2.379,3.07,2.379,4.649   v0.298c0,1.578-0.723,3.012-2.379,4.648c-1.656-1.637-2.379-3.07-2.379-4.648V55.91z M14.673,71.125l-0.211-0.211   c-1.116-1.116-1.618-2.641-1.604-4.969c2.324-0.029,3.853,0.488,4.97,1.604l0.211,0.211c0.398,0.399,0.715,0.853,0.962,1.374v3.576   C17.037,72.618,15.682,72.133,14.673,71.125z M14.673,84.226l-0.211-0.211c-1.116-1.116-1.618-2.641-1.604-4.97   c2.341,0.01,3.854,0.488,4.97,1.604l0.211,0.211c0.398,0.399,0.715,0.853,0.962,1.374v3.578   C17.037,85.726,15.681,85.235,14.673,84.226z" id="svg_2" fill-opacity="1"/><path fill="#ffffff" d="M22.845,34.134c5.961,0,10.811-4.85,10.811-10.811s-4.85-10.811-10.811-10.811   c-5.96,0-10.81,4.85-10.81,10.811S16.884,34.134,22.845,34.134z M22.845,15.513c4.307,0,7.811,3.504,7.811,7.811   s-3.504,7.811-7.811,7.811s-7.81-3.504-7.81-7.811S18.538,15.513,22.845,15.513z" id="svg_3" fill-opacity="1"/><path fill="#ffffff" d="M22.5,10.875c0.829,0,1.5-0.671,1.5-1.5v-2c0-0.829-0.671-1.5-1.5-1.5S21,6.546,21,7.375v2   C21,10.204,21.671,10.875,22.5,10.875z" id="svg_4" fill-opacity="1"/><path fill="#ffffff" d="M21,37.375v1c0,0.829,0.671,1.5,1.5,1.5s1.5-0.671,1.5-1.5v-1c0-0.829-0.671-1.5-1.5-1.5   S21,36.546,21,37.375z" id="svg_5" fill-opacity="1"/><path fill="#ffffff" d="M37,25.125h1c0.829,0,1.5-0.671,1.5-1.5s-0.671-1.5-1.5-1.5h-1c-0.829,0-1.5,0.671-1.5,1.5   S36.171,25.125,37,25.125z" id="svg_6" fill-opacity="1"/><path fill="#ffffff" d="M7,25.125h2c0.829,0,1.5-0.671,1.5-1.5s-0.671-1.5-1.5-1.5H7c-0.829,0-1.5,0.671-1.5,1.5   S6.171,25.125,7,25.125z" id="svg_7" fill-opacity="1"/><path fill="#ffffff" d="M32.72,14.948c0.384,0,0.768-0.146,1.061-0.439l1.646-1.646c0.586-0.585,0.586-1.536,0-2.121   c-0.586-0.586-1.535-0.586-2.121,0l-1.646,1.646c-0.586,0.585-0.586,1.536,0,2.121C31.952,14.802,32.336,14.948,32.72,14.948z" id="svg_8" fill-opacity="1"/><path fill="#ffffff" d="M11.909,32.138l-1.646,1.646c-0.586,0.585-0.586,1.536,0,2.121c0.293,0.293,0.677,0.439,1.061,0.439   s0.768-0.146,1.061-0.439l1.646-1.646c0.586-0.585,0.586-1.536,0-2.121C13.444,31.552,12.495,31.552,11.909,32.138z" id="svg_9" fill-opacity="1"/><path fill="#ffffff" d="M33.78,32.138c-0.586-0.586-1.535-0.586-2.121,0c-0.586,0.585-0.586,1.536,0,2.121l1.646,1.646   c0.293,0.293,0.677,0.439,1.061,0.439s0.768-0.146,1.061-0.439c0.586-0.585,0.586-1.536,0-2.121L33.78,32.138z" id="svg_10" fill-opacity="1"/><path fill="#ffffff" d="M11.909,14.509c0.293,0.293,0.677,0.439,1.061,0.439s0.768-0.146,1.061-0.439   c0.586-0.585,0.586-1.536,0-2.121l-1.646-1.646c-0.586-0.586-1.535-0.586-2.121,0c-0.586,0.585-0.586,1.536,0,2.121L11.909,14.509z   " id="svg_11" fill-opacity="1"/></g></g></svg>