<svg width="48" height="48" xmlns="http://www.w3.org/2000/svg">

 <g>
  <title>background</title>
  <rect fill="none" id="canvas_background" height="402" width="582" y="-1" x="-1"/>
 </g>
 <g class="layer">
  <title>Layer 1</title>
  <path stroke="null" id="svg_3" fill="black" d="m31.716721,22.909628c-0.030519,-1.403884 -0.915577,-1.983749 -1.709076,-2.197383c-0.305192,-0.091557 -0.732461,-0.122077 -1.15973,0.030519l0,-2.31946l0,0l0,-7.538246c0,-0.488307 -0.39675,-0.885057 -0.885057,-0.885057l-12.512878,0c-0.488307,0 -0.885057,0.39675 -0.885057,0.885057l0,24.50693l-1.129211,0c-0.183116,0 -0.335711,0.152596 -0.335711,0.335711l0,1.403884c0,0.183116 0.152596,0.335711 0.335711,0.335711l16.510895,0c0.183116,0 0.335711,-0.152596 0.335711,-0.335711l0,-1.403884c0,-0.183116 -0.152596,-0.335711 -0.335711,-0.335711l-1.129211,0l0,-12.177167c0,-0.183116 0.061039,-0.335711 0.183116,-0.457788c0.030519,-0.030519 0.061039,-0.061039 0.091557,-0.091557c0.091557,-0.061039 0.213634,-0.091557 0.335711,-0.091557c0.305192,0 0.579865,0.244154 0.610384,0.518827c0,0 0,0.183116 0,0.366231l0,4.425286l0,0l0,3.601268c0,1.770115 1.434403,3.204518 3.204518,3.204518c1.770115,0 3.204518,-1.434403 3.204518,-3.204518l-0.335711,-10.315495c0,-0.915577 -0.061039,-1.220769 0.488307,-1.648038c0.39675,-0.274673 0.152596,-1.068172 0.061039,-1.403884c-0.122077,-0.579865 -0.366231,-1.525961 -0.640904,-2.044787c0,0 0,0 0,0c-1.525961,-3.265556 -4.974632,-4.608401 -4.974632,-4.608401c-0.030519,-0.030519 -0.091557,-0.030519 -0.122077,-0.061039c0,0 0,0 0,0c-0.152596,-0.061039 -0.244154,-0.061039 -0.305192,-0.030519c-0.091557,0 -0.183116,0.091557 -0.183116,0.213634l0,0.366231c0,0.091557 0.091557,0.183116 0.091557,0.183116c0.183116,0.183116 0.854538,0.732461 1.068172,0.976615c0.518827,0.549346 1.007134,1.098692 1.281807,1.525961c0.122077,0.183116 0.244154,0.366231 0.335711,0.549346c0,0 0,0 0,0l0,0c1.037654,1.92271 1.281807,4.852555 1.281807,4.852555l0.030519,0.7935l0.335711,10.223937l0,0.457788c0,0.854538 -0.701942,1.55648 -1.55648,1.55648c-0.854538,0 -1.586999,-0.701942 -1.586999,-1.55648m-4.699959,-11.933013c0,0.427269 -0.335711,0.7935 -0.7935,0.7935l-9.125246,0c-0.427269,0 -0.7935,-0.335711 -0.7935,-0.7935l0,-7.110977c0,-0.427269 0.335711,-0.7935 0.7935,-0.7935l9.125246,0c0.427269,0 0.7935,0.335711 0.7935,0.7935l0,7.110977z"/>
 </g>
</svg>