<?xml version="1.0" encoding="iso-8859-1"?>
<!-- Generator: Adobe Illustrator 16.0.0, SVG Export Plug-In . SVG Version: 6.00 Build 0)  -->
<!DOCTYPE svg PUBLIC "-//W3C//DTD SVG 1.1//EN" "http://www.w3.org/Graphics/SVG/1.1/DTD/svg11.dtd">
<svg version="1.1" id="Capa_1" xmlns="http://www.w3.org/2000/svg" xmlns:xlink="http://www.w3.org/1999/xlink" x="0px" y="0px"
	 width="397.542px" height="397.542px" viewBox="0 0 397.542 397.542" style="enable-background:new 0 0 397.542 397.542;"
	 xml:space="preserve">
<g>
	<path d="M100.694,284.88c2.19-1.473,2.773-4.455,1.291-6.636c-1.482-2.19-4.447-2.772-6.636-1.302
		c-9.562,6.445-14.411,13.675-14.411,21.478c0,28.267,60.712,43.519,117.839,43.519s117.828-15.252,117.828-43.519
		c0-7.2-4.179-13.952-12.411-20.062c-2.113-1.568-5.106-1.119-6.685,0.994c-1.578,2.123-1.128,5.117,0.995,6.685
		c3.902,2.897,8.549,7.392,8.549,12.383c0,16.065-44.466,33.956-108.267,33.956c-63.812,0-108.276-17.891-108.276-33.956
		C90.51,292.904,96.047,288.007,100.694,284.88z"/>
	<path d="M349.146,259.425c-2.447-0.994-5.23,0.182-6.234,2.611c-0.995,2.447,0.172,5.24,2.62,6.234
		c27.377,11.18,42.447,24.776,42.447,38.289c0,29.797-76.03,61.697-189.203,61.697c-113.183,0-189.213-31.9-189.213-61.697
		c0-13.942,16.008-27.895,45.068-39.265c2.458-0.966,3.672-3.739,2.716-6.196c-0.966-2.467-3.758-3.672-6.197-2.705
		C17.681,271.495,0,288.152,0,306.57c0,39.961,87.306,71.26,198.776,71.26c111.461,0,198.766-31.299,198.766-71.26
		C397.553,288.648,380.818,272.345,349.146,259.425z"/>
	<path d="M122.195,196.688c0-42.293,76.578-176.976,76.578-176.976s76.578,134.683,76.578,176.976
		c0,42.293-34.284,76.579-76.578,76.579C156.479,273.267,122.195,238.98,122.195,196.688z"/>
</g>
<g>
</g>
<g>
</g>
<g>
</g>
<g>
</g>
<g>
</g>
<g>
</g>
<g>
</g>
<g>
</g>
<g>
</g>
<g>
</g>
<g>
</g>
<g>
</g>
<g>
</g>
<g>
</g>
<g>
</g>
</svg>
