<svg width="48" height="48" xmlns="http://www.w3.org/2000/svg">
 <g>
  <title>background</title>
  <rect fill="none" id="canvas_background" height="50" width="50" y="-1" x="-1"/>
 </g>
 <g>
  <title>Layer 1</title>
  <g stroke="null" id="svg_6">
   <path stroke="null" id="svg_1" d="m26.970078,23.369663c-2.604572,0 -5.076132,0.568563 -7.298469,1.58711c3.436744,0.553459 6.539595,2.1046 9.00097,4.348183c5.209285,0.670999 10.102354,2.349524 14.479783,4.832123c-2.648956,-6.324251 -8.896482,-10.767417 -16.182284,-10.767417z"/>
   <path stroke="null" id="svg_2" d="m17.457251,26.172253c-0.285371,0.00768 -0.568401,0.024485 -0.850216,0.045628l0.311481,-1.868853c-0.377503,0.123964 -0.860247,0.089606 -0.860247,0.089606l0.155048,1.812079c-5.692404,0.555716 -10.586713,3.832108 -13.365676,8.512931c3.104107,-1.890539 6.487859,-3.366387 10.07365,-4.35541c3.379273,-0.932091 6.937621,-1.43243 10.613266,-1.43243c1.443123,0 2.867766,0.078721 4.271193,0.228379c-2.811372,-1.917212 -6.208706,-3.038721 -9.868248,-3.038721c-0.160634,0 -0.320669,0.002504 -0.480252,0.006791z"/>
   <path stroke="null" id="svg_3" d="m16.163436,24.137325c1.567271,0 2.837802,-1.270522 2.837802,-2.837802c0,-1.567262 -1.270531,-5.501794 -2.837802,-5.501794c-1.567279,0 -2.837802,3.934531 -2.837802,5.501794c0,1.567279 1.270522,2.837802 2.837802,2.837802z"/>
  </g>
 </g>
</svg>