<svg width="48" height="48" xmlns="http://www.w3.org/2000/svg">
 <g>
  <title>background</title>
  <rect fill="none" id="canvas_background" height="50" width="50" y="-1" x="-1"/>
 </g>
 <g class="layer">
  <title>Layer 1</title>
  <g stroke="null" id="svg_1">
   <path stroke="null" id="svg_2" d="m14.418785,26.515682c-1.627533,0 -2.949427,1.324054 -2.949427,2.950507s1.322254,2.950147 2.949427,2.950147c1.627529,0 2.949787,-1.323698 2.949787,-2.949787c0.00072,-1.626813 -1.322258,-2.950867 -2.949787,-2.950867z"/>
   <path stroke="null" id="svg_3" d="m14.417706,21.810204c-4.222006,0 -7.656705,3.433979 -7.656705,7.656705c0,4.222362 3.435059,7.657781 7.656705,7.657781c4.222722,0 7.659221,-3.435779 7.659221,-7.657781c0.00036,-4.222726 -3.436499,-7.656705 -7.659221,-7.656705zm0.00108,11.968706c-2.377401,0 -4.312005,-1.933884 -4.312005,-4.312361s1.934244,-4.312725 4.312005,-4.312725c2.377757,0 4.312001,1.934604 4.312001,4.312725s-1.934244,4.312361 -4.312001,4.312361z"/>
   <path stroke="null" id="svg_4" d="m37.305379,26.216167c-3.007746,0 -5.452466,2.446156 -5.452466,5.453182c0,3.007386 2.44436,5.454626 5.452466,5.454626c3.006666,0 5.454622,-2.44724 5.454622,-5.454626c0.00036,-3.007026 -2.447956,-5.453182 -5.454622,-5.453182zm0,8.019935c-1.417657,0 -2.566394,-1.148737 -2.566394,-2.566394c0,-1.417657 1.148377,-2.565674 2.566394,-2.565674c1.417653,0 2.567114,1.147661 2.567114,2.565674c0,1.417297 -1.149461,2.566394 -2.567114,2.566394z"/>
   <path stroke="null" id="svg_5" d="m32.885736,26.735638c-1.140461,-0.892425 -2.976067,-1.994367 -5.464702,-2.536158l0,-0.691905c2.79427,0.573106 4.809872,1.805006 6.018012,2.77951c1.089702,-0.787667 2.422396,-1.257459 3.866332,-1.257459c0.783347,0 1.531411,0.143638 2.227639,0.394913c-0.073079,-1.709608 -0.284395,-3.510298 -0.853906,-3.725934c-2.80291,-1.043623 -6.455045,-1.667848 -9.400153,-1.931364l0,-5.428346c0,-0.762103 0.379794,-0.93886 0.433073,-0.96046c0.362874,-0.101878 0.573831,-0.479152 0.470512,-0.840946c-0.102238,-0.361074 -0.474472,-0.569511 -0.840586,-0.469072c-0.529547,0.150118 -1.425212,0.795587 -1.425212,2.270478l0,5.327548c-0.208437,-0.01188 -0.404993,-0.01908 -0.60047,-0.027l-1.593334,-6.855359c-0.062279,-0.266036 -0.276111,-0.469432 -0.544667,-0.516591c-0.328315,-0.057599 -8.107418,-1.410097 -13.958393,-0.232196c-0.368274,0.074159 -0.60767,0.433073 -0.534231,0.802067c0.074159,0.368634 0.431633,0.60947 0.802427,0.533151c0.081359,-0.0162 0.165957,-0.02736 0.247676,-0.042479l-1.074222,6.248769c-0.0018,0.01296 0.00288,0.02592 0.00108,0.039959l-0.241556,0c-1.287335,0 -1.54365,0.830146 -1.54365,0.830146l-0.788747,1.977083l0.655549,0.325795c1.533211,-1.297419 3.513178,-2.084006 5.673138,-2.084006c4.854872,0 8.802922,3.949131 8.802922,8.801487c0,0.851382 -0.127438,1.671808 -0.354234,2.450835l7.834182,0c-0.00324,-0.089999 -0.01332,-0.178557 -0.01332,-0.269996c0,-1.950084 0.852106,-3.699655 2.19884,-4.912471zm2.600233,-4.774957c0.174237,-0.068039 0.371514,0.01764 0.442433,0.192597l0.552231,1.407933c0.068759,0.174597 -0.01836,0.371874 -0.192597,0.441353c-0.041039,0.01512 -0.082439,0.02304 -0.124918,0.02304c-0.135358,0 -0.263156,-0.082079 -0.316795,-0.215636l-0.552951,-1.407933c-0.068399,-0.174957 0.01764,-0.372954 0.192597,-0.441353zm-1.604849,0c0.172437,-0.068039 0.371874,0.01764 0.441353,0.192597l0.552947,1.407933c0.068399,0.174597 -0.01836,0.371874 -0.192953,0.441353c-0.041039,0.01512 -0.082799,0.02304 -0.124918,0.02304c-0.136438,0 -0.263876,-0.082079 -0.317155,-0.215636l-0.552231,-1.407933c-0.068759,-0.174957 0.01728,-0.372954 0.192957,-0.441353zm-15.977236,-2.006243c-0.535311,-0.175317 -1.052263,-0.301675 -1.506215,-0.337674l-4.360604,0l1.006183,-5.852419l4.860636,0l0,6.190094zm8.154213,5.244385l-2.467035,-0.00288c-0.818986,-2.19884 -2.574313,-3.769854 -4.325684,-4.677759l0,-6.75348l5.286869,0l1.505131,6.479525l0,4.954954l0.00072,0l0,-0.00036z"/>
  </g>
 </g>
</svg>