<svg width="44" height="44" viewBox="0 0 44 44" fill="none" xmlns="http://www.w3.org/2000/svg">
<rect x="0.5" y="0.5" width="43" height="43" rx="7.5" fill="white"/>
<rect x="0.5" y="0.5" width="43" height="43" rx="7.5" stroke="#EBF5F4"/>
<path d="M12 18.2018C12 16.7096 13.2096 15.5 14.7018 15.5C15.4771 15.5 16.1654 15.0039 16.4105 14.2684L16.5 14C16.5422 13.8734 16.5633 13.8101 16.5859 13.754C16.874 13.0371 17.5494 12.5504 18.3206 12.5037C18.381 12.5 18.4477 12.5 18.5811 12.5H25.4189C25.5523 12.5 25.619 12.5 25.6794 12.5037C26.4506 12.5504 27.126 13.0371 27.4141 13.754C27.4367 13.8101 27.4578 13.8734 27.5 14L27.5895 14.2684C27.8346 15.0039 28.5229 15.5 29.2982 15.5C30.7904 15.5 32 16.7096 32 18.2018V26.7C32 28.3802 32 29.2202 31.673 29.862C31.3854 30.4265 30.9265 30.8854 30.362 31.173C29.7202 31.5 28.8802 31.5 27.2 31.5H16.8C15.1198 31.5 14.2798 31.5 13.638 31.173C13.0735 30.8854 12.6146 30.4265 12.327 29.862C12 29.2202 12 28.3802 12 26.7V18.2018Z" stroke="#308F85" stroke-width="2" stroke-linecap="round" stroke-linejoin="round"/>
<path d="M22 27C24.4853 27 26.5 24.9853 26.5 22.5C26.5 20.0147 24.4853 18 22 18C19.5147 18 17.5 20.0147 17.5 22.5C17.5 24.9853 19.5147 27 22 27Z" stroke="#308F85" stroke-width="2" stroke-linecap="round" stroke-linejoin="round"/>
</svg>
