<svg width="13" height="13" viewBox="0 0 13 13" fill="none" xmlns="http://www.w3.org/2000/svg">
<path d="M9.38276 5.14908L7.1753 2.94163M0.828857 11.4955L2.69657 11.288C2.92476 11.2626 3.03885 11.25 3.1455 11.2154C3.24011 11.1848 3.33015 11.1415 3.41317 11.0868C3.50675 11.0251 3.58792 10.9439 3.75027 10.7816L11.0383 3.49349C11.6479 2.88392 11.6479 1.89561 11.0383 1.28604C10.4288 0.676465 9.44047 0.676464 8.83089 1.28604L1.54282 8.5741C1.38047 8.73644 1.2993 8.81762 1.23759 8.9112C1.18284 8.99422 1.13956 9.08426 1.10894 9.17887C1.07441 9.28552 1.06174 9.39961 1.03638 9.6278L0.828857 11.4955Z" stroke="#2B303A" stroke-width="1.65781" stroke-linecap="round" stroke-linejoin="round"/>
</svg>
