<svg width="44" height="44" viewBox="0 0 44 44" fill="none" xmlns="http://www.w3.org/2000/svg">
<rect x="0.5" y="0.5" width="43" height="43" rx="7.5" fill="white"/>
<rect x="0.5" y="0.5" width="43" height="43" rx="7.5" stroke="#EBF5F4"/>
<path d="M14.2721 30.7279L20.8686 24.1314C21.2646 23.7354 21.4627 23.5373 21.691 23.4632C21.8918 23.3979 22.1082 23.3979 22.309 23.4632C22.5373 23.5373 22.7354 23.7354 23.1314 24.1314L29.6839 30.6839M24 25L26.8686 22.1314C27.2646 21.7354 27.4627 21.5373 27.691 21.4632C27.8918 21.3979 28.1082 21.3979 28.309 21.4632C28.5373 21.5373 28.7354 21.7354 29.1314 22.1314L32 25M20 19C20 20.1046 19.1046 21 18 21C16.8954 21 16 20.1046 16 19C16 17.8954 16.8954 17 18 17C19.1046 17 20 17.8954 20 19ZM16.8 31H27.2C28.8802 31 29.7202 31 30.362 30.673C30.9265 30.3854 31.3854 29.9265 31.673 29.362C32 28.7202 32 27.8802 32 26.2V17.8C32 16.1198 32 15.2798 31.673 14.638C31.3854 14.0735 30.9265 13.6146 30.362 13.327C29.7202 13 28.8802 13 27.2 13H16.8C15.1198 13 14.2798 13 13.638 13.327C13.0735 13.6146 12.6146 14.0735 12.327 14.638C12 15.2798 12 16.1198 12 17.8V26.2C12 27.8802 12 28.7202 12.327 29.362C12.6146 29.9265 13.0735 30.3854 13.638 30.673C14.2798 31 15.1198 31 16.8 31Z" stroke="#308F85" stroke-width="2" stroke-linecap="round" stroke-linejoin="round"/>
</svg>
