<svg width="22" height="20" viewBox="0 0 22 20" fill="none" xmlns="http://www.w3.org/2000/svg">
<path d="M3.27209 18.7279L9.86863 12.1314C10.2646 11.7354 10.4627 11.5373 10.691 11.4632C10.8918 11.3979 11.1082 11.3979 11.309 11.4632C11.5373 11.5373 11.7354 11.7354 12.1314 12.1314L18.6839 18.6839M13 13L15.8686 10.1314C16.2646 9.73535 16.4627 9.53735 16.691 9.46316C16.8918 9.3979 17.1082 9.3979 17.309 9.46316C17.5373 9.53735 17.7354 9.73535 18.1314 10.1314L21 13M9 7C9 8.10457 8.10457 9 7 9C5.89543 9 5 8.10457 5 7C5 5.89543 5.89543 5 7 5C8.10457 5 9 5.89543 9 7ZM5.8 19H16.2C17.8802 19 18.7202 19 19.362 18.673C19.9265 18.3854 20.3854 17.9265 20.673 17.362C21 16.7202 21 15.8802 21 14.2V5.8C21 4.11984 21 3.27976 20.673 2.63803C20.3854 2.07354 19.9265 1.6146 19.362 1.32698C18.7202 1 17.8802 1 16.2 1H5.8C4.11984 1 3.27976 1 2.63803 1.32698C2.07354 1.6146 1.6146 2.07354 1.32698 2.63803C1 3.27976 1 4.11984 1 5.8V14.2C1 15.8802 1 16.7202 1.32698 17.362C1.6146 17.9265 2.07354 18.3854 2.63803 18.673C3.27976 19 4.11984 19 5.8 19Z" stroke="#266F68" stroke-width="2" stroke-linecap="round" stroke-linejoin="round"/>
</svg>
