<svg width="48" height="48" viewBox="0 0 48 48" fill="none" xmlns="http://www.w3.org/2000/svg">
    <path d="M42.89 15.0329H37.9319C37.8611 15.0329 37.7903 15.0329 37.7194 15.1041C37.1528 14.5347 36.4445 14.1077 35.7362 13.823C35.6653 11.8303 34.0362 10.1935 32.053 10.1935C31.203 10.1935 30.4239 10.4781 29.7864 10.9763C29.0073 8.69893 26.8116 7.06206 24.2617 7.06206C22.8451 7.06206 21.4993 7.56023 20.4368 8.48542C19.2327 7.84491 17.5328 7.48906 15.1245 7.34673L12.5038 4.7135C12.2205 4.42883 11.7955 4.42883 11.5122 4.7135C11.2289 4.99818 11.2289 5.42519 11.5122 5.70986L14.1329 8.34308V8.48542C14.4162 10.6916 14.6996 12.2573 15.1954 13.396C13.7079 13.6807 11.8664 14.6771 10.8039 15.9581V15.7446C10.8039 15.3176 10.5206 15.0329 10.0956 15.0329H5.2083C4.78332 15.0329 4.5 15.3176 4.5 15.7446V44.2119C4.5 44.6389 4.78332 44.9235 5.2083 44.9235H10.1664C10.5914 44.9235 10.8747 44.6389 10.8747 44.2119V43.002H37.2944V44.2119C37.2944 44.6389 37.5778 44.9235 38.0027 44.9235H42.9609C43.3858 44.9235 43.6692 44.6389 43.6692 44.2119V15.7446C43.5983 15.3887 43.315 15.0329 42.89 15.0329ZM10.8747 24.7118H37.2944V26.7757H10.8747V24.7118ZM10.8747 28.2702H37.2944V33.1096H10.8747V28.2702ZM37.2236 23.2884H10.8747V19.6588H37.2944V23.2884H37.2236ZM10.8747 34.533H37.2944V36.5969H10.8747V34.533ZM19.7285 11.9015L16.7536 8.91243C20.8618 9.48177 21.6409 10.6205 22.1367 15.2464C17.3203 14.6771 16.3995 14.1077 15.8329 9.90878L18.8077 12.8978C18.9494 13.0402 19.1619 13.1114 19.3035 13.1114C19.4452 13.1114 19.6577 13.0402 19.7993 12.8978C20.0118 12.6132 20.0118 12.1862 19.7285 11.9015ZM11.4414 17.8796C11.4414 16.5274 14.3454 14.6771 16.0453 14.6771C17.1786 15.8869 19.091 16.3139 22.3492 16.7409L22.7742 16.8121H22.8451C23.0575 16.8121 23.1992 16.7409 23.3409 16.5986C23.4825 16.4563 23.5534 16.2428 23.5534 16.0293C23.27 12.6132 22.7742 10.5493 21.5701 9.33944C22.3492 8.77009 23.27 8.48542 24.1908 8.48542C26.5282 8.48542 28.4406 10.3358 28.5823 12.6132C28.5823 12.8978 28.8656 13.1825 29.149 13.2537C29.4323 13.3249 29.7864 13.1825 29.9281 12.8978C30.3531 12.115 31.1322 11.6168 31.9822 11.6168C33.2571 11.6168 34.2487 12.6132 34.2487 13.8942C34.2487 14.0365 34.2487 14.1077 34.1779 14.25C34.1071 14.6059 34.3904 14.9617 34.7445 15.0329C35.8778 15.3176 37.0819 16.2428 37.1528 17.0968V18.2355H11.3705C11.4414 18.1643 11.4414 18.022 11.4414 17.8796ZM9.45812 43.5714H5.91661V16.5274H9.45812V43.5714ZM10.8747 41.6498V38.0202H37.2944V41.6498H10.8747ZM42.1817 43.5714H38.6402V17.3814C38.6402 17.3103 38.6402 17.3103 38.6402 17.2391C38.6402 17.1679 38.6402 17.0968 38.6402 17.0256V16.4563H42.1817V43.5714Z"
          fill="#028577"/>
</svg>
