<svg width="48" height="48" viewBox="0 0 48 48" fill="none" xmlns="http://www.w3.org/2000/svg">
    <path d="M47.9248 18.6078L39.7986 7.74819C39.6481 7.59736 39.4976 7.44653 39.2719 7.44653C39.0462 7.44653 38.8957 7.44653 38.7452 7.59736L33.7792 11.2926C33.4782 11.5189 33.403 12.0468 33.6287 12.3484L33.8544 12.5747L29.6409 15.742L26.1797 15.8929C25.2768 15.9683 24.3739 16.3454 23.6215 16.8732C23.5462 16.7978 23.471 16.7978 23.3958 16.7978L19.9346 15.8929L15.6458 12.7255L15.8715 12.4238C16.022 12.273 16.022 12.0468 16.022 11.8959C16.022 11.7451 15.8715 11.4435 15.721 11.2926L10.755 7.59736C10.6046 7.44653 10.3788 7.44653 10.2283 7.44653C10.0026 7.44653 9.85213 7.59736 9.70164 7.74819L1.57547 18.6078C1.42499 18.7586 1.42499 18.9094 1.42499 19.1357C1.42499 19.3619 1.57547 19.5127 1.72596 19.6636L6.69195 23.3588C6.84244 23.4342 6.99292 23.5097 7.1434 23.5097C7.36913 23.5097 7.59486 23.4342 7.74534 23.208L7.89583 23.0572L12.4104 26.3754L14.2162 30.3723C14.6676 31.2019 15.2696 31.8806 15.9468 32.4085L17.9783 33.9167C17.9783 33.9167 17.9783 33.9167 17.9783 33.9922L25.5778 40.0253C26.0292 40.4023 26.6312 40.5532 27.2331 40.5532C27.3836 40.5532 27.5341 40.5532 27.6093 40.5532C28.3617 40.4777 28.9637 40.0253 29.4151 39.4974C29.7161 39.0449 29.9418 38.517 29.9418 37.9891C30.0923 37.9891 30.318 38.0645 30.4685 38.0645C30.619 38.0645 30.7695 38.0645 30.8447 38.0645C31.5972 37.9891 32.1991 37.5366 32.6506 37.0087C33.102 36.4054 33.2525 35.7267 33.1773 34.9725V34.8971H33.2525C34.0049 34.8217 34.6069 34.3692 35.0583 33.8413C35.5098 33.3134 35.6603 32.5593 35.585 31.8052V31.7298C36.3374 31.6543 37.0146 31.2773 37.4661 30.674C38.369 29.4673 38.1432 27.7328 36.8641 26.8279H36.7889L41.5292 23.2834L41.6796 23.4342C41.8301 23.6605 42.0558 23.7359 42.2816 23.7359C42.4321 23.7359 42.5825 23.6605 42.733 23.5851L47.699 19.8898C47.8495 19.739 48 19.5881 48 19.3619C48 19.1357 48 18.7586 47.9248 18.6078ZM3.2308 18.9094L10.4541 9.25646L14.2162 12.0468L14.0657 12.273C14.0657 12.273 13.9905 12.273 13.9905 12.3484L12.6361 14.1584L6.99292 21.6997L3.2308 18.9094ZM36.2622 29.5428C35.886 30.0707 35.0583 30.2215 34.5316 29.769L33.0268 28.6378C32.7258 28.4115 32.1991 28.487 31.9734 28.7886C31.7476 29.0903 31.8229 29.6182 32.1239 29.8444L32.1991 29.9198L33.6287 30.9756C33.9297 31.2019 34.0802 31.4281 34.0802 31.8052C34.1554 32.1068 34.0802 32.4839 33.8544 32.7101C33.4782 33.238 32.6506 33.3889 32.1239 32.9364L30.7695 31.956C30.4685 31.7298 29.9418 31.8052 29.7161 32.1068C29.4904 32.4085 29.5656 32.9364 29.8666 33.1626L31.2962 34.2184C31.8229 34.5955 31.9734 35.425 31.5219 35.9529C31.2962 36.2546 31.0705 36.4054 30.6943 36.4054C30.3933 36.4808 30.0171 36.4054 29.7913 36.1792L28.8884 35.5004L28.2865 35.048C28.2113 34.9725 28.136 34.9725 28.0608 34.9725C27.9103 34.8971 27.6846 34.8971 27.5341 34.9725C27.4588 35.048 27.3083 35.1234 27.2331 35.1988C27.0074 35.5004 27.0826 36.0283 27.3836 36.2546L27.9855 36.7071C28.2865 36.9333 28.437 37.1595 28.437 37.5366C28.5122 37.8383 28.437 38.2153 28.2113 38.4416C27.9855 38.6678 27.7598 38.8941 27.3836 38.8941C27.0826 38.9695 26.7064 38.8941 26.4807 38.6678L18.8812 32.6347C18.8812 32.6347 18.8812 32.5593 18.806 32.5593L16.7744 31.051C16.2477 30.674 15.7963 30.1461 15.4953 29.5428L13.6895 25.5458C13.6142 25.395 13.539 25.3196 13.4638 25.2442L8.87398 21.8506L13.84 15.1387L14.8181 13.8567L19.1822 17.0995C19.2574 17.1749 19.3327 17.1749 19.4079 17.2503L22.0414 17.929L21.4394 18.3815C20.8375 18.834 20.3108 19.5127 20.0851 20.1915L18.3545 24.1884C17.9031 25.4704 18.505 26.8279 19.7841 27.3558L20.0851 27.5066C20.3108 27.582 20.4613 27.6574 20.687 27.6574C22.4176 27.6574 24.6749 25.2442 25.2016 24.0376C25.4273 23.5851 25.8035 23.2834 26.3302 23.208L29.3399 22.9063L36.1117 28.0345C36.5632 28.2607 36.7136 29.0149 36.2622 29.5428ZM40.7015 21.8506L35.6603 25.6212L29.9418 21.2472C29.7161 21.0964 29.4904 21.0964 29.2647 21.1718L26.1797 21.5489C25.1263 21.6997 24.2234 22.303 23.8472 23.2834C23.3957 24.4146 21.289 26.2246 20.687 25.9983L20.3861 25.8475C19.8594 25.6212 19.6336 25.0933 19.7841 24.6409L21.5147 20.6439C21.6652 20.1915 21.9661 19.8144 22.3424 19.5127L24.2234 18.0799C24.8254 17.6274 25.5025 17.3257 26.255 17.2503L29.9418 17.0995C30.0923 17.0995 30.2428 17.0241 30.3933 16.9487L34.7573 13.7059L35.6603 14.9125L40.7015 21.8506ZM42.5073 21.6997L36.7889 14.0829L35.5098 12.3484C35.5098 12.3484 35.4345 12.3484 35.4345 12.273L35.284 12.0468L39.0462 9.25646L46.2694 18.9094L42.5073 21.6997Z"
          fill="#028577"/>
</svg>
