<svg width="48" height="48" viewBox="0 0 48 48" fill="none" xmlns="http://www.w3.org/2000/svg">
    <path d="M43.5 13.9201H38.6175C38.4186 13.9201 38.2278 13.9991 38.0871 14.1398C37.9465 14.2804 37.8675 14.4712 37.8675 14.6701V15.1426H32.58V11.7376C32.58 11.5387 32.5009 11.3479 32.3603 11.2073C32.2196 11.0666 32.0289 10.9876 31.83 10.9876H30.285V7.35762H35.715C35.9139 7.35762 36.1046 7.2786 36.2453 7.13795C36.3859 6.9973 36.465 6.80653 36.465 6.60762V2.93262C36.465 2.7337 36.3859 2.54294 36.2453 2.40229C36.1046 2.26163 35.9139 2.18262 35.715 2.18262H18.465C18.2661 2.18262 18.0753 2.26163 17.9346 2.40229C17.794 2.54294 17.715 2.7337 17.715 2.93262V6.60762C17.715 6.80653 17.794 6.9973 17.9346 7.13795C18.0753 7.2786 18.2661 7.35762 18.465 7.35762H23.895V10.9876H22.35C22.1511 10.9876 21.9603 11.0666 21.8196 11.2073C21.679 11.3479 21.6 11.5387 21.6 11.7376V15.1426H16.35C15.2512 15.1397 14.1625 15.3533 13.1463 15.7713C12.1301 16.1893 11.2063 16.8034 10.4275 17.5787C9.64883 18.3539 9.03052 19.275 8.60798 20.2893C8.18544 21.3037 7.96694 22.3913 7.96497 23.4901V30.1426H7.09497C6.89606 30.1426 6.70529 30.2216 6.56464 30.3623C6.42399 30.5029 6.34497 30.6937 6.34497 30.8926V35.9326C6.34497 36.1315 6.42399 36.3223 6.56464 36.4629C6.70529 36.6036 6.89606 36.6826 7.09497 36.6826H18.045C18.2439 36.6826 18.4346 36.6036 18.5753 36.4629C18.716 36.3223 18.795 36.1315 18.795 35.9326V30.8926C18.795 30.6937 18.716 30.5029 18.5753 30.3623C18.4346 30.2216 18.2439 30.1426 18.045 30.1426H17.07V28.1551C17.07 27.6397 17.1717 27.1294 17.3694 26.6534C17.5671 26.1775 17.8568 25.7452 18.2219 25.3815C18.5871 25.0177 19.0204 24.7297 19.4972 24.5338C19.9739 24.3379 20.4846 24.2381 21 24.2401H37.8675V25.4551C37.8675 25.654 37.9465 25.8448 38.0871 25.9854C38.2278 26.1261 38.4186 26.2051 38.6175 26.2051H43.5C43.6989 26.2051 43.8896 26.1261 44.0303 25.9854C44.1709 25.8448 44.25 25.654 44.25 25.4551V14.6701C44.25 14.4712 44.1709 14.2804 44.0303 14.1398C43.8896 13.9991 43.6989 13.9201 43.5 13.9201ZM19.2075 3.68262H34.9575V5.85762H19.2075V3.68262ZM25.3875 7.38012H28.785V10.9876H25.3875V7.38012ZM23.1 12.4876H31.08V15.1426H23.1V12.4876ZM17.295 35.1826H7.84497V31.6426H17.295V35.1826ZM21 22.7401C19.5657 22.7441 18.1915 23.3161 17.178 24.331C16.1646 25.3458 15.5944 26.7209 15.5925 28.1551V30.1426H9.46497V23.4901C9.46696 21.6734 10.1901 19.9317 11.4754 18.6477C12.7607 17.3638 14.5032 16.6426 16.32 16.6426H37.8675V22.7401H21ZM42.75 24.7051H39.3675V23.4976V15.8926V15.4276H42.75V24.7051Z"
          fill="#028577"/>
    <path d="M10.2224 37.7401C10.1269 37.7153 10.0274 37.7096 9.92963 37.7234C9.83188 37.7371 9.73781 37.77 9.6528 37.8202C9.5678 37.8703 9.49353 37.9368 9.43426 38.0157C9.37499 38.0946 9.33188 38.1845 9.30741 38.2801L9.11991 39.0301C9.09387 39.1257 9.087 39.2254 9.09971 39.3236C9.11242 39.4218 9.14445 39.5166 9.19395 39.6023C9.24346 39.6881 9.30946 39.7632 9.38815 39.8233C9.46684 39.8834 9.55665 39.9274 9.65241 39.9526C9.7172 39.96 9.78262 39.96 9.84741 39.9526C10.0177 39.958 10.1848 39.9052 10.3211 39.803C10.4575 39.7008 10.5549 39.5551 10.5974 39.3901L10.7924 38.6401C10.8145 38.5436 10.8173 38.4436 10.8006 38.346C10.7839 38.2484 10.748 38.155 10.695 38.0713C10.642 37.9877 10.5729 37.9153 10.4918 37.8585C10.4107 37.8016 10.3191 37.7614 10.2224 37.7401Z"
          fill="#028577"/>
    <path d="M8.7076 43.545C8.61206 43.5203 8.51256 43.5146 8.41482 43.5283C8.31707 43.542 8.223 43.5749 8.13799 43.6251C8.05299 43.6753 7.97872 43.7417 7.91945 43.8206C7.86018 43.8996 7.81707 43.9894 7.7926 44.085L7.6051 44.835C7.55477 45.027 7.58254 45.231 7.68235 45.4025C7.78215 45.574 7.94586 45.699 8.1376 45.75C8.20239 45.7574 8.26781 45.7574 8.3326 45.75C8.50292 45.7554 8.67 45.7027 8.80632 45.6004C8.94264 45.4982 9.04008 45.3526 9.0826 45.1875L9.2776 44.4375C9.32004 44.2436 9.28388 44.0408 9.17703 43.8735C9.07019 43.7062 8.90138 43.5881 8.7076 43.545Z"
          fill="#028577"/>
    <path d="M9.46509 40.6425C9.36955 40.6177 9.27005 40.612 9.1723 40.6257C9.07456 40.6394 8.98049 40.6723 8.89548 40.7225C8.81047 40.7727 8.73621 40.8391 8.67694 40.9181C8.61767 40.997 8.57456 41.0868 8.55009 41.1825L8.36259 41.9325C8.33654 42.028 8.32967 42.1278 8.34238 42.226C8.35509 42.3242 8.38712 42.4189 8.43663 42.5047C8.48614 42.5904 8.55214 42.6655 8.63083 42.7257C8.70951 42.7858 8.79933 42.8297 8.89509 42.855C8.95988 42.8623 9.0253 42.8623 9.09009 42.855C9.26041 42.8603 9.42748 42.8076 9.56381 42.7053C9.70013 42.6031 9.79757 42.4575 9.84009 42.2925L10.0351 41.5425C10.0572 41.4459 10.06 41.3459 10.0433 41.2483C10.0265 41.1507 9.99064 41.0574 9.93764 40.9737C9.88465 40.89 9.8156 40.8176 9.7345 40.7608C9.65339 40.7039 9.56182 40.6637 9.46509 40.6425Z"
          fill="#028577"/>
    <path d="M12.5701 43.7175C12.3712 43.7175 12.1804 43.7965 12.0397 43.9372C11.8991 44.0779 11.8201 44.2686 11.8201 44.4675V45.2175C11.8201 45.4164 11.8991 45.6072 12.0397 45.7479C12.1804 45.8885 12.3712 45.9675 12.5701 45.9675C12.769 45.9675 12.9597 45.8885 13.1004 45.7479C13.241 45.6072 13.3201 45.4164 13.3201 45.2175V44.4675C13.3201 44.2686 13.241 44.0779 13.1004 43.9372C12.9597 43.7965 12.769 43.7175 12.5701 43.7175Z"
          fill="#028577"/>
    <path d="M12.5701 40.7175C12.3712 40.7175 12.1804 40.7965 12.0397 40.9372C11.8991 41.0779 11.8201 41.2686 11.8201 41.4675V42.2175C11.8201 42.4164 11.8991 42.6072 12.0397 42.7479C12.1804 42.8885 12.3712 42.9675 12.5701 42.9675C12.769 42.9675 12.9597 42.8885 13.1004 42.7479C13.241 42.6072 13.3201 42.4164 13.3201 42.2175V41.4675C13.3201 41.2686 13.241 41.0779 13.1004 40.9372C12.9597 40.7965 12.769 40.7175 12.5701 40.7175Z"
          fill="#028577"/>
    <path d="M12.5701 37.7175C12.3712 37.7175 12.1804 37.7965 12.0397 37.9372C11.8991 38.0779 11.8201 38.2686 11.8201 38.4675V39.2175C11.8201 39.4164 11.8991 39.6072 12.0397 39.7479C12.1804 39.8885 12.3712 39.9675 12.5701 39.9675C12.769 39.9675 12.9597 39.8885 13.1004 39.7479C13.241 39.6072 13.3201 39.4164 13.3201 39.2175V38.4675C13.3201 38.2686 13.241 38.0779 13.1004 37.9372C12.9597 37.7965 12.769 37.7175 12.5701 37.7175Z"
          fill="#028577"/>
    <path d="M17.3474 44.085C17.3228 43.9895 17.2796 43.8997 17.2203 43.8209C17.161 43.742 17.0867 43.6757 17.0018 43.6255C16.9168 43.5754 16.8228 43.5425 16.7251 43.5286C16.6274 43.5148 16.528 43.5204 16.4324 43.545C16.2395 43.5947 16.0742 43.7191 15.9729 43.8907C15.9228 43.9756 15.8899 44.0697 15.8761 44.1673C15.8622 44.265 15.8678 44.3645 15.8924 44.46L16.0799 45.21C16.1224 45.375 16.2199 45.5206 16.3562 45.6229C16.4925 45.7251 16.6596 45.7779 16.8299 45.7725C16.8922 45.7798 16.9551 45.7798 17.0174 45.7725C17.1139 45.7481 17.2045 45.7047 17.284 45.645C17.3635 45.5852 17.4303 45.5102 17.4806 45.4243C17.5309 45.3385 17.5635 45.2435 17.5767 45.1449C17.5899 45.0463 17.5833 44.9461 17.5574 44.85L17.3474 44.085Z"
          fill="#028577"/>
    <path d="M16.2374 42.8248C16.3338 42.8004 16.4244 42.7571 16.504 42.6973C16.5835 42.6375 16.6503 42.5625 16.7006 42.4767C16.7508 42.3908 16.7835 42.2958 16.7967 42.1972C16.8099 42.0986 16.8033 41.9984 16.7774 41.9023L16.5899 41.1523C16.5655 41.0559 16.5221 40.9653 16.4623 40.8858C16.4026 40.8063 16.3276 40.7394 16.2417 40.6892C16.1559 40.6389 16.0609 40.6062 15.9623 40.593C15.8637 40.5799 15.7634 40.5864 15.6674 40.6123C15.4756 40.6634 15.3119 40.7883 15.2121 40.9598C15.1123 41.1313 15.0846 41.3354 15.1349 41.5273L15.3224 42.2773C15.3649 42.4424 15.4623 42.588 15.5987 42.6902C15.735 42.7925 15.9021 42.8452 16.0724 42.8398C16.1278 42.8405 16.183 42.8355 16.2374 42.8248Z"
          fill="#028577"/>
    <path d="M15.4801 39.9224C15.5765 39.898 15.6671 39.8546 15.7466 39.7948C15.8262 39.7351 15.893 39.6601 15.9432 39.5742C15.9935 39.4884 16.0262 39.3934 16.0394 39.2948C16.0526 39.1962 16.046 39.0959 16.0201 38.9999L15.8251 38.2499C15.8071 38.148 15.7683 38.0508 15.711 37.9647C15.6537 37.8785 15.5792 37.8051 15.4921 37.7491C15.4051 37.6931 15.3074 37.6557 15.2052 37.6393C15.103 37.623 14.9985 37.6279 14.8983 37.6539C14.7981 37.6798 14.7044 37.7262 14.623 37.7902C14.5417 37.8541 14.4744 37.9342 14.4255 38.0254C14.3766 38.1166 14.3471 38.217 14.3388 38.3201C14.3306 38.4233 14.3438 38.5271 14.3776 38.6249L14.5651 39.3749C14.6076 39.5399 14.705 39.6855 14.8414 39.7878C14.9777 39.89 15.1448 39.9428 15.3151 39.9374C15.3704 39.9381 15.4257 39.9331 15.4801 39.9224Z"
          fill="#028577"/>
</svg>
