<svg width="48" height="48" viewBox="0 0 48 48" fill="none" xmlns="http://www.w3.org/2000/svg">
    <path d="M45.5449 18.589C44.4126 17.4847 42.45 17.1166 40.8647 18.5153L35.1277 24.1104L29.9191 19.3988C28.2584 17.9264 27.0506 18.5153 26.2203 18.9571V17.1902C28.1074 16.1595 29.3907 14.2454 29.3907 11.9632C29.3907 8.65031 26.6732 6 23.2763 6C19.8794 6 17.1618 8.65031 17.1618 11.9632C17.1618 14.1718 18.4451 16.1595 20.3323 17.1902V19.0307C20.2568 19.0307 20.2568 18.9571 20.1813 18.9571C19.4264 18.589 18.2186 18 16.5579 19.4724L11.3493 24.184L5.61232 18.589C4.02709 17.1902 2.13991 17.5583 1.00761 18.6626C-0.124697 19.7669 -0.502133 21.681 0.932121 23.1534L8.93374 30.7362C10.217 31.9877 12.0287 32.0614 13.463 30.8834L15.8031 28.6748V41.1166C15.8031 41.5583 16.105 41.8528 16.5579 41.8528H29.9191C30.3721 41.8528 30.674 41.5583 30.674 41.1166V28.6748L33.0896 30.8834C34.4484 31.9877 36.3355 31.9141 37.5433 30.6626L45.5449 23.0798C47.0547 21.5337 46.6773 19.6933 45.5449 18.589ZM18.7471 11.816C18.7471 9.31288 20.7852 7.32515 23.3518 7.32515C25.9183 7.32515 27.9565 9.31288 27.9565 11.816C27.9565 14.319 25.9183 16.3067 23.3518 16.3067C22.7479 16.3067 22.144 16.1595 21.5401 15.9387C19.8039 15.2761 18.7471 13.5828 18.7471 11.816ZM44.5636 22.0491L36.562 29.6319C35.8071 30.3681 34.9013 30.3681 34.1464 29.7791L30.523 26.3926C30.2966 26.1718 29.9946 26.0982 29.6927 26.2454C29.3907 26.3926 29.2397 26.6135 29.2397 26.908V40.3068H17.3883V26.908C17.3883 26.6135 17.2373 26.319 16.9354 26.2454C16.6334 26.0982 16.3315 26.1718 16.105 26.3926L12.4816 29.7055C11.7268 30.3681 10.7454 30.2945 9.99056 29.5583L2.13991 22.0491C1.23407 21.1656 1.6115 20.135 2.2154 19.6196C2.8193 19.0307 3.87611 18.7362 4.70647 19.546L10.9719 25.5828C11.2738 25.8773 11.7268 25.8773 12.0287 25.5828L17.7657 20.3558C18.6716 19.546 18.9735 19.7669 19.6529 20.0613C20.1058 20.2822 20.5587 20.5031 21.2381 20.5031C21.6911 20.5031 21.993 20.2086 21.993 19.7669V17.6319C22.4459 17.7055 22.8988 17.7791 23.4273 17.7791C23.8802 17.7791 24.4086 17.7055 24.8615 17.6319V19.8405C24.8615 20.0614 24.937 20.2086 25.088 20.3558C25.2389 20.5031 25.3899 20.5767 25.6164 20.5767C26.2203 20.5767 26.6732 20.3558 27.0506 20.135C27.8055 19.7669 28.1829 19.546 29.0888 20.3558L34.8258 25.5828C35.1277 25.8773 35.5807 25.8773 35.8826 25.5828L42.0725 19.546C42.9784 18.7362 43.9597 18.9571 44.6391 19.6196C45.092 20.135 45.394 21.1656 44.5636 22.0491Z"
          fill="#028577"/>
    <path d="M24.4086 30.7361H22.4459V32.5766H24.4086V30.7361Z" fill="#028577"/>
    <path d="M25.6164 23.8899C24.937 23.4482 24.1821 23.2273 23.2008 23.2273C22.4459 23.2273 21.842 23.3745 21.3136 23.7426C20.4833 24.258 20.1058 25.0678 20.0303 26.3193H21.9175C21.9175 25.9512 21.993 25.6567 22.2195 25.2886C22.4459 24.9942 22.7479 24.7733 23.2763 24.7733C23.8047 24.7733 24.1066 24.9205 24.3331 25.1414C24.5596 25.4359 24.635 25.7304 24.635 26.0248C24.635 26.3193 24.5596 26.5402 24.4086 26.761C24.3331 26.9083 24.1821 27.0555 24.0311 27.1291L23.5027 27.4972C23.0498 27.8653 22.7479 28.1598 22.6724 28.4543C22.5969 28.7488 22.5214 29.1905 22.4459 29.9267H24.1821C24.1821 29.5586 24.1821 29.3377 24.2576 29.1905C24.3331 28.9696 24.4841 28.7488 24.786 28.5279L25.2389 28.1598C25.6919 27.7917 25.9938 27.4972 26.2203 27.2764C26.5222 26.9083 26.6732 26.4666 26.6732 25.8776C26.5977 24.9942 26.2958 24.3316 25.6164 23.8899Z"
          fill="#028577"/>
</svg>
