<svg width="49" height="48" viewBox="0 0 49 48" fill="none" xmlns="http://www.w3.org/2000/svg">
    <path d="M47.4644 21.8486C47.545 21.6841 47.6256 21.4374 47.545 21.1906L43.1945 3.59143C43.114 3.18024 42.6306 2.93352 42.2278 3.01576L1.54293 12.3088C1.14011 12.391 0.81785 12.8845 0.898414 13.2957L4.92662 31.3061C4.92662 31.5528 5.08774 31.7173 5.24887 31.8817C5.41 31.964 5.49056 32.0462 5.65169 32.0462C5.73226 32.0462 5.81282 32.0462 5.81282 32.0462L46.9005 22.342C47.2227 22.1775 47.3839 22.013 47.4644 21.8486ZM6.2962 30.1547L2.67082 13.7069L41.8249 4.66054L45.8531 20.7794L6.2962 30.1547Z"
          fill="#028577"/>
    <path d="M30.9492 15.8445C30.5464 13.953 29.4185 12.3904 27.8072 11.3213C26.196 10.2522 24.343 9.92327 22.49 10.4167C18.7035 11.3213 16.2866 15.1866 17.1728 19.0518C17.8979 22.4236 20.8787 24.7263 24.1013 24.7263C24.5847 24.7263 25.1486 24.6441 25.632 24.5619C29.4185 23.6572 31.8354 19.792 30.9492 15.8445ZM25.2292 22.9171C22.2483 23.575 19.348 21.6835 18.7035 18.7229C18.059 15.68 19.912 12.7194 22.8123 12.0615C23.2151 11.9792 23.6179 11.897 24.0207 11.897C26.5182 11.897 28.774 13.624 29.338 16.2557C30.063 19.2163 28.2101 22.2592 25.2292 22.9171Z"
          fill="#028577"/>
    <path d="M47.5454 32.1283C47.5454 29.7434 43.7589 28.5098 40.2947 28.5098C36.7499 28.5098 33.0439 29.7434 33.0439 32.1283C33.0439 32.2105 33.0439 32.2928 33.0439 32.2928V35.3356V35.4179C31.7549 34.1843 29.1768 33.6086 26.6794 33.6086C23.1345 33.6086 19.4286 34.8422 19.4286 37.2271C19.4286 37.3094 19.4286 37.3916 19.4286 37.3916V40.4345V40.5167C19.4286 40.5989 19.4286 40.6812 19.4286 40.6812V40.8457C19.4286 41.0101 19.5092 41.1746 19.5897 41.2568C20.3148 43.0661 23.6179 44.1352 26.6794 44.1352C29.1768 44.1352 31.7549 43.4773 33.1245 42.326V42.7372V42.8194C33.1245 45.2043 36.911 46.4379 40.3752 46.4379C43.8395 46.4379 47.5454 45.2043 47.626 42.9016C47.626 42.8194 47.626 42.8194 47.626 42.7372V32.2928C47.5454 32.2105 47.5454 32.2105 47.5454 32.1283ZM34.5746 37.8028C36.0248 38.6252 38.1194 39.1186 40.2141 39.1186C42.3088 39.1186 44.484 38.6252 45.9342 37.8028V39.1186V39.2009C45.9342 40.0233 43.6784 41.1746 40.2947 41.1746C37.0721 41.1746 34.8163 40.1055 34.6552 39.2831V37.8028H34.5746ZM45.9342 35.3356V35.4179C45.9342 36.2403 43.6784 37.3916 40.2947 37.3916C37.0721 37.3916 34.8163 36.3225 34.6552 35.5001V34.431C36.1053 35.2534 38.2 35.7468 40.2947 35.7468C42.3893 35.7468 44.5646 35.2534 46.0147 34.431V35.3356H45.9342ZM40.2947 30.1545C43.6784 30.1545 45.9342 31.3881 45.9342 32.1283C45.9342 32.9507 43.6784 34.102 40.2947 34.102C36.911 34.102 34.6552 32.8684 34.6552 32.1283C34.5746 31.3059 36.8304 30.1545 40.2947 30.1545ZM26.5988 35.2534C29.9825 35.2534 32.2383 36.487 32.2383 37.2271C32.2383 38.0495 29.9825 39.2009 26.5988 39.2009C23.2151 39.2009 20.9593 37.9673 20.9593 37.2271C20.9593 36.487 23.2151 35.2534 26.5988 35.2534ZM26.5988 42.5727C23.3762 42.5727 21.1204 41.5036 20.9593 40.6812V39.6121C22.4095 40.4345 24.5041 40.9279 26.5988 40.9279C28.6935 40.9279 30.8687 40.4345 32.3188 39.6121V40.5167V40.5989C32.2383 41.3391 29.9825 42.5727 26.5988 42.5727ZM40.2947 44.7931C36.911 44.7931 34.6552 43.6418 34.6552 42.8194V42.7372V41.4213C36.1053 42.2437 38.2 42.7372 40.2947 42.7372C42.3893 42.7372 44.5646 42.2437 46.0147 41.4213V42.7372V42.8194C45.9342 43.6418 43.6784 44.7931 40.2947 44.7931Z"
          fill="#028577"/>
</svg>
