<svg width="48" height="48" viewBox="0 0 48 48" fill="none" xmlns="http://www.w3.org/2000/svg">
    <path d="M32.4278 19.1289C32.5052 19.0515 32.5825 18.9742 32.5825 18.8196C33.3557 19.1289 34.1289 19.2835 34.9021 19.2835C36.3711 19.2835 37.7629 18.7423 38.8454 17.6598L46.268 10.2371C46.5773 9.92784 46.5773 9.46392 46.268 9.15464C45.9588 8.84536 45.4948 8.84536 45.1856 9.15464L40.5464 13.7938C39.5412 14.799 38.0722 15.1856 36.6804 14.8763L43.7938 7.76289C44.1031 7.45361 44.1031 6.98969 43.7938 6.68041C43.4845 6.37113 43.0206 6.37113 42.7113 6.68041L35.4433 13.9485C35.366 14.0258 35.2887 14.1031 35.2887 14.2577C34.9794 14.1031 34.6701 13.8711 34.4381 13.5619C34.2062 13.3299 33.9742 13.0206 33.7423 12.7113C33.8196 12.7113 33.9742 12.634 34.0515 12.5567L41.3196 5.28866C41.6289 4.97938 41.6289 4.51546 41.3196 4.20619C41.0103 3.89691 40.5464 3.89691 40.2371 4.20619L33.1237 11.3196C33.0464 11.0103 33.0464 10.7784 33.0464 10.4691C33.0464 9.30928 33.433 8.2268 34.2062 7.45361L38.8454 2.81443C39.1546 2.50515 39.1546 2.04124 38.8454 1.73196C38.5361 1.42268 38.0722 1.42268 37.7629 1.73196L30.3402 9.15464C28.7165 10.7783 28.3299 13.2526 29.1804 15.4175C29.1031 15.4175 28.9485 15.4948 28.8711 15.5722L24.3093 20.134L6.06186 2.42784C5.8299 2.11856 5.4433 1.96392 5.0567 1.96392C4.59278 2.04124 4.20619 2.19588 3.89691 2.50515C3.74227 2.73711 3.58763 3.04639 3.51031 3.35567C3.51031 3.43299 3.51031 3.43299 3.51031 3.51031C3.51031 3.51031 3.51031 3.58763 3.51031 3.66495C3.51031 3.74227 3.51031 3.74227 3.51031 3.81959C3.89691 5.8299 6.37113 15.8041 17.2732 27.2474L13.7165 30.8041C13.4072 30.5722 13.0206 30.5722 12.7113 30.8814L2.42784 41.0103C1.19072 42.2474 1.19072 44.3351 2.42784 45.5722C3.04639 46.1907 3.89691 46.5 4.6701 46.5C5.4433 46.5 6.29381 46.1907 6.91237 45.5722L17.1959 35.2887C17.5052 34.9794 17.5052 34.5155 17.1959 34.2835L21.5258 29.9536C21.7577 29.7216 21.8351 29.3351 21.6031 29.0258L23.0722 27.4794L28.6392 32.9691L28.4845 33.1237C28.1753 33.433 28.1753 33.8969 28.4845 34.2062L38.768 44.4897C39.3866 45.1082 40.2371 45.4175 41.0103 45.4175C41.7835 45.4175 42.634 45.1082 43.2526 44.4897C44.4897 43.2526 44.4897 41.1649 43.2526 39.9278L33.201 29.6443C32.8918 29.3351 32.4278 29.3351 32.1186 29.6443L32.0412 29.7216L26.8608 24.6959L32.4278 19.1289ZM31.3454 10.2371C31.4227 10.3144 31.3454 10.4691 31.4227 10.5464C31.5 12.0928 32.1186 13.6392 33.2783 14.7216C34.5155 15.9588 36.1392 16.5773 37.6856 16.5773C37.7629 16.5773 37.7629 16.5773 37.8402 16.5773L37.7629 16.6546C36.1392 18.2784 33.3557 18.201 31.5773 16.4227C29.799 14.6443 29.7216 11.8608 31.3454 10.2371ZM29.8763 16.732C30.1082 16.9639 30.2629 17.2732 30.4948 17.5052C30.7268 17.7371 30.9588 17.9691 31.268 18.1237L26.7835 22.6082C26.7835 22.5309 26.7062 22.4536 26.6289 22.4536L25.3144 21.2165L29.8763 16.732ZM14.8763 31.732L18.3557 28.2526C18.6649 28.5619 19.0515 28.9485 19.3608 29.2577L19.7474 29.6443L16.268 33.1237L14.8763 31.732ZM5.90722 44.4897C5.28866 45.1082 4.20619 45.1082 3.51031 44.4897C2.89175 43.8711 2.89175 42.7887 3.51031 42.0928L13.2526 32.3505L15.6495 34.7474L5.90722 44.4897ZM42.4021 41.0876C43.0206 41.7062 43.0206 42.7887 42.4021 43.4845C41.7835 44.1031 40.701 44.1031 40.0052 43.4845L30.3402 33.6649L32.7371 31.268L42.4021 41.0876ZM29.8763 31.8866L23.6907 25.8557C23.5361 25.701 23.3041 25.6237 23.1495 25.6237C22.9175 25.6237 22.7629 25.701 22.6082 25.8557L20.4433 28.1753C8.38144 16.4227 5.59794 5.90722 5.0567 3.58763L25.0825 23.0722L24.6186 23.6907C24.3866 24 24.3866 24.4639 24.6959 24.6959L30.9588 30.8814L29.8763 31.8866Z"
          fill="#028577"/>
</svg>
