<svg width="48" height="48" viewBox="0 0 48 48" fill="none" xmlns="http://www.w3.org/2000/svg">
    <path d="M20.8582 35.0221C21.4621 35.0221 21.9905 34.6559 22.217 34.1433C24.1042 30.0423 24.0287 25.4287 21.9905 21.4009V21.3277C21.8396 20.9615 21.3866 20.815 21.0092 21.0347L18.7446 22.1332L17.6878 19.863C17.5368 19.4968 17.0839 19.3504 16.7064 19.5701H16.5555L10.0636 6.53472L12.1017 5.5827C12.4792 5.43624 12.6301 4.99684 12.4037 4.63068L11.0449 1.92109C10.9694 1.77462 10.8185 1.62816 10.6675 1.55492C10.5165 1.48169 10.29 1.48169 10.1391 1.55492L1.8355 5.50947C1.68452 5.5827 1.53355 5.72917 1.53355 5.87563C1.53355 6.0221 1.45806 6.24179 1.53355 6.38826L2.89232 9.09785C3.04329 9.31755 3.26975 9.46401 3.5717 9.46401C3.64719 9.46401 3.79816 9.46401 3.87365 9.39078L5.9118 8.43876L12.4037 21.4741L12.2527 21.5473C11.8753 21.6938 11.7243 22.1332 11.9508 22.4994L13.0831 24.7696L10.8185 25.8681C10.441 26.0145 10.29 26.4539 10.5165 26.8201L10.592 27.0398C12.5547 30.9943 16.178 33.9236 20.4808 35.0221C20.5563 35.0221 20.7073 35.0221 20.8582 35.0221ZM3.11878 6.46149L10.0636 3.16604L10.8185 4.63068L7.34605 6.24179L5.9118 6.97412L3.87365 7.92614L3.11878 6.46149ZM7.94995 7.48674L8.70482 7.12058L15.1967 20.1559L13.6115 20.8883L7.19508 7.8529L7.94995 7.48674ZM17.4613 22.6458L14.2909 24.1105L13.4605 22.4994L16.631 21.0347L17.4613 22.6458ZM13.9134 29.4564L17.4613 27.7721C17.8387 27.6256 17.9897 27.1862 17.7633 26.8201C17.6123 26.4539 17.1594 26.3074 16.7819 26.5271L13.0076 28.2847C12.6301 27.7721 12.3282 27.2595 12.0262 26.7468L21.0092 22.4994C22.5944 26.0145 22.5189 30.0423 20.9337 33.5574C20.9337 33.6307 20.8582 33.6307 20.8582 33.6307C18.1407 32.8984 15.7251 31.4337 13.9134 29.4564Z"
          fill="#028577"/>
    <path d="M44.9382 41.0273C44.2588 38.1712 41.6168 36.0475 38.5218 36.0475C38.0689 36.0475 37.6914 36.1207 37.2385 36.1939C37.0875 33.4843 34.7475 31.2874 31.8789 31.2874C29.4634 31.2874 27.3497 32.8985 26.7458 35.0954C26.5949 35.0954 26.4439 35.0954 26.2929 35.0954C24.1793 35.0954 22.4431 36.7798 22.4431 38.8303C22.4431 39.1965 22.5186 39.6358 22.594 40.002C20.9333 40.8808 19.801 42.5651 19.801 44.4692C19.801 44.6889 19.8765 44.8353 20.0275 44.9818C20.1785 45.1283 20.3294 45.2015 20.5559 45.2015H47.2028C47.4293 45.2015 47.5802 45.1283 47.7312 44.9818C47.8822 44.8353 47.9577 44.6156 47.8822 44.4692C47.8067 42.7116 46.5234 41.3202 44.9382 41.0273ZM21.3863 43.6636C21.6127 42.4187 22.594 41.3202 23.8773 40.8808C24.1038 40.8076 24.2548 40.6611 24.3302 40.4414C24.4057 40.2217 24.4057 40.002 24.2548 39.8555C24.0283 39.4894 23.9528 39.1232 23.9528 38.6838C23.9528 37.3656 25.0096 36.3404 26.3684 36.3404C26.5949 36.3404 26.8968 36.4136 27.1233 36.4869C27.3497 36.5601 27.5762 36.5601 27.7272 36.4136C27.8781 36.2672 28.0291 36.1207 28.0291 35.901C28.2556 33.997 29.9163 32.6055 31.8789 32.6055C34.0681 32.6055 35.8043 34.2899 35.8043 36.4136C35.8043 36.5601 35.8043 36.7798 35.7288 36.9262C35.7288 37.1459 35.8043 37.4389 35.9552 37.5853C36.1817 37.7318 36.4082 37.805 36.6346 37.7318C37.2385 37.5121 37.8424 37.4389 38.3708 37.4389C40.9374 37.4389 43.1265 39.2697 43.4285 41.7596C43.5039 42.1257 43.7304 42.3454 44.1078 42.3454C45.0137 42.4187 45.7686 42.9313 46.146 43.6636H21.3863Z"
          fill="#028577"/>
    <path d="M28.5576 38.3176C26.6704 38.3176 25.1606 39.7823 25.1606 41.6131C25.1606 41.9792 25.4626 42.2722 25.84 42.2722C26.2175 42.2722 26.5194 41.9792 26.5194 41.6131C26.5194 40.5878 27.4253 39.709 28.4821 39.709C28.935 39.709 29.3879 39.8555 29.7654 40.1484C30.0673 40.3681 30.5202 40.3681 30.7467 40.0752C30.9731 39.7823 30.9731 39.3429 30.6712 39.1232C30.1428 38.6106 29.3879 38.3176 28.5576 38.3176Z"
          fill="#028577"/>
    <path d="M38.7484 38.6838C37.9935 38.6838 37.3141 38.9035 36.7857 39.4162C36.4838 39.6359 36.4838 40.0753 36.7103 40.3682C36.9367 40.6611 37.3896 40.6611 37.6916 40.4414C37.9935 40.2217 38.371 40.0753 38.6729 40.0753C39.5033 40.0753 40.2581 40.7343 40.2581 41.6131C40.2581 41.9793 40.5601 42.2722 40.9375 42.2722C41.315 42.2722 41.6169 41.9793 41.6169 41.6131C41.7679 40.002 40.4091 38.6838 38.7484 38.6838Z"
          fill="#028577"/>
    <path d="M31.8036 34.5828C31.1997 34.5828 30.6713 34.8025 30.2184 35.1686C29.9164 35.3883 29.9164 35.8277 30.1429 36.1206C30.3693 36.4136 30.8223 36.4136 31.1242 36.1939C31.2752 36.0474 31.5016 35.9742 31.7281 35.9742C32.2565 35.9742 32.7094 36.4136 32.7094 36.9262C32.7094 37.2924 33.0114 37.5853 33.3888 37.5853C33.7662 37.5853 34.0682 37.2924 34.0682 36.9262C34.2192 35.608 33.0869 34.5828 31.8036 34.5828Z"
          fill="#028577"/>
</svg>
