<svg width="32" height="34" viewBox="0 0 32 34" fill="none" xmlns="http://www.w3.org/2000/svg">
<path d="M24.6896 9.88304V14.1042C24.6896 14.1042 22.1278 14.1183 22.1149 14.1042V9.88304H18.2528C18.2528 9.88304 18.2657 7.07363 18.2528 7.05951H22.1149V2.82422H24.6896V7.05951H28.5517V9.88304H24.6896ZM20.8276 15.5301V11.2948H16.9655V7.05951H6.66663C5.25054 7.05951 4.09192 8.3301 4.09192 9.88304V26.8242C4.09192 28.3772 5.25054 29.6477 6.66663 29.6477H22.1149C23.531 29.6477 24.6896 28.3772 24.6896 26.8242V15.5301H20.8276ZM6.66663 26.8242L10.5287 21.1772L13.1034 25.4125L16.9655 19.7654L22.1149 26.8242H6.66663Z" fill="#66738A"/>
</svg>
