<svg width="326" height="24" viewBox="0 0 326 24" fill="none" xmlns="http://www.w3.org/2000/svg">
<path d="M163.164 13.7109C163.164 15.1068 162.812 16.1979 162.109 16.9844C161.406 17.7656 160.435 18.1562 159.195 18.1562C158.43 18.1562 157.75 17.9766 157.156 17.6172C156.562 17.2578 156.104 16.7422 155.781 16.0703C155.458 15.3984 155.297 14.612 155.297 13.7109C155.297 12.3151 155.646 11.2292 156.344 10.4531C157.042 9.67188 158.01 9.28125 159.25 9.28125C160.448 9.28125 161.398 9.67969 162.102 10.4766C162.81 11.2734 163.164 12.3516 163.164 13.7109ZM156.641 13.7109C156.641 14.8047 156.859 15.638 157.297 16.2109C157.734 16.7839 158.378 17.0703 159.227 17.0703C160.076 17.0703 160.719 16.7865 161.156 16.2188C161.599 15.6458 161.82 14.8099 161.82 13.7109C161.82 12.6224 161.599 11.7969 161.156 11.2344C160.719 10.6667 160.07 10.3828 159.211 10.3828C158.362 10.3828 157.721 10.6615 157.289 11.2188C156.857 11.776 156.641 12.6068 156.641 13.7109ZM169.352 9.28125C169.732 9.28125 170.073 9.3125 170.375 9.375L170.195 10.5781C169.841 10.5 169.529 10.4609 169.258 10.4609C168.565 10.4609 167.971 10.7422 167.477 11.3047C166.987 11.8672 166.742 12.5677 166.742 13.4062V18H165.445V9.4375H166.516L166.664 11.0234H166.727C167.044 10.4661 167.427 10.0365 167.875 9.73438C168.323 9.43229 168.815 9.28125 169.352 9.28125Z" fill="#282B36"/>
<line y1="11.5" x2="139" y2="11.5" stroke="#9FAABE"/>
<line x1="187" y1="11.5" x2="326" y2="11.5" stroke="#9FAABE"/>
</svg>
