<svg width="24" height="24" viewBox="0 0 24 24" fill="none" xmlns="http://www.w3.org/2000/svg">
<path d="M12.1699 13.0508V20.9108" stroke="#028577" stroke-width="1.5" stroke-linecap="round" stroke-linejoin="round"/>
<path d="M12.15 19.7919V19.4319C11.52 13.9819 10.84 13.3019 5.39004 12.6719H5.04004C5.52004 18.4119 6.45004 19.3419 12.19 19.8319L12.15 19.7919Z" stroke="#028577" stroke-width="1.5" stroke-linecap="round" stroke-linejoin="round"/>
<path d="M12.1699 19.7919V19.4319C12.7999 13.9819 13.4799 13.3019 18.9199 12.6719H19.2799C18.7999 18.4119 17.8699 19.3419 12.1299 19.8319L12.1699 19.7919Z" stroke="#028577" stroke-width="1.5" stroke-linecap="round" stroke-linejoin="round"/>
<path d="M12.1699 13.12L12.3899 12.84C15.7999 8.54 15.7999 7.57999 12.3899 3.28999L12.1699 3C8.44988 7.4 8.44988 8.72 12.1699 13.12V13.12Z" stroke="#028577" stroke-width="1.5" stroke-linecap="round" stroke-linejoin="round"/>
</svg>
