<svg width="24" height="25" viewBox="0 0 24 25" fill="none" xmlns="http://www.w3.org/2000/svg">
<path fill-rule="evenodd" clip-rule="evenodd" d="M11.88 1.9873C11.88 1.9873 7.32 4.8773 11.88 9.4373C11.88 9.4373 16.82 5.7873 11.88 1.9873Z" stroke="#5D697E" stroke-width="1.5" stroke-linecap="round" stroke-linejoin="round"/>
<path fill-rule="evenodd" clip-rule="evenodd" d="M11.72 13.0573C11.72 13.0573 5.91002 13.8873 6.59002 7.59729C6.59002 7.59729 12.46 5.88729 11.72 13.0573Z" stroke="#5D697E" stroke-width="1.5" stroke-linecap="round" stroke-linejoin="round"/>
<path fill-rule="evenodd" clip-rule="evenodd" d="M11.72 18.4674C11.72 18.4674 5.91002 19.2974 6.59002 13.0074C6.59002 13.0074 12.46 11.2974 11.72 18.4674Z" stroke="#5D697E" stroke-width="1.5" stroke-linecap="round" stroke-linejoin="round"/>
<path fill-rule="evenodd" clip-rule="evenodd" d="M12.22 13.0573C12.22 13.0573 18.03 13.8873 17.35 7.59729C17.35 7.59729 11.48 5.88729 12.22 13.0573Z" stroke="#5D697E" stroke-width="1.5" stroke-linecap="round" stroke-linejoin="round"/>
<path fill-rule="evenodd" clip-rule="evenodd" d="M12.22 18.4674C12.22 18.4674 18.03 19.2974 17.35 13.0074C17.35 13.0074 11.48 11.2974 12.22 18.4674Z" stroke="#5D697E" stroke-width="1.5" stroke-linecap="round" stroke-linejoin="round"/>
<path d="M11.88 9.82715V22.4771" stroke="#5D697E" stroke-width="1.5" stroke-linecap="round" stroke-linejoin="round"/>
<path d="M2.75 22.4775H21.25" stroke="#5D697E" stroke-width="1.5" stroke-miterlimit="10" stroke-linecap="round" stroke-linejoin="round"/>
</svg>
