<svg width="33" height="33" viewBox="0 0 33 33" fill="none" xmlns="http://www.w3.org/2000/svg">
<path d="M17.2129 22.4976C18.0269 22.5855 18.8072 22.5453 19.5622 22.2514C20.4569 21.9032 21.1958 21.331 21.7857 20.5573L21.7857 20.5573C22.4223 19.7221 22.7478 18.7708 22.7584 17.7179L22.7584 17.7178C22.7619 17.3223 22.7095 16.9257 22.6488 16.5433L22.6487 16.5431C22.6088 16.2939 22.5737 16.0847 22.4644 15.9305C22.3473 15.7655 22.1624 15.6823 21.885 15.6267M17.2129 22.4976L22.5983 12.8863L22.7225 12.8999C22.6295 13.7524 22.3526 14.5126 21.8624 15.2001L21.8624 15.2002C21.7794 15.3164 21.6908 15.43 21.5999 15.5463C21.5988 15.5477 21.5977 15.5492 21.5966 15.5506M17.2129 22.4976V22.6134C17.2129 22.858 17.213 23.1027 17.2131 23.3475C17.2134 23.913 17.2137 24.4788 17.2126 25.0444L17.2123 25.1692H17.0876H15.9875H15.8629L15.8625 25.0445V25.0445L15.8625 25.0442L15.8625 25.0433L15.8625 25.0395L15.8625 25.0245L15.8623 24.9672L15.8617 24.7557L15.8596 24.0544L15.855 22.4859C15.7889 22.4896 15.7223 22.4935 15.6555 22.4975C15.4359 22.5104 15.2135 22.5236 14.9926 22.5281M17.2129 22.4976L10.3005 12.8233C10.4019 13.7312 10.703 14.5381 11.2207 15.2701C11.2825 15.3582 11.3532 15.4437 11.4265 15.5307C11.4205 15.5315 11.4144 15.5324 11.4083 15.5333C11.3328 15.5441 11.2566 15.5574 11.181 15.5813C11.0375 15.6261 10.8795 15.6788 10.7465 15.7742C10.608 15.8735 10.5008 16.0154 10.4492 16.2277C10.2278 17.1335 10.1912 18.0394 10.459 18.9515C10.8026 20.1242 11.4888 21.0358 12.4683 21.7188C13.2254 22.2471 14.0603 22.5477 14.9926 22.5281M21.885 15.6267C21.8851 15.6267 21.8851 15.6267 21.8851 15.6267L21.8604 15.7493L21.885 15.6267ZM21.885 15.6267C21.7878 15.6071 21.6959 15.5801 21.5966 15.5506M21.5966 15.5506C21.5935 15.5497 21.5904 15.5488 21.5873 15.5478C21.5488 15.5364 21.5091 15.5246 21.4675 15.5128L21.5141 15.6566C21.5417 15.6209 21.5692 15.5856 21.5966 15.5506ZM14.9926 22.5281L14.9901 22.4031M14.9926 22.5281C14.9926 22.5281 14.9927 22.5281 14.9927 22.5281L14.9901 22.4031M14.9901 22.4031C15.2085 22.3987 15.4269 22.3858 15.6453 22.3728C15.7415 22.3672 15.8376 22.3615 15.9337 22.3565L14.9901 22.4031ZM11.9062 16.8493L11.9062 16.8493C11.8705 16.8513 11.8148 16.8692 11.7608 16.9015C11.7045 16.9353 11.6757 16.9694 11.6688 16.9859C11.608 17.1311 11.5897 17.3222 11.6139 17.4892L11.6139 17.4893C11.6271 17.5815 11.6393 17.6732 11.6514 17.7643C11.7041 18.1628 11.7553 18.5489 11.8879 18.9012C12.2358 19.8235 12.8893 20.4742 13.7802 20.8867L11.9062 16.8493ZM11.9062 16.8493C12.9331 16.79 13.8572 17.0023 14.6439 17.7254C15.276 18.307 15.6783 18.9995 15.7996 19.8403C15.8302 20.0519 15.8331 20.2703 15.8279 20.4969M11.9062 16.8493L15.8279 20.4969M10.4526 10.9903C10.3409 11.5822 10.2286 12.1802 10.3005 12.8233L10.4526 10.9903ZM10.4526 10.9903L10.5755 11.0135L11.219 10.4616L11.1926 10.3394C11.1925 10.3395 11.1925 10.3395 11.1925 10.3395C11.0377 10.373 10.8736 10.4224 10.7375 10.5213C10.5965 10.6239 10.4935 10.7738 10.4526 10.9903ZM16.1315 5.03581C15.6004 5.35518 15.125 5.74057 14.7272 6.23922C14.0484 7.08909 13.6744 8.05382 13.6716 9.15716L16.1315 5.03581ZM16.1315 5.03581C16.26 4.95846 16.3917 4.92102 16.5266 4.92511C16.6605 4.92916 16.7883 4.97376 16.9108 5.04561L16.1315 5.03581ZM15.8279 20.4969C15.826 20.579 15.823 20.6634 15.8199 20.749M15.8279 20.4969L15.8199 20.749M15.8199 20.749C15.816 20.8604 15.8119 20.9737 15.8102 21.0862M15.8199 20.749L15.8102 21.0862M15.8102 21.0862C15.0607 21.2108 14.411 21.1782 13.7803 20.8868L15.8102 21.0862ZM19.2979 10.3529C19.2986 10.3435 19.2999 10.335 19.3017 10.3275L19.3018 10.3274C19.4718 9.62724 19.4389 8.92145 19.2886 8.24343L19.2886 8.24341C18.972 6.8171 18.1413 5.76523 16.9109 5.04566L19.2979 10.3529ZM17.4666 15.9051L17.4665 15.9051C17.3693 15.9062 17.3162 15.8762 17.2829 15.8368C17.2455 15.7924 17.2181 15.718 17.2113 15.6056C17.1539 14.6421 17.3076 13.7508 17.906 13.0055L17.8086 12.9273L17.906 13.0055C18.4832 12.2867 19.1581 11.7417 20.0714 11.6573C20.3812 11.6289 20.6894 11.6362 21.0081 11.6437C21.1231 11.6464 21.2394 11.6492 21.3576 11.6503C21.4569 12.2681 21.4454 12.843 21.2561 13.4023L21.2561 13.4024C20.8175 14.6995 19.9321 15.5049 18.6529 15.8422C18.4739 15.8893 18.2828 15.9047 18.0819 15.9081C17.9815 15.9099 17.8802 15.9086 17.7771 15.9072L17.7573 15.9069C17.6612 15.9055 17.5635 15.9041 17.4666 15.9051ZM17.5877 11.1764L17.5876 11.1766C17.3358 11.6451 16.9619 12.003 16.5237 12.3446C15.9338 11.9345 15.4878 11.3995 15.2413 10.7096L15.2413 10.7096C14.8032 9.4841 14.9272 8.31705 15.6641 7.25132L15.6641 7.25131C15.8303 7.01091 16.0586 6.8158 16.2985 6.61076C16.3535 6.56381 16.409 6.51633 16.4646 6.46767C16.4657 6.46712 16.4702 6.46483 16.4796 6.46221C16.4939 6.45827 16.5127 6.45546 16.5334 6.45493C16.5541 6.4544 16.5731 6.45623 16.5878 6.45946C16.5981 6.46174 16.603 6.46397 16.604 6.46441C17.4258 7.10918 17.921 7.9218 18.022 9.00961L18.022 9.00964C18.0955 9.79838 17.9516 10.5012 17.5877 11.1764ZM14.6196 12.4607L14.6196 12.4607C15.232 13.0101 15.6542 13.6529 15.7588 14.4605C15.8016 14.7923 15.7909 15.125 15.7798 15.4702C15.7758 15.5963 15.7717 15.7241 15.7701 15.8541C15.0738 15.9629 14.4337 15.9397 13.8141 15.6567L13.8141 15.6567C12.7224 15.1583 12.0291 14.3258 11.7149 13.1409C11.5931 12.6803 11.5941 12.2201 11.6575 11.7419L11.6575 11.7417C11.6644 11.6885 11.6792 11.6627 11.6901 11.6499C11.7005 11.6375 11.7149 11.6282 11.7378 11.6214C11.7625 11.6142 11.793 11.6111 11.8314 11.6102C11.8414 11.61 11.8543 11.6099 11.8684 11.6099C11.8962 11.6098 11.9286 11.6098 11.9522 11.6082C12.9511 11.5401 13.849 11.7692 14.6196 12.4607ZM13.7093 10.136C13.7147 10.2282 13.7202 10.3201 13.7251 10.4117L13.7093 10.136ZM21.3552 16.8988C21.8327 19.4672 19.556 21.5659 17.272 21.099C16.7894 18.7701 18.7908 16.384 21.3552 16.8988Z" fill="#ABC7C1" stroke="#ABC7C1" stroke-width="0.25" stroke-linecap="round"/>
<path fill-rule="evenodd" clip-rule="evenodd" d="M22.6338 26.0694C22.6338 26.6357 22.3598 27.0947 22.0219 27.0947L11.0074 27.0947C10.6695 27.0947 10.3955 26.6357 10.3955 26.0694C10.3955 25.5032 10.6695 25.0442 11.0074 25.0442L22.0219 25.0442C22.3598 25.0442 22.6338 25.5032 22.6338 26.0694Z" fill="#ABC7C1"/>
</svg>
