<svg width="33" height="33" viewBox="0 0 33 33" fill="none" xmlns="http://www.w3.org/2000/svg">
<g clip-path="url(#clip0_4538_77962)">
<path fill-rule="evenodd" clip-rule="evenodd" d="M15.5907 22.9323C15.697 22.9323 15.7925 22.9214 15.8987 22.9105C15.8987 22.9105 15.9306 22.9432 15.9412 22.965V25.8398H17.1202C17.1202 25.2191 17.1202 24.6093 17.1202 23.9886C17.1202 23.7272 17.1202 23.455 17.1202 23.1937V22.9105C18.0229 23.0303 18.8832 22.9977 19.701 22.671C20.6251 22.3007 21.3898 21.6909 22.0058 20.8742C22.6643 19.9922 23.0041 18.9795 23.0148 17.8688C23.0148 17.455 22.9617 17.0303 22.8979 16.6165C22.813 16.0503 22.7599 15.8434 22.197 15.7345C22.0801 15.7127 21.9739 15.6801 21.8571 15.6474C21.804 15.6256 21.7403 15.6147 21.6871 15.5929C21.7296 15.5385 21.7721 15.484 21.8146 15.4296C21.9102 15.2989 22.0058 15.1791 22.0907 15.0594C22.6005 14.3298 22.8873 13.524 22.9829 12.6202C23.0679 11.8688 22.9829 11.1501 22.7811 10.4314C22.7386 10.3007 22.6005 10.1374 22.4731 10.1047C22.4412 10.1047 22.4094 10.083 22.3775 10.083C21.9845 9.97406 21.5916 9.86517 21.1986 9.86517C20.7631 9.86517 20.3383 9.90873 19.9028 9.95229C19.7223 9.97406 19.5311 9.99584 19.3505 10.0067C19.3505 9.99584 19.3505 9.97406 19.3505 9.96317C19.3505 9.91962 19.3505 9.85428 19.3505 9.79984C19.5205 9.05936 19.4886 8.31889 19.3399 7.58931C19.0107 6.0757 18.1504 4.96499 16.8759 4.19185C16.6422 4.05029 16.4192 4.0394 16.1855 4.18096C15.6332 4.51853 15.1447 4.93232 14.7304 5.45501C14.0295 6.35882 13.6365 7.38241 13.6365 8.54757C13.6365 8.89602 13.6577 9.24448 13.679 9.60383C13.679 9.76717 13.7002 9.91962 13.7002 10.083C13.7002 10.083 13.7002 10.083 13.6896 10.083C13.679 10.083 13.6577 10.083 13.6365 10.083C12.7337 9.77806 11.8203 9.76717 10.8963 9.97406C10.5777 10.0394 10.2909 10.1701 10.2166 10.573C10.0997 11.2154 9.9829 11.847 10.0572 12.533C10.1635 13.5022 10.4715 14.3516 11.0131 15.1356C11.0875 15.2336 11.1618 15.3316 11.2468 15.4405C11.2893 15.4949 11.3318 15.5385 11.3742 15.6038C11.3105 15.6038 11.2574 15.6256 11.2043 15.6256C11.0981 15.6365 10.9919 15.6583 10.8963 15.6801C10.5883 15.7781 10.3015 15.887 10.2059 16.2899C9.97228 17.259 9.94042 18.2173 10.2059 19.1864C10.567 20.4278 11.268 21.3969 12.2876 22.1265C13.0736 22.6928 13.9339 23.0085 14.8898 22.9868C15.1234 22.9868 15.3571 22.965 15.5907 22.9541V22.9323ZM21.2942 11.1174C21.4535 11.1174 21.6128 11.1174 21.7615 11.1174C21.8889 11.847 21.8889 12.533 21.6659 13.2082C21.188 14.6673 20.2108 15.5712 18.8089 15.9523C18.4903 16.0394 18.161 16.0285 17.8211 16.0285C17.7149 16.0285 17.6193 16.0285 17.5131 16.0285C17.2476 16.0285 17.1202 15.8543 17.1095 15.5712C17.0458 14.504 17.2157 13.4913 17.8742 12.6419C18.5009 11.847 19.2443 11.2154 20.2639 11.1283C20.6038 11.0957 20.9437 11.1066 21.2836 11.1174H21.2942ZM17.768 10.8125C17.4706 11.3788 17.0246 11.7926 16.5254 12.1846C15.835 11.7164 15.3146 11.0957 15.0385 10.279C14.5605 8.90691 14.6986 7.58931 15.5058 6.39149C15.697 6.10837 15.9519 5.89058 16.2068 5.6619C16.2599 5.60746 16.3236 5.5639 16.3767 5.50945C16.4404 5.45501 16.621 5.44412 16.6953 5.50945C17.5981 6.22815 18.1398 7.15374 18.2566 8.37334C18.3416 9.25537 18.1822 10.0503 17.7787 10.8125H17.768ZM17.2051 21.6692C19.7754 22.279 22.3669 19.8289 21.7615 16.867C18.862 16.2027 16.5997 19.0013 17.2051 21.6692ZM15.8669 15.4405C15.8669 15.6147 15.8563 15.7889 15.8563 15.9523C15.0597 16.0938 14.3162 16.083 13.594 15.7454C12.3938 15.19 11.6398 14.2427 11.2893 12.9142C11.1512 12.3915 11.1512 11.8688 11.2255 11.3352C11.2574 11.0739 11.4486 11.0739 11.5867 11.0739C11.6079 11.0739 11.6398 11.0739 11.661 11.0739C12.755 10.9977 13.7427 11.259 14.5924 12.0321C15.2615 12.6419 15.7288 13.3715 15.8456 14.2971C15.8881 14.6673 15.8775 15.0485 15.8669 15.4296V15.4405ZM15.9094 21.1791C15.9094 21.3316 15.8987 21.4949 15.8987 21.6474C15.0385 21.8107 14.2844 21.7889 13.5515 21.4405C12.5744 20.9831 11.8522 20.2427 11.4698 19.2082C11.3211 18.8053 11.268 18.3697 11.2149 17.9341C11.2043 17.8361 11.1937 17.7381 11.1724 17.6401C11.1406 17.4332 11.1724 17.2046 11.2362 17.0194C11.2787 16.8997 11.4698 16.7908 11.6079 16.7908C12.7231 16.7254 13.7427 16.965 14.6136 17.7817C15.304 18.435 15.7501 19.2191 15.8775 20.1664C15.92 20.4931 15.9094 20.8416 15.8987 21.1791H15.9094Z" fill="#ABC7C1"/>
<path d="M22.3668 28.0723C22.7279 28.0723 23.0146 27.5714 23.0146 26.9507C23.0146 26.33 22.7279 25.8291 22.3668 25.8291H10.6625C10.3014 25.84 10.0146 26.3409 10.0146 26.9616C10.0146 27.5823 10.3014 28.0832 10.6625 28.0832H22.3562L22.3668 28.0723Z" fill="#ABC7C1"/>
</g>
<defs>
<clipPath id="clip0_4538_77962">
<rect width="13" height="24" fill="white" transform="translate(10.0146 4.07227)"/>
</clipPath>
</defs>
</svg>
