<svg width="37" height="36" viewBox="0 0 37 36" fill="none" xmlns="http://www.w3.org/2000/svg">
<rect x="0.890625" width="36" height="36" rx="18" fill="white" fill-opacity="0.5"/>
<g filter="url(#filter0_d_5168_7844)">
<path d="M28.708 29.8448L25.9426 19.6857C25.898 19.371 25.7642 19.1013 25.6304 18.8766H26.3441C27.3699 18.8766 28.1728 18.0674 28.1728 17.0336C28.1728 16.4941 27.9052 15.9997 27.5483 15.64C27.9498 15.2804 28.1728 14.786 28.1728 14.2465C28.1728 13.7071 27.9052 13.2127 27.5483 12.853C27.9498 12.4934 28.1728 11.999 28.1728 11.4595C28.1728 10.4257 27.3699 9.61652 26.3441 9.61652H25.229C25.0952 9.0771 24.8275 8.53768 24.3815 8.13312C23.8017 7.54875 22.9988 7.23408 22.1514 7.23408H21.2593V6.64971L23.8909 5.03145C24.1585 4.94155 24.2031 4.67184 24.0693 4.44708C23.9355 4.22232 23.6679 4.17737 23.4449 4.31222L21.3039 5.61582V4.67184C21.3039 4.40213 21.1255 4.22232 20.8579 4.22232C20.5903 4.22232 20.4119 4.40213 20.4119 4.67184V5.61582L18.2709 4.31222C18.0479 4.17737 17.7803 4.26727 17.6465 4.44708C17.5127 4.67184 17.6019 4.94155 17.7803 5.0764L20.4119 6.69466V7.23408H19.8766C19.163 7.23408 18.4939 7.41389 17.8695 7.81846L13.6322 10.8752H9.48412C9.2165 10.8752 9.03809 11.055 9.03809 11.3247V19.371C9.03809 19.6408 9.2165 19.8206 9.48412 19.8206H13.8552L14.6581 20.2701L12.9632 30.2943C12.9185 30.4741 13.0524 30.6989 13.2308 30.7438C13.2754 30.7888 13.3646 30.7888 13.4092 30.7888C13.543 30.7888 13.6768 30.7438 13.766 30.609L18.5385 24.9001L20.4565 31.463C20.5011 31.6429 20.6795 31.7777 20.9025 31.7777C21.1255 31.7777 21.2593 31.6429 21.3039 31.4181L22.865 25.2148L27.9944 30.2493C28.0836 30.3393 28.1728 30.3842 28.3066 30.3842C28.3958 30.3842 28.485 30.3842 28.5296 30.3393C28.708 30.2493 28.7972 30.0246 28.708 29.8448ZM23.311 18.2922C23.2218 18.1573 23.1326 18.0674 23.0434 17.9775C23.3556 18.0225 23.6679 18.1124 23.9355 18.2922C24.1585 18.4271 24.3369 18.5619 24.4707 18.7417C24.7829 19.0564 24.9614 19.4609 25.0506 19.9105L25.0952 20.0903L23.8909 20.7645C24.0693 19.8655 23.8463 19.0114 23.311 18.2922ZM21.1701 14.3365C21.3485 14.1566 21.5269 13.9319 21.6607 13.7071V15.685C21.6607 16.2244 21.8838 16.7189 22.2406 17.0336C22.1068 17.0336 21.9284 17.0785 21.7945 17.1235C21.5715 17.0336 21.3931 16.9886 21.1701 16.9436V14.4264C21.2147 14.4264 21.1701 14.3814 21.1701 14.3365ZM27.3253 17.0336C27.3253 17.573 26.9239 17.9775 26.3887 17.9775H25.006C24.8275 17.7977 24.6045 17.6629 24.3815 17.528C24.3369 17.4831 24.2477 17.4831 24.2031 17.4381C24.7383 17.2134 25.1844 16.7189 25.3182 16.1345H26.3887C26.8793 16.0896 27.3253 16.4941 27.3253 17.0336ZM27.3253 14.2465C27.3253 14.786 26.9239 15.1905 26.3887 15.1905H25.3628V13.3026H26.3887C26.8793 13.3026 27.3253 13.7071 27.3253 14.2465ZM27.3253 11.4595C27.3253 11.999 26.9239 12.4035 26.3887 12.4035H25.3628V10.5156H26.3887C26.8793 10.5156 27.3253 10.9201 27.3253 11.4595ZM13.989 18.8316H9.93015V11.7293H13.8106C13.8998 11.7293 13.989 11.6843 14.0782 11.6393L18.4047 8.49273C18.8507 8.22302 19.386 8.08817 19.9212 8.08817H22.2406C22.8204 8.08817 23.4003 8.31292 23.8017 8.76244C24.2031 9.16701 24.4707 9.75138 24.4707 10.3358V15.685C24.4707 16.2244 24.0693 16.629 23.5341 16.629C22.9988 16.629 22.5974 16.2244 22.5974 15.685V11.8641C22.5974 11.6843 22.4636 11.5045 22.2852 11.4595C22.2406 11.4595 22.196 11.4146 22.1514 11.4146C21.973 11.4146 21.7945 11.5045 21.7499 11.6843C20.9471 13.8869 19.7428 14.6961 17.1558 15.685C16.9328 15.7749 16.799 16.0446 16.8882 16.2694C16.9774 16.4492 17.1112 16.5391 17.2896 16.5391C17.3342 16.5391 17.3788 16.5391 17.4681 16.4941C18.6277 16.0446 19.5644 15.5951 20.3672 15.0557V16.8537C20.0104 16.8987 19.6982 16.9886 19.386 17.1235C18.4493 16.7189 17.3788 16.7638 16.4868 17.2583C15.7285 17.6629 15.1933 18.3821 14.9257 19.1912L14.2566 18.8316C14.1228 18.8766 14.0782 18.8316 13.989 18.8316ZM15.5947 20.0903C15.5947 20.0453 15.5947 20.0004 15.5947 20.0004C15.6839 19.1912 16.13 18.517 16.8436 18.1573C17.2896 17.8876 17.8249 17.7977 18.3155 17.8427C18.1371 18.0225 18.0033 18.1573 17.8695 18.3821C17.245 19.2811 17.1112 20.4499 17.4681 21.4388L18.0925 23.6415L16.6652 22.9222C16.4422 22.8323 16.1746 22.9222 16.0854 23.147C15.9962 23.3717 16.0854 23.6415 16.3084 23.7314L17.7357 24.4506L14.0782 28.8109L15.5947 20.0903ZM20.8579 29.665L19.163 23.8213V23.7763L18.4047 21.1242C18.1371 20.36 18.2263 19.5508 18.6723 18.8766C19.1184 18.2023 19.8766 17.7977 20.6795 17.7977C21.4823 17.7977 22.196 18.1573 22.642 18.7867C23.088 19.416 23.2218 20.2251 22.9988 20.9893L22.9542 21.1691H21.2147C20.9471 21.1691 20.7687 21.3489 20.7687 21.6186C20.7687 21.8883 20.9471 22.0681 21.2147 22.0681H22.7312L22.419 23.2369H22.3744H20.6349C20.3672 23.2369 20.1888 23.4167 20.1888 23.6864C20.1888 23.9561 20.3672 24.1359 20.6349 24.1359H22.2406L20.8579 29.665ZM23.088 24.2258L23.7125 21.7535C23.7571 21.7535 23.8017 21.7535 23.8463 21.7535C23.9355 21.7535 23.9801 21.7535 24.0693 21.7085L25.4074 20.9443L25.7196 22.0681H25.675L24.1585 22.9222C23.9355 23.0571 23.8463 23.3268 23.9801 23.5515C24.0693 23.6864 24.2031 23.7763 24.3815 23.7763C24.4707 23.7763 24.5153 23.7763 24.6045 23.7314L25.9872 22.9672L27.5037 28.4513L23.088 24.2258Z" fill="#028577"/>
<path d="M28.708 29.8448L25.9426 19.6857C25.898 19.371 25.7642 19.1013 25.6304 18.8766H26.3441C27.3699 18.8766 28.1728 18.0674 28.1728 17.0336C28.1728 16.4941 27.9052 15.9997 27.5483 15.64C27.9498 15.2804 28.1728 14.786 28.1728 14.2465C28.1728 13.7071 27.9052 13.2127 27.5483 12.853C27.9498 12.4934 28.1728 11.999 28.1728 11.4595C28.1728 10.4257 27.3699 9.61652 26.3441 9.61652H25.229C25.0952 9.0771 24.8275 8.53768 24.3815 8.13312C23.8017 7.54875 22.9988 7.23408 22.1514 7.23408H21.2593V6.64971L23.8909 5.03145C24.1585 4.94155 24.2031 4.67184 24.0693 4.44708C23.9355 4.22232 23.6679 4.17737 23.4449 4.31222L21.3039 5.61582V4.67184C21.3039 4.40213 21.1255 4.22232 20.8579 4.22232C20.5903 4.22232 20.4119 4.40213 20.4119 4.67184V5.61582L18.2709 4.31222C18.0479 4.17737 17.7803 4.26727 17.6465 4.44708C17.5127 4.67184 17.6019 4.94155 17.7803 5.0764L20.4119 6.69466V7.23408H19.8766C19.163 7.23408 18.4939 7.41389 17.8695 7.81846L13.6322 10.8752H9.48412C9.2165 10.8752 9.03809 11.055 9.03809 11.3247V19.371C9.03809 19.6408 9.2165 19.8206 9.48412 19.8206H13.8552L14.6581 20.2701L12.9632 30.2943C12.9185 30.4741 13.0524 30.6989 13.2308 30.7438C13.2754 30.7888 13.3646 30.7888 13.4092 30.7888C13.543 30.7888 13.6768 30.7438 13.766 30.609L18.5385 24.9001L20.4565 31.463C20.5011 31.6429 20.6795 31.7777 20.9025 31.7777C21.1255 31.7777 21.2593 31.6429 21.3039 31.4181L22.865 25.2148L27.9944 30.2493C28.0836 30.3393 28.1728 30.3842 28.3066 30.3842C28.3958 30.3842 28.485 30.3842 28.5296 30.3393C28.708 30.2493 28.7972 30.0246 28.708 29.8448ZM23.311 18.2922C23.2218 18.1573 23.1326 18.0674 23.0434 17.9775C23.3556 18.0225 23.6679 18.1124 23.9355 18.2922C24.1585 18.4271 24.3369 18.5619 24.4707 18.7417C24.7829 19.0564 24.9614 19.4609 25.0506 19.9105L25.0952 20.0903L23.8909 20.7645C24.0693 19.8655 23.8463 19.0114 23.311 18.2922ZM21.1701 14.3365C21.3485 14.1566 21.5269 13.9319 21.6607 13.7071V15.685C21.6607 16.2244 21.8838 16.7189 22.2406 17.0336C22.1068 17.0336 21.9284 17.0785 21.7945 17.1235C21.5715 17.0336 21.3931 16.9886 21.1701 16.9436V14.4264C21.2147 14.4264 21.1701 14.3814 21.1701 14.3365ZM27.3253 17.0336C27.3253 17.573 26.9239 17.9775 26.3887 17.9775H25.006C24.8275 17.7977 24.6045 17.6629 24.3815 17.528C24.3369 17.4831 24.2477 17.4831 24.2031 17.4381C24.7383 17.2134 25.1844 16.7189 25.3182 16.1345H26.3887C26.8793 16.0896 27.3253 16.4941 27.3253 17.0336ZM27.3253 14.2465C27.3253 14.786 26.9239 15.1905 26.3887 15.1905H25.3628V13.3026H26.3887C26.8793 13.3026 27.3253 13.7071 27.3253 14.2465ZM27.3253 11.4595C27.3253 11.999 26.9239 12.4035 26.3887 12.4035H25.3628V10.5156H26.3887C26.8793 10.5156 27.3253 10.9201 27.3253 11.4595ZM13.989 18.8316H9.93015V11.7293H13.8106C13.8998 11.7293 13.989 11.6843 14.0782 11.6393L18.4047 8.49273C18.8507 8.22302 19.386 8.08817 19.9212 8.08817H22.2406C22.8204 8.08817 23.4003 8.31292 23.8017 8.76244C24.2031 9.16701 24.4707 9.75138 24.4707 10.3358V15.685C24.4707 16.2244 24.0693 16.629 23.5341 16.629C22.9988 16.629 22.5974 16.2244 22.5974 15.685V11.8641C22.5974 11.6843 22.4636 11.5045 22.2852 11.4595C22.2406 11.4595 22.196 11.4146 22.1514 11.4146C21.973 11.4146 21.7945 11.5045 21.7499 11.6843C20.9471 13.8869 19.7428 14.6961 17.1558 15.685C16.9328 15.7749 16.799 16.0446 16.8882 16.2694C16.9774 16.4492 17.1112 16.5391 17.2896 16.5391C17.3342 16.5391 17.3788 16.5391 17.4681 16.4941C18.6277 16.0446 19.5644 15.5951 20.3672 15.0557V16.8537C20.0104 16.8987 19.6982 16.9886 19.386 17.1235C18.4493 16.7189 17.3788 16.7638 16.4868 17.2583C15.7285 17.6629 15.1933 18.3821 14.9257 19.1912L14.2566 18.8316C14.1228 18.8766 14.0782 18.8316 13.989 18.8316ZM15.5947 20.0903C15.5947 20.0453 15.5947 20.0004 15.5947 20.0004C15.6839 19.1912 16.13 18.517 16.8436 18.1573C17.2896 17.8876 17.8249 17.7977 18.3155 17.8427C18.1371 18.0225 18.0033 18.1573 17.8695 18.3821C17.245 19.2811 17.1112 20.4499 17.4681 21.4388L18.0925 23.6415L16.6652 22.9222C16.4422 22.8323 16.1746 22.9222 16.0854 23.147C15.9962 23.3717 16.0854 23.6415 16.3084 23.7314L17.7357 24.4506L14.0782 28.8109L15.5947 20.0903ZM20.8579 29.665L19.163 23.8213V23.7763L18.4047 21.1242C18.1371 20.36 18.2263 19.5508 18.6723 18.8766C19.1184 18.2023 19.8766 17.7977 20.6795 17.7977C21.4823 17.7977 22.196 18.1573 22.642 18.7867C23.088 19.416 23.2218 20.2251 22.9988 20.9893L22.9542 21.1691H21.2147C20.9471 21.1691 20.7687 21.3489 20.7687 21.6186C20.7687 21.8883 20.9471 22.0681 21.2147 22.0681H22.7312L22.419 23.2369H22.3744H20.6349C20.3672 23.2369 20.1888 23.4167 20.1888 23.6864C20.1888 23.9561 20.3672 24.1359 20.6349 24.1359H22.2406L20.8579 29.665ZM23.088 24.2258L23.7125 21.7535C23.7571 21.7535 23.8017 21.7535 23.8463 21.7535C23.9355 21.7535 23.9801 21.7535 24.0693 21.7085L25.4074 20.9443L25.7196 22.0681H25.675L24.1585 22.9222C23.9355 23.0571 23.8463 23.3268 23.9801 23.5515C24.0693 23.6864 24.2031 23.7763 24.3815 23.7763C24.4707 23.7763 24.5153 23.7763 24.6045 23.7314L25.9872 22.9672L27.5037 28.4513L23.088 24.2258Z" stroke="#028577" stroke-width="0.25"/>
</g>
<defs>
<filter id="filter0_d_5168_7844" x="8.91309" y="4.09732" width="19.9551" height="28.3054" filterUnits="userSpaceOnUse" color-interpolation-filters="sRGB">
<feFlood flood-opacity="0" result="BackgroundImageFix"/>
<feColorMatrix in="SourceAlpha" type="matrix" values="0 0 0 0 0 0 0 0 0 0 0 0 0 0 0 0 0 0 127 0" result="hardAlpha"/>
<feOffset dy="0.5"/>
<feComposite in2="hardAlpha" operator="out"/>
<feColorMatrix type="matrix" values="0 0 0 0 0.537255 0 0 0 0 0.819608 0 0 0 0 0.780392 0 0 0 1 0"/>
<feBlend mode="normal" in2="BackgroundImageFix" result="effect1_dropShadow_5168_7844"/>
<feBlend mode="normal" in="SourceGraphic" in2="effect1_dropShadow_5168_7844" result="shape"/>
</filter>
</defs>
</svg>
