<svg width="28" height="29" viewBox="0 0 28 29" fill="none" xmlns="http://www.w3.org/2000/svg">
<path d="M19.1504 17.8032C19.1504 19.1624 18.2939 20.0159 16.8461 20.2055V21.1749H15.541V20.2161C14.45 20.1002 13.6547 19.6998 13.0532 19.1308L14.1237 17.5503C14.6336 18.0561 15.3983 18.4565 16.3159 18.4565C16.7034 18.4565 17.0704 18.3195 17.0704 18.0455C17.0704 17.7716 16.7849 17.6346 16.112 17.5081C14.9904 17.2974 13.2775 17.0235 13.2775 15.2638C13.2775 14.1996 14.0422 13.2197 15.541 13.0195V12.0291H16.8461V13.0406C17.6618 13.1565 18.3857 13.462 18.9873 13.9678L17.8861 15.4746C17.2947 15.0109 16.53 14.7791 15.9896 14.7791C15.4798 14.7791 15.3677 14.9688 15.3677 15.1479C15.3677 15.4219 15.643 15.5167 16.3669 15.6431C17.4885 15.8433 19.1504 16.1805 19.1504 17.8032Z" fill="#266F68"/>
<path d="M9.61981 15.3872C9.61981 15.3872 9.61957 17.7813 9.61957 19.8701" stroke="#266F68" stroke-linecap="round" stroke-dasharray="2 2"/>
<path d="M23.131 13.5933C23.131 13.5933 23.131 15.9573 23.131 18.0461" stroke="#266F68" stroke-linecap="round" stroke-dasharray="2 2"/>
<path d="M12.7452 10.3525C15.1718 9.81257 17.7334 8.56416 20.9191 8.56416C23.4075 8.56416 24.7534 8.94499 25.4231 9.24039C25.5123 9.27972 25.5569 9.29939 25.6856 9.42222C25.7627 9.49584 25.9035 9.71186 25.9398 9.81215C26.0002 9.97947 26.0002 10.0709 26.0002 10.2539L26.0002 21.1765C26.0002 22.1 26.0002 22.5617 25.8617 22.7991C25.7208 23.0405 25.585 23.1527 25.3213 23.2455C25.0621 23.3367 24.5388 23.2362 23.4924 23.0351C22.7599 22.8944 21.8912 22.7911 20.9191 22.7911C17.8705 22.7911 14.8219 24.8235 10.7571 24.8235C8.26866 24.8235 6.92277 24.4426 6.25311 24.1473C6.16392 24.1079 6.11933 24.0882 5.99064 23.9654C5.91349 23.8918 5.77268 23.6758 5.73645 23.5755C5.67602 23.4082 5.67602 23.3167 5.67602 23.1338L5.67602 14.1756" stroke="#266F68" stroke-width="1.5" stroke-linecap="round" stroke-linejoin="round"/>
<path fill-rule="evenodd" clip-rule="evenodd" d="M6.61516 11.5476C6.61516 11.9782 6.96416 12.3271 7.39467 12.3271C7.82518 12.3271 8.17418 11.9782 8.17418 11.5476L8.17418 9.83272L8.17418 9.75083L8.25582 9.75083L9.97074 9.75083C10.4012 9.75083 10.7502 9.40183 10.7502 8.97132C10.7502 8.54081 10.4012 8.19181 9.97074 8.19181L8.25582 8.19181L8.17418 8.19181L8.17418 8.11038L8.17418 6.39546C8.17418 5.96495 7.82518 5.61595 7.39467 5.61595C6.96416 5.61595 6.61516 5.96495 6.61516 6.39546L6.61516 8.11038L6.61516 8.19181L6.53347 8.19181L4.81856 8.19181C4.38805 8.19181 4.03905 8.54081 4.03905 8.97132C4.03905 9.40183 4.38805 9.75083 4.81856 9.75083L6.53347 9.75083L6.61516 9.75083L6.61516 9.83272L6.61516 11.5476Z" fill="#266F68"/>
<circle cx="7.39461" cy="8.97115" r="5.39482" transform="rotate(-180 7.39461 8.97115)" stroke="#266F68" stroke-width="1.5" stroke-linecap="round" stroke-linejoin="round"/>
</svg>
