<svg width="28" height="29" viewBox="0 0 28 29" fill="none" xmlns="http://www.w3.org/2000/svg">
<path d="M14.937 12.7001C14.937 14.0594 14.0805 14.9129 12.6327 15.1025V16.0719H11.3276V15.1131C10.2366 14.9972 9.44129 14.5968 8.83972 14.0278L9.91031 12.4473C10.4201 12.953 11.1848 13.3534 12.1025 13.3534C12.4899 13.3534 12.857 13.2164 12.857 12.9425C12.857 12.6685 12.5715 12.5316 11.8985 12.4051C10.777 12.1944 9.06404 11.9204 9.06404 10.1608C9.06404 9.09659 9.82874 8.11667 11.3276 7.91648V6.92603H12.6327V7.93755C13.4483 8.05345 14.1723 8.35902 14.7738 8.86478L13.6727 10.3715C13.0813 9.90792 12.3166 9.67611 11.7762 9.67611C11.2664 9.67611 11.1542 9.86577 11.1542 10.0449C11.1542 10.3188 11.4295 10.4137 12.1534 10.5401C13.275 10.7403 14.937 11.0775 14.937 12.7001Z" fill="#266F68"/>
<path d="M5.40618 10.2839C5.40618 10.2839 5.40594 12.678 5.40594 14.7669" stroke="#266F68" stroke-linecap="round" stroke-dasharray="2 2"/>
<path d="M18.9175 8.49023C18.9175 8.49023 18.9175 10.8543 18.9175 12.9431" stroke="#266F68" stroke-linecap="round" stroke-dasharray="2 2"/>
<path d="M15.255 18.0476C12.8284 18.5876 10.2668 19.836 7.08104 19.836C4.59264 19.836 3.24675 19.4552 2.57709 19.1598C2.48791 19.1204 2.44331 19.1008 2.31462 18.9779C2.23747 18.9043 2.09666 18.6883 2.06043 18.588C2 18.4207 2 18.3292 2 18.1463L2 7.22368C2 6.30019 2 5.83844 2.13849 5.60109C2.27936 5.35966 2.41521 5.24742 2.67889 5.15464C2.9381 5.06342 3.46134 5.16396 4.50783 5.36503C5.2403 5.50577 6.10902 5.60908 7.08104 5.60908C10.1297 5.60908 13.1783 3.57666 17.2431 3.57666C19.7315 3.57666 21.0774 3.95749 21.7471 4.25289C21.8363 4.29223 21.8809 4.3119 22.0095 4.43472C22.0867 4.50834 22.2275 4.72436 22.2637 4.82465C22.3242 4.99197 22.3242 5.08343 22.3242 5.26635V14.2246" stroke="#266F68" stroke-width="1.5" stroke-linecap="round" stroke-linejoin="round"/>
<path d="M23.9607 19.4282C23.9607 19.8587 23.6117 20.2077 23.1812 20.2077H21.4663H19.7439H18.029C17.5985 20.2077 17.2495 19.8587 17.2495 19.4282C17.2495 18.9977 17.5985 18.6487 18.029 18.6487H19.7439H21.4663H23.1812C23.6117 18.6487 23.9607 18.9977 23.9607 19.4282Z" fill="#266F68"/>
<circle cx="20.605" cy="19.4283" r="5.39482" stroke="#266F68" stroke-width="1.5" stroke-linecap="round" stroke-linejoin="round"/>
</svg>
