<svg width="29" height="29" viewBox="0 0 29 29" fill="none" xmlns="http://www.w3.org/2000/svg">
<path d="M15.4517 12.573C15.4517 13.9322 14.5953 14.7857 13.1474 14.9753V15.9447H11.8423V14.9859C10.7514 14.87 9.95606 14.4696 9.35449 13.9006L10.4251 12.3201C10.9349 12.8258 11.6996 13.2262 12.6172 13.2262C13.0047 13.2262 13.3717 13.0893 13.3717 12.8153C13.3717 12.5413 13.0863 12.4044 12.4133 12.2779C11.2917 12.0672 9.57881 11.7932 9.57881 10.0336C9.57881 8.96939 10.3435 7.98948 11.8423 7.78928V6.79883H13.1474V7.81035C13.9631 7.92626 14.687 8.23182 15.2886 8.73758L14.1874 10.2443C13.5961 9.78072 12.8314 9.54891 12.291 9.54891C11.7812 9.54891 11.669 9.73857 11.669 9.9177C11.669 10.1917 11.9443 10.2865 12.6682 10.4129C13.7898 10.6131 15.4517 10.9503 15.4517 12.573Z" fill="#ABC7C1"/>
<path d="M5.92114 10.1562C5.92114 10.1562 5.9209 12.5504 5.9209 14.6392" stroke="#ABC7C1" stroke-linecap="round" stroke-dasharray="2 2"/>
<path d="M19.4316 8.36328C19.4316 8.36328 19.4316 10.7273 19.4316 12.8161" stroke="#ABC7C1" stroke-linecap="round" stroke-dasharray="2 2"/>
<path d="M15.7696 17.9202C13.343 18.4601 10.7815 19.7085 7.59569 19.7085C5.10729 19.7085 3.7614 19.3277 3.09174 19.0323C3.00255 18.993 2.95796 18.9733 2.82927 18.8505C2.75212 18.7769 2.61131 18.5609 2.57508 18.4606C2.51465 18.2932 2.51465 18.2018 2.51465 18.0189L2.51465 7.09624C2.51465 6.17274 2.51465 5.711 2.65314 5.47365C2.79401 5.23222 2.92986 5.11998 3.19354 5.0272C3.45275 4.93598 3.97599 5.03652 5.02248 5.23759C5.75495 5.37833 6.62367 5.48163 7.59569 5.48163C10.6443 5.48163 13.6929 3.44922 17.7578 3.44922C20.2462 3.44922 21.5921 3.83005 22.2617 4.12545C22.3509 4.16479 22.3955 4.18445 22.5242 4.30728C22.6013 4.3809 22.7422 4.59692 22.7784 4.69721C22.8388 4.86453 22.8388 4.95599 22.8388 5.13891V14.0972" stroke="#ABC7C1" stroke-width="1.5" stroke-linecap="round" stroke-linejoin="round"/>
<path d="M24.4758 19.301C24.4758 19.7315 24.1268 20.0805 23.6963 20.0805H21.9814H20.2591H18.5442C18.1136 20.0805 17.7646 19.7315 17.7646 19.301C17.7646 18.8705 18.1136 18.5215 18.5442 18.5215H20.2591H21.9814H23.6963C24.1268 18.5215 24.4758 18.8705 24.4758 19.301Z" fill="#ABC7C1"/>
<circle cx="21.1194" cy="19.3011" r="5.39482" stroke="#ABC7C1" stroke-width="1.5" stroke-linecap="round" stroke-linejoin="round"/>
</svg>
