<svg width="29" height="29" viewBox="0 0 29 29" fill="none" xmlns="http://www.w3.org/2000/svg">
<path d="M19.6656 17.6765C19.6656 19.0357 18.8091 19.8892 17.3613 20.0788V21.0482H16.0562V20.0894C14.9652 19.9735 14.1699 19.5731 13.5684 19.0041L14.6389 17.4236C15.1487 17.9293 15.9135 18.3297 16.8311 18.3297C17.2186 18.3297 17.5856 18.1928 17.5856 17.9188C17.5856 17.6449 17.3001 17.5079 16.6272 17.3814C15.5056 17.1707 13.7927 16.8967 13.7927 15.1371C13.7927 14.0729 14.5574 13.093 16.0562 12.8928V11.9023H17.3613V12.9139C18.177 13.0298 18.9009 13.3353 19.5025 13.8411L18.4013 15.3479C17.8099 14.8842 17.0452 14.6524 16.5048 14.6524C15.995 14.6524 15.8829 14.8421 15.8829 15.0212C15.8829 15.2952 16.1582 15.39 16.8821 15.5164C18.0036 15.7166 19.6656 16.0538 19.6656 17.6765Z" fill="#ABC7C1"/>
<path d="M10.135 15.2598C10.135 15.2598 10.1348 17.6539 10.1348 19.7427" stroke="#ABC7C1" stroke-linecap="round" stroke-dasharray="2 2"/>
<path d="M23.6455 13.4658C23.6455 13.4658 23.6455 15.8298 23.6455 17.9187" stroke="#ABC7C1" stroke-linecap="round" stroke-dasharray="2 2"/>
<path d="M13.2597 10.2253C15.6863 9.68537 18.2478 8.43696 21.4336 8.43696C23.922 8.43696 25.2679 8.8178 25.9376 9.11319C26.0267 9.15253 26.0713 9.1722 26.2 9.29502C26.2772 9.36864 26.418 9.58466 26.4542 9.68495C26.5146 9.85227 26.5146 9.94373 26.5146 10.1267L26.5146 21.0493C26.5146 21.9728 26.5146 22.4345 26.3762 22.6719C26.2353 22.9133 26.0994 23.0255 25.8358 23.1183C25.5765 23.2095 25.0533 23.109 24.0068 22.9079C23.2743 22.7672 22.4056 22.6639 21.4336 22.6639C18.385 22.6639 15.3364 24.6963 11.2715 24.6963C8.78313 24.6963 7.43724 24.3155 6.76757 24.0201C6.67839 23.9807 6.6338 23.9611 6.5051 23.8382C6.42796 23.7646 6.28714 23.5486 6.25092 23.4483C6.19048 23.281 6.19048 23.1895 6.19048 23.0066L6.19048 14.0484" stroke="#ABC7C1" stroke-width="1.5" stroke-linecap="round" stroke-linejoin="round"/>
<path fill-rule="evenodd" clip-rule="evenodd" d="M7.13054 11.4207C7.13054 11.8512 7.47954 12.2002 7.91005 12.2002C8.34056 12.2002 8.68956 11.8512 8.68956 11.4207L8.68956 9.70577L8.68956 9.62387L8.7712 9.62387L10.4861 9.62387C10.9166 9.62387 11.2656 9.27487 11.2656 8.84436C11.2656 8.41385 10.9166 8.06486 10.4861 8.06486L8.7712 8.06486L8.68956 8.06486L8.68956 7.98343L8.68956 6.26851C8.68956 5.838 8.34056 5.489 7.91005 5.489C7.47954 5.489 7.13054 5.838 7.13054 6.26851L7.13054 7.98343L7.13054 8.06486L7.04886 8.06486L5.33394 8.06486C4.90343 8.06486 4.55443 8.41385 4.55443 8.84436C4.55443 9.27487 4.90343 9.62387 5.33394 9.62387L7.04886 9.62387L7.13054 9.62387L7.13054 9.70577L7.13054 11.4207Z" fill="#ABC7C1"/>
<circle cx="7.90987" cy="8.84444" r="5.39482" transform="rotate(-180 7.90987 8.84444)" stroke="#ABC7C1" stroke-width="1.5" stroke-linecap="round" stroke-linejoin="round"/>
</svg>
