<svg width="33" height="33" viewBox="0 0 33 33" fill="none" xmlns="http://www.w3.org/2000/svg">
<path d="M11.3877 15.7539L22.2838 27.5683" stroke="#ABC7C1" stroke-width="1.25" stroke-linecap="round" stroke-linejoin="round"/>
<path d="M26.9385 21.1338L14.2899 7.41921" stroke="#ABC7C1" stroke-width="1.25" stroke-linecap="round" stroke-linejoin="round"/>
<path d="M17.8662 22.7764L22.2856 27.5682" stroke="#ABC7C1" stroke-width="3" stroke-linecap="round" stroke-linejoin="round"/>
<path d="M17.9502 11.3848L14.2928 7.4191" stroke="#ABC7C1" stroke-width="3" stroke-linecap="round" stroke-linejoin="round"/>
<path d="M6.17979 15.4526C6.11365 15.3809 6.07806 15.2863 6.08058 15.1887L6.20522 10.3588C6.21068 10.1475 6.38964 9.98242 6.60072 9.99405L11.4249 10.2598C11.5224 10.2651 11.6138 10.3082 11.68 10.38L16.5046 15.6112C16.6229 15.7395 16.6371 15.9324 16.5389 16.0766L14.5931 18.932C14.5609 18.9792 14.5184 19.0185 14.4687 19.0467L11.4656 20.7556L11.7747 21.2988L11.4656 20.7556C11.3139 20.8419 11.1227 20.8122 11.0044 20.6839L6.17979 15.4526Z" stroke="#ABC7C1" stroke-width="1.25"/>
<path d="M30.6318 19.8711L26.2458 15.1155C25.3495 14.1436 23.9893 13.7467 22.711 14.0841V14.0841C21.5678 14.3858 20.6482 15.2339 20.2552 16.349V16.349C19.8157 17.5959 20.1015 18.9837 20.9978 19.9556L25.3838 24.7112" stroke="#ABC7C1" stroke-width="1.25" stroke-linecap="round"/>
</svg>
