<svg width="36" height="37" viewBox="0 0 36 37" fill="none" xmlns="http://www.w3.org/2000/svg">
<rect y="0.95578" width="36" height="36" rx="18" fill="#CC9191"/>
<g filter="url(#filter0_d_4538_76955)">
<path fill-rule="evenodd" clip-rule="evenodd" d="M9.08414 11.476C9.07591 11.4689 9.06831 11.4622 9.06129 11.4558C9.06831 11.4494 9.07591 11.4427 9.08414 11.4356C9.2378 11.3035 9.51866 11.1392 9.95266 10.9814C10.8124 10.6687 12.0665 10.4558 13.5 10.4558C14.9335 10.4558 16.1876 10.6687 17.0473 10.9814C17.4813 11.1392 17.7622 11.3035 17.9159 11.4356C17.9241 11.4427 17.9317 11.4494 17.9387 11.4558C17.9317 11.4622 17.9241 11.4689 17.9159 11.476C17.7622 11.6081 17.4813 11.7724 17.0473 11.9302C16.1876 12.2428 14.9335 12.4558 13.5 12.4558C12.0665 12.4558 10.8124 12.2428 9.95266 11.9302C9.51866 11.7724 9.2378 11.6081 9.08414 11.476ZM17.7308 13.8098C17.8216 13.7768 17.9115 13.7421 18 13.7057V15.8926C17.9854 15.9106 17.9595 15.9385 17.9159 15.976C17.7622 16.1081 17.4813 16.2724 17.0473 16.4302C16.1876 16.7428 14.9335 16.9558 13.5 16.9558C12.0665 16.9558 10.8124 16.7428 9.95266 16.4302C9.51866 16.2724 9.2378 16.1081 9.08414 15.976C9.04049 15.9385 9.01461 15.9106 9 15.8926V13.7057C9.08852 13.7421 9.17837 13.7768 9.26917 13.8098C10.4 14.221 11.896 14.4558 13.5 14.4558C15.104 14.4558 16.6 14.221 17.7308 13.8098ZM17.7308 18.3098C17.8216 18.2768 17.9115 18.2421 18 18.2057V20.138C17.8958 20.2947 17.7987 20.4566 17.7093 20.6233C17.4029 20.8108 16.9138 21.0086 16.2435 21.1654C15.4699 21.3463 14.5273 21.4558 13.5 21.4558C12.0665 21.4558 10.8124 21.2428 9.95266 20.9302C9.51866 20.7724 9.2378 20.6081 9.08414 20.476C9.04049 20.4385 9.01461 20.4106 9 20.3926V18.2057C9.08852 18.2421 9.17837 18.2768 9.26917 18.3098C10.4 18.721 11.896 18.9558 13.5 18.9558C15.104 18.9558 16.6 18.721 17.7308 18.3098ZM20 15.9558V18.2585C20.8825 17.748 21.9071 17.4558 23 17.4558C26.3137 17.4558 29 20.1421 29 23.4558C29 26.7695 26.3137 29.4558 23 29.4558C21.0584 29.4558 19.3323 28.5336 18.2356 27.1033C17.7988 27.3044 17.3081 27.4647 16.7979 27.5892C15.8356 27.824 14.7022 27.9558 13.5 27.9558C11.896 27.9558 10.4 27.721 9.26917 27.3098C8.70787 27.1057 8.18326 26.839 7.78029 26.4926C7.38057 26.1489 7 25.633 7 24.9558V20.4558V15.9558V11.4558C7 10.7785 7.38057 10.2627 7.78029 9.919C8.18326 9.57256 8.70787 9.30588 9.26917 9.10177C10.4 8.69056 11.896 8.45578 13.5 8.45578C15.104 8.45578 16.6 8.69056 17.7308 9.10177C18.2921 9.30588 18.8167 9.57256 19.2197 9.919C19.6194 10.2627 20 10.7785 20 11.4558V15.9558ZM17.2989 25.3311C17.1203 24.7877 17.0171 24.2101 17.002 23.6106C17.0007 23.5592 17 23.5076 17 23.4558C17 23.3139 17.0049 23.1732 17.0146 23.0338C16.9105 23.0617 16.8052 23.088 16.6989 23.1128C15.7588 23.3327 14.6617 23.4558 13.5 23.4558C11.896 23.4558 10.4 23.221 9.26917 22.8098C9.17837 22.7768 9.08852 22.7421 9 22.7057V24.8926C9.01461 24.9106 9.04049 24.9385 9.08414 24.976C9.2378 25.1081 9.51866 25.2724 9.95266 25.4302C10.8124 25.7428 12.0665 25.9558 13.5 25.9558C14.5637 25.9558 15.5361 25.8384 16.3238 25.6462C16.7155 25.5506 17.04 25.4418 17.2989 25.3311ZM8.98317 24.8681C8.98335 24.8681 8.98454 24.87 8.98621 24.8738C8.98383 24.87 8.983 24.8681 8.98317 24.8681ZM23 27.4558C20.7909 27.4558 19 25.6649 19 23.4558C19 21.2466 20.7909 19.4558 23 19.4558C25.2091 19.4558 27 21.2466 27 23.4558C27 25.6649 25.2091 27.4558 23 27.4558ZM18.0138 11.3738C18.0155 11.37 18.0167 11.3681 18.0168 11.3681C18.017 11.3681 18.0162 11.37 18.0138 11.3738ZM8.98621 11.3738C8.98383 11.37 8.983 11.3681 8.98317 11.3681C8.98335 11.3681 8.98454 11.37 8.98621 11.3738ZM23.6775 24.083H25.6935V22.823H23.6775H22.2855H20.2695V24.083H22.2855H23.6775Z" fill="white"/>
</g>
<defs>
<filter id="filter0_d_4538_76955" x="7" y="8.45578" width="22" height="22" filterUnits="userSpaceOnUse" color-interpolation-filters="sRGB">
<feFlood flood-opacity="0" result="BackgroundImageFix"/>
<feColorMatrix in="SourceAlpha" type="matrix" values="0 0 0 0 0 0 0 0 0 0 0 0 0 0 0 0 0 0 127 0" result="hardAlpha"/>
<feOffset dy="1"/>
<feComposite in2="hardAlpha" operator="out"/>
<feColorMatrix type="matrix" values="0 0 0 0 0.6 0 0 0 0 0.246 0 0 0 0 0.246 0 0 0 1 0"/>
<feBlend mode="normal" in2="BackgroundImageFix" result="effect1_dropShadow_4538_76955"/>
<feBlend mode="normal" in="SourceGraphic" in2="effect1_dropShadow_4538_76955" result="shape"/>
</filter>
</defs>
</svg>
