<svg width="24" height="25" viewBox="0 0 24 25" fill="none" xmlns="http://www.w3.org/2000/svg">
<path d="M12 17.2324C12 19.9938 14.2386 22.2324 17 22.2324C19.7614 22.2324 22 19.9938 22 17.2324C22 14.471 19.7614 12.2324 17 12.2324C14.2386 12.2324 12 14.471 12 17.2324ZM12 17.2324C12 16.1066 12.3721 15.0677 13 14.2319V5.23242M12 17.2324C12 18.0578 12.2 18.8364 12.5541 19.5225C11.7117 20.2342 9.76584 20.7324 7.5 20.7324C4.46243 20.7324 2 19.837 2 18.7324V5.23242M13 5.23242C13 6.33699 10.5376 7.23242 7.5 7.23242C4.46243 7.23242 2 6.33699 2 5.23242M13 5.23242C13 4.12785 10.5376 3.23242 7.5 3.23242C4.46243 3.23242 2 4.12785 2 5.23242M2 14.2324C2 15.337 4.46243 16.2324 7.5 16.2324C9.689 16.2324 11.5793 15.7674 12.4646 15.0942M13 9.73242C13 10.837 10.5376 11.7324 7.5 11.7324C4.46243 11.7324 2 10.837 2 9.73242" stroke="#5D697E" stroke-width="2" stroke-linecap="round" stroke-linejoin="round"/>
<path d="M19.6929 17.8601H17.6769H16.2849H14.2689V16.6001H16.2849H17.6769H19.6929V17.8601Z" fill="#5D697E"/>
</svg>
