<svg width="33" height="33" viewBox="0 0 33 33" fill="none" xmlns="http://www.w3.org/2000/svg">
<path d="M9.29492 8.25196C9.29492 6.04282 11.0858 4.25195 13.2949 4.25195H18.7383C20.9474 4.25195 22.7383 6.04281 22.7383 8.25195V27.8784H9.29492V8.25196Z" stroke="#ABC7C1" stroke-width="1.25"/>
<path d="M24.9958 9.85868C24.7754 9.59305 24.3813 9.55642 24.1157 9.77686C23.8501 9.9973 23.8135 10.3913 24.0339 10.6569L24.9958 9.85868ZM24.3406 18.0263V23.9207H25.5906V18.0263H24.3406ZM27.8442 23.9207V14.9601H26.5942V23.9207H27.8442ZM26.7783 12.0065L24.9958 9.85868L24.0339 10.6569L25.8164 12.8048L26.7783 12.0065ZM27.8442 14.9601C27.8442 13.8814 27.4672 12.8366 26.7783 12.0065L25.8164 12.8048C26.3191 13.4106 26.5942 14.173 26.5942 14.9601H27.8442ZM26.0924 25.6725C27.0599 25.6725 27.8442 24.8882 27.8442 23.9207H26.5942C26.5942 24.1978 26.3696 24.4225 26.0924 24.4225V25.6725ZM24.3406 23.9207C24.3406 24.8882 25.1249 25.6725 26.0924 25.6725V24.4225C25.8153 24.4225 25.5906 24.1978 25.5906 23.9207H24.3406ZM22.7119 16.3976C23.6114 16.3976 24.3406 17.1268 24.3406 18.0263H25.5906C25.5906 16.4364 24.3018 15.1476 22.7119 15.1476V16.3976Z" fill="#ABC7C1"/>
<path d="M5.80957 27.8916H25.7257" stroke="#ABC7C1" stroke-width="1.25" stroke-linecap="round"/>
<rect x="11.2871" y="6.76562" width="9.46015" height="7.54035" rx="3" stroke="#ABC7C1" stroke-width="1.25"/>
<path d="M27.2191 15.8155C26.8252 15.8155 26.4402 15.6773 26.1127 15.4184C25.7852 15.1596 25.5299 14.7917 25.3791 14.3612C25.2284 13.9308 25.189 13.4571 25.2658 13.0001C25.3427 12.5432 25.5323 12.1234 25.8109 11.7939L26.7465 12.9006C27.0517 13.2616 27.2191 13.7191 27.2191 14.1918L27.2191 15.8155Z" stroke="#ABC7C1" stroke-width="1.25"/>
</svg>
