<svg width="32" height="33" viewBox="0 0 32 33" fill="none" xmlns="http://www.w3.org/2000/svg">
<path d="M8.78033 8.37989C8.78033 6.17075 10.5712 4.37988 12.7803 4.37988H18.2237C20.4328 4.37988 22.2237 6.17074 22.2237 8.37988V28.0063H8.78033V8.37989Z" stroke="#266F68" stroke-width="1.25"/>
<path d="M24.4813 9.98612C24.2609 9.72049 23.8669 9.68386 23.6012 9.9043C23.3356 10.1247 23.299 10.5188 23.5194 10.7844L24.4813 9.98612ZM23.8261 18.1537V24.0481H25.0761V18.1537H23.8261ZM27.3298 24.0481V15.0876H26.0798V24.0481H27.3298ZM26.2638 12.134L24.4813 9.98612L23.5194 10.7844L25.3019 12.9323L26.2638 12.134ZM27.3298 15.0876C27.3298 14.0089 26.9527 12.9641 26.2638 12.134L25.3019 12.9323C25.8046 13.538 26.0798 14.3004 26.0798 15.0876H27.3298ZM25.5779 25.7999C26.5455 25.7999 27.3298 25.0156 27.3298 24.0481H26.0798C26.0798 24.3252 25.8551 24.5499 25.5779 24.5499V25.7999ZM23.8261 24.0481C23.8261 25.0156 24.6104 25.7999 25.5779 25.7999V24.5499C25.3008 24.5499 25.0761 24.3252 25.0761 24.0481H23.8261ZM22.1974 16.525C23.0969 16.525 23.8261 17.2542 23.8261 18.1537H25.0761C25.0761 16.5639 23.7873 15.275 22.1974 15.275V16.525Z" fill="#266F68"/>
<path d="M5.29498 28.0198H25.2111" stroke="#266F68" stroke-width="1.25" stroke-linecap="round"/>
<rect x="10.7728" y="6.8938" width="9.46015" height="7.54035" rx="3" stroke="#266F68" stroke-width="1.25"/>
<path d="M26.7047 15.9429C26.3108 15.9429 25.9257 15.8047 25.5982 15.5459C25.2707 15.287 25.0154 14.9191 24.8647 14.4887C24.7139 14.0582 24.6745 13.5845 24.7513 13.1276C24.8282 12.6706 25.0179 12.2508 25.2964 11.9214L26.232 13.0281C26.5372 13.3891 26.7047 13.8465 26.7047 14.3193L26.7047 15.9429Z" stroke="#266F68" stroke-width="1.25"/>
</svg>
