<svg width="33" height="33" viewBox="0 0 33 33" fill="none" xmlns="http://www.w3.org/2000/svg">
<g clip-path="url(#clip0_4538_77956)">
<path d="M19.4097 29.1111H3.06375C2.73545 29.1111 2.45801 28.8271 2.45801 28.4957V17.8458C2.45801 17.5145 2.74007 17.2305 3.06375 17.2305C3.38744 17.2305 3.6695 17.5145 3.6695 17.8458V27.9277H19.4559C19.7842 27.9277 20.0617 28.2117 20.0617 28.5431C19.9692 28.8271 19.6871 29.1111 19.4097 29.1111Z" fill="#ABC7C1"/>
<path d="M26.9749 29.1121C26.6465 29.1121 26.3691 28.8281 26.3691 28.4968V23.1955H22.8687V28.5441C22.8687 28.8755 22.5867 29.1595 22.263 29.1595C21.9393 29.1595 21.6572 28.8755 21.6572 28.5441V22.5802C21.6572 22.2488 21.9393 21.9648 22.263 21.9648H26.9332C27.2615 21.9648 27.539 22.2488 27.539 22.5802V28.4968C27.5852 28.8281 27.3078 29.1121 26.9795 29.1121H26.9749Z" fill="#ABC7C1"/>
<path d="M26.977 29.1123C26.792 29.1123 26.6487 29.0177 26.51 28.8757L21.8397 22.9591C21.6548 22.7224 21.701 22.3437 21.9322 22.1071C22.1634 21.9177 22.5379 21.9651 22.7738 22.2017L27.444 28.1184C27.629 28.355 27.5828 28.7337 27.3516 28.9704C27.2591 29.065 27.1204 29.1123 26.977 29.1123Z" fill="#ABC7C1"/>
<path d="M22.3048 29.1123C22.1661 29.1123 22.0736 29.065 21.9303 28.9704C21.6991 28.781 21.6482 28.4024 21.8378 28.1184L26.508 22.2017C26.693 21.9651 27.0675 21.9177 27.3496 22.1071C27.5808 22.2964 27.6317 22.6751 27.4421 22.9591L22.7718 28.8757C22.6331 29.0177 22.4898 29.1123 22.3048 29.1123Z" fill="#ABC7C1"/>
<path d="M15.2989 26.1301H3.06376C2.73545 26.1301 2.45801 25.8461 2.45801 25.5147C2.45801 25.1834 2.74007 24.8994 3.06376 24.8994H15.3452C15.6735 24.8994 15.9509 25.1834 15.9509 25.5147C15.9047 25.8461 15.6226 26.1301 15.2989 26.1301Z" fill="#ABC7C1"/>
<path d="M19.4094 21.3967H8.29325C7.96494 21.3967 7.6875 21.1127 7.6875 20.7813C7.6875 20.45 7.96957 20.166 8.29325 20.166H19.4094C19.7377 20.166 20.0151 20.45 20.0151 20.7813C20.0151 21.1127 19.6868 21.3967 19.4094 21.3967Z" fill="#ABC7C1"/>
<path d="M28.748 16.853C28.4197 16.853 28.1423 16.569 28.1423 16.2376V6.77102L26.4129 4.5937L24.6373 6.81835V10.747C24.6373 11.0783 24.3552 11.3623 24.0315 11.3623C23.7078 11.3623 23.4258 11.0783 23.4258 10.747V6.58169C23.4258 6.43969 23.472 6.29769 23.5645 6.20302L25.8996 3.22104C25.9921 3.07904 26.1817 2.98438 26.3667 2.98438C26.5516 2.98438 26.695 3.07904 26.8337 3.22104L29.1688 6.20302C29.2613 6.29769 29.3075 6.43969 29.3075 6.58169V16.2376C29.3075 16.6163 29.0255 16.853 28.748 16.853Z" fill="#ABC7C1"/>
<path d="M22.3066 11.3623C21.9783 11.3623 21.7009 11.0783 21.7009 10.747V6.81835L19.9715 4.5937L18.1959 6.81835V10.747C18.1959 11.0783 17.9138 11.3623 17.5901 11.3623C17.2664 11.3623 16.9844 11.0783 16.9844 10.747V6.58169C16.9844 6.43969 17.0306 6.29769 17.1231 6.20302L19.4582 3.22104C19.5507 3.07904 19.7403 2.98438 19.9253 2.98438C20.1102 2.98438 20.2536 3.07904 20.3923 3.22104L22.7274 6.20302C22.8199 6.29769 22.8661 6.43969 22.8661 6.58169V10.747C22.9124 11.0783 22.6349 11.3623 22.3066 11.3623Z" fill="#ABC7C1"/>
<path d="M11.2395 11.3628C10.9112 11.3628 10.6338 11.0788 10.6338 10.7474V6.58213C10.6338 6.25079 10.9159 5.9668 11.2395 5.9668C11.5632 5.9668 11.8453 6.25079 11.8453 6.58213V10.7474C11.799 11.0788 11.517 11.3628 11.2395 11.3628Z" fill="#ABC7C1"/>
<path d="M15.9107 11.3619C15.5824 11.3619 15.3049 11.0779 15.3049 10.7465V6.81789L13.5755 4.59324L12.8773 5.49257C12.6923 5.72923 12.3178 5.77657 12.0357 5.58723C11.8045 5.3979 11.7537 5.01924 11.9432 4.73524L13.1131 3.26792C13.2056 3.12592 13.3952 3.03125 13.5801 3.03125C13.7651 3.03125 13.9085 3.12592 14.0472 3.26792L16.3823 6.2499C16.4748 6.34456 16.521 6.48656 16.521 6.62856V10.7465C16.4748 11.0779 16.1927 11.3619 15.9153 11.3619H15.9107Z" fill="#ABC7C1"/>
<path d="M19.409 18.463H3.0631C2.87813 18.463 2.64231 18.3683 2.54983 18.179C2.45735 17.9896 2.45735 17.753 2.54983 17.5636L6.66059 10.4637C6.75307 10.2744 6.94265 10.1797 7.17385 10.1797H24.685C25.0133 10.1797 25.2908 10.4637 25.2908 10.795C25.2908 11.1263 25.0087 11.4103 24.685 11.4103H7.45592L4.04801 17.327H19.3674C19.6957 17.327 19.9732 17.611 19.9732 17.9423C19.9732 18.2736 19.6911 18.463 19.4136 18.463H19.409Z" fill="#ABC7C1"/>
<path d="M29.9143 29.1134H19.4085C19.0802 29.1134 18.8027 28.8294 18.8027 28.498V17.8481C18.8027 17.7061 18.849 17.6114 18.9415 17.4694L24.2175 10.3695C24.3099 10.2275 24.4995 10.1328 24.6845 10.1328C24.8695 10.1328 25.059 10.2275 25.1515 10.3695L30.4275 17.4694C30.52 17.5641 30.5663 17.7061 30.5663 17.8008V28.4507C30.4738 28.8294 30.1917 29.1134 29.9143 29.1134ZM19.968 27.93H29.3085V18.0374L24.6383 11.7421L19.968 18.0374V27.93Z" fill="#ABC7C1"/>
<path d="M28.7495 8.99628H26.4143C26.086 8.99628 25.8086 8.71229 25.8086 8.38095C25.8086 8.04962 26.0907 7.76562 26.4143 7.76562H28.7495C29.0778 7.76562 29.3552 8.04962 29.3552 8.38095C29.309 8.71229 29.0269 8.99628 28.7495 8.99628Z" fill="#ABC7C1"/>
<path d="M19.4116 8.38105H17.636C17.3077 8.38105 17.0303 8.09705 17.0303 7.76572C17.0303 7.43439 17.3123 7.15039 17.636 7.15039H19.4116C19.74 7.15039 20.0174 7.43439 20.0174 7.76572C20.0174 8.09705 19.6891 8.38105 19.4116 8.38105Z" fill="#ABC7C1"/>
<path d="M22.3042 9.56464H20.5286C20.2003 9.56464 19.9229 9.28065 19.9229 8.94931C19.9229 8.61798 20.2049 8.33398 20.5286 8.33398H22.3042C22.6325 8.33398 22.91 8.61798 22.91 8.94931C22.91 9.28065 22.6279 9.56464 22.3042 9.56464Z" fill="#ABC7C1"/>
<path d="M14.1316 8.38105H11.1907C10.8624 8.38105 10.585 8.09705 10.585 7.76572C10.585 7.43439 10.867 7.15039 11.1907 7.15039H14.1316C14.4599 7.15039 14.7373 7.43439 14.7373 7.76572C14.7373 8.09705 14.4553 8.38105 14.1316 8.38105Z" fill="#ABC7C1"/>
<path d="M28.7502 11.3625H27.5804C27.2521 11.3625 26.9746 11.0785 26.9746 10.7472C26.9746 10.4158 27.2567 10.1318 27.5804 10.1318H28.7502C29.0785 10.1318 29.356 10.4158 29.356 10.7472C29.3097 11.0785 29.0277 11.3625 28.7502 11.3625Z" fill="#ABC7C1"/>
<path d="M29.9148 21.3967H26.9739C26.6456 21.3967 26.3682 21.1127 26.3682 20.7813C26.3682 20.45 26.6502 20.166 26.9739 20.166H29.9148C30.2431 20.166 30.5205 20.45 30.5205 20.7813C30.5205 21.1127 30.1922 21.3967 29.9148 21.3967Z" fill="#ABC7C1"/>
<path d="M22.3035 20.2131H19.3626C19.0343 20.2131 18.7568 19.9291 18.7568 19.5978C18.7568 19.2664 19.0389 18.9824 19.3626 18.9824H22.3035C22.6318 18.9824 22.9092 19.2664 22.9092 19.5978C22.9092 19.9291 22.6271 20.2131 22.3035 20.2131Z" fill="#ABC7C1"/>
<path d="M24.6379 17.8473C23.6576 17.8473 22.8623 17.0426 22.8623 16.0487C22.8623 15.0547 23.6576 14.25 24.6379 14.25C25.6182 14.25 26.4136 15.0547 26.4136 16.0487C26.4136 17.0426 25.6182 17.8473 24.6379 17.8473ZM24.6379 15.4807C24.3096 15.4807 24.0322 15.7647 24.0322 16.096C24.0322 16.4273 24.3142 16.7113 24.6379 16.7113C24.9616 16.7113 25.2437 16.4273 25.2437 16.096C25.2437 15.7647 24.9616 15.4807 24.6379 15.4807Z" fill="#ABC7C1"/>
</g>
<defs>
<clipPath id="clip0_4538_77956">
<rect width="28.1141" height="26.1752" fill="white" transform="translate(2.45801 2.98438)"/>
</clipPath>
</defs>
</svg>
