<svg width="33" height="33" viewBox="0 0 33 33" fill="none" xmlns="http://www.w3.org/2000/svg">
<path d="M23.9775 24.1777C23.5066 24.676 22.4606 25.6724 22.0443 25.6724C21.5238 25.6724 20.9289 25.2988 20.4828 25.523C20.2449 25.6425 19.6401 26.2703 19.2188 26.644" stroke="#ABC7C1"/>
<rect x="13.462" y="20.8799" width="9.2708" height="2.63097" rx="0.5" transform="rotate(45.8598 13.462 20.8799)" stroke="#ABC7C1"/>
<path d="M12.5996 10.8096L16.2702 14.8451" stroke="#ABC7C1" stroke-linecap="round" stroke-linejoin="round"/>
<path d="M20.2022 18.7744L26.5883 25.1605" stroke="#ABC7C1" stroke-width="4" stroke-linecap="round" stroke-linejoin="round"/>
<path d="M7.57523 11.2529C7.47691 11.1546 7.42397 11.0197 7.42913 10.8808L7.60394 6.16897C7.61365 5.90738 7.82347 5.69756 8.08506 5.68785L8.06652 5.1882L8.08506 5.68785L12.7969 5.51304C12.9358 5.50788 13.0707 5.56082 13.169 5.65914L17.6972 10.1874C17.8646 10.3548 17.8917 10.6166 17.7621 10.8147L15.8292 13.7685C15.7914 13.8261 15.7422 13.8753 15.6846 13.9131L12.7308 15.846C12.5327 15.9756 12.2709 15.9485 12.1035 15.7811L7.57523 11.2529Z" stroke="#ABC7C1"/>
<path d="M28.8174 17.6907C28.3927 17.1596 27.4905 17.2648 27.2402 17.4653L24.2358 20.4715C24.1357 20.7971 23.9805 21.4184 24.4612 21.8994C25.062 22.5006 25.8131 22.2752 27.3153 20.9224C28.7806 19.6027 29.4183 18.4423 28.8174 17.6907Z" stroke="#ABC7C1" stroke-linecap="round"/>
<path d="M22.2147 14.6444C22.1722 14.7103 22.1303 14.7714 22.0902 14.8265C22.1279 14.7687 22.1696 14.7077 22.2147 14.6444Z" fill="white"/>
<path d="M19.7852 13.7055C20.2809 12.8834 21.4953 11.4037 22.3876 12.0614C23.2799 12.719 22.5611 14.1788 22.0902 14.8265C22.6107 14.0294 23.8747 12.6144 24.767 13.3318C25.6482 14.0294 24.3769 16.073 23.8857 16.8099C24.3769 16.3186 26.2207 14.9846 26.8489 15.5739C27.6089 16.2869 26.8489 17.6532 25.6592 18.937C24.6455 20.0308 23.4898 20.7921 22.9081 20.2075C22.0902 19.3854 22.2885 18.7377 22.3876 18.4886" stroke="#ABC7C1"/>
<path d="M18.9151 19.5503C18.7604 18.9391 19.0866 17.2246 19.7056 17.301C20.3246 17.3774 22.8613 19.6267 24.0219 18.4044C25.1825 17.1821 20.4626 12.4457 17.445 14.2791C15.0309 15.7459 15.3043 18.2006 15.7428 19.2447L13.8857 21.2309" stroke="#ABC7C1"/>
</svg>
