<svg width="32" height="33" viewBox="0 0 32 33" fill="none" xmlns="http://www.w3.org/2000/svg">
<path d="M29.2733 15.781C19.7114 15.781 11.4266 21.212 7.37558 29.1376" stroke="#266F68" stroke-width="1.25" stroke-linecap="round" stroke-linejoin="round"/>
<path d="M29.2741 19.7898C26.9964 19.7898 24.8054 20.1576 22.758 20.8365M11.9999 29.1394C13.4291 26.9398 15.2736 25.0308 17.4236 23.5215" stroke="#266F68" stroke-width="1.25" stroke-linecap="round" stroke-linejoin="round"/>
<path d="M29.2727 23.6277C24.5485 23.6277 20.3066 25.6931 17.4009 28.9703" stroke="#266F68" stroke-width="1.25" stroke-linecap="round" stroke-linejoin="round"/>
<path d="M2.72591 15.783C7.46554 15.783 11.8914 17.1173 15.6433 19.4285" stroke="#266F68" stroke-width="1.25" stroke-linecap="round" stroke-linejoin="round"/>
<path d="M2.72977 19.7898C4.48797 19.7898 6.19457 20.009 7.8233 20.4212" stroke="#266F68" stroke-width="1.25" stroke-linecap="round" stroke-linejoin="round"/>
<path d="M2.72724 23.6277C5.27607 23.6277 7.68448 24.2289 9.81839 25.2973" stroke="#266F68" stroke-width="1.25" stroke-linecap="round" stroke-linejoin="round"/>
<path d="M8.53345 16.3089V12.9388C8.53345 12.7393 8.59315 12.5443 8.70489 12.3789L11.0214 8.95084C11.2074 8.67565 11.5178 8.51074 11.85 8.51074H16.5971C16.9292 8.51074 17.2397 8.67565 17.4257 8.95084L19.7422 12.3789C19.8539 12.5443 19.9136 12.7393 19.9136 12.9388V17.4015" stroke="#266F68" stroke-width="1.25" stroke-linecap="round" stroke-linejoin="round"/>
<path d="M11.3753 9.22266L13.9831 12.2986C14.1363 12.4792 14.2203 12.7084 14.2203 12.9453V18.4691" stroke="#266F68" stroke-width="1.25" stroke-linecap="round" stroke-linejoin="round"/>
<path d="M9.24124 12.7783L19.1989 12.7783" stroke="#266F68" stroke-width="1.25" stroke-linecap="square" stroke-linejoin="round"/>
<path d="M12.4379 16.9066V15.5825C12.4379 15.0302 11.9902 14.5825 11.4379 14.5825H11.0511C10.4989 14.5825 10.0511 15.0302 10.0511 15.5825V16.025" stroke="#266F68" stroke-width="1.25" stroke-linecap="square" stroke-linejoin="round"/>
<path d="M5.68927 8.51074L5.68927 15.6234" stroke="#266F68" stroke-width="1.25" stroke-linecap="round" stroke-linejoin="round"/>
<path d="M24.4336 8.60303V16.1996" stroke="#266F68" stroke-width="1.25" stroke-linecap="round" stroke-linejoin="round"/>
<path d="M7.43807 8.91991C7.43807 10.1379 7.19873 11.2099 6.83993 11.954C6.45985 12.7424 6.0553 12.9697 5.80915 12.9697C5.56301 12.9697 5.15846 12.7424 4.77837 11.954C4.41958 11.2099 4.18024 10.1379 4.18024 8.91991C4.18024 7.70191 4.41958 6.62994 4.77837 5.88577C5.15846 5.09744 5.56301 4.87012 5.80915 4.87012C6.0553 4.87012 6.45985 5.09744 6.83993 5.88577C7.19873 6.62994 7.43807 7.70191 7.43807 8.91991Z" stroke="#266F68" stroke-width="1.25" stroke-linecap="round" stroke-linejoin="round"/>
<path d="M26.978 8.51988C26.978 9.88067 26.6527 11.0821 26.1594 11.9221C25.6575 12.7768 25.0547 13.154 24.5143 13.154C23.9738 13.154 23.3711 12.7768 22.8692 11.9221C22.3758 11.0821 22.0506 9.88067 22.0506 8.51988C22.0506 7.1591 22.3758 5.95764 22.8692 5.11762C23.3711 4.26299 23.9738 3.88574 24.5143 3.88574C25.0547 3.88574 25.6575 4.26299 26.1594 5.11762C26.6527 5.95764 26.978 7.1591 26.978 8.51988Z" stroke="#266F68" stroke-width="1.25" stroke-linecap="round" stroke-linejoin="round"/>
</svg>
