<svg width="33" height="33" viewBox="0 0 33 33" fill="none" xmlns="http://www.w3.org/2000/svg">
<path d="M29.7874 15.6533C20.2255 15.6533 11.9407 21.0843 7.88965 29.0099" stroke="#ABC7C1" stroke-width="1.25" stroke-linecap="round" stroke-linejoin="round"/>
<path d="M29.7888 19.6621C27.5112 19.6621 25.3201 20.0299 23.2727 20.7089M12.5146 29.0117C13.9438 26.8121 15.7883 24.9031 17.9383 23.3938" stroke="#ABC7C1" stroke-width="1.25" stroke-linecap="round" stroke-linejoin="round"/>
<path d="M29.7868 23.5C25.0626 23.5 20.8207 25.5655 17.915 28.8426" stroke="#ABC7C1" stroke-width="1.25" stroke-linecap="round" stroke-linejoin="round"/>
<path d="M3.2398 15.6553C7.97942 15.6553 12.4053 16.9896 16.1572 19.3008" stroke="#ABC7C1" stroke-width="1.25" stroke-linecap="round" stroke-linejoin="round"/>
<path d="M3.24435 19.6621C5.00256 19.6621 6.70915 19.8813 8.33789 20.2935" stroke="#ABC7C1" stroke-width="1.25" stroke-linecap="round" stroke-linejoin="round"/>
<path d="M3.24186 23.5C5.79069 23.5 8.1991 24.1012 10.333 25.1696" stroke="#ABC7C1" stroke-width="1.25" stroke-linecap="round" stroke-linejoin="round"/>
<path d="M9.04785 16.181V12.8109C9.04785 12.6113 9.10756 12.4163 9.21929 12.251L11.5358 8.82291C11.7218 8.54772 12.0322 8.38281 12.3644 8.38281H17.1115C17.4436 8.38281 17.7541 8.54772 17.9401 8.82291L20.2566 12.251C20.3683 12.4163 20.428 12.6113 20.428 12.8109V17.2736" stroke="#ABC7C1" stroke-width="1.25" stroke-linecap="round" stroke-linejoin="round"/>
<path d="M11.8896 9.09473L14.4975 12.1707C14.6506 12.3513 14.7347 12.5805 14.7347 12.8173V18.3411" stroke="#ABC7C1" stroke-width="1.25" stroke-linecap="round" stroke-linejoin="round"/>
<path d="M9.75586 12.6504L19.7135 12.6504" stroke="#ABC7C1" stroke-width="1.25" stroke-linecap="square" stroke-linejoin="round"/>
<path d="M12.9522 16.7791V15.4551C12.9522 14.9028 12.5045 14.4551 11.9522 14.4551H11.5654C11.0131 14.4551 10.5654 14.9028 10.5654 15.4551V15.8976" stroke="#ABC7C1" stroke-width="1.25" stroke-linecap="square" stroke-linejoin="round"/>
<path d="M6.20312 8.38281L6.20312 15.4954" stroke="#ABC7C1" stroke-width="1.25" stroke-linecap="round" stroke-linejoin="round"/>
<path d="M24.9482 8.47559V16.0721" stroke="#ABC7C1" stroke-width="1.25" stroke-linecap="round" stroke-linejoin="round"/>
<path d="M7.95217 8.79198C7.95217 10.01 7.71283 11.0819 7.35403 11.8261C6.97395 12.6144 6.56939 12.8418 6.32325 12.8418C6.07711 12.8418 5.67256 12.6144 5.29247 11.8261C4.93368 11.0819 4.69434 10.01 4.69434 8.79198C4.69434 7.57398 4.93368 6.50201 5.29247 5.75784C5.67256 4.96951 6.07711 4.74219 6.32325 4.74219C6.56939 4.74219 6.97395 4.96951 7.35403 5.75784C7.71283 6.50201 7.95217 7.57398 7.95217 8.79198Z" stroke="#ABC7C1" stroke-width="1.25" stroke-linecap="round" stroke-linejoin="round"/>
<path d="M27.4919 8.39195C27.4919 9.75274 27.1666 10.9542 26.6733 11.7942C26.1713 12.6488 25.5686 13.0261 25.0282 13.0261C24.4877 13.0261 23.885 12.6488 23.383 11.7942C22.8897 10.9542 22.5645 9.75274 22.5645 8.39195C22.5645 7.03117 22.8897 5.82971 23.383 4.98969C23.885 4.13506 24.4877 3.75781 25.0282 3.75781C25.5686 3.75781 26.1713 4.13506 26.6733 4.98969C27.1666 5.82971 27.4919 7.03117 27.4919 8.39195Z" stroke="#ABC7C1" stroke-width="1.25" stroke-linecap="round" stroke-linejoin="round"/>
</svg>
