<svg width="32" height="33" viewBox="0 0 32 33" fill="none" xmlns="http://www.w3.org/2000/svg">
<path d="M15.5566 20.9129C15.5566 24.6552 12.5218 27.689 8.77809 27.689C5.03442 27.689 1.99957 24.6552 1.99957 20.9129C1.99957 17.1705 5.03442 14.1367 8.77809 14.1367C12.5218 14.1367 15.5566 17.1705 15.5566 20.9129ZM7.62976 20.9129C7.62976 21.5469 8.14388 22.0608 8.77809 22.0608C9.41229 22.0608 9.92641 21.5469 9.92641 20.9129C9.92641 20.2789 9.41229 19.7649 8.77809 19.7649C8.14388 19.7649 7.62976 20.2789 7.62976 20.9129Z"/>
<path d="M15.5566 20.9129C15.5566 24.6552 12.5218 27.689 8.77809 27.689C5.03442 27.689 1.99957 24.6552 1.99957 20.9129C1.99957 17.1705 5.03442 14.1367 8.77809 14.1367C12.5218 14.1367 15.5566 17.1705 15.5566 20.9129ZM7.62976 20.9129C7.62976 21.5469 8.14388 22.0608 8.77809 22.0608C9.41229 22.0608 9.92641 21.5469 9.92641 20.9129C9.92641 20.2789 9.41229 19.7649 8.77809 19.7649C8.14388 19.7649 7.62976 20.2789 7.62976 20.9129Z" stroke="#266F68" stroke-width="1.25" />
<path d="M29.9987 23.1233C29.9987 25.7267 27.8215 27.8371 25.1359 27.8371C22.4502 27.8371 20.273 25.7267 20.273 23.1233C20.273 20.5199 22.4502 18.4094 25.1359 18.4094C27.8215 18.4094 29.9987 20.5199 29.9987 23.1233ZM24.1524 23.1233C24.1524 23.6498 24.5927 24.0766 25.1359 24.0766C25.679 24.0766 26.1193 23.6498 26.1193 23.1233C26.1193 22.5968 25.679 22.1699 25.1359 22.1699C24.5927 22.1699 24.1524 22.5968 24.1524 23.1233Z"/>
<path d="M29.9987 23.1233C29.9987 25.7267 27.8215 27.8371 25.1359 27.8371C22.4502 27.8371 20.273 25.7267 20.273 23.1233C20.273 20.5199 22.4502 18.4094 25.1359 18.4094C27.8215 18.4094 29.9987 20.5199 29.9987 23.1233ZM24.1524 23.1233C24.1524 23.6498 24.5927 24.0766 25.1359 24.0766C25.679 24.0766 26.1193 23.6498 26.1193 23.1233C26.1193 22.5968 25.679 22.1699 25.1359 22.1699C24.5927 22.1699 24.1524 22.5968 24.1524 23.1233Z" stroke="#266F68" stroke-width="1.25"/>
<path d="M16.7369 21.062C16.7369 16.6688 13.14 13.1074 8.70306 13.1074C6.25569 13.1074 4.06392 14.191 2.59039 15.9" stroke="#266F68" stroke-width="1.25" stroke-linecap="round"/>
<path d="M19.8846 21.061C20.6741 18.9144 22.7193 17.3851 25.1178 17.3851C27.2184 17.3851 29.048 18.5582 30.0005 20.2916V16.9653C30.0005 16.6239 29.7237 16.3471 29.3823 16.3471V16.3471C29.0409 16.3471 28.7642 16.0704 28.7642 15.729V14.59C28.7642 14.0866 28.3899 13.6616 27.8905 13.598L18.6521 12.4215C18.2686 12.3727 17.9476 12.1072 17.8278 11.7396L15.712 5.25244C15.5778 4.84095 15.1942 4.5625 14.7613 4.5625H6.5926C6.04032 4.5625 5.5926 5.01022 5.5926 5.5625V12.1196C5.5926 12.3721 5.49702 12.6154 5.32506 12.8004L2.37067 15.9788" stroke="#266F68" stroke-width="1.25" stroke-linecap="round" stroke-linejoin="round"/>
<path d="M19.9788 21.6863C20.324 21.6863 20.6038 21.4065 20.6038 21.0613C20.6038 20.7161 20.324 20.4363 19.9788 20.4363V21.6863ZM16.7369 21.6863H19.9788V20.4363H16.7369V21.6863Z" fill="#266F68"/>
<rect x="20.0711" y="15.2627" width="6.59704" height="0.77582" rx="0.38791" stroke="#266F68" stroke-width="1.5"/>
<rect x="6.7193" y="5.44702" width="4.12605" height="5.8923" rx="1"/>
<rect x="6.7193" y="5.44702" width="4.12605" height="5.8923" rx="1" stroke="#266F68" stroke-width="1.25" />
<path d="M12.6441 6.44702C12.6441 6.23991 12.812 6.07202 13.0191 6.07202H13.5914C13.756 6.07202 13.9013 6.17933 13.9498 6.3366L15.149 10.2289C15.2233 10.4701 15.043 10.7143 14.7907 10.7143H13.0191C12.812 10.7143 12.6441 10.5464 12.6441 10.3393V6.44702Z" stroke="#266F68" stroke-width="1.25"/>
</svg>
