<svg width="33" height="33" viewBox="0 0 33 33" fill="none" xmlns="http://www.w3.org/2000/svg">
<mask id="path-1-inside-1_4538_77957" fill="white">
<path d="M16.0717 20.7849C16.0717 24.5273 13.0368 27.5611 9.29316 27.5611C5.54949 27.5611 2.51465 24.5273 2.51465 20.7849C2.51465 17.0426 5.54949 14.0088 9.29316 14.0088C13.0368 14.0088 16.0717 17.0426 16.0717 20.7849ZM8.14484 20.7849C8.14484 21.4189 8.65896 21.9329 9.29316 21.9329C9.92736 21.9329 10.4415 21.4189 10.4415 20.7849C10.4415 20.151 9.92736 19.637 9.29316 19.637C8.65896 19.637 8.14484 20.151 8.14484 20.7849Z"/>
</mask>
<path d="M16.0717 20.7849C16.0717 24.5273 13.0368 27.5611 9.29316 27.5611C5.54949 27.5611 2.51465 24.5273 2.51465 20.7849C2.51465 17.0426 5.54949 14.0088 9.29316 14.0088C13.0368 14.0088 16.0717 17.0426 16.0717 20.7849ZM8.14484 20.7849C8.14484 21.4189 8.65896 21.9329 9.29316 21.9329C9.92736 21.9329 10.4415 21.4189 10.4415 20.7849C10.4415 20.151 9.92736 19.637 9.29316 19.637C8.65896 19.637 8.14484 20.151 8.14484 20.7849Z" stroke="#ABC7C1" stroke-width="2.5" mask="url(#path-1-inside-1_4538_77957)"/>
<mask id="path-2-inside-2_4538_77957" fill="white">
<path d="M30.5138 22.9951C30.5138 25.5985 28.3366 27.7089 25.6509 27.7089C22.9653 27.7089 20.7881 25.5985 20.7881 22.9951C20.7881 20.3917 22.9653 18.2812 25.6509 18.2812C28.3366 18.2812 30.5138 20.3917 30.5138 22.9951ZM24.6675 22.9951C24.6675 23.5216 25.1078 23.9484 25.6509 23.9484C26.1941 23.9484 26.6344 23.5216 26.6344 22.9951C26.6344 22.4686 26.1941 22.0418 25.6509 22.0418C25.1078 22.0418 24.6675 22.4686 24.6675 22.9951Z"/>
</mask>
<path d="M30.5138 22.9951C30.5138 25.5985 28.3366 27.7089 25.6509 27.7089C22.9653 27.7089 20.7881 25.5985 20.7881 22.9951C20.7881 20.3917 22.9653 18.2812 25.6509 18.2812C28.3366 18.2812 30.5138 20.3917 30.5138 22.9951ZM24.6675 22.9951C24.6675 23.5216 25.1078 23.9484 25.6509 23.9484C26.1941 23.9484 26.6344 23.5216 26.6344 22.9951C26.6344 22.4686 26.1941 22.0418 25.6509 22.0418C25.1078 22.0418 24.6675 22.4686 24.6675 22.9951Z" stroke="#ABC7C1" stroke-width="2.5" mask="url(#path-2-inside-2_4538_77957)"/>
<path d="M17.2519 20.9341C17.2519 16.5409 13.6551 12.9795 9.21813 12.9795C6.77077 12.9795 4.579 14.063 3.10547 15.7721" stroke="#ABC7C1" stroke-width="1.25" stroke-linecap="round"/>
<path d="M20.3996 20.933C21.1892 18.7865 23.2344 17.2572 25.6328 17.2572C27.7335 17.2572 29.5631 18.4303 30.5156 20.1637V16.8373C30.5156 16.4959 30.2388 16.2192 29.8974 16.2192V16.2192C29.556 16.2192 29.2793 15.9424 29.2793 15.601V14.4621C29.2793 13.9587 28.905 13.5337 28.4056 13.4701L19.1672 12.2936C18.7837 12.2448 18.4627 11.9792 18.3428 11.6117L16.2271 5.12451C16.0929 4.71302 15.7092 4.43457 15.2764 4.43457H7.10768C6.55539 4.43457 6.10768 4.88229 6.10768 5.43457V11.9916C6.10768 12.2442 6.01209 12.4874 5.84013 12.6724L2.88574 15.8509" stroke="#ABC7C1" stroke-width="1.25" stroke-linecap="round" stroke-linejoin="round"/>
<path d="M20.4939 21.5586C20.839 21.5586 21.1189 21.2788 21.1189 20.9336C21.1189 20.5884 20.839 20.3086 20.4939 20.3086V21.5586ZM17.252 21.5586H20.4939V20.3086H17.252V21.5586Z" fill="#ABC7C1"/>
<rect x="20.5862" y="15.135" width="6.59704" height="0.77582" rx="0.38791" stroke="#ABC7C1" stroke-width="0.77582"/>
<mask id="path-7-inside-3_4538_77957" fill="white">
<rect x="7.23438" y="5.31934" width="4.12605" height="5.8923" rx="1"/>
</mask>
<rect x="7.23438" y="5.31934" width="4.12605" height="5.8923" rx="1" stroke="#ABC7C1" stroke-width="2.5" mask="url(#path-7-inside-3_4538_77957)"/>
<path d="M13.1592 6.31934C13.1592 6.11223 13.3271 5.94434 13.5342 5.94434H14.1065C14.2711 5.94434 14.4164 6.05164 14.4649 6.20892L15.6641 10.1012C15.7384 10.3424 15.5581 10.5866 15.3057 10.5866H13.5342C13.3271 10.5866 13.1592 10.4187 13.1592 10.2116V6.31934Z" stroke="#ABC7C1" stroke-width="1.25"/>
</svg>
