<svg width="33" height="33" viewBox="0 0 33 33" fill="none" xmlns="http://www.w3.org/2000/svg">
<path d="M16.515 2.79883C13.8897 2.79883 11.3233 3.57732 9.14048 5.03586C6.95762 6.49441 5.25628 8.56749 4.25162 10.993C3.24696 13.4184 2.9841 16.0873 3.49627 18.6622C4.00844 21.2371 5.27265 23.6022 7.12902 25.4586C8.98539 27.315 11.3506 28.5792 13.9254 29.0913C16.5003 29.6035 19.1692 29.3406 21.5947 28.336C24.0201 27.3313 26.0932 25.63 27.5517 23.4471C29.0103 21.2643 29.7888 18.6979 29.7888 16.0726C29.7855 12.5532 28.3859 9.17889 25.8973 6.69029C23.4087 4.20169 20.0344 2.80214 16.515 2.79883ZM16.515 28.5126C14.0546 28.5126 11.6495 27.783 9.6037 26.4161C7.55796 25.0492 5.96349 23.1063 5.02194 20.8332C4.08038 18.5601 3.83403 16.0588 4.31403 13.6457C4.79403 11.2326 5.97882 9.01597 7.71859 7.2762C9.45836 5.53644 11.675 4.35164 14.0881 3.87164C16.5012 3.39164 19.0025 3.63799 21.2756 4.57955C23.5487 5.5211 25.4916 7.11557 26.8585 9.16132C28.2254 11.2071 28.955 13.6122 28.955 16.0726C28.9517 19.3709 27.64 22.5331 25.3078 24.8654C22.9755 27.1976 19.8133 28.5093 16.515 28.5126Z" fill="#ABC7C1" stroke="#ABC7C1" stroke-width="0.25"/>
<path d="M15.6713 8.74023C15.5799 8.74023 15.4905 8.76735 15.4144 8.81815C15.3384 8.86895 15.2792 8.94115 15.2442 9.02563C15.2092 9.1101 15.2 9.20306 15.2179 9.29274C15.2357 9.38242 15.2797 9.46479 15.3444 9.52945C15.409 9.5941 15.4914 9.63814 15.5811 9.65597C15.6708 9.67381 15.7637 9.66466 15.8482 9.62967C15.9327 9.59468 16.0049 9.53542 16.0557 9.45939C16.1065 9.38337 16.1336 9.29398 16.1336 9.20255C16.1336 9.14183 16.1216 9.08172 16.0984 9.02563C16.0752 8.96954 16.0411 8.91857 15.9982 8.87564C15.9553 8.83271 15.9043 8.79866 15.8482 8.77543C15.7921 8.75219 15.732 8.74023 15.6713 8.74023Z" fill="#ABC7C1"/>
<path d="M17.3568 9.66486C17.4483 9.66486 17.5377 9.63774 17.6137 9.58694C17.6897 9.53614 17.749 9.46394 17.784 9.37947C17.819 9.29499 17.8281 9.20203 17.8103 9.11235C17.7924 9.02267 17.7484 8.9403 17.6837 8.87564C17.6191 8.81099 17.5367 8.76696 17.447 8.74912C17.3574 8.73128 17.2644 8.74043 17.1799 8.77543C17.0954 8.81042 17.0232 8.86967 16.9724 8.9457C16.9216 9.02173 16.8945 9.11111 16.8945 9.20255C16.8945 9.26326 16.9065 9.32337 16.9297 9.37947C16.953 9.43556 16.987 9.48652 17.0299 9.52945C17.0729 9.57238 17.1238 9.60643 17.1799 9.62967C17.236 9.6529 17.2961 9.66486 17.3568 9.66486Z" fill="#ABC7C1"/>
<path d="M16.512 2.8468C13.498 2.83402 10.5723 3.86371 8.23062 5.76137C8.17612 5.80539 8.13142 5.86031 8.0994 5.92262C8.06739 5.98493 8.04875 6.05324 8.04469 6.12318C8.04086 6.19349 8.05186 6.26383 8.07696 6.32962C8.10207 6.39541 8.14072 6.45519 8.19042 6.50509L26.0598 24.3945C26.1067 24.4411 26.1624 24.4779 26.2236 24.503C26.2848 24.528 26.3504 24.5406 26.4165 24.5403C26.4873 24.5369 26.5566 24.5186 26.6199 24.4865C26.6831 24.4545 26.7388 24.4094 26.7834 24.3543C28.3424 22.4129 29.3218 20.0708 29.6088 17.5974C29.8959 15.1241 29.4789 12.62 28.4058 10.3731C27.3328 8.12621 25.6473 6.22787 23.5432 4.89644C21.4391 3.565 19.002 2.85454 16.512 2.8468ZM14.4417 9.88197C14.4278 9.60117 14.4712 9.32049 14.5691 9.05696C14.6671 8.79343 14.8175 8.55254 15.0114 8.34892C15.2052 8.14529 15.4384 7.98317 15.6968 7.8724C15.9552 7.76162 16.2334 7.7045 16.5145 7.7045C16.7957 7.7045 17.0739 7.76162 17.3323 7.8724C17.5907 7.98317 17.8239 8.14529 18.0177 8.34892C18.2116 8.55254 18.362 8.79343 18.4599 9.05696C18.5579 9.32049 18.6012 9.60117 18.5874 9.88197C18.5834 9.98655 18.5717 10.0907 18.5522 10.1935C17.9124 9.89902 17.2164 9.74652 16.512 9.74652C15.8077 9.74652 15.1117 9.89902 14.4718 10.1935C14.453 10.0856 14.443 9.9764 14.4417 9.8669V9.88197ZM21.7231 18.6156L14.4316 11.3242C15.0589 10.9425 15.7778 10.7376 16.512 10.7312C19.4015 10.7312 21.7532 13.9272 21.7532 17.8568C21.7532 18.1081 21.7432 18.3644 21.7231 18.6156ZM26.3864 23.2789L22.6226 19.5151C22.7106 18.9701 22.7559 18.419 22.7583 17.8669L24.3663 18.4297L24.6577 20.8267C24.6726 20.9493 24.732 21.0621 24.8247 21.1436C24.9173 21.2252 25.0368 21.2698 25.1603 21.2689H25.2206C25.2867 21.2614 25.3508 21.2409 25.409 21.2085C25.4671 21.176 25.5183 21.1324 25.5594 21.08C25.6006 21.0276 25.6309 20.9676 25.6486 20.9034C25.6664 20.8392 25.6712 20.7722 25.6628 20.7061L25.3311 17.9975C25.3196 17.9048 25.2825 17.8171 25.2239 17.7443C25.1653 17.6716 25.0876 17.6165 24.9995 17.5855L22.9341 16.8619C22.8617 16.8422 22.7854 16.8422 22.713 16.8619C22.713 16.6659 22.6728 16.4699 22.6427 16.279L25.2758 14.8016C25.3535 14.7579 25.4181 14.6945 25.4631 14.6176C25.5082 14.5408 25.532 14.4534 25.5321 14.3644V12.7563C25.5321 12.6231 25.4792 12.4953 25.3849 12.401C25.2907 12.3068 25.1629 12.2538 25.0296 12.2538C24.8963 12.2538 24.7685 12.3068 24.6743 12.401C24.58 12.4953 24.5271 12.6231 24.5271 12.7563V14.0629L22.4216 15.2438C21.9958 13.4397 20.9545 11.8404 19.4768 10.7212C19.5545 10.4498 19.595 10.1692 19.5974 9.887C19.5963 9.36539 19.463 8.85257 19.2099 8.39648C18.9568 7.94039 18.5922 7.5559 18.1502 7.27896L18.4969 6.44981C18.525 6.38877 18.5407 6.3228 18.5433 6.25567C18.5458 6.18855 18.5351 6.12157 18.5118 6.05858C18.4885 5.99558 18.453 5.9378 18.4073 5.88853C18.3617 5.83926 18.3067 5.79947 18.2457 5.77142C18.1846 5.74337 18.1187 5.72762 18.0516 5.72507C17.9844 5.72252 17.9175 5.73322 17.8545 5.75655C17.7915 5.77988 17.7337 5.81539 17.6844 5.86105C17.6351 5.90671 17.5953 5.96163 17.5673 6.02268L17.2155 6.85685C16.7534 6.74295 16.2706 6.74295 15.8085 6.85685L15.4567 6.02268C15.4328 5.95943 15.3963 5.90168 15.3495 5.85288C15.3027 5.80407 15.2465 5.76522 15.1843 5.73864C15.1221 5.71207 15.0552 5.69832 14.9876 5.69822C14.9199 5.69813 14.853 5.71168 14.7907 5.73808C14.7284 5.76447 14.6721 5.80317 14.6252 5.85184C14.5782 5.90051 14.5416 5.95816 14.5174 6.02133C14.4933 6.0845 14.4822 6.1519 14.4847 6.21948C14.4872 6.28706 14.5033 6.35344 14.5321 6.41463L14.8789 7.24378C14.4374 7.52098 14.0736 7.90565 13.8214 8.36178C13.5691 8.81791 13.4368 9.33059 13.4366 9.85182C13.4373 10.0201 13.4508 10.1881 13.4768 10.3543L9.30599 6.18348C11.3965 4.65487 13.9223 3.83757 16.512 3.85182C19.7525 3.85581 22.8592 5.14451 25.151 7.4354C27.4429 9.72629 28.7328 12.8324 28.7381 16.0729C28.7462 18.6648 27.9218 21.1908 26.3864 23.2789Z" fill="#ABC7C1" stroke="#ABC7C1" stroke-width="0.25"/>
<path d="M6.96463 7.74999C6.91474 7.70029 6.85496 7.66164 6.78916 7.63653C6.72337 7.61143 6.65304 7.60043 6.58272 7.60426C6.51192 7.60762 6.44264 7.62593 6.37941 7.65798C6.31619 7.69002 6.26046 7.73508 6.21589 7.79019C4.65605 9.7338 3.67685 12.0784 3.39103 14.5541C3.1052 17.0298 3.52438 19.5359 4.60029 21.7838C5.67621 24.0317 7.36511 25.9301 9.47254 27.2603C11.58 28.5905 14.0202 29.2985 16.5124 29.3027C19.5258 29.3122 22.4505 28.2829 24.7938 26.3882C24.8489 26.3436 24.8939 26.2879 24.926 26.2247C24.958 26.1614 24.9763 26.0921 24.9797 26.0213C24.9835 25.951 24.9725 25.8807 24.9474 25.8149C24.9223 25.7491 24.8837 25.6893 24.834 25.6394L6.96463 7.74999ZM11.2913 17.8555C11.2712 16.6125 11.5091 15.3789 11.9898 14.2324L20.3918 22.6043C19.3867 24.1118 17.9998 24.9661 16.5124 24.9661C13.6229 24.9811 11.2712 21.7852 11.2712 17.8555H11.2913ZM16.5124 28.2977C13.271 28.2937 10.1636 27.0043 7.8716 24.7124C5.57962 22.4204 4.29023 19.3129 4.28624 16.0716C4.27817 13.4797 5.10255 10.9537 6.638 8.86556L11.246 13.4786C10.9743 14.0376 10.7572 14.6216 10.5978 15.2223L8.50232 14.0615V12.755C8.50232 12.6217 8.44938 12.4939 8.35514 12.3997C8.2609 12.3054 8.13308 12.2525 7.99981 12.2525C7.86653 12.2525 7.73872 12.3054 7.64448 12.3997C7.55024 12.4939 7.4973 12.6217 7.4973 12.755V14.343C7.49745 14.432 7.52126 14.5194 7.56629 14.5962C7.61132 14.673 7.67596 14.7365 7.75358 14.7801L10.3867 16.2575C10.3867 16.4485 10.3365 16.6445 10.3164 16.8404C10.2436 16.824 10.1681 16.824 10.0953 16.8404L8.02996 17.5791C7.94183 17.6102 7.86411 17.6652 7.80552 17.738C7.74694 17.8108 7.70981 17.8985 7.6983 17.9912L7.36664 20.6997C7.35823 20.7658 7.36304 20.8329 7.38078 20.8971C7.39852 20.9613 7.42885 21.0213 7.47 21.0737C7.51114 21.126 7.56229 21.1697 7.62046 21.2021C7.67863 21.2346 7.74267 21.2551 7.80885 21.2626H7.86915C7.99261 21.2634 8.11207 21.2189 8.20476 21.1373C8.29744 21.0557 8.35685 20.9429 8.37167 20.8203L8.66312 18.4234L10.2712 17.8605C10.2594 19.4915 10.655 21.0995 11.4219 22.5389L10.1204 24.1369C10.0466 24.226 10.0058 24.3378 10.0048 24.4535V25.9058C10.0048 26.039 10.0578 26.1669 10.152 26.2611C10.2463 26.3553 10.3741 26.4083 10.5073 26.4083C10.6406 26.4083 10.7684 26.3553 10.8627 26.2611C10.9569 26.1669 11.0099 26.039 11.0099 25.9058V24.6394L11.9898 23.4384C13.1254 25.0012 14.7335 25.9862 16.5124 25.9862C18.2913 25.9862 19.8692 25.0615 21.035 23.4435L22.04 24.6394V25.9108C22.04 26.0441 22.0929 26.1719 22.1872 26.2661C22.2814 26.3604 22.4092 26.4133 22.5425 26.4133C22.6758 26.4133 22.8036 26.3604 22.8979 26.2661C22.9921 26.1719 23.045 26.0441 23.045 25.9108V25.2525L23.7385 25.946C21.6448 27.4855 19.1111 28.3101 16.5124 28.2977Z" fill="#ABC7C1" stroke="#ABC7C1" stroke-width="0.25"/>
</svg>
