<svg width="49" height="48" viewBox="0 0 49 48" fill="none" xmlns="http://www.w3.org/2000/svg">
<rect x="0.896484" y="0.00177002" width="48" height="48" rx="24" fill="white" fill-opacity="0.6"/>
<g filter="url(#filter0_d_4538_76588)">
<path d="M8.89648 32.0018V31.7615C8.89648 31.2551 8.89648 31.0019 8.93522 30.7552C8.96961 30.5362 9.02666 30.3213 9.10547 30.1141C9.19422 29.8807 9.31984 29.6609 9.57108 29.2212L15.2965 19.2018M8.89648 32.0018C8.89648 35.5364 11.7619 38.4018 15.2965 38.4018C18.8311 38.4018 21.6965 35.5364 21.6965 32.0018M8.89648 32.0018V31.6818C8.89648 31.2337 8.89648 31.0097 8.98368 30.8386C9.06038 30.6881 9.18276 30.5657 9.33329 30.489C9.50442 30.4018 9.72844 30.4018 10.1765 30.4018H20.4165C20.8645 30.4018 21.0885 30.4018 21.2597 30.489C21.4102 30.5657 21.5326 30.6881 21.6093 30.8386C21.6965 31.0097 21.6965 31.2337 21.6965 31.6818V32.0018M15.2965 19.2018L21.0219 29.2212C21.2731 29.6609 21.3987 29.8807 21.4875 30.1141C21.5663 30.3213 21.6234 30.5362 21.6578 30.7552C21.6965 31.0019 21.6965 31.2551 21.6965 31.7615V32.0018M15.2965 19.2018L34.4965 16.0018M28.0965 28.8018V28.5615C28.0965 28.0551 28.0965 27.8019 28.1352 27.5552C28.1696 27.3362 28.2267 27.1213 28.3055 26.9141C28.3942 26.6807 28.5198 26.4609 28.7711 26.0212L34.4965 16.0018M28.0965 28.8018C28.0965 32.3364 30.9619 35.2018 34.4965 35.2018C38.0311 35.2018 40.8965 32.3364 40.8965 28.8018M28.0965 28.8018V28.4818C28.0965 28.0337 28.0965 27.8097 28.1837 27.6386C28.2604 27.4881 28.3828 27.3657 28.5333 27.289C28.7044 27.2018 28.9284 27.2018 29.3765 27.2018H39.6165C40.0645 27.2018 40.2885 27.2018 40.4597 27.289C40.6102 27.3657 40.7326 27.4881 40.8093 27.6386C40.8965 27.8097 40.8965 28.0337 40.8965 28.4818V28.8018M34.4965 16.0018L40.2219 26.0212C40.4731 26.4609 40.5987 26.6807 40.6875 26.9141C40.7663 27.1213 40.8234 27.3362 40.8578 27.5552C40.8965 27.8019 40.8965 28.0551 40.8965 28.5615V28.8018M24.8965 9.60178V17.6018" stroke="#3EA397" stroke-width="2" stroke-linecap="round" stroke-linejoin="round" shape-rendering="crispEdges"/>
</g>
<defs>
<filter id="filter0_d_4538_76588" x="7.89648" y="8.60178" width="34" height="31.8" filterUnits="userSpaceOnUse" color-interpolation-filters="sRGB">
<feFlood flood-opacity="0" result="BackgroundImageFix"/>
<feColorMatrix in="SourceAlpha" type="matrix" values="0 0 0 0 0 0 0 0 0 0 0 0 0 0 0 0 0 0 127 0" result="hardAlpha"/>
<feOffset dy="1"/>
<feComposite in2="hardAlpha" operator="out"/>
<feColorMatrix type="matrix" values="0 0 0 0 0.6804 0 0 0 0 0.84 0 0 0 0 0.818236 0 0 0 1 0"/>
<feBlend mode="normal" in2="BackgroundImageFix" result="effect1_dropShadow_4538_76588"/>
<feBlend mode="normal" in="SourceGraphic" in2="effect1_dropShadow_4538_76588" result="shape"/>
</filter>
</defs>
</svg>
