<svg width="48" height="48" viewBox="0 0 48 48" fill="none" xmlns="http://www.w3.org/2000/svg">
<rect width="48" height="48" rx="24" fill="white" fill-opacity="0.6"/>
<g filter="url(#filter0_d_5385_28519)">
<path d="M8 32V31.7597C8 31.2533 8 31.0001 8.03873 30.7534C8.07312 30.5344 8.13018 30.3195 8.20898 30.1123C8.29774 29.8789 8.42336 29.6591 8.6746 29.2194L14.4 19.2M8 32C8 35.5346 10.8654 38.4 14.4 38.4C17.9346 38.4 20.8 35.5346 20.8 32M8 32V31.68C8 31.2319 8 31.0079 8.08719 30.8368C8.16389 30.6863 8.28628 30.5639 8.43681 30.4872C8.60794 30.4 8.83196 30.4 9.28 30.4H19.52C19.968 30.4 20.1921 30.4 20.3632 30.4872C20.5137 30.5639 20.6361 30.6863 20.7128 30.8368C20.8 31.0079 20.8 31.2319 20.8 31.68V32M14.4 19.2L20.1254 29.2194C20.3766 29.6591 20.5023 29.8789 20.591 30.1123C20.6698 30.3195 20.7269 30.5344 20.7613 30.7534C20.8 31.0001 20.8 31.2533 20.8 31.7597V32M14.4 19.2L33.6 16M27.2 28.8V28.5597C27.2 28.0533 27.2 27.8001 27.2387 27.5534C27.2731 27.3344 27.3302 27.1195 27.409 26.9123C27.4977 26.6789 27.6234 26.4591 27.8746 26.0194L33.6 16M27.2 28.8C27.2 32.3346 30.0654 35.2 33.6 35.2C37.1346 35.2 40 32.3346 40 28.8M27.2 28.8V28.48C27.2 28.0319 27.2 27.8079 27.2872 27.6368C27.3639 27.4863 27.4863 27.3639 27.6368 27.2872C27.8079 27.2 28.032 27.2 28.48 27.2H38.72C39.168 27.2 39.3921 27.2 39.5632 27.2872C39.7137 27.3639 39.8361 27.4863 39.9128 27.6368C40 27.8079 40 28.0319 40 28.48V28.8M33.6 16L39.3254 26.0194C39.5766 26.4591 39.7023 26.6789 39.791 26.9123C39.8698 27.1195 39.9269 27.3344 39.9613 27.5534C40 27.8001 40 28.0533 40 28.5597V28.8M24 9.59998V17.6" stroke="#D02620" stroke-width="2" stroke-linecap="round" stroke-linejoin="round" shape-rendering="crispEdges"/>
</g>
<defs>
<filter id="filter0_d_5385_28519" x="7" y="8.59998" width="34" height="31.8" filterUnits="userSpaceOnUse" color-interpolation-filters="sRGB">
<feFlood flood-opacity="0" result="BackgroundImageFix"/>
<feColorMatrix in="SourceAlpha" type="matrix" values="0 0 0 0 0 0 0 0 0 0 0 0 0 0 0 0 0 0 127 0" result="hardAlpha"/>
<feOffset dy="1"/>
<feComposite in2="hardAlpha" operator="out"/>
<feColorMatrix type="matrix" values="0 0 0 0 0.6804 0 0 0 0 0.84 0 0 0 0 0.818236 0 0 0 1 0"/>
<feBlend mode="normal" in2="BackgroundImageFix" result="effect1_dropShadow_5385_28519"/>
<feBlend mode="normal" in="SourceGraphic" in2="effect1_dropShadow_5385_28519" result="shape"/>
</filter>
</defs>
</svg>
