<svg width="34" height="33" viewBox="0 0 34 33" fill="none" xmlns="http://www.w3.org/2000/svg">

<path d="M1 23.9277V23.6874C1 23.181 1 22.9278 1.03873 22.6811C1.07312 22.4621 1.13018 22.2473 1.20898 22.0401C1.29774 21.8067 1.42336 21.5868 1.6746 21.1472L7.4 11.1277M1 23.9277C1 27.4623 3.86538 30.3277 7.4 30.3277C10.9346 30.3277 13.8 27.4623 13.8 23.9277M1 23.9277V23.6077C1 23.1597 1 22.9356 1.08719 22.7645C1.16389 22.614 1.28628 22.4916 1.43681 22.4149C1.60794 22.3277 1.83196 22.3277 2.28 22.3277H12.52C12.968 22.3277 13.1921 22.3277 13.3632 22.4149C13.5137 22.4916 13.6361 22.614 13.7128 22.7645C13.8 22.9356 13.8 23.1597 13.8 23.6077V23.9277M7.4 11.1277L13.1254 21.1472C13.3766 21.5868 13.5023 21.8067 13.591 22.0401C13.6698 22.2473 13.7269 22.4621 13.7613 22.6811C13.8 22.9278 13.8 23.181 13.8 23.6874V23.9277M7.4 11.1277L26.6 7.92771M20.2 20.7277V20.4874C20.2 19.981 20.2 19.7278 20.2387 19.4811C20.2731 19.2621 20.3302 19.0473 20.409 18.8401C20.4977 18.6067 20.6234 18.3868 20.8746 17.9472L26.6 7.92771M20.2 20.7277C20.2 24.2623 23.0654 27.1277 26.6 27.1277C30.1346 27.1277 33 24.2623 33 20.7277M20.2 20.7277V20.4077C20.2 19.9597 20.2 19.7356 20.2872 19.5645C20.3639 19.414 20.4863 19.2916 20.6368 19.2149C20.8079 19.1277 21.032 19.1277 21.48 19.1277H31.72C32.168 19.1277 32.3921 19.1277 32.5632 19.2149C32.7137 19.2916 32.8361 19.414 32.9128 19.5645C33 19.7356 33 19.9597 33 20.4077V20.7277M26.6 7.92771L32.3254 17.9472C32.5766 18.3868 32.7023 18.6067 32.791 18.8401C32.8698 19.0473 32.9269 19.2621 32.9613 19.4811C33 19.7278 33 19.981 33 20.4874V20.7277M17 1.52771V9.52771" stroke="#3EA397" stroke-width="2" stroke-linecap="round" stroke-linejoin="round" shape-rendering="crispEdges"/>


</svg>
