<svg width="36" height="36" viewBox="0 0 36 36" fill="none" xmlns="http://www.w3.org/2000/svg">
<rect x="-0.00195312" y="0.000671387" width="36" height="36" rx="18" fill="#282B36" fill-opacity="0.5"/>
<g filter="url(#filter0_d_5168_7458)">
<path d="M7.99805 22.0007V21.8505C7.99805 21.534 7.99805 21.3757 8.02225 21.2216C8.04375 21.0847 8.07941 20.9504 8.12866 20.8209C8.18413 20.675 8.26265 20.5376 8.41967 20.2628L11.998 14.0007M7.99805 22.0007C7.99805 24.2098 9.78891 26.0007 11.998 26.0007C14.2072 26.0007 15.998 24.2098 15.998 22.0007M7.99805 22.0007V21.8007C7.99805 21.5206 7.99805 21.3806 8.05254 21.2737C8.10048 21.1796 8.17697 21.1031 8.27105 21.0552C8.37801 21.0007 8.51802 21.0007 8.79805 21.0007H15.198C15.4781 21.0007 15.6181 21.0007 15.725 21.0552C15.8191 21.1031 15.8956 21.1796 15.9436 21.2737C15.998 21.3806 15.998 21.5206 15.998 21.8007V22.0007M11.998 14.0007L15.5764 20.2628C15.7334 20.5376 15.812 20.675 15.8674 20.8209C15.9167 20.9504 15.9523 21.0847 15.9738 21.2216C15.998 21.3757 15.998 21.534 15.998 21.8505V22.0007M11.998 14.0007L23.998 12.0007M19.998 20.0007V19.8505C19.998 19.534 19.998 19.3757 20.0223 19.2216C20.0437 19.0847 20.0794 18.9504 20.1287 18.8209C20.1841 18.675 20.2626 18.5376 20.4197 18.2628L23.998 12.0007M19.998 20.0007C19.998 22.2098 21.7889 24.0007 23.998 24.0007C26.2072 24.0007 27.998 22.2098 27.998 20.0007M19.998 20.0007V19.8007C19.998 19.5206 19.998 19.3806 20.0525 19.2737C20.1005 19.1796 20.177 19.1031 20.2711 19.0552C20.378 19.0007 20.518 19.0007 20.798 19.0007H27.198C27.4781 19.0007 27.6181 19.0007 27.725 19.0552C27.8191 19.1031 27.8956 19.1796 27.9436 19.2737C27.998 19.3806 27.998 19.5206 27.998 19.8007V20.0007M23.998 12.0007L27.5764 18.2628C27.7334 18.5376 27.812 18.675 27.8674 18.8209C27.9167 18.9504 27.9523 19.0847 27.9738 19.2216C27.998 19.3757 27.998 19.534 27.998 19.8505V20.0007M17.998 8.00067V13.0007" stroke="#30D9C7" stroke-width="2" stroke-linecap="round" stroke-linejoin="round" shape-rendering="crispEdges"/>
</g>
<defs>
<filter id="filter0_d_5168_7458" x="6.99805" y="7.00067" width="22" height="21" filterUnits="userSpaceOnUse" color-interpolation-filters="sRGB">
<feFlood flood-opacity="0" result="BackgroundImageFix"/>
<feColorMatrix in="SourceAlpha" type="matrix" values="0 0 0 0 0 0 0 0 0 0 0 0 0 0 0 0 0 0 127 0" result="hardAlpha"/>
<feOffset dy="1"/>
<feComposite in2="hardAlpha" operator="out"/>
<feColorMatrix type="matrix" values="0 0 0 0 0 0 0 0 0 0 0 0 0 0 0 0 0 0 0.25 0"/>
<feBlend mode="normal" in2="BackgroundImageFix" result="effect1_dropShadow_5168_7458"/>
<feBlend mode="normal" in="SourceGraphic" in2="effect1_dropShadow_5168_7458" result="shape"/>
</filter>
</defs>
</svg>
