<svg width="22" height="21" viewBox="0 0 22 21" fill="none" xmlns="http://www.w3.org/2000/svg">
<path d="M1 15.2773V15.1271C1 14.8107 1 14.6524 1.02421 14.4982C1.0457 14.3614 1.08136 14.2271 1.13061 14.0976C1.18609 13.9517 1.2646 13.8143 1.42162 13.5395L5 7.27734M1 15.2773C1 17.4865 2.79086 19.2773 5 19.2773C7.20914 19.2773 9 17.4865 9 15.2773M1 15.2773V15.0773C1 14.7973 1 14.6573 1.0545 14.5503C1.10243 14.4563 1.17892 14.3798 1.273 14.3318C1.37996 14.2773 1.51997 14.2773 1.8 14.2773H8.2C8.48003 14.2773 8.62004 14.2773 8.727 14.3318C8.82108 14.3798 8.89757 14.4563 8.9455 14.5503C9 14.6573 9 14.7973 9 15.0773V15.2773M5 7.27734L8.57838 13.5395C8.7354 13.8143 8.81391 13.9517 8.86939 14.0976C8.91864 14.2271 8.9543 14.3614 8.97579 14.4982C9 14.6524 9 14.8107 9 15.1271V15.2773M5 7.27734L17 5.27734M13 13.2773V13.1271C13 12.8107 13 12.6524 13.0242 12.4982C13.0457 12.3614 13.0814 12.2271 13.1306 12.0976C13.1861 11.9517 13.2646 11.8143 13.4216 11.5395L17 5.27734M13 13.2773C13 15.4865 14.7909 17.2773 17 17.2773C19.2091 17.2773 21 15.4865 21 13.2773M13 13.2773V13.0773C13 12.7973 13 12.6573 13.0545 12.5503C13.1024 12.4563 13.1789 12.3798 13.273 12.3318C13.38 12.2773 13.52 12.2773 13.8 12.2773H20.2C20.48 12.2773 20.62 12.2773 20.727 12.3318C20.8211 12.3798 20.8976 12.4563 20.9455 12.5503C21 12.6573 21 12.7973 21 13.0773V13.2773M17 5.27734L20.5784 11.5395C20.7354 11.8143 20.8139 11.9517 20.8694 12.0976C20.9186 12.2271 20.9543 12.3614 20.9758 12.4982C21 12.6524 21 12.8107 21 13.1271V13.2773M11 1.27734V6.27734" stroke="#5D697E" stroke-width="2" stroke-linecap="round" stroke-linejoin="round"/>
</svg>
