<svg width="36" height="36" viewBox="0 0 36 36" fill="none" xmlns="http://www.w3.org/2000/svg">
<rect y="0.000732422" width="36" height="36" rx="18" fill="white" fill-opacity="0.5"/>
<g filter="url(#filter0_d_5385_28568)">
<path d="M8 22.0007V21.8505C8 21.534 8 21.3758 8.02421 21.2216C8.0457 21.0847 8.08136 20.9505 8.13061 20.8209C8.18609 20.6751 8.2646 20.5377 8.42162 20.2629L12 14.0007M8 22.0007C8 24.2099 9.79086 26.0007 12 26.0007C14.2091 26.0007 16 24.2099 16 22.0007M8 22.0007V21.8007C8 21.5207 8 21.3807 8.0545 21.2737C8.10243 21.1797 8.17892 21.1032 8.273 21.0552C8.37996 21.0007 8.51997 21.0007 8.8 21.0007H15.2C15.48 21.0007 15.62 21.0007 15.727 21.0552C15.8211 21.1032 15.8976 21.1797 15.9455 21.2737C16 21.3807 16 21.5207 16 21.8007V22.0007M12 14.0007L15.5784 20.2629C15.7354 20.5377 15.8139 20.6751 15.8694 20.8209C15.9186 20.9505 15.9543 21.0847 15.9758 21.2216C16 21.3758 16 21.534 16 21.8505V22.0007M12 14.0007L24 12.0007M20 20.0007V19.8505C20 19.534 20 19.3758 20.0242 19.2216C20.0457 19.0847 20.0814 18.9505 20.1306 18.8209C20.1861 18.6751 20.2646 18.5377 20.4216 18.2629L24 12.0007M20 20.0007C20 22.2099 21.7909 24.0007 24 24.0007C26.2091 24.0007 28 22.2099 28 20.0007M20 20.0007V19.8007C20 19.5207 20 19.3807 20.0545 19.2737C20.1024 19.1797 20.1789 19.1032 20.273 19.0552C20.38 19.0007 20.52 19.0007 20.8 19.0007H27.2C27.48 19.0007 27.62 19.0007 27.727 19.0552C27.8211 19.1032 27.8976 19.1797 27.9455 19.2737C28 19.3807 28 19.5207 28 19.8007V20.0007M24 12.0007L27.5784 18.2629C27.7354 18.5377 27.8139 18.6751 27.8694 18.8209C27.9186 18.9505 27.9543 19.0847 27.9758 19.2216C28 19.3758 28 19.534 28 19.8505V20.0007M18 8.00073V13.0007" stroke="#D02620" stroke-width="2" stroke-linecap="round" stroke-linejoin="round" shape-rendering="crispEdges"/>
</g>
<defs>
<filter id="filter0_d_5385_28568" x="7" y="7.00073" width="22" height="21" filterUnits="userSpaceOnUse" color-interpolation-filters="sRGB">
<feFlood flood-opacity="0" result="BackgroundImageFix"/>
<feColorMatrix in="SourceAlpha" type="matrix" values="0 0 0 0 0 0 0 0 0 0 0 0 0 0 0 0 0 0 127 0" result="hardAlpha"/>
<feOffset dy="1"/>
<feComposite in2="hardAlpha" operator="out"/>
<feColorMatrix type="matrix" values="0 0 0 0 0 0 0 0 0 0 0 0 0 0 0 0 0 0 0.25 0"/>
<feBlend mode="normal" in2="BackgroundImageFix" result="effect1_dropShadow_5385_28568"/>
<feBlend mode="normal" in="SourceGraphic" in2="effect1_dropShadow_5385_28568" result="shape"/>
</filter>
</defs>
</svg>
