<svg width="33" height="33" viewBox="0 0 33 33" fill="none" xmlns="http://www.w3.org/2000/svg">
<path d="M22.1436 9.39848C21.1604 6.18283 19.2598 4.00391 17.0766 4.00391C14.8072 4.00391 12.8432 6.35813 11.8975 9.78381" stroke="#ABC7C1" stroke-width="1.5"/>
<path d="M15.6714 14.4622C12.8276 18.9591 12.4516 23.8246 14.8316 25.3298C17.2116 26.8349 21.4464 24.4096 24.2902 19.9128C27.1341 15.4159 26.1881 9.71434 25.1301 9.04522C24.0087 8.33604 18.5153 9.96535 15.6714 14.4622Z" stroke="#ABC7C1" stroke-width="1.5"/>
<path d="M18.3993 25.3222C15.9379 26.8788 11.6249 24.4761 8.76615 19.9556C5.90736 15.4351 6.95244 9.64398 8.0467 8.95196C9.07267 8.30314 13.5849 9.46436 16.5915 12.8705" stroke="#ABC7C1" stroke-width="1.5"/>
</svg>
