<svg width="33" height="33" viewBox="0 0 33 33" fill="none" xmlns="http://www.w3.org/2000/svg">
<path d="M9.86956 24.2665C10.6831 23.6668 11.488 23.813 12.3269 24.103C14.6508 24.9048 16.9854 25.6658 19.3159 26.4427C19.709 26.5737 20.0761 26.5222 20.4318 26.2731C23.4938 24.1272 26.5585 21.9874 29.6232 19.8461C30.2419 19.4137 30.4328 18.9223 30.1805 18.4067C29.9049 17.8449 29.1734 17.6397 28.6235 18.0054C28.0682 18.3749 27.5323 18.783 26.9883 19.1752C25.9285 19.9392 24.8687 20.7025 23.8108 21.4695C23.6053 21.6187 23.3764 21.6868 23.1968 21.4937C23.078 21.3658 22.9953 21.1333 22.9953 20.947C22.9953 20.8085 23.1268 20.6237 23.2442 20.5374C24.8607 19.3577 26.4744 18.1727 28.1102 17.0294C29.0446 16.3767 30.2799 16.6561 30.9066 17.5889C31.5981 18.6187 31.3371 19.9816 30.3 20.7093C28.6562 21.8632 27.0084 23.0096 25.3632 24.1598C23.9356 25.1585 22.5021 26.1466 21.0839 27.162C20.3871 27.661 19.6776 27.7609 18.8908 27.4929C16.4574 26.6653 14.0181 25.8604 11.5801 25.0487C11.1416 24.9026 10.7298 24.9382 10.3501 25.2993C10.4635 25.5484 10.5737 25.7794 10.6738 26.0149C10.8273 26.3776 10.7619 26.6653 10.4515 26.8447C9.13542 27.605 7.81597 28.3576 6.49252 29.1019C6.15949 29.2889 5.92056 29.1595 5.72034 28.7165C4.85272 26.8001 3.98777 24.8821 3.12149 22.9657C2.71104 22.0578 2.30059 21.1492 1.88814 20.2429C1.62318 19.6606 1.69059 19.4122 2.20515 19.1419C3.42382 18.5013 4.64382 17.863 5.8645 17.2262C6.3577 16.9688 6.55325 17.046 6.80152 17.5867C6.87828 17.7532 6.95569 17.9191 7.04446 18.1114C7.82999 17.6033 8.60016 17.1066 9.36834 16.6076C10.1966 16.07 11.0195 15.5233 11.8517 14.9933C12.5071 14.5761 13.1812 14.5344 13.9026 14.8139C16.4321 15.7929 18.9715 16.7409 21.505 17.7048C22.5982 18.1205 23.1668 19.1268 22.9673 20.2716C22.7784 21.3574 21.7419 22.1873 20.6727 22.0503C20.2256 21.9935 19.7858 21.8307 19.35 21.6868C18.3695 21.3627 17.3931 21.0212 16.4161 20.6843C16.0183 20.5472 15.8641 20.2792 15.9669 19.915C16.0583 19.5909 16.3293 19.4758 16.7104 19.6046C17.9231 20.0142 19.1297 20.4481 20.3511 20.8213C20.6627 20.9168 21.0358 20.8933 21.3515 20.7979C21.7386 20.6813 21.9815 20.3345 21.9909 19.8438C21.9989 19.4062 21.7586 19.0185 21.3421 18.8466C20.8002 18.6232 20.2496 18.4256 19.703 18.2174C17.6528 17.4367 15.6012 16.6614 13.5536 15.8716C13.0858 15.6914 12.6726 15.7649 12.2515 16.042C10.6851 17.0718 9.11072 18.0849 7.5083 19.1245C8.28782 20.8213 9.06601 22.5144 9.87089 24.265L9.86956 24.2665ZM9.56989 26.0777C8.38393 23.4987 7.21531 20.9576 6.03468 18.3908C4.98286 18.9413 3.96108 19.4758 2.9166 20.0225C4.10657 22.6522 5.27919 25.2441 6.46048 27.8548C7.5043 27.2582 8.51407 26.6812 9.56923 26.0777H9.56989Z" fill="#ABC7C1" stroke="#ABC7C1" stroke-width="0.5"/>
<path d="M23.3567 15.4966C20.4149 15.5175 17.8727 13.2761 17.6231 10.4192C17.3268 7.02207 19.9884 4.22629 23.4842 4.27705C24.4927 4.29202 25.4344 4.56925 26.3006 5.07622C26.651 5.28121 26.7525 5.58578 26.5756 5.86172C26.4068 6.12463 26.1078 6.16368 25.7554 5.9704C22.8335 4.36165 19.3984 5.88124 18.7303 9.07856C18.153 11.8399 20.571 14.5497 23.4549 14.4469C25.7994 14.3636 27.8543 12.5805 28.0018 10.1771C28.0239 9.82306 27.9892 9.46253 27.9438 9.1098C27.8911 8.70176 28.0192 8.43038 28.3415 8.37246C28.6839 8.31063 28.9075 8.4922 28.9903 8.89894C29.5889 11.8509 27.4452 14.892 24.4132 15.3847C24.0642 15.4413 23.7091 15.4602 23.3567 15.4966Z" fill="#ABC7C1" stroke="#ABC7C1" stroke-width="0.5"/>
<path d="M23.5123 10.833C24.3866 9.80738 25.2181 8.83315 26.0484 7.85827C27.3545 6.32371 28.6592 4.7872 29.9667 3.25329C30.239 2.93375 30.544 2.87388 30.8003 3.07628C31.0619 3.28258 31.0539 3.60407 30.7749 3.93271C28.5471 6.55344 26.3193 9.17416 24.0896 11.7936C23.7205 12.227 23.4495 12.2374 23.0464 11.8294C22.1975 10.971 21.3459 10.1146 20.5143 9.24054C20.3782 9.09737 20.2634 8.86178 20.2787 8.67956C20.2907 8.53574 20.501 8.32944 20.6551 8.29755C20.8227 8.26241 21.0809 8.34376 21.2071 8.4661C21.9179 9.15269 22.6006 9.8666 23.292 10.5721C23.3608 10.6423 23.4188 10.7217 23.5123 10.833Z" fill="#ABC7C1" stroke="#ABC7C1" stroke-width="0.5"/>
<path d="M7.18316 24.5071C6.83411 24.4954 6.56916 24.2273 6.58784 23.9039C6.60653 23.5798 6.89485 23.326 7.23122 23.3383C7.57092 23.3507 7.83521 23.6247 7.82186 23.9494C7.80852 24.2826 7.53755 24.5189 7.18316 24.5071Z" fill="#ABC7C1" stroke="#ABC7C1" stroke-width="0.5"/>
</svg>
