<svg width="33" height="33" viewBox="0 0 33 33" fill="none" xmlns="http://www.w3.org/2000/svg">
<path d="M25.7362 25.6302C25.5821 24.8968 25.2807 24.201 24.8495 23.5837C24.4183 22.9664 23.8661 22.44 23.2253 22.0354C22.5844 21.6309 21.8679 21.3563 21.1176 21.2278C20.3674 21.0993 19.5987 21.1194 18.8565 21.2871C18.8395 20.1834 18.4144 19.1235 17.6607 18.3055C16.907 17.4876 15.8762 16.9676 14.761 16.8427C13.6458 16.7178 12.5225 16.9965 11.601 17.6269C10.6796 18.2572 10.0231 19.196 9.75426 20.2677C9.59469 20.2437 9.43357 20.2311 9.27215 20.2298C8.40691 20.231 7.57747 20.5696 6.96566 21.1713C6.35384 21.773 6.00955 22.5888 6.00828 23.4397C6.00806 23.818 6.07495 24.1935 6.20594 24.5492C5.45358 24.9221 4.81998 25.4914 4.37443 26.1947C3.92888 26.8979 3.68854 27.7081 3.6797 28.5367C3.67933 28.5991 3.69149 28.661 3.71548 28.7187C3.73947 28.7765 3.77482 28.829 3.81951 28.8733C3.86416 28.9181 3.9174 28.9538 3.97616 28.9782C4.03492 29.0026 4.09802 29.0153 4.1618 29.0156H27.9442C28.0114 29.0159 28.0778 29.0023 28.1393 28.9759C28.2008 28.9494 28.256 28.9106 28.3014 28.862C28.3468 28.8133 28.3814 28.7559 28.4029 28.6933C28.4244 28.6308 28.4324 28.5645 28.4263 28.4988C28.3599 27.7966 28.0606 27.1355 27.5745 26.6171C27.0883 26.0988 26.4424 25.752 25.7362 25.6302ZM4.66802 28.0673C4.76016 27.4296 5.02621 26.8284 5.43791 26.3275C5.8496 25.8266 6.39158 25.4447 7.00624 25.2225C7.07183 25.1982 7.13125 25.1602 7.18037 25.1111C7.2295 25.0619 7.26714 25.0029 7.29069 24.938C7.31415 24.8739 7.32328 24.8055 7.31746 24.7376C7.31164 24.6697 7.29099 24.6038 7.25694 24.5444C7.06218 24.1994 6.96241 23.8103 6.96749 23.4157C6.97257 23.0211 7.08233 22.6347 7.28591 22.2946C7.48948 21.9545 7.77982 21.6726 8.12819 21.4768C8.47656 21.281 8.87089 21.178 9.27215 21.178C9.51824 21.1777 9.76266 21.2177 9.99532 21.2966C10.0632 21.3189 10.1353 21.3261 10.2064 21.3176C10.2775 21.3091 10.3457 21.2851 10.4062 21.2474C10.4667 21.2097 10.5179 21.1593 10.556 21.0997C10.5942 21.0401 10.6184 20.973 10.6269 20.903C10.7434 19.9971 11.2063 19.1688 11.9214 18.5863C12.6365 18.0038 13.5502 17.7109 14.477 17.7671C15.4038 17.8232 16.274 18.2242 16.9111 18.8885C17.5481 19.5529 17.9041 20.4308 17.9067 21.344C17.9043 21.5137 17.8914 21.6831 17.8682 21.8513C17.8562 21.9326 17.8659 22.0155 17.8963 22.092C17.9268 22.1684 17.9769 22.2358 18.0417 22.2875C18.1079 22.3412 18.1875 22.3766 18.2723 22.3899C18.357 22.4033 18.4439 22.3941 18.5238 22.3634C19.049 22.1742 19.6037 22.0763 20.163 22.0742C21.312 22.0775 22.421 22.4891 23.2858 23.2332C24.1505 23.9773 24.7125 25.0038 24.8684 26.1233C24.8839 26.2325 24.9377 26.333 25.0204 26.4074C25.1031 26.4818 25.2096 26.5255 25.3216 26.5311C25.7764 26.561 26.2121 26.7229 26.5734 26.9964C26.9347 27.2698 27.2054 27.6425 27.3512 28.0673H4.66802Z" fill="#ABC7C1" stroke="#ABC7C1" stroke-width="0.25"/>
<path d="M11.2368 23.207C10.4797 23.2157 9.75616 23.516 9.22163 24.0435C8.6871 24.5709 8.38419 25.2835 8.37793 26.0282C8.37793 26.1539 8.42872 26.2745 8.51914 26.3634C8.60955 26.4524 8.73217 26.5023 8.86004 26.5023C8.9879 26.5023 9.11053 26.4524 9.20094 26.3634C9.29135 26.2745 9.34215 26.1539 9.34215 26.0282C9.34214 25.5335 9.54161 25.0591 9.89679 24.7089C10.252 24.3587 10.7339 24.1613 11.2368 24.1601C11.6973 24.1664 12.1402 24.3346 12.4855 24.6342C12.5346 24.6759 12.5915 24.7077 12.6531 24.7278C12.7146 24.7479 12.7796 24.7558 12.8443 24.7512C12.909 24.7466 12.9721 24.7295 13.0301 24.7008C13.0881 24.6722 13.1397 24.6327 13.1821 24.5844C13.2246 24.5362 13.2569 24.4802 13.2773 24.4196C13.2977 24.3591 13.3058 24.2952 13.3011 24.2315C13.2964 24.1679 13.279 24.1058 13.2499 24.0488C13.2208 23.9918 13.1806 23.941 13.1315 23.8993C12.6051 23.452 11.9325 23.2062 11.2368 23.207Z" fill="#ABC7C1" stroke="#ABC7C1" stroke-width="0.25"/>
<path d="M20.3613 23.5596C19.7565 23.5586 19.1721 23.7744 18.7173 24.1665C18.663 24.2051 18.6174 24.2544 18.5836 24.3114C18.5497 24.3683 18.5283 24.4315 18.5207 24.497C18.5131 24.5626 18.5195 24.6289 18.5394 24.6919C18.5594 24.7548 18.5925 24.813 18.6366 24.8627C18.6807 24.9123 18.7348 24.9524 18.7956 24.9803C18.8563 25.0083 18.9223 25.0234 18.9894 25.0248C19.0564 25.0262 19.123 25.0139 19.1849 24.9885C19.2468 24.9632 19.3027 24.9254 19.3489 24.8777C19.5734 24.6883 19.8483 24.5661 20.1412 24.5257C20.4341 24.4852 20.7326 24.5281 21.0015 24.6494C21.2703 24.7706 21.4982 24.965 21.6582 25.2097C21.8182 25.4544 21.9035 25.739 21.9041 26.0298C21.9041 26.1556 21.9549 26.2762 22.0453 26.3651C22.1357 26.454 22.2583 26.504 22.3862 26.504C22.514 26.504 22.6367 26.454 22.7271 26.3651C22.8175 26.2762 22.8683 26.1556 22.8683 26.0298C22.8683 25.3755 22.6043 24.7479 22.1343 24.2848C21.6643 23.8216 21.0267 23.5608 20.3613 23.5596Z" fill="#ABC7C1" stroke="#ABC7C1" stroke-width="0.25"/>
<path d="M14.149 19.8291C13.6726 19.8275 13.2117 19.996 12.8521 20.3033C12.7977 20.3419 12.7522 20.3912 12.7183 20.4481C12.6845 20.5051 12.6631 20.5683 12.6555 20.6338C12.6479 20.6993 12.6542 20.7657 12.6742 20.8287C12.6941 20.8916 12.7272 20.9498 12.7713 20.9995C12.8154 21.0491 12.8696 21.0892 12.9303 21.1171C12.9911 21.145 13.0571 21.1602 13.1241 21.1616C13.1912 21.163 13.2578 21.1507 13.3197 21.1253C13.3816 21.1 13.4374 21.0622 13.4837 21.0145C13.6302 20.8904 13.8098 20.8102 14.0012 20.7834C14.1925 20.7565 14.3878 20.7841 14.5637 20.8629C14.7397 20.9417 14.889 21.0684 14.9941 21.228C15.0991 21.3876 15.1555 21.5735 15.1566 21.7636C15.1566 21.8894 15.2074 22.01 15.2978 22.0989C15.3882 22.1878 15.5108 22.2377 15.6387 22.2377C15.7666 22.2377 15.8892 22.1878 15.9796 22.0989C16.07 22.01 16.1208 21.8894 16.1208 21.7636C16.1183 21.2505 15.9095 20.7592 15.5402 20.3968C15.1708 20.0344 14.6707 19.8304 14.149 19.8291Z" fill="#ABC7C1" stroke="#ABC7C1" stroke-width="0.25"/>
<path d="M29.2011 11.8057L21.8682 4.69357C21.8097 4.63989 21.7385 4.60138 21.6611 4.58151C21.5836 4.56165 21.5024 4.56105 21.4247 4.57978V3.60305C21.4247 3.4773 21.3739 3.3567 21.2835 3.26778C21.1931 3.17886 21.0704 3.12891 20.9426 3.12891H12.0573C11.9294 3.12891 11.8068 3.17886 11.7164 3.26778C11.626 3.3567 11.5752 3.4773 11.5752 3.60305V5.12029C11.5752 5.24604 11.626 5.36664 11.7164 5.45556C11.8068 5.54448 11.9294 5.59443 12.0573 5.59443H12.2501L13.1324 6.49056C13.1778 6.53737 13.2324 6.57455 13.2929 6.59983C13.3534 6.62511 13.4186 6.63794 13.4843 6.63754C13.5493 6.6373 13.6135 6.62415 13.6732 6.5989C13.7328 6.57364 13.7867 6.53679 13.8315 6.49056L14.492 5.8078L15.1573 6.49056C15.2025 6.53593 15.2565 6.5719 15.3161 6.59634C15.3758 6.62077 15.4398 6.63317 15.5044 6.6328C15.5698 6.63381 15.6347 6.62173 15.6952 6.59727C15.7557 6.57282 15.8105 6.53651 15.8563 6.49056L16.5072 5.80306L17.1725 6.49056C17.2173 6.53679 17.2711 6.57364 17.3308 6.5989C17.3904 6.62415 17.4546 6.6373 17.5196 6.63754C17.5845 6.6373 17.6488 6.62415 17.7084 6.5989C17.7681 6.57364 17.8219 6.53679 17.8667 6.49056L18.7249 5.59443H20.5183C20.5183 5.59443 20.5183 5.62762 20.5183 5.64185L20.5906 6.59013L19.6264 6.61858C19.5009 6.62159 19.3816 6.67262 19.2938 6.76082C19.2448 6.80898 19.207 6.86694 19.1829 6.93075C19.1587 6.99457 19.1489 7.06275 19.1539 7.13065L19.2263 8.07893L18.262 8.10264C18.1294 8.10997 18.0049 8.16779 17.9149 8.26384C17.8713 8.31195 17.8381 8.36829 17.8174 8.42944C17.7967 8.49058 17.7889 8.55523 17.7944 8.61945L17.8619 9.56773L16.8977 9.59618C16.831 9.59597 16.765 9.60937 16.7038 9.63553C16.6427 9.6617 16.5877 9.70005 16.5424 9.74818C16.4971 9.79631 16.4624 9.85316 16.4406 9.91514C16.4187 9.97711 16.4102 10.0429 16.4156 10.1082L16.4879 11.0565L15.5237 11.0802C15.458 11.0817 15.3934 11.0963 15.3337 11.1232C15.274 11.1501 15.2205 11.1887 15.1765 11.2367L14.9114 11.5307C14.8253 11.6232 14.7801 11.7455 14.7855 11.8708C14.7909 11.9961 14.8466 12.1142 14.9403 12.1992L22.5817 18.9842C22.6706 19.066 22.7878 19.1118 22.9096 19.1122C23.0363 19.1021 23.1547 19.0464 23.2422 18.9557L29.2204 12.4695C29.3062 12.3784 29.3522 12.2578 29.3486 12.1337C29.345 12.0096 29.292 11.8918 29.2011 11.8057ZM20.4605 4.64615H18.532C18.4663 4.64576 18.4011 4.65859 18.3406 4.68387C18.2801 4.70914 18.2255 4.74633 18.1801 4.79314L17.51 5.4759L16.8495 4.79314C16.7545 4.70442 16.6285 4.65496 16.4975 4.65496C16.3665 4.65496 16.2406 4.70442 16.1456 4.79314L15.4851 5.4759L14.8246 4.79314C14.7296 4.70442 14.6037 4.65496 14.4727 4.65496C14.3417 4.65496 14.2157 4.70442 14.1207 4.79314L13.4651 5.4759L12.8046 4.79314C12.7323 4.72203 12.6399 4.67409 12.5394 4.65564V4.07719H20.4605V4.64615ZM22.871 17.9648L16.2034 11.9669L17.0471 11.9432C17.1128 11.9417 17.1774 11.9271 17.2371 11.9002C17.2968 11.8733 17.3503 11.8347 17.3942 11.7867C17.4379 11.7386 17.471 11.6823 17.4918 11.6211C17.5125 11.56 17.5203 11.4953 17.5148 11.4311L17.4425 10.4828L18.4067 10.4544C18.4723 10.4529 18.537 10.4383 18.5967 10.4114C18.6563 10.3845 18.7098 10.3459 18.7538 10.2979C18.7968 10.2504 18.8296 10.1948 18.8503 10.1345C18.871 10.0742 18.8792 10.0105 18.8743 9.94704L18.8068 8.99876L19.771 8.97505C19.8359 8.97296 19.8996 8.95802 19.9584 8.93114C20.0172 8.90425 20.0699 8.86597 20.1133 8.81859C20.1572 8.77143 20.1909 8.71604 20.2124 8.65575C20.234 8.59545 20.2429 8.5315 20.2387 8.46772L20.1664 7.51944L21.1306 7.491C21.1965 7.49133 21.2618 7.4775 21.3217 7.45047C21.3817 7.42345 21.4349 7.38388 21.4777 7.33453C21.5207 7.28699 21.5535 7.23143 21.5742 7.17115C21.5949 7.11087 21.6031 7.04711 21.5982 6.98367L21.5066 5.75564L21.55 5.70349L28.2128 12.1518L22.871 17.9648Z" fill="#ABC7C1" stroke="#ABC7C1" stroke-width="0.25"/>
<path d="M9.36659 14.3486C9.51153 14.3486 9.65321 14.3063 9.77372 14.2272C9.89423 14.148 9.98815 14.0354 10.0436 13.9037C10.0991 13.772 10.1136 13.6271 10.0853 13.4873C10.057 13.3475 9.98725 13.2191 9.88477 13.1183C9.78228 13.0175 9.65171 12.9489 9.50956 12.9211C9.36741 12.8933 9.22006 12.9075 9.08616 12.9621C8.95226 13.0166 8.83781 13.109 8.75729 13.2275C8.67677 13.346 8.63379 13.4854 8.63379 13.6279C8.63379 13.8191 8.711 14.0024 8.84842 14.1375C8.98585 14.2727 9.17224 14.3486 9.36659 14.3486Z" fill="#ABC7C1" stroke="#ABC7C1" stroke-width="0.25"/>
<path d="M12.2827 12.4277C12.4278 12.4286 12.57 12.3872 12.6911 12.3086C12.8122 12.2299 12.9069 12.1177 12.9631 11.9861C13.0193 11.8545 13.0345 11.7094 13.0068 11.5693C12.9791 11.4292 12.9097 11.3004 12.8074 11.1991C12.7051 11.0978 12.5745 11.0287 12.4322 11.0005C12.29 10.9723 12.1424 10.9863 12.0082 11.0407C11.874 11.0951 11.7593 11.1875 11.6785 11.3061C11.5978 11.4247 11.5547 11.5643 11.5547 11.707C11.5547 11.8973 11.6312 12.0799 11.7676 12.2149C11.904 12.35 12.0892 12.4264 12.2827 12.4277Z" fill="#ABC7C1" stroke="#ABC7C1" stroke-width="0.25"/>
<path d="M12.2827 16.263C12.4267 16.263 12.5674 16.221 12.6871 16.1423C12.8068 16.0636 12.9001 15.9518 12.9552 15.821C13.0103 15.6902 13.0248 15.5462 12.9967 15.4073C12.9686 15.2685 12.8992 15.1409 12.7974 15.0408C12.6956 14.9406 12.5659 14.8724 12.4247 14.8448C12.2835 14.8172 12.1371 14.8314 12.0041 14.8856C11.8711 14.9397 11.7574 15.0315 11.6774 15.1492C11.5974 15.267 11.5547 15.4054 11.5547 15.547C11.5547 15.7369 11.6314 15.919 11.7679 16.0533C11.9044 16.1875 12.0896 16.263 12.2827 16.263Z" fill="#ABC7C1" stroke="#ABC7C1" stroke-width="0.25"/>
<path d="M9.36661 10.5068C9.51175 10.5068 9.65362 10.4644 9.77423 10.385C9.89484 10.3056 9.98876 10.1928 10.0441 10.0608C10.0994 9.92885 10.1136 9.7837 10.085 9.64377C10.0563 9.50384 9.98602 9.37544 9.88305 9.27484C9.78009 9.17424 9.64906 9.10597 9.50659 9.0787C9.36413 9.05143 9.21664 9.06639 9.08282 9.12166C8.94901 9.17694 8.83489 9.27005 8.75495 9.38919C8.67502 9.50832 8.63285 9.64813 8.6338 9.79086C8.63508 9.98118 8.71285 10.1633 8.85014 10.2974C8.98743 10.4315 9.17309 10.5068 9.36661 10.5068Z" fill="#ABC7C1" stroke="#ABC7C1" stroke-width="0.25"/>
<path d="M12.2827 8.5862C12.6847 8.5862 13.0107 8.26566 13.0107 7.87025C13.0107 7.47484 12.6847 7.1543 12.2827 7.1543C11.8806 7.1543 11.5547 7.47484 11.5547 7.87025C11.5547 8.26566 11.8806 8.5862 12.2827 8.5862Z" fill="#ABC7C1" stroke="#ABC7C1" stroke-width="0.25"/>
</svg>
