<svg width="33" height="33" viewBox="0 0 33 33" fill="none" xmlns="http://www.w3.org/2000/svg">
<path d="M19.3146 9.07207H22.5868C22.9292 9.07207 23.1005 9.07207 23.2616 9.11075C23.4044 9.14505 23.541 9.20161 23.6662 9.27837C23.8075 9.36495 23.9286 9.48602 24.1707 9.72815L29.8586 15.416C30.1007 15.6581 30.2218 15.7792 30.3083 15.9205C30.3851 16.0457 30.4417 16.1823 30.476 16.3251C30.5146 16.4863 30.5146 16.6575 30.5146 16.9999V20.9721C30.5146 21.6244 30.5146 21.9505 30.4081 22.2078C30.266 22.5509 29.9934 22.8234 29.6504 22.9655C29.3931 23.0721 29.067 23.0721 28.4146 23.0721M21.4146 23.0721H19.3146M19.3146 23.0721V9.35207C19.3146 7.78392 19.3146 6.99985 19.0095 6.4009C18.741 5.87404 18.3127 5.4457 17.7858 5.17725C17.1869 4.87207 16.4028 4.87207 14.8346 4.87207H6.99465C5.4265 4.87207 4.64243 4.87207 4.04347 5.17725C3.51662 5.4457 3.08828 5.87404 2.81983 6.4009C2.51465 6.99985 2.51465 7.78392 2.51465 9.35207V20.2721C2.51465 21.8185 3.76825 23.0721 5.31465 23.0721M19.3146 23.0721H13.7146M13.7146 23.0721C13.7146 25.3917 11.8342 27.2721 9.51465 27.2721C7.19505 27.2721 5.31465 25.3917 5.31465 23.0721M13.7146 23.0721C13.7146 20.7525 11.8342 18.8721 9.51465 18.8721C7.19505 18.8721 5.31465 20.7525 5.31465 23.0721M28.4146 23.7721C28.4146 25.7051 26.8476 27.2721 24.9146 27.2721C22.9817 27.2721 21.4146 25.7051 21.4146 23.7721C21.4146 21.8391 22.9817 20.2721 24.9146 20.2721C26.8476 20.2721 28.4146 21.8391 28.4146 23.7721Z" stroke="#ABC7C1" stroke-width="1.5" stroke-linecap="round" stroke-linejoin="round"/>
</svg>
