<svg width="32" height="33" viewBox="0 0 32 33" fill="none" xmlns="http://www.w3.org/2000/svg">
<path d="M27.6601 19.4729C27.6601 19.6184 27.6601 19.7244 27.6601 19.8316C27.6601 22.8293 27.6601 25.8281 27.6601 28.8258C27.6601 29.7543 27.2161 30.2005 26.2896 30.2005C21.5962 30.2005 16.9017 30.2005 12.2083 30.2005C11.3245 30.2005 10.8607 29.7357 10.8596 28.8532C10.8596 28.6913 10.8596 28.5294 10.8596 28.3774C10.3467 28.3282 9.85555 28.3118 9.37538 28.2309C6.97344 27.8273 5.05385 25.7417 4.83291 23.3138C4.80775 23.0327 4.79353 22.7506 4.79353 22.4684C4.79025 19.8983 4.78916 17.3282 4.79572 14.7593C4.79572 14.5646 4.7465 14.4585 4.5704 14.3535C3.50724 13.7214 2.96145 12.7721 2.93082 11.5395C2.91223 10.8013 2.92317 10.0631 2.93082 9.32489C2.93192 9.18053 2.89145 9.10506 2.75691 9.03398C2.2669 8.77369 1.99783 8.357 2.00001 7.79815C2.0022 7.25241 2.25705 6.83355 2.7405 6.58091C2.8991 6.49779 2.93301 6.40374 2.93192 6.24297C2.92535 5.3593 2.92098 4.47453 2.93192 3.59086C2.93957 2.87561 3.47006 2.29488 4.1657 2.20958C4.85916 2.12427 5.51324 2.57376 5.68387 3.26495C5.71996 3.4126 5.72434 3.57118 5.72434 3.72538C5.72872 4.50953 5.72653 5.29259 5.72653 6.07674C5.72653 6.17517 5.72653 6.2725 5.72653 6.38733H6.64312C6.64859 6.28781 6.65734 6.19157 6.65734 6.09533C6.65843 5.27509 6.65077 4.45485 6.66062 3.63461C6.66937 2.9292 7.09376 2.39878 7.74674 2.24129C8.35926 2.09365 9.01334 2.37144 9.28679 2.9467C9.39945 3.18402 9.45085 3.46947 9.45742 3.73522C9.4782 4.56421 9.46836 5.3932 9.46289 6.22329C9.46179 6.39171 9.49461 6.4967 9.66414 6.58529C10.1476 6.8412 10.397 7.26773 10.3937 7.81018C10.3904 8.3406 10.1432 8.76056 9.67289 9.01429C9.50992 9.10178 9.46179 9.19584 9.46179 9.37192C9.46507 10.1736 9.48914 10.9774 9.43992 11.7769C9.36991 12.9121 8.80224 13.7706 7.82878 14.3524C7.66143 14.4519 7.58814 14.5493 7.58814 14.7527C7.5958 17.3676 7.59033 19.9836 7.59471 22.5986C7.59689 24.0531 8.45333 25.1676 9.80743 25.4617C10.1388 25.5339 10.4867 25.5285 10.8454 25.5602V19.5407C10.6157 19.5943 10.3817 19.7113 10.1706 19.6796C9.95837 19.6479 9.72758 19.5068 9.57664 19.346C9.27913 19.0278 9.02975 18.6647 8.76396 18.318C8.39973 17.8423 8.45989 17.384 8.93678 17.0133C12.0716 14.5744 15.2074 12.1356 18.3444 9.69892C19.2194 9.01867 19.3168 9.02195 20.2027 9.71095C21.116 10.4207 22.0283 11.1305 22.9973 11.884C22.9973 11.615 22.9973 11.3952 22.9973 11.1754C22.9995 10.5148 23.3714 10.1375 24.0266 10.1353C24.5921 10.1331 25.1565 10.132 25.722 10.1353C26.3465 10.1386 26.7239 10.5137 26.726 11.1414C26.7304 12.2712 26.7315 13.402 26.7228 14.5318C26.7217 14.7144 26.7764 14.8314 26.9218 14.943C27.8111 15.6243 28.6949 16.3144 29.5775 17.0034C30.0807 17.3961 30.1332 17.8444 29.7416 18.3486C29.5185 18.6363 29.2931 18.9239 29.07 19.2115C28.6391 19.766 28.3306 19.8327 27.659 19.4751L27.6601 19.4729ZM19.2719 12.9132C19.2172 12.9503 19.1789 12.9733 19.1429 13.0018C16.7409 14.8686 14.339 16.7355 11.9425 18.61C11.8605 18.6745 11.7992 18.82 11.7992 18.9272C11.7915 22.2431 11.7926 25.5602 11.7937 28.8761C11.7937 29.1977 11.8615 29.2688 12.1722 29.2688C16.9017 29.2688 21.6301 29.2688 26.3596 29.2688C26.6659 29.2688 26.7239 29.2086 26.7239 28.8969C26.7239 25.5711 26.726 22.2464 26.7173 18.9206C26.7173 18.808 26.6418 18.6592 26.5532 18.587C25.9724 18.1168 25.3796 17.664 24.7901 17.2047C22.9569 15.7785 21.1237 14.3535 19.2719 12.9132ZM29.0197 17.7493C25.7548 15.2109 22.5139 12.6901 19.2632 10.1637C16.0048 12.6977 12.7606 15.2219 9.50773 17.7515C9.77243 18.0916 10.0131 18.3989 10.2603 18.7161C10.362 18.6406 10.4484 18.5783 10.5337 18.5116C13.2944 16.3658 16.0551 14.219 18.8158 12.0721C19.203 11.7714 19.3299 11.7725 19.7237 12.0787C22.2754 14.0626 24.8272 16.0476 27.3801 18.0326C27.6722 18.26 27.9653 18.4864 28.265 18.7183C28.5231 18.3869 28.7627 18.0785 29.0197 17.7471V17.7493ZM3.86929 9.21115C3.86929 10.0653 3.82553 10.8943 3.87913 11.7178C3.96116 12.97 4.99807 13.88 6.23842 13.8603C7.46564 13.8417 8.4577 12.9 8.51239 11.6609C8.5463 10.8801 8.52333 10.0959 8.52333 9.31286C8.52333 9.28005 8.50583 9.24833 8.49489 9.21115H3.86929ZM5.74184 14.7921C5.73528 14.8533 5.72762 14.8883 5.72762 14.9244C5.72762 17.5579 5.71997 20.1903 5.73309 22.8239C5.73747 23.7075 5.98904 24.5343 6.48671 25.2693C7.5247 26.8048 8.99693 27.4642 10.8432 27.4008V26.5368C10.3095 26.4559 9.78336 26.4329 9.29335 26.2896C7.70627 25.8248 6.66499 24.3714 6.66062 22.6664C6.65515 20.1521 6.65952 17.6367 6.65843 15.1223C6.65843 15.0163 6.65843 14.9091 6.65843 14.7921H5.74184ZM6.20232 7.33881C5.3087 7.33881 4.41618 7.33881 3.52256 7.33881C3.15177 7.33881 2.9352 7.50833 2.93192 7.79596C2.92863 8.0825 3.15177 8.26842 3.51162 8.26842C5.29777 8.26951 7.08391 8.26951 8.87006 8.26842C9.24304 8.26842 9.45304 8.1 9.45742 7.8069C9.46179 7.5127 9.25069 7.33881 8.88099 7.33881C7.98737 7.33772 7.09485 7.33881 6.20123 7.33881H6.20232ZM25.769 14.0385V11.0813H23.9303C23.9303 11.5669 23.9282 12.0361 23.9325 12.5063C23.9325 12.5544 23.9533 12.6201 23.9883 12.6485C24.5702 13.1078 25.1554 13.5617 25.7679 14.0385H25.769ZM4.78478 6.38952C4.78478 5.42273 4.79353 4.47125 4.77384 3.52087C4.77166 3.40822 4.63931 3.25839 4.52774 3.19387C4.21055 3.01013 3.866 3.26058 3.86382 3.67289C3.85835 4.51719 3.86163 5.36258 3.86382 6.20798C3.86382 6.26813 3.87913 6.32828 3.88788 6.39062H4.78588L4.78478 6.38952ZM8.5277 6.3939C8.5277 5.46648 8.53098 4.5664 8.52552 3.66632C8.52333 3.33823 8.3352 3.1359 8.06285 3.137C7.79049 3.137 7.60018 3.34151 7.59799 3.66742C7.59252 4.5325 7.5958 5.39758 7.59799 6.26266C7.59799 6.30531 7.61877 6.34796 7.6308 6.3939H8.5277Z" fill="#266F68" stroke="#266F68" stroke-width="0.5"/>
<path d="M16.6536 22.6023C16.3011 22.6023 15.981 22.5973 15.6598 22.6023C15.2348 22.6098 14.9023 22.456 14.7273 22.0561C14.5523 21.6561 14.6673 21.3087 14.9523 20.9962C16.2936 19.5264 17.6298 18.0541 18.9699 16.5843C19.3099 16.2106 19.6737 16.1131 20.0562 16.2756C20.4487 16.4419 20.6462 16.7931 20.5887 17.3005C20.4387 18.6241 20.2737 19.9451 20.1162 21.2674C20.1074 21.3387 20.1012 21.4099 20.0887 21.5299C20.4199 21.5299 20.7399 21.5337 21.0587 21.5299C21.4887 21.5237 21.845 21.6549 22.0225 22.0761C22.1962 22.486 22.08 22.8397 21.785 23.1622C20.4562 24.6145 19.1336 26.0718 17.8086 27.5278C17.4436 27.929 17.0711 28.0328 16.6736 27.8503C16.2711 27.6666 16.0961 27.2779 16.1623 26.7505C16.3223 25.4806 16.4773 24.2108 16.6336 22.9397C16.6461 22.8385 16.6461 22.7372 16.6548 22.601L16.6536 22.6023ZM17.2698 26.5317C18.4799 25.2019 19.6324 23.9358 20.8462 22.6023C20.3812 22.6023 19.9999 22.606 19.6187 22.6023C19.1099 22.596 18.9086 22.3835 18.9636 21.8861C19.0474 21.1312 19.1461 20.3776 19.2386 19.6239C19.3161 18.989 19.3911 18.3528 19.4674 17.7179C19.4474 17.7092 19.4274 17.7004 19.4086 17.6917C18.2611 18.9528 17.1136 20.2138 15.9123 21.5337C16.3961 21.5337 16.7898 21.5262 17.1836 21.5362C17.6311 21.5462 17.8336 21.7749 17.7874 22.2123C17.7349 22.7085 17.6711 23.2047 17.6123 23.6996C17.5023 24.6145 17.3923 25.5294 17.2723 26.5342L17.2698 26.5317Z" fill="#266F68" stroke="#266F68" stroke-width="0.5"/>
</svg>
