<svg width="33" height="33" viewBox="0 0 33 33" fill="none" xmlns="http://www.w3.org/2000/svg">
<path d="M28.1748 19.345C28.1748 19.4904 28.1748 19.5965 28.1748 19.7037C28.1748 22.7014 28.1748 25.7002 28.1748 28.6979C28.1748 29.6264 27.7307 30.0726 26.8043 30.0726C22.1109 30.0726 17.4163 30.0726 12.7229 30.0726C11.8392 30.0726 11.3754 29.6078 11.3743 28.7252C11.3743 28.5634 11.3743 28.4015 11.3743 28.2495C10.8613 28.2003 10.3702 28.1839 9.89003 28.1029C7.48809 27.6994 5.5685 25.6138 5.34756 23.1859C5.3224 22.9048 5.30818 22.6227 5.30818 22.3405C5.3049 19.7704 5.3038 17.2003 5.31037 14.6313C5.31037 14.4367 5.26115 14.3306 5.08505 14.2256C4.02189 13.5934 3.4761 12.6442 3.44547 11.4116C3.42688 10.6734 3.43781 9.93517 3.44547 9.19696C3.44656 9.0526 3.40609 8.97713 3.27156 8.90605C2.78154 8.64576 2.51247 8.22907 2.51466 7.67022C2.51685 7.12448 2.7717 6.70562 3.25515 6.45298C3.41375 6.36986 3.44766 6.27581 3.44656 6.11504C3.44 5.23137 3.43563 4.3466 3.44656 3.46293C3.45422 2.74768 3.9847 2.16695 4.68035 2.08165C5.37381 1.99634 6.02789 2.44583 6.19852 3.13702C6.23461 3.28467 6.23899 3.44325 6.23899 3.59745C6.24336 4.3816 6.24118 5.16466 6.24118 5.94881C6.24118 6.04724 6.24118 6.14457 6.24118 6.2594H7.15777C7.16323 6.15988 7.17198 6.06364 7.17198 5.9674C7.17308 5.14716 7.16542 4.32692 7.17527 3.50668C7.18402 2.80127 7.6084 2.27085 8.26139 2.11336C8.87391 1.96572 9.52799 2.24351 9.80144 2.81877C9.9141 3.05609 9.9655 3.34154 9.97207 3.60729C9.99285 4.43628 9.983 5.26527 9.97753 6.09536C9.97644 6.26378 10.0093 6.36877 10.1788 6.45736C10.6622 6.71327 10.9116 7.1398 10.9083 7.68225C10.9051 8.21267 10.6579 8.63263 10.1875 8.88636C10.0246 8.97385 9.97644 9.06791 9.97644 9.24399C9.97972 10.0456 10.0038 10.8495 9.95457 11.6489C9.88456 12.7841 9.31689 13.6427 8.34342 14.2245C8.17608 14.324 8.10279 14.4213 8.10279 14.6248C8.11045 17.2397 8.10498 19.8557 8.10936 22.4706C8.11154 23.9252 8.96797 25.0396 10.3221 25.3338C10.6535 25.406 11.0013 25.4005 11.3601 25.4322V19.4128C11.1304 19.4664 10.8963 19.5834 10.6852 19.5517C10.473 19.52 10.2422 19.3789 10.0913 19.2181C9.79378 18.8999 9.5444 18.5368 9.27861 18.1901C8.91438 17.7143 8.97454 17.2561 9.45143 16.8853C12.5862 14.4465 15.7221 12.0076 18.859 9.57099C19.7341 8.89074 19.8314 8.89402 20.7174 9.58302C21.6307 10.2928 22.5429 11.0026 23.512 11.7561C23.512 11.4871 23.512 11.2672 23.512 11.0474C23.5142 10.3869 23.8861 10.0095 24.5412 10.0074C25.1067 10.0052 25.6711 10.0041 26.2366 10.0074C26.8612 10.0106 27.2385 10.3858 27.2407 11.0135C27.2451 12.1433 27.2462 13.2741 27.2374 14.4038C27.2363 14.5865 27.291 14.7035 27.4365 14.8151C28.3257 15.4964 29.2095 16.1865 30.0922 16.8755C30.5953 17.2681 30.6478 17.7165 30.2562 18.2207C30.0331 18.5083 29.8078 18.796 29.5847 19.0836C29.1537 19.6381 28.8453 19.7048 28.1737 19.3472L28.1748 19.345ZM19.7866 12.7852C19.7319 12.8224 19.6936 12.8454 19.6575 12.8738C17.2556 14.7407 14.8536 16.6076 12.4571 18.4821C12.3751 18.5466 12.3139 18.6921 12.3139 18.7992C12.3062 22.1152 12.3073 25.4322 12.3084 28.7482C12.3084 29.0697 12.3762 29.1408 12.6868 29.1408C17.4163 29.1408 22.1448 29.1408 26.8743 29.1408C27.1805 29.1408 27.2385 29.0807 27.2385 28.769C27.2385 25.4432 27.2407 22.1185 27.2319 18.7927C27.2319 18.68 27.1565 18.5313 27.0679 18.4591C26.4871 17.9888 25.8942 17.5361 25.3047 17.0767C23.4715 15.6506 21.6383 14.2256 19.7866 12.7852ZM29.5344 17.6214C26.2694 15.083 23.0285 12.5621 19.7778 10.0358C16.5194 12.5698 13.2753 15.0939 10.0224 17.6236C10.2871 17.9637 10.5277 18.271 10.7749 18.5882C10.8766 18.5127 10.963 18.4504 11.0483 18.3836C13.8091 16.2379 16.5698 14.0911 19.3305 11.9442C19.7177 11.6435 19.8445 11.6446 20.2383 11.9508C22.7901 13.9347 25.3419 15.9196 27.8948 17.9046C28.1868 18.1321 28.4799 18.3585 28.7796 18.5903C29.0378 18.259 29.2773 17.9506 29.5344 17.6192V17.6214ZM4.38393 9.08322C4.38393 9.93736 4.34018 10.7664 4.39378 11.5899C4.47581 12.8421 5.51272 13.752 6.75307 13.7323C7.98029 13.7137 8.97235 12.7721 9.02704 11.533C9.06095 10.7521 9.03798 9.96798 9.03798 9.18493C9.03798 9.15212 9.02048 9.1204 9.00954 9.08322H4.38393ZM6.25649 14.6641C6.24993 14.7254 6.24227 14.7604 6.24227 14.7965C6.24227 17.43 6.23461 20.0624 6.24774 22.6959C6.25211 23.5796 6.50368 24.4064 7.00135 25.1413C8.03935 26.6768 9.51158 27.3363 11.3579 27.2729V26.4089C10.8241 26.3279 10.298 26.305 9.808 26.1617C8.22092 25.6969 7.17964 24.2434 7.17527 22.5384C7.1698 20.0241 7.17417 17.5087 7.17308 14.9944C7.17308 14.8883 7.17308 14.7812 7.17308 14.6641H6.25649ZM6.71697 7.21088C5.82335 7.21088 4.93083 7.21088 4.03721 7.21088C3.66641 7.21088 3.44985 7.3804 3.44656 7.66803C3.44328 7.95457 3.66641 8.14049 4.02627 8.14049C5.81241 8.14158 7.59856 8.14158 9.38471 8.14049C9.75768 8.14049 9.96769 7.97207 9.97207 7.67897C9.97644 7.38477 9.76534 7.21088 9.39564 7.21088C8.50202 7.20979 7.6095 7.21088 6.71588 7.21088H6.71697ZM26.2836 13.9106V10.9534H24.445C24.445 11.4389 24.4428 11.9081 24.4472 12.3784C24.4472 12.4265 24.468 12.4921 24.503 12.5206C25.0848 12.9799 25.67 13.4338 26.2825 13.9106H26.2836ZM5.29943 6.26159C5.29943 5.2948 5.30818 4.34332 5.28849 3.39294C5.2863 3.28029 5.15396 3.13046 5.04239 3.06594C4.72519 2.8822 4.38065 3.13265 4.37847 3.54496C4.373 4.38926 4.37628 5.23465 4.37847 6.08005C4.37847 6.1402 4.39378 6.20035 4.40253 6.26269H5.30052L5.29943 6.26159ZM9.04235 6.26597C9.04235 5.33855 9.04563 4.43847 9.04016 3.53839C9.03798 3.2103 8.84985 3.00797 8.57749 3.00907C8.30514 3.00907 8.11482 3.21358 8.11264 3.53949C8.10717 4.40457 8.11045 5.26965 8.11264 6.13473C8.11264 6.17738 8.13342 6.22003 8.14545 6.26597H9.04235Z" fill="#ABC7C1" stroke="#ABC7C1" stroke-width="0.5"/>
<path d="M17.1683 22.4746C16.8158 22.4746 16.4958 22.4696 16.1746 22.4746C15.7495 22.4821 15.417 22.3284 15.242 21.9284C15.067 21.5285 15.182 21.181 15.467 20.8685C16.8083 19.3987 18.1446 17.9264 19.4847 16.4566C19.8247 16.0829 20.1884 15.9855 20.5709 16.1479C20.9634 16.3142 21.161 16.6654 21.1035 17.1728C20.9535 18.4964 20.7884 19.8174 20.6309 21.1398C20.6222 21.211 20.6159 21.2822 20.6034 21.4022C20.9347 21.4022 21.2547 21.406 21.5735 21.4022C22.0035 21.396 22.3597 21.5272 22.5372 21.9484C22.711 22.3583 22.5947 22.712 22.2997 23.0345C20.971 24.4868 19.6484 25.9441 18.3234 27.4002C17.9584 27.8014 17.5859 27.9051 17.1883 27.7226C16.7858 27.5389 16.6108 27.1502 16.6771 26.6228C16.8371 25.3529 16.9921 24.0831 17.1483 22.812C17.1608 22.7108 17.1608 22.6096 17.1696 22.4733L17.1683 22.4746ZM17.7846 26.404C18.9946 25.0742 20.1472 23.8081 21.361 22.4746C20.8959 22.4746 20.5147 22.4783 20.1334 22.4746C19.6247 22.4683 19.4234 22.2559 19.4784 21.7584C19.5622 21.0035 19.6609 20.2499 19.7534 19.4962C19.8309 18.8613 19.9059 18.2252 19.9822 17.5902C19.9622 17.5815 19.9422 17.5727 19.9234 17.564C18.7759 18.8251 17.6284 20.0862 16.4271 21.406C16.9108 21.406 17.3046 21.3985 17.6984 21.4085C18.1459 21.4185 18.3484 21.6472 18.3021 22.0846C18.2496 22.5808 18.1859 23.077 18.1271 23.5719C18.0171 24.4868 17.9071 25.4017 17.7871 26.4065L17.7846 26.404Z" fill="#ABC7C1" stroke="#ABC7C1" stroke-width="0.5"/>
</svg>
