<svg viewBox="0 0 272 239" fill="none" xmlns="http://www.w3.org/2000/svg">
<path d="M235.647 118.298C245.583 145.602 263.584 193.28 245.84 211.385C222.863 234.819 179.735 238.841 133.601 238.841C76.7144 239.597 26.7674 230.919 17.8954 226.187C-1.03389 216.08 8.07961 155.634 34.8313 109.937C59.4236 64.3531 75.1892 78.89 125.922 41.6973C166.695 11.8147 218.409 70.9147 235.647 118.298Z" fill="#E6F5EB"/>
<path d="M74.3565 196.008C66.3907 143.19 54.5439 4.66991 26.2896 4.41288C-5.9967 4.11051 21.3363 92.3297 74.3565 196.008Z" fill="#DCF2E2"/>
<path d="M74.3585 196.008C51.7068 178.916 2.8168 144.747 12.3758 139.516C30.014 129.878 49.653 153.872 74.3585 196.008Z" fill="#DCF2E2"/>
<path d="M74.5764 196.583C77.9138 168.302 97.8398 114.184 84.5054 112.733C68.2113 110.979 57.7311 151.445 74.5764 196.583Z" fill="#D2EAD7"/>
<path d="M76.7674 140.643C70.3872 157.273 72.3578 173.655 74.3587 196.023" stroke="white"/>
<path d="M73.504 191.805C41.1498 161.937 -10.1942 95.9807 1.77348 82.8272C17.1314 66.0451 50.8674 117.026 73.504 191.805Z" fill="#D2EAD7"/>
<path d="M19.9551 108.711C40.251 128.366 56.6509 159.7 74.6062 195.418" stroke="white"/>
<path d="M74.7492 196.105C60.3276 195.493 30.314 201.805 34.3007 191.766C37.1926 184.501 57.4508 171.975 74.7492 196.105Z" fill="#D2EAD7"/>
<path d="M50.7383 188.389C61.9962 187.981 66.9267 190.815 74.1903 194.436" stroke="white"/>
<path d="M28.7673 40.4727C25.9358 61.4502 55.8739 139.207 74.1992 195.608" stroke="white"/>
<path d="M229.326 120.805C255.858 83.3025 281.039 42.4057 267.026 31.5352C253.012 20.6646 236.914 37.7415 221.896 71.4493C223.406 51.8929 219.404 40.3344 209.279 41.5288C199.463 42.693 193.777 69.0529 191.527 99.7368C190.372 97.587 188.759 95.718 186.802 94.2626C184.844 92.8072 182.591 91.8011 180.201 91.3156C171.949 89.5391 178.88 123.821 185.207 152.321C178.412 143.642 167.086 142.886 162.654 145.207C153.155 150.144 179.469 164.824 190.161 174.689C190.093 174.855 190.032 175.014 189.972 175.173L190.334 174.855L190.417 174.931C190.417 174.878 190.417 174.825 190.417 174.765C211.68 155.579 261.31 128.017 252.242 118.25C247.666 113.329 239.036 114.508 229.326 120.805ZM190.583 172.966L190.629 172.368C191.029 170.101 191.384 167.893 191.792 165.724C191.837 166.17 191.875 166.616 191.92 167.062C191.467 169.057 191.029 171.03 190.583 173.011V172.966Z" stroke="#92BDB6" stroke-miterlimit="10"/>
<path d="M228.207 134.361C212.502 142.79 203.29 156.45 190.213 174.684" stroke="#92BDB6" stroke-miterlimit="10"/>
<path d="M206.063 73.0234C208.6 101.16 200.513 135.631 190.766 174.404" stroke="#92BDB6" stroke-miterlimit="10"/>
<path d="M177.369 153.439C186.15 160.5 188.023 165.875 191.172 173.359" stroke="#92BDB6" stroke-miterlimit="10"/>
<path d="M247.454 54.5859C232.746 65.4489 209.701 129.727 190.334 174.343" stroke="#92BDB6" stroke-miterlimit="10"/>
<path d="M204.748 191.457C220.098 179.362 241.746 173.904 235.909 167.947C230.873 162.845 211.423 172.317 204.748 191.457Z" fill="#DCF2E2"/>
<path d="M204.74 191.738C190.938 180.361 158.591 168.153 173.217 161.954C187.548 155.884 204.295 170.005 204.74 191.738Z" fill="#D2EAD7"/>
<path d="M181.748 168.529C194.169 174.516 198.359 181.721 204.747 191.465" stroke="white"/>
<path d="M204.008 189.553C224.349 171.75 249.704 135.684 233.115 132.101C211.944 127.482 198.126 154.394 204.008 189.553Z" fill="#D2EAD7"/>
<path d="M225.127 145.918C212.691 157.454 208.432 173.314 204.287 191.275" stroke="white"/>
<path d="M204.236 191.518C217.759 192.637 245.765 201.398 242.216 192.425C239.664 185.931 220.946 172.967 204.236 191.518Z" fill="#D2EAD7"/>
<path d="M226.894 187.692C216.323 186.074 211.679 187.919 204.801 190.156" stroke="white"/>
<path d="M135.419 22.148C118.717 26.6837 65.5306 46.7466 53.1174 65.7965C40.7043 84.8464 49.6593 90.7428 61.7629 91.083C73.8665 91.4232 127.506 89.6996 171.095 66.8321C214.685 43.9647 192.199 31.8468 181.13 27.0012C170.061 22.1556 144.419 19.7214 135.419 22.148Z" fill="#92BDB6"/>
<path d="M157.822 37.826C149.351 22.4954 133.661 5.17659 129.885 3.09773C126.11 1.01887 117.434 -3.48655 103.594 4.82888C89.754 13.1443 80.7612 26.6531 80.4138 34.9685C80.0665 43.284 91.7397 59.0379 91.7397 59.0379C111.469 46.8369 126.948 42.0669 157.822 37.826Z" fill="#92BDB6"/>
<path d="M98.0133 8.63867C102.302 8.8579 105.028 10.9065 104.258 14.8752C102.906 21.8905 95.952 29.0795 84.5355 29.0795C83.5842 29.0795 82.663 29.0795 81.7871 28.9888C84.2864 22.533 90.0323 14.8072 98.0133 8.63867Z" fill="#58A99F"/>
<path d="M168.642 120.61C170.031 113.685 170.952 108.136 167.026 104.674C163.1 101.212 155.036 96.593 161.492 85.972C167.947 75.3509 173.029 70.2709 167.026 52.7102C161.023 35.1495 139.58 29.1549 129.892 28.9281C120.205 28.7013 102.71 34.696 98.7538 40.7058C94.7973 46.7155 84.687 56.1725 88.1452 73.2645C91.6034 90.3565 97.8327 95.4289 92.064 103.049C86.2954 110.669 83.1014 125.999 90.3122 127.156C96.9341 128.222 167.26 127.542 168.642 120.61Z" fill="#BC5806"/>
<path d="M124.356 115.515C125.625 125.637 128.048 127.988 125.277 134.678C122.506 141.369 118.588 143.916 98.0953 151.075C77.603 158.234 62.3433 179.483 62.1092 184.563C61.8751 189.643 84.9421 228.204 131.575 225.203C178.207 222.202 206.771 186.869 207.692 176.021C208.613 165.173 176.093 151.536 166.405 151.075C156.718 150.614 140.341 144.377 139.88 136.069C139.42 127.761 139.42 115.054 139.42 115.054C139.42 115.054 124.13 113.686 124.356 115.515Z" fill="#F9D568"/>
<path d="M124.916 135.524C129.581 132.888 134.473 130.677 139.534 128.917C139.413 124.382 139.375 119.891 139.36 117.299L132.255 119.748L124.455 116.24C125.739 125.75 127.981 128.162 125.278 134.693C125.165 134.98 125.044 135.26 124.916 135.524Z" fill="#F7CD57"/>
<path d="M105.677 89.8969C105.677 93.5935 117.902 125.23 132.859 125.691C147.817 126.152 157.542 93.1324 158.237 84.3558C158.931 75.5793 161.461 54.1179 145.318 45.5605C137.933 55.4937 127.755 67.6342 111.876 75.5792C106.394 78.3536 103.261 79.548 105.677 89.8969Z" fill="#F9D568"/>
<path d="M197.001 163.14C203.359 167.23 207.972 171.819 207.617 175.991C206.696 186.839 178.094 222.172 131.5 225.173C84.9051 228.175 61.8456 189.644 62.0344 184.534C62.1854 181.17 68.9054 170.738 79.4007 161.984C77.6339 161.273 199.387 162.581 197.001 163.14Z" fill="#4E4E4F"/>
<path d="M129.49 103.986C132.945 104.277 136.421 104.219 139.865 103.812C138.861 110.049 131.219 109.875 129.49 103.986Z" fill="white"/>
<path d="M176.002 153.312C172.884 152.166 169.638 151.405 166.337 151.044H165.695C167.024 164.311 170.663 197.671 170.663 200.271C165.99 203.046 114.789 205.986 100.254 202.002C100.111 197.913 99.7408 163.252 99.6124 150.545L98.1023 151.082C95.1698 152.119 92.3348 153.414 89.6306 154.952L88.7773 214.838C99.6804 221.536 113.928 226.344 131.544 225.21C149.774 224.003 167.3 217.701 182.133 207.022C179.973 196.809 177.074 177.631 176.002 153.312Z" fill="#92BDB6"/>
<path d="M83.8855 66.5528C94.6299 65.4718 135.433 33.9337 160.901 38.5828C181.039 42.2642 150.776 26.6463 141.61 26.9336C132.443 27.2209 108.878 28.3926 100.444 33.9261C92.0099 39.4597 75.157 67.4222 83.8855 66.5528Z" fill="#92BDB6"/>
</svg>
