<svg width="24" height="24" viewBox="0 0 24 24" fill="none" xmlns="http://www.w3.org/2000/svg">
<path fill-rule="evenodd" clip-rule="evenodd" d="M12 22.5C14.7848 22.5 17.4555 21.3938 19.4246 19.4246C21.3938 17.4555 22.5 14.7848 22.5 12C22.5 9.21523 21.3938 6.54451 19.4246 4.57538C17.4555 2.60625 14.7848 1.5 12 1.5C9.21523 1.5 6.54451 2.60625 4.57538 4.57538C2.60625 6.54451 1.5 9.21523 1.5 12C1.5 14.7848 2.60625 17.4555 4.57538 19.4246C6.54451 21.3938 9.21523 22.5 12 22.5ZM12 24C15.1826 24 18.2348 22.7357 20.4853 20.4853C22.7357 18.2348 24 15.1826 24 12C24 8.8174 22.7357 5.76516 20.4853 3.51472C18.2348 1.26428 15.1826 0 12 0C8.8174 0 5.76516 1.26428 3.51472 3.51472C1.26428 5.76516 0 8.8174 0 12C0 15.1826 1.26428 18.2348 3.51472 20.4853C5.76516 22.7357 8.8174 24 12 24Z" fill="#282B36"/>
<path d="M7.875 9.0495H9.855C9.855 7.878 10.542 6.9735 11.895 6.9735C12.9225 6.9735 13.8645 7.488 13.8645 8.7255C13.8645 9.678 13.3035 10.116 12.417 10.782C11.4075 11.5155 10.608 12.372 10.665 13.7625L10.6755 14.457H12.636V13.9245C12.636 12.8475 13.0455 12.534 14.151 11.6955C15.0645 11.001 16.017 10.23 16.017 8.6115C16.017 6.345 14.103 5.25 12.0075 5.25C10.0185 5.25 7.8285 6.2205 7.8765 9.0495H7.875ZM10.218 17.3235C10.218 18.123 10.8555 18.714 11.733 18.714C12.6465 18.714 13.275 18.123 13.275 17.3235C13.275 16.4955 12.645 15.9135 11.7315 15.9135C10.8555 15.9135 10.218 16.4955 10.218 17.3235Z" fill="#282B36"/>
</svg>
