<svg width="24" height="27" viewBox="0 0 24 27" fill="none" xmlns="http://www.w3.org/2000/svg">
<path d="M4.47335 25.5619V23.6189C4.47335 23.141 4.34751 22.902 4.09583 22.902C3.9128 22.902 3.78176 22.9878 3.70272 23.1595C3.62368 23.3292 3.58416 23.6023 3.58416 23.9788V25.5619H2.748V23.6189C2.748 23.141 2.62008 22.902 2.36424 22.902C2.18536 22.902 2.05536 22.9869 1.97424 23.1566C1.89312 23.3263 1.85256 23.6062 1.85256 23.9964V25.5619H1.02264V22.3021H1.68096L1.7808 22.7206H1.83384C1.91704 22.5548 2.0304 22.4338 2.17392 22.3577C2.31952 22.2797 2.47448 22.2407 2.6388 22.2407C3.06312 22.2407 3.346 22.4289 3.48744 22.8054H3.51864C3.69544 22.4289 3.97935 22.2407 4.37039 22.2407C4.67823 22.2407 4.91119 22.3421 5.06927 22.545C5.22943 22.7479 5.30951 23.0444 5.30951 23.4346V25.5619H4.47335Z" fill="#028577"/>
<path d="M5.63087 22.3021H6.49199L6.97247 24.1427C7.02031 24.3066 7.05879 24.5358 7.0879 24.8304H7.10663C7.10871 24.7835 7.11806 24.7006 7.13471 24.5816C7.15134 24.4607 7.16487 24.3661 7.17526 24.2978C7.18566 24.2295 7.32918 23.5643 7.60582 22.3021H8.47942L7.48414 25.796C7.3635 26.2252 7.20334 26.5334 7.00367 26.7207C6.80399 26.908 6.53775 27.0016 6.20495 27.0016C6.04063 27.0016 5.89399 26.985 5.76503 26.9518V26.2993C5.85031 26.3227 5.94599 26.3344 6.05207 26.3344C6.33079 26.3344 6.51383 26.1627 6.60119 25.8194L6.66047 25.6146L5.63087 22.3021Z" fill="#028577"/>
<path d="M11.9582 22.9196H11.3841V25.5619H10.5542V22.9196H10.1517V22.5304L10.5542 22.2963V22.0505C10.5542 21.6876 10.6343 21.4184 10.7945 21.2428C10.9546 21.0653 11.2125 20.9766 11.5682 20.9766C11.7929 20.9766 12.0019 21.0205 12.1953 21.1082L11.9769 21.7023C11.8729 21.6554 11.7669 21.632 11.6587 21.632C11.563 21.632 11.4933 21.6671 11.4497 21.7374C11.406 21.8076 11.3841 21.9159 11.3841 22.0622V22.3021H11.9582V22.9196Z" fill="#028577"/>
<path d="M14.0268 25.5619L13.8614 25.1171H13.8427C13.72 25.3083 13.5931 25.44 13.462 25.5122C13.331 25.5843 13.1656 25.6204 12.966 25.6204C12.7101 25.6204 12.5084 25.5307 12.3607 25.3512C12.2151 25.1717 12.1423 24.922 12.1423 24.6021C12.1423 24.2588 12.2421 24.0042 12.4418 23.8384C12.6436 23.6706 12.9441 23.5779 13.3435 23.5604L13.8052 23.5428V23.3087C13.8052 23.0044 13.6648 22.8523 13.384 22.8523C13.176 22.8523 12.9368 22.9283 12.6664 23.0805L12.3794 22.5421C12.7247 22.3372 13.1001 22.2348 13.5057 22.2348C13.8739 22.2348 14.1536 22.3343 14.345 22.5333C14.5384 22.7303 14.6352 23.0103 14.6352 23.3731V25.5619H14.0268ZM13.306 25.0118C13.4579 25.0118 13.5785 24.9484 13.668 24.8216C13.7595 24.6928 13.8052 24.5221 13.8052 24.3095V24.0344L13.5494 24.0461C13.3601 24.0559 13.2208 24.1066 13.1313 24.1983C13.044 24.29 13.0003 24.4265 13.0003 24.608C13.0003 24.8772 13.1022 25.0118 13.306 25.0118Z" fill="#028577"/>
<path d="M16.788 22.2407C16.8899 22.2407 16.9897 22.2553 17.0875 22.2846L16.9908 23.0395C16.9325 23.02 16.8566 23.0103 16.763 23.0103C16.5612 23.0103 16.4063 23.0854 16.2981 23.2356C16.19 23.3838 16.1359 23.6004 16.1359 23.8852V25.5619H15.306V22.3021H15.9892L16.0828 22.8113H16.1109C16.2024 22.6065 16.3023 22.4601 16.4104 22.3724C16.5186 22.2846 16.6444 22.2407 16.788 22.2407Z" fill="#028577"/>
<path d="M20.9095 25.5619V23.6189C20.9095 23.141 20.7836 22.902 20.5319 22.902C20.3489 22.902 20.2179 22.9878 20.1388 23.1595C20.0598 23.3292 20.0203 23.6023 20.0203 23.9788V25.5619H19.1841V23.6189C19.1841 23.141 19.0562 22.902 18.8003 22.902C18.6215 22.902 18.4915 22.9869 18.4103 23.1566C18.3292 23.3263 18.2887 23.6062 18.2887 23.9964V25.5619H17.4588V22.3021H18.1171L18.2169 22.7206H18.27C18.3531 22.5548 18.4665 22.4338 18.61 22.3577C18.7556 22.2797 18.9106 22.2407 19.0749 22.2407C19.4992 22.2407 19.7821 22.4289 19.9235 22.8054H19.9547C20.1315 22.4289 20.4155 22.2407 20.8065 22.2407C21.1143 22.2407 21.3473 22.3421 21.5054 22.545C21.6655 22.7479 21.7456 23.0444 21.7456 23.4346V25.5619H20.9095Z" fill="#028577"/>
<path fill-rule="evenodd" clip-rule="evenodd" d="M21.7513 0.21338C21.8763 0.218198 21.9988 0.222924 22.1187 0.227339L23.6666 0.284327L22.3449 1.09191C21.92 1.3515 21.6769 1.75337 21.5271 2.31604C21.381 2.86459 21.337 3.51048 21.2866 4.25052C21.2837 4.29353 21.2807 4.33686 21.2777 4.38051C21.1726 5.91252 21.0236 7.78737 19.57 9.15592C18.6036 10.0658 17.2538 10.3418 15.9835 10.3226C14.9305 10.3066 13.8793 10.0879 13.033 9.80645C12.8288 10.8083 12.7147 12.0042 12.6849 13.4833C12.6716 14.1449 12.6633 14.6648 12.6768 15.3415C13.5248 15.2226 14.4213 15.2049 15.3183 15.2947C17.6213 15.5252 20.0087 16.4716 21.6708 18.3423L20.9731 18.9622C19.5029 17.3076 17.3559 16.4366 15.2254 16.2234C13.5458 16.0553 11.9266 16.3005 10.7052 16.8485C11.5347 17.1347 12.3829 17.5249 13.2454 18.0304L12.7735 18.8356C11.6077 18.1523 10.4839 17.701 9.41368 17.4402C6.00526 16.6094 3.06904 17.6964 0.960596 19.5419L0.345886 18.8395C2.60471 16.8625 5.7688 15.6645 9.42914 16.4853C10.0831 16.0522 10.8761 15.7268 11.7471 15.5172C11.7292 14.771 11.7367 14.2217 11.7502 13.539C11.5073 12.7536 11.2304 12.1797 10.848 11.7325C10.6041 12.0974 10.2613 12.5107 9.786 12.859C9.04082 13.4051 8.00158 13.768 6.58721 13.5865C5.22603 13.4118 4.37657 12.5714 3.66996 11.8572L3.64853 11.8356C2.91955 11.0987 2.36064 10.5337 1.52016 10.4258L0.458508 10.2896L1.28086 9.60443C1.3528 9.54449 1.44581 9.45437 1.56096 9.3428C2.25578 8.66957 3.75692 7.21505 6.30309 6.89396C8.21496 6.65286 9.42186 7.22273 10.1613 8.14467C10.8158 8.96058 11.052 9.9938 11.1812 10.7406C11.4401 10.9731 11.6605 11.23 11.8519 11.5136C11.9231 10.7095 12.0308 9.99111 12.1789 9.33984C11.4721 8.63876 10.7941 7.61156 10.5952 6.42807C10.3713 5.09492 10.7679 3.62797 12.2632 2.30272C13.6733 1.05308 15.4498 0.516425 17.1976 0.298381C18.7934 0.0992943 20.4096 0.161629 21.7513 0.21338ZM13.2582 8.89742C13.7771 7.1477 14.6661 6.00641 16.0505 4.81777L15.4425 4.10964C14.0457 5.30891 13.0702 6.51517 12.4751 8.27942C12.0205 7.72314 11.6419 7.02477 11.5157 6.27344C11.3483 5.27689 11.6127 4.12634 12.8823 3.00122C14.0964 1.92517 15.6632 1.43037 17.3131 1.22454C18.5743 1.06721 19.853 1.08164 21.0253 1.12078C20.8415 1.41413 20.715 1.7386 20.6252 2.07588C20.4549 2.71545 20.4053 3.44831 20.3574 4.15751C20.3538 4.21069 20.3502 4.26373 20.3466 4.3166C20.2386 5.88954 20.0836 7.39054 18.9303 8.47637C18.2151 9.14963 17.152 9.40681 15.9977 9.38933C15.0219 9.37455 14.0355 9.16334 13.2582 8.89742ZM10.0588 10.0011C9.92531 9.54819 9.73243 9.10164 9.43325 8.72864C8.93049 8.10182 8.06711 7.61223 6.41987 7.81996C4.46091 8.067 3.25314 9.04223 2.49907 9.74324C3.21056 10.0614 3.75128 10.6101 4.234 11.1C4.26742 11.1339 4.30055 11.1675 4.33345 11.2008C5.0493 11.9243 5.69654 12.5312 6.70603 12.6608C7.8837 12.8119 8.68277 12.5104 9.2343 12.1062C9.64298 11.8067 9.93259 11.4382 10.137 11.1135C9.4688 10.6773 8.51512 10.3525 7.05682 10.0621L7.23914 9.14674C8.39591 9.37714 9.31764 9.64101 10.0588 10.0011Z" fill="#028577"/>
</svg>
