<svg width="24" height="24" viewBox="0 0 24 24" fill="none" xmlns="http://www.w3.org/2000/svg">
    <path d="M22.0015 12.7255H15.3265C17.0177 12.0617 17.494 10.7192 17.749 7.70424C17.7528 7.64853 17.7448 7.59264 17.7254 7.54027C17.706 7.4879 17.6757 7.44025 17.6365 7.40049C17.5965 7.36224 17.5485 7.33333 17.496 7.31582C17.4434 7.29832 17.3877 7.29265 17.3327 7.29924L17.0665 7.32924C14.3552 7.64049 13.1365 8.03049 12.484 9.403V8.18424L12.5702 8.0755C15.1952 4.78674 15.1952 3.87549 12.5702 0.575494L12.4052 0.372994C12.3707 0.329289 12.3269 0.293823 12.2769 0.269174C12.227 0.244525 12.1722 0.231312 12.1165 0.230494C12.0608 0.229849 12.0056 0.241631 11.955 0.264984C11.9044 0.288337 11.8596 0.322672 11.824 0.365494C9.00023 3.69924 9.00024 4.89924 11.734 8.18424V9.418C11.0815 8.0305 9.85898 7.64049 7.14398 7.32924L6.87773 7.29924C6.82277 7.29265 6.76703 7.29832 6.71451 7.31582C6.66199 7.33333 6.614 7.36224 6.57399 7.40049C6.53424 7.43909 6.50353 7.486 6.48408 7.53788C6.46463 7.58975 6.45691 7.64528 6.46148 7.7005C6.71648 10.7192 7.18898 12.0617 8.88398 12.7255H2.20898C2.10953 12.7255 2.01415 12.765 1.94382 12.8353C1.87349 12.9057 1.83398 13.001 1.83398 13.1005V17.4655C1.83398 17.565 1.87349 17.6603 1.94382 17.7307C2.01415 17.801 2.10953 17.8405 2.20898 17.8405H3.82148L5.20148 23.2142C5.22274 23.2968 5.27146 23.3696 5.33963 23.4207C5.40779 23.4718 5.49132 23.4982 5.57648 23.4955H18.6452C18.7304 23.4982 18.8139 23.4718 18.8821 23.4207C18.9503 23.3696 18.999 23.2968 19.0202 23.2142L20.4002 17.8405H22.0127C22.1122 17.8405 22.2076 17.801 22.2779 17.7307C22.3482 17.6603 22.3877 17.565 22.3877 17.4655V13.1005C22.3878 13.0503 22.3777 13.0006 22.3582 12.9543C22.3386 12.9081 22.31 12.8662 22.274 12.8313C22.2379 12.7963 22.1953 12.7689 22.1484 12.7507C22.1016 12.7326 22.0517 12.724 22.0015 12.7255ZM18.3527 22.7455H5.85773L4.60148 17.8705H19.6015L18.3527 22.7455ZM16.9615 8.09799C16.6277 11.563 16.0052 12.1855 12.5365 12.5192C12.964 8.91549 13.3577 8.52174 16.9615 8.09799ZM12.0865 1.20549C14.3365 4.05174 14.3365 4.61049 12.0865 7.45674C9.88523 4.77174 9.88523 3.89049 12.1015 1.20549H12.0865ZM7.24898 8.09799C10.8527 8.52174 11.2465 8.91549 11.674 12.5192C8.20523 12.1855 7.58273 11.563 7.24898 8.09799ZM21.6265 17.098H2.58398V13.4755H21.6265V17.098Z"
          fill="#028577"/>
</svg>
